G04 #@! TF.GenerationSoftware,KiCad,Pcbnew,(5.1.8-0-10_14)*
G04 #@! TF.CreationDate,2021-08-26T01:20:55-04:00*
G04 #@! TF.ProjectId,SNES2VGA_Sub_board,534e4553-3256-4474-915f-5375625f626f,1*
G04 #@! TF.SameCoordinates,Original*
G04 #@! TF.FileFunction,Soldermask,Bot*
G04 #@! TF.FilePolarity,Negative*
%FSLAX46Y46*%
G04 Gerber Fmt 4.6, Leading zero omitted, Abs format (unit mm)*
G04 Created by KiCad (PCBNEW (5.1.8-0-10_14)) date 2021-08-26 01:20:55*
%MOMM*%
%LPD*%
G01*
G04 APERTURE LIST*
%ADD10C,0.501600*%
G04 APERTURE END LIST*
D10*
X141451340Y-118108880D03*
X139031340Y-118108880D03*
X136611340Y-118108880D03*
X134191340Y-118108880D03*
X131771340Y-118108880D03*
G36*
G01*
X140660540Y-119449280D02*
X140660540Y-118148480D01*
G75*
G02*
X141060940Y-117748080I400400J0D01*
G01*
X141861740Y-117748080D01*
G75*
G02*
X142262140Y-118148480I0J-400400D01*
G01*
X142262140Y-119449280D01*
G75*
G02*
X141861740Y-119849680I-400400J0D01*
G01*
X141060940Y-119849680D01*
G75*
G02*
X140660540Y-119449280I0J400400D01*
G01*
G37*
G36*
G01*
X138240540Y-119449280D02*
X138240540Y-118148480D01*
G75*
G02*
X138640940Y-117748080I400400J0D01*
G01*
X139441740Y-117748080D01*
G75*
G02*
X139842140Y-118148480I0J-400400D01*
G01*
X139842140Y-119449280D01*
G75*
G02*
X139441740Y-119849680I-400400J0D01*
G01*
X138640940Y-119849680D01*
G75*
G02*
X138240540Y-119449280I0J400400D01*
G01*
G37*
G36*
G01*
X135820540Y-119449280D02*
X135820540Y-118148480D01*
G75*
G02*
X136220940Y-117748080I400400J0D01*
G01*
X137021740Y-117748080D01*
G75*
G02*
X137422140Y-118148480I0J-400400D01*
G01*
X137422140Y-119449280D01*
G75*
G02*
X137021740Y-119849680I-400400J0D01*
G01*
X136220940Y-119849680D01*
G75*
G02*
X135820540Y-119449280I0J400400D01*
G01*
G37*
G36*
G01*
X133400540Y-119449280D02*
X133400540Y-118148480D01*
G75*
G02*
X133800940Y-117748080I400400J0D01*
G01*
X134601740Y-117748080D01*
G75*
G02*
X135002140Y-118148480I0J-400400D01*
G01*
X135002140Y-119449280D01*
G75*
G02*
X134601740Y-119849680I-400400J0D01*
G01*
X133800940Y-119849680D01*
G75*
G02*
X133400540Y-119449280I0J400400D01*
G01*
G37*
G36*
G01*
X130980540Y-119449280D02*
X130980540Y-118148480D01*
G75*
G02*
X131380940Y-117748080I400400J0D01*
G01*
X132181740Y-117748080D01*
G75*
G02*
X132582140Y-118148480I0J-400400D01*
G01*
X132582140Y-119449280D01*
G75*
G02*
X132181740Y-119849680I-400400J0D01*
G01*
X131380940Y-119849680D01*
G75*
G02*
X130980540Y-119449280I0J400400D01*
G01*
G37*
X129351340Y-118108880D03*
G36*
G01*
X128560540Y-119449280D02*
X128560540Y-118148480D01*
G75*
G02*
X128960940Y-117748080I400400J0D01*
G01*
X129761740Y-117748080D01*
G75*
G02*
X130162140Y-118148480I0J-400400D01*
G01*
X130162140Y-119449280D01*
G75*
G02*
X129761740Y-119849680I-400400J0D01*
G01*
X128960940Y-119849680D01*
G75*
G02*
X128560540Y-119449280I0J400400D01*
G01*
G37*
M02*
