G04 #@! TF.GenerationSoftware,KiCad,Pcbnew,(5.1.8-0-10_14)*
G04 #@! TF.CreationDate,2021-09-02T15:15:19-04:00*
G04 #@! TF.ProjectId,N64D2VGA_Sub_board,4e363444-3256-4474-915f-5375625f626f,1*
G04 #@! TF.SameCoordinates,Original*
G04 #@! TF.FileFunction,Copper,L1,Top*
G04 #@! TF.FilePolarity,Positive*
%FSLAX46Y46*%
G04 Gerber Fmt 4.6, Leading zero omitted, Abs format (unit mm)*
G04 Created by KiCad (PCBNEW (5.1.8-0-10_14)) date 2021-09-02 15:15:19*
%MOMM*%
%LPD*%
G01*
G04 APERTURE LIST*
G04 #@! TA.AperFunction,ComponentPad*
%ADD10C,0.400000*%
G04 #@! TD*
G04 #@! TA.AperFunction,ViaPad*
%ADD11C,0.508000*%
G04 #@! TD*
G04 #@! TA.AperFunction,Conductor*
%ADD12C,0.250000*%
G04 #@! TD*
G04 #@! TA.AperFunction,Conductor*
%ADD13C,0.300000*%
G04 #@! TD*
G04 #@! TA.AperFunction,Conductor*
%ADD14C,0.254000*%
G04 #@! TD*
G04 #@! TA.AperFunction,Conductor*
%ADD15C,0.152400*%
G04 #@! TD*
G04 #@! TA.AperFunction,Conductor*
%ADD16C,0.025400*%
G04 #@! TD*
G04 APERTURE END LIST*
G04 #@! TA.AperFunction,ConnectorPad*
G36*
G01*
X128411340Y-114503880D02*
X128411340Y-112253880D01*
G75*
G02*
X128886340Y-111778880I475000J0D01*
G01*
X129836340Y-111778880D01*
G75*
G02*
X130311340Y-112253880I0J-475000D01*
G01*
X130311340Y-114503880D01*
G75*
G02*
X129836340Y-114978880I-475000J0D01*
G01*
X128886340Y-114978880D01*
G75*
G02*
X128411340Y-114503880I0J475000D01*
G01*
G37*
G04 #@! TD.AperFunction*
G04 #@! TA.AperFunction,ComponentPad*
G36*
G01*
X128611340Y-119613880D02*
X128611340Y-118363880D01*
G75*
G02*
X128986340Y-117988880I375000J0D01*
G01*
X129736340Y-117988880D01*
G75*
G02*
X130111340Y-118363880I0J-375000D01*
G01*
X130111340Y-119613880D01*
G75*
G02*
X129736340Y-119988880I-375000J0D01*
G01*
X128986340Y-119988880D01*
G75*
G02*
X128611340Y-119613880I0J375000D01*
G01*
G37*
G04 #@! TD.AperFunction*
D10*
X129351340Y-118298880D03*
G04 #@! TA.AperFunction,ConnectorPad*
G36*
G01*
X130831340Y-114503880D02*
X130831340Y-112253880D01*
G75*
G02*
X131306340Y-111778880I475000J0D01*
G01*
X132256340Y-111778880D01*
G75*
G02*
X132731340Y-112253880I0J-475000D01*
G01*
X132731340Y-114503880D01*
G75*
G02*
X132256340Y-114978880I-475000J0D01*
G01*
X131306340Y-114978880D01*
G75*
G02*
X130831340Y-114503880I0J475000D01*
G01*
G37*
G04 #@! TD.AperFunction*
G04 #@! TA.AperFunction,ConnectorPad*
G36*
G01*
X133251340Y-114503880D02*
X133251340Y-112253880D01*
G75*
G02*
X133726340Y-111778880I475000J0D01*
G01*
X134676340Y-111778880D01*
G75*
G02*
X135151340Y-112253880I0J-475000D01*
G01*
X135151340Y-114503880D01*
G75*
G02*
X134676340Y-114978880I-475000J0D01*
G01*
X133726340Y-114978880D01*
G75*
G02*
X133251340Y-114503880I0J475000D01*
G01*
G37*
G04 #@! TD.AperFunction*
G04 #@! TA.AperFunction,ConnectorPad*
G36*
G01*
X135671340Y-114503880D02*
X135671340Y-112253880D01*
G75*
G02*
X136146340Y-111778880I475000J0D01*
G01*
X137096340Y-111778880D01*
G75*
G02*
X137571340Y-112253880I0J-475000D01*
G01*
X137571340Y-114503880D01*
G75*
G02*
X137096340Y-114978880I-475000J0D01*
G01*
X136146340Y-114978880D01*
G75*
G02*
X135671340Y-114503880I0J475000D01*
G01*
G37*
G04 #@! TD.AperFunction*
G04 #@! TA.AperFunction,ConnectorPad*
G36*
G01*
X138091340Y-114503880D02*
X138091340Y-112253880D01*
G75*
G02*
X138566340Y-111778880I475000J0D01*
G01*
X139516340Y-111778880D01*
G75*
G02*
X139991340Y-112253880I0J-475000D01*
G01*
X139991340Y-114503880D01*
G75*
G02*
X139516340Y-114978880I-475000J0D01*
G01*
X138566340Y-114978880D01*
G75*
G02*
X138091340Y-114503880I0J475000D01*
G01*
G37*
G04 #@! TD.AperFunction*
G04 #@! TA.AperFunction,ConnectorPad*
G36*
G01*
X140511340Y-114503880D02*
X140511340Y-112253880D01*
G75*
G02*
X140986340Y-111778880I475000J0D01*
G01*
X141936340Y-111778880D01*
G75*
G02*
X142411340Y-112253880I0J-475000D01*
G01*
X142411340Y-114503880D01*
G75*
G02*
X141936340Y-114978880I-475000J0D01*
G01*
X140986340Y-114978880D01*
G75*
G02*
X140511340Y-114503880I0J475000D01*
G01*
G37*
G04 #@! TD.AperFunction*
G04 #@! TA.AperFunction,ComponentPad*
G36*
G01*
X131031340Y-119613880D02*
X131031340Y-118363880D01*
G75*
G02*
X131406340Y-117988880I375000J0D01*
G01*
X132156340Y-117988880D01*
G75*
G02*
X132531340Y-118363880I0J-375000D01*
G01*
X132531340Y-119613880D01*
G75*
G02*
X132156340Y-119988880I-375000J0D01*
G01*
X131406340Y-119988880D01*
G75*
G02*
X131031340Y-119613880I0J375000D01*
G01*
G37*
G04 #@! TD.AperFunction*
G04 #@! TA.AperFunction,ComponentPad*
G36*
G01*
X133451340Y-119613880D02*
X133451340Y-118363880D01*
G75*
G02*
X133826340Y-117988880I375000J0D01*
G01*
X134576340Y-117988880D01*
G75*
G02*
X134951340Y-118363880I0J-375000D01*
G01*
X134951340Y-119613880D01*
G75*
G02*
X134576340Y-119988880I-375000J0D01*
G01*
X133826340Y-119988880D01*
G75*
G02*
X133451340Y-119613880I0J375000D01*
G01*
G37*
G04 #@! TD.AperFunction*
G04 #@! TA.AperFunction,ComponentPad*
G36*
G01*
X135871340Y-119613880D02*
X135871340Y-118363880D01*
G75*
G02*
X136246340Y-117988880I375000J0D01*
G01*
X136996340Y-117988880D01*
G75*
G02*
X137371340Y-118363880I0J-375000D01*
G01*
X137371340Y-119613880D01*
G75*
G02*
X136996340Y-119988880I-375000J0D01*
G01*
X136246340Y-119988880D01*
G75*
G02*
X135871340Y-119613880I0J375000D01*
G01*
G37*
G04 #@! TD.AperFunction*
G04 #@! TA.AperFunction,ComponentPad*
G36*
G01*
X138291340Y-119613880D02*
X138291340Y-118363880D01*
G75*
G02*
X138666340Y-117988880I375000J0D01*
G01*
X139416340Y-117988880D01*
G75*
G02*
X139791340Y-118363880I0J-375000D01*
G01*
X139791340Y-119613880D01*
G75*
G02*
X139416340Y-119988880I-375000J0D01*
G01*
X138666340Y-119988880D01*
G75*
G02*
X138291340Y-119613880I0J375000D01*
G01*
G37*
G04 #@! TD.AperFunction*
G04 #@! TA.AperFunction,ComponentPad*
G36*
G01*
X140711340Y-119613880D02*
X140711340Y-118363880D01*
G75*
G02*
X141086340Y-117988880I375000J0D01*
G01*
X141836340Y-117988880D01*
G75*
G02*
X142211340Y-118363880I0J-375000D01*
G01*
X142211340Y-119613880D01*
G75*
G02*
X141836340Y-119988880I-375000J0D01*
G01*
X141086340Y-119988880D01*
G75*
G02*
X140711340Y-119613880I0J375000D01*
G01*
G37*
G04 #@! TD.AperFunction*
X131771340Y-118298880D03*
X134191340Y-118298880D03*
X136611340Y-118298880D03*
X139031340Y-118298880D03*
X141451340Y-118298880D03*
D11*
X128091340Y-116380020D03*
X130571340Y-116380020D03*
X132961340Y-116380020D03*
X135404860Y-116380020D03*
X137851340Y-116380020D03*
X140241340Y-116380020D03*
X142611340Y-116380020D03*
D12*
X129361340Y-113378880D02*
X129361340Y-118308880D01*
X131781340Y-113378880D02*
X131781340Y-118278880D01*
D13*
X134181340Y-118038880D02*
X134181340Y-113571400D01*
X139031340Y-113755700D02*
X139031340Y-117868880D01*
X141461340Y-113787020D02*
X141461340Y-117908880D01*
D14*
X128098199Y-112097109D02*
X128082758Y-112253880D01*
X128082758Y-114503880D01*
X128098199Y-114660651D01*
X128143927Y-114811398D01*
X128218186Y-114950326D01*
X128318122Y-115072098D01*
X128439894Y-115172034D01*
X128578822Y-115246293D01*
X128729569Y-115292021D01*
X128886340Y-115307462D01*
X128909340Y-115307462D01*
X128909341Y-117667882D01*
X128849078Y-117673817D01*
X128717091Y-117713855D01*
X128595451Y-117778873D01*
X128488832Y-117866372D01*
X128401333Y-117972991D01*
X128336315Y-118094631D01*
X128296277Y-118226618D01*
X128282758Y-118363880D01*
X128282758Y-119062030D01*
X125628190Y-119062030D01*
X125628190Y-111955730D01*
X128141085Y-111955730D01*
X128098199Y-112097109D01*
G04 #@! TA.AperFunction,Conductor*
D15*
G36*
X128098199Y-112097109D02*
G01*
X128082758Y-112253880D01*
X128082758Y-114503880D01*
X128098199Y-114660651D01*
X128143927Y-114811398D01*
X128218186Y-114950326D01*
X128318122Y-115072098D01*
X128439894Y-115172034D01*
X128578822Y-115246293D01*
X128729569Y-115292021D01*
X128886340Y-115307462D01*
X128909340Y-115307462D01*
X128909341Y-117667882D01*
X128849078Y-117673817D01*
X128717091Y-117713855D01*
X128595451Y-117778873D01*
X128488832Y-117866372D01*
X128401333Y-117972991D01*
X128336315Y-118094631D01*
X128296277Y-118226618D01*
X128282758Y-118363880D01*
X128282758Y-119062030D01*
X125628190Y-119062030D01*
X125628190Y-111955730D01*
X128141085Y-111955730D01*
X128098199Y-112097109D01*
G37*
G04 #@! TD.AperFunction*
D14*
X130638186Y-114950326D02*
X130738122Y-115072098D01*
X130859894Y-115172034D01*
X130998822Y-115246293D01*
X131149569Y-115292021D01*
X131306340Y-115307462D01*
X131329340Y-115307462D01*
X131329341Y-117667882D01*
X131269078Y-117673817D01*
X131137091Y-117713855D01*
X131015451Y-117778873D01*
X130908832Y-117866372D01*
X130821333Y-117972991D01*
X130756315Y-118094631D01*
X130716277Y-118226618D01*
X130702758Y-118363880D01*
X130702758Y-119062030D01*
X130439922Y-119062030D01*
X130439922Y-118363880D01*
X130426403Y-118226618D01*
X130386365Y-118094631D01*
X130321347Y-117972991D01*
X130233848Y-117866372D01*
X130127229Y-117778873D01*
X130005589Y-117713855D01*
X129873602Y-117673817D01*
X129813340Y-117667882D01*
X129813340Y-115307462D01*
X129836340Y-115307462D01*
X129993111Y-115292021D01*
X130143858Y-115246293D01*
X130282786Y-115172034D01*
X130404558Y-115072098D01*
X130504494Y-114950326D01*
X130571340Y-114825267D01*
X130638186Y-114950326D01*
G04 #@! TA.AperFunction,Conductor*
D15*
G36*
X130638186Y-114950326D02*
G01*
X130738122Y-115072098D01*
X130859894Y-115172034D01*
X130998822Y-115246293D01*
X131149569Y-115292021D01*
X131306340Y-115307462D01*
X131329340Y-115307462D01*
X131329341Y-117667882D01*
X131269078Y-117673817D01*
X131137091Y-117713855D01*
X131015451Y-117778873D01*
X130908832Y-117866372D01*
X130821333Y-117972991D01*
X130756315Y-118094631D01*
X130716277Y-118226618D01*
X130702758Y-118363880D01*
X130702758Y-119062030D01*
X130439922Y-119062030D01*
X130439922Y-118363880D01*
X130426403Y-118226618D01*
X130386365Y-118094631D01*
X130321347Y-117972991D01*
X130233848Y-117866372D01*
X130127229Y-117778873D01*
X130005589Y-117713855D01*
X129873602Y-117673817D01*
X129813340Y-117667882D01*
X129813340Y-115307462D01*
X129836340Y-115307462D01*
X129993111Y-115292021D01*
X130143858Y-115246293D01*
X130282786Y-115172034D01*
X130404558Y-115072098D01*
X130504494Y-114950326D01*
X130571340Y-114825267D01*
X130638186Y-114950326D01*
G37*
G04 #@! TD.AperFunction*
D14*
X133058186Y-114950326D02*
X133158122Y-115072098D01*
X133279894Y-115172034D01*
X133418822Y-115246293D01*
X133569569Y-115292021D01*
X133704341Y-115305295D01*
X133704340Y-117672314D01*
X133689078Y-117673817D01*
X133557091Y-117713855D01*
X133435451Y-117778873D01*
X133328832Y-117866372D01*
X133241333Y-117972991D01*
X133176315Y-118094631D01*
X133136277Y-118226618D01*
X133122758Y-118363880D01*
X133122758Y-119062030D01*
X132859922Y-119062030D01*
X132859922Y-118363880D01*
X132846403Y-118226618D01*
X132806365Y-118094631D01*
X132741347Y-117972991D01*
X132653848Y-117866372D01*
X132547229Y-117778873D01*
X132425589Y-117713855D01*
X132293602Y-117673817D01*
X132233340Y-117667882D01*
X132233340Y-115307462D01*
X132256340Y-115307462D01*
X132413111Y-115292021D01*
X132563858Y-115246293D01*
X132702786Y-115172034D01*
X132824558Y-115072098D01*
X132924494Y-114950326D01*
X132991340Y-114825267D01*
X133058186Y-114950326D01*
G04 #@! TA.AperFunction,Conductor*
D15*
G36*
X133058186Y-114950326D02*
G01*
X133158122Y-115072098D01*
X133279894Y-115172034D01*
X133418822Y-115246293D01*
X133569569Y-115292021D01*
X133704341Y-115305295D01*
X133704340Y-117672314D01*
X133689078Y-117673817D01*
X133557091Y-117713855D01*
X133435451Y-117778873D01*
X133328832Y-117866372D01*
X133241333Y-117972991D01*
X133176315Y-118094631D01*
X133136277Y-118226618D01*
X133122758Y-118363880D01*
X133122758Y-119062030D01*
X132859922Y-119062030D01*
X132859922Y-118363880D01*
X132846403Y-118226618D01*
X132806365Y-118094631D01*
X132741347Y-117972991D01*
X132653848Y-117866372D01*
X132547229Y-117778873D01*
X132425589Y-117713855D01*
X132293602Y-117673817D01*
X132233340Y-117667882D01*
X132233340Y-115307462D01*
X132256340Y-115307462D01*
X132413111Y-115292021D01*
X132563858Y-115246293D01*
X132702786Y-115172034D01*
X132824558Y-115072098D01*
X132924494Y-114950326D01*
X132991340Y-114825267D01*
X133058186Y-114950326D01*
G37*
G04 #@! TD.AperFunction*
D14*
X137778199Y-112097109D02*
X137762758Y-112253880D01*
X137762758Y-114503880D01*
X137778199Y-114660651D01*
X137823927Y-114811398D01*
X137898186Y-114950326D01*
X137998122Y-115072098D01*
X138119894Y-115172034D01*
X138258822Y-115246293D01*
X138409569Y-115292021D01*
X138554340Y-115306280D01*
X138554341Y-117671329D01*
X138529078Y-117673817D01*
X138397091Y-117713855D01*
X138275451Y-117778873D01*
X138168832Y-117866372D01*
X138081333Y-117972991D01*
X138016315Y-118094631D01*
X137976277Y-118226618D01*
X137962758Y-118363880D01*
X137962758Y-119062030D01*
X135279922Y-119062030D01*
X135279922Y-118363880D01*
X135266403Y-118226618D01*
X135226365Y-118094631D01*
X135161347Y-117972991D01*
X135073848Y-117866372D01*
X134967229Y-117778873D01*
X134845589Y-117713855D01*
X134713602Y-117673817D01*
X134658340Y-117668374D01*
X134658340Y-115307462D01*
X134676340Y-115307462D01*
X134833111Y-115292021D01*
X134983858Y-115246293D01*
X135122786Y-115172034D01*
X135244558Y-115072098D01*
X135344494Y-114950326D01*
X135418753Y-114811398D01*
X135464481Y-114660651D01*
X135479922Y-114503880D01*
X135479922Y-112253880D01*
X135464481Y-112097109D01*
X135421595Y-111955730D01*
X137821085Y-111955730D01*
X137778199Y-112097109D01*
G04 #@! TA.AperFunction,Conductor*
D15*
G36*
X137778199Y-112097109D02*
G01*
X137762758Y-112253880D01*
X137762758Y-114503880D01*
X137778199Y-114660651D01*
X137823927Y-114811398D01*
X137898186Y-114950326D01*
X137998122Y-115072098D01*
X138119894Y-115172034D01*
X138258822Y-115246293D01*
X138409569Y-115292021D01*
X138554340Y-115306280D01*
X138554341Y-117671329D01*
X138529078Y-117673817D01*
X138397091Y-117713855D01*
X138275451Y-117778873D01*
X138168832Y-117866372D01*
X138081333Y-117972991D01*
X138016315Y-118094631D01*
X137976277Y-118226618D01*
X137962758Y-118363880D01*
X137962758Y-119062030D01*
X135279922Y-119062030D01*
X135279922Y-118363880D01*
X135266403Y-118226618D01*
X135226365Y-118094631D01*
X135161347Y-117972991D01*
X135073848Y-117866372D01*
X134967229Y-117778873D01*
X134845589Y-117713855D01*
X134713602Y-117673817D01*
X134658340Y-117668374D01*
X134658340Y-115307462D01*
X134676340Y-115307462D01*
X134833111Y-115292021D01*
X134983858Y-115246293D01*
X135122786Y-115172034D01*
X135244558Y-115072098D01*
X135344494Y-114950326D01*
X135418753Y-114811398D01*
X135464481Y-114660651D01*
X135479922Y-114503880D01*
X135479922Y-112253880D01*
X135464481Y-112097109D01*
X135421595Y-111955730D01*
X137821085Y-111955730D01*
X137778199Y-112097109D01*
G37*
G04 #@! TD.AperFunction*
D14*
X140318186Y-114950326D02*
X140418122Y-115072098D01*
X140539894Y-115172034D01*
X140678822Y-115246293D01*
X140829569Y-115292021D01*
X140984340Y-115307265D01*
X140984341Y-117670344D01*
X140949078Y-117673817D01*
X140817091Y-117713855D01*
X140695451Y-117778873D01*
X140588832Y-117866372D01*
X140501333Y-117972991D01*
X140436315Y-118094631D01*
X140396277Y-118226618D01*
X140382758Y-118363880D01*
X140382758Y-119062030D01*
X140119922Y-119062030D01*
X140119922Y-118363880D01*
X140106403Y-118226618D01*
X140066365Y-118094631D01*
X140001347Y-117972991D01*
X139913848Y-117866372D01*
X139807229Y-117778873D01*
X139685589Y-117713855D01*
X139553602Y-117673817D01*
X139508340Y-117669359D01*
X139508340Y-115307462D01*
X139516340Y-115307462D01*
X139673111Y-115292021D01*
X139823858Y-115246293D01*
X139962786Y-115172034D01*
X140084558Y-115072098D01*
X140184494Y-114950326D01*
X140251340Y-114825267D01*
X140318186Y-114950326D01*
G04 #@! TA.AperFunction,Conductor*
D15*
G36*
X140318186Y-114950326D02*
G01*
X140418122Y-115072098D01*
X140539894Y-115172034D01*
X140678822Y-115246293D01*
X140829569Y-115292021D01*
X140984340Y-115307265D01*
X140984341Y-117670344D01*
X140949078Y-117673817D01*
X140817091Y-117713855D01*
X140695451Y-117778873D01*
X140588832Y-117866372D01*
X140501333Y-117972991D01*
X140436315Y-118094631D01*
X140396277Y-118226618D01*
X140382758Y-118363880D01*
X140382758Y-119062030D01*
X140119922Y-119062030D01*
X140119922Y-118363880D01*
X140106403Y-118226618D01*
X140066365Y-118094631D01*
X140001347Y-117972991D01*
X139913848Y-117866372D01*
X139807229Y-117778873D01*
X139685589Y-117713855D01*
X139553602Y-117673817D01*
X139508340Y-117669359D01*
X139508340Y-115307462D01*
X139516340Y-115307462D01*
X139673111Y-115292021D01*
X139823858Y-115246293D01*
X139962786Y-115172034D01*
X140084558Y-115072098D01*
X140184494Y-114950326D01*
X140251340Y-114825267D01*
X140318186Y-114950326D01*
G37*
G04 #@! TD.AperFunction*
D14*
X145214491Y-119062030D02*
X142539922Y-119062030D01*
X142539922Y-118363880D01*
X142526403Y-118226618D01*
X142486365Y-118094631D01*
X142421347Y-117972991D01*
X142333848Y-117866372D01*
X142227229Y-117778873D01*
X142105589Y-117713855D01*
X141973602Y-117673817D01*
X141938340Y-117670344D01*
X141938340Y-115307265D01*
X142093111Y-115292021D01*
X142243858Y-115246293D01*
X142382786Y-115172034D01*
X142504558Y-115072098D01*
X142604494Y-114950326D01*
X142678753Y-114811398D01*
X142724481Y-114660651D01*
X142739922Y-114503880D01*
X142739922Y-112253880D01*
X142724481Y-112097109D01*
X142681595Y-111955730D01*
X145214490Y-111955730D01*
X145214491Y-119062030D01*
G04 #@! TA.AperFunction,Conductor*
D15*
G36*
X145214491Y-119062030D02*
G01*
X142539922Y-119062030D01*
X142539922Y-118363880D01*
X142526403Y-118226618D01*
X142486365Y-118094631D01*
X142421347Y-117972991D01*
X142333848Y-117866372D01*
X142227229Y-117778873D01*
X142105589Y-117713855D01*
X141973602Y-117673817D01*
X141938340Y-117670344D01*
X141938340Y-115307265D01*
X142093111Y-115292021D01*
X142243858Y-115246293D01*
X142382786Y-115172034D01*
X142504558Y-115072098D01*
X142604494Y-114950326D01*
X142678753Y-114811398D01*
X142724481Y-114660651D01*
X142739922Y-114503880D01*
X142739922Y-112253880D01*
X142724481Y-112097109D01*
X142681595Y-111955730D01*
X145214490Y-111955730D01*
X145214491Y-119062030D01*
G37*
G04 #@! TD.AperFunction*
D16*
X129473856Y-117961918D02*
X129473859Y-117962116D01*
X129474633Y-117999614D01*
X129474643Y-117999935D01*
X129476161Y-118032954D01*
X129476191Y-118033419D01*
X129478637Y-118062955D01*
X129478703Y-118063565D01*
X129482265Y-118090615D01*
X129482380Y-118091331D01*
X129487243Y-118116893D01*
X129487408Y-118117637D01*
X129493757Y-118142707D01*
X129493950Y-118143390D01*
X129501973Y-118168966D01*
X129502161Y-118169519D01*
X129512042Y-118196597D01*
X129512193Y-118196992D01*
X129520854Y-118218472D01*
X129346809Y-118380432D01*
X129191752Y-118200163D01*
X129201835Y-118181280D01*
X129202082Y-118180792D01*
X129213888Y-118156189D01*
X129214190Y-118155510D01*
X129223830Y-118131980D01*
X129224141Y-118131137D01*
X129231823Y-118107805D01*
X129232090Y-118106878D01*
X129238020Y-118082866D01*
X129238207Y-118081969D01*
X129242594Y-118056401D01*
X129242702Y-118055629D01*
X129245753Y-118027627D01*
X129245804Y-118027030D01*
X129247727Y-117995719D01*
X129247746Y-117995298D01*
X129248747Y-117959799D01*
X129248752Y-117959531D01*
X129248950Y-117931580D01*
X129473704Y-117931580D01*
X129473856Y-117961918D01*
G04 #@! TA.AperFunction,Conductor*
D15*
G36*
X129473856Y-117961918D02*
G01*
X129473859Y-117962116D01*
X129474633Y-117999614D01*
X129474643Y-117999935D01*
X129476161Y-118032954D01*
X129476191Y-118033419D01*
X129478637Y-118062955D01*
X129478703Y-118063565D01*
X129482265Y-118090615D01*
X129482380Y-118091331D01*
X129487243Y-118116893D01*
X129487408Y-118117637D01*
X129493757Y-118142707D01*
X129493950Y-118143390D01*
X129501973Y-118168966D01*
X129502161Y-118169519D01*
X129512042Y-118196597D01*
X129512193Y-118196992D01*
X129520854Y-118218472D01*
X129346809Y-118380432D01*
X129191752Y-118200163D01*
X129201835Y-118181280D01*
X129202082Y-118180792D01*
X129213888Y-118156189D01*
X129214190Y-118155510D01*
X129223830Y-118131980D01*
X129224141Y-118131137D01*
X129231823Y-118107805D01*
X129232090Y-118106878D01*
X129238020Y-118082866D01*
X129238207Y-118081969D01*
X129242594Y-118056401D01*
X129242702Y-118055629D01*
X129245753Y-118027627D01*
X129245804Y-118027030D01*
X129247727Y-117995719D01*
X129247746Y-117995298D01*
X129248747Y-117959799D01*
X129248752Y-117959531D01*
X129248950Y-117931580D01*
X129473704Y-117931580D01*
X129473856Y-117961918D01*
G37*
G04 #@! TD.AperFunction*
D16*
X131893756Y-117944523D02*
X131893757Y-117944656D01*
X131894275Y-117984495D01*
X131894281Y-117984752D01*
X131895448Y-118019865D01*
X131895468Y-118020276D01*
X131897534Y-118051709D01*
X131897585Y-118052285D01*
X131900801Y-118081084D01*
X131900902Y-118081798D01*
X131905516Y-118109011D01*
X131905673Y-118109791D01*
X131911935Y-118136463D01*
X131912135Y-118137211D01*
X131920294Y-118164390D01*
X131920504Y-118165027D01*
X131930810Y-118193757D01*
X131930995Y-118194241D01*
X131940431Y-118217511D01*
X131767262Y-118380456D01*
X131611194Y-118201033D01*
X131622122Y-118180171D01*
X131622391Y-118179626D01*
X131634677Y-118153165D01*
X131634989Y-118152434D01*
X131644867Y-118127121D01*
X131645174Y-118126240D01*
X131652900Y-118101141D01*
X131653150Y-118100203D01*
X131658982Y-118074380D01*
X131659149Y-118073498D01*
X131663343Y-118046017D01*
X131663433Y-118045285D01*
X131666248Y-118015210D01*
X131666287Y-118014665D01*
X131667979Y-117981060D01*
X131667992Y-117980696D01*
X131668818Y-117942626D01*
X131668821Y-117942415D01*
X131668976Y-117911580D01*
X131893672Y-117911580D01*
X131893756Y-117944523D01*
G04 #@! TA.AperFunction,Conductor*
D15*
G36*
X131893756Y-117944523D02*
G01*
X131893757Y-117944656D01*
X131894275Y-117984495D01*
X131894281Y-117984752D01*
X131895448Y-118019865D01*
X131895468Y-118020276D01*
X131897534Y-118051709D01*
X131897585Y-118052285D01*
X131900801Y-118081084D01*
X131900902Y-118081798D01*
X131905516Y-118109011D01*
X131905673Y-118109791D01*
X131911935Y-118136463D01*
X131912135Y-118137211D01*
X131920294Y-118164390D01*
X131920504Y-118165027D01*
X131930810Y-118193757D01*
X131930995Y-118194241D01*
X131940431Y-118217511D01*
X131767262Y-118380456D01*
X131611194Y-118201033D01*
X131622122Y-118180171D01*
X131622391Y-118179626D01*
X131634677Y-118153165D01*
X131634989Y-118152434D01*
X131644867Y-118127121D01*
X131645174Y-118126240D01*
X131652900Y-118101141D01*
X131653150Y-118100203D01*
X131658982Y-118074380D01*
X131659149Y-118073498D01*
X131663343Y-118046017D01*
X131663433Y-118045285D01*
X131666248Y-118015210D01*
X131666287Y-118014665D01*
X131667979Y-117981060D01*
X131667992Y-117980696D01*
X131668818Y-117942626D01*
X131668821Y-117942415D01*
X131668976Y-117911580D01*
X131893672Y-117911580D01*
X131893756Y-117944523D01*
G37*
G04 #@! TD.AperFunction*
M02*
