G04 #@! TF.GenerationSoftware,KiCad,Pcbnew,(5.1.8-0-10_14)*
G04 #@! TF.CreationDate,2021-09-02T15:15:19-04:00*
G04 #@! TF.ProjectId,N64D2VGA_Sub_board,4e363444-3256-4474-915f-5375625f626f,1*
G04 #@! TF.SameCoordinates,Original*
G04 #@! TF.FileFunction,Legend,Bot*
G04 #@! TF.FilePolarity,Positive*
%FSLAX46Y46*%
G04 Gerber Fmt 4.6, Leading zero omitted, Abs format (unit mm)*
G04 Created by KiCad (PCBNEW (5.1.8-0-10_14)) date 2021-09-02 15:15:19*
%MOMM*%
%LPD*%
G01*
G04 APERTURE LIST*
%ADD10C,0.125000*%
%ADD11C,0.501600*%
G04 APERTURE END LIST*
D10*
X144579911Y-113268165D02*
X144151340Y-113268165D01*
X144365625Y-114018165D02*
X144365625Y-113268165D01*
X143901340Y-114018165D02*
X143901340Y-113268165D01*
X143579911Y-114018165D02*
X143579911Y-113625308D01*
X143615625Y-113553880D01*
X143687054Y-113518165D01*
X143794197Y-113518165D01*
X143865625Y-113553880D01*
X143901340Y-113589594D01*
X143222768Y-114018165D02*
X143222768Y-113518165D01*
X143222768Y-113268165D02*
X143258482Y-113303880D01*
X143222768Y-113339594D01*
X143187054Y-113303880D01*
X143222768Y-113268165D01*
X143222768Y-113339594D01*
X142901340Y-113982451D02*
X142829911Y-114018165D01*
X142687054Y-114018165D01*
X142615625Y-113982451D01*
X142579911Y-113911022D01*
X142579911Y-113875308D01*
X142615625Y-113803880D01*
X142687054Y-113768165D01*
X142794197Y-113768165D01*
X142865625Y-113732451D01*
X142901340Y-113661022D01*
X142901340Y-113625308D01*
X142865625Y-113553880D01*
X142794197Y-113518165D01*
X142687054Y-113518165D01*
X142615625Y-113553880D01*
X141722768Y-113982451D02*
X141651340Y-114018165D01*
X141508482Y-114018165D01*
X141437054Y-113982451D01*
X141401340Y-113911022D01*
X141401340Y-113875308D01*
X141437054Y-113803880D01*
X141508482Y-113768165D01*
X141615625Y-113768165D01*
X141687054Y-113732451D01*
X141722768Y-113661022D01*
X141722768Y-113625308D01*
X141687054Y-113553880D01*
X141615625Y-113518165D01*
X141508482Y-113518165D01*
X141437054Y-113553880D01*
X141079911Y-114018165D02*
X141079911Y-113518165D01*
X141079911Y-113268165D02*
X141115625Y-113303880D01*
X141079911Y-113339594D01*
X141044197Y-113303880D01*
X141079911Y-113268165D01*
X141079911Y-113339594D01*
X140401340Y-114018165D02*
X140401340Y-113268165D01*
X140401340Y-113982451D02*
X140472768Y-114018165D01*
X140615625Y-114018165D01*
X140687054Y-113982451D01*
X140722768Y-113946737D01*
X140758482Y-113875308D01*
X140758482Y-113661022D01*
X140722768Y-113589594D01*
X140687054Y-113553880D01*
X140615625Y-113518165D01*
X140472768Y-113518165D01*
X140401340Y-113553880D01*
X139758482Y-113982451D02*
X139829911Y-114018165D01*
X139972768Y-114018165D01*
X140044197Y-113982451D01*
X140079911Y-113911022D01*
X140079911Y-113625308D01*
X140044197Y-113553880D01*
X139972768Y-113518165D01*
X139829911Y-113518165D01*
X139758482Y-113553880D01*
X139722768Y-113625308D01*
X139722768Y-113696737D01*
X140079911Y-113768165D01*
X138865625Y-113982451D02*
X138794197Y-114018165D01*
X138651340Y-114018165D01*
X138579911Y-113982451D01*
X138544197Y-113911022D01*
X138544197Y-113875308D01*
X138579911Y-113803880D01*
X138651340Y-113768165D01*
X138758482Y-113768165D01*
X138829911Y-113732451D01*
X138865625Y-113661022D01*
X138865625Y-113625308D01*
X138829911Y-113553880D01*
X138758482Y-113518165D01*
X138651340Y-113518165D01*
X138579911Y-113553880D01*
X138222768Y-114018165D02*
X138222768Y-113268165D01*
X137901340Y-114018165D02*
X137901340Y-113625308D01*
X137937054Y-113553880D01*
X138008482Y-113518165D01*
X138115625Y-113518165D01*
X138187054Y-113553880D01*
X138222768Y-113589594D01*
X137437054Y-114018165D02*
X137508482Y-113982451D01*
X137544197Y-113946737D01*
X137579911Y-113875308D01*
X137579911Y-113661022D01*
X137544197Y-113589594D01*
X137508482Y-113553880D01*
X137437054Y-113518165D01*
X137329911Y-113518165D01*
X137258482Y-113553880D01*
X137222768Y-113589594D01*
X137187054Y-113661022D01*
X137187054Y-113875308D01*
X137222768Y-113946737D01*
X137258482Y-113982451D01*
X137329911Y-114018165D01*
X137437054Y-114018165D01*
X136544197Y-113518165D02*
X136544197Y-114018165D01*
X136865625Y-113518165D02*
X136865625Y-113911022D01*
X136829911Y-113982451D01*
X136758482Y-114018165D01*
X136651340Y-114018165D01*
X136579911Y-113982451D01*
X136544197Y-113946737D01*
X136079911Y-114018165D02*
X136151340Y-113982451D01*
X136187054Y-113911022D01*
X136187054Y-113268165D01*
X135472768Y-114018165D02*
X135472768Y-113268165D01*
X135472768Y-113982451D02*
X135544197Y-114018165D01*
X135687054Y-114018165D01*
X135758482Y-113982451D01*
X135794197Y-113946737D01*
X135829911Y-113875308D01*
X135829911Y-113661022D01*
X135794197Y-113589594D01*
X135758482Y-113553880D01*
X135687054Y-113518165D01*
X135544197Y-113518165D01*
X135472768Y-113553880D01*
X134544197Y-114018165D02*
X134544197Y-113268165D01*
X134115625Y-114018165D01*
X134115625Y-113268165D01*
X133615625Y-113268165D02*
X133472768Y-113268165D01*
X133401340Y-113303880D01*
X133329911Y-113375308D01*
X133294197Y-113518165D01*
X133294197Y-113768165D01*
X133329911Y-113911022D01*
X133401340Y-113982451D01*
X133472768Y-114018165D01*
X133615625Y-114018165D01*
X133687054Y-113982451D01*
X133758482Y-113911022D01*
X133794197Y-113768165D01*
X133794197Y-113518165D01*
X133758482Y-113375308D01*
X133687054Y-113303880D01*
X133615625Y-113268165D01*
X133079911Y-113268165D02*
X132651340Y-113268165D01*
X132865625Y-114018165D02*
X132865625Y-113268165D01*
X131829911Y-114018165D02*
X131829911Y-113268165D01*
X131829911Y-113553880D02*
X131758482Y-113518165D01*
X131615625Y-113518165D01*
X131544197Y-113553880D01*
X131508482Y-113589594D01*
X131472768Y-113661022D01*
X131472768Y-113875308D01*
X131508482Y-113946737D01*
X131544197Y-113982451D01*
X131615625Y-114018165D01*
X131758482Y-114018165D01*
X131829911Y-113982451D01*
X130865625Y-113982451D02*
X130937054Y-114018165D01*
X131079911Y-114018165D01*
X131151340Y-113982451D01*
X131187054Y-113911022D01*
X131187054Y-113625308D01*
X131151340Y-113553880D01*
X131079911Y-113518165D01*
X130937054Y-113518165D01*
X130865625Y-113553880D01*
X130829911Y-113625308D01*
X130829911Y-113696737D01*
X131187054Y-113768165D01*
X130008482Y-113518165D02*
X129829911Y-114018165D01*
X129651340Y-113518165D01*
X129365625Y-114018165D02*
X129365625Y-113518165D01*
X129365625Y-113268165D02*
X129401340Y-113303880D01*
X129365625Y-113339594D01*
X129329911Y-113303880D01*
X129365625Y-113268165D01*
X129365625Y-113339594D01*
X129044197Y-113982451D02*
X128972768Y-114018165D01*
X128829911Y-114018165D01*
X128758482Y-113982451D01*
X128722768Y-113911022D01*
X128722768Y-113875308D01*
X128758482Y-113803880D01*
X128829911Y-113768165D01*
X128937054Y-113768165D01*
X129008482Y-113732451D01*
X129044197Y-113661022D01*
X129044197Y-113625308D01*
X129008482Y-113553880D01*
X128937054Y-113518165D01*
X128829911Y-113518165D01*
X128758482Y-113553880D01*
X128401340Y-114018165D02*
X128401340Y-113518165D01*
X128401340Y-113268165D02*
X128437054Y-113303880D01*
X128401340Y-113339594D01*
X128365625Y-113303880D01*
X128401340Y-113268165D01*
X128401340Y-113339594D01*
X128044197Y-114018165D02*
X128044197Y-113268165D01*
X128044197Y-113553880D02*
X127972768Y-113518165D01*
X127829911Y-113518165D01*
X127758482Y-113553880D01*
X127722768Y-113589594D01*
X127687054Y-113661022D01*
X127687054Y-113875308D01*
X127722768Y-113946737D01*
X127758482Y-113982451D01*
X127829911Y-114018165D01*
X127972768Y-114018165D01*
X128044197Y-113982451D01*
X127258482Y-114018165D02*
X127329911Y-113982451D01*
X127365625Y-113911022D01*
X127365625Y-113268165D01*
X126687054Y-113982451D02*
X126758482Y-114018165D01*
X126901340Y-114018165D01*
X126972768Y-113982451D01*
X127008482Y-113911022D01*
X127008482Y-113625308D01*
X126972768Y-113553880D01*
X126901340Y-113518165D01*
X126758482Y-113518165D01*
X126687054Y-113553880D01*
X126651340Y-113625308D01*
X126651340Y-113696737D01*
X127008482Y-113768165D01*
X126329911Y-113946737D02*
X126294197Y-113982451D01*
X126329911Y-114018165D01*
X126365625Y-113982451D01*
X126329911Y-113946737D01*
X126329911Y-114018165D01*
%LPC*%
G36*
G01*
X128560540Y-119639280D02*
X128560540Y-118338480D01*
G75*
G02*
X128960940Y-117938080I400400J0D01*
G01*
X129761740Y-117938080D01*
G75*
G02*
X130162140Y-118338480I0J-400400D01*
G01*
X130162140Y-119639280D01*
G75*
G02*
X129761740Y-120039680I-400400J0D01*
G01*
X128960940Y-120039680D01*
G75*
G02*
X128560540Y-119639280I0J400400D01*
G01*
G37*
D11*
X129351340Y-118298880D03*
G36*
G01*
X130980540Y-119639280D02*
X130980540Y-118338480D01*
G75*
G02*
X131380940Y-117938080I400400J0D01*
G01*
X132181740Y-117938080D01*
G75*
G02*
X132582140Y-118338480I0J-400400D01*
G01*
X132582140Y-119639280D01*
G75*
G02*
X132181740Y-120039680I-400400J0D01*
G01*
X131380940Y-120039680D01*
G75*
G02*
X130980540Y-119639280I0J400400D01*
G01*
G37*
G36*
G01*
X133400540Y-119639280D02*
X133400540Y-118338480D01*
G75*
G02*
X133800940Y-117938080I400400J0D01*
G01*
X134601740Y-117938080D01*
G75*
G02*
X135002140Y-118338480I0J-400400D01*
G01*
X135002140Y-119639280D01*
G75*
G02*
X134601740Y-120039680I-400400J0D01*
G01*
X133800940Y-120039680D01*
G75*
G02*
X133400540Y-119639280I0J400400D01*
G01*
G37*
G36*
G01*
X135820540Y-119639280D02*
X135820540Y-118338480D01*
G75*
G02*
X136220940Y-117938080I400400J0D01*
G01*
X137021740Y-117938080D01*
G75*
G02*
X137422140Y-118338480I0J-400400D01*
G01*
X137422140Y-119639280D01*
G75*
G02*
X137021740Y-120039680I-400400J0D01*
G01*
X136220940Y-120039680D01*
G75*
G02*
X135820540Y-119639280I0J400400D01*
G01*
G37*
G36*
G01*
X138240540Y-119639280D02*
X138240540Y-118338480D01*
G75*
G02*
X138640940Y-117938080I400400J0D01*
G01*
X139441740Y-117938080D01*
G75*
G02*
X139842140Y-118338480I0J-400400D01*
G01*
X139842140Y-119639280D01*
G75*
G02*
X139441740Y-120039680I-400400J0D01*
G01*
X138640940Y-120039680D01*
G75*
G02*
X138240540Y-119639280I0J400400D01*
G01*
G37*
G36*
G01*
X140660540Y-119639280D02*
X140660540Y-118338480D01*
G75*
G02*
X141060940Y-117938080I400400J0D01*
G01*
X141861740Y-117938080D01*
G75*
G02*
X142262140Y-118338480I0J-400400D01*
G01*
X142262140Y-119639280D01*
G75*
G02*
X141861740Y-120039680I-400400J0D01*
G01*
X141060940Y-120039680D01*
G75*
G02*
X140660540Y-119639280I0J400400D01*
G01*
G37*
X131771340Y-118298880D03*
X134191340Y-118298880D03*
X136611340Y-118298880D03*
X139031340Y-118298880D03*
X141451340Y-118298880D03*
M02*
