G04 #@! TF.GenerationSoftware,KiCad,Pcbnew,(5.1.8-0-10_14)*
G04 #@! TF.CreationDate,2021-09-02T15:15:19-04:00*
G04 #@! TF.ProjectId,N64D2VGA_Sub_board,4e363444-3256-4474-915f-5375625f626f,1*
G04 #@! TF.SameCoordinates,Original*
G04 #@! TF.FileFunction,Legend,Top*
G04 #@! TF.FilePolarity,Positive*
%FSLAX46Y46*%
G04 Gerber Fmt 4.6, Leading zero omitted, Abs format (unit mm)*
G04 Created by KiCad (PCBNEW (5.1.8-0-10_14)) date 2021-09-02 15:15:19*
%MOMM*%
%LPD*%
G01*
G04 APERTURE LIST*
%ADD10C,0.187500*%
%ADD11C,0.200000*%
%ADD12C,0.501600*%
G04 APERTURE END LIST*
D10*
X143582054Y-112660308D02*
X144332054Y-112660308D01*
X143582054Y-113088880D01*
X144332054Y-113088880D01*
X144332054Y-113767451D02*
X144332054Y-113624594D01*
X144296340Y-113553165D01*
X144260625Y-113517451D01*
X144153482Y-113446022D01*
X144010625Y-113410308D01*
X143724911Y-113410308D01*
X143653482Y-113446022D01*
X143617768Y-113481737D01*
X143582054Y-113553165D01*
X143582054Y-113696022D01*
X143617768Y-113767451D01*
X143653482Y-113803165D01*
X143724911Y-113838880D01*
X143903482Y-113838880D01*
X143974911Y-113803165D01*
X144010625Y-113767451D01*
X144046340Y-113696022D01*
X144046340Y-113553165D01*
X144010625Y-113481737D01*
X143974911Y-113446022D01*
X143903482Y-113410308D01*
X144082054Y-114481737D02*
X143582054Y-114481737D01*
X144367768Y-114303165D02*
X143832054Y-114124594D01*
X143832054Y-114588880D01*
X143582054Y-114874594D02*
X144332054Y-114874594D01*
X144332054Y-115053165D01*
X144296340Y-115160308D01*
X144224911Y-115231737D01*
X144153482Y-115267451D01*
X144010625Y-115303165D01*
X143903482Y-115303165D01*
X143760625Y-115267451D01*
X143689197Y-115231737D01*
X143617768Y-115160308D01*
X143582054Y-115053165D01*
X143582054Y-114874594D01*
X144260625Y-115588880D02*
X144296340Y-115624594D01*
X144332054Y-115696022D01*
X144332054Y-115874594D01*
X144296340Y-115946022D01*
X144260625Y-115981737D01*
X144189197Y-116017451D01*
X144117768Y-116017451D01*
X144010625Y-115981737D01*
X143582054Y-115553165D01*
X143582054Y-116017451D01*
X144332054Y-116231737D02*
X143582054Y-116481737D01*
X144332054Y-116731737D01*
X144296340Y-117374594D02*
X144332054Y-117303165D01*
X144332054Y-117196022D01*
X144296340Y-117088880D01*
X144224911Y-117017451D01*
X144153482Y-116981737D01*
X144010625Y-116946022D01*
X143903482Y-116946022D01*
X143760625Y-116981737D01*
X143689197Y-117017451D01*
X143617768Y-117088880D01*
X143582054Y-117196022D01*
X143582054Y-117267451D01*
X143617768Y-117374594D01*
X143653482Y-117410308D01*
X143903482Y-117410308D01*
X143903482Y-117267451D01*
X143796340Y-117696022D02*
X143796340Y-118053165D01*
X143582054Y-117624594D02*
X144332054Y-117874594D01*
X143582054Y-118124594D01*
D11*
X127598959Y-114228403D02*
X127598959Y-114799832D01*
X126598959Y-114514118D02*
X127598959Y-114514118D01*
X126598959Y-115276022D02*
X126646578Y-115180784D01*
X126694197Y-115133165D01*
X126789435Y-115085546D01*
X127075149Y-115085546D01*
X127170387Y-115133165D01*
X127218006Y-115180784D01*
X127265625Y-115276022D01*
X127265625Y-115418880D01*
X127218006Y-115514118D01*
X127170387Y-115561737D01*
X127075149Y-115609356D01*
X126789435Y-115609356D01*
X126694197Y-115561737D01*
X126646578Y-115514118D01*
X126598959Y-115418880D01*
X126598959Y-115276022D01*
X127265625Y-116037927D02*
X126265625Y-116037927D01*
X127218006Y-116037927D02*
X127265625Y-116133165D01*
X127265625Y-116323641D01*
X127218006Y-116418880D01*
X127170387Y-116466499D01*
X127075149Y-116514118D01*
X126789435Y-116514118D01*
X126694197Y-116466499D01*
X126646578Y-116418880D01*
X126598959Y-116323641D01*
X126598959Y-116133165D01*
X126646578Y-116037927D01*
%LPC*%
G36*
G01*
X128360540Y-114529280D02*
X128360540Y-112228480D01*
G75*
G02*
X128860940Y-111728080I500400J0D01*
G01*
X129861740Y-111728080D01*
G75*
G02*
X130362140Y-112228480I0J-500400D01*
G01*
X130362140Y-114529280D01*
G75*
G02*
X129861740Y-115029680I-500400J0D01*
G01*
X128860940Y-115029680D01*
G75*
G02*
X128360540Y-114529280I0J500400D01*
G01*
G37*
G36*
G01*
X128560540Y-119639280D02*
X128560540Y-118338480D01*
G75*
G02*
X128960940Y-117938080I400400J0D01*
G01*
X129761740Y-117938080D01*
G75*
G02*
X130162140Y-118338480I0J-400400D01*
G01*
X130162140Y-119639280D01*
G75*
G02*
X129761740Y-120039680I-400400J0D01*
G01*
X128960940Y-120039680D01*
G75*
G02*
X128560540Y-119639280I0J400400D01*
G01*
G37*
D12*
X129351340Y-118298880D03*
G36*
G01*
X130780540Y-114529280D02*
X130780540Y-112228480D01*
G75*
G02*
X131280940Y-111728080I500400J0D01*
G01*
X132281740Y-111728080D01*
G75*
G02*
X132782140Y-112228480I0J-500400D01*
G01*
X132782140Y-114529280D01*
G75*
G02*
X132281740Y-115029680I-500400J0D01*
G01*
X131280940Y-115029680D01*
G75*
G02*
X130780540Y-114529280I0J500400D01*
G01*
G37*
G36*
G01*
X133200540Y-114529280D02*
X133200540Y-112228480D01*
G75*
G02*
X133700940Y-111728080I500400J0D01*
G01*
X134701740Y-111728080D01*
G75*
G02*
X135202140Y-112228480I0J-500400D01*
G01*
X135202140Y-114529280D01*
G75*
G02*
X134701740Y-115029680I-500400J0D01*
G01*
X133700940Y-115029680D01*
G75*
G02*
X133200540Y-114529280I0J500400D01*
G01*
G37*
G36*
G01*
X135620540Y-114529280D02*
X135620540Y-112228480D01*
G75*
G02*
X136120940Y-111728080I500400J0D01*
G01*
X137121740Y-111728080D01*
G75*
G02*
X137622140Y-112228480I0J-500400D01*
G01*
X137622140Y-114529280D01*
G75*
G02*
X137121740Y-115029680I-500400J0D01*
G01*
X136120940Y-115029680D01*
G75*
G02*
X135620540Y-114529280I0J500400D01*
G01*
G37*
G36*
G01*
X138040540Y-114529280D02*
X138040540Y-112228480D01*
G75*
G02*
X138540940Y-111728080I500400J0D01*
G01*
X139541740Y-111728080D01*
G75*
G02*
X140042140Y-112228480I0J-500400D01*
G01*
X140042140Y-114529280D01*
G75*
G02*
X139541740Y-115029680I-500400J0D01*
G01*
X138540940Y-115029680D01*
G75*
G02*
X138040540Y-114529280I0J500400D01*
G01*
G37*
G36*
G01*
X140460540Y-114529280D02*
X140460540Y-112228480D01*
G75*
G02*
X140960940Y-111728080I500400J0D01*
G01*
X141961740Y-111728080D01*
G75*
G02*
X142462140Y-112228480I0J-500400D01*
G01*
X142462140Y-114529280D01*
G75*
G02*
X141961740Y-115029680I-500400J0D01*
G01*
X140960940Y-115029680D01*
G75*
G02*
X140460540Y-114529280I0J500400D01*
G01*
G37*
G36*
G01*
X130980540Y-119639280D02*
X130980540Y-118338480D01*
G75*
G02*
X131380940Y-117938080I400400J0D01*
G01*
X132181740Y-117938080D01*
G75*
G02*
X132582140Y-118338480I0J-400400D01*
G01*
X132582140Y-119639280D01*
G75*
G02*
X132181740Y-120039680I-400400J0D01*
G01*
X131380940Y-120039680D01*
G75*
G02*
X130980540Y-119639280I0J400400D01*
G01*
G37*
G36*
G01*
X133400540Y-119639280D02*
X133400540Y-118338480D01*
G75*
G02*
X133800940Y-117938080I400400J0D01*
G01*
X134601740Y-117938080D01*
G75*
G02*
X135002140Y-118338480I0J-400400D01*
G01*
X135002140Y-119639280D01*
G75*
G02*
X134601740Y-120039680I-400400J0D01*
G01*
X133800940Y-120039680D01*
G75*
G02*
X133400540Y-119639280I0J400400D01*
G01*
G37*
G36*
G01*
X135820540Y-119639280D02*
X135820540Y-118338480D01*
G75*
G02*
X136220940Y-117938080I400400J0D01*
G01*
X137021740Y-117938080D01*
G75*
G02*
X137422140Y-118338480I0J-400400D01*
G01*
X137422140Y-119639280D01*
G75*
G02*
X137021740Y-120039680I-400400J0D01*
G01*
X136220940Y-120039680D01*
G75*
G02*
X135820540Y-119639280I0J400400D01*
G01*
G37*
G36*
G01*
X138240540Y-119639280D02*
X138240540Y-118338480D01*
G75*
G02*
X138640940Y-117938080I400400J0D01*
G01*
X139441740Y-117938080D01*
G75*
G02*
X139842140Y-118338480I0J-400400D01*
G01*
X139842140Y-119639280D01*
G75*
G02*
X139441740Y-120039680I-400400J0D01*
G01*
X138640940Y-120039680D01*
G75*
G02*
X138240540Y-119639280I0J400400D01*
G01*
G37*
G36*
G01*
X140660540Y-119639280D02*
X140660540Y-118338480D01*
G75*
G02*
X141060940Y-117938080I400400J0D01*
G01*
X141861740Y-117938080D01*
G75*
G02*
X142262140Y-118338480I0J-400400D01*
G01*
X142262140Y-119639280D01*
G75*
G02*
X141861740Y-120039680I-400400J0D01*
G01*
X141060940Y-120039680D01*
G75*
G02*
X140660540Y-119639280I0J400400D01*
G01*
G37*
X131771340Y-118298880D03*
X134191340Y-118298880D03*
X136611340Y-118298880D03*
X139031340Y-118298880D03*
X141451340Y-118298880D03*
M02*
