G04 #@! TF.GenerationSoftware,KiCad,Pcbnew,(5.1.10-1-10_14)*
G04 #@! TF.CreationDate,2021-10-04T15:41:53-04:00*
G04 #@! TF.ProjectId,N64D2VGA,4e363444-3256-4474-912e-6b696361645f,1*
G04 #@! TF.SameCoordinates,Original*
G04 #@! TF.FileFunction,Soldermask,Top*
G04 #@! TF.FilePolarity,Negative*
%FSLAX46Y46*%
G04 Gerber Fmt 4.6, Leading zero omitted, Abs format (unit mm)*
G04 Created by KiCad (PCBNEW (5.1.10-1-10_14)) date 2021-10-04 15:41:53*
%MOMM*%
%LPD*%
G01*
G04 APERTURE LIST*
%ADD10C,1.801600*%
%ADD11C,4.167600*%
%ADD12O,3.117600X1.609600*%
G04 APERTURE END LIST*
D10*
X141005000Y-113560000D03*
X143295000Y-113560000D03*
X145585000Y-113560000D03*
X147875000Y-113560000D03*
X150165000Y-113560000D03*
X142150000Y-111580000D03*
X144440000Y-111580000D03*
X146730000Y-111580000D03*
X149020000Y-111580000D03*
X151310000Y-111580000D03*
X141005000Y-109600000D03*
X143295000Y-109600000D03*
X145585000Y-109600000D03*
X147875000Y-109600000D03*
D11*
X133090000Y-111580000D03*
X158080000Y-111580000D03*
G36*
G01*
X151065800Y-108750000D02*
X151065800Y-110450000D01*
G75*
G02*
X151015000Y-110500800I-50800J0D01*
G01*
X149315000Y-110500800D01*
G75*
G02*
X149264200Y-110450000I0J50800D01*
G01*
X149264200Y-108750000D01*
G75*
G02*
X149315000Y-108699200I50800J0D01*
G01*
X151015000Y-108699200D01*
G75*
G02*
X151065800Y-108750000I0J-50800D01*
G01*
G37*
G36*
G01*
X146179200Y-96390400D02*
X146179200Y-95589600D01*
G75*
G02*
X146579600Y-95189200I400400J0D01*
G01*
X147380400Y-95189200D01*
G75*
G02*
X147780800Y-95589600I0J-400400D01*
G01*
X147780800Y-96390400D01*
G75*
G02*
X147380400Y-96790800I-400400J0D01*
G01*
X146579600Y-96790800D01*
G75*
G02*
X146179200Y-96390400I0J400400D01*
G01*
G37*
G36*
G01*
X143759200Y-96390400D02*
X143759200Y-95589600D01*
G75*
G02*
X144159600Y-95189200I400400J0D01*
G01*
X144960400Y-95189200D01*
G75*
G02*
X145360800Y-95589600I0J-400400D01*
G01*
X145360800Y-96390400D01*
G75*
G02*
X144960400Y-96790800I-400400J0D01*
G01*
X144159600Y-96790800D01*
G75*
G02*
X143759200Y-96390400I0J400400D01*
G01*
G37*
G36*
G01*
X141339200Y-96390400D02*
X141339200Y-95589600D01*
G75*
G02*
X141739600Y-95189200I400400J0D01*
G01*
X142540400Y-95189200D01*
G75*
G02*
X142940800Y-95589600I0J-400400D01*
G01*
X142940800Y-96390400D01*
G75*
G02*
X142540400Y-96790800I-400400J0D01*
G01*
X141739600Y-96790800D01*
G75*
G02*
X141339200Y-96390400I0J400400D01*
G01*
G37*
G36*
G01*
X138919200Y-96390400D02*
X138919200Y-95589600D01*
G75*
G02*
X139319600Y-95189200I400400J0D01*
G01*
X140120400Y-95189200D01*
G75*
G02*
X140520800Y-95589600I0J-400400D01*
G01*
X140520800Y-96390400D01*
G75*
G02*
X140120400Y-96790800I-400400J0D01*
G01*
X139319600Y-96790800D01*
G75*
G02*
X138919200Y-96390400I0J400400D01*
G01*
G37*
G36*
G01*
X136499200Y-96390400D02*
X136499200Y-95589600D01*
G75*
G02*
X136899600Y-95189200I400400J0D01*
G01*
X137700400Y-95189200D01*
G75*
G02*
X138100800Y-95589600I0J-400400D01*
G01*
X138100800Y-96390400D01*
G75*
G02*
X137700400Y-96790800I-400400J0D01*
G01*
X136899600Y-96790800D01*
G75*
G02*
X136499200Y-96390400I0J400400D01*
G01*
G37*
G36*
G01*
X134079200Y-96390400D02*
X134079200Y-95589600D01*
G75*
G02*
X134479600Y-95189200I400400J0D01*
G01*
X135280400Y-95189200D01*
G75*
G02*
X135680800Y-95589600I0J-400400D01*
G01*
X135680800Y-96390400D01*
G75*
G02*
X135280400Y-96790800I-400400J0D01*
G01*
X134479600Y-96790800D01*
G75*
G02*
X134079200Y-96390400I0J400400D01*
G01*
G37*
D12*
X125150000Y-115450000D03*
X123150000Y-113050000D03*
X125150000Y-109350000D03*
X123150000Y-107550000D03*
X125150000Y-103850000D03*
G36*
G01*
X153283100Y-98400400D02*
X154476900Y-98400400D01*
G75*
G02*
X154527700Y-98451200I0J-50800D01*
G01*
X154527700Y-101448400D01*
G75*
G02*
X154476900Y-101499200I-50800J0D01*
G01*
X153283100Y-101499200D01*
G75*
G02*
X153232300Y-101448400I0J50800D01*
G01*
X153232300Y-98451200D01*
G75*
G02*
X153283100Y-98400400I50800J0D01*
G01*
G37*
G36*
G01*
X153283100Y-103810600D02*
X154476900Y-103810600D01*
G75*
G02*
X154527700Y-103861400I0J-50800D01*
G01*
X154527700Y-106858600D01*
G75*
G02*
X154476900Y-106909400I-50800J0D01*
G01*
X153283100Y-106909400D01*
G75*
G02*
X153232300Y-106858600I0J50800D01*
G01*
X153232300Y-103861400D01*
G75*
G02*
X153283100Y-103810600I50800J0D01*
G01*
G37*
G36*
G01*
X145963100Y-98395500D02*
X147156900Y-98395500D01*
G75*
G02*
X147207700Y-98446300I0J-50800D01*
G01*
X147207700Y-101443500D01*
G75*
G02*
X147156900Y-101494300I-50800J0D01*
G01*
X145963100Y-101494300D01*
G75*
G02*
X145912300Y-101443500I0J50800D01*
G01*
X145912300Y-98446300D01*
G75*
G02*
X145963100Y-98395500I50800J0D01*
G01*
G37*
G36*
G01*
X145963100Y-103805700D02*
X147156900Y-103805700D01*
G75*
G02*
X147207700Y-103856500I0J-50800D01*
G01*
X147207700Y-106853700D01*
G75*
G02*
X147156900Y-106904500I-50800J0D01*
G01*
X145963100Y-106904500D01*
G75*
G02*
X145912300Y-106853700I0J50800D01*
G01*
X145912300Y-103856500D01*
G75*
G02*
X145963100Y-103805700I50800J0D01*
G01*
G37*
G36*
G01*
X132463100Y-98405500D02*
X133656900Y-98405500D01*
G75*
G02*
X133707700Y-98456300I0J-50800D01*
G01*
X133707700Y-101453500D01*
G75*
G02*
X133656900Y-101504300I-50800J0D01*
G01*
X132463100Y-101504300D01*
G75*
G02*
X132412300Y-101453500I0J50800D01*
G01*
X132412300Y-98456300D01*
G75*
G02*
X132463100Y-98405500I50800J0D01*
G01*
G37*
G36*
G01*
X132463100Y-103815700D02*
X133656900Y-103815700D01*
G75*
G02*
X133707700Y-103866500I0J-50800D01*
G01*
X133707700Y-106863700D01*
G75*
G02*
X133656900Y-106914500I-50800J0D01*
G01*
X132463100Y-106914500D01*
G75*
G02*
X132412300Y-106863700I0J50800D01*
G01*
X132412300Y-103866500D01*
G75*
G02*
X132463100Y-103815700I50800J0D01*
G01*
G37*
M02*
