G04 #@! TF.GenerationSoftware,KiCad,Pcbnew,(5.1.10-1-10_14)*
G04 #@! TF.CreationDate,2021-10-04T15:41:53-04:00*
G04 #@! TF.ProjectId,N64D2VGA,4e363444-3256-4474-912e-6b696361645f,1*
G04 #@! TF.SameCoordinates,Original*
G04 #@! TF.FileFunction,Soldermask,Bot*
G04 #@! TF.FilePolarity,Negative*
%FSLAX46Y46*%
G04 Gerber Fmt 4.6, Leading zero omitted, Abs format (unit mm)*
G04 Created by KiCad (PCBNEW (5.1.10-1-10_14)) date 2021-10-04 15:41:53*
%MOMM*%
%LPD*%
G01*
G04 APERTURE LIST*
%ADD10C,0.100000*%
%ADD11C,1.801600*%
%ADD12C,4.167600*%
%ADD13C,0.152400*%
%ADD14O,3.117600X1.609600*%
G04 APERTURE END LIST*
D10*
G36*
X148690000Y-100290000D02*
G01*
X150350000Y-100290000D01*
X150350000Y-98890000D01*
X148690000Y-98890000D01*
X148690000Y-100290000D01*
G37*
X148690000Y-100290000D02*
X150350000Y-100290000D01*
X150350000Y-98890000D01*
X148690000Y-98890000D01*
X148690000Y-100290000D01*
G36*
G01*
X149905800Y-95545000D02*
X149905800Y-96475000D01*
G75*
G02*
X149855000Y-96525800I-50800J0D01*
G01*
X149065000Y-96525800D01*
G75*
G02*
X149014200Y-96475000I0J50800D01*
G01*
X149014200Y-95545000D01*
G75*
G02*
X149065000Y-95494200I50800J0D01*
G01*
X149855000Y-95494200D01*
G75*
G02*
X149905800Y-95545000I0J-50800D01*
G01*
G37*
G36*
G01*
X148265800Y-95545000D02*
X148265800Y-96475000D01*
G75*
G02*
X148215000Y-96525800I-50800J0D01*
G01*
X147425000Y-96525800D01*
G75*
G02*
X147374200Y-96475000I0J50800D01*
G01*
X147374200Y-95545000D01*
G75*
G02*
X147425000Y-95494200I50800J0D01*
G01*
X148215000Y-95494200D01*
G75*
G02*
X148265800Y-95545000I0J-50800D01*
G01*
G37*
G36*
G01*
X133535000Y-104465800D02*
X132605000Y-104465800D01*
G75*
G02*
X132554200Y-104415000I0J50800D01*
G01*
X132554200Y-103625000D01*
G75*
G02*
X132605000Y-103574200I50800J0D01*
G01*
X133535000Y-103574200D01*
G75*
G02*
X133585800Y-103625000I0J-50800D01*
G01*
X133585800Y-104415000D01*
G75*
G02*
X133535000Y-104465800I-50800J0D01*
G01*
G37*
G36*
G01*
X133535000Y-102825800D02*
X132605000Y-102825800D01*
G75*
G02*
X132554200Y-102775000I0J50800D01*
G01*
X132554200Y-101985000D01*
G75*
G02*
X132605000Y-101934200I50800J0D01*
G01*
X133535000Y-101934200D01*
G75*
G02*
X133585800Y-101985000I0J-50800D01*
G01*
X133585800Y-102775000D01*
G75*
G02*
X133535000Y-102825800I-50800J0D01*
G01*
G37*
G36*
G01*
X149285000Y-105795800D02*
X148355000Y-105795800D01*
G75*
G02*
X148304200Y-105745000I0J50800D01*
G01*
X148304200Y-104955000D01*
G75*
G02*
X148355000Y-104904200I50800J0D01*
G01*
X149285000Y-104904200D01*
G75*
G02*
X149335800Y-104955000I0J-50800D01*
G01*
X149335800Y-105745000D01*
G75*
G02*
X149285000Y-105795800I-50800J0D01*
G01*
G37*
G36*
G01*
X149285000Y-104155800D02*
X148355000Y-104155800D01*
G75*
G02*
X148304200Y-104105000I0J50800D01*
G01*
X148304200Y-103315000D01*
G75*
G02*
X148355000Y-103264200I50800J0D01*
G01*
X149285000Y-103264200D01*
G75*
G02*
X149335800Y-103315000I0J-50800D01*
G01*
X149335800Y-104105000D01*
G75*
G02*
X149285000Y-104155800I-50800J0D01*
G01*
G37*
G36*
G01*
X156585000Y-105795800D02*
X155655000Y-105795800D01*
G75*
G02*
X155604200Y-105745000I0J50800D01*
G01*
X155604200Y-104955000D01*
G75*
G02*
X155655000Y-104904200I50800J0D01*
G01*
X156585000Y-104904200D01*
G75*
G02*
X156635800Y-104955000I0J-50800D01*
G01*
X156635800Y-105745000D01*
G75*
G02*
X156585000Y-105795800I-50800J0D01*
G01*
G37*
G36*
G01*
X156585000Y-104155800D02*
X155655000Y-104155800D01*
G75*
G02*
X155604200Y-104105000I0J50800D01*
G01*
X155604200Y-103315000D01*
G75*
G02*
X155655000Y-103264200I50800J0D01*
G01*
X156585000Y-103264200D01*
G75*
G02*
X156635800Y-103315000I0J-50800D01*
G01*
X156635800Y-104105000D01*
G75*
G02*
X156585000Y-104155800I-50800J0D01*
G01*
G37*
G36*
G01*
X147434200Y-94385000D02*
X147434200Y-93455000D01*
G75*
G02*
X147485000Y-93404200I50800J0D01*
G01*
X148275000Y-93404200D01*
G75*
G02*
X148325800Y-93455000I0J-50800D01*
G01*
X148325800Y-94385000D01*
G75*
G02*
X148275000Y-94435800I-50800J0D01*
G01*
X147485000Y-94435800D01*
G75*
G02*
X147434200Y-94385000I0J50800D01*
G01*
G37*
G36*
G01*
X149074200Y-94385000D02*
X149074200Y-93455000D01*
G75*
G02*
X149125000Y-93404200I50800J0D01*
G01*
X149915000Y-93404200D01*
G75*
G02*
X149965800Y-93455000I0J-50800D01*
G01*
X149965800Y-94385000D01*
G75*
G02*
X149915000Y-94435800I-50800J0D01*
G01*
X149125000Y-94435800D01*
G75*
G02*
X149074200Y-94385000I0J50800D01*
G01*
G37*
D11*
X141005000Y-113560000D03*
X143295000Y-113560000D03*
X145585000Y-113560000D03*
X147875000Y-113560000D03*
X150165000Y-113560000D03*
X142150000Y-111580000D03*
X144440000Y-111580000D03*
X146730000Y-111580000D03*
X149020000Y-111580000D03*
X151310000Y-111580000D03*
X141005000Y-109600000D03*
X143295000Y-109600000D03*
X145585000Y-109600000D03*
X147875000Y-109600000D03*
D12*
X133090000Y-111580000D03*
X158080000Y-111580000D03*
G36*
G01*
X151065800Y-108750000D02*
X151065800Y-110450000D01*
G75*
G02*
X151015000Y-110500800I-50800J0D01*
G01*
X149315000Y-110500800D01*
G75*
G02*
X149264200Y-110450000I0J50800D01*
G01*
X149264200Y-108750000D01*
G75*
G02*
X149315000Y-108699200I50800J0D01*
G01*
X151015000Y-108699200D01*
G75*
G02*
X151065800Y-108750000I0J-50800D01*
G01*
G37*
G36*
G01*
X145979200Y-91290400D02*
X145979200Y-88989600D01*
G75*
G02*
X146479600Y-88489200I500400J0D01*
G01*
X147480400Y-88489200D01*
G75*
G02*
X147980800Y-88989600I0J-500400D01*
G01*
X147980800Y-91290400D01*
G75*
G02*
X147480400Y-91790800I-500400J0D01*
G01*
X146479600Y-91790800D01*
G75*
G02*
X145979200Y-91290400I0J500400D01*
G01*
G37*
G36*
G01*
X143559200Y-91290400D02*
X143559200Y-88989600D01*
G75*
G02*
X144059600Y-88489200I500400J0D01*
G01*
X145060400Y-88489200D01*
G75*
G02*
X145560800Y-88989600I0J-500400D01*
G01*
X145560800Y-91290400D01*
G75*
G02*
X145060400Y-91790800I-500400J0D01*
G01*
X144059600Y-91790800D01*
G75*
G02*
X143559200Y-91290400I0J500400D01*
G01*
G37*
G36*
G01*
X141139200Y-91290400D02*
X141139200Y-88989600D01*
G75*
G02*
X141639600Y-88489200I500400J0D01*
G01*
X142640400Y-88489200D01*
G75*
G02*
X143140800Y-88989600I0J-500400D01*
G01*
X143140800Y-91290400D01*
G75*
G02*
X142640400Y-91790800I-500400J0D01*
G01*
X141639600Y-91790800D01*
G75*
G02*
X141139200Y-91290400I0J500400D01*
G01*
G37*
G36*
G01*
X138719200Y-91290400D02*
X138719200Y-88989600D01*
G75*
G02*
X139219600Y-88489200I500400J0D01*
G01*
X140220400Y-88489200D01*
G75*
G02*
X140720800Y-88989600I0J-500400D01*
G01*
X140720800Y-91290400D01*
G75*
G02*
X140220400Y-91790800I-500400J0D01*
G01*
X139219600Y-91790800D01*
G75*
G02*
X138719200Y-91290400I0J500400D01*
G01*
G37*
G36*
G01*
X136299200Y-91290400D02*
X136299200Y-88989600D01*
G75*
G02*
X136799600Y-88489200I500400J0D01*
G01*
X137800400Y-88489200D01*
G75*
G02*
X138300800Y-88989600I0J-500400D01*
G01*
X138300800Y-91290400D01*
G75*
G02*
X137800400Y-91790800I-500400J0D01*
G01*
X136799600Y-91790800D01*
G75*
G02*
X136299200Y-91290400I0J500400D01*
G01*
G37*
G36*
G01*
X133879200Y-91290400D02*
X133879200Y-88989600D01*
G75*
G02*
X134379600Y-88489200I500400J0D01*
G01*
X135380400Y-88489200D01*
G75*
G02*
X135880800Y-88989600I0J-500400D01*
G01*
X135880800Y-91290400D01*
G75*
G02*
X135380400Y-91790800I-500400J0D01*
G01*
X134379600Y-91790800D01*
G75*
G02*
X133879200Y-91290400I0J500400D01*
G01*
G37*
D13*
G36*
X150260089Y-100389824D02*
G01*
X150250560Y-100386933D01*
X150241777Y-100382239D01*
X150234079Y-100375921D01*
X150227761Y-100368223D01*
X150223067Y-100359440D01*
X150220176Y-100349911D01*
X150219200Y-100340000D01*
X150219200Y-98840000D01*
X150220176Y-98830089D01*
X150223067Y-98820560D01*
X150227761Y-98811777D01*
X150234079Y-98804079D01*
X150241777Y-98797761D01*
X150250560Y-98793067D01*
X150260089Y-98790176D01*
X150270000Y-98789200D01*
X150820000Y-98789200D01*
X150826113Y-98789802D01*
X150844534Y-98789802D01*
X150849514Y-98790047D01*
X150898345Y-98794857D01*
X150903275Y-98795588D01*
X150951400Y-98805160D01*
X150956237Y-98806372D01*
X151003192Y-98820616D01*
X151007885Y-98822295D01*
X151053218Y-98841072D01*
X151057726Y-98843204D01*
X151100999Y-98866335D01*
X151105273Y-98868897D01*
X151146072Y-98896157D01*
X151150077Y-98899127D01*
X151188006Y-98930255D01*
X151191700Y-98933603D01*
X151226397Y-98968300D01*
X151229745Y-98971994D01*
X151260873Y-99009923D01*
X151263843Y-99013928D01*
X151291103Y-99054727D01*
X151293665Y-99059001D01*
X151316796Y-99102274D01*
X151318928Y-99106782D01*
X151337705Y-99152115D01*
X151339384Y-99156808D01*
X151353628Y-99203763D01*
X151354840Y-99208600D01*
X151364412Y-99256725D01*
X151365143Y-99261655D01*
X151369953Y-99310486D01*
X151370198Y-99315466D01*
X151370198Y-99333887D01*
X151370800Y-99340000D01*
X151370800Y-99840000D01*
X151370198Y-99846113D01*
X151370198Y-99864534D01*
X151369953Y-99869514D01*
X151365143Y-99918345D01*
X151364412Y-99923275D01*
X151354840Y-99971400D01*
X151353628Y-99976237D01*
X151339384Y-100023192D01*
X151337705Y-100027885D01*
X151318928Y-100073218D01*
X151316796Y-100077726D01*
X151293665Y-100120999D01*
X151291103Y-100125273D01*
X151263843Y-100166072D01*
X151260873Y-100170077D01*
X151229745Y-100208006D01*
X151226397Y-100211700D01*
X151191700Y-100246397D01*
X151188006Y-100249745D01*
X151150077Y-100280873D01*
X151146072Y-100283843D01*
X151105273Y-100311103D01*
X151100999Y-100313665D01*
X151057726Y-100336796D01*
X151053218Y-100338928D01*
X151007885Y-100357705D01*
X151003192Y-100359384D01*
X150956237Y-100373628D01*
X150951400Y-100374840D01*
X150903275Y-100384412D01*
X150898345Y-100385143D01*
X150849514Y-100389953D01*
X150844534Y-100390198D01*
X150826113Y-100390198D01*
X150820000Y-100390800D01*
X150270000Y-100390800D01*
X150260089Y-100389824D01*
G37*
G36*
X148213887Y-100390198D02*
G01*
X148195466Y-100390198D01*
X148190486Y-100389953D01*
X148141655Y-100385143D01*
X148136725Y-100384412D01*
X148088600Y-100374840D01*
X148083763Y-100373628D01*
X148036808Y-100359384D01*
X148032115Y-100357705D01*
X147986782Y-100338928D01*
X147982274Y-100336796D01*
X147939001Y-100313665D01*
X147934727Y-100311103D01*
X147893928Y-100283843D01*
X147889923Y-100280873D01*
X147851994Y-100249745D01*
X147848300Y-100246397D01*
X147813603Y-100211700D01*
X147810255Y-100208006D01*
X147779127Y-100170077D01*
X147776157Y-100166072D01*
X147748897Y-100125273D01*
X147746335Y-100120999D01*
X147723204Y-100077726D01*
X147721072Y-100073218D01*
X147702295Y-100027885D01*
X147700616Y-100023192D01*
X147686372Y-99976237D01*
X147685160Y-99971400D01*
X147675588Y-99923275D01*
X147674857Y-99918345D01*
X147670047Y-99869514D01*
X147669802Y-99864534D01*
X147669802Y-99846113D01*
X147669200Y-99840000D01*
X147669200Y-99340000D01*
X147669802Y-99333887D01*
X147669802Y-99315466D01*
X147670047Y-99310486D01*
X147674857Y-99261655D01*
X147675588Y-99256725D01*
X147685160Y-99208600D01*
X147686372Y-99203763D01*
X147700616Y-99156808D01*
X147702295Y-99152115D01*
X147721072Y-99106782D01*
X147723204Y-99102274D01*
X147746335Y-99059001D01*
X147748897Y-99054727D01*
X147776157Y-99013928D01*
X147779127Y-99009923D01*
X147810255Y-98971994D01*
X147813603Y-98968300D01*
X147848300Y-98933603D01*
X147851994Y-98930255D01*
X147889923Y-98899127D01*
X147893928Y-98896157D01*
X147934727Y-98868897D01*
X147939001Y-98866335D01*
X147982274Y-98843204D01*
X147986782Y-98841072D01*
X148032115Y-98822295D01*
X148036808Y-98820616D01*
X148083763Y-98806372D01*
X148088600Y-98805160D01*
X148136725Y-98795588D01*
X148141655Y-98794857D01*
X148190486Y-98790047D01*
X148195466Y-98789802D01*
X148213887Y-98789802D01*
X148220000Y-98789200D01*
X148770000Y-98789200D01*
X148779911Y-98790176D01*
X148789440Y-98793067D01*
X148798223Y-98797761D01*
X148805921Y-98804079D01*
X148812239Y-98811777D01*
X148816933Y-98820560D01*
X148819824Y-98830089D01*
X148820800Y-98840000D01*
X148820800Y-100340000D01*
X148819824Y-100349911D01*
X148816933Y-100359440D01*
X148812239Y-100368223D01*
X148805921Y-100375921D01*
X148798223Y-100382239D01*
X148789440Y-100386933D01*
X148779911Y-100389824D01*
X148770000Y-100390800D01*
X148220000Y-100390800D01*
X148213887Y-100390198D01*
G37*
G36*
G01*
X150070800Y-98840000D02*
X150070800Y-100340000D01*
G75*
G02*
X150020000Y-100390800I-50800J0D01*
G01*
X149020000Y-100390800D01*
G75*
G02*
X148969200Y-100340000I0J50800D01*
G01*
X148969200Y-98840000D01*
G75*
G02*
X149020000Y-98789200I50800J0D01*
G01*
X150020000Y-98789200D01*
G75*
G02*
X150070800Y-98840000I0J-50800D01*
G01*
G37*
D14*
X125150000Y-115450000D03*
X123150000Y-113050000D03*
X125150000Y-109350000D03*
X123150000Y-107550000D03*
X125150000Y-103850000D03*
G36*
G01*
X129775000Y-104894200D02*
X130745000Y-104894200D01*
G75*
G02*
X130795800Y-104945000I0J-50800D01*
G01*
X130795800Y-105865000D01*
G75*
G02*
X130745000Y-105915800I-50800J0D01*
G01*
X129775000Y-105915800D01*
G75*
G02*
X129724200Y-105865000I0J50800D01*
G01*
X129724200Y-104945000D01*
G75*
G02*
X129775000Y-104894200I50800J0D01*
G01*
G37*
G36*
G01*
X129775000Y-106444200D02*
X130745000Y-106444200D01*
G75*
G02*
X130795800Y-106495000I0J-50800D01*
G01*
X130795800Y-107415000D01*
G75*
G02*
X130745000Y-107465800I-50800J0D01*
G01*
X129775000Y-107465800D01*
G75*
G02*
X129724200Y-107415000I0J50800D01*
G01*
X129724200Y-106495000D01*
G75*
G02*
X129775000Y-106444200I50800J0D01*
G01*
G37*
G36*
G01*
X129765000Y-98794200D02*
X130735000Y-98794200D01*
G75*
G02*
X130785800Y-98845000I0J-50800D01*
G01*
X130785800Y-99765000D01*
G75*
G02*
X130735000Y-99815800I-50800J0D01*
G01*
X129765000Y-99815800D01*
G75*
G02*
X129714200Y-99765000I0J50800D01*
G01*
X129714200Y-98845000D01*
G75*
G02*
X129765000Y-98794200I50800J0D01*
G01*
G37*
G36*
G01*
X129765000Y-100344200D02*
X130735000Y-100344200D01*
G75*
G02*
X130785800Y-100395000I0J-50800D01*
G01*
X130785800Y-101315000D01*
G75*
G02*
X130735000Y-101365800I-50800J0D01*
G01*
X129765000Y-101365800D01*
G75*
G02*
X129714200Y-101315000I0J50800D01*
G01*
X129714200Y-100395000D01*
G75*
G02*
X129765000Y-100344200I50800J0D01*
G01*
G37*
M02*
