G04 #@! TF.GenerationSoftware,KiCad,Pcbnew,(5.1.10-1-10_14)*
G04 #@! TF.CreationDate,2021-10-04T15:41:53-04:00*
G04 #@! TF.ProjectId,N64D2VGA,4e363444-3256-4474-912e-6b696361645f,1*
G04 #@! TF.SameCoordinates,Original*
G04 #@! TF.FileFunction,Copper,L1,Top*
G04 #@! TF.FilePolarity,Positive*
%FSLAX46Y46*%
G04 Gerber Fmt 4.6, Leading zero omitted, Abs format (unit mm)*
G04 Created by KiCad (PCBNEW (5.1.10-1-10_14)) date 2021-10-04 15:41:53*
%MOMM*%
%LPD*%
G01*
G04 APERTURE LIST*
G04 #@! TA.AperFunction,ComponentPad*
%ADD10C,1.700000*%
G04 #@! TD*
G04 #@! TA.AperFunction,ComponentPad*
%ADD11C,4.066000*%
G04 #@! TD*
G04 #@! TA.AperFunction,ComponentPad*
%ADD12R,1.700000X1.700000*%
G04 #@! TD*
G04 #@! TA.AperFunction,ComponentPad*
%ADD13O,3.016000X1.508000*%
G04 #@! TD*
G04 #@! TA.AperFunction,SMDPad,CuDef*
%ADD14R,1.193800X2.997200*%
G04 #@! TD*
G04 #@! TA.AperFunction,ViaPad*
%ADD15C,0.700000*%
G04 #@! TD*
G04 #@! TA.AperFunction,Conductor*
%ADD16C,0.200000*%
G04 #@! TD*
G04 #@! TA.AperFunction,Conductor*
%ADD17C,0.160000*%
G04 #@! TD*
G04 #@! TA.AperFunction,Conductor*
%ADD18C,0.152400*%
G04 #@! TD*
G04 #@! TA.AperFunction,Conductor*
%ADD19C,0.025400*%
G04 #@! TD*
G04 APERTURE END LIST*
D10*
X141005000Y-113560000D03*
X143295000Y-113560000D03*
X145585000Y-113560000D03*
X147875000Y-113560000D03*
X150165000Y-113560000D03*
X142150000Y-111580000D03*
X144440000Y-111580000D03*
X146730000Y-111580000D03*
X149020000Y-111580000D03*
X151310000Y-111580000D03*
X141005000Y-109600000D03*
X143295000Y-109600000D03*
X145585000Y-109600000D03*
X147875000Y-109600000D03*
D11*
X133090000Y-111580000D03*
X158080000Y-111580000D03*
D12*
X150165000Y-109600000D03*
G04 #@! TA.AperFunction,ConnectorPad*
G36*
G01*
X146230000Y-96365000D02*
X146230000Y-95615000D01*
G75*
G02*
X146605000Y-95240000I375000J0D01*
G01*
X147355000Y-95240000D01*
G75*
G02*
X147730000Y-95615000I0J-375000D01*
G01*
X147730000Y-96365000D01*
G75*
G02*
X147355000Y-96740000I-375000J0D01*
G01*
X146605000Y-96740000D01*
G75*
G02*
X146230000Y-96365000I0J375000D01*
G01*
G37*
G04 #@! TD.AperFunction*
G04 #@! TA.AperFunction,ConnectorPad*
G36*
G01*
X143810000Y-96365000D02*
X143810000Y-95615000D01*
G75*
G02*
X144185000Y-95240000I375000J0D01*
G01*
X144935000Y-95240000D01*
G75*
G02*
X145310000Y-95615000I0J-375000D01*
G01*
X145310000Y-96365000D01*
G75*
G02*
X144935000Y-96740000I-375000J0D01*
G01*
X144185000Y-96740000D01*
G75*
G02*
X143810000Y-96365000I0J375000D01*
G01*
G37*
G04 #@! TD.AperFunction*
G04 #@! TA.AperFunction,ConnectorPad*
G36*
G01*
X141390000Y-96365000D02*
X141390000Y-95615000D01*
G75*
G02*
X141765000Y-95240000I375000J0D01*
G01*
X142515000Y-95240000D01*
G75*
G02*
X142890000Y-95615000I0J-375000D01*
G01*
X142890000Y-96365000D01*
G75*
G02*
X142515000Y-96740000I-375000J0D01*
G01*
X141765000Y-96740000D01*
G75*
G02*
X141390000Y-96365000I0J375000D01*
G01*
G37*
G04 #@! TD.AperFunction*
G04 #@! TA.AperFunction,ConnectorPad*
G36*
G01*
X138970000Y-96365000D02*
X138970000Y-95615000D01*
G75*
G02*
X139345000Y-95240000I375000J0D01*
G01*
X140095000Y-95240000D01*
G75*
G02*
X140470000Y-95615000I0J-375000D01*
G01*
X140470000Y-96365000D01*
G75*
G02*
X140095000Y-96740000I-375000J0D01*
G01*
X139345000Y-96740000D01*
G75*
G02*
X138970000Y-96365000I0J375000D01*
G01*
G37*
G04 #@! TD.AperFunction*
G04 #@! TA.AperFunction,ConnectorPad*
G36*
G01*
X136550000Y-96365000D02*
X136550000Y-95615000D01*
G75*
G02*
X136925000Y-95240000I375000J0D01*
G01*
X137675000Y-95240000D01*
G75*
G02*
X138050000Y-95615000I0J-375000D01*
G01*
X138050000Y-96365000D01*
G75*
G02*
X137675000Y-96740000I-375000J0D01*
G01*
X136925000Y-96740000D01*
G75*
G02*
X136550000Y-96365000I0J375000D01*
G01*
G37*
G04 #@! TD.AperFunction*
G04 #@! TA.AperFunction,ConnectorPad*
G36*
G01*
X134130000Y-96365000D02*
X134130000Y-95615000D01*
G75*
G02*
X134505000Y-95240000I375000J0D01*
G01*
X135255000Y-95240000D01*
G75*
G02*
X135630000Y-95615000I0J-375000D01*
G01*
X135630000Y-96365000D01*
G75*
G02*
X135255000Y-96740000I-375000J0D01*
G01*
X134505000Y-96740000D01*
G75*
G02*
X134130000Y-96365000I0J375000D01*
G01*
G37*
G04 #@! TD.AperFunction*
D13*
X125150000Y-115450000D03*
X123150000Y-113050000D03*
X125150000Y-109350000D03*
X123150000Y-107550000D03*
X125150000Y-103850000D03*
D14*
X153880000Y-99949800D03*
X153880000Y-105360000D03*
X146560000Y-99944900D03*
X146560000Y-105355100D03*
X133060000Y-99954900D03*
X133060000Y-105365100D03*
D15*
X153870000Y-105350000D03*
X146580000Y-105350000D03*
X133070000Y-105370000D03*
X149490000Y-97890000D03*
X129150001Y-105380000D03*
X145060000Y-100900000D03*
X134650000Y-99960000D03*
X134880000Y-91310000D03*
X148020000Y-101950000D03*
X147930001Y-97809999D03*
X137290000Y-91310000D03*
X146770000Y-93890000D03*
D16*
X145580000Y-114600000D02*
X145580000Y-113770000D01*
X151650000Y-107420000D02*
X153890000Y-109660000D01*
X153890000Y-114100000D02*
X152630000Y-115360000D01*
X153890000Y-109660000D02*
X153890000Y-114100000D01*
X152630000Y-115360000D02*
X146340000Y-115360000D01*
X151650000Y-100050000D02*
X151650000Y-107420000D01*
X145580000Y-113770000D02*
X145850000Y-113500000D01*
X146340000Y-115360000D02*
X145580000Y-114600000D01*
X149490000Y-97890000D02*
X151650000Y-100050000D01*
X129150001Y-107069999D02*
X129150001Y-105380000D01*
X125150000Y-109350000D02*
X126870000Y-109350000D01*
X126870000Y-109350000D02*
X129150001Y-107069999D01*
X146980000Y-95990000D02*
X148480000Y-95990000D01*
X148480000Y-95990000D02*
X149880000Y-95990000D01*
X149880000Y-95990000D02*
X153890000Y-100000000D01*
X146200000Y-100900000D02*
X145060000Y-100900000D01*
X146510000Y-100590000D02*
X146200000Y-100900000D01*
X146510000Y-99920000D02*
X146510000Y-100590000D01*
X134650000Y-99960000D02*
X133200000Y-99960000D01*
X125680000Y-113080000D02*
X123608026Y-113080000D01*
X130770000Y-107990000D02*
X125680000Y-113080000D01*
X130770000Y-104030000D02*
X130770000Y-107990000D01*
X132200000Y-102600000D02*
X130770000Y-104030000D01*
X134980000Y-102600000D02*
X132200000Y-102600000D01*
X134880000Y-95990000D02*
X134870000Y-96000000D01*
X136070000Y-99100000D02*
X136070000Y-101510000D01*
X134870000Y-96000000D02*
X134870000Y-97900000D01*
X136070000Y-101510000D02*
X134980000Y-102600000D01*
X134870000Y-97900000D02*
X136070000Y-99100000D01*
X126190000Y-107520000D02*
X123260000Y-107520000D01*
X127520000Y-106190000D02*
X126190000Y-107520000D01*
X134880000Y-91310000D02*
X134880000Y-91320000D01*
X132033701Y-97056299D02*
X127520000Y-101570000D01*
X127520000Y-101570000D02*
X127520000Y-106190000D01*
X132033701Y-94166299D02*
X132033701Y-97056299D01*
X134880000Y-91320000D02*
X132033701Y-94166299D01*
X147320000Y-102650000D02*
X148020000Y-101950000D01*
X137300000Y-96020000D02*
X143930000Y-102650000D01*
X143930000Y-102650000D02*
X147320000Y-102650000D01*
X137300000Y-95990000D02*
X137300000Y-96020000D01*
X141250000Y-97510000D02*
X147630002Y-97510000D01*
X139730000Y-95990000D02*
X141250000Y-97510000D01*
X147630002Y-97510000D02*
X147930001Y-97809999D01*
X139720000Y-95990000D02*
X139730000Y-95990000D01*
X144440000Y-111810000D02*
X144670000Y-111580000D01*
X144440000Y-114970000D02*
X144440000Y-111810000D01*
X137580000Y-115340000D02*
X144070000Y-115340000D01*
X136250000Y-114010000D02*
X137580000Y-115340000D01*
X138220000Y-107950000D02*
X136250000Y-109920000D01*
X137270000Y-93700000D02*
X136090000Y-94880000D01*
X138220000Y-99250000D02*
X138220000Y-107950000D01*
X136250000Y-109920000D02*
X136250000Y-114010000D01*
X136090000Y-97120000D02*
X138220000Y-99250000D01*
X136090000Y-94880000D02*
X136090000Y-97120000D01*
X144070000Y-115340000D02*
X144440000Y-114970000D01*
X137270000Y-91330000D02*
X137270000Y-93700000D01*
X137290000Y-91310000D02*
X137270000Y-91330000D01*
X144950000Y-95690000D02*
X144570000Y-96070000D01*
X146660000Y-93890000D02*
X146770000Y-93890000D01*
X144560000Y-95990000D02*
X146660000Y-93890000D01*
D17*
X150690001Y-95915744D02*
X150688597Y-95930000D01*
X150694196Y-95986850D01*
X150710779Y-96041515D01*
X150737707Y-96091895D01*
X150773947Y-96136053D01*
X150818105Y-96172293D01*
X150868485Y-96199221D01*
X150923150Y-96215804D01*
X150965755Y-96220000D01*
X150980000Y-96221403D01*
X150994245Y-96220000D01*
X152879879Y-96220000D01*
X160720000Y-104060121D01*
X160720001Y-116440000D01*
X126314045Y-116440000D01*
X126351957Y-116426940D01*
X126533941Y-116320776D01*
X126691717Y-116181149D01*
X126819221Y-116013424D01*
X126911554Y-115824047D01*
X126957784Y-115657402D01*
X126897195Y-115490000D01*
X125190000Y-115490000D01*
X125190000Y-115510000D01*
X125110000Y-115510000D01*
X125110000Y-115490000D01*
X123402805Y-115490000D01*
X123342216Y-115657402D01*
X123388446Y-115824047D01*
X123480779Y-116013424D01*
X123608283Y-116181149D01*
X123766059Y-116320776D01*
X123948043Y-116426940D01*
X123985955Y-116440000D01*
X121180000Y-116440000D01*
X121180000Y-115242598D01*
X123342216Y-115242598D01*
X123402805Y-115410000D01*
X125110000Y-115410000D01*
X125110000Y-114376000D01*
X125190000Y-114376000D01*
X125190000Y-115410000D01*
X126897195Y-115410000D01*
X126957784Y-115242598D01*
X126911554Y-115075953D01*
X126819221Y-114886576D01*
X126691717Y-114718851D01*
X126533941Y-114579224D01*
X126351957Y-114473060D01*
X126152758Y-114404440D01*
X125944000Y-114376000D01*
X125190000Y-114376000D01*
X125110000Y-114376000D01*
X124356000Y-114376000D01*
X124147242Y-114404440D01*
X123948043Y-114473060D01*
X123766059Y-114579224D01*
X123608283Y-114718851D01*
X123480779Y-114886576D01*
X123388446Y-115075953D01*
X123342216Y-115242598D01*
X121180000Y-115242598D01*
X121180000Y-113050000D01*
X121397191Y-113050000D01*
X121416383Y-113244858D01*
X121473221Y-113432228D01*
X121565521Y-113604909D01*
X121689735Y-113756265D01*
X121841091Y-113880479D01*
X122013772Y-113972779D01*
X122201142Y-114029617D01*
X122347174Y-114044000D01*
X123952826Y-114044000D01*
X124098858Y-114029617D01*
X124286228Y-113972779D01*
X124458909Y-113880479D01*
X124610265Y-113756265D01*
X124734479Y-113604909D01*
X124826779Y-113432228D01*
X124830488Y-113420000D01*
X125663307Y-113420000D01*
X125680000Y-113421644D01*
X125696693Y-113420000D01*
X125696701Y-113420000D01*
X125746652Y-113415080D01*
X125810742Y-113395639D01*
X125869808Y-113364067D01*
X125921579Y-113321579D01*
X125932230Y-113308601D01*
X126017490Y-113223341D01*
X131503228Y-113223341D01*
X131732809Y-113516065D01*
X132136595Y-113743639D01*
X132577019Y-113888066D01*
X133037158Y-113943794D01*
X133499327Y-113908684D01*
X133945766Y-113784083D01*
X134359318Y-113574780D01*
X134447191Y-113516065D01*
X134676772Y-113223341D01*
X133090000Y-111636569D01*
X131503228Y-113223341D01*
X126017490Y-113223341D01*
X127713673Y-111527158D01*
X130726206Y-111527158D01*
X130761316Y-111989327D01*
X130885917Y-112435766D01*
X131095220Y-112849318D01*
X131153935Y-112937191D01*
X131446659Y-113166772D01*
X133033431Y-111580000D01*
X133146569Y-111580000D01*
X134733341Y-113166772D01*
X135026065Y-112937191D01*
X135253639Y-112533405D01*
X135398066Y-112092981D01*
X135453794Y-111632842D01*
X135418684Y-111170673D01*
X135294083Y-110724234D01*
X135084780Y-110310682D01*
X135026065Y-110222809D01*
X134733341Y-109993228D01*
X133146569Y-111580000D01*
X133033431Y-111580000D01*
X131446659Y-109993228D01*
X131153935Y-110222809D01*
X130926361Y-110626595D01*
X130781934Y-111067019D01*
X130726206Y-111527158D01*
X127713673Y-111527158D01*
X129304172Y-109936659D01*
X131503228Y-109936659D01*
X133090000Y-111523431D01*
X134676772Y-109936659D01*
X134447191Y-109643935D01*
X134043405Y-109416361D01*
X133602981Y-109271934D01*
X133142842Y-109216206D01*
X132680673Y-109251316D01*
X132234234Y-109375917D01*
X131820682Y-109585220D01*
X131732809Y-109643935D01*
X131503228Y-109936659D01*
X129304172Y-109936659D01*
X130998607Y-108242225D01*
X131011579Y-108231579D01*
X131054067Y-108179808D01*
X131085639Y-108120742D01*
X131105080Y-108056652D01*
X131110000Y-108006701D01*
X131110000Y-108006694D01*
X131111644Y-107990001D01*
X131110000Y-107973308D01*
X131110000Y-104170831D01*
X131414331Y-103866500D01*
X132221939Y-103866500D01*
X132221939Y-106863700D01*
X132226573Y-106910748D01*
X132240296Y-106955988D01*
X132262582Y-106997682D01*
X132292573Y-107034227D01*
X132329118Y-107064218D01*
X132370812Y-107086504D01*
X132416052Y-107100227D01*
X132463100Y-107104861D01*
X133656900Y-107104861D01*
X133703948Y-107100227D01*
X133749188Y-107086504D01*
X133790882Y-107064218D01*
X133827427Y-107034227D01*
X133857418Y-106997682D01*
X133879704Y-106955988D01*
X133893427Y-106910748D01*
X133898061Y-106863700D01*
X133898061Y-103866500D01*
X133893427Y-103819452D01*
X133879704Y-103774212D01*
X133857418Y-103732518D01*
X133827427Y-103695973D01*
X133790882Y-103665982D01*
X133749188Y-103643696D01*
X133703948Y-103629973D01*
X133656900Y-103625339D01*
X132463100Y-103625339D01*
X132416052Y-103629973D01*
X132370812Y-103643696D01*
X132329118Y-103665982D01*
X132292573Y-103695973D01*
X132262582Y-103732518D01*
X132240296Y-103774212D01*
X132226573Y-103819452D01*
X132221939Y-103866500D01*
X131414331Y-103866500D01*
X132340833Y-102940000D01*
X134963307Y-102940000D01*
X134980000Y-102941644D01*
X134996693Y-102940000D01*
X134996701Y-102940000D01*
X135046652Y-102935080D01*
X135110742Y-102915639D01*
X135169808Y-102884067D01*
X135221579Y-102841579D01*
X135232230Y-102828602D01*
X136298607Y-101762225D01*
X136311579Y-101751579D01*
X136354067Y-101699808D01*
X136385639Y-101640742D01*
X136405080Y-101576652D01*
X136410000Y-101526701D01*
X136410000Y-101526693D01*
X136411644Y-101510000D01*
X136410000Y-101493307D01*
X136410000Y-99116692D01*
X136411644Y-99099999D01*
X136410000Y-99083306D01*
X136410000Y-99083299D01*
X136405080Y-99033348D01*
X136385639Y-98969258D01*
X136354067Y-98910192D01*
X136352559Y-98908355D01*
X136322225Y-98871392D01*
X136322216Y-98871383D01*
X136311578Y-98858421D01*
X136298617Y-98847784D01*
X135210000Y-97759169D01*
X135210000Y-96981161D01*
X135255000Y-96981161D01*
X135375207Y-96969322D01*
X135490795Y-96934259D01*
X135597321Y-96877319D01*
X135690692Y-96800692D01*
X135750001Y-96728423D01*
X135750001Y-97103297D01*
X135748356Y-97120000D01*
X135754920Y-97186651D01*
X135774361Y-97250741D01*
X135797370Y-97293787D01*
X135805934Y-97309808D01*
X135848422Y-97361579D01*
X135861394Y-97372225D01*
X137880000Y-99390832D01*
X137880001Y-107809167D01*
X136021394Y-109667775D01*
X136008421Y-109678422D01*
X135965933Y-109730193D01*
X135934361Y-109789259D01*
X135914920Y-109853349D01*
X135910000Y-109903300D01*
X135910000Y-109903307D01*
X135908356Y-109920000D01*
X135910000Y-109936693D01*
X135910001Y-113993297D01*
X135908356Y-114010000D01*
X135914920Y-114076651D01*
X135934361Y-114140741D01*
X135934362Y-114140742D01*
X135965934Y-114199808D01*
X136008422Y-114251579D01*
X136021394Y-114262225D01*
X137327775Y-115568607D01*
X137338421Y-115581579D01*
X137390192Y-115624067D01*
X137449258Y-115655639D01*
X137513348Y-115675080D01*
X137563299Y-115680000D01*
X137563306Y-115680000D01*
X137579999Y-115681644D01*
X137596692Y-115680000D01*
X144053307Y-115680000D01*
X144070000Y-115681644D01*
X144086693Y-115680000D01*
X144086701Y-115680000D01*
X144136652Y-115675080D01*
X144200742Y-115655639D01*
X144259808Y-115624067D01*
X144311579Y-115581579D01*
X144322229Y-115568602D01*
X144668611Y-115222221D01*
X144681578Y-115211579D01*
X144692221Y-115198611D01*
X144692225Y-115198607D01*
X144724067Y-115159808D01*
X144755639Y-115100742D01*
X144775080Y-115036652D01*
X144775080Y-115036651D01*
X144780000Y-114986701D01*
X144780000Y-114986694D01*
X144781644Y-114970001D01*
X144780000Y-114953308D01*
X144780000Y-114296492D01*
X144890166Y-114406658D01*
X144891009Y-114407221D01*
X144935083Y-114451135D01*
X144935763Y-114451810D01*
X145038724Y-114553581D01*
X145039409Y-114554256D01*
X145129621Y-114642713D01*
X145130184Y-114643263D01*
X145212452Y-114723403D01*
X145212755Y-114723698D01*
X145291834Y-114800461D01*
X145372459Y-114878774D01*
X145459440Y-114963634D01*
X145557237Y-115059691D01*
X145671159Y-115172431D01*
X145806549Y-115307382D01*
X146087779Y-115588612D01*
X146098421Y-115601579D01*
X146111387Y-115612220D01*
X146111392Y-115612225D01*
X146125822Y-115624067D01*
X146150192Y-115644067D01*
X146209258Y-115675639D01*
X146273348Y-115695080D01*
X146323299Y-115700000D01*
X146323306Y-115700000D01*
X146339999Y-115701644D01*
X146356692Y-115700000D01*
X152613307Y-115700000D01*
X152630000Y-115701644D01*
X152646693Y-115700000D01*
X152646701Y-115700000D01*
X152696652Y-115695080D01*
X152760742Y-115675639D01*
X152819808Y-115644067D01*
X152871579Y-115601579D01*
X152882230Y-115588601D01*
X154118607Y-114352225D01*
X154131579Y-114341579D01*
X154174067Y-114289808D01*
X154205639Y-114230742D01*
X154225080Y-114166652D01*
X154230000Y-114116701D01*
X154230000Y-114116694D01*
X154231644Y-114100001D01*
X154230000Y-114083308D01*
X154230000Y-113223341D01*
X156493228Y-113223341D01*
X156722809Y-113516065D01*
X157126595Y-113743639D01*
X157567019Y-113888066D01*
X158027158Y-113943794D01*
X158489327Y-113908684D01*
X158935766Y-113784083D01*
X159349318Y-113574780D01*
X159437191Y-113516065D01*
X159666772Y-113223341D01*
X158080000Y-111636569D01*
X156493228Y-113223341D01*
X154230000Y-113223341D01*
X154230000Y-111527158D01*
X155716206Y-111527158D01*
X155751316Y-111989327D01*
X155875917Y-112435766D01*
X156085220Y-112849318D01*
X156143935Y-112937191D01*
X156436659Y-113166772D01*
X158023431Y-111580000D01*
X158136569Y-111580000D01*
X159723341Y-113166772D01*
X160016065Y-112937191D01*
X160243639Y-112533405D01*
X160388066Y-112092981D01*
X160443794Y-111632842D01*
X160408684Y-111170673D01*
X160284083Y-110724234D01*
X160074780Y-110310682D01*
X160016065Y-110222809D01*
X159723341Y-109993228D01*
X158136569Y-111580000D01*
X158023431Y-111580000D01*
X156436659Y-109993228D01*
X156143935Y-110222809D01*
X155916361Y-110626595D01*
X155771934Y-111067019D01*
X155716206Y-111527158D01*
X154230000Y-111527158D01*
X154230000Y-109936659D01*
X156493228Y-109936659D01*
X158080000Y-111523431D01*
X159666772Y-109936659D01*
X159437191Y-109643935D01*
X159033405Y-109416361D01*
X158592981Y-109271934D01*
X158132842Y-109216206D01*
X157670673Y-109251316D01*
X157224234Y-109375917D01*
X156810682Y-109585220D01*
X156722809Y-109643935D01*
X156493228Y-109936659D01*
X154230000Y-109936659D01*
X154230000Y-109676690D01*
X154231644Y-109659999D01*
X154230000Y-109643308D01*
X154230000Y-109643299D01*
X154225080Y-109593348D01*
X154205639Y-109529258D01*
X154174067Y-109470192D01*
X154142225Y-109431392D01*
X154142216Y-109431383D01*
X154131578Y-109418421D01*
X154118617Y-109407784D01*
X151990000Y-107279169D01*
X151990000Y-103861400D01*
X153041939Y-103861400D01*
X153041939Y-106858600D01*
X153046573Y-106905648D01*
X153060296Y-106950888D01*
X153082582Y-106992582D01*
X153112573Y-107029127D01*
X153149118Y-107059118D01*
X153190812Y-107081404D01*
X153236052Y-107095127D01*
X153283100Y-107099761D01*
X154476900Y-107099761D01*
X154523948Y-107095127D01*
X154569188Y-107081404D01*
X154610882Y-107059118D01*
X154647427Y-107029127D01*
X154677418Y-106992582D01*
X154699704Y-106950888D01*
X154713427Y-106905648D01*
X154718061Y-106858600D01*
X154718061Y-103861400D01*
X154713427Y-103814352D01*
X154699704Y-103769112D01*
X154677418Y-103727418D01*
X154647427Y-103690873D01*
X154610882Y-103660882D01*
X154569188Y-103638596D01*
X154523948Y-103624873D01*
X154476900Y-103620239D01*
X153283100Y-103620239D01*
X153236052Y-103624873D01*
X153190812Y-103638596D01*
X153149118Y-103660882D01*
X153112573Y-103690873D01*
X153082582Y-103727418D01*
X153060296Y-103769112D01*
X153046573Y-103814352D01*
X153041939Y-103861400D01*
X151990000Y-103861400D01*
X151990000Y-100066692D01*
X151991644Y-100049999D01*
X151990000Y-100033306D01*
X151990000Y-100033299D01*
X151985080Y-99983348D01*
X151965639Y-99919258D01*
X151934067Y-99860192D01*
X151928450Y-99853348D01*
X151902225Y-99821392D01*
X151902216Y-99821383D01*
X151891578Y-99808421D01*
X151878617Y-99797784D01*
X150221648Y-98140816D01*
X150178556Y-98094230D01*
X150153061Y-98060863D01*
X150137835Y-98035461D01*
X150127978Y-98013370D01*
X150119860Y-97988093D01*
X150111704Y-97953731D01*
X150102530Y-97907932D01*
X150102232Y-97906465D01*
X150091073Y-97852506D01*
X150089011Y-97843429D01*
X150074287Y-97783962D01*
X150070471Y-97770296D01*
X150062933Y-97746085D01*
X150057327Y-97717903D01*
X150012851Y-97610530D01*
X149948283Y-97513897D01*
X149866103Y-97431717D01*
X149769470Y-97367149D01*
X149662097Y-97322673D01*
X149548110Y-97300000D01*
X149431890Y-97300000D01*
X149317903Y-97322673D01*
X149210530Y-97367149D01*
X149113897Y-97431717D01*
X149031717Y-97513897D01*
X148967149Y-97610530D01*
X148922673Y-97717903D01*
X148900000Y-97831890D01*
X148900000Y-97948110D01*
X148922673Y-98062097D01*
X148967149Y-98169470D01*
X149031717Y-98266103D01*
X149113897Y-98348283D01*
X149210530Y-98412851D01*
X149317903Y-98457327D01*
X149346085Y-98462933D01*
X149370296Y-98470471D01*
X149383962Y-98474287D01*
X149443429Y-98489011D01*
X149452506Y-98491073D01*
X149506465Y-98502232D01*
X149507932Y-98502530D01*
X149553731Y-98511704D01*
X149588093Y-98519860D01*
X149613370Y-98527978D01*
X149635461Y-98537835D01*
X149660863Y-98553061D01*
X149694230Y-98578556D01*
X149740816Y-98621648D01*
X151310000Y-100190833D01*
X151310001Y-107403297D01*
X151308356Y-107420000D01*
X151314920Y-107486651D01*
X151334361Y-107550741D01*
X151365933Y-107609807D01*
X151365934Y-107609808D01*
X151408422Y-107661579D01*
X151421394Y-107672225D01*
X153550000Y-109800833D01*
X153550001Y-113959167D01*
X152489169Y-115020000D01*
X146480833Y-115020000D01*
X146294903Y-114834070D01*
X146227828Y-114753400D01*
X146205052Y-114706771D01*
X146200390Y-114677146D01*
X146205378Y-114641612D01*
X146226873Y-114585696D01*
X146269636Y-114509259D01*
X146331160Y-114415819D01*
X146403626Y-114309738D01*
X146407353Y-114304113D01*
X146481292Y-114189059D01*
X146489648Y-114175029D01*
X146511448Y-114135420D01*
X146550945Y-114076309D01*
X146633112Y-113877941D01*
X146675000Y-113667356D01*
X146675000Y-113452644D01*
X146785000Y-113452644D01*
X146785000Y-113667356D01*
X146826888Y-113877941D01*
X146909055Y-114076309D01*
X147028342Y-114254834D01*
X147180166Y-114406658D01*
X147358691Y-114525945D01*
X147557059Y-114608112D01*
X147767644Y-114650000D01*
X147982356Y-114650000D01*
X148192941Y-114608112D01*
X148391309Y-114525945D01*
X148569834Y-114406658D01*
X148721658Y-114254834D01*
X148840945Y-114076309D01*
X148923112Y-113877941D01*
X148965000Y-113667356D01*
X148965000Y-113452644D01*
X149075000Y-113452644D01*
X149075000Y-113667356D01*
X149116888Y-113877941D01*
X149199055Y-114076309D01*
X149318342Y-114254834D01*
X149470166Y-114406658D01*
X149648691Y-114525945D01*
X149847059Y-114608112D01*
X150057644Y-114650000D01*
X150272356Y-114650000D01*
X150482941Y-114608112D01*
X150681309Y-114525945D01*
X150859834Y-114406658D01*
X151011658Y-114254834D01*
X151130945Y-114076309D01*
X151213112Y-113877941D01*
X151255000Y-113667356D01*
X151255000Y-113452644D01*
X151213112Y-113242059D01*
X151130945Y-113043691D01*
X151011658Y-112865166D01*
X150859834Y-112713342D01*
X150681309Y-112594055D01*
X150482941Y-112511888D01*
X150272356Y-112470000D01*
X150057644Y-112470000D01*
X149847059Y-112511888D01*
X149648691Y-112594055D01*
X149470166Y-112713342D01*
X149318342Y-112865166D01*
X149199055Y-113043691D01*
X149116888Y-113242059D01*
X149075000Y-113452644D01*
X148965000Y-113452644D01*
X148923112Y-113242059D01*
X148840945Y-113043691D01*
X148721658Y-112865166D01*
X148569834Y-112713342D01*
X148391309Y-112594055D01*
X148192941Y-112511888D01*
X147982356Y-112470000D01*
X147767644Y-112470000D01*
X147557059Y-112511888D01*
X147358691Y-112594055D01*
X147180166Y-112713342D01*
X147028342Y-112865166D01*
X146909055Y-113043691D01*
X146826888Y-113242059D01*
X146785000Y-113452644D01*
X146675000Y-113452644D01*
X146633112Y-113242059D01*
X146550945Y-113043691D01*
X146431658Y-112865166D01*
X146279834Y-112713342D01*
X146101309Y-112594055D01*
X145902941Y-112511888D01*
X145692356Y-112470000D01*
X145477644Y-112470000D01*
X145267059Y-112511888D01*
X145068691Y-112594055D01*
X145022120Y-112625172D01*
X145029828Y-112615938D01*
X145116437Y-112515494D01*
X145122098Y-112508678D01*
X145212952Y-112395090D01*
X145222251Y-112382517D01*
X145984051Y-112382517D01*
X146071725Y-112554091D01*
X146274408Y-112663797D01*
X146494601Y-112731854D01*
X146723839Y-112755645D01*
X146953314Y-112734257D01*
X147174207Y-112668512D01*
X147378030Y-112560936D01*
X147388275Y-112554091D01*
X147475949Y-112382517D01*
X148274051Y-112382517D01*
X148361725Y-112554091D01*
X148564408Y-112663797D01*
X148784601Y-112731854D01*
X149013839Y-112755645D01*
X149243314Y-112734257D01*
X149464207Y-112668512D01*
X149668030Y-112560936D01*
X149678275Y-112554091D01*
X149765949Y-112382517D01*
X150564051Y-112382517D01*
X150651725Y-112554091D01*
X150854408Y-112663797D01*
X151074601Y-112731854D01*
X151303839Y-112755645D01*
X151533314Y-112734257D01*
X151754207Y-112668512D01*
X151958030Y-112560936D01*
X151968275Y-112554091D01*
X152055949Y-112382517D01*
X151310000Y-111636569D01*
X150564051Y-112382517D01*
X149765949Y-112382517D01*
X149020000Y-111636569D01*
X148274051Y-112382517D01*
X147475949Y-112382517D01*
X146730000Y-111636569D01*
X145984051Y-112382517D01*
X145222251Y-112382517D01*
X145223757Y-112380481D01*
X145314801Y-112247094D01*
X145327021Y-112227171D01*
X145365950Y-112156166D01*
X145405945Y-112096309D01*
X145488112Y-111897941D01*
X145530000Y-111687356D01*
X145530000Y-111573839D01*
X145554355Y-111573839D01*
X145575743Y-111803314D01*
X145641488Y-112024207D01*
X145749064Y-112228030D01*
X145755909Y-112238275D01*
X145927483Y-112325949D01*
X146673431Y-111580000D01*
X146786569Y-111580000D01*
X147532517Y-112325949D01*
X147704091Y-112238275D01*
X147813797Y-112035592D01*
X147875479Y-111836025D01*
X147931488Y-112024207D01*
X148039064Y-112228030D01*
X148045909Y-112238275D01*
X148217483Y-112325949D01*
X148963431Y-111580000D01*
X149076569Y-111580000D01*
X149822517Y-112325949D01*
X149994091Y-112238275D01*
X150103797Y-112035592D01*
X150165479Y-111836025D01*
X150221488Y-112024207D01*
X150329064Y-112228030D01*
X150335909Y-112238275D01*
X150507483Y-112325949D01*
X151253431Y-111580000D01*
X151366569Y-111580000D01*
X152112517Y-112325949D01*
X152284091Y-112238275D01*
X152393797Y-112035592D01*
X152461854Y-111815399D01*
X152485645Y-111586161D01*
X152464257Y-111356686D01*
X152398512Y-111135793D01*
X152290936Y-110931970D01*
X152284091Y-110921725D01*
X152112517Y-110834051D01*
X151366569Y-111580000D01*
X151253431Y-111580000D01*
X150507483Y-110834051D01*
X150335909Y-110921725D01*
X150226203Y-111124408D01*
X150164521Y-111323975D01*
X150108512Y-111135793D01*
X150000936Y-110931970D01*
X149994091Y-110921725D01*
X149822517Y-110834051D01*
X149076569Y-111580000D01*
X148963431Y-111580000D01*
X148217483Y-110834051D01*
X148045909Y-110921725D01*
X147936203Y-111124408D01*
X147874521Y-111323975D01*
X147818512Y-111135793D01*
X147710936Y-110931970D01*
X147704091Y-110921725D01*
X147532517Y-110834051D01*
X146786569Y-111580000D01*
X146673431Y-111580000D01*
X145927483Y-110834051D01*
X145755909Y-110921725D01*
X145646203Y-111124408D01*
X145578146Y-111344601D01*
X145554355Y-111573839D01*
X145530000Y-111573839D01*
X145530000Y-111472644D01*
X145488112Y-111262059D01*
X145405945Y-111063691D01*
X145286658Y-110885166D01*
X145178975Y-110777483D01*
X145984051Y-110777483D01*
X146730000Y-111523431D01*
X147475949Y-110777483D01*
X148274051Y-110777483D01*
X149020000Y-111523431D01*
X149765949Y-110777483D01*
X149721839Y-110691161D01*
X150608161Y-110691161D01*
X150564051Y-110777483D01*
X151310000Y-111523431D01*
X152055949Y-110777483D01*
X151968275Y-110605909D01*
X151765592Y-110496203D01*
X151545399Y-110428146D01*
X151316161Y-110404355D01*
X151256161Y-110409947D01*
X151256161Y-108750000D01*
X151251527Y-108702952D01*
X151237804Y-108657712D01*
X151215518Y-108616018D01*
X151185527Y-108579473D01*
X151148982Y-108549482D01*
X151107288Y-108527196D01*
X151062048Y-108513473D01*
X151015000Y-108508839D01*
X149315000Y-108508839D01*
X149267952Y-108513473D01*
X149222712Y-108527196D01*
X149181018Y-108549482D01*
X149144473Y-108579473D01*
X149114482Y-108616018D01*
X149092196Y-108657712D01*
X149078473Y-108702952D01*
X149073839Y-108750000D01*
X149073839Y-110409303D01*
X149026161Y-110404355D01*
X148796686Y-110425743D01*
X148575793Y-110491488D01*
X148371970Y-110599064D01*
X148361725Y-110605909D01*
X148274051Y-110777483D01*
X147475949Y-110777483D01*
X147388275Y-110605909D01*
X147185592Y-110496203D01*
X146965399Y-110428146D01*
X146736161Y-110404355D01*
X146506686Y-110425743D01*
X146285793Y-110491488D01*
X146081970Y-110599064D01*
X146071725Y-110605909D01*
X145984051Y-110777483D01*
X145178975Y-110777483D01*
X145134834Y-110733342D01*
X144956309Y-110614055D01*
X144757941Y-110531888D01*
X144547356Y-110490000D01*
X144332644Y-110490000D01*
X144122059Y-110531888D01*
X143923691Y-110614055D01*
X143745166Y-110733342D01*
X143593342Y-110885166D01*
X143474055Y-111063691D01*
X143391888Y-111262059D01*
X143350000Y-111472644D01*
X143350000Y-111687356D01*
X143391888Y-111897941D01*
X143474055Y-112096309D01*
X143514050Y-112156166D01*
X143552978Y-112227170D01*
X143565198Y-112247094D01*
X143656242Y-112380481D01*
X143667047Y-112395090D01*
X143757901Y-112508678D01*
X143763562Y-112515494D01*
X143850171Y-112615938D01*
X143857878Y-112625172D01*
X143811309Y-112594055D01*
X143612941Y-112511888D01*
X143402356Y-112470000D01*
X143187644Y-112470000D01*
X142977059Y-112511888D01*
X142778691Y-112594055D01*
X142600166Y-112713342D01*
X142448342Y-112865166D01*
X142329055Y-113043691D01*
X142246888Y-113242059D01*
X142205000Y-113452644D01*
X142205000Y-113667356D01*
X142246888Y-113877941D01*
X142329055Y-114076309D01*
X142448342Y-114254834D01*
X142600166Y-114406658D01*
X142778691Y-114525945D01*
X142977059Y-114608112D01*
X143187644Y-114650000D01*
X143402356Y-114650000D01*
X143612941Y-114608112D01*
X143811309Y-114525945D01*
X143989834Y-114406658D01*
X144100000Y-114296492D01*
X144100000Y-114829168D01*
X143929169Y-115000000D01*
X137720832Y-115000000D01*
X136590000Y-113869169D01*
X136590000Y-113452644D01*
X139915000Y-113452644D01*
X139915000Y-113667356D01*
X139956888Y-113877941D01*
X140039055Y-114076309D01*
X140158342Y-114254834D01*
X140310166Y-114406658D01*
X140488691Y-114525945D01*
X140687059Y-114608112D01*
X140897644Y-114650000D01*
X141112356Y-114650000D01*
X141322941Y-114608112D01*
X141521309Y-114525945D01*
X141699834Y-114406658D01*
X141851658Y-114254834D01*
X141970945Y-114076309D01*
X142053112Y-113877941D01*
X142095000Y-113667356D01*
X142095000Y-113452644D01*
X142053112Y-113242059D01*
X141970945Y-113043691D01*
X141851658Y-112865166D01*
X141699834Y-112713342D01*
X141521309Y-112594055D01*
X141322941Y-112511888D01*
X141112356Y-112470000D01*
X140897644Y-112470000D01*
X140687059Y-112511888D01*
X140488691Y-112594055D01*
X140310166Y-112713342D01*
X140158342Y-112865166D01*
X140039055Y-113043691D01*
X139956888Y-113242059D01*
X139915000Y-113452644D01*
X136590000Y-113452644D01*
X136590000Y-112382517D01*
X141404051Y-112382517D01*
X141491725Y-112554091D01*
X141694408Y-112663797D01*
X141914601Y-112731854D01*
X142143839Y-112755645D01*
X142373314Y-112734257D01*
X142594207Y-112668512D01*
X142798030Y-112560936D01*
X142808275Y-112554091D01*
X142895949Y-112382517D01*
X142150000Y-111636569D01*
X141404051Y-112382517D01*
X136590000Y-112382517D01*
X136590000Y-111573839D01*
X140974355Y-111573839D01*
X140995743Y-111803314D01*
X141061488Y-112024207D01*
X141169064Y-112228030D01*
X141175909Y-112238275D01*
X141347483Y-112325949D01*
X142093431Y-111580000D01*
X142206569Y-111580000D01*
X142952517Y-112325949D01*
X143124091Y-112238275D01*
X143233797Y-112035592D01*
X143301854Y-111815399D01*
X143325645Y-111586161D01*
X143304257Y-111356686D01*
X143238512Y-111135793D01*
X143130936Y-110931970D01*
X143124091Y-110921725D01*
X142952517Y-110834051D01*
X142206569Y-111580000D01*
X142093431Y-111580000D01*
X141347483Y-110834051D01*
X141175909Y-110921725D01*
X141066203Y-111124408D01*
X140998146Y-111344601D01*
X140974355Y-111573839D01*
X136590000Y-111573839D01*
X136590000Y-110402517D01*
X140259051Y-110402517D01*
X140346725Y-110574091D01*
X140549408Y-110683797D01*
X140769601Y-110751854D01*
X140998839Y-110775645D01*
X141228314Y-110754257D01*
X141449207Y-110688512D01*
X141449629Y-110688289D01*
X141404051Y-110777483D01*
X142150000Y-111523431D01*
X142895949Y-110777483D01*
X142808275Y-110605909D01*
X142605592Y-110496203D01*
X142385399Y-110428146D01*
X142156161Y-110404355D01*
X141926686Y-110425743D01*
X141705793Y-110491488D01*
X141705371Y-110491711D01*
X141750949Y-110402517D01*
X141005000Y-109656569D01*
X140259051Y-110402517D01*
X136590000Y-110402517D01*
X136590000Y-110060831D01*
X137056992Y-109593839D01*
X139829355Y-109593839D01*
X139850743Y-109823314D01*
X139916488Y-110044207D01*
X140024064Y-110248030D01*
X140030909Y-110258275D01*
X140202483Y-110345949D01*
X140948431Y-109600000D01*
X141061569Y-109600000D01*
X141807517Y-110345949D01*
X141979091Y-110258275D01*
X142088797Y-110055592D01*
X142156854Y-109835399D01*
X142180645Y-109606161D01*
X142170065Y-109492644D01*
X142205000Y-109492644D01*
X142205000Y-109707356D01*
X142246888Y-109917941D01*
X142329055Y-110116309D01*
X142448342Y-110294834D01*
X142600166Y-110446658D01*
X142778691Y-110565945D01*
X142977059Y-110648112D01*
X143187644Y-110690000D01*
X143402356Y-110690000D01*
X143612941Y-110648112D01*
X143811309Y-110565945D01*
X143989834Y-110446658D01*
X144141658Y-110294834D01*
X144260945Y-110116309D01*
X144343112Y-109917941D01*
X144385000Y-109707356D01*
X144385000Y-109492644D01*
X144495000Y-109492644D01*
X144495000Y-109707356D01*
X144536888Y-109917941D01*
X144619055Y-110116309D01*
X144738342Y-110294834D01*
X144890166Y-110446658D01*
X145068691Y-110565945D01*
X145267059Y-110648112D01*
X145477644Y-110690000D01*
X145692356Y-110690000D01*
X145902941Y-110648112D01*
X146101309Y-110565945D01*
X146279834Y-110446658D01*
X146431658Y-110294834D01*
X146550945Y-110116309D01*
X146633112Y-109917941D01*
X146675000Y-109707356D01*
X146675000Y-109492644D01*
X146785000Y-109492644D01*
X146785000Y-109707356D01*
X146826888Y-109917941D01*
X146909055Y-110116309D01*
X147028342Y-110294834D01*
X147180166Y-110446658D01*
X147358691Y-110565945D01*
X147557059Y-110648112D01*
X147767644Y-110690000D01*
X147982356Y-110690000D01*
X148192941Y-110648112D01*
X148391309Y-110565945D01*
X148569834Y-110446658D01*
X148721658Y-110294834D01*
X148840945Y-110116309D01*
X148923112Y-109917941D01*
X148965000Y-109707356D01*
X148965000Y-109492644D01*
X148923112Y-109282059D01*
X148840945Y-109083691D01*
X148721658Y-108905166D01*
X148569834Y-108753342D01*
X148391309Y-108634055D01*
X148192941Y-108551888D01*
X147982356Y-108510000D01*
X147767644Y-108510000D01*
X147557059Y-108551888D01*
X147358691Y-108634055D01*
X147180166Y-108753342D01*
X147028342Y-108905166D01*
X146909055Y-109083691D01*
X146826888Y-109282059D01*
X146785000Y-109492644D01*
X146675000Y-109492644D01*
X146633112Y-109282059D01*
X146550945Y-109083691D01*
X146431658Y-108905166D01*
X146279834Y-108753342D01*
X146101309Y-108634055D01*
X145902941Y-108551888D01*
X145692356Y-108510000D01*
X145477644Y-108510000D01*
X145267059Y-108551888D01*
X145068691Y-108634055D01*
X144890166Y-108753342D01*
X144738342Y-108905166D01*
X144619055Y-109083691D01*
X144536888Y-109282059D01*
X144495000Y-109492644D01*
X144385000Y-109492644D01*
X144343112Y-109282059D01*
X144260945Y-109083691D01*
X144141658Y-108905166D01*
X143989834Y-108753342D01*
X143811309Y-108634055D01*
X143612941Y-108551888D01*
X143402356Y-108510000D01*
X143187644Y-108510000D01*
X142977059Y-108551888D01*
X142778691Y-108634055D01*
X142600166Y-108753342D01*
X142448342Y-108905166D01*
X142329055Y-109083691D01*
X142246888Y-109282059D01*
X142205000Y-109492644D01*
X142170065Y-109492644D01*
X142159257Y-109376686D01*
X142093512Y-109155793D01*
X141985936Y-108951970D01*
X141979091Y-108941725D01*
X141807517Y-108854051D01*
X141061569Y-109600000D01*
X140948431Y-109600000D01*
X140202483Y-108854051D01*
X140030909Y-108941725D01*
X139921203Y-109144408D01*
X139853146Y-109364601D01*
X139829355Y-109593839D01*
X137056992Y-109593839D01*
X137853348Y-108797483D01*
X140259051Y-108797483D01*
X141005000Y-109543431D01*
X141750949Y-108797483D01*
X141663275Y-108625909D01*
X141460592Y-108516203D01*
X141240399Y-108448146D01*
X141011161Y-108424355D01*
X140781686Y-108445743D01*
X140560793Y-108511488D01*
X140356970Y-108619064D01*
X140346725Y-108625909D01*
X140259051Y-108797483D01*
X137853348Y-108797483D01*
X138448607Y-108202225D01*
X138461579Y-108191579D01*
X138504067Y-108139808D01*
X138535639Y-108080742D01*
X138555080Y-108016652D01*
X138560000Y-107966701D01*
X138560000Y-107966693D01*
X138561644Y-107950000D01*
X138560000Y-107933307D01*
X138560000Y-103032589D01*
X139138716Y-103032589D01*
X139138716Y-103387411D01*
X139207938Y-103735415D01*
X139343723Y-104063228D01*
X139540851Y-104358252D01*
X139791748Y-104609149D01*
X140086772Y-104806277D01*
X140414585Y-104942062D01*
X140762589Y-105011284D01*
X141117411Y-105011284D01*
X141465415Y-104942062D01*
X141793228Y-104806277D01*
X142088252Y-104609149D01*
X142339149Y-104358252D01*
X142536277Y-104063228D01*
X142621906Y-103856500D01*
X145721939Y-103856500D01*
X145721939Y-106853700D01*
X145726573Y-106900748D01*
X145740296Y-106945988D01*
X145762582Y-106987682D01*
X145792573Y-107024227D01*
X145829118Y-107054218D01*
X145870812Y-107076504D01*
X145916052Y-107090227D01*
X145963100Y-107094861D01*
X147156900Y-107094861D01*
X147203948Y-107090227D01*
X147249188Y-107076504D01*
X147290882Y-107054218D01*
X147327427Y-107024227D01*
X147357418Y-106987682D01*
X147379704Y-106945988D01*
X147393427Y-106900748D01*
X147398061Y-106853700D01*
X147398061Y-103856500D01*
X147393427Y-103809452D01*
X147379704Y-103764212D01*
X147357418Y-103722518D01*
X147327427Y-103685973D01*
X147290882Y-103655982D01*
X147249188Y-103633696D01*
X147203948Y-103619973D01*
X147156900Y-103615339D01*
X145963100Y-103615339D01*
X145916052Y-103619973D01*
X145870812Y-103633696D01*
X145829118Y-103655982D01*
X145792573Y-103685973D01*
X145762582Y-103722518D01*
X145740296Y-103764212D01*
X145726573Y-103809452D01*
X145721939Y-103856500D01*
X142621906Y-103856500D01*
X142672062Y-103735415D01*
X142741284Y-103387411D01*
X142741284Y-103032589D01*
X142672062Y-102684585D01*
X142536277Y-102356772D01*
X142339149Y-102061748D01*
X142088252Y-101810851D01*
X141793228Y-101613723D01*
X141465415Y-101477938D01*
X141117411Y-101408716D01*
X140762589Y-101408716D01*
X140414585Y-101477938D01*
X140086772Y-101613723D01*
X139791748Y-101810851D01*
X139540851Y-102061748D01*
X139343723Y-102356772D01*
X139207938Y-102684585D01*
X139138716Y-103032589D01*
X138560000Y-103032589D01*
X138560000Y-99266693D01*
X138561644Y-99250000D01*
X138560000Y-99233307D01*
X138560000Y-99233299D01*
X138555080Y-99183348D01*
X138535639Y-99119258D01*
X138504067Y-99060192D01*
X138482036Y-99033348D01*
X138472225Y-99021393D01*
X138472221Y-99021389D01*
X138461578Y-99008421D01*
X138448611Y-98997779D01*
X136430000Y-96979169D01*
X136430000Y-96728424D01*
X136489308Y-96800692D01*
X136582679Y-96877319D01*
X136689205Y-96934259D01*
X136804793Y-96969322D01*
X136925000Y-96981161D01*
X137675000Y-96981161D01*
X137770886Y-96971717D01*
X143677775Y-102878607D01*
X143688421Y-102891579D01*
X143740192Y-102934067D01*
X143799258Y-102965639D01*
X143863348Y-102985080D01*
X143913299Y-102990000D01*
X143913307Y-102990000D01*
X143930000Y-102991644D01*
X143946693Y-102990000D01*
X147303307Y-102990000D01*
X147320000Y-102991644D01*
X147336693Y-102990000D01*
X147336701Y-102990000D01*
X147386652Y-102985080D01*
X147450742Y-102965639D01*
X147509808Y-102934067D01*
X147561579Y-102891579D01*
X147572229Y-102878602D01*
X147769188Y-102681643D01*
X147815769Y-102638556D01*
X147849136Y-102613061D01*
X147874538Y-102597835D01*
X147896629Y-102587978D01*
X147921906Y-102579860D01*
X147956268Y-102571704D01*
X148002067Y-102562530D01*
X148003534Y-102562232D01*
X148057493Y-102551073D01*
X148066570Y-102549011D01*
X148126037Y-102534287D01*
X148139702Y-102530472D01*
X148163920Y-102522932D01*
X148192097Y-102517327D01*
X148299470Y-102472851D01*
X148396103Y-102408283D01*
X148478283Y-102326103D01*
X148542851Y-102229470D01*
X148587327Y-102122097D01*
X148610000Y-102008110D01*
X148610000Y-101891890D01*
X148587327Y-101777903D01*
X148542851Y-101670530D01*
X148478283Y-101573897D01*
X148396103Y-101491717D01*
X148299470Y-101427149D01*
X148192097Y-101382673D01*
X148078110Y-101360000D01*
X147961890Y-101360000D01*
X147847903Y-101382673D01*
X147740530Y-101427149D01*
X147643897Y-101491717D01*
X147561717Y-101573897D01*
X147497149Y-101670530D01*
X147452673Y-101777903D01*
X147447068Y-101806080D01*
X147439529Y-101830293D01*
X147435712Y-101843962D01*
X147420988Y-101903429D01*
X147418926Y-101912506D01*
X147407767Y-101966465D01*
X147407469Y-101967932D01*
X147398295Y-102013731D01*
X147390139Y-102048093D01*
X147382021Y-102073370D01*
X147372164Y-102095461D01*
X147356938Y-102120863D01*
X147331443Y-102154231D01*
X147288353Y-102200815D01*
X147179169Y-102310000D01*
X144070832Y-102310000D01*
X142602722Y-100841890D01*
X144470000Y-100841890D01*
X144470000Y-100958110D01*
X144492673Y-101072097D01*
X144537149Y-101179470D01*
X144601717Y-101276103D01*
X144683897Y-101358283D01*
X144780530Y-101422851D01*
X144887903Y-101467327D01*
X145001890Y-101490000D01*
X145118110Y-101490000D01*
X145232097Y-101467327D01*
X145339470Y-101422851D01*
X145363351Y-101406894D01*
X145385814Y-101395098D01*
X145398174Y-101388134D01*
X145450635Y-101356496D01*
X145458512Y-101351535D01*
X145504557Y-101321271D01*
X145505802Y-101320446D01*
X145544695Y-101294535D01*
X145574739Y-101276016D01*
X145598354Y-101263882D01*
X145620941Y-101255232D01*
X145649677Y-101248035D01*
X145691299Y-101242468D01*
X145721939Y-101241275D01*
X145721939Y-101443500D01*
X145726573Y-101490548D01*
X145740296Y-101535788D01*
X145762582Y-101577482D01*
X145792573Y-101614027D01*
X145829118Y-101644018D01*
X145870812Y-101666304D01*
X145916052Y-101680027D01*
X145963100Y-101684661D01*
X147156900Y-101684661D01*
X147203948Y-101680027D01*
X147249188Y-101666304D01*
X147290882Y-101644018D01*
X147327427Y-101614027D01*
X147357418Y-101577482D01*
X147379704Y-101535788D01*
X147393427Y-101490548D01*
X147398061Y-101443500D01*
X147398061Y-98446300D01*
X147393427Y-98399252D01*
X147379704Y-98354012D01*
X147357418Y-98312318D01*
X147327427Y-98275773D01*
X147290882Y-98245782D01*
X147249188Y-98223496D01*
X147203948Y-98209773D01*
X147156900Y-98205139D01*
X145963100Y-98205139D01*
X145916052Y-98209773D01*
X145870812Y-98223496D01*
X145829118Y-98245782D01*
X145792573Y-98275773D01*
X145762582Y-98312318D01*
X145740296Y-98354012D01*
X145726573Y-98399252D01*
X145721939Y-98446300D01*
X145721939Y-100558725D01*
X145691299Y-100557531D01*
X145649677Y-100551964D01*
X145620941Y-100544767D01*
X145598354Y-100536117D01*
X145574739Y-100523983D01*
X145544695Y-100505464D01*
X145505802Y-100479553D01*
X145504557Y-100478728D01*
X145458512Y-100448464D01*
X145450635Y-100443503D01*
X145398174Y-100411865D01*
X145385811Y-100404900D01*
X145363350Y-100393105D01*
X145339470Y-100377149D01*
X145232097Y-100332673D01*
X145118110Y-100310000D01*
X145001890Y-100310000D01*
X144887903Y-100332673D01*
X144780530Y-100377149D01*
X144683897Y-100441717D01*
X144601717Y-100523897D01*
X144537149Y-100620530D01*
X144492673Y-100727903D01*
X144470000Y-100841890D01*
X142602722Y-100841890D01*
X138271575Y-96510744D01*
X138279322Y-96485207D01*
X138291161Y-96365000D01*
X138291161Y-95615000D01*
X138728839Y-95615000D01*
X138728839Y-96365000D01*
X138740678Y-96485207D01*
X138775741Y-96600795D01*
X138832681Y-96707321D01*
X138909308Y-96800692D01*
X139002679Y-96877319D01*
X139109205Y-96934259D01*
X139224793Y-96969322D01*
X139345000Y-96981161D01*
X140095000Y-96981161D01*
X140215207Y-96969322D01*
X140225399Y-96966230D01*
X140997774Y-97738606D01*
X141008421Y-97751579D01*
X141060192Y-97794067D01*
X141119258Y-97825639D01*
X141183348Y-97845080D01*
X141233299Y-97850000D01*
X141233307Y-97850000D01*
X141250000Y-97851644D01*
X141266693Y-97850000D01*
X147328038Y-97850000D01*
X147329009Y-97853071D01*
X147339843Y-97892888D01*
X147339935Y-97893222D01*
X147352737Y-97940005D01*
X147355283Y-97948665D01*
X147357300Y-97955077D01*
X147362674Y-97982096D01*
X147407150Y-98089469D01*
X147471718Y-98186102D01*
X147553898Y-98268282D01*
X147650531Y-98332850D01*
X147757904Y-98377326D01*
X147871891Y-98399999D01*
X147988111Y-98399999D01*
X148102098Y-98377326D01*
X148209471Y-98332850D01*
X148306104Y-98268282D01*
X148388284Y-98186102D01*
X148452852Y-98089469D01*
X148497328Y-97982096D01*
X148520001Y-97868109D01*
X148520001Y-97751889D01*
X148497328Y-97637902D01*
X148452852Y-97530529D01*
X148388284Y-97433896D01*
X148306104Y-97351716D01*
X148209471Y-97287148D01*
X148102098Y-97242672D01*
X147988111Y-97219999D01*
X147932388Y-97219999D01*
X147871474Y-97218758D01*
X147823100Y-97215635D01*
X147794819Y-97212575D01*
X147760744Y-97194361D01*
X147696654Y-97174920D01*
X147646703Y-97170000D01*
X147646695Y-97170000D01*
X147630002Y-97168356D01*
X147613309Y-97170000D01*
X141390832Y-97170000D01*
X140699924Y-96479093D01*
X140711161Y-96365000D01*
X140711161Y-95615000D01*
X143568839Y-95615000D01*
X143568839Y-96365000D01*
X143580678Y-96485207D01*
X143615741Y-96600795D01*
X143672681Y-96707321D01*
X143749308Y-96800692D01*
X143842679Y-96877319D01*
X143949205Y-96934259D01*
X144064793Y-96969322D01*
X144185000Y-96981161D01*
X144935000Y-96981161D01*
X145055207Y-96969322D01*
X145170795Y-96934259D01*
X145277321Y-96877319D01*
X145370692Y-96800692D01*
X145447319Y-96707321D01*
X145504259Y-96600795D01*
X145539322Y-96485207D01*
X145551161Y-96365000D01*
X145551161Y-95615000D01*
X145988839Y-95615000D01*
X145988839Y-96365000D01*
X146000678Y-96485207D01*
X146035741Y-96600795D01*
X146092681Y-96707321D01*
X146169308Y-96800692D01*
X146262679Y-96877319D01*
X146369205Y-96934259D01*
X146484793Y-96969322D01*
X146605000Y-96981161D01*
X147355000Y-96981161D01*
X147475207Y-96969322D01*
X147590795Y-96934259D01*
X147697321Y-96877319D01*
X147790692Y-96800692D01*
X147867319Y-96707321D01*
X147924259Y-96600795D01*
X147959322Y-96485207D01*
X147971161Y-96365000D01*
X147971161Y-96330000D01*
X149739169Y-96330000D01*
X153041939Y-99632772D01*
X153041939Y-101448400D01*
X153046573Y-101495448D01*
X153060296Y-101540688D01*
X153082582Y-101582382D01*
X153112573Y-101618927D01*
X153149118Y-101648918D01*
X153190812Y-101671204D01*
X153236052Y-101684927D01*
X153283100Y-101689561D01*
X154476900Y-101689561D01*
X154523948Y-101684927D01*
X154569188Y-101671204D01*
X154610882Y-101648918D01*
X154647427Y-101618927D01*
X154677418Y-101582382D01*
X154699704Y-101540688D01*
X154713427Y-101495448D01*
X154718061Y-101448400D01*
X154718061Y-98451200D01*
X154713427Y-98404152D01*
X154699704Y-98358912D01*
X154677418Y-98317218D01*
X154647427Y-98280673D01*
X154610882Y-98250682D01*
X154569188Y-98228396D01*
X154523948Y-98214673D01*
X154476900Y-98210039D01*
X153283100Y-98210039D01*
X153236052Y-98214673D01*
X153190812Y-98228396D01*
X153149118Y-98250682D01*
X153112573Y-98280673D01*
X153082582Y-98317218D01*
X153060296Y-98358912D01*
X153046573Y-98404152D01*
X153041939Y-98451200D01*
X153041939Y-98671107D01*
X150132230Y-95761399D01*
X150121579Y-95748421D01*
X150069808Y-95705933D01*
X150010742Y-95674361D01*
X149946652Y-95654920D01*
X149896701Y-95650000D01*
X149896693Y-95650000D01*
X149880000Y-95648356D01*
X149863307Y-95650000D01*
X147971161Y-95650000D01*
X147971161Y-95615000D01*
X147959322Y-95494793D01*
X147924259Y-95379205D01*
X147867319Y-95272679D01*
X147790692Y-95179308D01*
X147697321Y-95102681D01*
X147590795Y-95045741D01*
X147475207Y-95010678D01*
X147355000Y-94998839D01*
X146605000Y-94998839D01*
X146484793Y-95010678D01*
X146369205Y-95045741D01*
X146262679Y-95102681D01*
X146169308Y-95179308D01*
X146092681Y-95272679D01*
X146035741Y-95379205D01*
X146000678Y-95494793D01*
X145988839Y-95615000D01*
X145551161Y-95615000D01*
X145539322Y-95494793D01*
X145538558Y-95492274D01*
X146458433Y-94572399D01*
X146500339Y-94533886D01*
X146528294Y-94513103D01*
X146547127Y-94502552D01*
X146561343Y-94497085D01*
X146578107Y-94493165D01*
X146604046Y-94490005D01*
X146642823Y-94487856D01*
X146693493Y-94486180D01*
X146696937Y-94486041D01*
X146755709Y-94483251D01*
X146765490Y-94482586D01*
X146794705Y-94480000D01*
X146828110Y-94480000D01*
X146942097Y-94457327D01*
X147049470Y-94412851D01*
X147146103Y-94348283D01*
X147228283Y-94266103D01*
X147292851Y-94169470D01*
X147337327Y-94062097D01*
X147360000Y-93948110D01*
X147360000Y-93831890D01*
X147337327Y-93717903D01*
X147292851Y-93610530D01*
X147228283Y-93513897D01*
X147146103Y-93431717D01*
X147049470Y-93367149D01*
X146942097Y-93322673D01*
X146828110Y-93300000D01*
X146711890Y-93300000D01*
X146597903Y-93322673D01*
X146490530Y-93367149D01*
X146393897Y-93431717D01*
X146311717Y-93513897D01*
X146247149Y-93610530D01*
X146239014Y-93630170D01*
X146226370Y-93652140D01*
X146219135Y-93665697D01*
X146189893Y-93724990D01*
X146184627Y-93736415D01*
X146161375Y-93790541D01*
X146158793Y-93796791D01*
X146138984Y-93846738D01*
X146121593Y-93889758D01*
X146105322Y-93925409D01*
X146087256Y-93958341D01*
X146063487Y-93993869D01*
X146029444Y-94036276D01*
X145978402Y-94090766D01*
X145057726Y-95011442D01*
X145055207Y-95010678D01*
X144935000Y-94998839D01*
X144185000Y-94998839D01*
X144064793Y-95010678D01*
X143949205Y-95045741D01*
X143842679Y-95102681D01*
X143749308Y-95179308D01*
X143672681Y-95272679D01*
X143615741Y-95379205D01*
X143580678Y-95494793D01*
X143568839Y-95615000D01*
X140711161Y-95615000D01*
X140699322Y-95494793D01*
X140664259Y-95379205D01*
X140607319Y-95272679D01*
X140530692Y-95179308D01*
X140437321Y-95102681D01*
X140330795Y-95045741D01*
X140215207Y-95010678D01*
X140095000Y-94998839D01*
X139345000Y-94998839D01*
X139224793Y-95010678D01*
X139109205Y-95045741D01*
X139002679Y-95102681D01*
X138909308Y-95179308D01*
X138832681Y-95272679D01*
X138775741Y-95379205D01*
X138740678Y-95494793D01*
X138728839Y-95615000D01*
X138291161Y-95615000D01*
X138279322Y-95494793D01*
X138244259Y-95379205D01*
X138187319Y-95272679D01*
X138110692Y-95179308D01*
X138017321Y-95102681D01*
X137910795Y-95045741D01*
X137795207Y-95010678D01*
X137675000Y-94998839D01*
X136925000Y-94998839D01*
X136804793Y-95010678D01*
X136689205Y-95045741D01*
X136582679Y-95102681D01*
X136489308Y-95179308D01*
X136430000Y-95251576D01*
X136430000Y-95020831D01*
X137498607Y-93952225D01*
X137511579Y-93941579D01*
X137554067Y-93889808D01*
X137585639Y-93830742D01*
X137605080Y-93766652D01*
X137610000Y-93716701D01*
X137610000Y-93716694D01*
X137611644Y-93700001D01*
X137610000Y-93683308D01*
X137610000Y-92014665D01*
X137612447Y-91951712D01*
X137617953Y-91910682D01*
X137624979Y-91882934D01*
X137633242Y-91861801D01*
X137644813Y-91840022D01*
X137662839Y-91812172D01*
X137689229Y-91775120D01*
X137721143Y-91730572D01*
X137725343Y-91724514D01*
X137759488Y-91673620D01*
X137766258Y-91662932D01*
X137787164Y-91627913D01*
X137812851Y-91589470D01*
X137857327Y-91482097D01*
X137880000Y-91368110D01*
X137880000Y-91251890D01*
X137857327Y-91137903D01*
X137812851Y-91030530D01*
X137748283Y-90933897D01*
X137666103Y-90851717D01*
X137569470Y-90787149D01*
X137462097Y-90742673D01*
X137348110Y-90720000D01*
X137231890Y-90720000D01*
X137117903Y-90742673D01*
X137010530Y-90787149D01*
X136913897Y-90851717D01*
X136831717Y-90933897D01*
X136767149Y-91030530D01*
X136722673Y-91137903D01*
X136700000Y-91251890D01*
X136700000Y-91368110D01*
X136722673Y-91482097D01*
X136767149Y-91589470D01*
X136773201Y-91598527D01*
X136778022Y-91609161D01*
X136784235Y-91621857D01*
X136813665Y-91677761D01*
X136818404Y-91686334D01*
X136846816Y-91735342D01*
X136848091Y-91737514D01*
X136873058Y-91779557D01*
X136891750Y-91813216D01*
X136904619Y-91840720D01*
X136914074Y-91867576D01*
X136921784Y-91900791D01*
X136927533Y-91946859D01*
X136930000Y-92014391D01*
X136930001Y-93559167D01*
X135861394Y-94627775D01*
X135848421Y-94638422D01*
X135805933Y-94690193D01*
X135774361Y-94749259D01*
X135754920Y-94813349D01*
X135750000Y-94863300D01*
X135750000Y-94863307D01*
X135748356Y-94880000D01*
X135750000Y-94896693D01*
X135750000Y-95251576D01*
X135690692Y-95179308D01*
X135597321Y-95102681D01*
X135490795Y-95045741D01*
X135375207Y-95010678D01*
X135255000Y-94998839D01*
X134505000Y-94998839D01*
X134384793Y-95010678D01*
X134269205Y-95045741D01*
X134162679Y-95102681D01*
X134069308Y-95179308D01*
X133992681Y-95272679D01*
X133935741Y-95379205D01*
X133900678Y-95494793D01*
X133888839Y-95615000D01*
X133888839Y-96365000D01*
X133900678Y-96485207D01*
X133935741Y-96600795D01*
X133992681Y-96707321D01*
X134069308Y-96800692D01*
X134162679Y-96877319D01*
X134269205Y-96934259D01*
X134384793Y-96969322D01*
X134505000Y-96981161D01*
X134530001Y-96981161D01*
X134530001Y-97883297D01*
X134528356Y-97900000D01*
X134534920Y-97966651D01*
X134554361Y-98030741D01*
X134585933Y-98089807D01*
X134589563Y-98094230D01*
X134628422Y-98141579D01*
X134641394Y-98152225D01*
X135730000Y-99240833D01*
X135730001Y-101369167D01*
X134839169Y-102260000D01*
X132216690Y-102260000D01*
X132199999Y-102258356D01*
X132183308Y-102260000D01*
X132183299Y-102260000D01*
X132133348Y-102264920D01*
X132069258Y-102284361D01*
X132021292Y-102310000D01*
X132010192Y-102315933D01*
X131971392Y-102347775D01*
X131971387Y-102347780D01*
X131958421Y-102358421D01*
X131947779Y-102371388D01*
X130541394Y-103777775D01*
X130528421Y-103788422D01*
X130485933Y-103840193D01*
X130454361Y-103899259D01*
X130434920Y-103963349D01*
X130430000Y-104013300D01*
X130430000Y-104013307D01*
X130428356Y-104030000D01*
X130430000Y-104046693D01*
X130430001Y-107849167D01*
X125539169Y-112740000D01*
X124848689Y-112740000D01*
X124826779Y-112667772D01*
X124734479Y-112495091D01*
X124610265Y-112343735D01*
X124458909Y-112219521D01*
X124286228Y-112127221D01*
X124098858Y-112070383D01*
X123952826Y-112056000D01*
X122347174Y-112056000D01*
X122201142Y-112070383D01*
X122013772Y-112127221D01*
X121841091Y-112219521D01*
X121689735Y-112343735D01*
X121565521Y-112495091D01*
X121473221Y-112667772D01*
X121416383Y-112855142D01*
X121397191Y-113050000D01*
X121180000Y-113050000D01*
X121180000Y-107550000D01*
X121397191Y-107550000D01*
X121416383Y-107744858D01*
X121473221Y-107932228D01*
X121565521Y-108104909D01*
X121689735Y-108256265D01*
X121841091Y-108380479D01*
X122013772Y-108472779D01*
X122201142Y-108529617D01*
X122347174Y-108544000D01*
X123811263Y-108544000D01*
X123689735Y-108643735D01*
X123565521Y-108795091D01*
X123473221Y-108967772D01*
X123416383Y-109155142D01*
X123397191Y-109350000D01*
X123416383Y-109544858D01*
X123473221Y-109732228D01*
X123565521Y-109904909D01*
X123689735Y-110056265D01*
X123841091Y-110180479D01*
X124013772Y-110272779D01*
X124201142Y-110329617D01*
X124347174Y-110344000D01*
X125952826Y-110344000D01*
X126098858Y-110329617D01*
X126286228Y-110272779D01*
X126458909Y-110180479D01*
X126610265Y-110056265D01*
X126734479Y-109904909D01*
X126826779Y-109732228D01*
X126839589Y-109690000D01*
X126853307Y-109690000D01*
X126870000Y-109691644D01*
X126886693Y-109690000D01*
X126886701Y-109690000D01*
X126936652Y-109685080D01*
X127000742Y-109665639D01*
X127059808Y-109634067D01*
X127111579Y-109591579D01*
X127122230Y-109578602D01*
X129378618Y-107322215D01*
X129391579Y-107311578D01*
X129402217Y-107298616D01*
X129402226Y-107298607D01*
X129434068Y-107259807D01*
X129463705Y-107204361D01*
X129465640Y-107200741D01*
X129485081Y-107136651D01*
X129490001Y-107086700D01*
X129490001Y-107086691D01*
X129491645Y-107070000D01*
X129490001Y-107053309D01*
X129490001Y-106074668D01*
X129492469Y-106011299D01*
X129498036Y-105969677D01*
X129505233Y-105940941D01*
X129513883Y-105918354D01*
X129526017Y-105894739D01*
X129544536Y-105864695D01*
X129570447Y-105825802D01*
X129571272Y-105824557D01*
X129601536Y-105778512D01*
X129606497Y-105770635D01*
X129638135Y-105718174D01*
X129645099Y-105705814D01*
X129656895Y-105683351D01*
X129672852Y-105659470D01*
X129717328Y-105552097D01*
X129740001Y-105438110D01*
X129740001Y-105321890D01*
X129717328Y-105207903D01*
X129672852Y-105100530D01*
X129608284Y-105003897D01*
X129526104Y-104921717D01*
X129429471Y-104857149D01*
X129322098Y-104812673D01*
X129208111Y-104790000D01*
X129091891Y-104790000D01*
X128977904Y-104812673D01*
X128870531Y-104857149D01*
X128773898Y-104921717D01*
X128691718Y-105003897D01*
X128627150Y-105100530D01*
X128582674Y-105207903D01*
X128560001Y-105321890D01*
X128560001Y-105438110D01*
X128582674Y-105552097D01*
X128627150Y-105659470D01*
X128643106Y-105683350D01*
X128654901Y-105705811D01*
X128661866Y-105718174D01*
X128693504Y-105770635D01*
X128698465Y-105778512D01*
X128728729Y-105824557D01*
X128729554Y-105825802D01*
X128755465Y-105864695D01*
X128773984Y-105894739D01*
X128786118Y-105918354D01*
X128794768Y-105940941D01*
X128801965Y-105969677D01*
X128807532Y-106011299D01*
X128810002Y-106074688D01*
X128810001Y-106929166D01*
X126807488Y-108931681D01*
X126734479Y-108795091D01*
X126610265Y-108643735D01*
X126458909Y-108519521D01*
X126286228Y-108427221D01*
X126098858Y-108370383D01*
X125952826Y-108356000D01*
X124488737Y-108356000D01*
X124610265Y-108256265D01*
X124734479Y-108104909D01*
X124826779Y-107932228D01*
X124848689Y-107860000D01*
X126173307Y-107860000D01*
X126190000Y-107861644D01*
X126206693Y-107860000D01*
X126206701Y-107860000D01*
X126256652Y-107855080D01*
X126320742Y-107835639D01*
X126379808Y-107804067D01*
X126431579Y-107761579D01*
X126442230Y-107748601D01*
X127748607Y-106442225D01*
X127761579Y-106431579D01*
X127804067Y-106379808D01*
X127835639Y-106320742D01*
X127855080Y-106256652D01*
X127860000Y-106206701D01*
X127860000Y-106206694D01*
X127861644Y-106190001D01*
X127860000Y-106173308D01*
X127860000Y-101710831D01*
X131114531Y-98456300D01*
X132221939Y-98456300D01*
X132221939Y-101453500D01*
X132226573Y-101500548D01*
X132240296Y-101545788D01*
X132262582Y-101587482D01*
X132292573Y-101624027D01*
X132329118Y-101654018D01*
X132370812Y-101676304D01*
X132416052Y-101690027D01*
X132463100Y-101694661D01*
X133656900Y-101694661D01*
X133703948Y-101690027D01*
X133749188Y-101676304D01*
X133790882Y-101654018D01*
X133827427Y-101624027D01*
X133857418Y-101587482D01*
X133879704Y-101545788D01*
X133893427Y-101500548D01*
X133898061Y-101453500D01*
X133898061Y-100300000D01*
X133955332Y-100300000D01*
X134018700Y-100302468D01*
X134060322Y-100308035D01*
X134089058Y-100315232D01*
X134111645Y-100323882D01*
X134135260Y-100336016D01*
X134165304Y-100354535D01*
X134204197Y-100380446D01*
X134205442Y-100381271D01*
X134251487Y-100411535D01*
X134259364Y-100416496D01*
X134311825Y-100448134D01*
X134324187Y-100455099D01*
X134346651Y-100466896D01*
X134370530Y-100482851D01*
X134477903Y-100527327D01*
X134591890Y-100550000D01*
X134708110Y-100550000D01*
X134822097Y-100527327D01*
X134929470Y-100482851D01*
X135026103Y-100418283D01*
X135108283Y-100336103D01*
X135172851Y-100239470D01*
X135217327Y-100132097D01*
X135240000Y-100018110D01*
X135240000Y-99901890D01*
X135217327Y-99787903D01*
X135172851Y-99680530D01*
X135108283Y-99583897D01*
X135026103Y-99501717D01*
X134929470Y-99437149D01*
X134822097Y-99392673D01*
X134708110Y-99370000D01*
X134591890Y-99370000D01*
X134477903Y-99392673D01*
X134370530Y-99437149D01*
X134346655Y-99453102D01*
X134324189Y-99464899D01*
X134311825Y-99471865D01*
X134259364Y-99503503D01*
X134251487Y-99508464D01*
X134205442Y-99538728D01*
X134204197Y-99539553D01*
X134165304Y-99565464D01*
X134135260Y-99583983D01*
X134111645Y-99596117D01*
X134089058Y-99604767D01*
X134060322Y-99611964D01*
X134018700Y-99617531D01*
X133955327Y-99620000D01*
X133898061Y-99620000D01*
X133898061Y-98456300D01*
X133893427Y-98409252D01*
X133879704Y-98364012D01*
X133857418Y-98322318D01*
X133827427Y-98285773D01*
X133790882Y-98255782D01*
X133749188Y-98233496D01*
X133703948Y-98219773D01*
X133656900Y-98215139D01*
X132463100Y-98215139D01*
X132416052Y-98219773D01*
X132370812Y-98233496D01*
X132329118Y-98255782D01*
X132292573Y-98285773D01*
X132262582Y-98322318D01*
X132240296Y-98364012D01*
X132226573Y-98409252D01*
X132221939Y-98456300D01*
X131114531Y-98456300D01*
X132262313Y-97308519D01*
X132275280Y-97297878D01*
X132285921Y-97284912D01*
X132285926Y-97284907D01*
X132317768Y-97246107D01*
X132331723Y-97219999D01*
X132349340Y-97187041D01*
X132368781Y-97122951D01*
X132373701Y-97073000D01*
X132373701Y-97072993D01*
X132375345Y-97056300D01*
X132373701Y-97039607D01*
X132373701Y-94307130D01*
X134629295Y-92051537D01*
X134677359Y-92006962D01*
X134712358Y-91979971D01*
X134739465Y-91963406D01*
X134763224Y-91952433D01*
X134789926Y-91943358D01*
X134825390Y-91934195D01*
X134871929Y-91923821D01*
X134873565Y-91923451D01*
X134928068Y-91910901D01*
X134937051Y-91908649D01*
X134997147Y-91892346D01*
X135010481Y-91888310D01*
X135030406Y-91881642D01*
X135052097Y-91877327D01*
X135159470Y-91832851D01*
X135256103Y-91768283D01*
X135338283Y-91686103D01*
X135402851Y-91589470D01*
X135447327Y-91482097D01*
X135470000Y-91368110D01*
X135470000Y-91251890D01*
X135447327Y-91137903D01*
X135402851Y-91030530D01*
X135338283Y-90933897D01*
X135256103Y-90851717D01*
X135159470Y-90787149D01*
X135052097Y-90742673D01*
X134938110Y-90720000D01*
X134821890Y-90720000D01*
X134707903Y-90742673D01*
X134600530Y-90787149D01*
X134503897Y-90851717D01*
X134421717Y-90933897D01*
X134357149Y-91030530D01*
X134312673Y-91137903D01*
X134305931Y-91171796D01*
X134297126Y-91202093D01*
X134293748Y-91215058D01*
X134279886Y-91275068D01*
X134278141Y-91283269D01*
X134267563Y-91337663D01*
X134267462Y-91338188D01*
X134258674Y-91383923D01*
X134250801Y-91417712D01*
X134242825Y-91442640D01*
X134232986Y-91464641D01*
X134217605Y-91490211D01*
X134191823Y-91523865D01*
X134148393Y-91570776D01*
X131805095Y-93914074D01*
X131792122Y-93924721D01*
X131749634Y-93976492D01*
X131718062Y-94035558D01*
X131698621Y-94099648D01*
X131693701Y-94149599D01*
X131693701Y-94149606D01*
X131692057Y-94166299D01*
X131693701Y-94182992D01*
X131693702Y-96915465D01*
X127291394Y-101317775D01*
X127278421Y-101328422D01*
X127235933Y-101380193D01*
X127204361Y-101439259D01*
X127184920Y-101503349D01*
X127180000Y-101553300D01*
X127180000Y-101553307D01*
X127178356Y-101570000D01*
X127180000Y-101586693D01*
X127180001Y-106049167D01*
X126049169Y-107180000D01*
X124830488Y-107180000D01*
X124826779Y-107167772D01*
X124734479Y-106995091D01*
X124610265Y-106843735D01*
X124458909Y-106719521D01*
X124286228Y-106627221D01*
X124098858Y-106570383D01*
X123952826Y-106556000D01*
X122347174Y-106556000D01*
X122201142Y-106570383D01*
X122013772Y-106627221D01*
X121841091Y-106719521D01*
X121689735Y-106843735D01*
X121565521Y-106995091D01*
X121473221Y-107167772D01*
X121416383Y-107355142D01*
X121397191Y-107550000D01*
X121180000Y-107550000D01*
X121180000Y-104060121D01*
X121390121Y-103850000D01*
X123397191Y-103850000D01*
X123416383Y-104044858D01*
X123473221Y-104232228D01*
X123565521Y-104404909D01*
X123689735Y-104556265D01*
X123841091Y-104680479D01*
X124013772Y-104772779D01*
X124201142Y-104829617D01*
X124347174Y-104844000D01*
X125952826Y-104844000D01*
X126098858Y-104829617D01*
X126286228Y-104772779D01*
X126458909Y-104680479D01*
X126610265Y-104556265D01*
X126734479Y-104404909D01*
X126826779Y-104232228D01*
X126883617Y-104044858D01*
X126902809Y-103850000D01*
X126883617Y-103655142D01*
X126826779Y-103467772D01*
X126734479Y-103295091D01*
X126610265Y-103143735D01*
X126458909Y-103019521D01*
X126286228Y-102927221D01*
X126098858Y-102870383D01*
X125952826Y-102856000D01*
X124347174Y-102856000D01*
X124201142Y-102870383D01*
X124013772Y-102927221D01*
X123841091Y-103019521D01*
X123689735Y-103143735D01*
X123565521Y-103295091D01*
X123473221Y-103467772D01*
X123416383Y-103655142D01*
X123397191Y-103850000D01*
X121390121Y-103850000D01*
X129020121Y-96220000D01*
X130905755Y-96220000D01*
X130920000Y-96221403D01*
X130934245Y-96220000D01*
X130948400Y-96218606D01*
X130976850Y-96215804D01*
X131031515Y-96199221D01*
X131081895Y-96172293D01*
X131126053Y-96136053D01*
X131162293Y-96091895D01*
X131189221Y-96041515D01*
X131205804Y-95986850D01*
X131206154Y-95983299D01*
X131211403Y-95930000D01*
X131210000Y-95915755D01*
X131210000Y-88770000D01*
X150690000Y-88770000D01*
X150690001Y-95915744D01*
G04 #@! TA.AperFunction,Conductor*
D18*
G36*
X150690001Y-95915744D02*
G01*
X150688597Y-95930000D01*
X150694196Y-95986850D01*
X150710779Y-96041515D01*
X150737707Y-96091895D01*
X150773947Y-96136053D01*
X150818105Y-96172293D01*
X150868485Y-96199221D01*
X150923150Y-96215804D01*
X150965755Y-96220000D01*
X150980000Y-96221403D01*
X150994245Y-96220000D01*
X152879879Y-96220000D01*
X160720000Y-104060121D01*
X160720001Y-116440000D01*
X126314045Y-116440000D01*
X126351957Y-116426940D01*
X126533941Y-116320776D01*
X126691717Y-116181149D01*
X126819221Y-116013424D01*
X126911554Y-115824047D01*
X126957784Y-115657402D01*
X126897195Y-115490000D01*
X125190000Y-115490000D01*
X125190000Y-115510000D01*
X125110000Y-115510000D01*
X125110000Y-115490000D01*
X123402805Y-115490000D01*
X123342216Y-115657402D01*
X123388446Y-115824047D01*
X123480779Y-116013424D01*
X123608283Y-116181149D01*
X123766059Y-116320776D01*
X123948043Y-116426940D01*
X123985955Y-116440000D01*
X121180000Y-116440000D01*
X121180000Y-115242598D01*
X123342216Y-115242598D01*
X123402805Y-115410000D01*
X125110000Y-115410000D01*
X125110000Y-114376000D01*
X125190000Y-114376000D01*
X125190000Y-115410000D01*
X126897195Y-115410000D01*
X126957784Y-115242598D01*
X126911554Y-115075953D01*
X126819221Y-114886576D01*
X126691717Y-114718851D01*
X126533941Y-114579224D01*
X126351957Y-114473060D01*
X126152758Y-114404440D01*
X125944000Y-114376000D01*
X125190000Y-114376000D01*
X125110000Y-114376000D01*
X124356000Y-114376000D01*
X124147242Y-114404440D01*
X123948043Y-114473060D01*
X123766059Y-114579224D01*
X123608283Y-114718851D01*
X123480779Y-114886576D01*
X123388446Y-115075953D01*
X123342216Y-115242598D01*
X121180000Y-115242598D01*
X121180000Y-113050000D01*
X121397191Y-113050000D01*
X121416383Y-113244858D01*
X121473221Y-113432228D01*
X121565521Y-113604909D01*
X121689735Y-113756265D01*
X121841091Y-113880479D01*
X122013772Y-113972779D01*
X122201142Y-114029617D01*
X122347174Y-114044000D01*
X123952826Y-114044000D01*
X124098858Y-114029617D01*
X124286228Y-113972779D01*
X124458909Y-113880479D01*
X124610265Y-113756265D01*
X124734479Y-113604909D01*
X124826779Y-113432228D01*
X124830488Y-113420000D01*
X125663307Y-113420000D01*
X125680000Y-113421644D01*
X125696693Y-113420000D01*
X125696701Y-113420000D01*
X125746652Y-113415080D01*
X125810742Y-113395639D01*
X125869808Y-113364067D01*
X125921579Y-113321579D01*
X125932230Y-113308601D01*
X126017490Y-113223341D01*
X131503228Y-113223341D01*
X131732809Y-113516065D01*
X132136595Y-113743639D01*
X132577019Y-113888066D01*
X133037158Y-113943794D01*
X133499327Y-113908684D01*
X133945766Y-113784083D01*
X134359318Y-113574780D01*
X134447191Y-113516065D01*
X134676772Y-113223341D01*
X133090000Y-111636569D01*
X131503228Y-113223341D01*
X126017490Y-113223341D01*
X127713673Y-111527158D01*
X130726206Y-111527158D01*
X130761316Y-111989327D01*
X130885917Y-112435766D01*
X131095220Y-112849318D01*
X131153935Y-112937191D01*
X131446659Y-113166772D01*
X133033431Y-111580000D01*
X133146569Y-111580000D01*
X134733341Y-113166772D01*
X135026065Y-112937191D01*
X135253639Y-112533405D01*
X135398066Y-112092981D01*
X135453794Y-111632842D01*
X135418684Y-111170673D01*
X135294083Y-110724234D01*
X135084780Y-110310682D01*
X135026065Y-110222809D01*
X134733341Y-109993228D01*
X133146569Y-111580000D01*
X133033431Y-111580000D01*
X131446659Y-109993228D01*
X131153935Y-110222809D01*
X130926361Y-110626595D01*
X130781934Y-111067019D01*
X130726206Y-111527158D01*
X127713673Y-111527158D01*
X129304172Y-109936659D01*
X131503228Y-109936659D01*
X133090000Y-111523431D01*
X134676772Y-109936659D01*
X134447191Y-109643935D01*
X134043405Y-109416361D01*
X133602981Y-109271934D01*
X133142842Y-109216206D01*
X132680673Y-109251316D01*
X132234234Y-109375917D01*
X131820682Y-109585220D01*
X131732809Y-109643935D01*
X131503228Y-109936659D01*
X129304172Y-109936659D01*
X130998607Y-108242225D01*
X131011579Y-108231579D01*
X131054067Y-108179808D01*
X131085639Y-108120742D01*
X131105080Y-108056652D01*
X131110000Y-108006701D01*
X131110000Y-108006694D01*
X131111644Y-107990001D01*
X131110000Y-107973308D01*
X131110000Y-104170831D01*
X131414331Y-103866500D01*
X132221939Y-103866500D01*
X132221939Y-106863700D01*
X132226573Y-106910748D01*
X132240296Y-106955988D01*
X132262582Y-106997682D01*
X132292573Y-107034227D01*
X132329118Y-107064218D01*
X132370812Y-107086504D01*
X132416052Y-107100227D01*
X132463100Y-107104861D01*
X133656900Y-107104861D01*
X133703948Y-107100227D01*
X133749188Y-107086504D01*
X133790882Y-107064218D01*
X133827427Y-107034227D01*
X133857418Y-106997682D01*
X133879704Y-106955988D01*
X133893427Y-106910748D01*
X133898061Y-106863700D01*
X133898061Y-103866500D01*
X133893427Y-103819452D01*
X133879704Y-103774212D01*
X133857418Y-103732518D01*
X133827427Y-103695973D01*
X133790882Y-103665982D01*
X133749188Y-103643696D01*
X133703948Y-103629973D01*
X133656900Y-103625339D01*
X132463100Y-103625339D01*
X132416052Y-103629973D01*
X132370812Y-103643696D01*
X132329118Y-103665982D01*
X132292573Y-103695973D01*
X132262582Y-103732518D01*
X132240296Y-103774212D01*
X132226573Y-103819452D01*
X132221939Y-103866500D01*
X131414331Y-103866500D01*
X132340833Y-102940000D01*
X134963307Y-102940000D01*
X134980000Y-102941644D01*
X134996693Y-102940000D01*
X134996701Y-102940000D01*
X135046652Y-102935080D01*
X135110742Y-102915639D01*
X135169808Y-102884067D01*
X135221579Y-102841579D01*
X135232230Y-102828602D01*
X136298607Y-101762225D01*
X136311579Y-101751579D01*
X136354067Y-101699808D01*
X136385639Y-101640742D01*
X136405080Y-101576652D01*
X136410000Y-101526701D01*
X136410000Y-101526693D01*
X136411644Y-101510000D01*
X136410000Y-101493307D01*
X136410000Y-99116692D01*
X136411644Y-99099999D01*
X136410000Y-99083306D01*
X136410000Y-99083299D01*
X136405080Y-99033348D01*
X136385639Y-98969258D01*
X136354067Y-98910192D01*
X136352559Y-98908355D01*
X136322225Y-98871392D01*
X136322216Y-98871383D01*
X136311578Y-98858421D01*
X136298617Y-98847784D01*
X135210000Y-97759169D01*
X135210000Y-96981161D01*
X135255000Y-96981161D01*
X135375207Y-96969322D01*
X135490795Y-96934259D01*
X135597321Y-96877319D01*
X135690692Y-96800692D01*
X135750001Y-96728423D01*
X135750001Y-97103297D01*
X135748356Y-97120000D01*
X135754920Y-97186651D01*
X135774361Y-97250741D01*
X135797370Y-97293787D01*
X135805934Y-97309808D01*
X135848422Y-97361579D01*
X135861394Y-97372225D01*
X137880000Y-99390832D01*
X137880001Y-107809167D01*
X136021394Y-109667775D01*
X136008421Y-109678422D01*
X135965933Y-109730193D01*
X135934361Y-109789259D01*
X135914920Y-109853349D01*
X135910000Y-109903300D01*
X135910000Y-109903307D01*
X135908356Y-109920000D01*
X135910000Y-109936693D01*
X135910001Y-113993297D01*
X135908356Y-114010000D01*
X135914920Y-114076651D01*
X135934361Y-114140741D01*
X135934362Y-114140742D01*
X135965934Y-114199808D01*
X136008422Y-114251579D01*
X136021394Y-114262225D01*
X137327775Y-115568607D01*
X137338421Y-115581579D01*
X137390192Y-115624067D01*
X137449258Y-115655639D01*
X137513348Y-115675080D01*
X137563299Y-115680000D01*
X137563306Y-115680000D01*
X137579999Y-115681644D01*
X137596692Y-115680000D01*
X144053307Y-115680000D01*
X144070000Y-115681644D01*
X144086693Y-115680000D01*
X144086701Y-115680000D01*
X144136652Y-115675080D01*
X144200742Y-115655639D01*
X144259808Y-115624067D01*
X144311579Y-115581579D01*
X144322229Y-115568602D01*
X144668611Y-115222221D01*
X144681578Y-115211579D01*
X144692221Y-115198611D01*
X144692225Y-115198607D01*
X144724067Y-115159808D01*
X144755639Y-115100742D01*
X144775080Y-115036652D01*
X144775080Y-115036651D01*
X144780000Y-114986701D01*
X144780000Y-114986694D01*
X144781644Y-114970001D01*
X144780000Y-114953308D01*
X144780000Y-114296492D01*
X144890166Y-114406658D01*
X144891009Y-114407221D01*
X144935083Y-114451135D01*
X144935763Y-114451810D01*
X145038724Y-114553581D01*
X145039409Y-114554256D01*
X145129621Y-114642713D01*
X145130184Y-114643263D01*
X145212452Y-114723403D01*
X145212755Y-114723698D01*
X145291834Y-114800461D01*
X145372459Y-114878774D01*
X145459440Y-114963634D01*
X145557237Y-115059691D01*
X145671159Y-115172431D01*
X145806549Y-115307382D01*
X146087779Y-115588612D01*
X146098421Y-115601579D01*
X146111387Y-115612220D01*
X146111392Y-115612225D01*
X146125822Y-115624067D01*
X146150192Y-115644067D01*
X146209258Y-115675639D01*
X146273348Y-115695080D01*
X146323299Y-115700000D01*
X146323306Y-115700000D01*
X146339999Y-115701644D01*
X146356692Y-115700000D01*
X152613307Y-115700000D01*
X152630000Y-115701644D01*
X152646693Y-115700000D01*
X152646701Y-115700000D01*
X152696652Y-115695080D01*
X152760742Y-115675639D01*
X152819808Y-115644067D01*
X152871579Y-115601579D01*
X152882230Y-115588601D01*
X154118607Y-114352225D01*
X154131579Y-114341579D01*
X154174067Y-114289808D01*
X154205639Y-114230742D01*
X154225080Y-114166652D01*
X154230000Y-114116701D01*
X154230000Y-114116694D01*
X154231644Y-114100001D01*
X154230000Y-114083308D01*
X154230000Y-113223341D01*
X156493228Y-113223341D01*
X156722809Y-113516065D01*
X157126595Y-113743639D01*
X157567019Y-113888066D01*
X158027158Y-113943794D01*
X158489327Y-113908684D01*
X158935766Y-113784083D01*
X159349318Y-113574780D01*
X159437191Y-113516065D01*
X159666772Y-113223341D01*
X158080000Y-111636569D01*
X156493228Y-113223341D01*
X154230000Y-113223341D01*
X154230000Y-111527158D01*
X155716206Y-111527158D01*
X155751316Y-111989327D01*
X155875917Y-112435766D01*
X156085220Y-112849318D01*
X156143935Y-112937191D01*
X156436659Y-113166772D01*
X158023431Y-111580000D01*
X158136569Y-111580000D01*
X159723341Y-113166772D01*
X160016065Y-112937191D01*
X160243639Y-112533405D01*
X160388066Y-112092981D01*
X160443794Y-111632842D01*
X160408684Y-111170673D01*
X160284083Y-110724234D01*
X160074780Y-110310682D01*
X160016065Y-110222809D01*
X159723341Y-109993228D01*
X158136569Y-111580000D01*
X158023431Y-111580000D01*
X156436659Y-109993228D01*
X156143935Y-110222809D01*
X155916361Y-110626595D01*
X155771934Y-111067019D01*
X155716206Y-111527158D01*
X154230000Y-111527158D01*
X154230000Y-109936659D01*
X156493228Y-109936659D01*
X158080000Y-111523431D01*
X159666772Y-109936659D01*
X159437191Y-109643935D01*
X159033405Y-109416361D01*
X158592981Y-109271934D01*
X158132842Y-109216206D01*
X157670673Y-109251316D01*
X157224234Y-109375917D01*
X156810682Y-109585220D01*
X156722809Y-109643935D01*
X156493228Y-109936659D01*
X154230000Y-109936659D01*
X154230000Y-109676690D01*
X154231644Y-109659999D01*
X154230000Y-109643308D01*
X154230000Y-109643299D01*
X154225080Y-109593348D01*
X154205639Y-109529258D01*
X154174067Y-109470192D01*
X154142225Y-109431392D01*
X154142216Y-109431383D01*
X154131578Y-109418421D01*
X154118617Y-109407784D01*
X151990000Y-107279169D01*
X151990000Y-103861400D01*
X153041939Y-103861400D01*
X153041939Y-106858600D01*
X153046573Y-106905648D01*
X153060296Y-106950888D01*
X153082582Y-106992582D01*
X153112573Y-107029127D01*
X153149118Y-107059118D01*
X153190812Y-107081404D01*
X153236052Y-107095127D01*
X153283100Y-107099761D01*
X154476900Y-107099761D01*
X154523948Y-107095127D01*
X154569188Y-107081404D01*
X154610882Y-107059118D01*
X154647427Y-107029127D01*
X154677418Y-106992582D01*
X154699704Y-106950888D01*
X154713427Y-106905648D01*
X154718061Y-106858600D01*
X154718061Y-103861400D01*
X154713427Y-103814352D01*
X154699704Y-103769112D01*
X154677418Y-103727418D01*
X154647427Y-103690873D01*
X154610882Y-103660882D01*
X154569188Y-103638596D01*
X154523948Y-103624873D01*
X154476900Y-103620239D01*
X153283100Y-103620239D01*
X153236052Y-103624873D01*
X153190812Y-103638596D01*
X153149118Y-103660882D01*
X153112573Y-103690873D01*
X153082582Y-103727418D01*
X153060296Y-103769112D01*
X153046573Y-103814352D01*
X153041939Y-103861400D01*
X151990000Y-103861400D01*
X151990000Y-100066692D01*
X151991644Y-100049999D01*
X151990000Y-100033306D01*
X151990000Y-100033299D01*
X151985080Y-99983348D01*
X151965639Y-99919258D01*
X151934067Y-99860192D01*
X151928450Y-99853348D01*
X151902225Y-99821392D01*
X151902216Y-99821383D01*
X151891578Y-99808421D01*
X151878617Y-99797784D01*
X150221648Y-98140816D01*
X150178556Y-98094230D01*
X150153061Y-98060863D01*
X150137835Y-98035461D01*
X150127978Y-98013370D01*
X150119860Y-97988093D01*
X150111704Y-97953731D01*
X150102530Y-97907932D01*
X150102232Y-97906465D01*
X150091073Y-97852506D01*
X150089011Y-97843429D01*
X150074287Y-97783962D01*
X150070471Y-97770296D01*
X150062933Y-97746085D01*
X150057327Y-97717903D01*
X150012851Y-97610530D01*
X149948283Y-97513897D01*
X149866103Y-97431717D01*
X149769470Y-97367149D01*
X149662097Y-97322673D01*
X149548110Y-97300000D01*
X149431890Y-97300000D01*
X149317903Y-97322673D01*
X149210530Y-97367149D01*
X149113897Y-97431717D01*
X149031717Y-97513897D01*
X148967149Y-97610530D01*
X148922673Y-97717903D01*
X148900000Y-97831890D01*
X148900000Y-97948110D01*
X148922673Y-98062097D01*
X148967149Y-98169470D01*
X149031717Y-98266103D01*
X149113897Y-98348283D01*
X149210530Y-98412851D01*
X149317903Y-98457327D01*
X149346085Y-98462933D01*
X149370296Y-98470471D01*
X149383962Y-98474287D01*
X149443429Y-98489011D01*
X149452506Y-98491073D01*
X149506465Y-98502232D01*
X149507932Y-98502530D01*
X149553731Y-98511704D01*
X149588093Y-98519860D01*
X149613370Y-98527978D01*
X149635461Y-98537835D01*
X149660863Y-98553061D01*
X149694230Y-98578556D01*
X149740816Y-98621648D01*
X151310000Y-100190833D01*
X151310001Y-107403297D01*
X151308356Y-107420000D01*
X151314920Y-107486651D01*
X151334361Y-107550741D01*
X151365933Y-107609807D01*
X151365934Y-107609808D01*
X151408422Y-107661579D01*
X151421394Y-107672225D01*
X153550000Y-109800833D01*
X153550001Y-113959167D01*
X152489169Y-115020000D01*
X146480833Y-115020000D01*
X146294903Y-114834070D01*
X146227828Y-114753400D01*
X146205052Y-114706771D01*
X146200390Y-114677146D01*
X146205378Y-114641612D01*
X146226873Y-114585696D01*
X146269636Y-114509259D01*
X146331160Y-114415819D01*
X146403626Y-114309738D01*
X146407353Y-114304113D01*
X146481292Y-114189059D01*
X146489648Y-114175029D01*
X146511448Y-114135420D01*
X146550945Y-114076309D01*
X146633112Y-113877941D01*
X146675000Y-113667356D01*
X146675000Y-113452644D01*
X146785000Y-113452644D01*
X146785000Y-113667356D01*
X146826888Y-113877941D01*
X146909055Y-114076309D01*
X147028342Y-114254834D01*
X147180166Y-114406658D01*
X147358691Y-114525945D01*
X147557059Y-114608112D01*
X147767644Y-114650000D01*
X147982356Y-114650000D01*
X148192941Y-114608112D01*
X148391309Y-114525945D01*
X148569834Y-114406658D01*
X148721658Y-114254834D01*
X148840945Y-114076309D01*
X148923112Y-113877941D01*
X148965000Y-113667356D01*
X148965000Y-113452644D01*
X149075000Y-113452644D01*
X149075000Y-113667356D01*
X149116888Y-113877941D01*
X149199055Y-114076309D01*
X149318342Y-114254834D01*
X149470166Y-114406658D01*
X149648691Y-114525945D01*
X149847059Y-114608112D01*
X150057644Y-114650000D01*
X150272356Y-114650000D01*
X150482941Y-114608112D01*
X150681309Y-114525945D01*
X150859834Y-114406658D01*
X151011658Y-114254834D01*
X151130945Y-114076309D01*
X151213112Y-113877941D01*
X151255000Y-113667356D01*
X151255000Y-113452644D01*
X151213112Y-113242059D01*
X151130945Y-113043691D01*
X151011658Y-112865166D01*
X150859834Y-112713342D01*
X150681309Y-112594055D01*
X150482941Y-112511888D01*
X150272356Y-112470000D01*
X150057644Y-112470000D01*
X149847059Y-112511888D01*
X149648691Y-112594055D01*
X149470166Y-112713342D01*
X149318342Y-112865166D01*
X149199055Y-113043691D01*
X149116888Y-113242059D01*
X149075000Y-113452644D01*
X148965000Y-113452644D01*
X148923112Y-113242059D01*
X148840945Y-113043691D01*
X148721658Y-112865166D01*
X148569834Y-112713342D01*
X148391309Y-112594055D01*
X148192941Y-112511888D01*
X147982356Y-112470000D01*
X147767644Y-112470000D01*
X147557059Y-112511888D01*
X147358691Y-112594055D01*
X147180166Y-112713342D01*
X147028342Y-112865166D01*
X146909055Y-113043691D01*
X146826888Y-113242059D01*
X146785000Y-113452644D01*
X146675000Y-113452644D01*
X146633112Y-113242059D01*
X146550945Y-113043691D01*
X146431658Y-112865166D01*
X146279834Y-112713342D01*
X146101309Y-112594055D01*
X145902941Y-112511888D01*
X145692356Y-112470000D01*
X145477644Y-112470000D01*
X145267059Y-112511888D01*
X145068691Y-112594055D01*
X145022120Y-112625172D01*
X145029828Y-112615938D01*
X145116437Y-112515494D01*
X145122098Y-112508678D01*
X145212952Y-112395090D01*
X145222251Y-112382517D01*
X145984051Y-112382517D01*
X146071725Y-112554091D01*
X146274408Y-112663797D01*
X146494601Y-112731854D01*
X146723839Y-112755645D01*
X146953314Y-112734257D01*
X147174207Y-112668512D01*
X147378030Y-112560936D01*
X147388275Y-112554091D01*
X147475949Y-112382517D01*
X148274051Y-112382517D01*
X148361725Y-112554091D01*
X148564408Y-112663797D01*
X148784601Y-112731854D01*
X149013839Y-112755645D01*
X149243314Y-112734257D01*
X149464207Y-112668512D01*
X149668030Y-112560936D01*
X149678275Y-112554091D01*
X149765949Y-112382517D01*
X150564051Y-112382517D01*
X150651725Y-112554091D01*
X150854408Y-112663797D01*
X151074601Y-112731854D01*
X151303839Y-112755645D01*
X151533314Y-112734257D01*
X151754207Y-112668512D01*
X151958030Y-112560936D01*
X151968275Y-112554091D01*
X152055949Y-112382517D01*
X151310000Y-111636569D01*
X150564051Y-112382517D01*
X149765949Y-112382517D01*
X149020000Y-111636569D01*
X148274051Y-112382517D01*
X147475949Y-112382517D01*
X146730000Y-111636569D01*
X145984051Y-112382517D01*
X145222251Y-112382517D01*
X145223757Y-112380481D01*
X145314801Y-112247094D01*
X145327021Y-112227171D01*
X145365950Y-112156166D01*
X145405945Y-112096309D01*
X145488112Y-111897941D01*
X145530000Y-111687356D01*
X145530000Y-111573839D01*
X145554355Y-111573839D01*
X145575743Y-111803314D01*
X145641488Y-112024207D01*
X145749064Y-112228030D01*
X145755909Y-112238275D01*
X145927483Y-112325949D01*
X146673431Y-111580000D01*
X146786569Y-111580000D01*
X147532517Y-112325949D01*
X147704091Y-112238275D01*
X147813797Y-112035592D01*
X147875479Y-111836025D01*
X147931488Y-112024207D01*
X148039064Y-112228030D01*
X148045909Y-112238275D01*
X148217483Y-112325949D01*
X148963431Y-111580000D01*
X149076569Y-111580000D01*
X149822517Y-112325949D01*
X149994091Y-112238275D01*
X150103797Y-112035592D01*
X150165479Y-111836025D01*
X150221488Y-112024207D01*
X150329064Y-112228030D01*
X150335909Y-112238275D01*
X150507483Y-112325949D01*
X151253431Y-111580000D01*
X151366569Y-111580000D01*
X152112517Y-112325949D01*
X152284091Y-112238275D01*
X152393797Y-112035592D01*
X152461854Y-111815399D01*
X152485645Y-111586161D01*
X152464257Y-111356686D01*
X152398512Y-111135793D01*
X152290936Y-110931970D01*
X152284091Y-110921725D01*
X152112517Y-110834051D01*
X151366569Y-111580000D01*
X151253431Y-111580000D01*
X150507483Y-110834051D01*
X150335909Y-110921725D01*
X150226203Y-111124408D01*
X150164521Y-111323975D01*
X150108512Y-111135793D01*
X150000936Y-110931970D01*
X149994091Y-110921725D01*
X149822517Y-110834051D01*
X149076569Y-111580000D01*
X148963431Y-111580000D01*
X148217483Y-110834051D01*
X148045909Y-110921725D01*
X147936203Y-111124408D01*
X147874521Y-111323975D01*
X147818512Y-111135793D01*
X147710936Y-110931970D01*
X147704091Y-110921725D01*
X147532517Y-110834051D01*
X146786569Y-111580000D01*
X146673431Y-111580000D01*
X145927483Y-110834051D01*
X145755909Y-110921725D01*
X145646203Y-111124408D01*
X145578146Y-111344601D01*
X145554355Y-111573839D01*
X145530000Y-111573839D01*
X145530000Y-111472644D01*
X145488112Y-111262059D01*
X145405945Y-111063691D01*
X145286658Y-110885166D01*
X145178975Y-110777483D01*
X145984051Y-110777483D01*
X146730000Y-111523431D01*
X147475949Y-110777483D01*
X148274051Y-110777483D01*
X149020000Y-111523431D01*
X149765949Y-110777483D01*
X149721839Y-110691161D01*
X150608161Y-110691161D01*
X150564051Y-110777483D01*
X151310000Y-111523431D01*
X152055949Y-110777483D01*
X151968275Y-110605909D01*
X151765592Y-110496203D01*
X151545399Y-110428146D01*
X151316161Y-110404355D01*
X151256161Y-110409947D01*
X151256161Y-108750000D01*
X151251527Y-108702952D01*
X151237804Y-108657712D01*
X151215518Y-108616018D01*
X151185527Y-108579473D01*
X151148982Y-108549482D01*
X151107288Y-108527196D01*
X151062048Y-108513473D01*
X151015000Y-108508839D01*
X149315000Y-108508839D01*
X149267952Y-108513473D01*
X149222712Y-108527196D01*
X149181018Y-108549482D01*
X149144473Y-108579473D01*
X149114482Y-108616018D01*
X149092196Y-108657712D01*
X149078473Y-108702952D01*
X149073839Y-108750000D01*
X149073839Y-110409303D01*
X149026161Y-110404355D01*
X148796686Y-110425743D01*
X148575793Y-110491488D01*
X148371970Y-110599064D01*
X148361725Y-110605909D01*
X148274051Y-110777483D01*
X147475949Y-110777483D01*
X147388275Y-110605909D01*
X147185592Y-110496203D01*
X146965399Y-110428146D01*
X146736161Y-110404355D01*
X146506686Y-110425743D01*
X146285793Y-110491488D01*
X146081970Y-110599064D01*
X146071725Y-110605909D01*
X145984051Y-110777483D01*
X145178975Y-110777483D01*
X145134834Y-110733342D01*
X144956309Y-110614055D01*
X144757941Y-110531888D01*
X144547356Y-110490000D01*
X144332644Y-110490000D01*
X144122059Y-110531888D01*
X143923691Y-110614055D01*
X143745166Y-110733342D01*
X143593342Y-110885166D01*
X143474055Y-111063691D01*
X143391888Y-111262059D01*
X143350000Y-111472644D01*
X143350000Y-111687356D01*
X143391888Y-111897941D01*
X143474055Y-112096309D01*
X143514050Y-112156166D01*
X143552978Y-112227170D01*
X143565198Y-112247094D01*
X143656242Y-112380481D01*
X143667047Y-112395090D01*
X143757901Y-112508678D01*
X143763562Y-112515494D01*
X143850171Y-112615938D01*
X143857878Y-112625172D01*
X143811309Y-112594055D01*
X143612941Y-112511888D01*
X143402356Y-112470000D01*
X143187644Y-112470000D01*
X142977059Y-112511888D01*
X142778691Y-112594055D01*
X142600166Y-112713342D01*
X142448342Y-112865166D01*
X142329055Y-113043691D01*
X142246888Y-113242059D01*
X142205000Y-113452644D01*
X142205000Y-113667356D01*
X142246888Y-113877941D01*
X142329055Y-114076309D01*
X142448342Y-114254834D01*
X142600166Y-114406658D01*
X142778691Y-114525945D01*
X142977059Y-114608112D01*
X143187644Y-114650000D01*
X143402356Y-114650000D01*
X143612941Y-114608112D01*
X143811309Y-114525945D01*
X143989834Y-114406658D01*
X144100000Y-114296492D01*
X144100000Y-114829168D01*
X143929169Y-115000000D01*
X137720832Y-115000000D01*
X136590000Y-113869169D01*
X136590000Y-113452644D01*
X139915000Y-113452644D01*
X139915000Y-113667356D01*
X139956888Y-113877941D01*
X140039055Y-114076309D01*
X140158342Y-114254834D01*
X140310166Y-114406658D01*
X140488691Y-114525945D01*
X140687059Y-114608112D01*
X140897644Y-114650000D01*
X141112356Y-114650000D01*
X141322941Y-114608112D01*
X141521309Y-114525945D01*
X141699834Y-114406658D01*
X141851658Y-114254834D01*
X141970945Y-114076309D01*
X142053112Y-113877941D01*
X142095000Y-113667356D01*
X142095000Y-113452644D01*
X142053112Y-113242059D01*
X141970945Y-113043691D01*
X141851658Y-112865166D01*
X141699834Y-112713342D01*
X141521309Y-112594055D01*
X141322941Y-112511888D01*
X141112356Y-112470000D01*
X140897644Y-112470000D01*
X140687059Y-112511888D01*
X140488691Y-112594055D01*
X140310166Y-112713342D01*
X140158342Y-112865166D01*
X140039055Y-113043691D01*
X139956888Y-113242059D01*
X139915000Y-113452644D01*
X136590000Y-113452644D01*
X136590000Y-112382517D01*
X141404051Y-112382517D01*
X141491725Y-112554091D01*
X141694408Y-112663797D01*
X141914601Y-112731854D01*
X142143839Y-112755645D01*
X142373314Y-112734257D01*
X142594207Y-112668512D01*
X142798030Y-112560936D01*
X142808275Y-112554091D01*
X142895949Y-112382517D01*
X142150000Y-111636569D01*
X141404051Y-112382517D01*
X136590000Y-112382517D01*
X136590000Y-111573839D01*
X140974355Y-111573839D01*
X140995743Y-111803314D01*
X141061488Y-112024207D01*
X141169064Y-112228030D01*
X141175909Y-112238275D01*
X141347483Y-112325949D01*
X142093431Y-111580000D01*
X142206569Y-111580000D01*
X142952517Y-112325949D01*
X143124091Y-112238275D01*
X143233797Y-112035592D01*
X143301854Y-111815399D01*
X143325645Y-111586161D01*
X143304257Y-111356686D01*
X143238512Y-111135793D01*
X143130936Y-110931970D01*
X143124091Y-110921725D01*
X142952517Y-110834051D01*
X142206569Y-111580000D01*
X142093431Y-111580000D01*
X141347483Y-110834051D01*
X141175909Y-110921725D01*
X141066203Y-111124408D01*
X140998146Y-111344601D01*
X140974355Y-111573839D01*
X136590000Y-111573839D01*
X136590000Y-110402517D01*
X140259051Y-110402517D01*
X140346725Y-110574091D01*
X140549408Y-110683797D01*
X140769601Y-110751854D01*
X140998839Y-110775645D01*
X141228314Y-110754257D01*
X141449207Y-110688512D01*
X141449629Y-110688289D01*
X141404051Y-110777483D01*
X142150000Y-111523431D01*
X142895949Y-110777483D01*
X142808275Y-110605909D01*
X142605592Y-110496203D01*
X142385399Y-110428146D01*
X142156161Y-110404355D01*
X141926686Y-110425743D01*
X141705793Y-110491488D01*
X141705371Y-110491711D01*
X141750949Y-110402517D01*
X141005000Y-109656569D01*
X140259051Y-110402517D01*
X136590000Y-110402517D01*
X136590000Y-110060831D01*
X137056992Y-109593839D01*
X139829355Y-109593839D01*
X139850743Y-109823314D01*
X139916488Y-110044207D01*
X140024064Y-110248030D01*
X140030909Y-110258275D01*
X140202483Y-110345949D01*
X140948431Y-109600000D01*
X141061569Y-109600000D01*
X141807517Y-110345949D01*
X141979091Y-110258275D01*
X142088797Y-110055592D01*
X142156854Y-109835399D01*
X142180645Y-109606161D01*
X142170065Y-109492644D01*
X142205000Y-109492644D01*
X142205000Y-109707356D01*
X142246888Y-109917941D01*
X142329055Y-110116309D01*
X142448342Y-110294834D01*
X142600166Y-110446658D01*
X142778691Y-110565945D01*
X142977059Y-110648112D01*
X143187644Y-110690000D01*
X143402356Y-110690000D01*
X143612941Y-110648112D01*
X143811309Y-110565945D01*
X143989834Y-110446658D01*
X144141658Y-110294834D01*
X144260945Y-110116309D01*
X144343112Y-109917941D01*
X144385000Y-109707356D01*
X144385000Y-109492644D01*
X144495000Y-109492644D01*
X144495000Y-109707356D01*
X144536888Y-109917941D01*
X144619055Y-110116309D01*
X144738342Y-110294834D01*
X144890166Y-110446658D01*
X145068691Y-110565945D01*
X145267059Y-110648112D01*
X145477644Y-110690000D01*
X145692356Y-110690000D01*
X145902941Y-110648112D01*
X146101309Y-110565945D01*
X146279834Y-110446658D01*
X146431658Y-110294834D01*
X146550945Y-110116309D01*
X146633112Y-109917941D01*
X146675000Y-109707356D01*
X146675000Y-109492644D01*
X146785000Y-109492644D01*
X146785000Y-109707356D01*
X146826888Y-109917941D01*
X146909055Y-110116309D01*
X147028342Y-110294834D01*
X147180166Y-110446658D01*
X147358691Y-110565945D01*
X147557059Y-110648112D01*
X147767644Y-110690000D01*
X147982356Y-110690000D01*
X148192941Y-110648112D01*
X148391309Y-110565945D01*
X148569834Y-110446658D01*
X148721658Y-110294834D01*
X148840945Y-110116309D01*
X148923112Y-109917941D01*
X148965000Y-109707356D01*
X148965000Y-109492644D01*
X148923112Y-109282059D01*
X148840945Y-109083691D01*
X148721658Y-108905166D01*
X148569834Y-108753342D01*
X148391309Y-108634055D01*
X148192941Y-108551888D01*
X147982356Y-108510000D01*
X147767644Y-108510000D01*
X147557059Y-108551888D01*
X147358691Y-108634055D01*
X147180166Y-108753342D01*
X147028342Y-108905166D01*
X146909055Y-109083691D01*
X146826888Y-109282059D01*
X146785000Y-109492644D01*
X146675000Y-109492644D01*
X146633112Y-109282059D01*
X146550945Y-109083691D01*
X146431658Y-108905166D01*
X146279834Y-108753342D01*
X146101309Y-108634055D01*
X145902941Y-108551888D01*
X145692356Y-108510000D01*
X145477644Y-108510000D01*
X145267059Y-108551888D01*
X145068691Y-108634055D01*
X144890166Y-108753342D01*
X144738342Y-108905166D01*
X144619055Y-109083691D01*
X144536888Y-109282059D01*
X144495000Y-109492644D01*
X144385000Y-109492644D01*
X144343112Y-109282059D01*
X144260945Y-109083691D01*
X144141658Y-108905166D01*
X143989834Y-108753342D01*
X143811309Y-108634055D01*
X143612941Y-108551888D01*
X143402356Y-108510000D01*
X143187644Y-108510000D01*
X142977059Y-108551888D01*
X142778691Y-108634055D01*
X142600166Y-108753342D01*
X142448342Y-108905166D01*
X142329055Y-109083691D01*
X142246888Y-109282059D01*
X142205000Y-109492644D01*
X142170065Y-109492644D01*
X142159257Y-109376686D01*
X142093512Y-109155793D01*
X141985936Y-108951970D01*
X141979091Y-108941725D01*
X141807517Y-108854051D01*
X141061569Y-109600000D01*
X140948431Y-109600000D01*
X140202483Y-108854051D01*
X140030909Y-108941725D01*
X139921203Y-109144408D01*
X139853146Y-109364601D01*
X139829355Y-109593839D01*
X137056992Y-109593839D01*
X137853348Y-108797483D01*
X140259051Y-108797483D01*
X141005000Y-109543431D01*
X141750949Y-108797483D01*
X141663275Y-108625909D01*
X141460592Y-108516203D01*
X141240399Y-108448146D01*
X141011161Y-108424355D01*
X140781686Y-108445743D01*
X140560793Y-108511488D01*
X140356970Y-108619064D01*
X140346725Y-108625909D01*
X140259051Y-108797483D01*
X137853348Y-108797483D01*
X138448607Y-108202225D01*
X138461579Y-108191579D01*
X138504067Y-108139808D01*
X138535639Y-108080742D01*
X138555080Y-108016652D01*
X138560000Y-107966701D01*
X138560000Y-107966693D01*
X138561644Y-107950000D01*
X138560000Y-107933307D01*
X138560000Y-103032589D01*
X139138716Y-103032589D01*
X139138716Y-103387411D01*
X139207938Y-103735415D01*
X139343723Y-104063228D01*
X139540851Y-104358252D01*
X139791748Y-104609149D01*
X140086772Y-104806277D01*
X140414585Y-104942062D01*
X140762589Y-105011284D01*
X141117411Y-105011284D01*
X141465415Y-104942062D01*
X141793228Y-104806277D01*
X142088252Y-104609149D01*
X142339149Y-104358252D01*
X142536277Y-104063228D01*
X142621906Y-103856500D01*
X145721939Y-103856500D01*
X145721939Y-106853700D01*
X145726573Y-106900748D01*
X145740296Y-106945988D01*
X145762582Y-106987682D01*
X145792573Y-107024227D01*
X145829118Y-107054218D01*
X145870812Y-107076504D01*
X145916052Y-107090227D01*
X145963100Y-107094861D01*
X147156900Y-107094861D01*
X147203948Y-107090227D01*
X147249188Y-107076504D01*
X147290882Y-107054218D01*
X147327427Y-107024227D01*
X147357418Y-106987682D01*
X147379704Y-106945988D01*
X147393427Y-106900748D01*
X147398061Y-106853700D01*
X147398061Y-103856500D01*
X147393427Y-103809452D01*
X147379704Y-103764212D01*
X147357418Y-103722518D01*
X147327427Y-103685973D01*
X147290882Y-103655982D01*
X147249188Y-103633696D01*
X147203948Y-103619973D01*
X147156900Y-103615339D01*
X145963100Y-103615339D01*
X145916052Y-103619973D01*
X145870812Y-103633696D01*
X145829118Y-103655982D01*
X145792573Y-103685973D01*
X145762582Y-103722518D01*
X145740296Y-103764212D01*
X145726573Y-103809452D01*
X145721939Y-103856500D01*
X142621906Y-103856500D01*
X142672062Y-103735415D01*
X142741284Y-103387411D01*
X142741284Y-103032589D01*
X142672062Y-102684585D01*
X142536277Y-102356772D01*
X142339149Y-102061748D01*
X142088252Y-101810851D01*
X141793228Y-101613723D01*
X141465415Y-101477938D01*
X141117411Y-101408716D01*
X140762589Y-101408716D01*
X140414585Y-101477938D01*
X140086772Y-101613723D01*
X139791748Y-101810851D01*
X139540851Y-102061748D01*
X139343723Y-102356772D01*
X139207938Y-102684585D01*
X139138716Y-103032589D01*
X138560000Y-103032589D01*
X138560000Y-99266693D01*
X138561644Y-99250000D01*
X138560000Y-99233307D01*
X138560000Y-99233299D01*
X138555080Y-99183348D01*
X138535639Y-99119258D01*
X138504067Y-99060192D01*
X138482036Y-99033348D01*
X138472225Y-99021393D01*
X138472221Y-99021389D01*
X138461578Y-99008421D01*
X138448611Y-98997779D01*
X136430000Y-96979169D01*
X136430000Y-96728424D01*
X136489308Y-96800692D01*
X136582679Y-96877319D01*
X136689205Y-96934259D01*
X136804793Y-96969322D01*
X136925000Y-96981161D01*
X137675000Y-96981161D01*
X137770886Y-96971717D01*
X143677775Y-102878607D01*
X143688421Y-102891579D01*
X143740192Y-102934067D01*
X143799258Y-102965639D01*
X143863348Y-102985080D01*
X143913299Y-102990000D01*
X143913307Y-102990000D01*
X143930000Y-102991644D01*
X143946693Y-102990000D01*
X147303307Y-102990000D01*
X147320000Y-102991644D01*
X147336693Y-102990000D01*
X147336701Y-102990000D01*
X147386652Y-102985080D01*
X147450742Y-102965639D01*
X147509808Y-102934067D01*
X147561579Y-102891579D01*
X147572229Y-102878602D01*
X147769188Y-102681643D01*
X147815769Y-102638556D01*
X147849136Y-102613061D01*
X147874538Y-102597835D01*
X147896629Y-102587978D01*
X147921906Y-102579860D01*
X147956268Y-102571704D01*
X148002067Y-102562530D01*
X148003534Y-102562232D01*
X148057493Y-102551073D01*
X148066570Y-102549011D01*
X148126037Y-102534287D01*
X148139702Y-102530472D01*
X148163920Y-102522932D01*
X148192097Y-102517327D01*
X148299470Y-102472851D01*
X148396103Y-102408283D01*
X148478283Y-102326103D01*
X148542851Y-102229470D01*
X148587327Y-102122097D01*
X148610000Y-102008110D01*
X148610000Y-101891890D01*
X148587327Y-101777903D01*
X148542851Y-101670530D01*
X148478283Y-101573897D01*
X148396103Y-101491717D01*
X148299470Y-101427149D01*
X148192097Y-101382673D01*
X148078110Y-101360000D01*
X147961890Y-101360000D01*
X147847903Y-101382673D01*
X147740530Y-101427149D01*
X147643897Y-101491717D01*
X147561717Y-101573897D01*
X147497149Y-101670530D01*
X147452673Y-101777903D01*
X147447068Y-101806080D01*
X147439529Y-101830293D01*
X147435712Y-101843962D01*
X147420988Y-101903429D01*
X147418926Y-101912506D01*
X147407767Y-101966465D01*
X147407469Y-101967932D01*
X147398295Y-102013731D01*
X147390139Y-102048093D01*
X147382021Y-102073370D01*
X147372164Y-102095461D01*
X147356938Y-102120863D01*
X147331443Y-102154231D01*
X147288353Y-102200815D01*
X147179169Y-102310000D01*
X144070832Y-102310000D01*
X142602722Y-100841890D01*
X144470000Y-100841890D01*
X144470000Y-100958110D01*
X144492673Y-101072097D01*
X144537149Y-101179470D01*
X144601717Y-101276103D01*
X144683897Y-101358283D01*
X144780530Y-101422851D01*
X144887903Y-101467327D01*
X145001890Y-101490000D01*
X145118110Y-101490000D01*
X145232097Y-101467327D01*
X145339470Y-101422851D01*
X145363351Y-101406894D01*
X145385814Y-101395098D01*
X145398174Y-101388134D01*
X145450635Y-101356496D01*
X145458512Y-101351535D01*
X145504557Y-101321271D01*
X145505802Y-101320446D01*
X145544695Y-101294535D01*
X145574739Y-101276016D01*
X145598354Y-101263882D01*
X145620941Y-101255232D01*
X145649677Y-101248035D01*
X145691299Y-101242468D01*
X145721939Y-101241275D01*
X145721939Y-101443500D01*
X145726573Y-101490548D01*
X145740296Y-101535788D01*
X145762582Y-101577482D01*
X145792573Y-101614027D01*
X145829118Y-101644018D01*
X145870812Y-101666304D01*
X145916052Y-101680027D01*
X145963100Y-101684661D01*
X147156900Y-101684661D01*
X147203948Y-101680027D01*
X147249188Y-101666304D01*
X147290882Y-101644018D01*
X147327427Y-101614027D01*
X147357418Y-101577482D01*
X147379704Y-101535788D01*
X147393427Y-101490548D01*
X147398061Y-101443500D01*
X147398061Y-98446300D01*
X147393427Y-98399252D01*
X147379704Y-98354012D01*
X147357418Y-98312318D01*
X147327427Y-98275773D01*
X147290882Y-98245782D01*
X147249188Y-98223496D01*
X147203948Y-98209773D01*
X147156900Y-98205139D01*
X145963100Y-98205139D01*
X145916052Y-98209773D01*
X145870812Y-98223496D01*
X145829118Y-98245782D01*
X145792573Y-98275773D01*
X145762582Y-98312318D01*
X145740296Y-98354012D01*
X145726573Y-98399252D01*
X145721939Y-98446300D01*
X145721939Y-100558725D01*
X145691299Y-100557531D01*
X145649677Y-100551964D01*
X145620941Y-100544767D01*
X145598354Y-100536117D01*
X145574739Y-100523983D01*
X145544695Y-100505464D01*
X145505802Y-100479553D01*
X145504557Y-100478728D01*
X145458512Y-100448464D01*
X145450635Y-100443503D01*
X145398174Y-100411865D01*
X145385811Y-100404900D01*
X145363350Y-100393105D01*
X145339470Y-100377149D01*
X145232097Y-100332673D01*
X145118110Y-100310000D01*
X145001890Y-100310000D01*
X144887903Y-100332673D01*
X144780530Y-100377149D01*
X144683897Y-100441717D01*
X144601717Y-100523897D01*
X144537149Y-100620530D01*
X144492673Y-100727903D01*
X144470000Y-100841890D01*
X142602722Y-100841890D01*
X138271575Y-96510744D01*
X138279322Y-96485207D01*
X138291161Y-96365000D01*
X138291161Y-95615000D01*
X138728839Y-95615000D01*
X138728839Y-96365000D01*
X138740678Y-96485207D01*
X138775741Y-96600795D01*
X138832681Y-96707321D01*
X138909308Y-96800692D01*
X139002679Y-96877319D01*
X139109205Y-96934259D01*
X139224793Y-96969322D01*
X139345000Y-96981161D01*
X140095000Y-96981161D01*
X140215207Y-96969322D01*
X140225399Y-96966230D01*
X140997774Y-97738606D01*
X141008421Y-97751579D01*
X141060192Y-97794067D01*
X141119258Y-97825639D01*
X141183348Y-97845080D01*
X141233299Y-97850000D01*
X141233307Y-97850000D01*
X141250000Y-97851644D01*
X141266693Y-97850000D01*
X147328038Y-97850000D01*
X147329009Y-97853071D01*
X147339843Y-97892888D01*
X147339935Y-97893222D01*
X147352737Y-97940005D01*
X147355283Y-97948665D01*
X147357300Y-97955077D01*
X147362674Y-97982096D01*
X147407150Y-98089469D01*
X147471718Y-98186102D01*
X147553898Y-98268282D01*
X147650531Y-98332850D01*
X147757904Y-98377326D01*
X147871891Y-98399999D01*
X147988111Y-98399999D01*
X148102098Y-98377326D01*
X148209471Y-98332850D01*
X148306104Y-98268282D01*
X148388284Y-98186102D01*
X148452852Y-98089469D01*
X148497328Y-97982096D01*
X148520001Y-97868109D01*
X148520001Y-97751889D01*
X148497328Y-97637902D01*
X148452852Y-97530529D01*
X148388284Y-97433896D01*
X148306104Y-97351716D01*
X148209471Y-97287148D01*
X148102098Y-97242672D01*
X147988111Y-97219999D01*
X147932388Y-97219999D01*
X147871474Y-97218758D01*
X147823100Y-97215635D01*
X147794819Y-97212575D01*
X147760744Y-97194361D01*
X147696654Y-97174920D01*
X147646703Y-97170000D01*
X147646695Y-97170000D01*
X147630002Y-97168356D01*
X147613309Y-97170000D01*
X141390832Y-97170000D01*
X140699924Y-96479093D01*
X140711161Y-96365000D01*
X140711161Y-95615000D01*
X143568839Y-95615000D01*
X143568839Y-96365000D01*
X143580678Y-96485207D01*
X143615741Y-96600795D01*
X143672681Y-96707321D01*
X143749308Y-96800692D01*
X143842679Y-96877319D01*
X143949205Y-96934259D01*
X144064793Y-96969322D01*
X144185000Y-96981161D01*
X144935000Y-96981161D01*
X145055207Y-96969322D01*
X145170795Y-96934259D01*
X145277321Y-96877319D01*
X145370692Y-96800692D01*
X145447319Y-96707321D01*
X145504259Y-96600795D01*
X145539322Y-96485207D01*
X145551161Y-96365000D01*
X145551161Y-95615000D01*
X145988839Y-95615000D01*
X145988839Y-96365000D01*
X146000678Y-96485207D01*
X146035741Y-96600795D01*
X146092681Y-96707321D01*
X146169308Y-96800692D01*
X146262679Y-96877319D01*
X146369205Y-96934259D01*
X146484793Y-96969322D01*
X146605000Y-96981161D01*
X147355000Y-96981161D01*
X147475207Y-96969322D01*
X147590795Y-96934259D01*
X147697321Y-96877319D01*
X147790692Y-96800692D01*
X147867319Y-96707321D01*
X147924259Y-96600795D01*
X147959322Y-96485207D01*
X147971161Y-96365000D01*
X147971161Y-96330000D01*
X149739169Y-96330000D01*
X153041939Y-99632772D01*
X153041939Y-101448400D01*
X153046573Y-101495448D01*
X153060296Y-101540688D01*
X153082582Y-101582382D01*
X153112573Y-101618927D01*
X153149118Y-101648918D01*
X153190812Y-101671204D01*
X153236052Y-101684927D01*
X153283100Y-101689561D01*
X154476900Y-101689561D01*
X154523948Y-101684927D01*
X154569188Y-101671204D01*
X154610882Y-101648918D01*
X154647427Y-101618927D01*
X154677418Y-101582382D01*
X154699704Y-101540688D01*
X154713427Y-101495448D01*
X154718061Y-101448400D01*
X154718061Y-98451200D01*
X154713427Y-98404152D01*
X154699704Y-98358912D01*
X154677418Y-98317218D01*
X154647427Y-98280673D01*
X154610882Y-98250682D01*
X154569188Y-98228396D01*
X154523948Y-98214673D01*
X154476900Y-98210039D01*
X153283100Y-98210039D01*
X153236052Y-98214673D01*
X153190812Y-98228396D01*
X153149118Y-98250682D01*
X153112573Y-98280673D01*
X153082582Y-98317218D01*
X153060296Y-98358912D01*
X153046573Y-98404152D01*
X153041939Y-98451200D01*
X153041939Y-98671107D01*
X150132230Y-95761399D01*
X150121579Y-95748421D01*
X150069808Y-95705933D01*
X150010742Y-95674361D01*
X149946652Y-95654920D01*
X149896701Y-95650000D01*
X149896693Y-95650000D01*
X149880000Y-95648356D01*
X149863307Y-95650000D01*
X147971161Y-95650000D01*
X147971161Y-95615000D01*
X147959322Y-95494793D01*
X147924259Y-95379205D01*
X147867319Y-95272679D01*
X147790692Y-95179308D01*
X147697321Y-95102681D01*
X147590795Y-95045741D01*
X147475207Y-95010678D01*
X147355000Y-94998839D01*
X146605000Y-94998839D01*
X146484793Y-95010678D01*
X146369205Y-95045741D01*
X146262679Y-95102681D01*
X146169308Y-95179308D01*
X146092681Y-95272679D01*
X146035741Y-95379205D01*
X146000678Y-95494793D01*
X145988839Y-95615000D01*
X145551161Y-95615000D01*
X145539322Y-95494793D01*
X145538558Y-95492274D01*
X146458433Y-94572399D01*
X146500339Y-94533886D01*
X146528294Y-94513103D01*
X146547127Y-94502552D01*
X146561343Y-94497085D01*
X146578107Y-94493165D01*
X146604046Y-94490005D01*
X146642823Y-94487856D01*
X146693493Y-94486180D01*
X146696937Y-94486041D01*
X146755709Y-94483251D01*
X146765490Y-94482586D01*
X146794705Y-94480000D01*
X146828110Y-94480000D01*
X146942097Y-94457327D01*
X147049470Y-94412851D01*
X147146103Y-94348283D01*
X147228283Y-94266103D01*
X147292851Y-94169470D01*
X147337327Y-94062097D01*
X147360000Y-93948110D01*
X147360000Y-93831890D01*
X147337327Y-93717903D01*
X147292851Y-93610530D01*
X147228283Y-93513897D01*
X147146103Y-93431717D01*
X147049470Y-93367149D01*
X146942097Y-93322673D01*
X146828110Y-93300000D01*
X146711890Y-93300000D01*
X146597903Y-93322673D01*
X146490530Y-93367149D01*
X146393897Y-93431717D01*
X146311717Y-93513897D01*
X146247149Y-93610530D01*
X146239014Y-93630170D01*
X146226370Y-93652140D01*
X146219135Y-93665697D01*
X146189893Y-93724990D01*
X146184627Y-93736415D01*
X146161375Y-93790541D01*
X146158793Y-93796791D01*
X146138984Y-93846738D01*
X146121593Y-93889758D01*
X146105322Y-93925409D01*
X146087256Y-93958341D01*
X146063487Y-93993869D01*
X146029444Y-94036276D01*
X145978402Y-94090766D01*
X145057726Y-95011442D01*
X145055207Y-95010678D01*
X144935000Y-94998839D01*
X144185000Y-94998839D01*
X144064793Y-95010678D01*
X143949205Y-95045741D01*
X143842679Y-95102681D01*
X143749308Y-95179308D01*
X143672681Y-95272679D01*
X143615741Y-95379205D01*
X143580678Y-95494793D01*
X143568839Y-95615000D01*
X140711161Y-95615000D01*
X140699322Y-95494793D01*
X140664259Y-95379205D01*
X140607319Y-95272679D01*
X140530692Y-95179308D01*
X140437321Y-95102681D01*
X140330795Y-95045741D01*
X140215207Y-95010678D01*
X140095000Y-94998839D01*
X139345000Y-94998839D01*
X139224793Y-95010678D01*
X139109205Y-95045741D01*
X139002679Y-95102681D01*
X138909308Y-95179308D01*
X138832681Y-95272679D01*
X138775741Y-95379205D01*
X138740678Y-95494793D01*
X138728839Y-95615000D01*
X138291161Y-95615000D01*
X138279322Y-95494793D01*
X138244259Y-95379205D01*
X138187319Y-95272679D01*
X138110692Y-95179308D01*
X138017321Y-95102681D01*
X137910795Y-95045741D01*
X137795207Y-95010678D01*
X137675000Y-94998839D01*
X136925000Y-94998839D01*
X136804793Y-95010678D01*
X136689205Y-95045741D01*
X136582679Y-95102681D01*
X136489308Y-95179308D01*
X136430000Y-95251576D01*
X136430000Y-95020831D01*
X137498607Y-93952225D01*
X137511579Y-93941579D01*
X137554067Y-93889808D01*
X137585639Y-93830742D01*
X137605080Y-93766652D01*
X137610000Y-93716701D01*
X137610000Y-93716694D01*
X137611644Y-93700001D01*
X137610000Y-93683308D01*
X137610000Y-92014665D01*
X137612447Y-91951712D01*
X137617953Y-91910682D01*
X137624979Y-91882934D01*
X137633242Y-91861801D01*
X137644813Y-91840022D01*
X137662839Y-91812172D01*
X137689229Y-91775120D01*
X137721143Y-91730572D01*
X137725343Y-91724514D01*
X137759488Y-91673620D01*
X137766258Y-91662932D01*
X137787164Y-91627913D01*
X137812851Y-91589470D01*
X137857327Y-91482097D01*
X137880000Y-91368110D01*
X137880000Y-91251890D01*
X137857327Y-91137903D01*
X137812851Y-91030530D01*
X137748283Y-90933897D01*
X137666103Y-90851717D01*
X137569470Y-90787149D01*
X137462097Y-90742673D01*
X137348110Y-90720000D01*
X137231890Y-90720000D01*
X137117903Y-90742673D01*
X137010530Y-90787149D01*
X136913897Y-90851717D01*
X136831717Y-90933897D01*
X136767149Y-91030530D01*
X136722673Y-91137903D01*
X136700000Y-91251890D01*
X136700000Y-91368110D01*
X136722673Y-91482097D01*
X136767149Y-91589470D01*
X136773201Y-91598527D01*
X136778022Y-91609161D01*
X136784235Y-91621857D01*
X136813665Y-91677761D01*
X136818404Y-91686334D01*
X136846816Y-91735342D01*
X136848091Y-91737514D01*
X136873058Y-91779557D01*
X136891750Y-91813216D01*
X136904619Y-91840720D01*
X136914074Y-91867576D01*
X136921784Y-91900791D01*
X136927533Y-91946859D01*
X136930000Y-92014391D01*
X136930001Y-93559167D01*
X135861394Y-94627775D01*
X135848421Y-94638422D01*
X135805933Y-94690193D01*
X135774361Y-94749259D01*
X135754920Y-94813349D01*
X135750000Y-94863300D01*
X135750000Y-94863307D01*
X135748356Y-94880000D01*
X135750000Y-94896693D01*
X135750000Y-95251576D01*
X135690692Y-95179308D01*
X135597321Y-95102681D01*
X135490795Y-95045741D01*
X135375207Y-95010678D01*
X135255000Y-94998839D01*
X134505000Y-94998839D01*
X134384793Y-95010678D01*
X134269205Y-95045741D01*
X134162679Y-95102681D01*
X134069308Y-95179308D01*
X133992681Y-95272679D01*
X133935741Y-95379205D01*
X133900678Y-95494793D01*
X133888839Y-95615000D01*
X133888839Y-96365000D01*
X133900678Y-96485207D01*
X133935741Y-96600795D01*
X133992681Y-96707321D01*
X134069308Y-96800692D01*
X134162679Y-96877319D01*
X134269205Y-96934259D01*
X134384793Y-96969322D01*
X134505000Y-96981161D01*
X134530001Y-96981161D01*
X134530001Y-97883297D01*
X134528356Y-97900000D01*
X134534920Y-97966651D01*
X134554361Y-98030741D01*
X134585933Y-98089807D01*
X134589563Y-98094230D01*
X134628422Y-98141579D01*
X134641394Y-98152225D01*
X135730000Y-99240833D01*
X135730001Y-101369167D01*
X134839169Y-102260000D01*
X132216690Y-102260000D01*
X132199999Y-102258356D01*
X132183308Y-102260000D01*
X132183299Y-102260000D01*
X132133348Y-102264920D01*
X132069258Y-102284361D01*
X132021292Y-102310000D01*
X132010192Y-102315933D01*
X131971392Y-102347775D01*
X131971387Y-102347780D01*
X131958421Y-102358421D01*
X131947779Y-102371388D01*
X130541394Y-103777775D01*
X130528421Y-103788422D01*
X130485933Y-103840193D01*
X130454361Y-103899259D01*
X130434920Y-103963349D01*
X130430000Y-104013300D01*
X130430000Y-104013307D01*
X130428356Y-104030000D01*
X130430000Y-104046693D01*
X130430001Y-107849167D01*
X125539169Y-112740000D01*
X124848689Y-112740000D01*
X124826779Y-112667772D01*
X124734479Y-112495091D01*
X124610265Y-112343735D01*
X124458909Y-112219521D01*
X124286228Y-112127221D01*
X124098858Y-112070383D01*
X123952826Y-112056000D01*
X122347174Y-112056000D01*
X122201142Y-112070383D01*
X122013772Y-112127221D01*
X121841091Y-112219521D01*
X121689735Y-112343735D01*
X121565521Y-112495091D01*
X121473221Y-112667772D01*
X121416383Y-112855142D01*
X121397191Y-113050000D01*
X121180000Y-113050000D01*
X121180000Y-107550000D01*
X121397191Y-107550000D01*
X121416383Y-107744858D01*
X121473221Y-107932228D01*
X121565521Y-108104909D01*
X121689735Y-108256265D01*
X121841091Y-108380479D01*
X122013772Y-108472779D01*
X122201142Y-108529617D01*
X122347174Y-108544000D01*
X123811263Y-108544000D01*
X123689735Y-108643735D01*
X123565521Y-108795091D01*
X123473221Y-108967772D01*
X123416383Y-109155142D01*
X123397191Y-109350000D01*
X123416383Y-109544858D01*
X123473221Y-109732228D01*
X123565521Y-109904909D01*
X123689735Y-110056265D01*
X123841091Y-110180479D01*
X124013772Y-110272779D01*
X124201142Y-110329617D01*
X124347174Y-110344000D01*
X125952826Y-110344000D01*
X126098858Y-110329617D01*
X126286228Y-110272779D01*
X126458909Y-110180479D01*
X126610265Y-110056265D01*
X126734479Y-109904909D01*
X126826779Y-109732228D01*
X126839589Y-109690000D01*
X126853307Y-109690000D01*
X126870000Y-109691644D01*
X126886693Y-109690000D01*
X126886701Y-109690000D01*
X126936652Y-109685080D01*
X127000742Y-109665639D01*
X127059808Y-109634067D01*
X127111579Y-109591579D01*
X127122230Y-109578602D01*
X129378618Y-107322215D01*
X129391579Y-107311578D01*
X129402217Y-107298616D01*
X129402226Y-107298607D01*
X129434068Y-107259807D01*
X129463705Y-107204361D01*
X129465640Y-107200741D01*
X129485081Y-107136651D01*
X129490001Y-107086700D01*
X129490001Y-107086691D01*
X129491645Y-107070000D01*
X129490001Y-107053309D01*
X129490001Y-106074668D01*
X129492469Y-106011299D01*
X129498036Y-105969677D01*
X129505233Y-105940941D01*
X129513883Y-105918354D01*
X129526017Y-105894739D01*
X129544536Y-105864695D01*
X129570447Y-105825802D01*
X129571272Y-105824557D01*
X129601536Y-105778512D01*
X129606497Y-105770635D01*
X129638135Y-105718174D01*
X129645099Y-105705814D01*
X129656895Y-105683351D01*
X129672852Y-105659470D01*
X129717328Y-105552097D01*
X129740001Y-105438110D01*
X129740001Y-105321890D01*
X129717328Y-105207903D01*
X129672852Y-105100530D01*
X129608284Y-105003897D01*
X129526104Y-104921717D01*
X129429471Y-104857149D01*
X129322098Y-104812673D01*
X129208111Y-104790000D01*
X129091891Y-104790000D01*
X128977904Y-104812673D01*
X128870531Y-104857149D01*
X128773898Y-104921717D01*
X128691718Y-105003897D01*
X128627150Y-105100530D01*
X128582674Y-105207903D01*
X128560001Y-105321890D01*
X128560001Y-105438110D01*
X128582674Y-105552097D01*
X128627150Y-105659470D01*
X128643106Y-105683350D01*
X128654901Y-105705811D01*
X128661866Y-105718174D01*
X128693504Y-105770635D01*
X128698465Y-105778512D01*
X128728729Y-105824557D01*
X128729554Y-105825802D01*
X128755465Y-105864695D01*
X128773984Y-105894739D01*
X128786118Y-105918354D01*
X128794768Y-105940941D01*
X128801965Y-105969677D01*
X128807532Y-106011299D01*
X128810002Y-106074688D01*
X128810001Y-106929166D01*
X126807488Y-108931681D01*
X126734479Y-108795091D01*
X126610265Y-108643735D01*
X126458909Y-108519521D01*
X126286228Y-108427221D01*
X126098858Y-108370383D01*
X125952826Y-108356000D01*
X124488737Y-108356000D01*
X124610265Y-108256265D01*
X124734479Y-108104909D01*
X124826779Y-107932228D01*
X124848689Y-107860000D01*
X126173307Y-107860000D01*
X126190000Y-107861644D01*
X126206693Y-107860000D01*
X126206701Y-107860000D01*
X126256652Y-107855080D01*
X126320742Y-107835639D01*
X126379808Y-107804067D01*
X126431579Y-107761579D01*
X126442230Y-107748601D01*
X127748607Y-106442225D01*
X127761579Y-106431579D01*
X127804067Y-106379808D01*
X127835639Y-106320742D01*
X127855080Y-106256652D01*
X127860000Y-106206701D01*
X127860000Y-106206694D01*
X127861644Y-106190001D01*
X127860000Y-106173308D01*
X127860000Y-101710831D01*
X131114531Y-98456300D01*
X132221939Y-98456300D01*
X132221939Y-101453500D01*
X132226573Y-101500548D01*
X132240296Y-101545788D01*
X132262582Y-101587482D01*
X132292573Y-101624027D01*
X132329118Y-101654018D01*
X132370812Y-101676304D01*
X132416052Y-101690027D01*
X132463100Y-101694661D01*
X133656900Y-101694661D01*
X133703948Y-101690027D01*
X133749188Y-101676304D01*
X133790882Y-101654018D01*
X133827427Y-101624027D01*
X133857418Y-101587482D01*
X133879704Y-101545788D01*
X133893427Y-101500548D01*
X133898061Y-101453500D01*
X133898061Y-100300000D01*
X133955332Y-100300000D01*
X134018700Y-100302468D01*
X134060322Y-100308035D01*
X134089058Y-100315232D01*
X134111645Y-100323882D01*
X134135260Y-100336016D01*
X134165304Y-100354535D01*
X134204197Y-100380446D01*
X134205442Y-100381271D01*
X134251487Y-100411535D01*
X134259364Y-100416496D01*
X134311825Y-100448134D01*
X134324187Y-100455099D01*
X134346651Y-100466896D01*
X134370530Y-100482851D01*
X134477903Y-100527327D01*
X134591890Y-100550000D01*
X134708110Y-100550000D01*
X134822097Y-100527327D01*
X134929470Y-100482851D01*
X135026103Y-100418283D01*
X135108283Y-100336103D01*
X135172851Y-100239470D01*
X135217327Y-100132097D01*
X135240000Y-100018110D01*
X135240000Y-99901890D01*
X135217327Y-99787903D01*
X135172851Y-99680530D01*
X135108283Y-99583897D01*
X135026103Y-99501717D01*
X134929470Y-99437149D01*
X134822097Y-99392673D01*
X134708110Y-99370000D01*
X134591890Y-99370000D01*
X134477903Y-99392673D01*
X134370530Y-99437149D01*
X134346655Y-99453102D01*
X134324189Y-99464899D01*
X134311825Y-99471865D01*
X134259364Y-99503503D01*
X134251487Y-99508464D01*
X134205442Y-99538728D01*
X134204197Y-99539553D01*
X134165304Y-99565464D01*
X134135260Y-99583983D01*
X134111645Y-99596117D01*
X134089058Y-99604767D01*
X134060322Y-99611964D01*
X134018700Y-99617531D01*
X133955327Y-99620000D01*
X133898061Y-99620000D01*
X133898061Y-98456300D01*
X133893427Y-98409252D01*
X133879704Y-98364012D01*
X133857418Y-98322318D01*
X133827427Y-98285773D01*
X133790882Y-98255782D01*
X133749188Y-98233496D01*
X133703948Y-98219773D01*
X133656900Y-98215139D01*
X132463100Y-98215139D01*
X132416052Y-98219773D01*
X132370812Y-98233496D01*
X132329118Y-98255782D01*
X132292573Y-98285773D01*
X132262582Y-98322318D01*
X132240296Y-98364012D01*
X132226573Y-98409252D01*
X132221939Y-98456300D01*
X131114531Y-98456300D01*
X132262313Y-97308519D01*
X132275280Y-97297878D01*
X132285921Y-97284912D01*
X132285926Y-97284907D01*
X132317768Y-97246107D01*
X132331723Y-97219999D01*
X132349340Y-97187041D01*
X132368781Y-97122951D01*
X132373701Y-97073000D01*
X132373701Y-97072993D01*
X132375345Y-97056300D01*
X132373701Y-97039607D01*
X132373701Y-94307130D01*
X134629295Y-92051537D01*
X134677359Y-92006962D01*
X134712358Y-91979971D01*
X134739465Y-91963406D01*
X134763224Y-91952433D01*
X134789926Y-91943358D01*
X134825390Y-91934195D01*
X134871929Y-91923821D01*
X134873565Y-91923451D01*
X134928068Y-91910901D01*
X134937051Y-91908649D01*
X134997147Y-91892346D01*
X135010481Y-91888310D01*
X135030406Y-91881642D01*
X135052097Y-91877327D01*
X135159470Y-91832851D01*
X135256103Y-91768283D01*
X135338283Y-91686103D01*
X135402851Y-91589470D01*
X135447327Y-91482097D01*
X135470000Y-91368110D01*
X135470000Y-91251890D01*
X135447327Y-91137903D01*
X135402851Y-91030530D01*
X135338283Y-90933897D01*
X135256103Y-90851717D01*
X135159470Y-90787149D01*
X135052097Y-90742673D01*
X134938110Y-90720000D01*
X134821890Y-90720000D01*
X134707903Y-90742673D01*
X134600530Y-90787149D01*
X134503897Y-90851717D01*
X134421717Y-90933897D01*
X134357149Y-91030530D01*
X134312673Y-91137903D01*
X134305931Y-91171796D01*
X134297126Y-91202093D01*
X134293748Y-91215058D01*
X134279886Y-91275068D01*
X134278141Y-91283269D01*
X134267563Y-91337663D01*
X134267462Y-91338188D01*
X134258674Y-91383923D01*
X134250801Y-91417712D01*
X134242825Y-91442640D01*
X134232986Y-91464641D01*
X134217605Y-91490211D01*
X134191823Y-91523865D01*
X134148393Y-91570776D01*
X131805095Y-93914074D01*
X131792122Y-93924721D01*
X131749634Y-93976492D01*
X131718062Y-94035558D01*
X131698621Y-94099648D01*
X131693701Y-94149599D01*
X131693701Y-94149606D01*
X131692057Y-94166299D01*
X131693701Y-94182992D01*
X131693702Y-96915465D01*
X127291394Y-101317775D01*
X127278421Y-101328422D01*
X127235933Y-101380193D01*
X127204361Y-101439259D01*
X127184920Y-101503349D01*
X127180000Y-101553300D01*
X127180000Y-101553307D01*
X127178356Y-101570000D01*
X127180000Y-101586693D01*
X127180001Y-106049167D01*
X126049169Y-107180000D01*
X124830488Y-107180000D01*
X124826779Y-107167772D01*
X124734479Y-106995091D01*
X124610265Y-106843735D01*
X124458909Y-106719521D01*
X124286228Y-106627221D01*
X124098858Y-106570383D01*
X123952826Y-106556000D01*
X122347174Y-106556000D01*
X122201142Y-106570383D01*
X122013772Y-106627221D01*
X121841091Y-106719521D01*
X121689735Y-106843735D01*
X121565521Y-106995091D01*
X121473221Y-107167772D01*
X121416383Y-107355142D01*
X121397191Y-107550000D01*
X121180000Y-107550000D01*
X121180000Y-104060121D01*
X121390121Y-103850000D01*
X123397191Y-103850000D01*
X123416383Y-104044858D01*
X123473221Y-104232228D01*
X123565521Y-104404909D01*
X123689735Y-104556265D01*
X123841091Y-104680479D01*
X124013772Y-104772779D01*
X124201142Y-104829617D01*
X124347174Y-104844000D01*
X125952826Y-104844000D01*
X126098858Y-104829617D01*
X126286228Y-104772779D01*
X126458909Y-104680479D01*
X126610265Y-104556265D01*
X126734479Y-104404909D01*
X126826779Y-104232228D01*
X126883617Y-104044858D01*
X126902809Y-103850000D01*
X126883617Y-103655142D01*
X126826779Y-103467772D01*
X126734479Y-103295091D01*
X126610265Y-103143735D01*
X126458909Y-103019521D01*
X126286228Y-102927221D01*
X126098858Y-102870383D01*
X125952826Y-102856000D01*
X124347174Y-102856000D01*
X124201142Y-102870383D01*
X124013772Y-102927221D01*
X123841091Y-103019521D01*
X123689735Y-103143735D01*
X123565521Y-103295091D01*
X123473221Y-103467772D01*
X123416383Y-103655142D01*
X123397191Y-103850000D01*
X121390121Y-103850000D01*
X129020121Y-96220000D01*
X130905755Y-96220000D01*
X130920000Y-96221403D01*
X130934245Y-96220000D01*
X130948400Y-96218606D01*
X130976850Y-96215804D01*
X131031515Y-96199221D01*
X131081895Y-96172293D01*
X131126053Y-96136053D01*
X131162293Y-96091895D01*
X131189221Y-96041515D01*
X131205804Y-95986850D01*
X131206154Y-95983299D01*
X131211403Y-95930000D01*
X131210000Y-95915755D01*
X131210000Y-88770000D01*
X150690000Y-88770000D01*
X150690001Y-95915744D01*
G37*
G04 #@! TD.AperFunction*
D19*
X146332201Y-113937014D02*
X146268472Y-114052805D01*
X146194871Y-114167333D01*
X146121356Y-114274950D01*
X146121236Y-114275130D01*
X146053810Y-114377534D01*
X146053334Y-114378317D01*
X145997943Y-114477325D01*
X145997172Y-114478969D01*
X145959666Y-114576534D01*
X145958943Y-114579326D01*
X145945176Y-114677401D01*
X145945074Y-114679888D01*
X145945207Y-114681140D01*
X145961030Y-114781678D01*
X145961657Y-114784088D01*
X145962165Y-114785278D01*
X146013430Y-114890231D01*
X146015076Y-114892777D01*
X146100229Y-114995191D01*
X145975965Y-115119455D01*
X145849366Y-114993266D01*
X145849333Y-114993234D01*
X145734659Y-114879750D01*
X145734625Y-114879716D01*
X145636048Y-114782893D01*
X145636018Y-114782864D01*
X145548730Y-114697705D01*
X145548710Y-114697685D01*
X145467903Y-114619195D01*
X145467900Y-114619192D01*
X145388766Y-114542376D01*
X145306514Y-114462252D01*
X145216332Y-114373824D01*
X145113443Y-114272124D01*
X144999899Y-114158993D01*
X145589902Y-113155972D01*
X146332201Y-113937014D01*
G04 #@! TA.AperFunction,Conductor*
D18*
G36*
X146332201Y-113937014D02*
G01*
X146268472Y-114052805D01*
X146194871Y-114167333D01*
X146121356Y-114274950D01*
X146121236Y-114275130D01*
X146053810Y-114377534D01*
X146053334Y-114378317D01*
X145997943Y-114477325D01*
X145997172Y-114478969D01*
X145959666Y-114576534D01*
X145958943Y-114579326D01*
X145945176Y-114677401D01*
X145945074Y-114679888D01*
X145945207Y-114681140D01*
X145961030Y-114781678D01*
X145961657Y-114784088D01*
X145962165Y-114785278D01*
X146013430Y-114890231D01*
X146015076Y-114892777D01*
X146100229Y-114995191D01*
X145975965Y-115119455D01*
X145849366Y-114993266D01*
X145849333Y-114993234D01*
X145734659Y-114879750D01*
X145734625Y-114879716D01*
X145636048Y-114782893D01*
X145636018Y-114782864D01*
X145548730Y-114697705D01*
X145548710Y-114697685D01*
X145467903Y-114619195D01*
X145467900Y-114619192D01*
X145388766Y-114542376D01*
X145306514Y-114462252D01*
X145216332Y-114373824D01*
X145113443Y-114272124D01*
X144999899Y-114158993D01*
X145589902Y-113155972D01*
X146332201Y-113937014D01*
G37*
G04 #@! TD.AperFunction*
D19*
X149811212Y-97787658D02*
X149829084Y-97845059D01*
X149843659Y-97903924D01*
X149854752Y-97957564D01*
X149864764Y-98007546D01*
X149864860Y-98007985D01*
X149876143Y-98055522D01*
X149876408Y-98056472D01*
X149891381Y-98103096D01*
X149891875Y-98104388D01*
X149912954Y-98151628D01*
X149913659Y-98152982D01*
X149943263Y-98202371D01*
X149944065Y-98203553D01*
X149984613Y-98256622D01*
X149985381Y-98257535D01*
X150030997Y-98306849D01*
X149906849Y-98430997D01*
X149857535Y-98385381D01*
X149856622Y-98384613D01*
X149803553Y-98344065D01*
X149802371Y-98343263D01*
X149752982Y-98313659D01*
X149751628Y-98312954D01*
X149704388Y-98291875D01*
X149703096Y-98291381D01*
X149656472Y-98276408D01*
X149655522Y-98276143D01*
X149607985Y-98264860D01*
X149607546Y-98264764D01*
X149557584Y-98254756D01*
X149503924Y-98243659D01*
X149445059Y-98229084D01*
X149387658Y-98211212D01*
X149379213Y-97779213D01*
X149811212Y-97787658D01*
G04 #@! TA.AperFunction,Conductor*
D18*
G36*
X149811212Y-97787658D02*
G01*
X149829084Y-97845059D01*
X149843659Y-97903924D01*
X149854752Y-97957564D01*
X149864764Y-98007546D01*
X149864860Y-98007985D01*
X149876143Y-98055522D01*
X149876408Y-98056472D01*
X149891381Y-98103096D01*
X149891875Y-98104388D01*
X149912954Y-98151628D01*
X149913659Y-98152982D01*
X149943263Y-98202371D01*
X149944065Y-98203553D01*
X149984613Y-98256622D01*
X149985381Y-98257535D01*
X150030997Y-98306849D01*
X149906849Y-98430997D01*
X149857535Y-98385381D01*
X149856622Y-98384613D01*
X149803553Y-98344065D01*
X149802371Y-98343263D01*
X149752982Y-98313659D01*
X149751628Y-98312954D01*
X149704388Y-98291875D01*
X149703096Y-98291381D01*
X149656472Y-98276408D01*
X149655522Y-98276143D01*
X149607985Y-98264860D01*
X149607546Y-98264764D01*
X149557584Y-98254756D01*
X149503924Y-98243659D01*
X149445059Y-98229084D01*
X149387658Y-98211212D01*
X149379213Y-97779213D01*
X149811212Y-97787658D01*
G37*
G04 #@! TD.AperFunction*
D19*
X129449499Y-105534763D02*
X129421543Y-105587999D01*
X129390237Y-105639909D01*
X129360101Y-105685760D01*
X129331882Y-105728118D01*
X129331640Y-105728495D01*
X129306004Y-105770087D01*
X129305519Y-105770947D01*
X129283138Y-105814502D01*
X129282574Y-105815764D01*
X129264075Y-105864073D01*
X129263616Y-105865529D01*
X129249626Y-105921386D01*
X129249357Y-105922788D01*
X129240503Y-105988985D01*
X129240401Y-105990175D01*
X129237786Y-106057300D01*
X129062215Y-106057300D01*
X129059600Y-105990175D01*
X129059498Y-105988985D01*
X129050644Y-105922788D01*
X129050375Y-105921386D01*
X129036385Y-105865529D01*
X129035926Y-105864073D01*
X129017427Y-105815764D01*
X129016863Y-105814502D01*
X128994482Y-105770947D01*
X128993997Y-105770087D01*
X128968361Y-105728495D01*
X128968119Y-105728118D01*
X128939900Y-105685760D01*
X128909764Y-105639909D01*
X128878458Y-105587999D01*
X128850502Y-105534763D01*
X129150001Y-105223322D01*
X129449499Y-105534763D01*
G04 #@! TA.AperFunction,Conductor*
D18*
G36*
X129449499Y-105534763D02*
G01*
X129421543Y-105587999D01*
X129390237Y-105639909D01*
X129360101Y-105685760D01*
X129331882Y-105728118D01*
X129331640Y-105728495D01*
X129306004Y-105770087D01*
X129305519Y-105770947D01*
X129283138Y-105814502D01*
X129282574Y-105815764D01*
X129264075Y-105864073D01*
X129263616Y-105865529D01*
X129249626Y-105921386D01*
X129249357Y-105922788D01*
X129240503Y-105988985D01*
X129240401Y-105990175D01*
X129237786Y-106057300D01*
X129062215Y-106057300D01*
X129059600Y-105990175D01*
X129059498Y-105988985D01*
X129050644Y-105922788D01*
X129050375Y-105921386D01*
X129036385Y-105865529D01*
X129035926Y-105864073D01*
X129017427Y-105815764D01*
X129016863Y-105814502D01*
X128994482Y-105770947D01*
X128993997Y-105770087D01*
X128968361Y-105728495D01*
X128968119Y-105728118D01*
X128939900Y-105685760D01*
X128909764Y-105639909D01*
X128878458Y-105587999D01*
X128850502Y-105534763D01*
X129150001Y-105223322D01*
X129449499Y-105534763D01*
G37*
G04 #@! TD.AperFunction*
D19*
X125613997Y-108759834D02*
X125730792Y-108838834D01*
X125830693Y-108917602D01*
X125920840Y-108993884D01*
X125921011Y-108994026D01*
X126008246Y-109065261D01*
X126009012Y-109065840D01*
X126100251Y-109129497D01*
X126101618Y-109130327D01*
X126203936Y-109184009D01*
X126205716Y-109184776D01*
X126326186Y-109226088D01*
X126328030Y-109226569D01*
X126473726Y-109253113D01*
X126475334Y-109253301D01*
X126641300Y-109262048D01*
X126641300Y-109437952D01*
X126475334Y-109446698D01*
X126473726Y-109446886D01*
X126328030Y-109473430D01*
X126326186Y-109473911D01*
X126205716Y-109515223D01*
X126203936Y-109515990D01*
X126101618Y-109569672D01*
X126100251Y-109570502D01*
X126009012Y-109634159D01*
X126008246Y-109634738D01*
X125921011Y-109705973D01*
X125920840Y-109706115D01*
X125830693Y-109782397D01*
X125730792Y-109861165D01*
X125613997Y-109940165D01*
X125480747Y-110012987D01*
X124791322Y-109350000D01*
X125480747Y-108687013D01*
X125613997Y-108759834D01*
G04 #@! TA.AperFunction,Conductor*
D18*
G36*
X125613997Y-108759834D02*
G01*
X125730792Y-108838834D01*
X125830693Y-108917602D01*
X125920840Y-108993884D01*
X125921011Y-108994026D01*
X126008246Y-109065261D01*
X126009012Y-109065840D01*
X126100251Y-109129497D01*
X126101618Y-109130327D01*
X126203936Y-109184009D01*
X126205716Y-109184776D01*
X126326186Y-109226088D01*
X126328030Y-109226569D01*
X126473726Y-109253113D01*
X126475334Y-109253301D01*
X126641300Y-109262048D01*
X126641300Y-109437952D01*
X126475334Y-109446698D01*
X126473726Y-109446886D01*
X126328030Y-109473430D01*
X126326186Y-109473911D01*
X126205716Y-109515223D01*
X126203936Y-109515990D01*
X126101618Y-109569672D01*
X126100251Y-109570502D01*
X126009012Y-109634159D01*
X126008246Y-109634738D01*
X125921011Y-109705973D01*
X125920840Y-109706115D01*
X125830693Y-109782397D01*
X125730792Y-109861165D01*
X125613997Y-109940165D01*
X125480747Y-110012987D01*
X124791322Y-109350000D01*
X125480747Y-108687013D01*
X125613997Y-108759834D01*
G37*
G04 #@! TD.AperFunction*
D19*
X145267999Y-100628457D02*
X145319909Y-100659763D01*
X145365760Y-100689899D01*
X145408118Y-100718118D01*
X145408495Y-100718360D01*
X145450087Y-100743996D01*
X145450947Y-100744481D01*
X145494502Y-100766862D01*
X145495764Y-100767426D01*
X145544073Y-100785925D01*
X145545529Y-100786384D01*
X145601386Y-100800374D01*
X145602788Y-100800643D01*
X145668985Y-100809497D01*
X145670175Y-100809599D01*
X145737300Y-100812214D01*
X145737300Y-100987785D01*
X145670175Y-100990400D01*
X145668985Y-100990502D01*
X145602788Y-100999356D01*
X145601386Y-100999625D01*
X145545529Y-101013615D01*
X145544073Y-101014074D01*
X145495764Y-101032573D01*
X145494502Y-101033137D01*
X145450947Y-101055518D01*
X145450087Y-101056003D01*
X145408495Y-101081639D01*
X145408118Y-101081881D01*
X145365760Y-101110100D01*
X145319909Y-101140236D01*
X145267999Y-101171542D01*
X145214763Y-101199498D01*
X144903322Y-100900000D01*
X145214763Y-100600501D01*
X145267999Y-100628457D01*
G04 #@! TA.AperFunction,Conductor*
D18*
G36*
X145267999Y-100628457D02*
G01*
X145319909Y-100659763D01*
X145365760Y-100689899D01*
X145408118Y-100718118D01*
X145408495Y-100718360D01*
X145450087Y-100743996D01*
X145450947Y-100744481D01*
X145494502Y-100766862D01*
X145495764Y-100767426D01*
X145544073Y-100785925D01*
X145545529Y-100786384D01*
X145601386Y-100800374D01*
X145602788Y-100800643D01*
X145668985Y-100809497D01*
X145670175Y-100809599D01*
X145737300Y-100812214D01*
X145737300Y-100987785D01*
X145670175Y-100990400D01*
X145668985Y-100990502D01*
X145602788Y-100999356D01*
X145601386Y-100999625D01*
X145545529Y-101013615D01*
X145544073Y-101014074D01*
X145495764Y-101032573D01*
X145494502Y-101033137D01*
X145450947Y-101055518D01*
X145450087Y-101056003D01*
X145408495Y-101081639D01*
X145408118Y-101081881D01*
X145365760Y-101110100D01*
X145319909Y-101140236D01*
X145267999Y-101171542D01*
X145214763Y-101199498D01*
X144903322Y-100900000D01*
X145214763Y-100600501D01*
X145267999Y-100628457D01*
G37*
G04 #@! TD.AperFunction*
D19*
X134806678Y-99960000D02*
X134495237Y-100259499D01*
X134442000Y-100231542D01*
X134390090Y-100200236D01*
X134344239Y-100170100D01*
X134301881Y-100141881D01*
X134301504Y-100141639D01*
X134259912Y-100116003D01*
X134259052Y-100115518D01*
X134215497Y-100093137D01*
X134214235Y-100092573D01*
X134165926Y-100074074D01*
X134164470Y-100073615D01*
X134108613Y-100059625D01*
X134107211Y-100059356D01*
X134041014Y-100050502D01*
X134039824Y-100050400D01*
X133972700Y-100047785D01*
X133972700Y-99872214D01*
X134039824Y-99869599D01*
X134041014Y-99869497D01*
X134107211Y-99860643D01*
X134108613Y-99860374D01*
X134164470Y-99846384D01*
X134165926Y-99845925D01*
X134214235Y-99827426D01*
X134215497Y-99826862D01*
X134259052Y-99804481D01*
X134259912Y-99803996D01*
X134301504Y-99778360D01*
X134301881Y-99778118D01*
X134344239Y-99749899D01*
X134390090Y-99719763D01*
X134442007Y-99688453D01*
X134495236Y-99660501D01*
X134806678Y-99960000D01*
G04 #@! TA.AperFunction,Conductor*
D18*
G36*
X134806678Y-99960000D02*
G01*
X134495237Y-100259499D01*
X134442000Y-100231542D01*
X134390090Y-100200236D01*
X134344239Y-100170100D01*
X134301881Y-100141881D01*
X134301504Y-100141639D01*
X134259912Y-100116003D01*
X134259052Y-100115518D01*
X134215497Y-100093137D01*
X134214235Y-100092573D01*
X134165926Y-100074074D01*
X134164470Y-100073615D01*
X134108613Y-100059625D01*
X134107211Y-100059356D01*
X134041014Y-100050502D01*
X134039824Y-100050400D01*
X133972700Y-100047785D01*
X133972700Y-99872214D01*
X134039824Y-99869599D01*
X134041014Y-99869497D01*
X134107211Y-99860643D01*
X134108613Y-99860374D01*
X134164470Y-99846384D01*
X134165926Y-99845925D01*
X134214235Y-99827426D01*
X134215497Y-99826862D01*
X134259052Y-99804481D01*
X134259912Y-99803996D01*
X134301504Y-99778360D01*
X134301881Y-99778118D01*
X134344239Y-99749899D01*
X134390090Y-99719763D01*
X134442007Y-99688453D01*
X134495236Y-99660501D01*
X134806678Y-99960000D01*
G37*
G04 #@! TD.AperFunction*
D19*
X123636396Y-112478076D02*
X123750192Y-112560940D01*
X123847721Y-112642645D01*
X123935942Y-112721010D01*
X123936165Y-112721204D01*
X124021849Y-112793821D01*
X124022662Y-112794455D01*
X124112633Y-112858938D01*
X124114045Y-112859816D01*
X124215263Y-112913906D01*
X124217086Y-112914703D01*
X124336517Y-112956137D01*
X124338389Y-112956631D01*
X124482993Y-112983150D01*
X124484614Y-112983340D01*
X124649326Y-112992046D01*
X124649326Y-113167937D01*
X124479983Y-113176653D01*
X124478420Y-113176831D01*
X124329690Y-113203185D01*
X124327908Y-113203636D01*
X124204618Y-113244523D01*
X124202902Y-113245235D01*
X124097834Y-113298172D01*
X124096520Y-113298936D01*
X124002455Y-113361438D01*
X124001730Y-113361957D01*
X123911451Y-113431540D01*
X123911322Y-113431641D01*
X123817809Y-113505663D01*
X123714013Y-113581542D01*
X123592703Y-113656890D01*
X123454272Y-113725549D01*
X122791603Y-113035816D01*
X123506715Y-112400604D01*
X123636396Y-112478076D01*
G04 #@! TA.AperFunction,Conductor*
D18*
G36*
X123636396Y-112478076D02*
G01*
X123750192Y-112560940D01*
X123847721Y-112642645D01*
X123935942Y-112721010D01*
X123936165Y-112721204D01*
X124021849Y-112793821D01*
X124022662Y-112794455D01*
X124112633Y-112858938D01*
X124114045Y-112859816D01*
X124215263Y-112913906D01*
X124217086Y-112914703D01*
X124336517Y-112956137D01*
X124338389Y-112956631D01*
X124482993Y-112983150D01*
X124484614Y-112983340D01*
X124649326Y-112992046D01*
X124649326Y-113167937D01*
X124479983Y-113176653D01*
X124478420Y-113176831D01*
X124329690Y-113203185D01*
X124327908Y-113203636D01*
X124204618Y-113244523D01*
X124202902Y-113245235D01*
X124097834Y-113298172D01*
X124096520Y-113298936D01*
X124002455Y-113361438D01*
X124001730Y-113361957D01*
X123911451Y-113431540D01*
X123911322Y-113431641D01*
X123817809Y-113505663D01*
X123714013Y-113581542D01*
X123592703Y-113656890D01*
X123454272Y-113725549D01*
X122791603Y-113035816D01*
X123506715Y-112400604D01*
X123636396Y-112478076D01*
G37*
G04 #@! TD.AperFunction*
D19*
X123592971Y-106943229D02*
X123714468Y-107018630D01*
X123818433Y-107094524D01*
X123912115Y-107168540D01*
X123912246Y-107168642D01*
X124002694Y-107238200D01*
X124003419Y-107238719D01*
X124097658Y-107301186D01*
X124098972Y-107301948D01*
X124204224Y-107354844D01*
X124205938Y-107355553D01*
X124329428Y-107396404D01*
X124331207Y-107396853D01*
X124480157Y-107423179D01*
X124481716Y-107423356D01*
X124651300Y-107432064D01*
X124651300Y-107607952D01*
X124486329Y-107616651D01*
X124484712Y-107616840D01*
X124339875Y-107643339D01*
X124338007Y-107643830D01*
X124218365Y-107685238D01*
X124216545Y-107686033D01*
X124115130Y-107740094D01*
X124113718Y-107740970D01*
X124023562Y-107805430D01*
X124022748Y-107806063D01*
X123936883Y-107878667D01*
X123936658Y-107878862D01*
X123848262Y-107957225D01*
X123750535Y-108038964D01*
X123636547Y-108121875D01*
X123506650Y-108199434D01*
X122791602Y-107564146D01*
X123454342Y-106874481D01*
X123592971Y-106943229D01*
G04 #@! TA.AperFunction,Conductor*
D18*
G36*
X123592971Y-106943229D02*
G01*
X123714468Y-107018630D01*
X123818433Y-107094524D01*
X123912115Y-107168540D01*
X123912246Y-107168642D01*
X124002694Y-107238200D01*
X124003419Y-107238719D01*
X124097658Y-107301186D01*
X124098972Y-107301948D01*
X124204224Y-107354844D01*
X124205938Y-107355553D01*
X124329428Y-107396404D01*
X124331207Y-107396853D01*
X124480157Y-107423179D01*
X124481716Y-107423356D01*
X124651300Y-107432064D01*
X124651300Y-107607952D01*
X124486329Y-107616651D01*
X124484712Y-107616840D01*
X124339875Y-107643339D01*
X124338007Y-107643830D01*
X124218365Y-107685238D01*
X124216545Y-107686033D01*
X124115130Y-107740094D01*
X124113718Y-107740970D01*
X124023562Y-107805430D01*
X124022748Y-107806063D01*
X123936883Y-107878667D01*
X123936658Y-107878862D01*
X123848262Y-107957225D01*
X123750535Y-108038964D01*
X123636547Y-108121875D01*
X123506650Y-108199434D01*
X122791602Y-107564146D01*
X123454342Y-106874481D01*
X123592971Y-106943229D01*
G37*
G04 #@! TD.AperFunction*
D19*
X134988863Y-91629068D02*
X134930633Y-91648556D01*
X134871124Y-91664700D01*
X134816948Y-91677175D01*
X134766467Y-91688428D01*
X134766053Y-91688528D01*
X134718023Y-91700938D01*
X134717113Y-91701209D01*
X134669961Y-91717234D01*
X134668723Y-91717729D01*
X134620880Y-91739824D01*
X134619583Y-91740517D01*
X134569476Y-91771137D01*
X134568342Y-91771917D01*
X134514400Y-91813518D01*
X134513520Y-91814263D01*
X134463140Y-91860986D01*
X134339007Y-91736853D01*
X134384852Y-91687335D01*
X134385615Y-91686430D01*
X134426408Y-91633181D01*
X134427209Y-91632004D01*
X134457022Y-91582440D01*
X134457732Y-91581079D01*
X134478944Y-91533648D01*
X134479447Y-91532333D01*
X134494435Y-91485488D01*
X134494708Y-91484500D01*
X134505848Y-91436688D01*
X134505951Y-91436203D01*
X134515622Y-91385875D01*
X134515621Y-91385875D01*
X134526150Y-91331734D01*
X134539885Y-91272274D01*
X134556757Y-91214222D01*
X134988508Y-91196979D01*
X134988863Y-91629068D01*
G04 #@! TA.AperFunction,Conductor*
D18*
G36*
X134988863Y-91629068D02*
G01*
X134930633Y-91648556D01*
X134871124Y-91664700D01*
X134816948Y-91677175D01*
X134766467Y-91688428D01*
X134766053Y-91688528D01*
X134718023Y-91700938D01*
X134717113Y-91701209D01*
X134669961Y-91717234D01*
X134668723Y-91717729D01*
X134620880Y-91739824D01*
X134619583Y-91740517D01*
X134569476Y-91771137D01*
X134568342Y-91771917D01*
X134514400Y-91813518D01*
X134513520Y-91814263D01*
X134463140Y-91860986D01*
X134339007Y-91736853D01*
X134384852Y-91687335D01*
X134385615Y-91686430D01*
X134426408Y-91633181D01*
X134427209Y-91632004D01*
X134457022Y-91582440D01*
X134457732Y-91581079D01*
X134478944Y-91533648D01*
X134479447Y-91532333D01*
X134494435Y-91485488D01*
X134494708Y-91484500D01*
X134505848Y-91436688D01*
X134505951Y-91436203D01*
X134515622Y-91385875D01*
X134515621Y-91385875D01*
X134526150Y-91331734D01*
X134539885Y-91272274D01*
X134556757Y-91214222D01*
X134988508Y-91196979D01*
X134988863Y-91629068D01*
G37*
G04 #@! TD.AperFunction*
D19*
X148122342Y-102271211D02*
X148064941Y-102289084D01*
X148006075Y-102303659D01*
X147952415Y-102314756D01*
X147902453Y-102324764D01*
X147902014Y-102324860D01*
X147854477Y-102336143D01*
X147853527Y-102336408D01*
X147806903Y-102351381D01*
X147805611Y-102351875D01*
X147758371Y-102372954D01*
X147757017Y-102373659D01*
X147707628Y-102403263D01*
X147706446Y-102404065D01*
X147653377Y-102444613D01*
X147652464Y-102445381D01*
X147603151Y-102490997D01*
X147479003Y-102366849D01*
X147524618Y-102317535D01*
X147525386Y-102316622D01*
X147565934Y-102263553D01*
X147566736Y-102262371D01*
X147596340Y-102212982D01*
X147597045Y-102211628D01*
X147618124Y-102164388D01*
X147618618Y-102163096D01*
X147633591Y-102116472D01*
X147633856Y-102115522D01*
X147645139Y-102067985D01*
X147645235Y-102067546D01*
X147655231Y-102017642D01*
X147666340Y-101963924D01*
X147680914Y-101905063D01*
X147698789Y-101847658D01*
X148130787Y-101839213D01*
X148122342Y-102271211D01*
G04 #@! TA.AperFunction,Conductor*
D18*
G36*
X148122342Y-102271211D02*
G01*
X148064941Y-102289084D01*
X148006075Y-102303659D01*
X147952415Y-102314756D01*
X147902453Y-102324764D01*
X147902014Y-102324860D01*
X147854477Y-102336143D01*
X147853527Y-102336408D01*
X147806903Y-102351381D01*
X147805611Y-102351875D01*
X147758371Y-102372954D01*
X147757017Y-102373659D01*
X147707628Y-102403263D01*
X147706446Y-102404065D01*
X147653377Y-102444613D01*
X147652464Y-102445381D01*
X147603151Y-102490997D01*
X147479003Y-102366849D01*
X147524618Y-102317535D01*
X147525386Y-102316622D01*
X147565934Y-102263553D01*
X147566736Y-102262371D01*
X147596340Y-102212982D01*
X147597045Y-102211628D01*
X147618124Y-102164388D01*
X147618618Y-102163096D01*
X147633591Y-102116472D01*
X147633856Y-102115522D01*
X147645139Y-102067985D01*
X147645235Y-102067546D01*
X147655231Y-102017642D01*
X147666340Y-101963924D01*
X147680914Y-101905063D01*
X147698789Y-101847658D01*
X148130787Y-101839213D01*
X148122342Y-102271211D01*
G37*
G04 #@! TD.AperFunction*
D19*
X147433417Y-97424094D02*
X147500274Y-97427866D01*
X147557640Y-97433420D01*
X147608369Y-97440171D01*
X147655282Y-97447538D01*
X147701188Y-97454938D01*
X147701408Y-97454972D01*
X147748865Y-97461771D01*
X147749300Y-97461825D01*
X147801074Y-97467426D01*
X147801622Y-97467474D01*
X147860479Y-97471274D01*
X147861038Y-97471297D01*
X147920140Y-97472501D01*
X148037215Y-97920716D01*
X147608762Y-97912340D01*
X147596415Y-97873086D01*
X147583674Y-97826524D01*
X147583673Y-97826524D01*
X147571569Y-97782039D01*
X147571424Y-97781544D01*
X147558346Y-97740182D01*
X147557944Y-97739088D01*
X147542234Y-97701727D01*
X147541342Y-97699992D01*
X147521335Y-97667494D01*
X147519637Y-97665310D01*
X147493670Y-97638535D01*
X147491096Y-97636492D01*
X147457507Y-97616300D01*
X147454583Y-97615012D01*
X147411708Y-97602266D01*
X147409133Y-97601782D01*
X147366965Y-97598304D01*
X147366965Y-97422925D01*
X147433417Y-97424094D01*
G04 #@! TA.AperFunction,Conductor*
D18*
G36*
X147433417Y-97424094D02*
G01*
X147500274Y-97427866D01*
X147557640Y-97433420D01*
X147608369Y-97440171D01*
X147655282Y-97447538D01*
X147701188Y-97454938D01*
X147701408Y-97454972D01*
X147748865Y-97461771D01*
X147749300Y-97461825D01*
X147801074Y-97467426D01*
X147801622Y-97467474D01*
X147860479Y-97471274D01*
X147861038Y-97471297D01*
X147920140Y-97472501D01*
X148037215Y-97920716D01*
X147608762Y-97912340D01*
X147596415Y-97873086D01*
X147583674Y-97826524D01*
X147583673Y-97826524D01*
X147571569Y-97782039D01*
X147571424Y-97781544D01*
X147558346Y-97740182D01*
X147557944Y-97739088D01*
X147542234Y-97701727D01*
X147541342Y-97699992D01*
X147521335Y-97667494D01*
X147519637Y-97665310D01*
X147493670Y-97638535D01*
X147491096Y-97636492D01*
X147457507Y-97616300D01*
X147454583Y-97615012D01*
X147411708Y-97602266D01*
X147409133Y-97601782D01*
X147366965Y-97598304D01*
X147366965Y-97422925D01*
X147433417Y-97424094D01*
G37*
G04 #@! TD.AperFunction*
D19*
X145189378Y-111952583D02*
X145105736Y-112105144D01*
X145015316Y-112237617D01*
X144924891Y-112350668D01*
X144837203Y-112452364D01*
X144837071Y-112452519D01*
X144755026Y-112550812D01*
X144754442Y-112551568D01*
X144681013Y-112654365D01*
X144680159Y-112655736D01*
X144618159Y-112771138D01*
X144617363Y-112772944D01*
X144569598Y-112909053D01*
X144569097Y-112910932D01*
X144538378Y-113075848D01*
X144538181Y-113077491D01*
X144527965Y-113267300D01*
X144352035Y-113267300D01*
X144341818Y-113077491D01*
X144341621Y-113075848D01*
X144310902Y-112910932D01*
X144310401Y-112909053D01*
X144262636Y-112772944D01*
X144261840Y-112771138D01*
X144199840Y-112655736D01*
X144198986Y-112654365D01*
X144125557Y-112551568D01*
X144124973Y-112550812D01*
X144042928Y-112452519D01*
X144042796Y-112452364D01*
X143955108Y-112350668D01*
X143864683Y-112237617D01*
X143774263Y-112105144D01*
X143690622Y-111952583D01*
X144440000Y-111173322D01*
X145189378Y-111952583D01*
G04 #@! TA.AperFunction,Conductor*
D18*
G36*
X145189378Y-111952583D02*
G01*
X145105736Y-112105144D01*
X145015316Y-112237617D01*
X144924891Y-112350668D01*
X144837203Y-112452364D01*
X144837071Y-112452519D01*
X144755026Y-112550812D01*
X144754442Y-112551568D01*
X144681013Y-112654365D01*
X144680159Y-112655736D01*
X144618159Y-112771138D01*
X144617363Y-112772944D01*
X144569598Y-112909053D01*
X144569097Y-112910932D01*
X144538378Y-113075848D01*
X144538181Y-113077491D01*
X144527965Y-113267300D01*
X144352035Y-113267300D01*
X144341818Y-113077491D01*
X144341621Y-113075848D01*
X144310902Y-112910932D01*
X144310401Y-112909053D01*
X144262636Y-112772944D01*
X144261840Y-112771138D01*
X144199840Y-112655736D01*
X144198986Y-112654365D01*
X144125557Y-112551568D01*
X144124973Y-112550812D01*
X144042928Y-112452519D01*
X144042796Y-112452364D01*
X143955108Y-112350668D01*
X143864683Y-112237617D01*
X143774263Y-112105144D01*
X143690622Y-111952583D01*
X144440000Y-111173322D01*
X145189378Y-111952583D01*
G37*
G04 #@! TD.AperFunction*
D19*
X137580197Y-91481615D02*
X137549449Y-91533117D01*
X137515603Y-91583567D01*
X137483564Y-91628289D01*
X137483543Y-91628317D01*
X137453921Y-91669908D01*
X137453604Y-91670375D01*
X137427054Y-91711394D01*
X137426501Y-91712336D01*
X137403566Y-91755503D01*
X137402953Y-91756838D01*
X137384173Y-91804872D01*
X137383690Y-91806378D01*
X137369605Y-91861999D01*
X137369329Y-91863428D01*
X137360482Y-91929356D01*
X137360379Y-91930552D01*
X137357784Y-91997300D01*
X137182245Y-91997300D01*
X137179681Y-91927114D01*
X137179591Y-91926005D01*
X137170993Y-91857108D01*
X137170762Y-91855809D01*
X137157231Y-91797520D01*
X137156839Y-91796175D01*
X137139026Y-91745577D01*
X137138550Y-91744412D01*
X137117108Y-91698587D01*
X137116708Y-91697803D01*
X137092291Y-91653834D01*
X137092108Y-91653515D01*
X137065367Y-91608485D01*
X137037152Y-91559817D01*
X137008018Y-91504475D01*
X136982155Y-91447431D01*
X137298938Y-91153578D01*
X137580197Y-91481615D01*
G04 #@! TA.AperFunction,Conductor*
D18*
G36*
X137580197Y-91481615D02*
G01*
X137549449Y-91533117D01*
X137515603Y-91583567D01*
X137483564Y-91628289D01*
X137483543Y-91628317D01*
X137453921Y-91669908D01*
X137453604Y-91670375D01*
X137427054Y-91711394D01*
X137426501Y-91712336D01*
X137403566Y-91755503D01*
X137402953Y-91756838D01*
X137384173Y-91804872D01*
X137383690Y-91806378D01*
X137369605Y-91861999D01*
X137369329Y-91863428D01*
X137360482Y-91929356D01*
X137360379Y-91930552D01*
X137357784Y-91997300D01*
X137182245Y-91997300D01*
X137179681Y-91927114D01*
X137179591Y-91926005D01*
X137170993Y-91857108D01*
X137170762Y-91855809D01*
X137157231Y-91797520D01*
X137156839Y-91796175D01*
X137139026Y-91745577D01*
X137138550Y-91744412D01*
X137117108Y-91698587D01*
X137116708Y-91697803D01*
X137092291Y-91653834D01*
X137092108Y-91653515D01*
X137065367Y-91608485D01*
X137037152Y-91559817D01*
X137008018Y-91504475D01*
X136982155Y-91447431D01*
X137298938Y-91153578D01*
X137580197Y-91481615D01*
G37*
G04 #@! TD.AperFunction*
D19*
X146902297Y-93806064D02*
X146799753Y-94225865D01*
X146743463Y-94230848D01*
X146685023Y-94233622D01*
X146631788Y-94235383D01*
X146631506Y-94235395D01*
X146582172Y-94238128D01*
X146581338Y-94238202D01*
X146534610Y-94243896D01*
X146533254Y-94244137D01*
X146487723Y-94254783D01*
X146486056Y-94255295D01*
X146440316Y-94272887D01*
X146438668Y-94273661D01*
X146391308Y-94300191D01*
X146389938Y-94301079D01*
X146339551Y-94338540D01*
X146338534Y-94339381D01*
X146292676Y-94381526D01*
X146168556Y-94257406D01*
X146220131Y-94202347D01*
X146220766Y-94201615D01*
X146267069Y-94143937D01*
X146267721Y-94143049D01*
X146303159Y-94090077D01*
X146303738Y-94089123D01*
X146331120Y-94039210D01*
X146331539Y-94038375D01*
X146353674Y-93989877D01*
X146353894Y-93989364D01*
X146373592Y-93940636D01*
X146373623Y-93940558D01*
X146393619Y-93890141D01*
X146416681Y-93836455D01*
X146445591Y-93777836D01*
X146478866Y-93720017D01*
X146902297Y-93806064D01*
G04 #@! TA.AperFunction,Conductor*
D18*
G36*
X146902297Y-93806064D02*
G01*
X146799753Y-94225865D01*
X146743463Y-94230848D01*
X146685023Y-94233622D01*
X146631788Y-94235383D01*
X146631506Y-94235395D01*
X146582172Y-94238128D01*
X146581338Y-94238202D01*
X146534610Y-94243896D01*
X146533254Y-94244137D01*
X146487723Y-94254783D01*
X146486056Y-94255295D01*
X146440316Y-94272887D01*
X146438668Y-94273661D01*
X146391308Y-94300191D01*
X146389938Y-94301079D01*
X146339551Y-94338540D01*
X146338534Y-94339381D01*
X146292676Y-94381526D01*
X146168556Y-94257406D01*
X146220131Y-94202347D01*
X146220766Y-94201615D01*
X146267069Y-94143937D01*
X146267721Y-94143049D01*
X146303159Y-94090077D01*
X146303738Y-94089123D01*
X146331120Y-94039210D01*
X146331539Y-94038375D01*
X146353674Y-93989877D01*
X146353894Y-93989364D01*
X146373592Y-93940636D01*
X146373623Y-93940558D01*
X146393619Y-93890141D01*
X146416681Y-93836455D01*
X146445591Y-93777836D01*
X146478866Y-93720017D01*
X146902297Y-93806064D01*
G37*
G04 #@! TD.AperFunction*
M02*
