G04 #@! TF.GenerationSoftware,KiCad,Pcbnew,(5.1.8-0-10_14)*
G04 #@! TF.CreationDate,2021-09-02T15:15:19-04:00*
G04 #@! TF.ProjectId,N64D2VGA_Sub_board,4e363444-3256-4474-915f-5375625f626f,1*
G04 #@! TF.SameCoordinates,Original*
G04 #@! TF.FileFunction,Copper,L2,Bot*
G04 #@! TF.FilePolarity,Positive*
%FSLAX46Y46*%
G04 Gerber Fmt 4.6, Leading zero omitted, Abs format (unit mm)*
G04 Created by KiCad (PCBNEW (5.1.8-0-10_14)) date 2021-09-02 15:15:19*
%MOMM*%
%LPD*%
G01*
G04 APERTURE LIST*
G04 #@! TA.AperFunction,ComponentPad*
%ADD10C,0.400000*%
G04 #@! TD*
G04 #@! TA.AperFunction,ViaPad*
%ADD11C,0.508000*%
G04 #@! TD*
G04 #@! TA.AperFunction,Conductor*
%ADD12C,0.254000*%
G04 #@! TD*
G04 #@! TA.AperFunction,Conductor*
%ADD13C,0.152400*%
G04 #@! TD*
G04 APERTURE END LIST*
G04 #@! TA.AperFunction,ComponentPad*
G36*
G01*
X128611340Y-119613880D02*
X128611340Y-118363880D01*
G75*
G02*
X128986340Y-117988880I375000J0D01*
G01*
X129736340Y-117988880D01*
G75*
G02*
X130111340Y-118363880I0J-375000D01*
G01*
X130111340Y-119613880D01*
G75*
G02*
X129736340Y-119988880I-375000J0D01*
G01*
X128986340Y-119988880D01*
G75*
G02*
X128611340Y-119613880I0J375000D01*
G01*
G37*
G04 #@! TD.AperFunction*
D10*
X129351340Y-118298880D03*
G04 #@! TA.AperFunction,ComponentPad*
G36*
G01*
X131031340Y-119613880D02*
X131031340Y-118363880D01*
G75*
G02*
X131406340Y-117988880I375000J0D01*
G01*
X132156340Y-117988880D01*
G75*
G02*
X132531340Y-118363880I0J-375000D01*
G01*
X132531340Y-119613880D01*
G75*
G02*
X132156340Y-119988880I-375000J0D01*
G01*
X131406340Y-119988880D01*
G75*
G02*
X131031340Y-119613880I0J375000D01*
G01*
G37*
G04 #@! TD.AperFunction*
G04 #@! TA.AperFunction,ComponentPad*
G36*
G01*
X133451340Y-119613880D02*
X133451340Y-118363880D01*
G75*
G02*
X133826340Y-117988880I375000J0D01*
G01*
X134576340Y-117988880D01*
G75*
G02*
X134951340Y-118363880I0J-375000D01*
G01*
X134951340Y-119613880D01*
G75*
G02*
X134576340Y-119988880I-375000J0D01*
G01*
X133826340Y-119988880D01*
G75*
G02*
X133451340Y-119613880I0J375000D01*
G01*
G37*
G04 #@! TD.AperFunction*
G04 #@! TA.AperFunction,ComponentPad*
G36*
G01*
X135871340Y-119613880D02*
X135871340Y-118363880D01*
G75*
G02*
X136246340Y-117988880I375000J0D01*
G01*
X136996340Y-117988880D01*
G75*
G02*
X137371340Y-118363880I0J-375000D01*
G01*
X137371340Y-119613880D01*
G75*
G02*
X136996340Y-119988880I-375000J0D01*
G01*
X136246340Y-119988880D01*
G75*
G02*
X135871340Y-119613880I0J375000D01*
G01*
G37*
G04 #@! TD.AperFunction*
G04 #@! TA.AperFunction,ComponentPad*
G36*
G01*
X138291340Y-119613880D02*
X138291340Y-118363880D01*
G75*
G02*
X138666340Y-117988880I375000J0D01*
G01*
X139416340Y-117988880D01*
G75*
G02*
X139791340Y-118363880I0J-375000D01*
G01*
X139791340Y-119613880D01*
G75*
G02*
X139416340Y-119988880I-375000J0D01*
G01*
X138666340Y-119988880D01*
G75*
G02*
X138291340Y-119613880I0J375000D01*
G01*
G37*
G04 #@! TD.AperFunction*
G04 #@! TA.AperFunction,ComponentPad*
G36*
G01*
X140711340Y-119613880D02*
X140711340Y-118363880D01*
G75*
G02*
X141086340Y-117988880I375000J0D01*
G01*
X141836340Y-117988880D01*
G75*
G02*
X142211340Y-118363880I0J-375000D01*
G01*
X142211340Y-119613880D01*
G75*
G02*
X141836340Y-119988880I-375000J0D01*
G01*
X141086340Y-119988880D01*
G75*
G02*
X140711340Y-119613880I0J375000D01*
G01*
G37*
G04 #@! TD.AperFunction*
X131771340Y-118298880D03*
X134191340Y-118298880D03*
X136611340Y-118298880D03*
X139031340Y-118298880D03*
X141451340Y-118298880D03*
D11*
X128091340Y-116380020D03*
X130571340Y-116380020D03*
X132961340Y-116380020D03*
X135404860Y-116380020D03*
X137851340Y-116380020D03*
X140241340Y-116380020D03*
X142611340Y-116380020D03*
D12*
X145214491Y-119062030D02*
X142539922Y-119062030D01*
X142539922Y-118363880D01*
X142526403Y-118226618D01*
X142486365Y-118094631D01*
X142421347Y-117972991D01*
X142333848Y-117866372D01*
X142227229Y-117778873D01*
X142105589Y-117713855D01*
X141973602Y-117673817D01*
X141836340Y-117660298D01*
X141086340Y-117660298D01*
X140949078Y-117673817D01*
X140817091Y-117713855D01*
X140695451Y-117778873D01*
X140588832Y-117866372D01*
X140501333Y-117972991D01*
X140436315Y-118094631D01*
X140396277Y-118226618D01*
X140382758Y-118363880D01*
X140382758Y-119062030D01*
X140119922Y-119062030D01*
X140119922Y-118363880D01*
X140106403Y-118226618D01*
X140066365Y-118094631D01*
X140001347Y-117972991D01*
X139913848Y-117866372D01*
X139807229Y-117778873D01*
X139685589Y-117713855D01*
X139553602Y-117673817D01*
X139416340Y-117660298D01*
X138666340Y-117660298D01*
X138529078Y-117673817D01*
X138397091Y-117713855D01*
X138275451Y-117778873D01*
X138168832Y-117866372D01*
X138081333Y-117972991D01*
X138016315Y-118094631D01*
X137976277Y-118226618D01*
X137962758Y-118363880D01*
X137962758Y-119062030D01*
X135279922Y-119062030D01*
X135279922Y-118363880D01*
X135266403Y-118226618D01*
X135226365Y-118094631D01*
X135161347Y-117972991D01*
X135073848Y-117866372D01*
X134967229Y-117778873D01*
X134845589Y-117713855D01*
X134713602Y-117673817D01*
X134576340Y-117660298D01*
X133826340Y-117660298D01*
X133689078Y-117673817D01*
X133557091Y-117713855D01*
X133435451Y-117778873D01*
X133328832Y-117866372D01*
X133241333Y-117972991D01*
X133176315Y-118094631D01*
X133136277Y-118226618D01*
X133122758Y-118363880D01*
X133122758Y-119062030D01*
X132859922Y-119062030D01*
X132859922Y-118363880D01*
X132846403Y-118226618D01*
X132806365Y-118094631D01*
X132741347Y-117972991D01*
X132653848Y-117866372D01*
X132547229Y-117778873D01*
X132425589Y-117713855D01*
X132293602Y-117673817D01*
X132156340Y-117660298D01*
X131406340Y-117660298D01*
X131269078Y-117673817D01*
X131137091Y-117713855D01*
X131015451Y-117778873D01*
X130908832Y-117866372D01*
X130821333Y-117972991D01*
X130756315Y-118094631D01*
X130716277Y-118226618D01*
X130702758Y-118363880D01*
X130702758Y-119062030D01*
X130439922Y-119062030D01*
X130439922Y-118363880D01*
X130426403Y-118226618D01*
X130386365Y-118094631D01*
X130321347Y-117972991D01*
X130233848Y-117866372D01*
X130127229Y-117778873D01*
X130005589Y-117713855D01*
X129873602Y-117673817D01*
X129736340Y-117660298D01*
X128986340Y-117660298D01*
X128849078Y-117673817D01*
X128717091Y-117713855D01*
X128595451Y-117778873D01*
X128488832Y-117866372D01*
X128401333Y-117972991D01*
X128336315Y-118094631D01*
X128296277Y-118226618D01*
X128282758Y-118363880D01*
X128282758Y-119062030D01*
X125628190Y-119062030D01*
X125628190Y-111955730D01*
X145214490Y-111955730D01*
X145214491Y-119062030D01*
G04 #@! TA.AperFunction,Conductor*
D13*
G36*
X145214491Y-119062030D02*
G01*
X142539922Y-119062030D01*
X142539922Y-118363880D01*
X142526403Y-118226618D01*
X142486365Y-118094631D01*
X142421347Y-117972991D01*
X142333848Y-117866372D01*
X142227229Y-117778873D01*
X142105589Y-117713855D01*
X141973602Y-117673817D01*
X141836340Y-117660298D01*
X141086340Y-117660298D01*
X140949078Y-117673817D01*
X140817091Y-117713855D01*
X140695451Y-117778873D01*
X140588832Y-117866372D01*
X140501333Y-117972991D01*
X140436315Y-118094631D01*
X140396277Y-118226618D01*
X140382758Y-118363880D01*
X140382758Y-119062030D01*
X140119922Y-119062030D01*
X140119922Y-118363880D01*
X140106403Y-118226618D01*
X140066365Y-118094631D01*
X140001347Y-117972991D01*
X139913848Y-117866372D01*
X139807229Y-117778873D01*
X139685589Y-117713855D01*
X139553602Y-117673817D01*
X139416340Y-117660298D01*
X138666340Y-117660298D01*
X138529078Y-117673817D01*
X138397091Y-117713855D01*
X138275451Y-117778873D01*
X138168832Y-117866372D01*
X138081333Y-117972991D01*
X138016315Y-118094631D01*
X137976277Y-118226618D01*
X137962758Y-118363880D01*
X137962758Y-119062030D01*
X135279922Y-119062030D01*
X135279922Y-118363880D01*
X135266403Y-118226618D01*
X135226365Y-118094631D01*
X135161347Y-117972991D01*
X135073848Y-117866372D01*
X134967229Y-117778873D01*
X134845589Y-117713855D01*
X134713602Y-117673817D01*
X134576340Y-117660298D01*
X133826340Y-117660298D01*
X133689078Y-117673817D01*
X133557091Y-117713855D01*
X133435451Y-117778873D01*
X133328832Y-117866372D01*
X133241333Y-117972991D01*
X133176315Y-118094631D01*
X133136277Y-118226618D01*
X133122758Y-118363880D01*
X133122758Y-119062030D01*
X132859922Y-119062030D01*
X132859922Y-118363880D01*
X132846403Y-118226618D01*
X132806365Y-118094631D01*
X132741347Y-117972991D01*
X132653848Y-117866372D01*
X132547229Y-117778873D01*
X132425589Y-117713855D01*
X132293602Y-117673817D01*
X132156340Y-117660298D01*
X131406340Y-117660298D01*
X131269078Y-117673817D01*
X131137091Y-117713855D01*
X131015451Y-117778873D01*
X130908832Y-117866372D01*
X130821333Y-117972991D01*
X130756315Y-118094631D01*
X130716277Y-118226618D01*
X130702758Y-118363880D01*
X130702758Y-119062030D01*
X130439922Y-119062030D01*
X130439922Y-118363880D01*
X130426403Y-118226618D01*
X130386365Y-118094631D01*
X130321347Y-117972991D01*
X130233848Y-117866372D01*
X130127229Y-117778873D01*
X130005589Y-117713855D01*
X129873602Y-117673817D01*
X129736340Y-117660298D01*
X128986340Y-117660298D01*
X128849078Y-117673817D01*
X128717091Y-117713855D01*
X128595451Y-117778873D01*
X128488832Y-117866372D01*
X128401333Y-117972991D01*
X128336315Y-118094631D01*
X128296277Y-118226618D01*
X128282758Y-118363880D01*
X128282758Y-119062030D01*
X125628190Y-119062030D01*
X125628190Y-111955730D01*
X145214490Y-111955730D01*
X145214491Y-119062030D01*
G37*
G04 #@! TD.AperFunction*
M02*
