G04 #@! TF.GenerationSoftware,KiCad,Pcbnew,(6.0.6-0)*
G04 #@! TF.CreationDate,2023-01-30T15:29:15-05:00*
G04 #@! TF.ProjectId,SNES2VGA,534e4553-3256-4474-912e-6b696361645f,1*
G04 #@! TF.SameCoordinates,Original*
G04 #@! TF.FileFunction,Legend,Bot*
G04 #@! TF.FilePolarity,Positive*
%FSLAX46Y46*%
G04 Gerber Fmt 4.6, Leading zero omitted, Abs format (unit mm)*
G04 Created by KiCad (PCBNEW (6.0.6-0)) date 2023-01-30 15:29:15*
%MOMM*%
%LPD*%
G01*
G04 APERTURE LIST*
G04 Aperture macros list*
%AMRoundRect*
0 Rectangle with rounded corners*
0 $1 Rounding radius*
0 $2 $3 $4 $5 $6 $7 $8 $9 X,Y pos of 4 corners*
0 Add a 4 corners polygon primitive as box body*
4,1,4,$2,$3,$4,$5,$6,$7,$8,$9,$2,$3,0*
0 Add four circle primitives for the rounded corners*
1,1,$1+$1,$2,$3*
1,1,$1+$1,$4,$5*
1,1,$1+$1,$6,$7*
1,1,$1+$1,$8,$9*
0 Add four rect primitives between the rounded corners*
20,1,$1+$1,$2,$3,$4,$5,0*
20,1,$1+$1,$4,$5,$6,$7,0*
20,1,$1+$1,$6,$7,$8,$9,0*
20,1,$1+$1,$8,$9,$2,$3,0*%
G04 Aperture macros list end*
%ADD10C,0.100000*%
%ADD11C,0.127000*%
%ADD12C,0.200000*%
%ADD13C,0.150000*%
%ADD14C,0.098425*%
%ADD15C,0.350000*%
%ADD16RoundRect,0.050800X-0.910000X0.600000X-0.910000X-0.600000X0.910000X-0.600000X0.910000X0.600000X0*%
%ADD17O,1.609600X3.117600*%
%ADD18RoundRect,0.525800X-0.475000X-1.125000X0.475000X-1.125000X0.475000X1.125000X-0.475000X1.125000X0*%
%ADD19C,1.801600*%
%ADD20C,4.167600*%
%ADD21RoundRect,0.050800X-0.850000X-0.850000X0.850000X-0.850000X0.850000X0.850000X-0.850000X0.850000X0*%
G04 APERTURE END LIST*
D10*
X153729047Y-102772380D02*
X153657619Y-102796190D01*
X153538571Y-102796190D01*
X153490952Y-102772380D01*
X153467142Y-102748571D01*
X153443333Y-102700952D01*
X153443333Y-102653333D01*
X153467142Y-102605714D01*
X153490952Y-102581904D01*
X153538571Y-102558095D01*
X153633809Y-102534285D01*
X153681428Y-102510476D01*
X153705238Y-102486666D01*
X153729047Y-102439047D01*
X153729047Y-102391428D01*
X153705238Y-102343809D01*
X153681428Y-102320000D01*
X153633809Y-102296190D01*
X153514761Y-102296190D01*
X153443333Y-102320000D01*
X153133809Y-102558095D02*
X153133809Y-102796190D01*
X153300476Y-102296190D02*
X153133809Y-102558095D01*
X152967142Y-102296190D01*
X152800476Y-102796190D02*
X152800476Y-102296190D01*
X152514761Y-102796190D01*
X152514761Y-102296190D01*
X151990952Y-102748571D02*
X152014761Y-102772380D01*
X152086190Y-102796190D01*
X152133809Y-102796190D01*
X152205238Y-102772380D01*
X152252857Y-102724761D01*
X152276666Y-102677142D01*
X152300476Y-102581904D01*
X152300476Y-102510476D01*
X152276666Y-102415238D01*
X152252857Y-102367619D01*
X152205238Y-102320000D01*
X152133809Y-102296190D01*
X152086190Y-102296190D01*
X152014761Y-102320000D01*
X151990952Y-102343809D01*
X153397619Y-97586190D02*
X153397619Y-97086190D01*
X153207142Y-97086190D01*
X153159523Y-97110000D01*
X153135714Y-97133809D01*
X153111904Y-97181428D01*
X153111904Y-97252857D01*
X153135714Y-97300476D01*
X153159523Y-97324285D01*
X153207142Y-97348095D01*
X153397619Y-97348095D01*
X152921428Y-97443333D02*
X152683333Y-97443333D01*
X152969047Y-97586190D02*
X152802380Y-97086190D01*
X152635714Y-97586190D01*
X152230952Y-97586190D02*
X152469047Y-97586190D01*
X152469047Y-97086190D01*
X151177619Y-104816190D02*
X151177619Y-104316190D01*
X150987142Y-104316190D01*
X150939523Y-104340000D01*
X150915714Y-104363809D01*
X150891904Y-104411428D01*
X150891904Y-104482857D01*
X150915714Y-104530476D01*
X150939523Y-104554285D01*
X150987142Y-104578095D01*
X151177619Y-104578095D01*
X150701428Y-104673333D02*
X150463333Y-104673333D01*
X150749047Y-104816190D02*
X150582380Y-104316190D01*
X150415714Y-104816190D01*
X150010952Y-104816190D02*
X150249047Y-104816190D01*
X150249047Y-104316190D01*
D11*
X151440000Y-97530000D02*
X151440000Y-102870000D01*
X149696190Y-94801904D02*
X149696190Y-95373333D01*
X149734285Y-95487619D01*
X149810476Y-95563809D01*
X149924761Y-95601904D01*
X150000952Y-95601904D01*
X149010476Y-95563809D02*
X149086666Y-95601904D01*
X149239047Y-95601904D01*
X149315238Y-95563809D01*
X149353333Y-95487619D01*
X149353333Y-95182857D01*
X149315238Y-95106666D01*
X149239047Y-95068571D01*
X149086666Y-95068571D01*
X149010476Y-95106666D01*
X148972380Y-95182857D01*
X148972380Y-95259047D01*
X149353333Y-95335238D01*
X148743809Y-95068571D02*
X148439047Y-95068571D01*
X148629523Y-95601904D02*
X148629523Y-94916190D01*
X148591428Y-94840000D01*
X148515238Y-94801904D01*
X148439047Y-94801904D01*
X148286666Y-95068571D02*
X147981904Y-95068571D01*
X148172380Y-95601904D02*
X148172380Y-94916190D01*
X148134285Y-94840000D01*
X148058095Y-94801904D01*
X147981904Y-94801904D01*
X146648571Y-95525714D02*
X146686666Y-95563809D01*
X146800952Y-95601904D01*
X146877142Y-95601904D01*
X146991428Y-95563809D01*
X147067619Y-95487619D01*
X147105714Y-95411428D01*
X147143809Y-95259047D01*
X147143809Y-95144761D01*
X147105714Y-94992380D01*
X147067619Y-94916190D01*
X146991428Y-94840000D01*
X146877142Y-94801904D01*
X146800952Y-94801904D01*
X146686666Y-94840000D01*
X146648571Y-94878095D01*
X146305714Y-95601904D02*
X146305714Y-94801904D01*
X145962857Y-95601904D02*
X145962857Y-95182857D01*
X146000952Y-95106666D01*
X146077142Y-95068571D01*
X146191428Y-95068571D01*
X146267619Y-95106666D01*
X146305714Y-95144761D01*
X145277142Y-95563809D02*
X145353333Y-95601904D01*
X145505714Y-95601904D01*
X145581904Y-95563809D01*
X145620000Y-95487619D01*
X145620000Y-95182857D01*
X145581904Y-95106666D01*
X145505714Y-95068571D01*
X145353333Y-95068571D01*
X145277142Y-95106666D01*
X145239047Y-95182857D01*
X145239047Y-95259047D01*
X145620000Y-95335238D01*
X144896190Y-95068571D02*
X144896190Y-95601904D01*
X144896190Y-95144761D02*
X144858095Y-95106666D01*
X144781904Y-95068571D01*
X144667619Y-95068571D01*
X144591428Y-95106666D01*
X144553333Y-95182857D01*
X144553333Y-95601904D01*
X144134285Y-95563809D02*
X144134285Y-95601904D01*
X144172380Y-95678095D01*
X144210476Y-95716190D01*
X143220000Y-94878095D02*
X143181904Y-94840000D01*
X143105714Y-94801904D01*
X142915238Y-94801904D01*
X142839047Y-94840000D01*
X142800952Y-94878095D01*
X142762857Y-94954285D01*
X142762857Y-95030476D01*
X142800952Y-95144761D01*
X143258095Y-95601904D01*
X142762857Y-95601904D01*
X142267619Y-94801904D02*
X142191428Y-94801904D01*
X142115238Y-94840000D01*
X142077142Y-94878095D01*
X142039047Y-94954285D01*
X142000952Y-95106666D01*
X142000952Y-95297142D01*
X142039047Y-95449523D01*
X142077142Y-95525714D01*
X142115238Y-95563809D01*
X142191428Y-95601904D01*
X142267619Y-95601904D01*
X142343809Y-95563809D01*
X142381904Y-95525714D01*
X142420000Y-95449523D01*
X142458095Y-95297142D01*
X142458095Y-95106666D01*
X142420000Y-94954285D01*
X142381904Y-94878095D01*
X142343809Y-94840000D01*
X142267619Y-94801904D01*
X141696190Y-94878095D02*
X141658095Y-94840000D01*
X141581904Y-94801904D01*
X141391428Y-94801904D01*
X141315238Y-94840000D01*
X141277142Y-94878095D01*
X141239047Y-94954285D01*
X141239047Y-95030476D01*
X141277142Y-95144761D01*
X141734285Y-95601904D01*
X141239047Y-95601904D01*
X140477142Y-95601904D02*
X140934285Y-95601904D01*
X140705714Y-95601904D02*
X140705714Y-94801904D01*
X140781904Y-94916190D01*
X140858095Y-94992380D01*
X140934285Y-95030476D01*
D12*
X145105714Y-93395714D02*
X144934285Y-93452857D01*
X144648571Y-93452857D01*
X144534285Y-93395714D01*
X144477142Y-93338571D01*
X144420000Y-93224285D01*
X144420000Y-93110000D01*
X144477142Y-92995714D01*
X144534285Y-92938571D01*
X144648571Y-92881428D01*
X144877142Y-92824285D01*
X144991428Y-92767142D01*
X145048571Y-92710000D01*
X145105714Y-92595714D01*
X145105714Y-92481428D01*
X145048571Y-92367142D01*
X144991428Y-92310000D01*
X144877142Y-92252857D01*
X144591428Y-92252857D01*
X144420000Y-92310000D01*
X143905714Y-93452857D02*
X143905714Y-92252857D01*
X143220000Y-93452857D01*
X143220000Y-92252857D01*
X142648571Y-92824285D02*
X142248571Y-92824285D01*
X142077142Y-93452857D02*
X142648571Y-93452857D01*
X142648571Y-92252857D01*
X142077142Y-92252857D01*
X141620000Y-93395714D02*
X141448571Y-93452857D01*
X141162857Y-93452857D01*
X141048571Y-93395714D01*
X140991428Y-93338571D01*
X140934285Y-93224285D01*
X140934285Y-93110000D01*
X140991428Y-92995714D01*
X141048571Y-92938571D01*
X141162857Y-92881428D01*
X141391428Y-92824285D01*
X141505714Y-92767142D01*
X141562857Y-92710000D01*
X141620000Y-92595714D01*
X141620000Y-92481428D01*
X141562857Y-92367142D01*
X141505714Y-92310000D01*
X141391428Y-92252857D01*
X141105714Y-92252857D01*
X140934285Y-92310000D01*
X140477142Y-92367142D02*
X140420000Y-92310000D01*
X140305714Y-92252857D01*
X140020000Y-92252857D01*
X139905714Y-92310000D01*
X139848571Y-92367142D01*
X139791428Y-92481428D01*
X139791428Y-92595714D01*
X139848571Y-92767142D01*
X140534285Y-93452857D01*
X139791428Y-93452857D01*
X139448571Y-92252857D02*
X139048571Y-93452857D01*
X138648571Y-92252857D01*
X137620000Y-92310000D02*
X137734285Y-92252857D01*
X137905714Y-92252857D01*
X138077142Y-92310000D01*
X138191428Y-92424285D01*
X138248571Y-92538571D01*
X138305714Y-92767142D01*
X138305714Y-92938571D01*
X138248571Y-93167142D01*
X138191428Y-93281428D01*
X138077142Y-93395714D01*
X137905714Y-93452857D01*
X137791428Y-93452857D01*
X137620000Y-93395714D01*
X137562857Y-93338571D01*
X137562857Y-92938571D01*
X137791428Y-92938571D01*
X137105714Y-93110000D02*
X136534285Y-93110000D01*
X137220000Y-93452857D02*
X136820000Y-92252857D01*
X136420000Y-93452857D01*
D13*
X131325714Y-96871285D02*
X130861428Y-96871285D01*
X131111428Y-97157000D01*
X131004285Y-97157000D01*
X130932857Y-97192714D01*
X130897142Y-97228428D01*
X130861428Y-97299857D01*
X130861428Y-97478428D01*
X130897142Y-97549857D01*
X130932857Y-97585571D01*
X131004285Y-97621285D01*
X131218571Y-97621285D01*
X131290000Y-97585571D01*
X131325714Y-97549857D01*
X130540000Y-97549857D02*
X130504285Y-97585571D01*
X130540000Y-97621285D01*
X130575714Y-97585571D01*
X130540000Y-97549857D01*
X130540000Y-97621285D01*
X129825714Y-96871285D02*
X130182857Y-96871285D01*
X130218571Y-97228428D01*
X130182857Y-97192714D01*
X130111428Y-97157000D01*
X129932857Y-97157000D01*
X129861428Y-97192714D01*
X129825714Y-97228428D01*
X129790000Y-97299857D01*
X129790000Y-97478428D01*
X129825714Y-97549857D01*
X129861428Y-97585571D01*
X129932857Y-97621285D01*
X130111428Y-97621285D01*
X130182857Y-97585571D01*
X130218571Y-97549857D01*
X129468571Y-97621285D02*
X129468571Y-97121285D01*
X129468571Y-97192714D02*
X129432857Y-97157000D01*
X129361428Y-97121285D01*
X129254285Y-97121285D01*
X129182857Y-97157000D01*
X129147142Y-97228428D01*
X129147142Y-97621285D01*
X129147142Y-97228428D02*
X129111428Y-97157000D01*
X129040000Y-97121285D01*
X128932857Y-97121285D01*
X128861428Y-97157000D01*
X128825714Y-97228428D01*
X128825714Y-97621285D01*
X128468571Y-97621285D02*
X128468571Y-97121285D01*
X128468571Y-97192714D02*
X128432857Y-97157000D01*
X128361428Y-97121285D01*
X128254285Y-97121285D01*
X128182857Y-97157000D01*
X128147142Y-97228428D01*
X128147142Y-97621285D01*
X128147142Y-97228428D02*
X128111428Y-97157000D01*
X128040000Y-97121285D01*
X127932857Y-97121285D01*
X127861428Y-97157000D01*
X127825714Y-97228428D01*
X127825714Y-97621285D01*
X135022142Y-109525535D02*
X134772142Y-110275535D01*
X134522142Y-109525535D01*
X133879285Y-109561250D02*
X133950714Y-109525535D01*
X134057857Y-109525535D01*
X134165000Y-109561250D01*
X134236428Y-109632678D01*
X134272142Y-109704107D01*
X134307857Y-109846964D01*
X134307857Y-109954107D01*
X134272142Y-110096964D01*
X134236428Y-110168392D01*
X134165000Y-110239821D01*
X134057857Y-110275535D01*
X133986428Y-110275535D01*
X133879285Y-110239821D01*
X133843571Y-110204107D01*
X133843571Y-109954107D01*
X133986428Y-109954107D01*
X133557857Y-110061250D02*
X133200714Y-110061250D01*
X133629285Y-110275535D02*
X133379285Y-109525535D01*
X133129285Y-110275535D01*
X131700714Y-110275535D02*
X131736428Y-110275535D01*
X131807857Y-110239821D01*
X131915000Y-110132678D01*
X132093571Y-109918392D01*
X132165000Y-109811250D01*
X132200714Y-109704107D01*
X132200714Y-109632678D01*
X132165000Y-109561250D01*
X132093571Y-109525535D01*
X132057857Y-109525535D01*
X131986428Y-109561250D01*
X131950714Y-109632678D01*
X131950714Y-109668392D01*
X131986428Y-109739821D01*
X132022142Y-109775535D01*
X132236428Y-109918392D01*
X132272142Y-109954107D01*
X132307857Y-110025535D01*
X132307857Y-110132678D01*
X132272142Y-110204107D01*
X132236428Y-110239821D01*
X132165000Y-110275535D01*
X132057857Y-110275535D01*
X131986428Y-110239821D01*
X131950714Y-110204107D01*
X131843571Y-110061250D01*
X131807857Y-109954107D01*
X131807857Y-109882678D01*
X130879285Y-109525535D02*
X130415000Y-109525535D01*
X130665000Y-109811250D01*
X130557857Y-109811250D01*
X130486428Y-109846964D01*
X130450714Y-109882678D01*
X130415000Y-109954107D01*
X130415000Y-110132678D01*
X130450714Y-110204107D01*
X130486428Y-110239821D01*
X130557857Y-110275535D01*
X130772142Y-110275535D01*
X130843571Y-110239821D01*
X130879285Y-110204107D01*
X130093571Y-110204107D02*
X130057857Y-110239821D01*
X130093571Y-110275535D01*
X130129285Y-110239821D01*
X130093571Y-110204107D01*
X130093571Y-110275535D01*
X129379285Y-109525535D02*
X129736428Y-109525535D01*
X129772142Y-109882678D01*
X129736428Y-109846964D01*
X129665000Y-109811250D01*
X129486428Y-109811250D01*
X129415000Y-109846964D01*
X129379285Y-109882678D01*
X129343571Y-109954107D01*
X129343571Y-110132678D01*
X129379285Y-110204107D01*
X129415000Y-110239821D01*
X129486428Y-110275535D01*
X129665000Y-110275535D01*
X129736428Y-110239821D01*
X129772142Y-110204107D01*
X129022142Y-110275535D02*
X129022142Y-109525535D01*
X128772142Y-110061250D01*
X128522142Y-109525535D01*
X128522142Y-110275535D01*
X128165000Y-110275535D02*
X128165000Y-109525535D01*
X127915000Y-110061250D01*
X127665000Y-109525535D01*
X127665000Y-110275535D01*
X134790000Y-110733035D02*
X134647142Y-110733035D01*
X134575714Y-110768750D01*
X134504285Y-110840178D01*
X134468571Y-110983035D01*
X134468571Y-111233035D01*
X134504285Y-111375892D01*
X134575714Y-111447321D01*
X134647142Y-111483035D01*
X134790000Y-111483035D01*
X134861428Y-111447321D01*
X134932857Y-111375892D01*
X134968571Y-111233035D01*
X134968571Y-110983035D01*
X134932857Y-110840178D01*
X134861428Y-110768750D01*
X134790000Y-110733035D01*
X134147142Y-111483035D02*
X134147142Y-110733035D01*
X133718571Y-111483035D01*
X133718571Y-110733035D01*
X132897142Y-110733035D02*
X132468571Y-110733035D01*
X132682857Y-111483035D02*
X132682857Y-110733035D01*
X132218571Y-111483035D02*
X132218571Y-110733035D01*
X132218571Y-111090178D02*
X131790000Y-111090178D01*
X131790000Y-111483035D02*
X131790000Y-110733035D01*
X131432857Y-111483035D02*
X131432857Y-110733035D01*
X131111428Y-111447321D02*
X131004285Y-111483035D01*
X130825714Y-111483035D01*
X130754285Y-111447321D01*
X130718571Y-111411607D01*
X130682857Y-111340178D01*
X130682857Y-111268750D01*
X130718571Y-111197321D01*
X130754285Y-111161607D01*
X130825714Y-111125892D01*
X130968571Y-111090178D01*
X131040000Y-111054464D01*
X131075714Y-111018750D01*
X131111428Y-110947321D01*
X131111428Y-110875892D01*
X131075714Y-110804464D01*
X131040000Y-110768750D01*
X130968571Y-110733035D01*
X130790000Y-110733035D01*
X130682857Y-110768750D01*
X129825714Y-111447321D02*
X129718571Y-111483035D01*
X129540000Y-111483035D01*
X129468571Y-111447321D01*
X129432857Y-111411607D01*
X129397142Y-111340178D01*
X129397142Y-111268750D01*
X129432857Y-111197321D01*
X129468571Y-111161607D01*
X129540000Y-111125892D01*
X129682857Y-111090178D01*
X129754285Y-111054464D01*
X129790000Y-111018750D01*
X129825714Y-110947321D01*
X129825714Y-110875892D01*
X129790000Y-110804464D01*
X129754285Y-110768750D01*
X129682857Y-110733035D01*
X129504285Y-110733035D01*
X129397142Y-110768750D01*
X129075714Y-111483035D02*
X129075714Y-110733035D01*
X128718571Y-111483035D02*
X128718571Y-110733035D01*
X128540000Y-110733035D01*
X128432857Y-110768750D01*
X128361428Y-110840178D01*
X128325714Y-110911607D01*
X128290000Y-111054464D01*
X128290000Y-111161607D01*
X128325714Y-111304464D01*
X128361428Y-111375892D01*
X128432857Y-111447321D01*
X128540000Y-111483035D01*
X128718571Y-111483035D01*
X127968571Y-111090178D02*
X127718571Y-111090178D01*
X127611428Y-111483035D02*
X127968571Y-111483035D01*
X127968571Y-110733035D01*
X127611428Y-110733035D01*
D10*
X149929523Y-97033809D02*
X149905714Y-97010000D01*
X149858095Y-96986190D01*
X149739047Y-96986190D01*
X149691428Y-97010000D01*
X149667619Y-97033809D01*
X149643809Y-97081428D01*
X149643809Y-97129047D01*
X149667619Y-97200476D01*
X149953333Y-97486190D01*
X149643809Y-97486190D01*
X149453333Y-97033809D02*
X149429523Y-97010000D01*
X149381904Y-96986190D01*
X149262857Y-96986190D01*
X149215238Y-97010000D01*
X149191428Y-97033809D01*
X149167619Y-97081428D01*
X149167619Y-97129047D01*
X149191428Y-97200476D01*
X149477142Y-97486190D01*
X149167619Y-97486190D01*
X148858095Y-96986190D02*
X148810476Y-96986190D01*
X148762857Y-97010000D01*
X148739047Y-97033809D01*
X148715238Y-97081428D01*
X148691428Y-97176666D01*
X148691428Y-97295714D01*
X148715238Y-97390952D01*
X148739047Y-97438571D01*
X148762857Y-97462380D01*
X148810476Y-97486190D01*
X148858095Y-97486190D01*
X148905714Y-97462380D01*
X148929523Y-97438571D01*
X148953333Y-97390952D01*
X148977142Y-97295714D01*
X148977142Y-97176666D01*
X148953333Y-97081428D01*
X148929523Y-97033809D01*
X148905714Y-97010000D01*
X148858095Y-96986190D01*
X148262857Y-97152857D02*
X148262857Y-97486190D01*
X148477142Y-97152857D02*
X148477142Y-97414761D01*
X148453333Y-97462380D01*
X148405714Y-97486190D01*
X148334285Y-97486190D01*
X148286666Y-97462380D01*
X148262857Y-97438571D01*
X147858095Y-97224285D02*
X148024761Y-97224285D01*
X148024761Y-97486190D02*
X148024761Y-96986190D01*
X147786666Y-96986190D01*
X150320952Y-102946666D02*
X150344761Y-102922857D01*
X150392380Y-102851428D01*
X150416190Y-102803809D01*
X150440000Y-102732380D01*
X150463809Y-102613333D01*
X150463809Y-102518095D01*
X150440000Y-102399047D01*
X150416190Y-102327619D01*
X150392380Y-102280000D01*
X150344761Y-102208571D01*
X150320952Y-102184761D01*
X150154285Y-102732380D02*
X150082857Y-102756190D01*
X149963809Y-102756190D01*
X149916190Y-102732380D01*
X149892380Y-102708571D01*
X149868571Y-102660952D01*
X149868571Y-102613333D01*
X149892380Y-102565714D01*
X149916190Y-102541904D01*
X149963809Y-102518095D01*
X150059047Y-102494285D01*
X150106666Y-102470476D01*
X150130476Y-102446666D01*
X150154285Y-102399047D01*
X150154285Y-102351428D01*
X150130476Y-102303809D01*
X150106666Y-102280000D01*
X150059047Y-102256190D01*
X149940000Y-102256190D01*
X149868571Y-102280000D01*
X149654285Y-102756190D02*
X149654285Y-102256190D01*
X149440000Y-102756190D02*
X149440000Y-102494285D01*
X149463809Y-102446666D01*
X149511428Y-102422857D01*
X149582857Y-102422857D01*
X149630476Y-102446666D01*
X149654285Y-102470476D01*
X149130476Y-102756190D02*
X149178095Y-102732380D01*
X149201904Y-102708571D01*
X149225714Y-102660952D01*
X149225714Y-102518095D01*
X149201904Y-102470476D01*
X149178095Y-102446666D01*
X149130476Y-102422857D01*
X149059047Y-102422857D01*
X149011428Y-102446666D01*
X148987619Y-102470476D01*
X148963809Y-102518095D01*
X148963809Y-102660952D01*
X148987619Y-102708571D01*
X149011428Y-102732380D01*
X149059047Y-102756190D01*
X149130476Y-102756190D01*
X148749523Y-102756190D02*
X148749523Y-102422857D01*
X148749523Y-102518095D02*
X148725714Y-102470476D01*
X148701904Y-102446666D01*
X148654285Y-102422857D01*
X148606666Y-102422857D01*
X148511428Y-102422857D02*
X148320952Y-102422857D01*
X148440000Y-102256190D02*
X148440000Y-102684761D01*
X148416190Y-102732380D01*
X148368571Y-102756190D01*
X148320952Y-102756190D01*
X147844761Y-102422857D02*
X147654285Y-102422857D01*
X147773333Y-102756190D02*
X147773333Y-102327619D01*
X147749523Y-102280000D01*
X147701904Y-102256190D01*
X147654285Y-102256190D01*
X147416190Y-102756190D02*
X147463809Y-102732380D01*
X147487619Y-102708571D01*
X147511428Y-102660952D01*
X147511428Y-102518095D01*
X147487619Y-102470476D01*
X147463809Y-102446666D01*
X147416190Y-102422857D01*
X147344761Y-102422857D01*
X147297142Y-102446666D01*
X147273333Y-102470476D01*
X147249523Y-102518095D01*
X147249523Y-102660952D01*
X147273333Y-102708571D01*
X147297142Y-102732380D01*
X147344761Y-102756190D01*
X147416190Y-102756190D01*
X147035238Y-102756190D02*
X147035238Y-102422857D01*
X147035238Y-102518095D02*
X147011428Y-102470476D01*
X146987619Y-102446666D01*
X146940000Y-102422857D01*
X146892380Y-102422857D01*
X146344761Y-102756190D02*
X146344761Y-102256190D01*
X146154285Y-102256190D01*
X146106666Y-102280000D01*
X146082857Y-102303809D01*
X146059047Y-102351428D01*
X146059047Y-102422857D01*
X146082857Y-102470476D01*
X146106666Y-102494285D01*
X146154285Y-102518095D01*
X146344761Y-102518095D01*
X145868571Y-102613333D02*
X145630476Y-102613333D01*
X145916190Y-102756190D02*
X145749523Y-102256190D01*
X145582857Y-102756190D01*
X145178095Y-102756190D02*
X145416190Y-102756190D01*
X145416190Y-102256190D01*
X145059047Y-102946666D02*
X145035238Y-102922857D01*
X144987619Y-102851428D01*
X144963809Y-102803809D01*
X144940000Y-102732380D01*
X144916190Y-102613333D01*
X144916190Y-102518095D01*
X144940000Y-102399047D01*
X144963809Y-102327619D01*
X144987619Y-102280000D01*
X145035238Y-102208571D01*
X145059047Y-102184761D01*
D11*
X154310000Y-103150000D02*
X154310000Y-96730000D01*
X143690000Y-103150000D02*
X154310000Y-103150000D01*
X143690000Y-96730000D02*
X143690000Y-103150000D01*
X154310000Y-96730000D02*
X143690000Y-96730000D01*
D14*
X153048571Y-99736666D02*
X153072380Y-99712857D01*
X153096190Y-99641428D01*
X153096190Y-99593809D01*
X153072380Y-99522380D01*
X153024761Y-99474761D01*
X152977142Y-99450952D01*
X152881904Y-99427142D01*
X152810476Y-99427142D01*
X152715238Y-99450952D01*
X152667619Y-99474761D01*
X152620000Y-99522380D01*
X152596190Y-99593809D01*
X152596190Y-99641428D01*
X152620000Y-99712857D01*
X152643809Y-99736666D01*
X152596190Y-100165238D02*
X152596190Y-100070000D01*
X152620000Y-100022380D01*
X152643809Y-99998571D01*
X152715238Y-99950952D01*
X152810476Y-99927142D01*
X153000952Y-99927142D01*
X153048571Y-99950952D01*
X153072380Y-99974761D01*
X153096190Y-100022380D01*
X153096190Y-100117619D01*
X153072380Y-100165238D01*
X153048571Y-100189047D01*
X153000952Y-100212857D01*
X152881904Y-100212857D01*
X152834285Y-100189047D01*
X152810476Y-100165238D01*
X152786666Y-100117619D01*
X152786666Y-100022380D01*
X152810476Y-99974761D01*
X152834285Y-99950952D01*
X152881904Y-99927142D01*
X145318571Y-99736666D02*
X145342380Y-99712857D01*
X145366190Y-99641428D01*
X145366190Y-99593809D01*
X145342380Y-99522380D01*
X145294761Y-99474761D01*
X145247142Y-99450952D01*
X145151904Y-99427142D01*
X145080476Y-99427142D01*
X144985238Y-99450952D01*
X144937619Y-99474761D01*
X144890000Y-99522380D01*
X144866190Y-99593809D01*
X144866190Y-99641428D01*
X144890000Y-99712857D01*
X144913809Y-99736666D01*
X145366190Y-100212857D02*
X145366190Y-99927142D01*
X145366190Y-100070000D02*
X144866190Y-100070000D01*
X144937619Y-100022380D01*
X144985238Y-99974761D01*
X145009047Y-99927142D01*
X147738571Y-99746666D02*
X147762380Y-99722857D01*
X147786190Y-99651428D01*
X147786190Y-99603809D01*
X147762380Y-99532380D01*
X147714761Y-99484761D01*
X147667142Y-99460952D01*
X147571904Y-99437142D01*
X147500476Y-99437142D01*
X147405238Y-99460952D01*
X147357619Y-99484761D01*
X147310000Y-99532380D01*
X147286190Y-99603809D01*
X147286190Y-99651428D01*
X147310000Y-99722857D01*
X147333809Y-99746666D01*
X147333809Y-99937142D02*
X147310000Y-99960952D01*
X147286190Y-100008571D01*
X147286190Y-100127619D01*
X147310000Y-100175238D01*
X147333809Y-100199047D01*
X147381428Y-100222857D01*
X147429047Y-100222857D01*
X147500476Y-100199047D01*
X147786190Y-99913333D01*
X147786190Y-100222857D01*
X150188571Y-99736666D02*
X150212380Y-99712857D01*
X150236190Y-99641428D01*
X150236190Y-99593809D01*
X150212380Y-99522380D01*
X150164761Y-99474761D01*
X150117142Y-99450952D01*
X150021904Y-99427142D01*
X149950476Y-99427142D01*
X149855238Y-99450952D01*
X149807619Y-99474761D01*
X149760000Y-99522380D01*
X149736190Y-99593809D01*
X149736190Y-99641428D01*
X149760000Y-99712857D01*
X149783809Y-99736666D01*
X149736190Y-99903333D02*
X149736190Y-100212857D01*
X149926666Y-100046190D01*
X149926666Y-100117619D01*
X149950476Y-100165238D01*
X149974285Y-100189047D01*
X150021904Y-100212857D01*
X150140952Y-100212857D01*
X150188571Y-100189047D01*
X150212380Y-100165238D01*
X150236190Y-100117619D01*
X150236190Y-99974761D01*
X150212380Y-99927142D01*
X150188571Y-99903333D01*
D11*
X153770000Y-99390000D02*
X153770000Y-100470000D01*
X151970000Y-99390000D02*
X151970000Y-100470000D01*
X144230000Y-99390000D02*
X144230000Y-100470000D01*
X146030000Y-99390000D02*
X146030000Y-100470000D01*
X146660000Y-99390000D02*
X146660000Y-100470000D01*
X148460000Y-99390000D02*
X148460000Y-100470000D01*
X149100000Y-99390000D02*
X149100000Y-100470000D01*
X150900000Y-99390000D02*
X150900000Y-100470000D01*
D15*
X126130000Y-96620000D02*
G75*
G03*
X126130000Y-96620000I-150000J0D01*
G01*
%LPC*%
D16*
X152870000Y-101390000D03*
X152870000Y-98470000D03*
X145130000Y-98470000D03*
X145130000Y-101390000D03*
X147560000Y-98470000D03*
X147560000Y-101390000D03*
X150000000Y-98470000D03*
X150000000Y-101390000D03*
D17*
X126550000Y-98550000D03*
X128950000Y-100550000D03*
X132650000Y-98550000D03*
X134450000Y-100550000D03*
X138150000Y-98550000D03*
D18*
X146980000Y-90140000D03*
X144560000Y-90140000D03*
X142140000Y-90140000D03*
X139720000Y-90140000D03*
X137300000Y-90140000D03*
X134880000Y-90140000D03*
D19*
X145505000Y-108980000D03*
X143215000Y-108980000D03*
X140925000Y-108980000D03*
X138635000Y-108980000D03*
X136345000Y-108980000D03*
X144360000Y-107000000D03*
X142070000Y-107000000D03*
X139780000Y-107000000D03*
X137490000Y-107000000D03*
X135200000Y-107000000D03*
X145505000Y-105020000D03*
X143215000Y-105020000D03*
X140925000Y-105020000D03*
X138635000Y-105020000D03*
D20*
X153420000Y-107000000D03*
X128430000Y-107000000D03*
D21*
X136345000Y-105020000D03*
M02*
