G04 #@! TF.GenerationSoftware,KiCad,Pcbnew,(5.1.10-1-10_14)*
G04 #@! TF.CreationDate,2021-10-23T22:13:39-04:00*
G04 #@! TF.ProjectId,SNES2VGA,534e4553-3256-4474-912e-6b696361645f,1*
G04 #@! TF.SameCoordinates,Original*
G04 #@! TF.FileFunction,Copper,L1,Top*
G04 #@! TF.FilePolarity,Positive*
%FSLAX46Y46*%
G04 Gerber Fmt 4.6, Leading zero omitted, Abs format (unit mm)*
G04 Created by KiCad (PCBNEW (5.1.10-1-10_14)) date 2021-10-23 22:13:39*
%MOMM*%
%LPD*%
G01*
G04 APERTURE LIST*
G04 #@! TA.AperFunction,SMDPad,CuDef*
%ADD10R,0.970000X0.920000*%
G04 #@! TD*
G04 #@! TA.AperFunction,ComponentPad*
%ADD11O,1.508000X3.016000*%
G04 #@! TD*
G04 #@! TA.AperFunction,ComponentPad*
%ADD12C,1.700000*%
G04 #@! TD*
G04 #@! TA.AperFunction,ComponentPad*
%ADD13C,4.066000*%
G04 #@! TD*
G04 #@! TA.AperFunction,ComponentPad*
%ADD14R,1.700000X1.700000*%
G04 #@! TD*
G04 #@! TA.AperFunction,SMDPad,CuDef*
%ADD15R,0.790000X0.930000*%
G04 #@! TD*
G04 #@! TA.AperFunction,SMDPad,CuDef*
%ADD16R,0.930000X0.790000*%
G04 #@! TD*
G04 #@! TA.AperFunction,SMDPad,CuDef*
%ADD17C,0.152400*%
G04 #@! TD*
G04 #@! TA.AperFunction,SMDPad,CuDef*
%ADD18R,1.000000X1.500000*%
G04 #@! TD*
G04 #@! TA.AperFunction,ViaPad*
%ADD19C,0.700000*%
G04 #@! TD*
G04 #@! TA.AperFunction,Conductor*
%ADD20C,0.200000*%
G04 #@! TD*
G04 #@! TA.AperFunction,Conductor*
%ADD21C,0.160000*%
G04 #@! TD*
G04 #@! TA.AperFunction,Conductor*
%ADD22C,0.152400*%
G04 #@! TD*
G04 #@! TA.AperFunction,Conductor*
%ADD23C,0.025400*%
G04 #@! TD*
G04 APERTURE END LIST*
D10*
X132430000Y-103275000D03*
X132430000Y-104825000D03*
X148060000Y-106310000D03*
X148060000Y-107860000D03*
D11*
X126550000Y-98550000D03*
X128950000Y-100550000D03*
X132650000Y-98550000D03*
X134450000Y-100550000D03*
X138150000Y-98550000D03*
G04 #@! TA.AperFunction,ConnectorPad*
G36*
G01*
X146230000Y-95915000D02*
X146230000Y-95165000D01*
G75*
G02*
X146605000Y-94790000I375000J0D01*
G01*
X147355000Y-94790000D01*
G75*
G02*
X147730000Y-95165000I0J-375000D01*
G01*
X147730000Y-95915000D01*
G75*
G02*
X147355000Y-96290000I-375000J0D01*
G01*
X146605000Y-96290000D01*
G75*
G02*
X146230000Y-95915000I0J375000D01*
G01*
G37*
G04 #@! TD.AperFunction*
G04 #@! TA.AperFunction,ConnectorPad*
G36*
G01*
X143810000Y-95915000D02*
X143810000Y-95165000D01*
G75*
G02*
X144185000Y-94790000I375000J0D01*
G01*
X144935000Y-94790000D01*
G75*
G02*
X145310000Y-95165000I0J-375000D01*
G01*
X145310000Y-95915000D01*
G75*
G02*
X144935000Y-96290000I-375000J0D01*
G01*
X144185000Y-96290000D01*
G75*
G02*
X143810000Y-95915000I0J375000D01*
G01*
G37*
G04 #@! TD.AperFunction*
G04 #@! TA.AperFunction,ConnectorPad*
G36*
G01*
X141390000Y-95915000D02*
X141390000Y-95165000D01*
G75*
G02*
X141765000Y-94790000I375000J0D01*
G01*
X142515000Y-94790000D01*
G75*
G02*
X142890000Y-95165000I0J-375000D01*
G01*
X142890000Y-95915000D01*
G75*
G02*
X142515000Y-96290000I-375000J0D01*
G01*
X141765000Y-96290000D01*
G75*
G02*
X141390000Y-95915000I0J375000D01*
G01*
G37*
G04 #@! TD.AperFunction*
G04 #@! TA.AperFunction,ConnectorPad*
G36*
G01*
X138970000Y-95915000D02*
X138970000Y-95165000D01*
G75*
G02*
X139345000Y-94790000I375000J0D01*
G01*
X140095000Y-94790000D01*
G75*
G02*
X140470000Y-95165000I0J-375000D01*
G01*
X140470000Y-95915000D01*
G75*
G02*
X140095000Y-96290000I-375000J0D01*
G01*
X139345000Y-96290000D01*
G75*
G02*
X138970000Y-95915000I0J375000D01*
G01*
G37*
G04 #@! TD.AperFunction*
G04 #@! TA.AperFunction,ConnectorPad*
G36*
G01*
X136550000Y-95915000D02*
X136550000Y-95165000D01*
G75*
G02*
X136925000Y-94790000I375000J0D01*
G01*
X137675000Y-94790000D01*
G75*
G02*
X138050000Y-95165000I0J-375000D01*
G01*
X138050000Y-95915000D01*
G75*
G02*
X137675000Y-96290000I-375000J0D01*
G01*
X136925000Y-96290000D01*
G75*
G02*
X136550000Y-95915000I0J375000D01*
G01*
G37*
G04 #@! TD.AperFunction*
G04 #@! TA.AperFunction,ConnectorPad*
G36*
G01*
X134130000Y-95915000D02*
X134130000Y-95165000D01*
G75*
G02*
X134505000Y-94790000I375000J0D01*
G01*
X135255000Y-94790000D01*
G75*
G02*
X135630000Y-95165000I0J-375000D01*
G01*
X135630000Y-95915000D01*
G75*
G02*
X135255000Y-96290000I-375000J0D01*
G01*
X134505000Y-96290000D01*
G75*
G02*
X134130000Y-95915000I0J375000D01*
G01*
G37*
G04 #@! TD.AperFunction*
D12*
X145505000Y-108980000D03*
X143215000Y-108980000D03*
X140925000Y-108980000D03*
X138635000Y-108980000D03*
X136345000Y-108980000D03*
X144360000Y-107000000D03*
X142070000Y-107000000D03*
X139780000Y-107000000D03*
X137490000Y-107000000D03*
X135200000Y-107000000D03*
X145505000Y-105020000D03*
X143215000Y-105020000D03*
X140925000Y-105020000D03*
X138635000Y-105020000D03*
D13*
X153420000Y-107000000D03*
X128430000Y-107000000D03*
D14*
X136345000Y-105020000D03*
D15*
X144430000Y-101960000D03*
X146070000Y-101960000D03*
D16*
X145130000Y-99840000D03*
X145130000Y-98200000D03*
X147560000Y-99840000D03*
X147560000Y-98200000D03*
X150010000Y-99840000D03*
X150010000Y-98200000D03*
X152270000Y-99840000D03*
X152270000Y-98200000D03*
G04 #@! TA.AperFunction,SMDPad,CuDef*
D17*
G36*
X148640000Y-104050000D02*
G01*
X148090000Y-104050000D01*
X148090000Y-104049398D01*
X148065466Y-104049398D01*
X148016635Y-104044588D01*
X147968510Y-104035016D01*
X147921555Y-104020772D01*
X147876222Y-104001995D01*
X147832949Y-103978864D01*
X147792150Y-103951604D01*
X147754221Y-103920476D01*
X147719524Y-103885779D01*
X147688396Y-103847850D01*
X147661136Y-103807051D01*
X147638005Y-103763778D01*
X147619228Y-103718445D01*
X147604984Y-103671490D01*
X147595412Y-103623365D01*
X147590602Y-103574534D01*
X147590602Y-103550000D01*
X147590000Y-103550000D01*
X147590000Y-103050000D01*
X147590602Y-103050000D01*
X147590602Y-103025466D01*
X147595412Y-102976635D01*
X147604984Y-102928510D01*
X147619228Y-102881555D01*
X147638005Y-102836222D01*
X147661136Y-102792949D01*
X147688396Y-102752150D01*
X147719524Y-102714221D01*
X147754221Y-102679524D01*
X147792150Y-102648396D01*
X147832949Y-102621136D01*
X147876222Y-102598005D01*
X147921555Y-102579228D01*
X147968510Y-102564984D01*
X148016635Y-102555412D01*
X148065466Y-102550602D01*
X148090000Y-102550602D01*
X148090000Y-102550000D01*
X148640000Y-102550000D01*
X148640000Y-104050000D01*
G37*
G04 #@! TD.AperFunction*
G04 #@! TA.AperFunction,SMDPad,CuDef*
G36*
X150690000Y-102550602D02*
G01*
X150714534Y-102550602D01*
X150763365Y-102555412D01*
X150811490Y-102564984D01*
X150858445Y-102579228D01*
X150903778Y-102598005D01*
X150947051Y-102621136D01*
X150987850Y-102648396D01*
X151025779Y-102679524D01*
X151060476Y-102714221D01*
X151091604Y-102752150D01*
X151118864Y-102792949D01*
X151141995Y-102836222D01*
X151160772Y-102881555D01*
X151175016Y-102928510D01*
X151184588Y-102976635D01*
X151189398Y-103025466D01*
X151189398Y-103050000D01*
X151190000Y-103050000D01*
X151190000Y-103550000D01*
X151189398Y-103550000D01*
X151189398Y-103574534D01*
X151184588Y-103623365D01*
X151175016Y-103671490D01*
X151160772Y-103718445D01*
X151141995Y-103763778D01*
X151118864Y-103807051D01*
X151091604Y-103847850D01*
X151060476Y-103885779D01*
X151025779Y-103920476D01*
X150987850Y-103951604D01*
X150947051Y-103978864D01*
X150903778Y-104001995D01*
X150858445Y-104020772D01*
X150811490Y-104035016D01*
X150763365Y-104044588D01*
X150714534Y-104049398D01*
X150690000Y-104049398D01*
X150690000Y-104050000D01*
X150140000Y-104050000D01*
X150140000Y-102550000D01*
X150690000Y-102550000D01*
X150690000Y-102550602D01*
G37*
G04 #@! TD.AperFunction*
D18*
X149390000Y-103300000D03*
D19*
X145760000Y-93900000D03*
X145150000Y-100480000D03*
X147550000Y-100469950D03*
X149430000Y-93380000D03*
X144560000Y-91259991D03*
X150010000Y-100490000D03*
X143010000Y-93850000D03*
X137310000Y-93809998D03*
X137280000Y-91240000D03*
X146200000Y-106939990D03*
X137540000Y-102880000D03*
X139810000Y-103440000D03*
X141470000Y-93030000D03*
D20*
X146960000Y-95470000D02*
X146960000Y-95100000D01*
X146960000Y-95100000D02*
X145760000Y-93900000D01*
X145150000Y-100480000D02*
X145150000Y-99880000D01*
X147550000Y-100470000D02*
X147550000Y-99840000D01*
X144580009Y-91280000D02*
X144560000Y-91259991D01*
X147330000Y-91280000D02*
X144580009Y-91280000D01*
X149430000Y-93380000D02*
X147330000Y-91280000D01*
X150020000Y-100460000D02*
X150020000Y-99820000D01*
X134470000Y-95690000D02*
X132650000Y-95690000D01*
X132650000Y-95690000D02*
X128950000Y-99390000D01*
X128950000Y-99390000D02*
X128950000Y-99720000D01*
X146110000Y-101670000D02*
X148880000Y-101670000D01*
X145880000Y-101900000D02*
X146110000Y-101670000D01*
X148880000Y-101670000D02*
X149390000Y-102180000D01*
X145880000Y-101710000D02*
X145880000Y-101900000D01*
X149360000Y-102190000D02*
X149360000Y-103310000D01*
X151055000Y-101690000D02*
X149860000Y-101690000D01*
X152270000Y-100475000D02*
X151055000Y-101690000D01*
X149860000Y-101690000D02*
X149360000Y-102190000D01*
X152270000Y-99830000D02*
X152270000Y-100475000D01*
X140940000Y-110580000D02*
X140940000Y-109250000D01*
X141490000Y-111130000D02*
X140940000Y-110580000D01*
X140940000Y-109250000D02*
X140660000Y-108970000D01*
X149390000Y-103035000D02*
X149390000Y-110010000D01*
X148270000Y-111130000D02*
X141490000Y-111130000D01*
X149390000Y-110010000D02*
X148270000Y-111130000D01*
X149195000Y-102840000D02*
X149390000Y-103035000D01*
X151000000Y-103350000D02*
X151000000Y-102840000D01*
X152900000Y-103350000D02*
X151000000Y-103350000D01*
X154720000Y-101530000D02*
X152900000Y-103350000D01*
X143820000Y-92630000D02*
X146610000Y-92630000D01*
X153470000Y-96930000D02*
X154720000Y-98180000D01*
X149700000Y-96930000D02*
X153470000Y-96930000D01*
X154720000Y-98180000D02*
X154720000Y-101530000D01*
X149060000Y-95080000D02*
X149060000Y-96290000D01*
X146610000Y-92630000D02*
X149060000Y-95080000D01*
X142480000Y-91290000D02*
X143820000Y-92630000D01*
X149060000Y-96290000D02*
X149700000Y-96930000D01*
X140900000Y-91290000D02*
X142480000Y-91290000D01*
X139710000Y-92480000D02*
X140900000Y-91290000D01*
X139710000Y-95690000D02*
X139710000Y-92480000D01*
X143500000Y-96770000D02*
X143360000Y-96630000D01*
X143500000Y-102617100D02*
X143500000Y-96770000D01*
X143360000Y-96630000D02*
X143360000Y-94200000D01*
X143360000Y-94200000D02*
X143010000Y-93850000D01*
X144142900Y-103260000D02*
X143500000Y-102617100D01*
X147750000Y-103260000D02*
X144142900Y-103260000D01*
X137090000Y-95690000D02*
X137310000Y-95470000D01*
X137310000Y-95470000D02*
X137310000Y-93809998D01*
X139310000Y-97010000D02*
X138510000Y-96210000D01*
X141910000Y-97010000D02*
X139310000Y-97010000D01*
X138510000Y-96210000D02*
X138510000Y-92470000D01*
X142070000Y-106760000D02*
X142070000Y-103000000D01*
X142900000Y-98000000D02*
X141910000Y-97010000D01*
X142900000Y-102170000D02*
X142900000Y-98000000D01*
X138510000Y-92470000D02*
X137280000Y-91240000D01*
X142070000Y-103000000D02*
X142900000Y-102170000D01*
X141820000Y-107010000D02*
X142070000Y-106760000D01*
X144570000Y-96220000D02*
X144060000Y-96730000D01*
X144570000Y-96070000D02*
X144570000Y-96220000D01*
X144060000Y-101670000D02*
X144130000Y-101740000D01*
X144060000Y-96730000D02*
X144060000Y-101670000D01*
X144950000Y-95690000D02*
X144570000Y-96070000D01*
X138620000Y-109250000D02*
X138360000Y-108990000D01*
X138620000Y-109960000D02*
X138620000Y-109250000D01*
X134460000Y-111130000D02*
X137450000Y-111130000D01*
X137450000Y-111130000D02*
X138620000Y-109960000D01*
X132430000Y-109100000D02*
X134460000Y-111130000D01*
X132430000Y-104825000D02*
X132430000Y-109100000D01*
X138150000Y-98550000D02*
X138150000Y-99060000D01*
X138150000Y-99060000D02*
X136480000Y-100730000D01*
X136480000Y-100730000D02*
X136480000Y-101920000D01*
X136480000Y-101920000D02*
X135130000Y-103270000D01*
X135130000Y-103270000D02*
X132390000Y-103270000D01*
X146889990Y-106250000D02*
X146200000Y-106939990D01*
X148020000Y-106250000D02*
X146889990Y-106250000D01*
X148060000Y-107890000D02*
X146980000Y-108970000D01*
X146980000Y-108970000D02*
X145250000Y-108970000D01*
X148060000Y-107860000D02*
X148060000Y-107890000D01*
D21*
X150610001Y-96105744D02*
X150608597Y-96120000D01*
X150614196Y-96176850D01*
X150630779Y-96231515D01*
X150657707Y-96281895D01*
X150693947Y-96326053D01*
X150738105Y-96362293D01*
X150788485Y-96389221D01*
X150843150Y-96405804D01*
X150885755Y-96410000D01*
X150900000Y-96411403D01*
X150914245Y-96410000D01*
X156060000Y-96410000D01*
X156060001Y-111770000D01*
X125840000Y-111770000D01*
X125840000Y-108703272D01*
X126896434Y-108703272D01*
X127133208Y-108989037D01*
X127546167Y-109203810D01*
X127993092Y-109333891D01*
X128456807Y-109374283D01*
X128919491Y-109323432D01*
X129363365Y-109183293D01*
X129726792Y-108989037D01*
X129963566Y-108703272D01*
X128430000Y-107169706D01*
X126896434Y-108703272D01*
X125840000Y-108703272D01*
X125840000Y-107026807D01*
X126055717Y-107026807D01*
X126106568Y-107489491D01*
X126246707Y-107933365D01*
X126440963Y-108296792D01*
X126726728Y-108533566D01*
X128260294Y-107000000D01*
X128599706Y-107000000D01*
X130133272Y-108533566D01*
X130419037Y-108296792D01*
X130633810Y-107883833D01*
X130763891Y-107436908D01*
X130804283Y-106973193D01*
X130753432Y-106510509D01*
X130613293Y-106066635D01*
X130419037Y-105703208D01*
X130133272Y-105466434D01*
X128599706Y-107000000D01*
X128260294Y-107000000D01*
X126726728Y-105466434D01*
X126440963Y-105703208D01*
X126226190Y-106116167D01*
X126096109Y-106563092D01*
X126055717Y-107026807D01*
X125840000Y-107026807D01*
X125840000Y-105296728D01*
X126896434Y-105296728D01*
X128430000Y-106830294D01*
X129963566Y-105296728D01*
X129726792Y-105010963D01*
X129313833Y-104796190D01*
X128866908Y-104666109D01*
X128403193Y-104625717D01*
X127940509Y-104676568D01*
X127496635Y-104816707D01*
X127133208Y-105010963D01*
X126896434Y-105296728D01*
X125840000Y-105296728D01*
X125840000Y-104365000D01*
X131703839Y-104365000D01*
X131703839Y-105285000D01*
X131708473Y-105332048D01*
X131722196Y-105377288D01*
X131744482Y-105418982D01*
X131774473Y-105455527D01*
X131811018Y-105485518D01*
X131852712Y-105507804D01*
X131897952Y-105521527D01*
X131945000Y-105526161D01*
X132053057Y-105526161D01*
X132064304Y-105551317D01*
X132076788Y-105593946D01*
X132086034Y-105653130D01*
X132090000Y-105740455D01*
X132090001Y-109083297D01*
X132088356Y-109100000D01*
X132094920Y-109166651D01*
X132114361Y-109230741D01*
X132145933Y-109289807D01*
X132173529Y-109323432D01*
X132188422Y-109341579D01*
X132201394Y-109352225D01*
X134207779Y-111358612D01*
X134218421Y-111371579D01*
X134231387Y-111382220D01*
X134231393Y-111382226D01*
X134252653Y-111399673D01*
X134270192Y-111414067D01*
X134329258Y-111445639D01*
X134393348Y-111465080D01*
X134443299Y-111470000D01*
X134443307Y-111470000D01*
X134460000Y-111471644D01*
X134476693Y-111470000D01*
X137433307Y-111470000D01*
X137450000Y-111471644D01*
X137466693Y-111470000D01*
X137466701Y-111470000D01*
X137516652Y-111465080D01*
X137580742Y-111445639D01*
X137639808Y-111414067D01*
X137691579Y-111371579D01*
X137702230Y-111358602D01*
X138350465Y-110710366D01*
X138487701Y-110575757D01*
X138604245Y-110466252D01*
X138705688Y-110375135D01*
X138797338Y-110296082D01*
X138884595Y-110222789D01*
X138971007Y-110150479D01*
X138972913Y-110148867D01*
X139062413Y-110072376D01*
X139065964Y-110069281D01*
X139162668Y-109983292D01*
X139166907Y-109979431D01*
X139275272Y-109878336D01*
X139279405Y-109874387D01*
X139324630Y-109830135D01*
X139329834Y-109826658D01*
X139481658Y-109674834D01*
X139600945Y-109496309D01*
X139683112Y-109297941D01*
X139725000Y-109087356D01*
X139725000Y-108872644D01*
X139683112Y-108662059D01*
X139600945Y-108463691D01*
X139481658Y-108285166D01*
X139329834Y-108133342D01*
X139151309Y-108014055D01*
X138952941Y-107931888D01*
X138742356Y-107890000D01*
X138527644Y-107890000D01*
X138317059Y-107931888D01*
X138118691Y-108014055D01*
X137940166Y-108133342D01*
X137788342Y-108285166D01*
X137669055Y-108463691D01*
X137586888Y-108662059D01*
X137545000Y-108872644D01*
X137545000Y-109087356D01*
X137586888Y-109297941D01*
X137669055Y-109496309D01*
X137697056Y-109538215D01*
X137713902Y-109571080D01*
X137720612Y-109583285D01*
X137788530Y-109698750D01*
X137791003Y-109702860D01*
X137856040Y-109808536D01*
X137909710Y-109900678D01*
X137945744Y-109975526D01*
X137962865Y-110030589D01*
X137965774Y-110068101D01*
X137958681Y-110102745D01*
X137932210Y-110153900D01*
X137863149Y-110236019D01*
X137309169Y-110790000D01*
X134600833Y-110790000D01*
X132770000Y-108959169D01*
X132770000Y-108872644D01*
X135255000Y-108872644D01*
X135255000Y-109087356D01*
X135296888Y-109297941D01*
X135379055Y-109496309D01*
X135498342Y-109674834D01*
X135650166Y-109826658D01*
X135828691Y-109945945D01*
X136027059Y-110028112D01*
X136237644Y-110070000D01*
X136452356Y-110070000D01*
X136662941Y-110028112D01*
X136861309Y-109945945D01*
X137039834Y-109826658D01*
X137191658Y-109674834D01*
X137310945Y-109496309D01*
X137393112Y-109297941D01*
X137435000Y-109087356D01*
X137435000Y-108872644D01*
X137393112Y-108662059D01*
X137310945Y-108463691D01*
X137191658Y-108285166D01*
X137039834Y-108133342D01*
X136861309Y-108014055D01*
X136662941Y-107931888D01*
X136452356Y-107890000D01*
X136237644Y-107890000D01*
X136027059Y-107931888D01*
X135828691Y-108014055D01*
X135650166Y-108133342D01*
X135498342Y-108285166D01*
X135379055Y-108463691D01*
X135296888Y-108662059D01*
X135255000Y-108872644D01*
X132770000Y-108872644D01*
X132770000Y-107860311D01*
X134509394Y-107860311D01*
X134603717Y-108024869D01*
X134815117Y-108121505D01*
X135041307Y-108175042D01*
X135273595Y-108183423D01*
X135503055Y-108146327D01*
X135720869Y-108065177D01*
X135796283Y-108024869D01*
X135890606Y-107860311D01*
X136799394Y-107860311D01*
X136893717Y-108024869D01*
X137105117Y-108121505D01*
X137331307Y-108175042D01*
X137563595Y-108183423D01*
X137793055Y-108146327D01*
X138010869Y-108065177D01*
X138086283Y-108024869D01*
X138180606Y-107860311D01*
X139089394Y-107860311D01*
X139183717Y-108024869D01*
X139395117Y-108121505D01*
X139621307Y-108175042D01*
X139853595Y-108183423D01*
X140083055Y-108146327D01*
X140300869Y-108065177D01*
X140376283Y-108024869D01*
X140470606Y-107860311D01*
X139780000Y-107169706D01*
X139089394Y-107860311D01*
X138180606Y-107860311D01*
X137490000Y-107169706D01*
X136799394Y-107860311D01*
X135890606Y-107860311D01*
X135200000Y-107169706D01*
X134509394Y-107860311D01*
X132770000Y-107860311D01*
X132770000Y-107073595D01*
X134016577Y-107073595D01*
X134053673Y-107303055D01*
X134134823Y-107520869D01*
X134175131Y-107596283D01*
X134339689Y-107690606D01*
X135030294Y-107000000D01*
X135369706Y-107000000D01*
X136060311Y-107690606D01*
X136224869Y-107596283D01*
X136321505Y-107384883D01*
X136342537Y-107296026D01*
X136343673Y-107303055D01*
X136424823Y-107520869D01*
X136465131Y-107596283D01*
X136629689Y-107690606D01*
X137320294Y-107000000D01*
X137659706Y-107000000D01*
X138350311Y-107690606D01*
X138514869Y-107596283D01*
X138611505Y-107384883D01*
X138632537Y-107296026D01*
X138633673Y-107303055D01*
X138714823Y-107520869D01*
X138755131Y-107596283D01*
X138919689Y-107690606D01*
X139610294Y-107000000D01*
X139949706Y-107000000D01*
X140640311Y-107690606D01*
X140804869Y-107596283D01*
X140901505Y-107384883D01*
X140955042Y-107158693D01*
X140963423Y-106926405D01*
X140926327Y-106696945D01*
X140845177Y-106479131D01*
X140804869Y-106403717D01*
X140640311Y-106309394D01*
X139949706Y-107000000D01*
X139610294Y-107000000D01*
X138919689Y-106309394D01*
X138755131Y-106403717D01*
X138658495Y-106615117D01*
X138637463Y-106703974D01*
X138636327Y-106696945D01*
X138555177Y-106479131D01*
X138514869Y-106403717D01*
X138350311Y-106309394D01*
X137659706Y-107000000D01*
X137320294Y-107000000D01*
X136629689Y-106309394D01*
X136465131Y-106403717D01*
X136368495Y-106615117D01*
X136347463Y-106703974D01*
X136346327Y-106696945D01*
X136265177Y-106479131D01*
X136224869Y-106403717D01*
X136060311Y-106309394D01*
X135369706Y-107000000D01*
X135030294Y-107000000D01*
X134339689Y-106309394D01*
X134175131Y-106403717D01*
X134078495Y-106615117D01*
X134024958Y-106841307D01*
X134016577Y-107073595D01*
X132770000Y-107073595D01*
X132770000Y-106139689D01*
X134509394Y-106139689D01*
X135200000Y-106830294D01*
X135890606Y-106139689D01*
X135874254Y-106111161D01*
X136815746Y-106111161D01*
X136799394Y-106139689D01*
X137490000Y-106830294D01*
X138180606Y-106139689D01*
X139089394Y-106139689D01*
X139780000Y-106830294D01*
X140470606Y-106139689D01*
X140376283Y-105975131D01*
X140164883Y-105878495D01*
X139938693Y-105824958D01*
X139706405Y-105816577D01*
X139476945Y-105853673D01*
X139259131Y-105934823D01*
X139183717Y-105975131D01*
X139089394Y-106139689D01*
X138180606Y-106139689D01*
X138086283Y-105975131D01*
X137874883Y-105878495D01*
X137648693Y-105824958D01*
X137436161Y-105817290D01*
X137436161Y-104912644D01*
X137545000Y-104912644D01*
X137545000Y-105127356D01*
X137586888Y-105337941D01*
X137669055Y-105536309D01*
X137788342Y-105714834D01*
X137940166Y-105866658D01*
X138118691Y-105985945D01*
X138317059Y-106068112D01*
X138527644Y-106110000D01*
X138742356Y-106110000D01*
X138952941Y-106068112D01*
X139151309Y-105985945D01*
X139329834Y-105866658D01*
X139481658Y-105714834D01*
X139600945Y-105536309D01*
X139683112Y-105337941D01*
X139725000Y-105127356D01*
X139725000Y-104912644D01*
X139683112Y-104702059D01*
X139600945Y-104503691D01*
X139481658Y-104325166D01*
X139329834Y-104173342D01*
X139151309Y-104054055D01*
X138952941Y-103971888D01*
X138742356Y-103930000D01*
X138527644Y-103930000D01*
X138317059Y-103971888D01*
X138118691Y-104054055D01*
X137940166Y-104173342D01*
X137788342Y-104325166D01*
X137669055Y-104503691D01*
X137586888Y-104702059D01*
X137545000Y-104912644D01*
X137436161Y-104912644D01*
X137436161Y-104170000D01*
X137431527Y-104122952D01*
X137417804Y-104077712D01*
X137395518Y-104036018D01*
X137365527Y-103999473D01*
X137328982Y-103969482D01*
X137287288Y-103947196D01*
X137242048Y-103933473D01*
X137195000Y-103928839D01*
X135495000Y-103928839D01*
X135447952Y-103933473D01*
X135402712Y-103947196D01*
X135361018Y-103969482D01*
X135324473Y-103999473D01*
X135294482Y-104036018D01*
X135272196Y-104077712D01*
X135258473Y-104122952D01*
X135253839Y-104170000D01*
X135253839Y-105821175D01*
X135126405Y-105816577D01*
X134896945Y-105853673D01*
X134679131Y-105934823D01*
X134603717Y-105975131D01*
X134509394Y-106139689D01*
X132770000Y-106139689D01*
X132770000Y-105740447D01*
X132773965Y-105653130D01*
X132783211Y-105593946D01*
X132795695Y-105551317D01*
X132806942Y-105526161D01*
X132915000Y-105526161D01*
X132962048Y-105521527D01*
X133007288Y-105507804D01*
X133048982Y-105485518D01*
X133085527Y-105455527D01*
X133115518Y-105418982D01*
X133137804Y-105377288D01*
X133151527Y-105332048D01*
X133156161Y-105285000D01*
X133156161Y-104365000D01*
X133151527Y-104317952D01*
X133137804Y-104272712D01*
X133115518Y-104231018D01*
X133085527Y-104194473D01*
X133048982Y-104164482D01*
X133007288Y-104142196D01*
X132962048Y-104128473D01*
X132915000Y-104123839D01*
X131945000Y-104123839D01*
X131897952Y-104128473D01*
X131852712Y-104142196D01*
X131811018Y-104164482D01*
X131774473Y-104194473D01*
X131744482Y-104231018D01*
X131722196Y-104272712D01*
X131708473Y-104317952D01*
X131703839Y-104365000D01*
X125840000Y-104365000D01*
X125840000Y-102815000D01*
X131703839Y-102815000D01*
X131703839Y-103735000D01*
X131708473Y-103782048D01*
X131722196Y-103827288D01*
X131744482Y-103868982D01*
X131774473Y-103905527D01*
X131811018Y-103935518D01*
X131852712Y-103957804D01*
X131897952Y-103971527D01*
X131945000Y-103976161D01*
X132915000Y-103976161D01*
X132962048Y-103971527D01*
X133007288Y-103957804D01*
X133048982Y-103935518D01*
X133085527Y-103905527D01*
X133115518Y-103868982D01*
X133137804Y-103827288D01*
X133151527Y-103782048D01*
X133156161Y-103735000D01*
X133156161Y-103628721D01*
X133174491Y-103622820D01*
X133226070Y-103613976D01*
X133305960Y-103610000D01*
X135113307Y-103610000D01*
X135130000Y-103611644D01*
X135146693Y-103610000D01*
X135146701Y-103610000D01*
X135196652Y-103605080D01*
X135260742Y-103585639D01*
X135319808Y-103554067D01*
X135371579Y-103511579D01*
X135382229Y-103498602D01*
X136708612Y-102172221D01*
X136721579Y-102161579D01*
X136732220Y-102148613D01*
X136732225Y-102148608D01*
X136764067Y-102109808D01*
X136782630Y-102075080D01*
X136795639Y-102050742D01*
X136815080Y-101986652D01*
X136820000Y-101936701D01*
X136820000Y-101936694D01*
X136821644Y-101920001D01*
X136820000Y-101903308D01*
X136820000Y-100870831D01*
X137573814Y-100117017D01*
X137595092Y-100134479D01*
X137767773Y-100226779D01*
X137955143Y-100283617D01*
X138150000Y-100302809D01*
X138344858Y-100283617D01*
X138532228Y-100226779D01*
X138704909Y-100134479D01*
X138856265Y-100010265D01*
X138980479Y-99858909D01*
X139072779Y-99686228D01*
X139113891Y-99550700D01*
X139131383Y-99638638D01*
X139273169Y-99980940D01*
X139479010Y-100289003D01*
X139740997Y-100550990D01*
X140049060Y-100756831D01*
X140391362Y-100898617D01*
X140754748Y-100970899D01*
X141125252Y-100970899D01*
X141488638Y-100898617D01*
X141830940Y-100756831D01*
X142139003Y-100550990D01*
X142400990Y-100289003D01*
X142560001Y-100051027D01*
X142560000Y-102029167D01*
X141841394Y-102747775D01*
X141828422Y-102758421D01*
X141817776Y-102771393D01*
X141817775Y-102771394D01*
X141785933Y-102810193D01*
X141754361Y-102869259D01*
X141734920Y-102933349D01*
X141728356Y-103000000D01*
X141730001Y-103016703D01*
X141730001Y-104283509D01*
X141619834Y-104173342D01*
X141441309Y-104054055D01*
X141242941Y-103971888D01*
X141032356Y-103930000D01*
X140817644Y-103930000D01*
X140607059Y-103971888D01*
X140408691Y-104054055D01*
X140230166Y-104173342D01*
X140078342Y-104325166D01*
X139959055Y-104503691D01*
X139876888Y-104702059D01*
X139835000Y-104912644D01*
X139835000Y-105127356D01*
X139876888Y-105337941D01*
X139959055Y-105536309D01*
X140078342Y-105714834D01*
X140230166Y-105866658D01*
X140408691Y-105985945D01*
X140607059Y-106068112D01*
X140817644Y-106110000D01*
X141032356Y-106110000D01*
X141242941Y-106068112D01*
X141441309Y-105985945D01*
X141487877Y-105954829D01*
X141480171Y-105964061D01*
X141393562Y-106064505D01*
X141387901Y-106071321D01*
X141297047Y-106184909D01*
X141286242Y-106199518D01*
X141195198Y-106332905D01*
X141182977Y-106352830D01*
X141144046Y-106423840D01*
X141104055Y-106483691D01*
X141021888Y-106682059D01*
X140980000Y-106892644D01*
X140980000Y-107107356D01*
X141021888Y-107317941D01*
X141104055Y-107516309D01*
X141223342Y-107694834D01*
X141375166Y-107846658D01*
X141553691Y-107965945D01*
X141752059Y-108048112D01*
X141962644Y-108090000D01*
X142177356Y-108090000D01*
X142387941Y-108048112D01*
X142586309Y-107965945D01*
X142744400Y-107860311D01*
X143669394Y-107860311D01*
X143763717Y-108024869D01*
X143975117Y-108121505D01*
X144201307Y-108175042D01*
X144433595Y-108183423D01*
X144663055Y-108146327D01*
X144880869Y-108065177D01*
X144956283Y-108024869D01*
X145050606Y-107860311D01*
X144360000Y-107169706D01*
X143669394Y-107860311D01*
X142744400Y-107860311D01*
X142764834Y-107846658D01*
X142916658Y-107694834D01*
X143035945Y-107516309D01*
X143118112Y-107317941D01*
X143160000Y-107107356D01*
X143160000Y-107073595D01*
X143176577Y-107073595D01*
X143213673Y-107303055D01*
X143294823Y-107520869D01*
X143335131Y-107596283D01*
X143499689Y-107690606D01*
X144190294Y-107000000D01*
X144529706Y-107000000D01*
X145220311Y-107690606D01*
X145384869Y-107596283D01*
X145481505Y-107384883D01*
X145535042Y-107158693D01*
X145543423Y-106926405D01*
X145536225Y-106881880D01*
X145610000Y-106881880D01*
X145610000Y-106998100D01*
X145632673Y-107112087D01*
X145677149Y-107219460D01*
X145741717Y-107316093D01*
X145823897Y-107398273D01*
X145920530Y-107462841D01*
X146027903Y-107507317D01*
X146141890Y-107529990D01*
X146258110Y-107529990D01*
X146372097Y-107507317D01*
X146479470Y-107462841D01*
X146576103Y-107398273D01*
X146658283Y-107316093D01*
X146722851Y-107219460D01*
X146767327Y-107112087D01*
X146772932Y-107083910D01*
X146780472Y-107059692D01*
X146784287Y-107046027D01*
X146799011Y-106986560D01*
X146801073Y-106977483D01*
X146812232Y-106923524D01*
X146812530Y-106922057D01*
X146821704Y-106876258D01*
X146829860Y-106841896D01*
X146837978Y-106816619D01*
X146847835Y-106794528D01*
X146863061Y-106769126D01*
X146888556Y-106735759D01*
X146931633Y-106689189D01*
X147030823Y-106590000D01*
X147134402Y-106590000D01*
X147217641Y-106593890D01*
X147272405Y-106602792D01*
X147310028Y-106614431D01*
X147333839Y-106625910D01*
X147333839Y-106770000D01*
X147338473Y-106817048D01*
X147352196Y-106862288D01*
X147374482Y-106903982D01*
X147404473Y-106940527D01*
X147441018Y-106970518D01*
X147482712Y-106992804D01*
X147527952Y-107006527D01*
X147575000Y-107011161D01*
X148545000Y-107011161D01*
X148592048Y-107006527D01*
X148637288Y-106992804D01*
X148678982Y-106970518D01*
X148715527Y-106940527D01*
X148745518Y-106903982D01*
X148767804Y-106862288D01*
X148781527Y-106817048D01*
X148786161Y-106770000D01*
X148786161Y-105850000D01*
X148781527Y-105802952D01*
X148767804Y-105757712D01*
X148745518Y-105716018D01*
X148715527Y-105679473D01*
X148678982Y-105649482D01*
X148637288Y-105627196D01*
X148592048Y-105613473D01*
X148545000Y-105608839D01*
X147575000Y-105608839D01*
X147527952Y-105613473D01*
X147482712Y-105627196D01*
X147441018Y-105649482D01*
X147404473Y-105679473D01*
X147374482Y-105716018D01*
X147352196Y-105757712D01*
X147338473Y-105802952D01*
X147333839Y-105850000D01*
X147333839Y-105887261D01*
X147298689Y-105896400D01*
X147230606Y-105906020D01*
X147135011Y-105910000D01*
X146906682Y-105910000D01*
X146889989Y-105908356D01*
X146873296Y-105910000D01*
X146873289Y-105910000D01*
X146823338Y-105914920D01*
X146759248Y-105934361D01*
X146710030Y-105960669D01*
X146700182Y-105965933D01*
X146661382Y-105997775D01*
X146661377Y-105997780D01*
X146648411Y-106008421D01*
X146637769Y-106021388D01*
X146450805Y-106208353D01*
X146404231Y-106251433D01*
X146370863Y-106276928D01*
X146345461Y-106292154D01*
X146323370Y-106302011D01*
X146298093Y-106310129D01*
X146263731Y-106318285D01*
X146217932Y-106327459D01*
X146216465Y-106327757D01*
X146162506Y-106338916D01*
X146153429Y-106340978D01*
X146093962Y-106355702D01*
X146080293Y-106359519D01*
X146056080Y-106367058D01*
X146027903Y-106372663D01*
X145920530Y-106417139D01*
X145823897Y-106481707D01*
X145741717Y-106563887D01*
X145677149Y-106660520D01*
X145632673Y-106767893D01*
X145610000Y-106881880D01*
X145536225Y-106881880D01*
X145506327Y-106696945D01*
X145425177Y-106479131D01*
X145384869Y-106403717D01*
X145220311Y-106309394D01*
X144529706Y-107000000D01*
X144190294Y-107000000D01*
X143499689Y-106309394D01*
X143335131Y-106403717D01*
X143238495Y-106615117D01*
X143184958Y-106841307D01*
X143176577Y-107073595D01*
X143160000Y-107073595D01*
X143160000Y-106892644D01*
X143118112Y-106682059D01*
X143035945Y-106483691D01*
X142995948Y-106423832D01*
X142957021Y-106352829D01*
X142944801Y-106332905D01*
X142853757Y-106199518D01*
X142842952Y-106184909D01*
X142806783Y-106139689D01*
X143669394Y-106139689D01*
X144360000Y-106830294D01*
X145050606Y-106139689D01*
X145027337Y-106099093D01*
X145120117Y-106141505D01*
X145346307Y-106195042D01*
X145578595Y-106203423D01*
X145808055Y-106166327D01*
X146025869Y-106085177D01*
X146101283Y-106044869D01*
X146195606Y-105880311D01*
X145505000Y-105189706D01*
X144814394Y-105880311D01*
X144837663Y-105920907D01*
X144744883Y-105878495D01*
X144518693Y-105824958D01*
X144286405Y-105816577D01*
X144056945Y-105853673D01*
X143839131Y-105934823D01*
X143763717Y-105975131D01*
X143669394Y-106139689D01*
X142806783Y-106139689D01*
X142752098Y-106071321D01*
X142746437Y-106064505D01*
X142659828Y-105964061D01*
X142652122Y-105954829D01*
X142698691Y-105985945D01*
X142897059Y-106068112D01*
X143107644Y-106110000D01*
X143322356Y-106110000D01*
X143532941Y-106068112D01*
X143731309Y-105985945D01*
X143909834Y-105866658D01*
X144061658Y-105714834D01*
X144180945Y-105536309D01*
X144263112Y-105337941D01*
X144305000Y-105127356D01*
X144305000Y-105093595D01*
X144321577Y-105093595D01*
X144358673Y-105323055D01*
X144439823Y-105540869D01*
X144480131Y-105616283D01*
X144644689Y-105710606D01*
X145335294Y-105020000D01*
X145674706Y-105020000D01*
X146365311Y-105710606D01*
X146529869Y-105616283D01*
X146626505Y-105404883D01*
X146680042Y-105178693D01*
X146688423Y-104946405D01*
X146651327Y-104716945D01*
X146570177Y-104499131D01*
X146529869Y-104423717D01*
X146365311Y-104329394D01*
X145674706Y-105020000D01*
X145335294Y-105020000D01*
X144644689Y-104329394D01*
X144480131Y-104423717D01*
X144383495Y-104635117D01*
X144329958Y-104861307D01*
X144321577Y-105093595D01*
X144305000Y-105093595D01*
X144305000Y-104912644D01*
X144263112Y-104702059D01*
X144180945Y-104503691D01*
X144061658Y-104325166D01*
X143909834Y-104173342D01*
X143889401Y-104159689D01*
X144814394Y-104159689D01*
X145505000Y-104850294D01*
X146195606Y-104159689D01*
X146101283Y-103995131D01*
X145889883Y-103898495D01*
X145663693Y-103844958D01*
X145431405Y-103836577D01*
X145201945Y-103873673D01*
X144984131Y-103954823D01*
X144908717Y-103995131D01*
X144814394Y-104159689D01*
X143889401Y-104159689D01*
X143731309Y-104054055D01*
X143532941Y-103971888D01*
X143322356Y-103930000D01*
X143107644Y-103930000D01*
X142897059Y-103971888D01*
X142698691Y-104054055D01*
X142520166Y-104173342D01*
X142410000Y-104283508D01*
X142410000Y-103140831D01*
X143128617Y-102422216D01*
X143141578Y-102411579D01*
X143152216Y-102398617D01*
X143152225Y-102398608D01*
X143160000Y-102389134D01*
X143160000Y-102600407D01*
X143158356Y-102617100D01*
X143160000Y-102633793D01*
X143160000Y-102633800D01*
X143164920Y-102683751D01*
X143184361Y-102747841D01*
X143215933Y-102806907D01*
X143258421Y-102858678D01*
X143271394Y-102869325D01*
X143890675Y-103488607D01*
X143901321Y-103501579D01*
X143953092Y-103544067D01*
X144012158Y-103575639D01*
X144076248Y-103595080D01*
X144126199Y-103600000D01*
X144126207Y-103600000D01*
X144142900Y-103601644D01*
X144159593Y-103600000D01*
X147351345Y-103600000D01*
X147355881Y-103646057D01*
X147375003Y-103742190D01*
X147388726Y-103787429D01*
X147426235Y-103877985D01*
X147448521Y-103919680D01*
X147502977Y-104001179D01*
X147532968Y-104037724D01*
X147602276Y-104107032D01*
X147638821Y-104137023D01*
X147720320Y-104191479D01*
X147762015Y-104213765D01*
X147852571Y-104251274D01*
X147897810Y-104264997D01*
X147993943Y-104284119D01*
X148040991Y-104288753D01*
X148065552Y-104288753D01*
X148090000Y-104291161D01*
X148640000Y-104291161D01*
X148687048Y-104286527D01*
X148732288Y-104272804D01*
X148765000Y-104255319D01*
X148797712Y-104272804D01*
X148842952Y-104286527D01*
X148890000Y-104291161D01*
X149050000Y-104291161D01*
X149050001Y-109869166D01*
X148129169Y-110790000D01*
X141630833Y-110790000D01*
X141280000Y-110439169D01*
X141280000Y-110151928D01*
X141388209Y-110052318D01*
X141516535Y-109938190D01*
X141524213Y-109931055D01*
X141653411Y-109805629D01*
X141670038Y-109787757D01*
X141729227Y-109717265D01*
X141771658Y-109674834D01*
X141890945Y-109496309D01*
X141973112Y-109297941D01*
X142015000Y-109087356D01*
X142015000Y-108872644D01*
X142125000Y-108872644D01*
X142125000Y-109087356D01*
X142166888Y-109297941D01*
X142249055Y-109496309D01*
X142368342Y-109674834D01*
X142520166Y-109826658D01*
X142698691Y-109945945D01*
X142897059Y-110028112D01*
X143107644Y-110070000D01*
X143322356Y-110070000D01*
X143532941Y-110028112D01*
X143731309Y-109945945D01*
X143909834Y-109826658D01*
X144061658Y-109674834D01*
X144180945Y-109496309D01*
X144263112Y-109297941D01*
X144305000Y-109087356D01*
X144305000Y-108872644D01*
X144415000Y-108872644D01*
X144415000Y-109087356D01*
X144456888Y-109297941D01*
X144539055Y-109496309D01*
X144658342Y-109674834D01*
X144810166Y-109826658D01*
X144988691Y-109945945D01*
X145187059Y-110028112D01*
X145397644Y-110070000D01*
X145612356Y-110070000D01*
X145822941Y-110028112D01*
X146021309Y-109945945D01*
X146124523Y-109876979D01*
X146144235Y-109865176D01*
X146171728Y-109845983D01*
X146175638Y-109842825D01*
X146199834Y-109826658D01*
X146217364Y-109809128D01*
X146278161Y-109760029D01*
X146298187Y-109741903D01*
X146386112Y-109652817D01*
X146396632Y-109641446D01*
X146473518Y-109552766D01*
X146473680Y-109552579D01*
X146541351Y-109474365D01*
X146600267Y-109415415D01*
X146656377Y-109373455D01*
X146720856Y-109342426D01*
X146810583Y-109319876D01*
X146948581Y-109310000D01*
X146963307Y-109310000D01*
X146980000Y-109311644D01*
X146996693Y-109310000D01*
X146996701Y-109310000D01*
X147046652Y-109305080D01*
X147110742Y-109285639D01*
X147169808Y-109254067D01*
X147221579Y-109211579D01*
X147232230Y-109198602D01*
X147660324Y-108770507D01*
X147727818Y-108708626D01*
X147779413Y-108670381D01*
X147821779Y-108646389D01*
X147861038Y-108630340D01*
X147904999Y-108617765D01*
X147960117Y-108606131D01*
X148026739Y-108593605D01*
X148032144Y-108592525D01*
X148106797Y-108576706D01*
X148119969Y-108573524D01*
X148165475Y-108561161D01*
X148545000Y-108561161D01*
X148592048Y-108556527D01*
X148637288Y-108542804D01*
X148678982Y-108520518D01*
X148715527Y-108490527D01*
X148745518Y-108453982D01*
X148767804Y-108412288D01*
X148781527Y-108367048D01*
X148786161Y-108320000D01*
X148786161Y-107400000D01*
X148781527Y-107352952D01*
X148767804Y-107307712D01*
X148745518Y-107266018D01*
X148715527Y-107229473D01*
X148678982Y-107199482D01*
X148637288Y-107177196D01*
X148592048Y-107163473D01*
X148545000Y-107158839D01*
X147575000Y-107158839D01*
X147527952Y-107163473D01*
X147482712Y-107177196D01*
X147441018Y-107199482D01*
X147404473Y-107229473D01*
X147374482Y-107266018D01*
X147352196Y-107307712D01*
X147338473Y-107352952D01*
X147333839Y-107400000D01*
X147333839Y-107939009D01*
X147332969Y-107945588D01*
X147332602Y-107948498D01*
X147324848Y-108013216D01*
X147316908Y-108064471D01*
X147307304Y-108104142D01*
X147294167Y-108139020D01*
X147273249Y-108177378D01*
X147238156Y-108225447D01*
X147179342Y-108289826D01*
X146846465Y-108622704D01*
X146807891Y-108619947D01*
X146715531Y-108596853D01*
X146648413Y-108564874D01*
X146589756Y-108521719D01*
X146528333Y-108461733D01*
X146458236Y-108383350D01*
X146457353Y-108382368D01*
X146377956Y-108294563D01*
X146366381Y-108282621D01*
X146275490Y-108195131D01*
X146254149Y-108176870D01*
X146209389Y-108142897D01*
X146199834Y-108133342D01*
X146174478Y-108116399D01*
X146144161Y-108093389D01*
X146115433Y-108074661D01*
X146095341Y-108063522D01*
X146021309Y-108014055D01*
X145822941Y-107931888D01*
X145612356Y-107890000D01*
X145397644Y-107890000D01*
X145187059Y-107931888D01*
X144988691Y-108014055D01*
X144810166Y-108133342D01*
X144658342Y-108285166D01*
X144539055Y-108463691D01*
X144456888Y-108662059D01*
X144415000Y-108872644D01*
X144305000Y-108872644D01*
X144263112Y-108662059D01*
X144180945Y-108463691D01*
X144061658Y-108285166D01*
X143909834Y-108133342D01*
X143731309Y-108014055D01*
X143532941Y-107931888D01*
X143322356Y-107890000D01*
X143107644Y-107890000D01*
X142897059Y-107931888D01*
X142698691Y-108014055D01*
X142520166Y-108133342D01*
X142368342Y-108285166D01*
X142249055Y-108463691D01*
X142166888Y-108662059D01*
X142125000Y-108872644D01*
X142015000Y-108872644D01*
X141973112Y-108662059D01*
X141890945Y-108463691D01*
X141771658Y-108285166D01*
X141619834Y-108133342D01*
X141441309Y-108014055D01*
X141242941Y-107931888D01*
X141032356Y-107890000D01*
X140817644Y-107890000D01*
X140607059Y-107931888D01*
X140408691Y-108014055D01*
X140230166Y-108133342D01*
X140078342Y-108285166D01*
X139959055Y-108463691D01*
X139876888Y-108662059D01*
X139835000Y-108872644D01*
X139835000Y-109087356D01*
X139876888Y-109297941D01*
X139959055Y-109496309D01*
X140078342Y-109674834D01*
X140148650Y-109745142D01*
X140235446Y-109844237D01*
X140289021Y-109927265D01*
X140325739Y-110007510D01*
X140354175Y-110094285D01*
X140380578Y-110193484D01*
X140381202Y-110195780D01*
X140410905Y-110303086D01*
X140416112Y-110319566D01*
X140455544Y-110430308D01*
X140466461Y-110456095D01*
X140523790Y-110572151D01*
X140540198Y-110600359D01*
X140623595Y-110723606D01*
X140643001Y-110748568D01*
X140646961Y-110753023D01*
X140655933Y-110769807D01*
X140698421Y-110821578D01*
X140711394Y-110832225D01*
X141237779Y-111358612D01*
X141248421Y-111371579D01*
X141261387Y-111382220D01*
X141261392Y-111382225D01*
X141300192Y-111414067D01*
X141359258Y-111445639D01*
X141423348Y-111465080D01*
X141473299Y-111470000D01*
X141473316Y-111470000D01*
X141489999Y-111471643D01*
X141506682Y-111470000D01*
X148253307Y-111470000D01*
X148270000Y-111471644D01*
X148286693Y-111470000D01*
X148286701Y-111470000D01*
X148336652Y-111465080D01*
X148400742Y-111445639D01*
X148459808Y-111414067D01*
X148511579Y-111371579D01*
X148522229Y-111358602D01*
X149618612Y-110262221D01*
X149631579Y-110251579D01*
X149642220Y-110238613D01*
X149642225Y-110238608D01*
X149674067Y-110199808D01*
X149680054Y-110188607D01*
X149705639Y-110140742D01*
X149725080Y-110076652D01*
X149730000Y-110026701D01*
X149730000Y-110026694D01*
X149731644Y-110010001D01*
X149730000Y-109993308D01*
X149730000Y-108703272D01*
X151886434Y-108703272D01*
X152123208Y-108989037D01*
X152536167Y-109203810D01*
X152983092Y-109333891D01*
X153446807Y-109374283D01*
X153909491Y-109323432D01*
X154353365Y-109183293D01*
X154716792Y-108989037D01*
X154953566Y-108703272D01*
X153420000Y-107169706D01*
X151886434Y-108703272D01*
X149730000Y-108703272D01*
X149730000Y-107026807D01*
X151045717Y-107026807D01*
X151096568Y-107489491D01*
X151236707Y-107933365D01*
X151430963Y-108296792D01*
X151716728Y-108533566D01*
X153250294Y-107000000D01*
X153589706Y-107000000D01*
X155123272Y-108533566D01*
X155409037Y-108296792D01*
X155623810Y-107883833D01*
X155753891Y-107436908D01*
X155794283Y-106973193D01*
X155743432Y-106510509D01*
X155603293Y-106066635D01*
X155409037Y-105703208D01*
X155123272Y-105466434D01*
X153589706Y-107000000D01*
X153250294Y-107000000D01*
X151716728Y-105466434D01*
X151430963Y-105703208D01*
X151216190Y-106116167D01*
X151086109Y-106563092D01*
X151045717Y-107026807D01*
X149730000Y-107026807D01*
X149730000Y-105296728D01*
X151886434Y-105296728D01*
X153420000Y-106830294D01*
X154953566Y-105296728D01*
X154716792Y-105010963D01*
X154303833Y-104796190D01*
X153856908Y-104666109D01*
X153393193Y-104625717D01*
X152930509Y-104676568D01*
X152486635Y-104816707D01*
X152123208Y-105010963D01*
X151886434Y-105296728D01*
X149730000Y-105296728D01*
X149730000Y-104291161D01*
X149890000Y-104291161D01*
X149937048Y-104286527D01*
X149982288Y-104272804D01*
X150015000Y-104255319D01*
X150047712Y-104272804D01*
X150092952Y-104286527D01*
X150140000Y-104291161D01*
X150690000Y-104291161D01*
X150714448Y-104288753D01*
X150739009Y-104288753D01*
X150786057Y-104284119D01*
X150882190Y-104264997D01*
X150927429Y-104251274D01*
X151017985Y-104213765D01*
X151059680Y-104191479D01*
X151141179Y-104137023D01*
X151177724Y-104107032D01*
X151247032Y-104037724D01*
X151277023Y-104001179D01*
X151331479Y-103919680D01*
X151353765Y-103877985D01*
X151391274Y-103787429D01*
X151404997Y-103742190D01*
X151415378Y-103690000D01*
X152883307Y-103690000D01*
X152900000Y-103691644D01*
X152916693Y-103690000D01*
X152916701Y-103690000D01*
X152966652Y-103685080D01*
X153030742Y-103665639D01*
X153089808Y-103634067D01*
X153141579Y-103591579D01*
X153152230Y-103578601D01*
X154948607Y-101782225D01*
X154961579Y-101771579D01*
X155004067Y-101719808D01*
X155035639Y-101660742D01*
X155055080Y-101596652D01*
X155060000Y-101546701D01*
X155060000Y-101546693D01*
X155061644Y-101530000D01*
X155060000Y-101513307D01*
X155060000Y-98196693D01*
X155061644Y-98180000D01*
X155060000Y-98163307D01*
X155060000Y-98163299D01*
X155055080Y-98113348D01*
X155035639Y-98049258D01*
X155004067Y-97990192D01*
X154991480Y-97974855D01*
X154972225Y-97951393D01*
X154972221Y-97951389D01*
X154961578Y-97938421D01*
X154948611Y-97927779D01*
X153722230Y-96701399D01*
X153711579Y-96688421D01*
X153659808Y-96645933D01*
X153600742Y-96614361D01*
X153536652Y-96594920D01*
X153486701Y-96590000D01*
X153486693Y-96590000D01*
X153470000Y-96588356D01*
X153453307Y-96590000D01*
X149840832Y-96590000D01*
X149400000Y-96149169D01*
X149400000Y-95096692D01*
X149401644Y-95079999D01*
X149400000Y-95063306D01*
X149400000Y-95063299D01*
X149395080Y-95013348D01*
X149375639Y-94949258D01*
X149344067Y-94890192D01*
X149328638Y-94871392D01*
X149312225Y-94851392D01*
X149312216Y-94851383D01*
X149301578Y-94838421D01*
X149288617Y-94827784D01*
X146862230Y-92401398D01*
X146851579Y-92388421D01*
X146799808Y-92345933D01*
X146740742Y-92314361D01*
X146676652Y-92294920D01*
X146626701Y-92290000D01*
X146626693Y-92290000D01*
X146610000Y-92288356D01*
X146593307Y-92290000D01*
X143960833Y-92290000D01*
X142872713Y-91201881D01*
X143970000Y-91201881D01*
X143970000Y-91318101D01*
X143992673Y-91432088D01*
X144037149Y-91539461D01*
X144101717Y-91636094D01*
X144183897Y-91718274D01*
X144280530Y-91782842D01*
X144387903Y-91827318D01*
X144501890Y-91849991D01*
X144618110Y-91849991D01*
X144732097Y-91827318D01*
X144839470Y-91782842D01*
X144848526Y-91776791D01*
X144859153Y-91771973D01*
X144871845Y-91765762D01*
X144927751Y-91736333D01*
X144936323Y-91731595D01*
X144985333Y-91703184D01*
X144987505Y-91701910D01*
X145029551Y-91676943D01*
X145063215Y-91658249D01*
X145090722Y-91645379D01*
X145117577Y-91635926D01*
X145150794Y-91628215D01*
X145196864Y-91622466D01*
X145264387Y-91620000D01*
X147189169Y-91620000D01*
X148698365Y-93129198D01*
X148741443Y-93175769D01*
X148766938Y-93209136D01*
X148782164Y-93234538D01*
X148792021Y-93256629D01*
X148800139Y-93281906D01*
X148808295Y-93316268D01*
X148817469Y-93362067D01*
X148817767Y-93363534D01*
X148828926Y-93417493D01*
X148830988Y-93426570D01*
X148845712Y-93486037D01*
X148849528Y-93499705D01*
X148857069Y-93523925D01*
X148862673Y-93552097D01*
X148907149Y-93659470D01*
X148971717Y-93756103D01*
X149053897Y-93838283D01*
X149150530Y-93902851D01*
X149257903Y-93947327D01*
X149371890Y-93970000D01*
X149488110Y-93970000D01*
X149602097Y-93947327D01*
X149709470Y-93902851D01*
X149806103Y-93838283D01*
X149888283Y-93756103D01*
X149952851Y-93659470D01*
X149997327Y-93552097D01*
X150020000Y-93438110D01*
X150020000Y-93321890D01*
X149997327Y-93207903D01*
X149952851Y-93100530D01*
X149888283Y-93003897D01*
X149806103Y-92921717D01*
X149709470Y-92857149D01*
X149602097Y-92812673D01*
X149573925Y-92807069D01*
X149549705Y-92799528D01*
X149536037Y-92795712D01*
X149476570Y-92780988D01*
X149467493Y-92778926D01*
X149413534Y-92767767D01*
X149412067Y-92767469D01*
X149366268Y-92758295D01*
X149331906Y-92750139D01*
X149306629Y-92742021D01*
X149284538Y-92732164D01*
X149259136Y-92716938D01*
X149225769Y-92691443D01*
X149179198Y-92648365D01*
X147582230Y-91051398D01*
X147571579Y-91038421D01*
X147519808Y-90995933D01*
X147460742Y-90964361D01*
X147396652Y-90944920D01*
X147346701Y-90940000D01*
X147346693Y-90940000D01*
X147330000Y-90938356D01*
X147313307Y-90940000D01*
X145264679Y-90940000D01*
X145201720Y-90937552D01*
X145160688Y-90932046D01*
X145132940Y-90925020D01*
X145111811Y-90916758D01*
X145090029Y-90905186D01*
X145062168Y-90887152D01*
X145025372Y-90860944D01*
X144980582Y-90828856D01*
X144974527Y-90824657D01*
X144923633Y-90790510D01*
X144912940Y-90783738D01*
X144877911Y-90762825D01*
X144839470Y-90737140D01*
X144732097Y-90692664D01*
X144618110Y-90669991D01*
X144501890Y-90669991D01*
X144387903Y-90692664D01*
X144280530Y-90737140D01*
X144183897Y-90801708D01*
X144101717Y-90883888D01*
X144037149Y-90980521D01*
X143992673Y-91087894D01*
X143970000Y-91201881D01*
X142872713Y-91201881D01*
X142732229Y-91061398D01*
X142721579Y-91048421D01*
X142669808Y-91005933D01*
X142610742Y-90974361D01*
X142546652Y-90954920D01*
X142496701Y-90950000D01*
X142496693Y-90950000D01*
X142480000Y-90948356D01*
X142463307Y-90950000D01*
X140916692Y-90950000D01*
X140899999Y-90948356D01*
X140883306Y-90950000D01*
X140883299Y-90950000D01*
X140833348Y-90954920D01*
X140769258Y-90974361D01*
X140724246Y-90998421D01*
X140710192Y-91005933D01*
X140671392Y-91037775D01*
X140671387Y-91037780D01*
X140658421Y-91048421D01*
X140647779Y-91061388D01*
X139481394Y-92227775D01*
X139468422Y-92238421D01*
X139457776Y-92251393D01*
X139457775Y-92251394D01*
X139425933Y-92290193D01*
X139394361Y-92349259D01*
X139374920Y-92413349D01*
X139368356Y-92480000D01*
X139370001Y-92496703D01*
X139370000Y-94548839D01*
X139345000Y-94548839D01*
X139224793Y-94560678D01*
X139109205Y-94595741D01*
X139002679Y-94652681D01*
X138909308Y-94729308D01*
X138850000Y-94801576D01*
X138850000Y-92486693D01*
X138851644Y-92470000D01*
X138850000Y-92453307D01*
X138850000Y-92453299D01*
X138845080Y-92403348D01*
X138825639Y-92339258D01*
X138794067Y-92280192D01*
X138751579Y-92228421D01*
X138738607Y-92217775D01*
X138011649Y-91490817D01*
X137968556Y-91444230D01*
X137943061Y-91410863D01*
X137927835Y-91385461D01*
X137917978Y-91363370D01*
X137909860Y-91338093D01*
X137901704Y-91303731D01*
X137892530Y-91257932D01*
X137892232Y-91256465D01*
X137881073Y-91202506D01*
X137879011Y-91193429D01*
X137864287Y-91133962D01*
X137860471Y-91120296D01*
X137852933Y-91096085D01*
X137847327Y-91067903D01*
X137802851Y-90960530D01*
X137738283Y-90863897D01*
X137656103Y-90781717D01*
X137559470Y-90717149D01*
X137452097Y-90672673D01*
X137338110Y-90650000D01*
X137221890Y-90650000D01*
X137107903Y-90672673D01*
X137000530Y-90717149D01*
X136903897Y-90781717D01*
X136821717Y-90863897D01*
X136757149Y-90960530D01*
X136712673Y-91067903D01*
X136690000Y-91181890D01*
X136690000Y-91298110D01*
X136712673Y-91412097D01*
X136757149Y-91519470D01*
X136821717Y-91616103D01*
X136903897Y-91698283D01*
X137000530Y-91762851D01*
X137107903Y-91807327D01*
X137136085Y-91812933D01*
X137160296Y-91820471D01*
X137173962Y-91824287D01*
X137233429Y-91839011D01*
X137242506Y-91841073D01*
X137296465Y-91852232D01*
X137297932Y-91852530D01*
X137343731Y-91861704D01*
X137378093Y-91869860D01*
X137403370Y-91877978D01*
X137425461Y-91887835D01*
X137450863Y-91903061D01*
X137484230Y-91928556D01*
X137530817Y-91971649D01*
X138170001Y-92610833D01*
X138170000Y-94801576D01*
X138110692Y-94729308D01*
X138017321Y-94652681D01*
X137910795Y-94595741D01*
X137795207Y-94560678D01*
X137675000Y-94548839D01*
X137650000Y-94548839D01*
X137650000Y-94504666D01*
X137652468Y-94441297D01*
X137658035Y-94399675D01*
X137665232Y-94370939D01*
X137673882Y-94348352D01*
X137686016Y-94324737D01*
X137704535Y-94294693D01*
X137730446Y-94255800D01*
X137731271Y-94254555D01*
X137761535Y-94208510D01*
X137766496Y-94200633D01*
X137798134Y-94148172D01*
X137805098Y-94135812D01*
X137816894Y-94113349D01*
X137832851Y-94089468D01*
X137877327Y-93982095D01*
X137900000Y-93868108D01*
X137900000Y-93751888D01*
X137877327Y-93637901D01*
X137832851Y-93530528D01*
X137768283Y-93433895D01*
X137686103Y-93351715D01*
X137589470Y-93287147D01*
X137482097Y-93242671D01*
X137368110Y-93219998D01*
X137251890Y-93219998D01*
X137137903Y-93242671D01*
X137030530Y-93287147D01*
X136933897Y-93351715D01*
X136851717Y-93433895D01*
X136787149Y-93530528D01*
X136742673Y-93637901D01*
X136720000Y-93751888D01*
X136720000Y-93868108D01*
X136742673Y-93982095D01*
X136787149Y-94089468D01*
X136803105Y-94113348D01*
X136814900Y-94135809D01*
X136821865Y-94148172D01*
X136853503Y-94200633D01*
X136858464Y-94208510D01*
X136888728Y-94254555D01*
X136889553Y-94255800D01*
X136915464Y-94294693D01*
X136933983Y-94324737D01*
X136946117Y-94348352D01*
X136954767Y-94370939D01*
X136961964Y-94399675D01*
X136967531Y-94441297D01*
X136970001Y-94504685D01*
X136970001Y-94548839D01*
X136925000Y-94548839D01*
X136804793Y-94560678D01*
X136689205Y-94595741D01*
X136582679Y-94652681D01*
X136489308Y-94729308D01*
X136412681Y-94822679D01*
X136355741Y-94929205D01*
X136320678Y-95044793D01*
X136308839Y-95165000D01*
X136308839Y-95915000D01*
X136320678Y-96035207D01*
X136355741Y-96150795D01*
X136412681Y-96257321D01*
X136489308Y-96350692D01*
X136582679Y-96427319D01*
X136689205Y-96484259D01*
X136804793Y-96519322D01*
X136925000Y-96531161D01*
X137675000Y-96531161D01*
X137795207Y-96519322D01*
X137910795Y-96484259D01*
X138017321Y-96427319D01*
X138110692Y-96350692D01*
X138174549Y-96272882D01*
X138174920Y-96276651D01*
X138194361Y-96340741D01*
X138225933Y-96399807D01*
X138268421Y-96451578D01*
X138281394Y-96462225D01*
X139057774Y-97238606D01*
X139068421Y-97251579D01*
X139120192Y-97294067D01*
X139179258Y-97325639D01*
X139243348Y-97345080D01*
X139293299Y-97350000D01*
X139293307Y-97350000D01*
X139310000Y-97351644D01*
X139326693Y-97350000D01*
X140225706Y-97350000D01*
X140049060Y-97423169D01*
X139740997Y-97629010D01*
X139479010Y-97890997D01*
X139273169Y-98199060D01*
X139144000Y-98510902D01*
X139144000Y-97747174D01*
X139129617Y-97601142D01*
X139072779Y-97413772D01*
X138980479Y-97241091D01*
X138856265Y-97089735D01*
X138704909Y-96965521D01*
X138532227Y-96873221D01*
X138344857Y-96816383D01*
X138150000Y-96797191D01*
X137955142Y-96816383D01*
X137767772Y-96873221D01*
X137595091Y-96965521D01*
X137443735Y-97089735D01*
X137319521Y-97241091D01*
X137227221Y-97413773D01*
X137170383Y-97601143D01*
X137156000Y-97747175D01*
X137156001Y-99352826D01*
X137170384Y-99498858D01*
X137183336Y-99541555D01*
X137151822Y-99577346D01*
X136251394Y-100477775D01*
X136238421Y-100488422D01*
X136195933Y-100540193D01*
X136164361Y-100599259D01*
X136144920Y-100663349D01*
X136140000Y-100713300D01*
X136140000Y-100713307D01*
X136138356Y-100730000D01*
X136140000Y-100746693D01*
X136140001Y-101779166D01*
X134989169Y-102930000D01*
X133305917Y-102930000D01*
X133224879Y-102925995D01*
X133172079Y-102917026D01*
X133156161Y-102911966D01*
X133156161Y-102815000D01*
X133151527Y-102767952D01*
X133137804Y-102722712D01*
X133115518Y-102681018D01*
X133085527Y-102644473D01*
X133048982Y-102614482D01*
X133007288Y-102592196D01*
X132962048Y-102578473D01*
X132915000Y-102573839D01*
X131945000Y-102573839D01*
X131897952Y-102578473D01*
X131852712Y-102592196D01*
X131811018Y-102614482D01*
X131774473Y-102644473D01*
X131744482Y-102681018D01*
X131722196Y-102722712D01*
X131708473Y-102767952D01*
X131703839Y-102815000D01*
X125840000Y-102815000D01*
X125840000Y-100127683D01*
X125868350Y-100155356D01*
X126047539Y-100271981D01*
X126262945Y-100349301D01*
X126430000Y-100298285D01*
X126430000Y-98670000D01*
X126670000Y-98670000D01*
X126670000Y-100298285D01*
X126837055Y-100349301D01*
X127052461Y-100271981D01*
X127231650Y-100155356D01*
X127384644Y-100006014D01*
X127505563Y-99829694D01*
X127540917Y-99747175D01*
X127956000Y-99747175D01*
X127956001Y-101352826D01*
X127970384Y-101498858D01*
X128027222Y-101686228D01*
X128119522Y-101858909D01*
X128243736Y-102010265D01*
X128395092Y-102134479D01*
X128567773Y-102226779D01*
X128755143Y-102283617D01*
X128950000Y-102302809D01*
X129144858Y-102283617D01*
X129332228Y-102226779D01*
X129504909Y-102134479D01*
X129656265Y-102010265D01*
X129780479Y-101858909D01*
X129872779Y-101686228D01*
X129929617Y-101498858D01*
X129944000Y-101352826D01*
X129944000Y-99747174D01*
X129929617Y-99601142D01*
X129872779Y-99413772D01*
X129780479Y-99241091D01*
X129689995Y-99130836D01*
X131073656Y-97747175D01*
X131656000Y-97747175D01*
X131656001Y-99352826D01*
X131670384Y-99498858D01*
X131727222Y-99686228D01*
X131819522Y-99858909D01*
X131943736Y-100010265D01*
X132095092Y-100134479D01*
X132267773Y-100226779D01*
X132455143Y-100283617D01*
X132650000Y-100302809D01*
X132844858Y-100283617D01*
X133032228Y-100226779D01*
X133204909Y-100134479D01*
X133356265Y-100010265D01*
X133456000Y-99888737D01*
X133456001Y-101352826D01*
X133470384Y-101498858D01*
X133527222Y-101686228D01*
X133619522Y-101858909D01*
X133743736Y-102010265D01*
X133895092Y-102134479D01*
X134067773Y-102226779D01*
X134255143Y-102283617D01*
X134450000Y-102302809D01*
X134644858Y-102283617D01*
X134832228Y-102226779D01*
X135004909Y-102134479D01*
X135156265Y-102010265D01*
X135280479Y-101858909D01*
X135372779Y-101686228D01*
X135429617Y-101498858D01*
X135444000Y-101352826D01*
X135444000Y-99747174D01*
X135429617Y-99601142D01*
X135372779Y-99413772D01*
X135280479Y-99241091D01*
X135156265Y-99089735D01*
X135004909Y-98965521D01*
X134832227Y-98873221D01*
X134644857Y-98816383D01*
X134450000Y-98797191D01*
X134255142Y-98816383D01*
X134067772Y-98873221D01*
X133895091Y-98965521D01*
X133743735Y-99089735D01*
X133644000Y-99211263D01*
X133644000Y-97747174D01*
X133629617Y-97601142D01*
X133572779Y-97413772D01*
X133480479Y-97241091D01*
X133356265Y-97089735D01*
X133204909Y-96965521D01*
X133032227Y-96873221D01*
X132844857Y-96816383D01*
X132650000Y-96797191D01*
X132455142Y-96816383D01*
X132267772Y-96873221D01*
X132095091Y-96965521D01*
X131943735Y-97089735D01*
X131819521Y-97241091D01*
X131727221Y-97413773D01*
X131670383Y-97601143D01*
X131656000Y-97747175D01*
X131073656Y-97747175D01*
X132790833Y-96030000D01*
X133900165Y-96030000D01*
X133900678Y-96035207D01*
X133935741Y-96150795D01*
X133992681Y-96257321D01*
X134069308Y-96350692D01*
X134162679Y-96427319D01*
X134269205Y-96484259D01*
X134384793Y-96519322D01*
X134505000Y-96531161D01*
X135255000Y-96531161D01*
X135375207Y-96519322D01*
X135490795Y-96484259D01*
X135597321Y-96427319D01*
X135690692Y-96350692D01*
X135767319Y-96257321D01*
X135824259Y-96150795D01*
X135859322Y-96035207D01*
X135871161Y-95915000D01*
X135871161Y-95165000D01*
X135859322Y-95044793D01*
X135824259Y-94929205D01*
X135767319Y-94822679D01*
X135690692Y-94729308D01*
X135597321Y-94652681D01*
X135490795Y-94595741D01*
X135375207Y-94560678D01*
X135255000Y-94548839D01*
X134505000Y-94548839D01*
X134384793Y-94560678D01*
X134269205Y-94595741D01*
X134162679Y-94652681D01*
X134069308Y-94729308D01*
X133992681Y-94822679D01*
X133935741Y-94929205D01*
X133900678Y-95044793D01*
X133888839Y-95165000D01*
X133888839Y-95350000D01*
X132666692Y-95350000D01*
X132649999Y-95348356D01*
X132633306Y-95350000D01*
X132633299Y-95350000D01*
X132583348Y-95354920D01*
X132519258Y-95374361D01*
X132465026Y-95403349D01*
X132460192Y-95405933D01*
X132421392Y-95437775D01*
X132421387Y-95437780D01*
X132408421Y-95448421D01*
X132397779Y-95461388D01*
X129051938Y-98807231D01*
X128950000Y-98797191D01*
X128755142Y-98816383D01*
X128567772Y-98873221D01*
X128395091Y-98965521D01*
X128243735Y-99089735D01*
X128119521Y-99241091D01*
X128027221Y-99413773D01*
X127970383Y-99601143D01*
X127956000Y-99747175D01*
X127540917Y-99747175D01*
X127589760Y-99633172D01*
X127634000Y-99424000D01*
X127634000Y-98670000D01*
X126670000Y-98670000D01*
X126430000Y-98670000D01*
X126410000Y-98670000D01*
X126410000Y-98430000D01*
X126430000Y-98430000D01*
X126430000Y-96801715D01*
X126670000Y-96801715D01*
X126670000Y-98430000D01*
X127634000Y-98430000D01*
X127634000Y-97676000D01*
X127589760Y-97466828D01*
X127505563Y-97270306D01*
X127384644Y-97093986D01*
X127231650Y-96944644D01*
X127052461Y-96828019D01*
X126837055Y-96750699D01*
X126670000Y-96801715D01*
X126430000Y-96801715D01*
X126262945Y-96750699D01*
X126047539Y-96828019D01*
X125868350Y-96944644D01*
X125840000Y-96972317D01*
X125840000Y-96410000D01*
X130975755Y-96410000D01*
X130990000Y-96411403D01*
X131004245Y-96410000D01*
X131046850Y-96405804D01*
X131101515Y-96389221D01*
X131151895Y-96362293D01*
X131196053Y-96326053D01*
X131232293Y-96281895D01*
X131259221Y-96231515D01*
X131275804Y-96176850D01*
X131281403Y-96120000D01*
X131280000Y-96105755D01*
X131280000Y-88770000D01*
X150610000Y-88770000D01*
X150610001Y-96105744D01*
G04 #@! TA.AperFunction,Conductor*
D22*
G36*
X150610001Y-96105744D02*
G01*
X150608597Y-96120000D01*
X150614196Y-96176850D01*
X150630779Y-96231515D01*
X150657707Y-96281895D01*
X150693947Y-96326053D01*
X150738105Y-96362293D01*
X150788485Y-96389221D01*
X150843150Y-96405804D01*
X150885755Y-96410000D01*
X150900000Y-96411403D01*
X150914245Y-96410000D01*
X156060000Y-96410000D01*
X156060001Y-111770000D01*
X125840000Y-111770000D01*
X125840000Y-108703272D01*
X126896434Y-108703272D01*
X127133208Y-108989037D01*
X127546167Y-109203810D01*
X127993092Y-109333891D01*
X128456807Y-109374283D01*
X128919491Y-109323432D01*
X129363365Y-109183293D01*
X129726792Y-108989037D01*
X129963566Y-108703272D01*
X128430000Y-107169706D01*
X126896434Y-108703272D01*
X125840000Y-108703272D01*
X125840000Y-107026807D01*
X126055717Y-107026807D01*
X126106568Y-107489491D01*
X126246707Y-107933365D01*
X126440963Y-108296792D01*
X126726728Y-108533566D01*
X128260294Y-107000000D01*
X128599706Y-107000000D01*
X130133272Y-108533566D01*
X130419037Y-108296792D01*
X130633810Y-107883833D01*
X130763891Y-107436908D01*
X130804283Y-106973193D01*
X130753432Y-106510509D01*
X130613293Y-106066635D01*
X130419037Y-105703208D01*
X130133272Y-105466434D01*
X128599706Y-107000000D01*
X128260294Y-107000000D01*
X126726728Y-105466434D01*
X126440963Y-105703208D01*
X126226190Y-106116167D01*
X126096109Y-106563092D01*
X126055717Y-107026807D01*
X125840000Y-107026807D01*
X125840000Y-105296728D01*
X126896434Y-105296728D01*
X128430000Y-106830294D01*
X129963566Y-105296728D01*
X129726792Y-105010963D01*
X129313833Y-104796190D01*
X128866908Y-104666109D01*
X128403193Y-104625717D01*
X127940509Y-104676568D01*
X127496635Y-104816707D01*
X127133208Y-105010963D01*
X126896434Y-105296728D01*
X125840000Y-105296728D01*
X125840000Y-104365000D01*
X131703839Y-104365000D01*
X131703839Y-105285000D01*
X131708473Y-105332048D01*
X131722196Y-105377288D01*
X131744482Y-105418982D01*
X131774473Y-105455527D01*
X131811018Y-105485518D01*
X131852712Y-105507804D01*
X131897952Y-105521527D01*
X131945000Y-105526161D01*
X132053057Y-105526161D01*
X132064304Y-105551317D01*
X132076788Y-105593946D01*
X132086034Y-105653130D01*
X132090000Y-105740455D01*
X132090001Y-109083297D01*
X132088356Y-109100000D01*
X132094920Y-109166651D01*
X132114361Y-109230741D01*
X132145933Y-109289807D01*
X132173529Y-109323432D01*
X132188422Y-109341579D01*
X132201394Y-109352225D01*
X134207779Y-111358612D01*
X134218421Y-111371579D01*
X134231387Y-111382220D01*
X134231393Y-111382226D01*
X134252653Y-111399673D01*
X134270192Y-111414067D01*
X134329258Y-111445639D01*
X134393348Y-111465080D01*
X134443299Y-111470000D01*
X134443307Y-111470000D01*
X134460000Y-111471644D01*
X134476693Y-111470000D01*
X137433307Y-111470000D01*
X137450000Y-111471644D01*
X137466693Y-111470000D01*
X137466701Y-111470000D01*
X137516652Y-111465080D01*
X137580742Y-111445639D01*
X137639808Y-111414067D01*
X137691579Y-111371579D01*
X137702230Y-111358602D01*
X138350465Y-110710366D01*
X138487701Y-110575757D01*
X138604245Y-110466252D01*
X138705688Y-110375135D01*
X138797338Y-110296082D01*
X138884595Y-110222789D01*
X138971007Y-110150479D01*
X138972913Y-110148867D01*
X139062413Y-110072376D01*
X139065964Y-110069281D01*
X139162668Y-109983292D01*
X139166907Y-109979431D01*
X139275272Y-109878336D01*
X139279405Y-109874387D01*
X139324630Y-109830135D01*
X139329834Y-109826658D01*
X139481658Y-109674834D01*
X139600945Y-109496309D01*
X139683112Y-109297941D01*
X139725000Y-109087356D01*
X139725000Y-108872644D01*
X139683112Y-108662059D01*
X139600945Y-108463691D01*
X139481658Y-108285166D01*
X139329834Y-108133342D01*
X139151309Y-108014055D01*
X138952941Y-107931888D01*
X138742356Y-107890000D01*
X138527644Y-107890000D01*
X138317059Y-107931888D01*
X138118691Y-108014055D01*
X137940166Y-108133342D01*
X137788342Y-108285166D01*
X137669055Y-108463691D01*
X137586888Y-108662059D01*
X137545000Y-108872644D01*
X137545000Y-109087356D01*
X137586888Y-109297941D01*
X137669055Y-109496309D01*
X137697056Y-109538215D01*
X137713902Y-109571080D01*
X137720612Y-109583285D01*
X137788530Y-109698750D01*
X137791003Y-109702860D01*
X137856040Y-109808536D01*
X137909710Y-109900678D01*
X137945744Y-109975526D01*
X137962865Y-110030589D01*
X137965774Y-110068101D01*
X137958681Y-110102745D01*
X137932210Y-110153900D01*
X137863149Y-110236019D01*
X137309169Y-110790000D01*
X134600833Y-110790000D01*
X132770000Y-108959169D01*
X132770000Y-108872644D01*
X135255000Y-108872644D01*
X135255000Y-109087356D01*
X135296888Y-109297941D01*
X135379055Y-109496309D01*
X135498342Y-109674834D01*
X135650166Y-109826658D01*
X135828691Y-109945945D01*
X136027059Y-110028112D01*
X136237644Y-110070000D01*
X136452356Y-110070000D01*
X136662941Y-110028112D01*
X136861309Y-109945945D01*
X137039834Y-109826658D01*
X137191658Y-109674834D01*
X137310945Y-109496309D01*
X137393112Y-109297941D01*
X137435000Y-109087356D01*
X137435000Y-108872644D01*
X137393112Y-108662059D01*
X137310945Y-108463691D01*
X137191658Y-108285166D01*
X137039834Y-108133342D01*
X136861309Y-108014055D01*
X136662941Y-107931888D01*
X136452356Y-107890000D01*
X136237644Y-107890000D01*
X136027059Y-107931888D01*
X135828691Y-108014055D01*
X135650166Y-108133342D01*
X135498342Y-108285166D01*
X135379055Y-108463691D01*
X135296888Y-108662059D01*
X135255000Y-108872644D01*
X132770000Y-108872644D01*
X132770000Y-107860311D01*
X134509394Y-107860311D01*
X134603717Y-108024869D01*
X134815117Y-108121505D01*
X135041307Y-108175042D01*
X135273595Y-108183423D01*
X135503055Y-108146327D01*
X135720869Y-108065177D01*
X135796283Y-108024869D01*
X135890606Y-107860311D01*
X136799394Y-107860311D01*
X136893717Y-108024869D01*
X137105117Y-108121505D01*
X137331307Y-108175042D01*
X137563595Y-108183423D01*
X137793055Y-108146327D01*
X138010869Y-108065177D01*
X138086283Y-108024869D01*
X138180606Y-107860311D01*
X139089394Y-107860311D01*
X139183717Y-108024869D01*
X139395117Y-108121505D01*
X139621307Y-108175042D01*
X139853595Y-108183423D01*
X140083055Y-108146327D01*
X140300869Y-108065177D01*
X140376283Y-108024869D01*
X140470606Y-107860311D01*
X139780000Y-107169706D01*
X139089394Y-107860311D01*
X138180606Y-107860311D01*
X137490000Y-107169706D01*
X136799394Y-107860311D01*
X135890606Y-107860311D01*
X135200000Y-107169706D01*
X134509394Y-107860311D01*
X132770000Y-107860311D01*
X132770000Y-107073595D01*
X134016577Y-107073595D01*
X134053673Y-107303055D01*
X134134823Y-107520869D01*
X134175131Y-107596283D01*
X134339689Y-107690606D01*
X135030294Y-107000000D01*
X135369706Y-107000000D01*
X136060311Y-107690606D01*
X136224869Y-107596283D01*
X136321505Y-107384883D01*
X136342537Y-107296026D01*
X136343673Y-107303055D01*
X136424823Y-107520869D01*
X136465131Y-107596283D01*
X136629689Y-107690606D01*
X137320294Y-107000000D01*
X137659706Y-107000000D01*
X138350311Y-107690606D01*
X138514869Y-107596283D01*
X138611505Y-107384883D01*
X138632537Y-107296026D01*
X138633673Y-107303055D01*
X138714823Y-107520869D01*
X138755131Y-107596283D01*
X138919689Y-107690606D01*
X139610294Y-107000000D01*
X139949706Y-107000000D01*
X140640311Y-107690606D01*
X140804869Y-107596283D01*
X140901505Y-107384883D01*
X140955042Y-107158693D01*
X140963423Y-106926405D01*
X140926327Y-106696945D01*
X140845177Y-106479131D01*
X140804869Y-106403717D01*
X140640311Y-106309394D01*
X139949706Y-107000000D01*
X139610294Y-107000000D01*
X138919689Y-106309394D01*
X138755131Y-106403717D01*
X138658495Y-106615117D01*
X138637463Y-106703974D01*
X138636327Y-106696945D01*
X138555177Y-106479131D01*
X138514869Y-106403717D01*
X138350311Y-106309394D01*
X137659706Y-107000000D01*
X137320294Y-107000000D01*
X136629689Y-106309394D01*
X136465131Y-106403717D01*
X136368495Y-106615117D01*
X136347463Y-106703974D01*
X136346327Y-106696945D01*
X136265177Y-106479131D01*
X136224869Y-106403717D01*
X136060311Y-106309394D01*
X135369706Y-107000000D01*
X135030294Y-107000000D01*
X134339689Y-106309394D01*
X134175131Y-106403717D01*
X134078495Y-106615117D01*
X134024958Y-106841307D01*
X134016577Y-107073595D01*
X132770000Y-107073595D01*
X132770000Y-106139689D01*
X134509394Y-106139689D01*
X135200000Y-106830294D01*
X135890606Y-106139689D01*
X135874254Y-106111161D01*
X136815746Y-106111161D01*
X136799394Y-106139689D01*
X137490000Y-106830294D01*
X138180606Y-106139689D01*
X139089394Y-106139689D01*
X139780000Y-106830294D01*
X140470606Y-106139689D01*
X140376283Y-105975131D01*
X140164883Y-105878495D01*
X139938693Y-105824958D01*
X139706405Y-105816577D01*
X139476945Y-105853673D01*
X139259131Y-105934823D01*
X139183717Y-105975131D01*
X139089394Y-106139689D01*
X138180606Y-106139689D01*
X138086283Y-105975131D01*
X137874883Y-105878495D01*
X137648693Y-105824958D01*
X137436161Y-105817290D01*
X137436161Y-104912644D01*
X137545000Y-104912644D01*
X137545000Y-105127356D01*
X137586888Y-105337941D01*
X137669055Y-105536309D01*
X137788342Y-105714834D01*
X137940166Y-105866658D01*
X138118691Y-105985945D01*
X138317059Y-106068112D01*
X138527644Y-106110000D01*
X138742356Y-106110000D01*
X138952941Y-106068112D01*
X139151309Y-105985945D01*
X139329834Y-105866658D01*
X139481658Y-105714834D01*
X139600945Y-105536309D01*
X139683112Y-105337941D01*
X139725000Y-105127356D01*
X139725000Y-104912644D01*
X139683112Y-104702059D01*
X139600945Y-104503691D01*
X139481658Y-104325166D01*
X139329834Y-104173342D01*
X139151309Y-104054055D01*
X138952941Y-103971888D01*
X138742356Y-103930000D01*
X138527644Y-103930000D01*
X138317059Y-103971888D01*
X138118691Y-104054055D01*
X137940166Y-104173342D01*
X137788342Y-104325166D01*
X137669055Y-104503691D01*
X137586888Y-104702059D01*
X137545000Y-104912644D01*
X137436161Y-104912644D01*
X137436161Y-104170000D01*
X137431527Y-104122952D01*
X137417804Y-104077712D01*
X137395518Y-104036018D01*
X137365527Y-103999473D01*
X137328982Y-103969482D01*
X137287288Y-103947196D01*
X137242048Y-103933473D01*
X137195000Y-103928839D01*
X135495000Y-103928839D01*
X135447952Y-103933473D01*
X135402712Y-103947196D01*
X135361018Y-103969482D01*
X135324473Y-103999473D01*
X135294482Y-104036018D01*
X135272196Y-104077712D01*
X135258473Y-104122952D01*
X135253839Y-104170000D01*
X135253839Y-105821175D01*
X135126405Y-105816577D01*
X134896945Y-105853673D01*
X134679131Y-105934823D01*
X134603717Y-105975131D01*
X134509394Y-106139689D01*
X132770000Y-106139689D01*
X132770000Y-105740447D01*
X132773965Y-105653130D01*
X132783211Y-105593946D01*
X132795695Y-105551317D01*
X132806942Y-105526161D01*
X132915000Y-105526161D01*
X132962048Y-105521527D01*
X133007288Y-105507804D01*
X133048982Y-105485518D01*
X133085527Y-105455527D01*
X133115518Y-105418982D01*
X133137804Y-105377288D01*
X133151527Y-105332048D01*
X133156161Y-105285000D01*
X133156161Y-104365000D01*
X133151527Y-104317952D01*
X133137804Y-104272712D01*
X133115518Y-104231018D01*
X133085527Y-104194473D01*
X133048982Y-104164482D01*
X133007288Y-104142196D01*
X132962048Y-104128473D01*
X132915000Y-104123839D01*
X131945000Y-104123839D01*
X131897952Y-104128473D01*
X131852712Y-104142196D01*
X131811018Y-104164482D01*
X131774473Y-104194473D01*
X131744482Y-104231018D01*
X131722196Y-104272712D01*
X131708473Y-104317952D01*
X131703839Y-104365000D01*
X125840000Y-104365000D01*
X125840000Y-102815000D01*
X131703839Y-102815000D01*
X131703839Y-103735000D01*
X131708473Y-103782048D01*
X131722196Y-103827288D01*
X131744482Y-103868982D01*
X131774473Y-103905527D01*
X131811018Y-103935518D01*
X131852712Y-103957804D01*
X131897952Y-103971527D01*
X131945000Y-103976161D01*
X132915000Y-103976161D01*
X132962048Y-103971527D01*
X133007288Y-103957804D01*
X133048982Y-103935518D01*
X133085527Y-103905527D01*
X133115518Y-103868982D01*
X133137804Y-103827288D01*
X133151527Y-103782048D01*
X133156161Y-103735000D01*
X133156161Y-103628721D01*
X133174491Y-103622820D01*
X133226070Y-103613976D01*
X133305960Y-103610000D01*
X135113307Y-103610000D01*
X135130000Y-103611644D01*
X135146693Y-103610000D01*
X135146701Y-103610000D01*
X135196652Y-103605080D01*
X135260742Y-103585639D01*
X135319808Y-103554067D01*
X135371579Y-103511579D01*
X135382229Y-103498602D01*
X136708612Y-102172221D01*
X136721579Y-102161579D01*
X136732220Y-102148613D01*
X136732225Y-102148608D01*
X136764067Y-102109808D01*
X136782630Y-102075080D01*
X136795639Y-102050742D01*
X136815080Y-101986652D01*
X136820000Y-101936701D01*
X136820000Y-101936694D01*
X136821644Y-101920001D01*
X136820000Y-101903308D01*
X136820000Y-100870831D01*
X137573814Y-100117017D01*
X137595092Y-100134479D01*
X137767773Y-100226779D01*
X137955143Y-100283617D01*
X138150000Y-100302809D01*
X138344858Y-100283617D01*
X138532228Y-100226779D01*
X138704909Y-100134479D01*
X138856265Y-100010265D01*
X138980479Y-99858909D01*
X139072779Y-99686228D01*
X139113891Y-99550700D01*
X139131383Y-99638638D01*
X139273169Y-99980940D01*
X139479010Y-100289003D01*
X139740997Y-100550990D01*
X140049060Y-100756831D01*
X140391362Y-100898617D01*
X140754748Y-100970899D01*
X141125252Y-100970899D01*
X141488638Y-100898617D01*
X141830940Y-100756831D01*
X142139003Y-100550990D01*
X142400990Y-100289003D01*
X142560001Y-100051027D01*
X142560000Y-102029167D01*
X141841394Y-102747775D01*
X141828422Y-102758421D01*
X141817776Y-102771393D01*
X141817775Y-102771394D01*
X141785933Y-102810193D01*
X141754361Y-102869259D01*
X141734920Y-102933349D01*
X141728356Y-103000000D01*
X141730001Y-103016703D01*
X141730001Y-104283509D01*
X141619834Y-104173342D01*
X141441309Y-104054055D01*
X141242941Y-103971888D01*
X141032356Y-103930000D01*
X140817644Y-103930000D01*
X140607059Y-103971888D01*
X140408691Y-104054055D01*
X140230166Y-104173342D01*
X140078342Y-104325166D01*
X139959055Y-104503691D01*
X139876888Y-104702059D01*
X139835000Y-104912644D01*
X139835000Y-105127356D01*
X139876888Y-105337941D01*
X139959055Y-105536309D01*
X140078342Y-105714834D01*
X140230166Y-105866658D01*
X140408691Y-105985945D01*
X140607059Y-106068112D01*
X140817644Y-106110000D01*
X141032356Y-106110000D01*
X141242941Y-106068112D01*
X141441309Y-105985945D01*
X141487877Y-105954829D01*
X141480171Y-105964061D01*
X141393562Y-106064505D01*
X141387901Y-106071321D01*
X141297047Y-106184909D01*
X141286242Y-106199518D01*
X141195198Y-106332905D01*
X141182977Y-106352830D01*
X141144046Y-106423840D01*
X141104055Y-106483691D01*
X141021888Y-106682059D01*
X140980000Y-106892644D01*
X140980000Y-107107356D01*
X141021888Y-107317941D01*
X141104055Y-107516309D01*
X141223342Y-107694834D01*
X141375166Y-107846658D01*
X141553691Y-107965945D01*
X141752059Y-108048112D01*
X141962644Y-108090000D01*
X142177356Y-108090000D01*
X142387941Y-108048112D01*
X142586309Y-107965945D01*
X142744400Y-107860311D01*
X143669394Y-107860311D01*
X143763717Y-108024869D01*
X143975117Y-108121505D01*
X144201307Y-108175042D01*
X144433595Y-108183423D01*
X144663055Y-108146327D01*
X144880869Y-108065177D01*
X144956283Y-108024869D01*
X145050606Y-107860311D01*
X144360000Y-107169706D01*
X143669394Y-107860311D01*
X142744400Y-107860311D01*
X142764834Y-107846658D01*
X142916658Y-107694834D01*
X143035945Y-107516309D01*
X143118112Y-107317941D01*
X143160000Y-107107356D01*
X143160000Y-107073595D01*
X143176577Y-107073595D01*
X143213673Y-107303055D01*
X143294823Y-107520869D01*
X143335131Y-107596283D01*
X143499689Y-107690606D01*
X144190294Y-107000000D01*
X144529706Y-107000000D01*
X145220311Y-107690606D01*
X145384869Y-107596283D01*
X145481505Y-107384883D01*
X145535042Y-107158693D01*
X145543423Y-106926405D01*
X145536225Y-106881880D01*
X145610000Y-106881880D01*
X145610000Y-106998100D01*
X145632673Y-107112087D01*
X145677149Y-107219460D01*
X145741717Y-107316093D01*
X145823897Y-107398273D01*
X145920530Y-107462841D01*
X146027903Y-107507317D01*
X146141890Y-107529990D01*
X146258110Y-107529990D01*
X146372097Y-107507317D01*
X146479470Y-107462841D01*
X146576103Y-107398273D01*
X146658283Y-107316093D01*
X146722851Y-107219460D01*
X146767327Y-107112087D01*
X146772932Y-107083910D01*
X146780472Y-107059692D01*
X146784287Y-107046027D01*
X146799011Y-106986560D01*
X146801073Y-106977483D01*
X146812232Y-106923524D01*
X146812530Y-106922057D01*
X146821704Y-106876258D01*
X146829860Y-106841896D01*
X146837978Y-106816619D01*
X146847835Y-106794528D01*
X146863061Y-106769126D01*
X146888556Y-106735759D01*
X146931633Y-106689189D01*
X147030823Y-106590000D01*
X147134402Y-106590000D01*
X147217641Y-106593890D01*
X147272405Y-106602792D01*
X147310028Y-106614431D01*
X147333839Y-106625910D01*
X147333839Y-106770000D01*
X147338473Y-106817048D01*
X147352196Y-106862288D01*
X147374482Y-106903982D01*
X147404473Y-106940527D01*
X147441018Y-106970518D01*
X147482712Y-106992804D01*
X147527952Y-107006527D01*
X147575000Y-107011161D01*
X148545000Y-107011161D01*
X148592048Y-107006527D01*
X148637288Y-106992804D01*
X148678982Y-106970518D01*
X148715527Y-106940527D01*
X148745518Y-106903982D01*
X148767804Y-106862288D01*
X148781527Y-106817048D01*
X148786161Y-106770000D01*
X148786161Y-105850000D01*
X148781527Y-105802952D01*
X148767804Y-105757712D01*
X148745518Y-105716018D01*
X148715527Y-105679473D01*
X148678982Y-105649482D01*
X148637288Y-105627196D01*
X148592048Y-105613473D01*
X148545000Y-105608839D01*
X147575000Y-105608839D01*
X147527952Y-105613473D01*
X147482712Y-105627196D01*
X147441018Y-105649482D01*
X147404473Y-105679473D01*
X147374482Y-105716018D01*
X147352196Y-105757712D01*
X147338473Y-105802952D01*
X147333839Y-105850000D01*
X147333839Y-105887261D01*
X147298689Y-105896400D01*
X147230606Y-105906020D01*
X147135011Y-105910000D01*
X146906682Y-105910000D01*
X146889989Y-105908356D01*
X146873296Y-105910000D01*
X146873289Y-105910000D01*
X146823338Y-105914920D01*
X146759248Y-105934361D01*
X146710030Y-105960669D01*
X146700182Y-105965933D01*
X146661382Y-105997775D01*
X146661377Y-105997780D01*
X146648411Y-106008421D01*
X146637769Y-106021388D01*
X146450805Y-106208353D01*
X146404231Y-106251433D01*
X146370863Y-106276928D01*
X146345461Y-106292154D01*
X146323370Y-106302011D01*
X146298093Y-106310129D01*
X146263731Y-106318285D01*
X146217932Y-106327459D01*
X146216465Y-106327757D01*
X146162506Y-106338916D01*
X146153429Y-106340978D01*
X146093962Y-106355702D01*
X146080293Y-106359519D01*
X146056080Y-106367058D01*
X146027903Y-106372663D01*
X145920530Y-106417139D01*
X145823897Y-106481707D01*
X145741717Y-106563887D01*
X145677149Y-106660520D01*
X145632673Y-106767893D01*
X145610000Y-106881880D01*
X145536225Y-106881880D01*
X145506327Y-106696945D01*
X145425177Y-106479131D01*
X145384869Y-106403717D01*
X145220311Y-106309394D01*
X144529706Y-107000000D01*
X144190294Y-107000000D01*
X143499689Y-106309394D01*
X143335131Y-106403717D01*
X143238495Y-106615117D01*
X143184958Y-106841307D01*
X143176577Y-107073595D01*
X143160000Y-107073595D01*
X143160000Y-106892644D01*
X143118112Y-106682059D01*
X143035945Y-106483691D01*
X142995948Y-106423832D01*
X142957021Y-106352829D01*
X142944801Y-106332905D01*
X142853757Y-106199518D01*
X142842952Y-106184909D01*
X142806783Y-106139689D01*
X143669394Y-106139689D01*
X144360000Y-106830294D01*
X145050606Y-106139689D01*
X145027337Y-106099093D01*
X145120117Y-106141505D01*
X145346307Y-106195042D01*
X145578595Y-106203423D01*
X145808055Y-106166327D01*
X146025869Y-106085177D01*
X146101283Y-106044869D01*
X146195606Y-105880311D01*
X145505000Y-105189706D01*
X144814394Y-105880311D01*
X144837663Y-105920907D01*
X144744883Y-105878495D01*
X144518693Y-105824958D01*
X144286405Y-105816577D01*
X144056945Y-105853673D01*
X143839131Y-105934823D01*
X143763717Y-105975131D01*
X143669394Y-106139689D01*
X142806783Y-106139689D01*
X142752098Y-106071321D01*
X142746437Y-106064505D01*
X142659828Y-105964061D01*
X142652122Y-105954829D01*
X142698691Y-105985945D01*
X142897059Y-106068112D01*
X143107644Y-106110000D01*
X143322356Y-106110000D01*
X143532941Y-106068112D01*
X143731309Y-105985945D01*
X143909834Y-105866658D01*
X144061658Y-105714834D01*
X144180945Y-105536309D01*
X144263112Y-105337941D01*
X144305000Y-105127356D01*
X144305000Y-105093595D01*
X144321577Y-105093595D01*
X144358673Y-105323055D01*
X144439823Y-105540869D01*
X144480131Y-105616283D01*
X144644689Y-105710606D01*
X145335294Y-105020000D01*
X145674706Y-105020000D01*
X146365311Y-105710606D01*
X146529869Y-105616283D01*
X146626505Y-105404883D01*
X146680042Y-105178693D01*
X146688423Y-104946405D01*
X146651327Y-104716945D01*
X146570177Y-104499131D01*
X146529869Y-104423717D01*
X146365311Y-104329394D01*
X145674706Y-105020000D01*
X145335294Y-105020000D01*
X144644689Y-104329394D01*
X144480131Y-104423717D01*
X144383495Y-104635117D01*
X144329958Y-104861307D01*
X144321577Y-105093595D01*
X144305000Y-105093595D01*
X144305000Y-104912644D01*
X144263112Y-104702059D01*
X144180945Y-104503691D01*
X144061658Y-104325166D01*
X143909834Y-104173342D01*
X143889401Y-104159689D01*
X144814394Y-104159689D01*
X145505000Y-104850294D01*
X146195606Y-104159689D01*
X146101283Y-103995131D01*
X145889883Y-103898495D01*
X145663693Y-103844958D01*
X145431405Y-103836577D01*
X145201945Y-103873673D01*
X144984131Y-103954823D01*
X144908717Y-103995131D01*
X144814394Y-104159689D01*
X143889401Y-104159689D01*
X143731309Y-104054055D01*
X143532941Y-103971888D01*
X143322356Y-103930000D01*
X143107644Y-103930000D01*
X142897059Y-103971888D01*
X142698691Y-104054055D01*
X142520166Y-104173342D01*
X142410000Y-104283508D01*
X142410000Y-103140831D01*
X143128617Y-102422216D01*
X143141578Y-102411579D01*
X143152216Y-102398617D01*
X143152225Y-102398608D01*
X143160000Y-102389134D01*
X143160000Y-102600407D01*
X143158356Y-102617100D01*
X143160000Y-102633793D01*
X143160000Y-102633800D01*
X143164920Y-102683751D01*
X143184361Y-102747841D01*
X143215933Y-102806907D01*
X143258421Y-102858678D01*
X143271394Y-102869325D01*
X143890675Y-103488607D01*
X143901321Y-103501579D01*
X143953092Y-103544067D01*
X144012158Y-103575639D01*
X144076248Y-103595080D01*
X144126199Y-103600000D01*
X144126207Y-103600000D01*
X144142900Y-103601644D01*
X144159593Y-103600000D01*
X147351345Y-103600000D01*
X147355881Y-103646057D01*
X147375003Y-103742190D01*
X147388726Y-103787429D01*
X147426235Y-103877985D01*
X147448521Y-103919680D01*
X147502977Y-104001179D01*
X147532968Y-104037724D01*
X147602276Y-104107032D01*
X147638821Y-104137023D01*
X147720320Y-104191479D01*
X147762015Y-104213765D01*
X147852571Y-104251274D01*
X147897810Y-104264997D01*
X147993943Y-104284119D01*
X148040991Y-104288753D01*
X148065552Y-104288753D01*
X148090000Y-104291161D01*
X148640000Y-104291161D01*
X148687048Y-104286527D01*
X148732288Y-104272804D01*
X148765000Y-104255319D01*
X148797712Y-104272804D01*
X148842952Y-104286527D01*
X148890000Y-104291161D01*
X149050000Y-104291161D01*
X149050001Y-109869166D01*
X148129169Y-110790000D01*
X141630833Y-110790000D01*
X141280000Y-110439169D01*
X141280000Y-110151928D01*
X141388209Y-110052318D01*
X141516535Y-109938190D01*
X141524213Y-109931055D01*
X141653411Y-109805629D01*
X141670038Y-109787757D01*
X141729227Y-109717265D01*
X141771658Y-109674834D01*
X141890945Y-109496309D01*
X141973112Y-109297941D01*
X142015000Y-109087356D01*
X142015000Y-108872644D01*
X142125000Y-108872644D01*
X142125000Y-109087356D01*
X142166888Y-109297941D01*
X142249055Y-109496309D01*
X142368342Y-109674834D01*
X142520166Y-109826658D01*
X142698691Y-109945945D01*
X142897059Y-110028112D01*
X143107644Y-110070000D01*
X143322356Y-110070000D01*
X143532941Y-110028112D01*
X143731309Y-109945945D01*
X143909834Y-109826658D01*
X144061658Y-109674834D01*
X144180945Y-109496309D01*
X144263112Y-109297941D01*
X144305000Y-109087356D01*
X144305000Y-108872644D01*
X144415000Y-108872644D01*
X144415000Y-109087356D01*
X144456888Y-109297941D01*
X144539055Y-109496309D01*
X144658342Y-109674834D01*
X144810166Y-109826658D01*
X144988691Y-109945945D01*
X145187059Y-110028112D01*
X145397644Y-110070000D01*
X145612356Y-110070000D01*
X145822941Y-110028112D01*
X146021309Y-109945945D01*
X146124523Y-109876979D01*
X146144235Y-109865176D01*
X146171728Y-109845983D01*
X146175638Y-109842825D01*
X146199834Y-109826658D01*
X146217364Y-109809128D01*
X146278161Y-109760029D01*
X146298187Y-109741903D01*
X146386112Y-109652817D01*
X146396632Y-109641446D01*
X146473518Y-109552766D01*
X146473680Y-109552579D01*
X146541351Y-109474365D01*
X146600267Y-109415415D01*
X146656377Y-109373455D01*
X146720856Y-109342426D01*
X146810583Y-109319876D01*
X146948581Y-109310000D01*
X146963307Y-109310000D01*
X146980000Y-109311644D01*
X146996693Y-109310000D01*
X146996701Y-109310000D01*
X147046652Y-109305080D01*
X147110742Y-109285639D01*
X147169808Y-109254067D01*
X147221579Y-109211579D01*
X147232230Y-109198602D01*
X147660324Y-108770507D01*
X147727818Y-108708626D01*
X147779413Y-108670381D01*
X147821779Y-108646389D01*
X147861038Y-108630340D01*
X147904999Y-108617765D01*
X147960117Y-108606131D01*
X148026739Y-108593605D01*
X148032144Y-108592525D01*
X148106797Y-108576706D01*
X148119969Y-108573524D01*
X148165475Y-108561161D01*
X148545000Y-108561161D01*
X148592048Y-108556527D01*
X148637288Y-108542804D01*
X148678982Y-108520518D01*
X148715527Y-108490527D01*
X148745518Y-108453982D01*
X148767804Y-108412288D01*
X148781527Y-108367048D01*
X148786161Y-108320000D01*
X148786161Y-107400000D01*
X148781527Y-107352952D01*
X148767804Y-107307712D01*
X148745518Y-107266018D01*
X148715527Y-107229473D01*
X148678982Y-107199482D01*
X148637288Y-107177196D01*
X148592048Y-107163473D01*
X148545000Y-107158839D01*
X147575000Y-107158839D01*
X147527952Y-107163473D01*
X147482712Y-107177196D01*
X147441018Y-107199482D01*
X147404473Y-107229473D01*
X147374482Y-107266018D01*
X147352196Y-107307712D01*
X147338473Y-107352952D01*
X147333839Y-107400000D01*
X147333839Y-107939009D01*
X147332969Y-107945588D01*
X147332602Y-107948498D01*
X147324848Y-108013216D01*
X147316908Y-108064471D01*
X147307304Y-108104142D01*
X147294167Y-108139020D01*
X147273249Y-108177378D01*
X147238156Y-108225447D01*
X147179342Y-108289826D01*
X146846465Y-108622704D01*
X146807891Y-108619947D01*
X146715531Y-108596853D01*
X146648413Y-108564874D01*
X146589756Y-108521719D01*
X146528333Y-108461733D01*
X146458236Y-108383350D01*
X146457353Y-108382368D01*
X146377956Y-108294563D01*
X146366381Y-108282621D01*
X146275490Y-108195131D01*
X146254149Y-108176870D01*
X146209389Y-108142897D01*
X146199834Y-108133342D01*
X146174478Y-108116399D01*
X146144161Y-108093389D01*
X146115433Y-108074661D01*
X146095341Y-108063522D01*
X146021309Y-108014055D01*
X145822941Y-107931888D01*
X145612356Y-107890000D01*
X145397644Y-107890000D01*
X145187059Y-107931888D01*
X144988691Y-108014055D01*
X144810166Y-108133342D01*
X144658342Y-108285166D01*
X144539055Y-108463691D01*
X144456888Y-108662059D01*
X144415000Y-108872644D01*
X144305000Y-108872644D01*
X144263112Y-108662059D01*
X144180945Y-108463691D01*
X144061658Y-108285166D01*
X143909834Y-108133342D01*
X143731309Y-108014055D01*
X143532941Y-107931888D01*
X143322356Y-107890000D01*
X143107644Y-107890000D01*
X142897059Y-107931888D01*
X142698691Y-108014055D01*
X142520166Y-108133342D01*
X142368342Y-108285166D01*
X142249055Y-108463691D01*
X142166888Y-108662059D01*
X142125000Y-108872644D01*
X142015000Y-108872644D01*
X141973112Y-108662059D01*
X141890945Y-108463691D01*
X141771658Y-108285166D01*
X141619834Y-108133342D01*
X141441309Y-108014055D01*
X141242941Y-107931888D01*
X141032356Y-107890000D01*
X140817644Y-107890000D01*
X140607059Y-107931888D01*
X140408691Y-108014055D01*
X140230166Y-108133342D01*
X140078342Y-108285166D01*
X139959055Y-108463691D01*
X139876888Y-108662059D01*
X139835000Y-108872644D01*
X139835000Y-109087356D01*
X139876888Y-109297941D01*
X139959055Y-109496309D01*
X140078342Y-109674834D01*
X140148650Y-109745142D01*
X140235446Y-109844237D01*
X140289021Y-109927265D01*
X140325739Y-110007510D01*
X140354175Y-110094285D01*
X140380578Y-110193484D01*
X140381202Y-110195780D01*
X140410905Y-110303086D01*
X140416112Y-110319566D01*
X140455544Y-110430308D01*
X140466461Y-110456095D01*
X140523790Y-110572151D01*
X140540198Y-110600359D01*
X140623595Y-110723606D01*
X140643001Y-110748568D01*
X140646961Y-110753023D01*
X140655933Y-110769807D01*
X140698421Y-110821578D01*
X140711394Y-110832225D01*
X141237779Y-111358612D01*
X141248421Y-111371579D01*
X141261387Y-111382220D01*
X141261392Y-111382225D01*
X141300192Y-111414067D01*
X141359258Y-111445639D01*
X141423348Y-111465080D01*
X141473299Y-111470000D01*
X141473316Y-111470000D01*
X141489999Y-111471643D01*
X141506682Y-111470000D01*
X148253307Y-111470000D01*
X148270000Y-111471644D01*
X148286693Y-111470000D01*
X148286701Y-111470000D01*
X148336652Y-111465080D01*
X148400742Y-111445639D01*
X148459808Y-111414067D01*
X148511579Y-111371579D01*
X148522229Y-111358602D01*
X149618612Y-110262221D01*
X149631579Y-110251579D01*
X149642220Y-110238613D01*
X149642225Y-110238608D01*
X149674067Y-110199808D01*
X149680054Y-110188607D01*
X149705639Y-110140742D01*
X149725080Y-110076652D01*
X149730000Y-110026701D01*
X149730000Y-110026694D01*
X149731644Y-110010001D01*
X149730000Y-109993308D01*
X149730000Y-108703272D01*
X151886434Y-108703272D01*
X152123208Y-108989037D01*
X152536167Y-109203810D01*
X152983092Y-109333891D01*
X153446807Y-109374283D01*
X153909491Y-109323432D01*
X154353365Y-109183293D01*
X154716792Y-108989037D01*
X154953566Y-108703272D01*
X153420000Y-107169706D01*
X151886434Y-108703272D01*
X149730000Y-108703272D01*
X149730000Y-107026807D01*
X151045717Y-107026807D01*
X151096568Y-107489491D01*
X151236707Y-107933365D01*
X151430963Y-108296792D01*
X151716728Y-108533566D01*
X153250294Y-107000000D01*
X153589706Y-107000000D01*
X155123272Y-108533566D01*
X155409037Y-108296792D01*
X155623810Y-107883833D01*
X155753891Y-107436908D01*
X155794283Y-106973193D01*
X155743432Y-106510509D01*
X155603293Y-106066635D01*
X155409037Y-105703208D01*
X155123272Y-105466434D01*
X153589706Y-107000000D01*
X153250294Y-107000000D01*
X151716728Y-105466434D01*
X151430963Y-105703208D01*
X151216190Y-106116167D01*
X151086109Y-106563092D01*
X151045717Y-107026807D01*
X149730000Y-107026807D01*
X149730000Y-105296728D01*
X151886434Y-105296728D01*
X153420000Y-106830294D01*
X154953566Y-105296728D01*
X154716792Y-105010963D01*
X154303833Y-104796190D01*
X153856908Y-104666109D01*
X153393193Y-104625717D01*
X152930509Y-104676568D01*
X152486635Y-104816707D01*
X152123208Y-105010963D01*
X151886434Y-105296728D01*
X149730000Y-105296728D01*
X149730000Y-104291161D01*
X149890000Y-104291161D01*
X149937048Y-104286527D01*
X149982288Y-104272804D01*
X150015000Y-104255319D01*
X150047712Y-104272804D01*
X150092952Y-104286527D01*
X150140000Y-104291161D01*
X150690000Y-104291161D01*
X150714448Y-104288753D01*
X150739009Y-104288753D01*
X150786057Y-104284119D01*
X150882190Y-104264997D01*
X150927429Y-104251274D01*
X151017985Y-104213765D01*
X151059680Y-104191479D01*
X151141179Y-104137023D01*
X151177724Y-104107032D01*
X151247032Y-104037724D01*
X151277023Y-104001179D01*
X151331479Y-103919680D01*
X151353765Y-103877985D01*
X151391274Y-103787429D01*
X151404997Y-103742190D01*
X151415378Y-103690000D01*
X152883307Y-103690000D01*
X152900000Y-103691644D01*
X152916693Y-103690000D01*
X152916701Y-103690000D01*
X152966652Y-103685080D01*
X153030742Y-103665639D01*
X153089808Y-103634067D01*
X153141579Y-103591579D01*
X153152230Y-103578601D01*
X154948607Y-101782225D01*
X154961579Y-101771579D01*
X155004067Y-101719808D01*
X155035639Y-101660742D01*
X155055080Y-101596652D01*
X155060000Y-101546701D01*
X155060000Y-101546693D01*
X155061644Y-101530000D01*
X155060000Y-101513307D01*
X155060000Y-98196693D01*
X155061644Y-98180000D01*
X155060000Y-98163307D01*
X155060000Y-98163299D01*
X155055080Y-98113348D01*
X155035639Y-98049258D01*
X155004067Y-97990192D01*
X154991480Y-97974855D01*
X154972225Y-97951393D01*
X154972221Y-97951389D01*
X154961578Y-97938421D01*
X154948611Y-97927779D01*
X153722230Y-96701399D01*
X153711579Y-96688421D01*
X153659808Y-96645933D01*
X153600742Y-96614361D01*
X153536652Y-96594920D01*
X153486701Y-96590000D01*
X153486693Y-96590000D01*
X153470000Y-96588356D01*
X153453307Y-96590000D01*
X149840832Y-96590000D01*
X149400000Y-96149169D01*
X149400000Y-95096692D01*
X149401644Y-95079999D01*
X149400000Y-95063306D01*
X149400000Y-95063299D01*
X149395080Y-95013348D01*
X149375639Y-94949258D01*
X149344067Y-94890192D01*
X149328638Y-94871392D01*
X149312225Y-94851392D01*
X149312216Y-94851383D01*
X149301578Y-94838421D01*
X149288617Y-94827784D01*
X146862230Y-92401398D01*
X146851579Y-92388421D01*
X146799808Y-92345933D01*
X146740742Y-92314361D01*
X146676652Y-92294920D01*
X146626701Y-92290000D01*
X146626693Y-92290000D01*
X146610000Y-92288356D01*
X146593307Y-92290000D01*
X143960833Y-92290000D01*
X142872713Y-91201881D01*
X143970000Y-91201881D01*
X143970000Y-91318101D01*
X143992673Y-91432088D01*
X144037149Y-91539461D01*
X144101717Y-91636094D01*
X144183897Y-91718274D01*
X144280530Y-91782842D01*
X144387903Y-91827318D01*
X144501890Y-91849991D01*
X144618110Y-91849991D01*
X144732097Y-91827318D01*
X144839470Y-91782842D01*
X144848526Y-91776791D01*
X144859153Y-91771973D01*
X144871845Y-91765762D01*
X144927751Y-91736333D01*
X144936323Y-91731595D01*
X144985333Y-91703184D01*
X144987505Y-91701910D01*
X145029551Y-91676943D01*
X145063215Y-91658249D01*
X145090722Y-91645379D01*
X145117577Y-91635926D01*
X145150794Y-91628215D01*
X145196864Y-91622466D01*
X145264387Y-91620000D01*
X147189169Y-91620000D01*
X148698365Y-93129198D01*
X148741443Y-93175769D01*
X148766938Y-93209136D01*
X148782164Y-93234538D01*
X148792021Y-93256629D01*
X148800139Y-93281906D01*
X148808295Y-93316268D01*
X148817469Y-93362067D01*
X148817767Y-93363534D01*
X148828926Y-93417493D01*
X148830988Y-93426570D01*
X148845712Y-93486037D01*
X148849528Y-93499705D01*
X148857069Y-93523925D01*
X148862673Y-93552097D01*
X148907149Y-93659470D01*
X148971717Y-93756103D01*
X149053897Y-93838283D01*
X149150530Y-93902851D01*
X149257903Y-93947327D01*
X149371890Y-93970000D01*
X149488110Y-93970000D01*
X149602097Y-93947327D01*
X149709470Y-93902851D01*
X149806103Y-93838283D01*
X149888283Y-93756103D01*
X149952851Y-93659470D01*
X149997327Y-93552097D01*
X150020000Y-93438110D01*
X150020000Y-93321890D01*
X149997327Y-93207903D01*
X149952851Y-93100530D01*
X149888283Y-93003897D01*
X149806103Y-92921717D01*
X149709470Y-92857149D01*
X149602097Y-92812673D01*
X149573925Y-92807069D01*
X149549705Y-92799528D01*
X149536037Y-92795712D01*
X149476570Y-92780988D01*
X149467493Y-92778926D01*
X149413534Y-92767767D01*
X149412067Y-92767469D01*
X149366268Y-92758295D01*
X149331906Y-92750139D01*
X149306629Y-92742021D01*
X149284538Y-92732164D01*
X149259136Y-92716938D01*
X149225769Y-92691443D01*
X149179198Y-92648365D01*
X147582230Y-91051398D01*
X147571579Y-91038421D01*
X147519808Y-90995933D01*
X147460742Y-90964361D01*
X147396652Y-90944920D01*
X147346701Y-90940000D01*
X147346693Y-90940000D01*
X147330000Y-90938356D01*
X147313307Y-90940000D01*
X145264679Y-90940000D01*
X145201720Y-90937552D01*
X145160688Y-90932046D01*
X145132940Y-90925020D01*
X145111811Y-90916758D01*
X145090029Y-90905186D01*
X145062168Y-90887152D01*
X145025372Y-90860944D01*
X144980582Y-90828856D01*
X144974527Y-90824657D01*
X144923633Y-90790510D01*
X144912940Y-90783738D01*
X144877911Y-90762825D01*
X144839470Y-90737140D01*
X144732097Y-90692664D01*
X144618110Y-90669991D01*
X144501890Y-90669991D01*
X144387903Y-90692664D01*
X144280530Y-90737140D01*
X144183897Y-90801708D01*
X144101717Y-90883888D01*
X144037149Y-90980521D01*
X143992673Y-91087894D01*
X143970000Y-91201881D01*
X142872713Y-91201881D01*
X142732229Y-91061398D01*
X142721579Y-91048421D01*
X142669808Y-91005933D01*
X142610742Y-90974361D01*
X142546652Y-90954920D01*
X142496701Y-90950000D01*
X142496693Y-90950000D01*
X142480000Y-90948356D01*
X142463307Y-90950000D01*
X140916692Y-90950000D01*
X140899999Y-90948356D01*
X140883306Y-90950000D01*
X140883299Y-90950000D01*
X140833348Y-90954920D01*
X140769258Y-90974361D01*
X140724246Y-90998421D01*
X140710192Y-91005933D01*
X140671392Y-91037775D01*
X140671387Y-91037780D01*
X140658421Y-91048421D01*
X140647779Y-91061388D01*
X139481394Y-92227775D01*
X139468422Y-92238421D01*
X139457776Y-92251393D01*
X139457775Y-92251394D01*
X139425933Y-92290193D01*
X139394361Y-92349259D01*
X139374920Y-92413349D01*
X139368356Y-92480000D01*
X139370001Y-92496703D01*
X139370000Y-94548839D01*
X139345000Y-94548839D01*
X139224793Y-94560678D01*
X139109205Y-94595741D01*
X139002679Y-94652681D01*
X138909308Y-94729308D01*
X138850000Y-94801576D01*
X138850000Y-92486693D01*
X138851644Y-92470000D01*
X138850000Y-92453307D01*
X138850000Y-92453299D01*
X138845080Y-92403348D01*
X138825639Y-92339258D01*
X138794067Y-92280192D01*
X138751579Y-92228421D01*
X138738607Y-92217775D01*
X138011649Y-91490817D01*
X137968556Y-91444230D01*
X137943061Y-91410863D01*
X137927835Y-91385461D01*
X137917978Y-91363370D01*
X137909860Y-91338093D01*
X137901704Y-91303731D01*
X137892530Y-91257932D01*
X137892232Y-91256465D01*
X137881073Y-91202506D01*
X137879011Y-91193429D01*
X137864287Y-91133962D01*
X137860471Y-91120296D01*
X137852933Y-91096085D01*
X137847327Y-91067903D01*
X137802851Y-90960530D01*
X137738283Y-90863897D01*
X137656103Y-90781717D01*
X137559470Y-90717149D01*
X137452097Y-90672673D01*
X137338110Y-90650000D01*
X137221890Y-90650000D01*
X137107903Y-90672673D01*
X137000530Y-90717149D01*
X136903897Y-90781717D01*
X136821717Y-90863897D01*
X136757149Y-90960530D01*
X136712673Y-91067903D01*
X136690000Y-91181890D01*
X136690000Y-91298110D01*
X136712673Y-91412097D01*
X136757149Y-91519470D01*
X136821717Y-91616103D01*
X136903897Y-91698283D01*
X137000530Y-91762851D01*
X137107903Y-91807327D01*
X137136085Y-91812933D01*
X137160296Y-91820471D01*
X137173962Y-91824287D01*
X137233429Y-91839011D01*
X137242506Y-91841073D01*
X137296465Y-91852232D01*
X137297932Y-91852530D01*
X137343731Y-91861704D01*
X137378093Y-91869860D01*
X137403370Y-91877978D01*
X137425461Y-91887835D01*
X137450863Y-91903061D01*
X137484230Y-91928556D01*
X137530817Y-91971649D01*
X138170001Y-92610833D01*
X138170000Y-94801576D01*
X138110692Y-94729308D01*
X138017321Y-94652681D01*
X137910795Y-94595741D01*
X137795207Y-94560678D01*
X137675000Y-94548839D01*
X137650000Y-94548839D01*
X137650000Y-94504666D01*
X137652468Y-94441297D01*
X137658035Y-94399675D01*
X137665232Y-94370939D01*
X137673882Y-94348352D01*
X137686016Y-94324737D01*
X137704535Y-94294693D01*
X137730446Y-94255800D01*
X137731271Y-94254555D01*
X137761535Y-94208510D01*
X137766496Y-94200633D01*
X137798134Y-94148172D01*
X137805098Y-94135812D01*
X137816894Y-94113349D01*
X137832851Y-94089468D01*
X137877327Y-93982095D01*
X137900000Y-93868108D01*
X137900000Y-93751888D01*
X137877327Y-93637901D01*
X137832851Y-93530528D01*
X137768283Y-93433895D01*
X137686103Y-93351715D01*
X137589470Y-93287147D01*
X137482097Y-93242671D01*
X137368110Y-93219998D01*
X137251890Y-93219998D01*
X137137903Y-93242671D01*
X137030530Y-93287147D01*
X136933897Y-93351715D01*
X136851717Y-93433895D01*
X136787149Y-93530528D01*
X136742673Y-93637901D01*
X136720000Y-93751888D01*
X136720000Y-93868108D01*
X136742673Y-93982095D01*
X136787149Y-94089468D01*
X136803105Y-94113348D01*
X136814900Y-94135809D01*
X136821865Y-94148172D01*
X136853503Y-94200633D01*
X136858464Y-94208510D01*
X136888728Y-94254555D01*
X136889553Y-94255800D01*
X136915464Y-94294693D01*
X136933983Y-94324737D01*
X136946117Y-94348352D01*
X136954767Y-94370939D01*
X136961964Y-94399675D01*
X136967531Y-94441297D01*
X136970001Y-94504685D01*
X136970001Y-94548839D01*
X136925000Y-94548839D01*
X136804793Y-94560678D01*
X136689205Y-94595741D01*
X136582679Y-94652681D01*
X136489308Y-94729308D01*
X136412681Y-94822679D01*
X136355741Y-94929205D01*
X136320678Y-95044793D01*
X136308839Y-95165000D01*
X136308839Y-95915000D01*
X136320678Y-96035207D01*
X136355741Y-96150795D01*
X136412681Y-96257321D01*
X136489308Y-96350692D01*
X136582679Y-96427319D01*
X136689205Y-96484259D01*
X136804793Y-96519322D01*
X136925000Y-96531161D01*
X137675000Y-96531161D01*
X137795207Y-96519322D01*
X137910795Y-96484259D01*
X138017321Y-96427319D01*
X138110692Y-96350692D01*
X138174549Y-96272882D01*
X138174920Y-96276651D01*
X138194361Y-96340741D01*
X138225933Y-96399807D01*
X138268421Y-96451578D01*
X138281394Y-96462225D01*
X139057774Y-97238606D01*
X139068421Y-97251579D01*
X139120192Y-97294067D01*
X139179258Y-97325639D01*
X139243348Y-97345080D01*
X139293299Y-97350000D01*
X139293307Y-97350000D01*
X139310000Y-97351644D01*
X139326693Y-97350000D01*
X140225706Y-97350000D01*
X140049060Y-97423169D01*
X139740997Y-97629010D01*
X139479010Y-97890997D01*
X139273169Y-98199060D01*
X139144000Y-98510902D01*
X139144000Y-97747174D01*
X139129617Y-97601142D01*
X139072779Y-97413772D01*
X138980479Y-97241091D01*
X138856265Y-97089735D01*
X138704909Y-96965521D01*
X138532227Y-96873221D01*
X138344857Y-96816383D01*
X138150000Y-96797191D01*
X137955142Y-96816383D01*
X137767772Y-96873221D01*
X137595091Y-96965521D01*
X137443735Y-97089735D01*
X137319521Y-97241091D01*
X137227221Y-97413773D01*
X137170383Y-97601143D01*
X137156000Y-97747175D01*
X137156001Y-99352826D01*
X137170384Y-99498858D01*
X137183336Y-99541555D01*
X137151822Y-99577346D01*
X136251394Y-100477775D01*
X136238421Y-100488422D01*
X136195933Y-100540193D01*
X136164361Y-100599259D01*
X136144920Y-100663349D01*
X136140000Y-100713300D01*
X136140000Y-100713307D01*
X136138356Y-100730000D01*
X136140000Y-100746693D01*
X136140001Y-101779166D01*
X134989169Y-102930000D01*
X133305917Y-102930000D01*
X133224879Y-102925995D01*
X133172079Y-102917026D01*
X133156161Y-102911966D01*
X133156161Y-102815000D01*
X133151527Y-102767952D01*
X133137804Y-102722712D01*
X133115518Y-102681018D01*
X133085527Y-102644473D01*
X133048982Y-102614482D01*
X133007288Y-102592196D01*
X132962048Y-102578473D01*
X132915000Y-102573839D01*
X131945000Y-102573839D01*
X131897952Y-102578473D01*
X131852712Y-102592196D01*
X131811018Y-102614482D01*
X131774473Y-102644473D01*
X131744482Y-102681018D01*
X131722196Y-102722712D01*
X131708473Y-102767952D01*
X131703839Y-102815000D01*
X125840000Y-102815000D01*
X125840000Y-100127683D01*
X125868350Y-100155356D01*
X126047539Y-100271981D01*
X126262945Y-100349301D01*
X126430000Y-100298285D01*
X126430000Y-98670000D01*
X126670000Y-98670000D01*
X126670000Y-100298285D01*
X126837055Y-100349301D01*
X127052461Y-100271981D01*
X127231650Y-100155356D01*
X127384644Y-100006014D01*
X127505563Y-99829694D01*
X127540917Y-99747175D01*
X127956000Y-99747175D01*
X127956001Y-101352826D01*
X127970384Y-101498858D01*
X128027222Y-101686228D01*
X128119522Y-101858909D01*
X128243736Y-102010265D01*
X128395092Y-102134479D01*
X128567773Y-102226779D01*
X128755143Y-102283617D01*
X128950000Y-102302809D01*
X129144858Y-102283617D01*
X129332228Y-102226779D01*
X129504909Y-102134479D01*
X129656265Y-102010265D01*
X129780479Y-101858909D01*
X129872779Y-101686228D01*
X129929617Y-101498858D01*
X129944000Y-101352826D01*
X129944000Y-99747174D01*
X129929617Y-99601142D01*
X129872779Y-99413772D01*
X129780479Y-99241091D01*
X129689995Y-99130836D01*
X131073656Y-97747175D01*
X131656000Y-97747175D01*
X131656001Y-99352826D01*
X131670384Y-99498858D01*
X131727222Y-99686228D01*
X131819522Y-99858909D01*
X131943736Y-100010265D01*
X132095092Y-100134479D01*
X132267773Y-100226779D01*
X132455143Y-100283617D01*
X132650000Y-100302809D01*
X132844858Y-100283617D01*
X133032228Y-100226779D01*
X133204909Y-100134479D01*
X133356265Y-100010265D01*
X133456000Y-99888737D01*
X133456001Y-101352826D01*
X133470384Y-101498858D01*
X133527222Y-101686228D01*
X133619522Y-101858909D01*
X133743736Y-102010265D01*
X133895092Y-102134479D01*
X134067773Y-102226779D01*
X134255143Y-102283617D01*
X134450000Y-102302809D01*
X134644858Y-102283617D01*
X134832228Y-102226779D01*
X135004909Y-102134479D01*
X135156265Y-102010265D01*
X135280479Y-101858909D01*
X135372779Y-101686228D01*
X135429617Y-101498858D01*
X135444000Y-101352826D01*
X135444000Y-99747174D01*
X135429617Y-99601142D01*
X135372779Y-99413772D01*
X135280479Y-99241091D01*
X135156265Y-99089735D01*
X135004909Y-98965521D01*
X134832227Y-98873221D01*
X134644857Y-98816383D01*
X134450000Y-98797191D01*
X134255142Y-98816383D01*
X134067772Y-98873221D01*
X133895091Y-98965521D01*
X133743735Y-99089735D01*
X133644000Y-99211263D01*
X133644000Y-97747174D01*
X133629617Y-97601142D01*
X133572779Y-97413772D01*
X133480479Y-97241091D01*
X133356265Y-97089735D01*
X133204909Y-96965521D01*
X133032227Y-96873221D01*
X132844857Y-96816383D01*
X132650000Y-96797191D01*
X132455142Y-96816383D01*
X132267772Y-96873221D01*
X132095091Y-96965521D01*
X131943735Y-97089735D01*
X131819521Y-97241091D01*
X131727221Y-97413773D01*
X131670383Y-97601143D01*
X131656000Y-97747175D01*
X131073656Y-97747175D01*
X132790833Y-96030000D01*
X133900165Y-96030000D01*
X133900678Y-96035207D01*
X133935741Y-96150795D01*
X133992681Y-96257321D01*
X134069308Y-96350692D01*
X134162679Y-96427319D01*
X134269205Y-96484259D01*
X134384793Y-96519322D01*
X134505000Y-96531161D01*
X135255000Y-96531161D01*
X135375207Y-96519322D01*
X135490795Y-96484259D01*
X135597321Y-96427319D01*
X135690692Y-96350692D01*
X135767319Y-96257321D01*
X135824259Y-96150795D01*
X135859322Y-96035207D01*
X135871161Y-95915000D01*
X135871161Y-95165000D01*
X135859322Y-95044793D01*
X135824259Y-94929205D01*
X135767319Y-94822679D01*
X135690692Y-94729308D01*
X135597321Y-94652681D01*
X135490795Y-94595741D01*
X135375207Y-94560678D01*
X135255000Y-94548839D01*
X134505000Y-94548839D01*
X134384793Y-94560678D01*
X134269205Y-94595741D01*
X134162679Y-94652681D01*
X134069308Y-94729308D01*
X133992681Y-94822679D01*
X133935741Y-94929205D01*
X133900678Y-95044793D01*
X133888839Y-95165000D01*
X133888839Y-95350000D01*
X132666692Y-95350000D01*
X132649999Y-95348356D01*
X132633306Y-95350000D01*
X132633299Y-95350000D01*
X132583348Y-95354920D01*
X132519258Y-95374361D01*
X132465026Y-95403349D01*
X132460192Y-95405933D01*
X132421392Y-95437775D01*
X132421387Y-95437780D01*
X132408421Y-95448421D01*
X132397779Y-95461388D01*
X129051938Y-98807231D01*
X128950000Y-98797191D01*
X128755142Y-98816383D01*
X128567772Y-98873221D01*
X128395091Y-98965521D01*
X128243735Y-99089735D01*
X128119521Y-99241091D01*
X128027221Y-99413773D01*
X127970383Y-99601143D01*
X127956000Y-99747175D01*
X127540917Y-99747175D01*
X127589760Y-99633172D01*
X127634000Y-99424000D01*
X127634000Y-98670000D01*
X126670000Y-98670000D01*
X126430000Y-98670000D01*
X126410000Y-98670000D01*
X126410000Y-98430000D01*
X126430000Y-98430000D01*
X126430000Y-96801715D01*
X126670000Y-96801715D01*
X126670000Y-98430000D01*
X127634000Y-98430000D01*
X127634000Y-97676000D01*
X127589760Y-97466828D01*
X127505563Y-97270306D01*
X127384644Y-97093986D01*
X127231650Y-96944644D01*
X127052461Y-96828019D01*
X126837055Y-96750699D01*
X126670000Y-96801715D01*
X126430000Y-96801715D01*
X126262945Y-96750699D01*
X126047539Y-96828019D01*
X125868350Y-96944644D01*
X125840000Y-96972317D01*
X125840000Y-96410000D01*
X130975755Y-96410000D01*
X130990000Y-96411403D01*
X131004245Y-96410000D01*
X131046850Y-96405804D01*
X131101515Y-96389221D01*
X131151895Y-96362293D01*
X131196053Y-96326053D01*
X131232293Y-96281895D01*
X131259221Y-96231515D01*
X131275804Y-96176850D01*
X131281403Y-96120000D01*
X131280000Y-96105755D01*
X131280000Y-88770000D01*
X150610000Y-88770000D01*
X150610001Y-96105744D01*
G37*
G04 #@! TD.AperFunction*
D21*
X143567779Y-92858612D02*
X143578421Y-92871579D01*
X143591387Y-92882220D01*
X143591392Y-92882225D01*
X143621408Y-92906858D01*
X143630192Y-92914067D01*
X143689258Y-92945639D01*
X143753348Y-92965080D01*
X143803299Y-92970000D01*
X143803306Y-92970000D01*
X143819999Y-92971644D01*
X143836692Y-92970000D01*
X146469169Y-92970000D01*
X148720000Y-95220833D01*
X148720001Y-96273297D01*
X148718356Y-96290000D01*
X148724920Y-96356651D01*
X148744361Y-96420741D01*
X148775933Y-96479807D01*
X148783003Y-96488422D01*
X148818422Y-96531579D01*
X148831394Y-96542225D01*
X149447774Y-97158606D01*
X149458421Y-97171579D01*
X149510192Y-97214067D01*
X149569258Y-97245639D01*
X149633348Y-97265080D01*
X149683299Y-97270000D01*
X149683307Y-97270000D01*
X149700000Y-97271644D01*
X149716693Y-97270000D01*
X153329169Y-97270000D01*
X154380000Y-98320832D01*
X154380001Y-101389167D01*
X152759169Y-103010000D01*
X151428753Y-103010000D01*
X151428753Y-103000991D01*
X151424119Y-102953943D01*
X151404997Y-102857810D01*
X151391274Y-102812571D01*
X151353765Y-102722015D01*
X151331479Y-102680320D01*
X151277023Y-102598821D01*
X151247032Y-102562276D01*
X151177724Y-102492968D01*
X151141179Y-102462977D01*
X151059680Y-102408521D01*
X151017985Y-102386235D01*
X150927429Y-102348726D01*
X150882190Y-102335003D01*
X150786057Y-102315881D01*
X150739009Y-102311247D01*
X150714448Y-102311247D01*
X150690000Y-102308839D01*
X150140000Y-102308839D01*
X150092952Y-102313473D01*
X150047712Y-102327196D01*
X150015000Y-102344681D01*
X149982288Y-102327196D01*
X149937048Y-102313473D01*
X149890000Y-102308839D01*
X149721992Y-102308839D01*
X150000832Y-102030000D01*
X151038307Y-102030000D01*
X151055000Y-102031644D01*
X151071693Y-102030000D01*
X151071701Y-102030000D01*
X151121652Y-102025080D01*
X151185742Y-102005639D01*
X151244808Y-101974067D01*
X151296579Y-101931579D01*
X151307229Y-101918602D01*
X152498612Y-100727221D01*
X152511579Y-100716579D01*
X152522220Y-100703613D01*
X152522225Y-100703608D01*
X152554067Y-100664808D01*
X152568518Y-100637773D01*
X152585639Y-100605742D01*
X152605080Y-100541652D01*
X152607782Y-100514222D01*
X152611603Y-100504419D01*
X152621593Y-100476161D01*
X152735000Y-100476161D01*
X152782048Y-100471527D01*
X152827288Y-100457804D01*
X152868982Y-100435518D01*
X152905527Y-100405527D01*
X152935518Y-100368982D01*
X152957804Y-100327288D01*
X152971527Y-100282048D01*
X152976161Y-100235000D01*
X152976161Y-99445000D01*
X152971527Y-99397952D01*
X152957804Y-99352712D01*
X152935518Y-99311018D01*
X152905527Y-99274473D01*
X152868982Y-99244482D01*
X152827288Y-99222196D01*
X152782048Y-99208473D01*
X152735000Y-99203839D01*
X151805000Y-99203839D01*
X151757952Y-99208473D01*
X151712712Y-99222196D01*
X151671018Y-99244482D01*
X151634473Y-99274473D01*
X151604482Y-99311018D01*
X151582196Y-99352712D01*
X151568473Y-99397952D01*
X151563839Y-99445000D01*
X151563839Y-100235000D01*
X151568473Y-100282048D01*
X151582196Y-100327288D01*
X151604482Y-100368982D01*
X151634473Y-100405527D01*
X151671018Y-100435518D01*
X151712712Y-100457804D01*
X151757952Y-100471527D01*
X151789530Y-100474637D01*
X150914169Y-101350000D01*
X149876693Y-101350000D01*
X149860000Y-101348356D01*
X149843307Y-101350000D01*
X149843299Y-101350000D01*
X149793348Y-101354920D01*
X149729258Y-101374361D01*
X149670192Y-101405933D01*
X149618421Y-101448421D01*
X149607775Y-101461393D01*
X149380000Y-101689168D01*
X149132229Y-101441398D01*
X149121579Y-101428421D01*
X149069808Y-101385933D01*
X149010742Y-101354361D01*
X148946652Y-101334920D01*
X148896701Y-101330000D01*
X148896693Y-101330000D01*
X148880000Y-101328356D01*
X148863307Y-101330000D01*
X146735367Y-101330000D01*
X146644008Y-101329860D01*
X146639932Y-101329840D01*
X146635527Y-101324473D01*
X146598982Y-101294482D01*
X146557288Y-101272196D01*
X146512048Y-101258473D01*
X146465000Y-101253839D01*
X145675000Y-101253839D01*
X145627952Y-101258473D01*
X145582712Y-101272196D01*
X145541018Y-101294482D01*
X145504473Y-101324473D01*
X145474482Y-101361018D01*
X145452196Y-101402712D01*
X145438473Y-101447952D01*
X145433839Y-101495000D01*
X145433839Y-102425000D01*
X145438473Y-102472048D01*
X145452196Y-102517288D01*
X145474482Y-102558982D01*
X145504473Y-102595527D01*
X145541018Y-102625518D01*
X145582712Y-102647804D01*
X145627952Y-102661527D01*
X145675000Y-102666161D01*
X146465000Y-102666161D01*
X146512048Y-102661527D01*
X146557288Y-102647804D01*
X146598982Y-102625518D01*
X146635527Y-102595527D01*
X146665518Y-102558982D01*
X146687804Y-102517288D01*
X146701527Y-102472048D01*
X146706161Y-102425000D01*
X146706161Y-102051762D01*
X146716561Y-102022513D01*
X146721479Y-102011453D01*
X146743066Y-102010000D01*
X148739169Y-102010000D01*
X149020000Y-102290832D01*
X149020000Y-102308839D01*
X148890000Y-102308839D01*
X148842952Y-102313473D01*
X148797712Y-102327196D01*
X148765000Y-102344681D01*
X148732288Y-102327196D01*
X148687048Y-102313473D01*
X148640000Y-102308839D01*
X148090000Y-102308839D01*
X148065552Y-102311247D01*
X148040991Y-102311247D01*
X147993943Y-102315881D01*
X147897810Y-102335003D01*
X147852571Y-102348726D01*
X147762015Y-102386235D01*
X147720320Y-102408521D01*
X147638821Y-102462977D01*
X147602276Y-102492968D01*
X147532968Y-102562276D01*
X147502977Y-102598821D01*
X147448521Y-102680320D01*
X147426235Y-102722015D01*
X147388726Y-102812571D01*
X147375003Y-102857810D01*
X147362633Y-102920000D01*
X144283732Y-102920000D01*
X144029334Y-102665603D01*
X144035000Y-102666161D01*
X144825000Y-102666161D01*
X144872048Y-102661527D01*
X144917288Y-102647804D01*
X144958982Y-102625518D01*
X144995527Y-102595527D01*
X145025518Y-102558982D01*
X145047804Y-102517288D01*
X145061527Y-102472048D01*
X145066161Y-102425000D01*
X145066161Y-101495000D01*
X145061527Y-101447952D01*
X145047804Y-101402712D01*
X145025518Y-101361018D01*
X144995527Y-101324473D01*
X144958982Y-101294482D01*
X144917288Y-101272196D01*
X144872048Y-101258473D01*
X144825000Y-101253839D01*
X144400000Y-101253839D01*
X144400000Y-99445000D01*
X144423839Y-99445000D01*
X144423839Y-100235000D01*
X144428473Y-100282048D01*
X144442196Y-100327288D01*
X144464482Y-100368982D01*
X144494473Y-100405527D01*
X144531018Y-100435518D01*
X144560000Y-100451009D01*
X144560000Y-100538110D01*
X144582673Y-100652097D01*
X144627149Y-100759470D01*
X144691717Y-100856103D01*
X144773897Y-100938283D01*
X144870530Y-101002851D01*
X144977903Y-101047327D01*
X145091890Y-101070000D01*
X145208110Y-101070000D01*
X145322097Y-101047327D01*
X145429470Y-101002851D01*
X145526103Y-100938283D01*
X145608283Y-100856103D01*
X145672851Y-100759470D01*
X145717327Y-100652097D01*
X145740000Y-100538110D01*
X145740000Y-100426476D01*
X145765527Y-100405527D01*
X145795518Y-100368982D01*
X145817804Y-100327288D01*
X145831527Y-100282048D01*
X145836161Y-100235000D01*
X145836161Y-99445000D01*
X146853839Y-99445000D01*
X146853839Y-100235000D01*
X146858473Y-100282048D01*
X146872196Y-100327288D01*
X146894482Y-100368982D01*
X146924473Y-100405527D01*
X146960000Y-100434683D01*
X146960000Y-100528060D01*
X146982673Y-100642047D01*
X147027149Y-100749420D01*
X147091717Y-100846053D01*
X147173897Y-100928233D01*
X147270530Y-100992801D01*
X147377903Y-101037277D01*
X147491890Y-101059950D01*
X147608110Y-101059950D01*
X147722097Y-101037277D01*
X147829470Y-100992801D01*
X147926103Y-100928233D01*
X148008283Y-100846053D01*
X148072851Y-100749420D01*
X148117327Y-100642047D01*
X148140000Y-100528060D01*
X148140000Y-100445664D01*
X148158982Y-100435518D01*
X148195527Y-100405527D01*
X148225518Y-100368982D01*
X148247804Y-100327288D01*
X148261527Y-100282048D01*
X148266161Y-100235000D01*
X148266161Y-99445000D01*
X149303839Y-99445000D01*
X149303839Y-100235000D01*
X149308473Y-100282048D01*
X149322196Y-100327288D01*
X149344482Y-100368982D01*
X149374473Y-100405527D01*
X149411018Y-100435518D01*
X149420000Y-100440319D01*
X149420000Y-100548110D01*
X149442673Y-100662097D01*
X149487149Y-100769470D01*
X149551717Y-100866103D01*
X149633897Y-100948283D01*
X149730530Y-101012851D01*
X149837903Y-101057327D01*
X149951890Y-101080000D01*
X150068110Y-101080000D01*
X150182097Y-101057327D01*
X150289470Y-101012851D01*
X150386103Y-100948283D01*
X150468283Y-100866103D01*
X150532851Y-100769470D01*
X150577327Y-100662097D01*
X150600000Y-100548110D01*
X150600000Y-100440319D01*
X150608982Y-100435518D01*
X150645527Y-100405527D01*
X150675518Y-100368982D01*
X150697804Y-100327288D01*
X150711527Y-100282048D01*
X150716161Y-100235000D01*
X150716161Y-99445000D01*
X150711527Y-99397952D01*
X150697804Y-99352712D01*
X150675518Y-99311018D01*
X150645527Y-99274473D01*
X150608982Y-99244482D01*
X150567288Y-99222196D01*
X150522048Y-99208473D01*
X150475000Y-99203839D01*
X149545000Y-99203839D01*
X149497952Y-99208473D01*
X149452712Y-99222196D01*
X149411018Y-99244482D01*
X149374473Y-99274473D01*
X149344482Y-99311018D01*
X149322196Y-99352712D01*
X149308473Y-99397952D01*
X149303839Y-99445000D01*
X148266161Y-99445000D01*
X148261527Y-99397952D01*
X148247804Y-99352712D01*
X148225518Y-99311018D01*
X148195527Y-99274473D01*
X148158982Y-99244482D01*
X148117288Y-99222196D01*
X148072048Y-99208473D01*
X148025000Y-99203839D01*
X147095000Y-99203839D01*
X147047952Y-99208473D01*
X147002712Y-99222196D01*
X146961018Y-99244482D01*
X146924473Y-99274473D01*
X146894482Y-99311018D01*
X146872196Y-99352712D01*
X146858473Y-99397952D01*
X146853839Y-99445000D01*
X145836161Y-99445000D01*
X145831527Y-99397952D01*
X145817804Y-99352712D01*
X145795518Y-99311018D01*
X145765527Y-99274473D01*
X145728982Y-99244482D01*
X145687288Y-99222196D01*
X145642048Y-99208473D01*
X145595000Y-99203839D01*
X144665000Y-99203839D01*
X144617952Y-99208473D01*
X144572712Y-99222196D01*
X144531018Y-99244482D01*
X144494473Y-99274473D01*
X144464482Y-99311018D01*
X144442196Y-99352712D01*
X144428473Y-99397952D01*
X144423839Y-99445000D01*
X144400000Y-99445000D01*
X144400000Y-98792279D01*
X144430526Y-98829474D01*
X144480775Y-98870713D01*
X144538103Y-98901356D01*
X144600309Y-98920225D01*
X144665000Y-98926597D01*
X144927500Y-98925000D01*
X145010000Y-98842500D01*
X145010000Y-98320000D01*
X145250000Y-98320000D01*
X145250000Y-98842500D01*
X145332500Y-98925000D01*
X145595000Y-98926597D01*
X145659691Y-98920225D01*
X145721897Y-98901356D01*
X145779225Y-98870713D01*
X145829474Y-98829474D01*
X145870713Y-98779225D01*
X145901356Y-98721897D01*
X145920225Y-98659691D01*
X145926597Y-98595000D01*
X146763403Y-98595000D01*
X146769775Y-98659691D01*
X146788644Y-98721897D01*
X146819287Y-98779225D01*
X146860526Y-98829474D01*
X146910775Y-98870713D01*
X146968103Y-98901356D01*
X147030309Y-98920225D01*
X147095000Y-98926597D01*
X147357500Y-98925000D01*
X147440000Y-98842500D01*
X147440000Y-98320000D01*
X147680000Y-98320000D01*
X147680000Y-98842500D01*
X147762500Y-98925000D01*
X148025000Y-98926597D01*
X148089691Y-98920225D01*
X148151897Y-98901356D01*
X148209225Y-98870713D01*
X148259474Y-98829474D01*
X148300713Y-98779225D01*
X148331356Y-98721897D01*
X148350225Y-98659691D01*
X148356597Y-98595000D01*
X149213403Y-98595000D01*
X149219775Y-98659691D01*
X149238644Y-98721897D01*
X149269287Y-98779225D01*
X149310526Y-98829474D01*
X149360775Y-98870713D01*
X149418103Y-98901356D01*
X149480309Y-98920225D01*
X149545000Y-98926597D01*
X149807500Y-98925000D01*
X149890000Y-98842500D01*
X149890000Y-98320000D01*
X150130000Y-98320000D01*
X150130000Y-98842500D01*
X150212500Y-98925000D01*
X150475000Y-98926597D01*
X150539691Y-98920225D01*
X150601897Y-98901356D01*
X150659225Y-98870713D01*
X150709474Y-98829474D01*
X150750713Y-98779225D01*
X150781356Y-98721897D01*
X150800225Y-98659691D01*
X150806597Y-98595000D01*
X151473403Y-98595000D01*
X151479775Y-98659691D01*
X151498644Y-98721897D01*
X151529287Y-98779225D01*
X151570526Y-98829474D01*
X151620775Y-98870713D01*
X151678103Y-98901356D01*
X151740309Y-98920225D01*
X151805000Y-98926597D01*
X152067500Y-98925000D01*
X152150000Y-98842500D01*
X152150000Y-98320000D01*
X152390000Y-98320000D01*
X152390000Y-98842500D01*
X152472500Y-98925000D01*
X152735000Y-98926597D01*
X152799691Y-98920225D01*
X152861897Y-98901356D01*
X152919225Y-98870713D01*
X152969474Y-98829474D01*
X153010713Y-98779225D01*
X153041356Y-98721897D01*
X153060225Y-98659691D01*
X153066597Y-98595000D01*
X153065000Y-98402500D01*
X152982500Y-98320000D01*
X152390000Y-98320000D01*
X152150000Y-98320000D01*
X151557500Y-98320000D01*
X151475000Y-98402500D01*
X151473403Y-98595000D01*
X150806597Y-98595000D01*
X150805000Y-98402500D01*
X150722500Y-98320000D01*
X150130000Y-98320000D01*
X149890000Y-98320000D01*
X149297500Y-98320000D01*
X149215000Y-98402500D01*
X149213403Y-98595000D01*
X148356597Y-98595000D01*
X148355000Y-98402500D01*
X148272500Y-98320000D01*
X147680000Y-98320000D01*
X147440000Y-98320000D01*
X146847500Y-98320000D01*
X146765000Y-98402500D01*
X146763403Y-98595000D01*
X145926597Y-98595000D01*
X145925000Y-98402500D01*
X145842500Y-98320000D01*
X145250000Y-98320000D01*
X145010000Y-98320000D01*
X144990000Y-98320000D01*
X144990000Y-98080000D01*
X145010000Y-98080000D01*
X145010000Y-97557500D01*
X145250000Y-97557500D01*
X145250000Y-98080000D01*
X145842500Y-98080000D01*
X145925000Y-97997500D01*
X145926597Y-97805000D01*
X146763403Y-97805000D01*
X146765000Y-97997500D01*
X146847500Y-98080000D01*
X147440000Y-98080000D01*
X147440000Y-97557500D01*
X147680000Y-97557500D01*
X147680000Y-98080000D01*
X148272500Y-98080000D01*
X148355000Y-97997500D01*
X148356597Y-97805000D01*
X149213403Y-97805000D01*
X149215000Y-97997500D01*
X149297500Y-98080000D01*
X149890000Y-98080000D01*
X149890000Y-97557500D01*
X150130000Y-97557500D01*
X150130000Y-98080000D01*
X150722500Y-98080000D01*
X150805000Y-97997500D01*
X150806597Y-97805000D01*
X151473403Y-97805000D01*
X151475000Y-97997500D01*
X151557500Y-98080000D01*
X152150000Y-98080000D01*
X152150000Y-97557500D01*
X152390000Y-97557500D01*
X152390000Y-98080000D01*
X152982500Y-98080000D01*
X153065000Y-97997500D01*
X153066597Y-97805000D01*
X153060225Y-97740309D01*
X153041356Y-97678103D01*
X153010713Y-97620775D01*
X152969474Y-97570526D01*
X152919225Y-97529287D01*
X152861897Y-97498644D01*
X152799691Y-97479775D01*
X152735000Y-97473403D01*
X152472500Y-97475000D01*
X152390000Y-97557500D01*
X152150000Y-97557500D01*
X152067500Y-97475000D01*
X151805000Y-97473403D01*
X151740309Y-97479775D01*
X151678103Y-97498644D01*
X151620775Y-97529287D01*
X151570526Y-97570526D01*
X151529287Y-97620775D01*
X151498644Y-97678103D01*
X151479775Y-97740309D01*
X151473403Y-97805000D01*
X150806597Y-97805000D01*
X150800225Y-97740309D01*
X150781356Y-97678103D01*
X150750713Y-97620775D01*
X150709474Y-97570526D01*
X150659225Y-97529287D01*
X150601897Y-97498644D01*
X150539691Y-97479775D01*
X150475000Y-97473403D01*
X150212500Y-97475000D01*
X150130000Y-97557500D01*
X149890000Y-97557500D01*
X149807500Y-97475000D01*
X149545000Y-97473403D01*
X149480309Y-97479775D01*
X149418103Y-97498644D01*
X149360775Y-97529287D01*
X149310526Y-97570526D01*
X149269287Y-97620775D01*
X149238644Y-97678103D01*
X149219775Y-97740309D01*
X149213403Y-97805000D01*
X148356597Y-97805000D01*
X148350225Y-97740309D01*
X148331356Y-97678103D01*
X148300713Y-97620775D01*
X148259474Y-97570526D01*
X148209225Y-97529287D01*
X148151897Y-97498644D01*
X148089691Y-97479775D01*
X148025000Y-97473403D01*
X147762500Y-97475000D01*
X147680000Y-97557500D01*
X147440000Y-97557500D01*
X147357500Y-97475000D01*
X147095000Y-97473403D01*
X147030309Y-97479775D01*
X146968103Y-97498644D01*
X146910775Y-97529287D01*
X146860526Y-97570526D01*
X146819287Y-97620775D01*
X146788644Y-97678103D01*
X146769775Y-97740309D01*
X146763403Y-97805000D01*
X145926597Y-97805000D01*
X145920225Y-97740309D01*
X145901356Y-97678103D01*
X145870713Y-97620775D01*
X145829474Y-97570526D01*
X145779225Y-97529287D01*
X145721897Y-97498644D01*
X145659691Y-97479775D01*
X145595000Y-97473403D01*
X145332500Y-97475000D01*
X145250000Y-97557500D01*
X145010000Y-97557500D01*
X144927500Y-97475000D01*
X144665000Y-97473403D01*
X144600309Y-97479775D01*
X144538103Y-97498644D01*
X144480775Y-97529287D01*
X144430526Y-97570526D01*
X144400000Y-97607721D01*
X144400000Y-96870831D01*
X144739671Y-96531161D01*
X144935000Y-96531161D01*
X145055207Y-96519322D01*
X145170795Y-96484259D01*
X145277321Y-96427319D01*
X145370692Y-96350692D01*
X145447319Y-96257321D01*
X145504259Y-96150795D01*
X145539322Y-96035207D01*
X145551161Y-95915000D01*
X145551161Y-95165000D01*
X145539322Y-95044793D01*
X145504259Y-94929205D01*
X145447319Y-94822679D01*
X145370692Y-94729308D01*
X145277321Y-94652681D01*
X145170795Y-94595741D01*
X145055207Y-94560678D01*
X144935000Y-94548839D01*
X144185000Y-94548839D01*
X144064793Y-94560678D01*
X143949205Y-94595741D01*
X143842679Y-94652681D01*
X143749308Y-94729308D01*
X143700000Y-94789390D01*
X143700000Y-94216693D01*
X143701644Y-94200000D01*
X143700000Y-94183307D01*
X143700000Y-94183299D01*
X143695080Y-94133348D01*
X143675639Y-94069258D01*
X143644067Y-94010192D01*
X143618988Y-93979633D01*
X143613905Y-93962672D01*
X143606879Y-93931455D01*
X143602132Y-93895908D01*
X143600000Y-93844996D01*
X143600000Y-93841890D01*
X145170000Y-93841890D01*
X145170000Y-93958110D01*
X145192673Y-94072097D01*
X145237149Y-94179470D01*
X145301717Y-94276103D01*
X145383897Y-94358283D01*
X145480530Y-94422851D01*
X145587903Y-94467327D01*
X145616085Y-94472933D01*
X145640296Y-94480471D01*
X145653962Y-94484287D01*
X145713429Y-94499011D01*
X145722506Y-94501073D01*
X145776465Y-94512232D01*
X145777932Y-94512530D01*
X145823731Y-94521704D01*
X145858093Y-94529860D01*
X145883370Y-94537978D01*
X145905461Y-94547835D01*
X145930863Y-94563061D01*
X145964230Y-94588556D01*
X146010812Y-94631643D01*
X146141888Y-94762720D01*
X146092681Y-94822679D01*
X146035741Y-94929205D01*
X146000678Y-95044793D01*
X145988839Y-95165000D01*
X145988839Y-95915000D01*
X146000678Y-96035207D01*
X146035741Y-96150795D01*
X146092681Y-96257321D01*
X146169308Y-96350692D01*
X146262679Y-96427319D01*
X146369205Y-96484259D01*
X146484793Y-96519322D01*
X146605000Y-96531161D01*
X147355000Y-96531161D01*
X147475207Y-96519322D01*
X147590795Y-96484259D01*
X147697321Y-96427319D01*
X147790692Y-96350692D01*
X147867319Y-96257321D01*
X147924259Y-96150795D01*
X147959322Y-96035207D01*
X147971161Y-95915000D01*
X147971161Y-95165000D01*
X147959322Y-95044793D01*
X147924259Y-94929205D01*
X147867319Y-94822679D01*
X147790692Y-94729308D01*
X147697321Y-94652681D01*
X147590795Y-94595741D01*
X147475207Y-94560678D01*
X147355000Y-94548839D01*
X146889671Y-94548839D01*
X146491643Y-94150812D01*
X146448556Y-94104230D01*
X146423061Y-94070863D01*
X146407835Y-94045461D01*
X146397978Y-94023370D01*
X146389860Y-93998093D01*
X146381704Y-93963731D01*
X146372530Y-93917932D01*
X146372232Y-93916465D01*
X146361073Y-93862506D01*
X146359011Y-93853429D01*
X146344287Y-93793962D01*
X146340471Y-93780296D01*
X146332933Y-93756085D01*
X146327327Y-93727903D01*
X146282851Y-93620530D01*
X146218283Y-93523897D01*
X146136103Y-93441717D01*
X146039470Y-93377149D01*
X145932097Y-93332673D01*
X145818110Y-93310000D01*
X145701890Y-93310000D01*
X145587903Y-93332673D01*
X145480530Y-93377149D01*
X145383897Y-93441717D01*
X145301717Y-93523897D01*
X145237149Y-93620530D01*
X145192673Y-93727903D01*
X145170000Y-93841890D01*
X143600000Y-93841890D01*
X143600000Y-93791890D01*
X143577327Y-93677903D01*
X143532851Y-93570530D01*
X143468283Y-93473897D01*
X143386103Y-93391717D01*
X143289470Y-93327149D01*
X143182097Y-93282673D01*
X143068110Y-93260000D01*
X142951890Y-93260000D01*
X142837903Y-93282673D01*
X142730530Y-93327149D01*
X142633897Y-93391717D01*
X142551717Y-93473897D01*
X142487149Y-93570530D01*
X142442673Y-93677903D01*
X142420000Y-93791890D01*
X142420000Y-93908110D01*
X142442673Y-94022097D01*
X142487149Y-94129470D01*
X142551717Y-94226103D01*
X142633897Y-94308283D01*
X142730530Y-94372851D01*
X142837903Y-94417327D01*
X142875809Y-94424867D01*
X142880928Y-94426348D01*
X142899064Y-94430838D01*
X142951326Y-94441638D01*
X142959546Y-94443188D01*
X143008941Y-94451613D01*
X143020001Y-94453632D01*
X143020000Y-96613307D01*
X143018356Y-96630000D01*
X143020000Y-96646693D01*
X143020000Y-96646700D01*
X143024920Y-96696651D01*
X143044361Y-96760741D01*
X143075933Y-96819807D01*
X143118421Y-96871578D01*
X143131394Y-96882225D01*
X143160001Y-96910832D01*
X143160001Y-97780867D01*
X143152225Y-97771392D01*
X143152220Y-97771387D01*
X143141579Y-97758421D01*
X143128612Y-97747779D01*
X142162229Y-96781398D01*
X142151579Y-96768421D01*
X142099808Y-96725933D01*
X142040742Y-96694361D01*
X141976652Y-96674920D01*
X141926701Y-96670000D01*
X141926693Y-96670000D01*
X141910000Y-96668356D01*
X141893307Y-96670000D01*
X139450832Y-96670000D01*
X139308387Y-96527555D01*
X139345000Y-96531161D01*
X140095000Y-96531161D01*
X140215207Y-96519322D01*
X140330795Y-96484259D01*
X140437321Y-96427319D01*
X140530692Y-96350692D01*
X140607319Y-96257321D01*
X140664259Y-96150795D01*
X140699322Y-96035207D01*
X140711161Y-95915000D01*
X140711161Y-95165000D01*
X140699322Y-95044793D01*
X140664259Y-94929205D01*
X140607319Y-94822679D01*
X140530692Y-94729308D01*
X140437321Y-94652681D01*
X140330795Y-94595741D01*
X140215207Y-94560678D01*
X140095000Y-94548839D01*
X140050000Y-94548839D01*
X140050000Y-92620831D01*
X141040833Y-91630000D01*
X142339169Y-91630000D01*
X143567779Y-92858612D01*
G04 #@! TA.AperFunction,Conductor*
D22*
G36*
X143567779Y-92858612D02*
G01*
X143578421Y-92871579D01*
X143591387Y-92882220D01*
X143591392Y-92882225D01*
X143621408Y-92906858D01*
X143630192Y-92914067D01*
X143689258Y-92945639D01*
X143753348Y-92965080D01*
X143803299Y-92970000D01*
X143803306Y-92970000D01*
X143819999Y-92971644D01*
X143836692Y-92970000D01*
X146469169Y-92970000D01*
X148720000Y-95220833D01*
X148720001Y-96273297D01*
X148718356Y-96290000D01*
X148724920Y-96356651D01*
X148744361Y-96420741D01*
X148775933Y-96479807D01*
X148783003Y-96488422D01*
X148818422Y-96531579D01*
X148831394Y-96542225D01*
X149447774Y-97158606D01*
X149458421Y-97171579D01*
X149510192Y-97214067D01*
X149569258Y-97245639D01*
X149633348Y-97265080D01*
X149683299Y-97270000D01*
X149683307Y-97270000D01*
X149700000Y-97271644D01*
X149716693Y-97270000D01*
X153329169Y-97270000D01*
X154380000Y-98320832D01*
X154380001Y-101389167D01*
X152759169Y-103010000D01*
X151428753Y-103010000D01*
X151428753Y-103000991D01*
X151424119Y-102953943D01*
X151404997Y-102857810D01*
X151391274Y-102812571D01*
X151353765Y-102722015D01*
X151331479Y-102680320D01*
X151277023Y-102598821D01*
X151247032Y-102562276D01*
X151177724Y-102492968D01*
X151141179Y-102462977D01*
X151059680Y-102408521D01*
X151017985Y-102386235D01*
X150927429Y-102348726D01*
X150882190Y-102335003D01*
X150786057Y-102315881D01*
X150739009Y-102311247D01*
X150714448Y-102311247D01*
X150690000Y-102308839D01*
X150140000Y-102308839D01*
X150092952Y-102313473D01*
X150047712Y-102327196D01*
X150015000Y-102344681D01*
X149982288Y-102327196D01*
X149937048Y-102313473D01*
X149890000Y-102308839D01*
X149721992Y-102308839D01*
X150000832Y-102030000D01*
X151038307Y-102030000D01*
X151055000Y-102031644D01*
X151071693Y-102030000D01*
X151071701Y-102030000D01*
X151121652Y-102025080D01*
X151185742Y-102005639D01*
X151244808Y-101974067D01*
X151296579Y-101931579D01*
X151307229Y-101918602D01*
X152498612Y-100727221D01*
X152511579Y-100716579D01*
X152522220Y-100703613D01*
X152522225Y-100703608D01*
X152554067Y-100664808D01*
X152568518Y-100637773D01*
X152585639Y-100605742D01*
X152605080Y-100541652D01*
X152607782Y-100514222D01*
X152611603Y-100504419D01*
X152621593Y-100476161D01*
X152735000Y-100476161D01*
X152782048Y-100471527D01*
X152827288Y-100457804D01*
X152868982Y-100435518D01*
X152905527Y-100405527D01*
X152935518Y-100368982D01*
X152957804Y-100327288D01*
X152971527Y-100282048D01*
X152976161Y-100235000D01*
X152976161Y-99445000D01*
X152971527Y-99397952D01*
X152957804Y-99352712D01*
X152935518Y-99311018D01*
X152905527Y-99274473D01*
X152868982Y-99244482D01*
X152827288Y-99222196D01*
X152782048Y-99208473D01*
X152735000Y-99203839D01*
X151805000Y-99203839D01*
X151757952Y-99208473D01*
X151712712Y-99222196D01*
X151671018Y-99244482D01*
X151634473Y-99274473D01*
X151604482Y-99311018D01*
X151582196Y-99352712D01*
X151568473Y-99397952D01*
X151563839Y-99445000D01*
X151563839Y-100235000D01*
X151568473Y-100282048D01*
X151582196Y-100327288D01*
X151604482Y-100368982D01*
X151634473Y-100405527D01*
X151671018Y-100435518D01*
X151712712Y-100457804D01*
X151757952Y-100471527D01*
X151789530Y-100474637D01*
X150914169Y-101350000D01*
X149876693Y-101350000D01*
X149860000Y-101348356D01*
X149843307Y-101350000D01*
X149843299Y-101350000D01*
X149793348Y-101354920D01*
X149729258Y-101374361D01*
X149670192Y-101405933D01*
X149618421Y-101448421D01*
X149607775Y-101461393D01*
X149380000Y-101689168D01*
X149132229Y-101441398D01*
X149121579Y-101428421D01*
X149069808Y-101385933D01*
X149010742Y-101354361D01*
X148946652Y-101334920D01*
X148896701Y-101330000D01*
X148896693Y-101330000D01*
X148880000Y-101328356D01*
X148863307Y-101330000D01*
X146735367Y-101330000D01*
X146644008Y-101329860D01*
X146639932Y-101329840D01*
X146635527Y-101324473D01*
X146598982Y-101294482D01*
X146557288Y-101272196D01*
X146512048Y-101258473D01*
X146465000Y-101253839D01*
X145675000Y-101253839D01*
X145627952Y-101258473D01*
X145582712Y-101272196D01*
X145541018Y-101294482D01*
X145504473Y-101324473D01*
X145474482Y-101361018D01*
X145452196Y-101402712D01*
X145438473Y-101447952D01*
X145433839Y-101495000D01*
X145433839Y-102425000D01*
X145438473Y-102472048D01*
X145452196Y-102517288D01*
X145474482Y-102558982D01*
X145504473Y-102595527D01*
X145541018Y-102625518D01*
X145582712Y-102647804D01*
X145627952Y-102661527D01*
X145675000Y-102666161D01*
X146465000Y-102666161D01*
X146512048Y-102661527D01*
X146557288Y-102647804D01*
X146598982Y-102625518D01*
X146635527Y-102595527D01*
X146665518Y-102558982D01*
X146687804Y-102517288D01*
X146701527Y-102472048D01*
X146706161Y-102425000D01*
X146706161Y-102051762D01*
X146716561Y-102022513D01*
X146721479Y-102011453D01*
X146743066Y-102010000D01*
X148739169Y-102010000D01*
X149020000Y-102290832D01*
X149020000Y-102308839D01*
X148890000Y-102308839D01*
X148842952Y-102313473D01*
X148797712Y-102327196D01*
X148765000Y-102344681D01*
X148732288Y-102327196D01*
X148687048Y-102313473D01*
X148640000Y-102308839D01*
X148090000Y-102308839D01*
X148065552Y-102311247D01*
X148040991Y-102311247D01*
X147993943Y-102315881D01*
X147897810Y-102335003D01*
X147852571Y-102348726D01*
X147762015Y-102386235D01*
X147720320Y-102408521D01*
X147638821Y-102462977D01*
X147602276Y-102492968D01*
X147532968Y-102562276D01*
X147502977Y-102598821D01*
X147448521Y-102680320D01*
X147426235Y-102722015D01*
X147388726Y-102812571D01*
X147375003Y-102857810D01*
X147362633Y-102920000D01*
X144283732Y-102920000D01*
X144029334Y-102665603D01*
X144035000Y-102666161D01*
X144825000Y-102666161D01*
X144872048Y-102661527D01*
X144917288Y-102647804D01*
X144958982Y-102625518D01*
X144995527Y-102595527D01*
X145025518Y-102558982D01*
X145047804Y-102517288D01*
X145061527Y-102472048D01*
X145066161Y-102425000D01*
X145066161Y-101495000D01*
X145061527Y-101447952D01*
X145047804Y-101402712D01*
X145025518Y-101361018D01*
X144995527Y-101324473D01*
X144958982Y-101294482D01*
X144917288Y-101272196D01*
X144872048Y-101258473D01*
X144825000Y-101253839D01*
X144400000Y-101253839D01*
X144400000Y-99445000D01*
X144423839Y-99445000D01*
X144423839Y-100235000D01*
X144428473Y-100282048D01*
X144442196Y-100327288D01*
X144464482Y-100368982D01*
X144494473Y-100405527D01*
X144531018Y-100435518D01*
X144560000Y-100451009D01*
X144560000Y-100538110D01*
X144582673Y-100652097D01*
X144627149Y-100759470D01*
X144691717Y-100856103D01*
X144773897Y-100938283D01*
X144870530Y-101002851D01*
X144977903Y-101047327D01*
X145091890Y-101070000D01*
X145208110Y-101070000D01*
X145322097Y-101047327D01*
X145429470Y-101002851D01*
X145526103Y-100938283D01*
X145608283Y-100856103D01*
X145672851Y-100759470D01*
X145717327Y-100652097D01*
X145740000Y-100538110D01*
X145740000Y-100426476D01*
X145765527Y-100405527D01*
X145795518Y-100368982D01*
X145817804Y-100327288D01*
X145831527Y-100282048D01*
X145836161Y-100235000D01*
X145836161Y-99445000D01*
X146853839Y-99445000D01*
X146853839Y-100235000D01*
X146858473Y-100282048D01*
X146872196Y-100327288D01*
X146894482Y-100368982D01*
X146924473Y-100405527D01*
X146960000Y-100434683D01*
X146960000Y-100528060D01*
X146982673Y-100642047D01*
X147027149Y-100749420D01*
X147091717Y-100846053D01*
X147173897Y-100928233D01*
X147270530Y-100992801D01*
X147377903Y-101037277D01*
X147491890Y-101059950D01*
X147608110Y-101059950D01*
X147722097Y-101037277D01*
X147829470Y-100992801D01*
X147926103Y-100928233D01*
X148008283Y-100846053D01*
X148072851Y-100749420D01*
X148117327Y-100642047D01*
X148140000Y-100528060D01*
X148140000Y-100445664D01*
X148158982Y-100435518D01*
X148195527Y-100405527D01*
X148225518Y-100368982D01*
X148247804Y-100327288D01*
X148261527Y-100282048D01*
X148266161Y-100235000D01*
X148266161Y-99445000D01*
X149303839Y-99445000D01*
X149303839Y-100235000D01*
X149308473Y-100282048D01*
X149322196Y-100327288D01*
X149344482Y-100368982D01*
X149374473Y-100405527D01*
X149411018Y-100435518D01*
X149420000Y-100440319D01*
X149420000Y-100548110D01*
X149442673Y-100662097D01*
X149487149Y-100769470D01*
X149551717Y-100866103D01*
X149633897Y-100948283D01*
X149730530Y-101012851D01*
X149837903Y-101057327D01*
X149951890Y-101080000D01*
X150068110Y-101080000D01*
X150182097Y-101057327D01*
X150289470Y-101012851D01*
X150386103Y-100948283D01*
X150468283Y-100866103D01*
X150532851Y-100769470D01*
X150577327Y-100662097D01*
X150600000Y-100548110D01*
X150600000Y-100440319D01*
X150608982Y-100435518D01*
X150645527Y-100405527D01*
X150675518Y-100368982D01*
X150697804Y-100327288D01*
X150711527Y-100282048D01*
X150716161Y-100235000D01*
X150716161Y-99445000D01*
X150711527Y-99397952D01*
X150697804Y-99352712D01*
X150675518Y-99311018D01*
X150645527Y-99274473D01*
X150608982Y-99244482D01*
X150567288Y-99222196D01*
X150522048Y-99208473D01*
X150475000Y-99203839D01*
X149545000Y-99203839D01*
X149497952Y-99208473D01*
X149452712Y-99222196D01*
X149411018Y-99244482D01*
X149374473Y-99274473D01*
X149344482Y-99311018D01*
X149322196Y-99352712D01*
X149308473Y-99397952D01*
X149303839Y-99445000D01*
X148266161Y-99445000D01*
X148261527Y-99397952D01*
X148247804Y-99352712D01*
X148225518Y-99311018D01*
X148195527Y-99274473D01*
X148158982Y-99244482D01*
X148117288Y-99222196D01*
X148072048Y-99208473D01*
X148025000Y-99203839D01*
X147095000Y-99203839D01*
X147047952Y-99208473D01*
X147002712Y-99222196D01*
X146961018Y-99244482D01*
X146924473Y-99274473D01*
X146894482Y-99311018D01*
X146872196Y-99352712D01*
X146858473Y-99397952D01*
X146853839Y-99445000D01*
X145836161Y-99445000D01*
X145831527Y-99397952D01*
X145817804Y-99352712D01*
X145795518Y-99311018D01*
X145765527Y-99274473D01*
X145728982Y-99244482D01*
X145687288Y-99222196D01*
X145642048Y-99208473D01*
X145595000Y-99203839D01*
X144665000Y-99203839D01*
X144617952Y-99208473D01*
X144572712Y-99222196D01*
X144531018Y-99244482D01*
X144494473Y-99274473D01*
X144464482Y-99311018D01*
X144442196Y-99352712D01*
X144428473Y-99397952D01*
X144423839Y-99445000D01*
X144400000Y-99445000D01*
X144400000Y-98792279D01*
X144430526Y-98829474D01*
X144480775Y-98870713D01*
X144538103Y-98901356D01*
X144600309Y-98920225D01*
X144665000Y-98926597D01*
X144927500Y-98925000D01*
X145010000Y-98842500D01*
X145010000Y-98320000D01*
X145250000Y-98320000D01*
X145250000Y-98842500D01*
X145332500Y-98925000D01*
X145595000Y-98926597D01*
X145659691Y-98920225D01*
X145721897Y-98901356D01*
X145779225Y-98870713D01*
X145829474Y-98829474D01*
X145870713Y-98779225D01*
X145901356Y-98721897D01*
X145920225Y-98659691D01*
X145926597Y-98595000D01*
X146763403Y-98595000D01*
X146769775Y-98659691D01*
X146788644Y-98721897D01*
X146819287Y-98779225D01*
X146860526Y-98829474D01*
X146910775Y-98870713D01*
X146968103Y-98901356D01*
X147030309Y-98920225D01*
X147095000Y-98926597D01*
X147357500Y-98925000D01*
X147440000Y-98842500D01*
X147440000Y-98320000D01*
X147680000Y-98320000D01*
X147680000Y-98842500D01*
X147762500Y-98925000D01*
X148025000Y-98926597D01*
X148089691Y-98920225D01*
X148151897Y-98901356D01*
X148209225Y-98870713D01*
X148259474Y-98829474D01*
X148300713Y-98779225D01*
X148331356Y-98721897D01*
X148350225Y-98659691D01*
X148356597Y-98595000D01*
X149213403Y-98595000D01*
X149219775Y-98659691D01*
X149238644Y-98721897D01*
X149269287Y-98779225D01*
X149310526Y-98829474D01*
X149360775Y-98870713D01*
X149418103Y-98901356D01*
X149480309Y-98920225D01*
X149545000Y-98926597D01*
X149807500Y-98925000D01*
X149890000Y-98842500D01*
X149890000Y-98320000D01*
X150130000Y-98320000D01*
X150130000Y-98842500D01*
X150212500Y-98925000D01*
X150475000Y-98926597D01*
X150539691Y-98920225D01*
X150601897Y-98901356D01*
X150659225Y-98870713D01*
X150709474Y-98829474D01*
X150750713Y-98779225D01*
X150781356Y-98721897D01*
X150800225Y-98659691D01*
X150806597Y-98595000D01*
X151473403Y-98595000D01*
X151479775Y-98659691D01*
X151498644Y-98721897D01*
X151529287Y-98779225D01*
X151570526Y-98829474D01*
X151620775Y-98870713D01*
X151678103Y-98901356D01*
X151740309Y-98920225D01*
X151805000Y-98926597D01*
X152067500Y-98925000D01*
X152150000Y-98842500D01*
X152150000Y-98320000D01*
X152390000Y-98320000D01*
X152390000Y-98842500D01*
X152472500Y-98925000D01*
X152735000Y-98926597D01*
X152799691Y-98920225D01*
X152861897Y-98901356D01*
X152919225Y-98870713D01*
X152969474Y-98829474D01*
X153010713Y-98779225D01*
X153041356Y-98721897D01*
X153060225Y-98659691D01*
X153066597Y-98595000D01*
X153065000Y-98402500D01*
X152982500Y-98320000D01*
X152390000Y-98320000D01*
X152150000Y-98320000D01*
X151557500Y-98320000D01*
X151475000Y-98402500D01*
X151473403Y-98595000D01*
X150806597Y-98595000D01*
X150805000Y-98402500D01*
X150722500Y-98320000D01*
X150130000Y-98320000D01*
X149890000Y-98320000D01*
X149297500Y-98320000D01*
X149215000Y-98402500D01*
X149213403Y-98595000D01*
X148356597Y-98595000D01*
X148355000Y-98402500D01*
X148272500Y-98320000D01*
X147680000Y-98320000D01*
X147440000Y-98320000D01*
X146847500Y-98320000D01*
X146765000Y-98402500D01*
X146763403Y-98595000D01*
X145926597Y-98595000D01*
X145925000Y-98402500D01*
X145842500Y-98320000D01*
X145250000Y-98320000D01*
X145010000Y-98320000D01*
X144990000Y-98320000D01*
X144990000Y-98080000D01*
X145010000Y-98080000D01*
X145010000Y-97557500D01*
X145250000Y-97557500D01*
X145250000Y-98080000D01*
X145842500Y-98080000D01*
X145925000Y-97997500D01*
X145926597Y-97805000D01*
X146763403Y-97805000D01*
X146765000Y-97997500D01*
X146847500Y-98080000D01*
X147440000Y-98080000D01*
X147440000Y-97557500D01*
X147680000Y-97557500D01*
X147680000Y-98080000D01*
X148272500Y-98080000D01*
X148355000Y-97997500D01*
X148356597Y-97805000D01*
X149213403Y-97805000D01*
X149215000Y-97997500D01*
X149297500Y-98080000D01*
X149890000Y-98080000D01*
X149890000Y-97557500D01*
X150130000Y-97557500D01*
X150130000Y-98080000D01*
X150722500Y-98080000D01*
X150805000Y-97997500D01*
X150806597Y-97805000D01*
X151473403Y-97805000D01*
X151475000Y-97997500D01*
X151557500Y-98080000D01*
X152150000Y-98080000D01*
X152150000Y-97557500D01*
X152390000Y-97557500D01*
X152390000Y-98080000D01*
X152982500Y-98080000D01*
X153065000Y-97997500D01*
X153066597Y-97805000D01*
X153060225Y-97740309D01*
X153041356Y-97678103D01*
X153010713Y-97620775D01*
X152969474Y-97570526D01*
X152919225Y-97529287D01*
X152861897Y-97498644D01*
X152799691Y-97479775D01*
X152735000Y-97473403D01*
X152472500Y-97475000D01*
X152390000Y-97557500D01*
X152150000Y-97557500D01*
X152067500Y-97475000D01*
X151805000Y-97473403D01*
X151740309Y-97479775D01*
X151678103Y-97498644D01*
X151620775Y-97529287D01*
X151570526Y-97570526D01*
X151529287Y-97620775D01*
X151498644Y-97678103D01*
X151479775Y-97740309D01*
X151473403Y-97805000D01*
X150806597Y-97805000D01*
X150800225Y-97740309D01*
X150781356Y-97678103D01*
X150750713Y-97620775D01*
X150709474Y-97570526D01*
X150659225Y-97529287D01*
X150601897Y-97498644D01*
X150539691Y-97479775D01*
X150475000Y-97473403D01*
X150212500Y-97475000D01*
X150130000Y-97557500D01*
X149890000Y-97557500D01*
X149807500Y-97475000D01*
X149545000Y-97473403D01*
X149480309Y-97479775D01*
X149418103Y-97498644D01*
X149360775Y-97529287D01*
X149310526Y-97570526D01*
X149269287Y-97620775D01*
X149238644Y-97678103D01*
X149219775Y-97740309D01*
X149213403Y-97805000D01*
X148356597Y-97805000D01*
X148350225Y-97740309D01*
X148331356Y-97678103D01*
X148300713Y-97620775D01*
X148259474Y-97570526D01*
X148209225Y-97529287D01*
X148151897Y-97498644D01*
X148089691Y-97479775D01*
X148025000Y-97473403D01*
X147762500Y-97475000D01*
X147680000Y-97557500D01*
X147440000Y-97557500D01*
X147357500Y-97475000D01*
X147095000Y-97473403D01*
X147030309Y-97479775D01*
X146968103Y-97498644D01*
X146910775Y-97529287D01*
X146860526Y-97570526D01*
X146819287Y-97620775D01*
X146788644Y-97678103D01*
X146769775Y-97740309D01*
X146763403Y-97805000D01*
X145926597Y-97805000D01*
X145920225Y-97740309D01*
X145901356Y-97678103D01*
X145870713Y-97620775D01*
X145829474Y-97570526D01*
X145779225Y-97529287D01*
X145721897Y-97498644D01*
X145659691Y-97479775D01*
X145595000Y-97473403D01*
X145332500Y-97475000D01*
X145250000Y-97557500D01*
X145010000Y-97557500D01*
X144927500Y-97475000D01*
X144665000Y-97473403D01*
X144600309Y-97479775D01*
X144538103Y-97498644D01*
X144480775Y-97529287D01*
X144430526Y-97570526D01*
X144400000Y-97607721D01*
X144400000Y-96870831D01*
X144739671Y-96531161D01*
X144935000Y-96531161D01*
X145055207Y-96519322D01*
X145170795Y-96484259D01*
X145277321Y-96427319D01*
X145370692Y-96350692D01*
X145447319Y-96257321D01*
X145504259Y-96150795D01*
X145539322Y-96035207D01*
X145551161Y-95915000D01*
X145551161Y-95165000D01*
X145539322Y-95044793D01*
X145504259Y-94929205D01*
X145447319Y-94822679D01*
X145370692Y-94729308D01*
X145277321Y-94652681D01*
X145170795Y-94595741D01*
X145055207Y-94560678D01*
X144935000Y-94548839D01*
X144185000Y-94548839D01*
X144064793Y-94560678D01*
X143949205Y-94595741D01*
X143842679Y-94652681D01*
X143749308Y-94729308D01*
X143700000Y-94789390D01*
X143700000Y-94216693D01*
X143701644Y-94200000D01*
X143700000Y-94183307D01*
X143700000Y-94183299D01*
X143695080Y-94133348D01*
X143675639Y-94069258D01*
X143644067Y-94010192D01*
X143618988Y-93979633D01*
X143613905Y-93962672D01*
X143606879Y-93931455D01*
X143602132Y-93895908D01*
X143600000Y-93844996D01*
X143600000Y-93841890D01*
X145170000Y-93841890D01*
X145170000Y-93958110D01*
X145192673Y-94072097D01*
X145237149Y-94179470D01*
X145301717Y-94276103D01*
X145383897Y-94358283D01*
X145480530Y-94422851D01*
X145587903Y-94467327D01*
X145616085Y-94472933D01*
X145640296Y-94480471D01*
X145653962Y-94484287D01*
X145713429Y-94499011D01*
X145722506Y-94501073D01*
X145776465Y-94512232D01*
X145777932Y-94512530D01*
X145823731Y-94521704D01*
X145858093Y-94529860D01*
X145883370Y-94537978D01*
X145905461Y-94547835D01*
X145930863Y-94563061D01*
X145964230Y-94588556D01*
X146010812Y-94631643D01*
X146141888Y-94762720D01*
X146092681Y-94822679D01*
X146035741Y-94929205D01*
X146000678Y-95044793D01*
X145988839Y-95165000D01*
X145988839Y-95915000D01*
X146000678Y-96035207D01*
X146035741Y-96150795D01*
X146092681Y-96257321D01*
X146169308Y-96350692D01*
X146262679Y-96427319D01*
X146369205Y-96484259D01*
X146484793Y-96519322D01*
X146605000Y-96531161D01*
X147355000Y-96531161D01*
X147475207Y-96519322D01*
X147590795Y-96484259D01*
X147697321Y-96427319D01*
X147790692Y-96350692D01*
X147867319Y-96257321D01*
X147924259Y-96150795D01*
X147959322Y-96035207D01*
X147971161Y-95915000D01*
X147971161Y-95165000D01*
X147959322Y-95044793D01*
X147924259Y-94929205D01*
X147867319Y-94822679D01*
X147790692Y-94729308D01*
X147697321Y-94652681D01*
X147590795Y-94595741D01*
X147475207Y-94560678D01*
X147355000Y-94548839D01*
X146889671Y-94548839D01*
X146491643Y-94150812D01*
X146448556Y-94104230D01*
X146423061Y-94070863D01*
X146407835Y-94045461D01*
X146397978Y-94023370D01*
X146389860Y-93998093D01*
X146381704Y-93963731D01*
X146372530Y-93917932D01*
X146372232Y-93916465D01*
X146361073Y-93862506D01*
X146359011Y-93853429D01*
X146344287Y-93793962D01*
X146340471Y-93780296D01*
X146332933Y-93756085D01*
X146327327Y-93727903D01*
X146282851Y-93620530D01*
X146218283Y-93523897D01*
X146136103Y-93441717D01*
X146039470Y-93377149D01*
X145932097Y-93332673D01*
X145818110Y-93310000D01*
X145701890Y-93310000D01*
X145587903Y-93332673D01*
X145480530Y-93377149D01*
X145383897Y-93441717D01*
X145301717Y-93523897D01*
X145237149Y-93620530D01*
X145192673Y-93727903D01*
X145170000Y-93841890D01*
X143600000Y-93841890D01*
X143600000Y-93791890D01*
X143577327Y-93677903D01*
X143532851Y-93570530D01*
X143468283Y-93473897D01*
X143386103Y-93391717D01*
X143289470Y-93327149D01*
X143182097Y-93282673D01*
X143068110Y-93260000D01*
X142951890Y-93260000D01*
X142837903Y-93282673D01*
X142730530Y-93327149D01*
X142633897Y-93391717D01*
X142551717Y-93473897D01*
X142487149Y-93570530D01*
X142442673Y-93677903D01*
X142420000Y-93791890D01*
X142420000Y-93908110D01*
X142442673Y-94022097D01*
X142487149Y-94129470D01*
X142551717Y-94226103D01*
X142633897Y-94308283D01*
X142730530Y-94372851D01*
X142837903Y-94417327D01*
X142875809Y-94424867D01*
X142880928Y-94426348D01*
X142899064Y-94430838D01*
X142951326Y-94441638D01*
X142959546Y-94443188D01*
X143008941Y-94451613D01*
X143020001Y-94453632D01*
X143020000Y-96613307D01*
X143018356Y-96630000D01*
X143020000Y-96646693D01*
X143020000Y-96646700D01*
X143024920Y-96696651D01*
X143044361Y-96760741D01*
X143075933Y-96819807D01*
X143118421Y-96871578D01*
X143131394Y-96882225D01*
X143160001Y-96910832D01*
X143160001Y-97780867D01*
X143152225Y-97771392D01*
X143152220Y-97771387D01*
X143141579Y-97758421D01*
X143128612Y-97747779D01*
X142162229Y-96781398D01*
X142151579Y-96768421D01*
X142099808Y-96725933D01*
X142040742Y-96694361D01*
X141976652Y-96674920D01*
X141926701Y-96670000D01*
X141926693Y-96670000D01*
X141910000Y-96668356D01*
X141893307Y-96670000D01*
X139450832Y-96670000D01*
X139308387Y-96527555D01*
X139345000Y-96531161D01*
X140095000Y-96531161D01*
X140215207Y-96519322D01*
X140330795Y-96484259D01*
X140437321Y-96427319D01*
X140530692Y-96350692D01*
X140607319Y-96257321D01*
X140664259Y-96150795D01*
X140699322Y-96035207D01*
X140711161Y-95915000D01*
X140711161Y-95165000D01*
X140699322Y-95044793D01*
X140664259Y-94929205D01*
X140607319Y-94822679D01*
X140530692Y-94729308D01*
X140437321Y-94652681D01*
X140330795Y-94595741D01*
X140215207Y-94560678D01*
X140095000Y-94548839D01*
X140050000Y-94548839D01*
X140050000Y-92620831D01*
X141040833Y-91630000D01*
X142339169Y-91630000D01*
X143567779Y-92858612D01*
G37*
G04 #@! TD.AperFunction*
D23*
X146081212Y-93797658D02*
X146099084Y-93855059D01*
X146113659Y-93913924D01*
X146124752Y-93967564D01*
X146134764Y-94017546D01*
X146134860Y-94017985D01*
X146146143Y-94065522D01*
X146146408Y-94066472D01*
X146161381Y-94113096D01*
X146161875Y-94114388D01*
X146182954Y-94161628D01*
X146183659Y-94162982D01*
X146213263Y-94212371D01*
X146214065Y-94213553D01*
X146254613Y-94266622D01*
X146255381Y-94267535D01*
X146300997Y-94316849D01*
X146176849Y-94440997D01*
X146127535Y-94395381D01*
X146126622Y-94394613D01*
X146073553Y-94354065D01*
X146072371Y-94353263D01*
X146022982Y-94323659D01*
X146021628Y-94322954D01*
X145974388Y-94301875D01*
X145973096Y-94301381D01*
X145926472Y-94286408D01*
X145925522Y-94286143D01*
X145877985Y-94274860D01*
X145877546Y-94274764D01*
X145827584Y-94264756D01*
X145773924Y-94253659D01*
X145715059Y-94239084D01*
X145657658Y-94221212D01*
X145649213Y-93789213D01*
X146081212Y-93797658D01*
G04 #@! TA.AperFunction,Conductor*
D22*
G36*
X146081212Y-93797658D02*
G01*
X146099084Y-93855059D01*
X146113659Y-93913924D01*
X146124752Y-93967564D01*
X146134764Y-94017546D01*
X146134860Y-94017985D01*
X146146143Y-94065522D01*
X146146408Y-94066472D01*
X146161381Y-94113096D01*
X146161875Y-94114388D01*
X146182954Y-94161628D01*
X146183659Y-94162982D01*
X146213263Y-94212371D01*
X146214065Y-94213553D01*
X146254613Y-94266622D01*
X146255381Y-94267535D01*
X146300997Y-94316849D01*
X146176849Y-94440997D01*
X146127535Y-94395381D01*
X146126622Y-94394613D01*
X146073553Y-94354065D01*
X146072371Y-94353263D01*
X146022982Y-94323659D01*
X146021628Y-94322954D01*
X145974388Y-94301875D01*
X145973096Y-94301381D01*
X145926472Y-94286408D01*
X145925522Y-94286143D01*
X145877985Y-94274860D01*
X145877546Y-94274764D01*
X145827584Y-94264756D01*
X145773924Y-94253659D01*
X145715059Y-94239084D01*
X145657658Y-94221212D01*
X145649213Y-93789213D01*
X146081212Y-93797658D01*
G37*
G04 #@! TD.AperFunction*
D23*
X145239431Y-99944276D02*
X145239525Y-99945393D01*
X145245630Y-99992912D01*
X145245851Y-99994149D01*
X145255548Y-100036183D01*
X145255920Y-100037477D01*
X145268819Y-100074798D01*
X145269331Y-100076057D01*
X145285041Y-100109435D01*
X145285643Y-100110563D01*
X145303773Y-100140768D01*
X145304380Y-100141687D01*
X145324540Y-100169491D01*
X145325063Y-100170163D01*
X145346861Y-100196337D01*
X145347229Y-100196760D01*
X145370276Y-100222075D01*
X145370448Y-100222260D01*
X145387673Y-100240437D01*
X145150000Y-100630589D01*
X144912327Y-100240437D01*
X144929551Y-100222260D01*
X144929723Y-100222075D01*
X144952770Y-100196760D01*
X144953138Y-100196337D01*
X144974936Y-100170163D01*
X144975459Y-100169491D01*
X144995619Y-100141687D01*
X144996226Y-100140768D01*
X145014356Y-100110563D01*
X145014958Y-100109435D01*
X145030668Y-100076057D01*
X145031180Y-100074798D01*
X145044079Y-100037477D01*
X145044451Y-100036183D01*
X145054148Y-99994149D01*
X145054369Y-99992912D01*
X145060474Y-99945393D01*
X145060568Y-99944276D01*
X145062209Y-99902700D01*
X145237791Y-99902700D01*
X145239431Y-99944276D01*
G04 #@! TA.AperFunction,Conductor*
D22*
G36*
X145239431Y-99944276D02*
G01*
X145239525Y-99945393D01*
X145245630Y-99992912D01*
X145245851Y-99994149D01*
X145255548Y-100036183D01*
X145255920Y-100037477D01*
X145268819Y-100074798D01*
X145269331Y-100076057D01*
X145285041Y-100109435D01*
X145285643Y-100110563D01*
X145303773Y-100140768D01*
X145304380Y-100141687D01*
X145324540Y-100169491D01*
X145325063Y-100170163D01*
X145346861Y-100196337D01*
X145347229Y-100196760D01*
X145370276Y-100222075D01*
X145370448Y-100222260D01*
X145387673Y-100240437D01*
X145150000Y-100630589D01*
X144912327Y-100240437D01*
X144929551Y-100222260D01*
X144929723Y-100222075D01*
X144952770Y-100196760D01*
X144953138Y-100196337D01*
X144974936Y-100170163D01*
X144975459Y-100169491D01*
X144995619Y-100141687D01*
X144996226Y-100140768D01*
X145014356Y-100110563D01*
X145014958Y-100109435D01*
X145030668Y-100076057D01*
X145031180Y-100074798D01*
X145044079Y-100037477D01*
X145044451Y-100036183D01*
X145054148Y-99994149D01*
X145054369Y-99992912D01*
X145060474Y-99945393D01*
X145060568Y-99944276D01*
X145062209Y-99902700D01*
X145237791Y-99902700D01*
X145239431Y-99944276D01*
G37*
G04 #@! TD.AperFunction*
D23*
X145384034Y-100126109D02*
X145369088Y-100140614D01*
X145368662Y-100141048D01*
X145346910Y-100164279D01*
X145346370Y-100164895D01*
X145325387Y-100190423D01*
X145324783Y-100191219D01*
X145305047Y-100219502D01*
X145304437Y-100220466D01*
X145286426Y-100251963D01*
X145285867Y-100253060D01*
X145270059Y-100288229D01*
X145269597Y-100289412D01*
X145256470Y-100328711D01*
X145256131Y-100329922D01*
X145246163Y-100373810D01*
X145245953Y-100374993D01*
X145239621Y-100423929D01*
X145239527Y-100425042D01*
X145237807Y-100467300D01*
X145062118Y-100467300D01*
X145060259Y-100427704D01*
X145060134Y-100426429D01*
X145053224Y-100380036D01*
X145052950Y-100378696D01*
X145042107Y-100337210D01*
X145041673Y-100335862D01*
X145027449Y-100298883D01*
X145026869Y-100297593D01*
X145009815Y-100264721D01*
X145009128Y-100263553D01*
X144989796Y-100234389D01*
X144989057Y-100233386D01*
X144967998Y-100207530D01*
X144967272Y-100206713D01*
X144945039Y-100183764D01*
X144944384Y-100183134D01*
X144921527Y-100162693D01*
X144920992Y-100162241D01*
X144905756Y-100150059D01*
X145121530Y-99670599D01*
X145384034Y-100126109D01*
G04 #@! TA.AperFunction,Conductor*
D22*
G36*
X145384034Y-100126109D02*
G01*
X145369088Y-100140614D01*
X145368662Y-100141048D01*
X145346910Y-100164279D01*
X145346370Y-100164895D01*
X145325387Y-100190423D01*
X145324783Y-100191219D01*
X145305047Y-100219502D01*
X145304437Y-100220466D01*
X145286426Y-100251963D01*
X145285867Y-100253060D01*
X145270059Y-100288229D01*
X145269597Y-100289412D01*
X145256470Y-100328711D01*
X145256131Y-100329922D01*
X145246163Y-100373810D01*
X145245953Y-100374993D01*
X145239621Y-100423929D01*
X145239527Y-100425042D01*
X145237807Y-100467300D01*
X145062118Y-100467300D01*
X145060259Y-100427704D01*
X145060134Y-100426429D01*
X145053224Y-100380036D01*
X145052950Y-100378696D01*
X145042107Y-100337210D01*
X145041673Y-100335862D01*
X145027449Y-100298883D01*
X145026869Y-100297593D01*
X145009815Y-100264721D01*
X145009128Y-100263553D01*
X144989796Y-100234389D01*
X144989057Y-100233386D01*
X144967998Y-100207530D01*
X144967272Y-100206713D01*
X144945039Y-100183764D01*
X144944384Y-100183134D01*
X144921527Y-100162693D01*
X144920992Y-100162241D01*
X144905756Y-100150059D01*
X145121530Y-99670599D01*
X145384034Y-100126109D01*
G37*
G04 #@! TD.AperFunction*
D23*
X147639581Y-99911391D02*
X147639668Y-99912480D01*
X147646240Y-99965506D01*
X147646458Y-99966751D01*
X147656962Y-100013099D01*
X147657339Y-100014424D01*
X147671405Y-100055307D01*
X147671926Y-100056588D01*
X147689187Y-100093220D01*
X147689775Y-100094324D01*
X147709862Y-100127919D01*
X147710404Y-100128751D01*
X147732948Y-100160523D01*
X147733343Y-100161050D01*
X147757976Y-100192212D01*
X147758165Y-100192445D01*
X147784496Y-100224184D01*
X147806107Y-100250379D01*
X147550000Y-100622547D01*
X147293893Y-100250379D01*
X147315503Y-100224184D01*
X147341834Y-100192445D01*
X147342023Y-100192212D01*
X147366656Y-100161050D01*
X147367051Y-100160523D01*
X147389595Y-100128751D01*
X147390137Y-100127919D01*
X147410224Y-100094324D01*
X147410812Y-100093220D01*
X147428073Y-100056588D01*
X147428594Y-100055307D01*
X147442660Y-100014424D01*
X147443037Y-100013099D01*
X147453541Y-99966751D01*
X147453759Y-99965506D01*
X147460331Y-99912480D01*
X147460418Y-99911392D01*
X147462235Y-99862700D01*
X147637765Y-99862700D01*
X147639581Y-99911391D01*
G04 #@! TA.AperFunction,Conductor*
D22*
G36*
X147639581Y-99911391D02*
G01*
X147639668Y-99912480D01*
X147646240Y-99965506D01*
X147646458Y-99966751D01*
X147656962Y-100013099D01*
X147657339Y-100014424D01*
X147671405Y-100055307D01*
X147671926Y-100056588D01*
X147689187Y-100093220D01*
X147689775Y-100094324D01*
X147709862Y-100127919D01*
X147710404Y-100128751D01*
X147732948Y-100160523D01*
X147733343Y-100161050D01*
X147757976Y-100192212D01*
X147758165Y-100192445D01*
X147784496Y-100224184D01*
X147806107Y-100250379D01*
X147550000Y-100622547D01*
X147293893Y-100250379D01*
X147315503Y-100224184D01*
X147341834Y-100192445D01*
X147342023Y-100192212D01*
X147366656Y-100161050D01*
X147367051Y-100160523D01*
X147389595Y-100128751D01*
X147390137Y-100127919D01*
X147410224Y-100094324D01*
X147410812Y-100093220D01*
X147428073Y-100056588D01*
X147428594Y-100055307D01*
X147442660Y-100014424D01*
X147443037Y-100013099D01*
X147453541Y-99966751D01*
X147453759Y-99965506D01*
X147460331Y-99912480D01*
X147460418Y-99911392D01*
X147462235Y-99862700D01*
X147637765Y-99862700D01*
X147639581Y-99911391D01*
G37*
G04 #@! TD.AperFunction*
D23*
X147785136Y-100149413D02*
X147772035Y-100159948D01*
X147771510Y-100160394D01*
X147750410Y-100179334D01*
X147749769Y-100179951D01*
X147728981Y-100201420D01*
X147728272Y-100202216D01*
X147708375Y-100226555D01*
X147707652Y-100227532D01*
X147689225Y-100255082D01*
X147688543Y-100256226D01*
X147672168Y-100287328D01*
X147671585Y-100288602D01*
X147657839Y-100323598D01*
X147657395Y-100324947D01*
X147646859Y-100364177D01*
X147646572Y-100365538D01*
X147639825Y-100409344D01*
X147639692Y-100410658D01*
X147637904Y-100447300D01*
X147462135Y-100447300D01*
X147460403Y-100409300D01*
X147460287Y-100408071D01*
X147453801Y-100362959D01*
X147453549Y-100361678D01*
X147443406Y-100321210D01*
X147443012Y-100319930D01*
X147429755Y-100283741D01*
X147429233Y-100282518D01*
X147413409Y-100250241D01*
X147412794Y-100249131D01*
X147394947Y-100220401D01*
X147394288Y-100219441D01*
X147374963Y-100193892D01*
X147374316Y-100193104D01*
X147354059Y-100170371D01*
X147353477Y-100169761D01*
X147332833Y-100149479D01*
X147332367Y-100149043D01*
X147319313Y-100137448D01*
X147564326Y-99671264D01*
X147785136Y-100149413D01*
G04 #@! TA.AperFunction,Conductor*
D22*
G36*
X147785136Y-100149413D02*
G01*
X147772035Y-100159948D01*
X147771510Y-100160394D01*
X147750410Y-100179334D01*
X147749769Y-100179951D01*
X147728981Y-100201420D01*
X147728272Y-100202216D01*
X147708375Y-100226555D01*
X147707652Y-100227532D01*
X147689225Y-100255082D01*
X147688543Y-100256226D01*
X147672168Y-100287328D01*
X147671585Y-100288602D01*
X147657839Y-100323598D01*
X147657395Y-100324947D01*
X147646859Y-100364177D01*
X147646572Y-100365538D01*
X147639825Y-100409344D01*
X147639692Y-100410658D01*
X147637904Y-100447300D01*
X147462135Y-100447300D01*
X147460403Y-100409300D01*
X147460287Y-100408071D01*
X147453801Y-100362959D01*
X147453549Y-100361678D01*
X147443406Y-100321210D01*
X147443012Y-100319930D01*
X147429755Y-100283741D01*
X147429233Y-100282518D01*
X147413409Y-100250241D01*
X147412794Y-100249131D01*
X147394947Y-100220401D01*
X147394288Y-100219441D01*
X147374963Y-100193892D01*
X147374316Y-100193104D01*
X147354059Y-100170371D01*
X147353477Y-100169761D01*
X147332833Y-100149479D01*
X147332367Y-100149043D01*
X147319313Y-100137448D01*
X147564326Y-99671264D01*
X147785136Y-100149413D01*
G37*
G04 #@! TD.AperFunction*
D23*
X144783124Y-91000545D02*
X144833573Y-91034394D01*
X144878296Y-91066434D01*
X144878324Y-91066454D01*
X144919915Y-91096077D01*
X144920382Y-91096395D01*
X144961401Y-91122945D01*
X144962343Y-91123498D01*
X145005510Y-91146433D01*
X145006844Y-91147046D01*
X145054879Y-91165827D01*
X145056387Y-91166310D01*
X145112008Y-91180394D01*
X145113436Y-91180670D01*
X145179365Y-91189517D01*
X145180561Y-91189620D01*
X145247309Y-91192215D01*
X145247309Y-91367755D01*
X145177122Y-91370318D01*
X145176012Y-91370408D01*
X145107113Y-91379006D01*
X145105814Y-91379237D01*
X145047524Y-91392768D01*
X145046179Y-91393160D01*
X144995579Y-91410972D01*
X144994414Y-91411448D01*
X144948588Y-91432889D01*
X144947804Y-91433289D01*
X144903834Y-91457706D01*
X144903516Y-91457889D01*
X144858508Y-91484615D01*
X144809824Y-91512837D01*
X144754469Y-91541976D01*
X144697423Y-91567839D01*
X144403578Y-91251050D01*
X144731623Y-90969799D01*
X144783124Y-91000545D01*
G04 #@! TA.AperFunction,Conductor*
D22*
G36*
X144783124Y-91000545D02*
G01*
X144833573Y-91034394D01*
X144878296Y-91066434D01*
X144878324Y-91066454D01*
X144919915Y-91096077D01*
X144920382Y-91096395D01*
X144961401Y-91122945D01*
X144962343Y-91123498D01*
X145005510Y-91146433D01*
X145006844Y-91147046D01*
X145054879Y-91165827D01*
X145056387Y-91166310D01*
X145112008Y-91180394D01*
X145113436Y-91180670D01*
X145179365Y-91189517D01*
X145180561Y-91189620D01*
X145247309Y-91192215D01*
X145247309Y-91367755D01*
X145177122Y-91370318D01*
X145176012Y-91370408D01*
X145107113Y-91379006D01*
X145105814Y-91379237D01*
X145047524Y-91392768D01*
X145046179Y-91393160D01*
X144995579Y-91410972D01*
X144994414Y-91411448D01*
X144948588Y-91432889D01*
X144947804Y-91433289D01*
X144903834Y-91457706D01*
X144903516Y-91457889D01*
X144858508Y-91484615D01*
X144809824Y-91512837D01*
X144754469Y-91541976D01*
X144697423Y-91567839D01*
X144403578Y-91251050D01*
X144731623Y-90969799D01*
X144783124Y-91000545D01*
G37*
G04 #@! TD.AperFunction*
D23*
X149062464Y-92884618D02*
X149063377Y-92885386D01*
X149116446Y-92925934D01*
X149117628Y-92926736D01*
X149167017Y-92956340D01*
X149168371Y-92957045D01*
X149215611Y-92978124D01*
X149216903Y-92978618D01*
X149263527Y-92993591D01*
X149264477Y-92993856D01*
X149312014Y-93005139D01*
X149312453Y-93005235D01*
X149362415Y-93015243D01*
X149416075Y-93026340D01*
X149474936Y-93040914D01*
X149532342Y-93058789D01*
X149540787Y-93490787D01*
X149108789Y-93482342D01*
X149090914Y-93424936D01*
X149076340Y-93366075D01*
X149065231Y-93312357D01*
X149055235Y-93262453D01*
X149055139Y-93262014D01*
X149043856Y-93214477D01*
X149043591Y-93213527D01*
X149028618Y-93166903D01*
X149028124Y-93165611D01*
X149007045Y-93118371D01*
X149006340Y-93117017D01*
X148976736Y-93067628D01*
X148975934Y-93066446D01*
X148935386Y-93013377D01*
X148934618Y-93012464D01*
X148889003Y-92963151D01*
X149013151Y-92839003D01*
X149062464Y-92884618D01*
G04 #@! TA.AperFunction,Conductor*
D22*
G36*
X149062464Y-92884618D02*
G01*
X149063377Y-92885386D01*
X149116446Y-92925934D01*
X149117628Y-92926736D01*
X149167017Y-92956340D01*
X149168371Y-92957045D01*
X149215611Y-92978124D01*
X149216903Y-92978618D01*
X149263527Y-92993591D01*
X149264477Y-92993856D01*
X149312014Y-93005139D01*
X149312453Y-93005235D01*
X149362415Y-93015243D01*
X149416075Y-93026340D01*
X149474936Y-93040914D01*
X149532342Y-93058789D01*
X149540787Y-93490787D01*
X149108789Y-93482342D01*
X149090914Y-93424936D01*
X149076340Y-93366075D01*
X149065231Y-93312357D01*
X149055235Y-93262453D01*
X149055139Y-93262014D01*
X149043856Y-93214477D01*
X149043591Y-93213527D01*
X149028618Y-93166903D01*
X149028124Y-93165611D01*
X149007045Y-93118371D01*
X149006340Y-93117017D01*
X148976736Y-93067628D01*
X148975934Y-93066446D01*
X148935386Y-93013377D01*
X148934618Y-93012464D01*
X148889003Y-92963151D01*
X149013151Y-92839003D01*
X149062464Y-92884618D01*
G37*
G04 #@! TD.AperFunction*
D23*
X150109834Y-99893629D02*
X150109912Y-99894669D01*
X150117219Y-99957021D01*
X150117425Y-99958249D01*
X150129109Y-100011831D01*
X150129471Y-100013147D01*
X150145126Y-100060032D01*
X150145611Y-100061268D01*
X150164830Y-100103527D01*
X150165327Y-100104505D01*
X150187705Y-100144210D01*
X150188076Y-100144826D01*
X150213207Y-100184048D01*
X150213365Y-100184289D01*
X150240844Y-100225100D01*
X150270094Y-100269313D01*
X150296042Y-100311392D01*
X150005575Y-100644934D01*
X149734615Y-100295341D01*
X149762184Y-100255769D01*
X149793266Y-100213745D01*
X149793265Y-100213745D01*
X149822194Y-100174883D01*
X149822410Y-100174585D01*
X149848751Y-100136972D01*
X149849193Y-100136295D01*
X149872538Y-100097982D01*
X149873111Y-100096935D01*
X149893075Y-100055941D01*
X149893626Y-100054626D01*
X149909823Y-100008972D01*
X149910230Y-100007577D01*
X149922276Y-99955283D01*
X149922505Y-99953986D01*
X149930016Y-99893070D01*
X149930103Y-99891975D01*
X149932249Y-99832700D01*
X150107731Y-99832700D01*
X150109834Y-99893629D01*
G04 #@! TA.AperFunction,Conductor*
D22*
G36*
X150109834Y-99893629D02*
G01*
X150109912Y-99894669D01*
X150117219Y-99957021D01*
X150117425Y-99958249D01*
X150129109Y-100011831D01*
X150129471Y-100013147D01*
X150145126Y-100060032D01*
X150145611Y-100061268D01*
X150164830Y-100103527D01*
X150165327Y-100104505D01*
X150187705Y-100144210D01*
X150188076Y-100144826D01*
X150213207Y-100184048D01*
X150213365Y-100184289D01*
X150240844Y-100225100D01*
X150270094Y-100269313D01*
X150296042Y-100311392D01*
X150005575Y-100644934D01*
X149734615Y-100295341D01*
X149762184Y-100255769D01*
X149793266Y-100213745D01*
X149793265Y-100213745D01*
X149822194Y-100174883D01*
X149822410Y-100174585D01*
X149848751Y-100136972D01*
X149849193Y-100136295D01*
X149872538Y-100097982D01*
X149873111Y-100096935D01*
X149893075Y-100055941D01*
X149893626Y-100054626D01*
X149909823Y-100008972D01*
X149910230Y-100007577D01*
X149922276Y-99955283D01*
X149922505Y-99953986D01*
X149930016Y-99893070D01*
X149930103Y-99891975D01*
X149932249Y-99832700D01*
X150107731Y-99832700D01*
X150109834Y-99893629D01*
G37*
G04 #@! TD.AperFunction*
D23*
X150257351Y-100131761D02*
X150243748Y-100144093D01*
X150243470Y-100144352D01*
X150222118Y-100164906D01*
X150221653Y-100165378D01*
X150200562Y-100187914D01*
X150199963Y-100188603D01*
X150179735Y-100213598D01*
X150179065Y-100214505D01*
X150160300Y-100242439D01*
X150159633Y-100243550D01*
X150142932Y-100274900D01*
X150142342Y-100276172D01*
X150128306Y-100311417D01*
X150127850Y-100312785D01*
X150117081Y-100352402D01*
X150116786Y-100353785D01*
X150109884Y-100398254D01*
X150109749Y-100399582D01*
X150107905Y-100437300D01*
X149932057Y-100437300D01*
X149930172Y-100401072D01*
X149930019Y-100399662D01*
X149922906Y-100356610D01*
X149922575Y-100355147D01*
X149911487Y-100316861D01*
X149910976Y-100315426D01*
X149896538Y-100281458D01*
X149895883Y-100280135D01*
X149878723Y-100250039D01*
X149877987Y-100248897D01*
X149858732Y-100222224D01*
X149857995Y-100221296D01*
X149837271Y-100197599D01*
X149836608Y-100196897D01*
X149815043Y-100175727D01*
X149814517Y-100175239D01*
X149792737Y-100156150D01*
X149792401Y-100155866D01*
X149778758Y-100144720D01*
X150005419Y-99670449D01*
X150257351Y-100131761D01*
G04 #@! TA.AperFunction,Conductor*
D22*
G36*
X150257351Y-100131761D02*
G01*
X150243748Y-100144093D01*
X150243470Y-100144352D01*
X150222118Y-100164906D01*
X150221653Y-100165378D01*
X150200562Y-100187914D01*
X150199963Y-100188603D01*
X150179735Y-100213598D01*
X150179065Y-100214505D01*
X150160300Y-100242439D01*
X150159633Y-100243550D01*
X150142932Y-100274900D01*
X150142342Y-100276172D01*
X150128306Y-100311417D01*
X150127850Y-100312785D01*
X150117081Y-100352402D01*
X150116786Y-100353785D01*
X150109884Y-100398254D01*
X150109749Y-100399582D01*
X150107905Y-100437300D01*
X149932057Y-100437300D01*
X149930172Y-100401072D01*
X149930019Y-100399662D01*
X149922906Y-100356610D01*
X149922575Y-100355147D01*
X149911487Y-100316861D01*
X149910976Y-100315426D01*
X149896538Y-100281458D01*
X149895883Y-100280135D01*
X149878723Y-100250039D01*
X149877987Y-100248897D01*
X149858732Y-100222224D01*
X149857995Y-100221296D01*
X149837271Y-100197599D01*
X149836608Y-100196897D01*
X149815043Y-100175727D01*
X149814517Y-100175239D01*
X149792737Y-100156150D01*
X149792401Y-100155866D01*
X149778758Y-100144720D01*
X150005419Y-99670449D01*
X150257351Y-100131761D01*
G37*
G04 #@! TD.AperFunction*
D23*
X146149552Y-101577840D02*
X146217755Y-101578220D01*
X146217755Y-101578219D01*
X146277640Y-101578779D01*
X146332550Y-101579459D01*
X146385627Y-101580199D01*
X146385631Y-101580199D01*
X146440043Y-101580939D01*
X146440070Y-101580939D01*
X146499006Y-101581618D01*
X146499045Y-101581619D01*
X146565696Y-101582180D01*
X146565741Y-101582180D01*
X146643293Y-101582560D01*
X146643336Y-101582560D01*
X146722300Y-101582681D01*
X146722300Y-101758126D01*
X146676508Y-101761209D01*
X146674443Y-101761520D01*
X146626675Y-101772799D01*
X146624261Y-101773633D01*
X146585069Y-101791763D01*
X146582679Y-101793206D01*
X146550770Y-101817643D01*
X146548855Y-101819454D01*
X146522934Y-101849651D01*
X146521678Y-101851394D01*
X146500452Y-101886807D01*
X146499741Y-101888175D01*
X146481915Y-101928258D01*
X146481553Y-101929164D01*
X146465835Y-101973371D01*
X146465677Y-101973845D01*
X146450773Y-102021630D01*
X146450742Y-102021731D01*
X146437933Y-102064039D01*
X145951909Y-102090917D01*
X146079917Y-101577717D01*
X146149552Y-101577840D01*
G04 #@! TA.AperFunction,Conductor*
D22*
G36*
X146149552Y-101577840D02*
G01*
X146217755Y-101578220D01*
X146217755Y-101578219D01*
X146277640Y-101578779D01*
X146332550Y-101579459D01*
X146385627Y-101580199D01*
X146385631Y-101580199D01*
X146440043Y-101580939D01*
X146440070Y-101580939D01*
X146499006Y-101581618D01*
X146499045Y-101581619D01*
X146565696Y-101582180D01*
X146565741Y-101582180D01*
X146643293Y-101582560D01*
X146643336Y-101582560D01*
X146722300Y-101582681D01*
X146722300Y-101758126D01*
X146676508Y-101761209D01*
X146674443Y-101761520D01*
X146626675Y-101772799D01*
X146624261Y-101773633D01*
X146585069Y-101791763D01*
X146582679Y-101793206D01*
X146550770Y-101817643D01*
X146548855Y-101819454D01*
X146522934Y-101849651D01*
X146521678Y-101851394D01*
X146500452Y-101886807D01*
X146499741Y-101888175D01*
X146481915Y-101928258D01*
X146481553Y-101929164D01*
X146465835Y-101973371D01*
X146465677Y-101973845D01*
X146450773Y-102021630D01*
X146450742Y-102021731D01*
X146437933Y-102064039D01*
X145951909Y-102090917D01*
X146079917Y-101577717D01*
X146149552Y-101577840D01*
G37*
G04 #@! TD.AperFunction*
D23*
X149452790Y-102432415D02*
X149452954Y-102433918D01*
X149468570Y-102525997D01*
X149468997Y-102527750D01*
X149493542Y-102604310D01*
X149494252Y-102606062D01*
X149526511Y-102671300D01*
X149527329Y-102672718D01*
X149566090Y-102730833D01*
X149566730Y-102731709D01*
X149610780Y-102786897D01*
X149611041Y-102787213D01*
X149659123Y-102843620D01*
X149709787Y-102905155D01*
X149761928Y-102976074D01*
X149809858Y-103053251D01*
X149404451Y-103531227D01*
X148942699Y-103107461D01*
X148982448Y-103021429D01*
X149027306Y-102942809D01*
X149072317Y-102874896D01*
X149116177Y-102813118D01*
X149116290Y-102812956D01*
X149157428Y-102753060D01*
X149157890Y-102752335D01*
X149194762Y-102689990D01*
X149195412Y-102688737D01*
X149226586Y-102619462D01*
X149227176Y-102617876D01*
X149251217Y-102537186D01*
X149251586Y-102535569D01*
X149267062Y-102438980D01*
X149267208Y-102437565D01*
X149272119Y-102332700D01*
X149447907Y-102332700D01*
X149452790Y-102432415D01*
G04 #@! TA.AperFunction,Conductor*
D22*
G36*
X149452790Y-102432415D02*
G01*
X149452954Y-102433918D01*
X149468570Y-102525997D01*
X149468997Y-102527750D01*
X149493542Y-102604310D01*
X149494252Y-102606062D01*
X149526511Y-102671300D01*
X149527329Y-102672718D01*
X149566090Y-102730833D01*
X149566730Y-102731709D01*
X149610780Y-102786897D01*
X149611041Y-102787213D01*
X149659123Y-102843620D01*
X149709787Y-102905155D01*
X149761928Y-102976074D01*
X149809858Y-103053251D01*
X149404451Y-103531227D01*
X148942699Y-103107461D01*
X148982448Y-103021429D01*
X149027306Y-102942809D01*
X149072317Y-102874896D01*
X149116177Y-102813118D01*
X149116290Y-102812956D01*
X149157428Y-102753060D01*
X149157890Y-102752335D01*
X149194762Y-102689990D01*
X149195412Y-102688737D01*
X149226586Y-102619462D01*
X149227176Y-102617876D01*
X149251217Y-102537186D01*
X149251586Y-102535569D01*
X149267062Y-102438980D01*
X149267208Y-102437565D01*
X149272119Y-102332700D01*
X149447907Y-102332700D01*
X149452790Y-102432415D01*
G37*
G04 #@! TD.AperFunction*
D23*
X152533685Y-100117763D02*
X152490887Y-100165895D01*
X152489887Y-100167177D01*
X152454357Y-100219260D01*
X152453548Y-100220620D01*
X152427847Y-100270715D01*
X152427340Y-100271834D01*
X152407899Y-100320897D01*
X152407689Y-100321466D01*
X152390963Y-100370380D01*
X152373490Y-100419806D01*
X152351820Y-100470550D01*
X152322399Y-100523822D01*
X152281569Y-100580867D01*
X152234176Y-100633347D01*
X152110250Y-100509421D01*
X152146298Y-100464447D01*
X152147657Y-100462361D01*
X152148205Y-100461157D01*
X152167900Y-100411144D01*
X152168581Y-100408750D01*
X152168783Y-100406475D01*
X152168723Y-100359197D01*
X152168476Y-100356720D01*
X152168000Y-100354989D01*
X152151900Y-100309342D01*
X152150668Y-100306796D01*
X152122243Y-100261678D01*
X152121364Y-100260451D01*
X152084327Y-100214759D01*
X152083971Y-100214338D01*
X152042056Y-100166987D01*
X151999325Y-100117280D01*
X151959436Y-100064168D01*
X151930296Y-100014072D01*
X152267523Y-99663397D01*
X152533685Y-100117763D01*
G04 #@! TA.AperFunction,Conductor*
D22*
G36*
X152533685Y-100117763D02*
G01*
X152490887Y-100165895D01*
X152489887Y-100167177D01*
X152454357Y-100219260D01*
X152453548Y-100220620D01*
X152427847Y-100270715D01*
X152427340Y-100271834D01*
X152407899Y-100320897D01*
X152407689Y-100321466D01*
X152390963Y-100370380D01*
X152373490Y-100419806D01*
X152351820Y-100470550D01*
X152322399Y-100523822D01*
X152281569Y-100580867D01*
X152234176Y-100633347D01*
X152110250Y-100509421D01*
X152146298Y-100464447D01*
X152147657Y-100462361D01*
X152148205Y-100461157D01*
X152167900Y-100411144D01*
X152168581Y-100408750D01*
X152168783Y-100406475D01*
X152168723Y-100359197D01*
X152168476Y-100356720D01*
X152168000Y-100354989D01*
X152151900Y-100309342D01*
X152150668Y-100306796D01*
X152122243Y-100261678D01*
X152121364Y-100260451D01*
X152084327Y-100214759D01*
X152083971Y-100214338D01*
X152042056Y-100166987D01*
X151999325Y-100117280D01*
X151959436Y-100064168D01*
X151930296Y-100014072D01*
X152267523Y-99663397D01*
X152533685Y-100117763D01*
G37*
G04 #@! TD.AperFunction*
D23*
X141680473Y-109338939D02*
X141592822Y-109486739D01*
X141476924Y-109624770D01*
X141348402Y-109749540D01*
X141218742Y-109864855D01*
X141218581Y-109865001D01*
X141099620Y-109974507D01*
X141098771Y-109975366D01*
X141002265Y-110082842D01*
X141000687Y-110085028D01*
X140938197Y-110194428D01*
X140937180Y-110196700D01*
X140936660Y-110198883D01*
X140919741Y-110314159D01*
X140919622Y-110316646D01*
X140920215Y-110319889D01*
X140960428Y-110444996D01*
X140961419Y-110447280D01*
X140962525Y-110448946D01*
X141064482Y-110578979D01*
X140940543Y-110702918D01*
X140832413Y-110581294D01*
X140749975Y-110459463D01*
X140693352Y-110344837D01*
X140654327Y-110235237D01*
X140624765Y-110128441D01*
X140596631Y-110022739D01*
X140596427Y-110022051D01*
X140561669Y-109915983D01*
X140561148Y-109914654D01*
X140511609Y-109806389D01*
X140510732Y-109804787D01*
X140438242Y-109692447D01*
X140437125Y-109690965D01*
X140339512Y-109579520D01*
X140920198Y-108575768D01*
X141680473Y-109338939D01*
G04 #@! TA.AperFunction,Conductor*
D22*
G36*
X141680473Y-109338939D02*
G01*
X141592822Y-109486739D01*
X141476924Y-109624770D01*
X141348402Y-109749540D01*
X141218742Y-109864855D01*
X141218581Y-109865001D01*
X141099620Y-109974507D01*
X141098771Y-109975366D01*
X141002265Y-110082842D01*
X141000687Y-110085028D01*
X140938197Y-110194428D01*
X140937180Y-110196700D01*
X140936660Y-110198883D01*
X140919741Y-110314159D01*
X140919622Y-110316646D01*
X140920215Y-110319889D01*
X140960428Y-110444996D01*
X140961419Y-110447280D01*
X140962525Y-110448946D01*
X141064482Y-110578979D01*
X140940543Y-110702918D01*
X140832413Y-110581294D01*
X140749975Y-110459463D01*
X140693352Y-110344837D01*
X140654327Y-110235237D01*
X140624765Y-110128441D01*
X140596631Y-110022739D01*
X140596427Y-110022051D01*
X140561669Y-109915983D01*
X140561148Y-109914654D01*
X140511609Y-109806389D01*
X140510732Y-109804787D01*
X140438242Y-109692447D01*
X140437125Y-109690965D01*
X140339512Y-109579520D01*
X140920198Y-108575768D01*
X141680473Y-109338939D01*
G37*
G04 #@! TD.AperFunction*
D23*
X149824153Y-103519787D02*
X149791247Y-103575413D01*
X149749286Y-103625461D01*
X149704392Y-103666512D01*
X149658234Y-103702491D01*
X149613235Y-103736827D01*
X149612576Y-103737365D01*
X149570998Y-103773744D01*
X149569698Y-103775060D01*
X149533730Y-103817230D01*
X149532246Y-103819386D01*
X149503973Y-103871174D01*
X149502901Y-103873796D01*
X149484408Y-103939029D01*
X149483968Y-103941476D01*
X149478279Y-104012300D01*
X149301720Y-104012300D01*
X149296031Y-103941476D01*
X149295591Y-103939029D01*
X149277098Y-103873796D01*
X149276026Y-103871174D01*
X149247753Y-103819386D01*
X149246269Y-103817230D01*
X149210301Y-103775060D01*
X149209001Y-103773744D01*
X149167423Y-103737365D01*
X149166764Y-103736827D01*
X149121765Y-103702491D01*
X149075607Y-103666512D01*
X149030713Y-103625461D01*
X148988752Y-103575413D01*
X148955847Y-103519788D01*
X149390000Y-103068322D01*
X149824153Y-103519787D01*
G04 #@! TA.AperFunction,Conductor*
D22*
G36*
X149824153Y-103519787D02*
G01*
X149791247Y-103575413D01*
X149749286Y-103625461D01*
X149704392Y-103666512D01*
X149658234Y-103702491D01*
X149613235Y-103736827D01*
X149612576Y-103737365D01*
X149570998Y-103773744D01*
X149569698Y-103775060D01*
X149533730Y-103817230D01*
X149532246Y-103819386D01*
X149503973Y-103871174D01*
X149502901Y-103873796D01*
X149484408Y-103939029D01*
X149483968Y-103941476D01*
X149478279Y-104012300D01*
X149301720Y-104012300D01*
X149296031Y-103941476D01*
X149295591Y-103939029D01*
X149277098Y-103873796D01*
X149276026Y-103871174D01*
X149247753Y-103819386D01*
X149246269Y-103817230D01*
X149210301Y-103775060D01*
X149209001Y-103773744D01*
X149167423Y-103737365D01*
X149166764Y-103736827D01*
X149121765Y-103702491D01*
X149075607Y-103666512D01*
X149030713Y-103625461D01*
X148988752Y-103575413D01*
X148955847Y-103519788D01*
X149390000Y-103068322D01*
X149824153Y-103519787D01*
G37*
G04 #@! TD.AperFunction*
D23*
X143347703Y-93859915D02*
X143350110Y-93917386D01*
X143350211Y-93918536D01*
X143357811Y-93975454D01*
X143358009Y-93976562D01*
X143369209Y-94026323D01*
X143369433Y-94027180D01*
X143383033Y-94072565D01*
X143383168Y-94072985D01*
X143397935Y-94116678D01*
X143412648Y-94161385D01*
X143426037Y-94209566D01*
X143437045Y-94264292D01*
X143444525Y-94328477D01*
X143446833Y-94392325D01*
X143271523Y-94392325D01*
X143267121Y-94347099D01*
X143266411Y-94343975D01*
X143250687Y-94300892D01*
X143249609Y-94298648D01*
X143248780Y-94297447D01*
X143224096Y-94265726D01*
X143222382Y-94263920D01*
X143221341Y-94263110D01*
X143188945Y-94240502D01*
X143186446Y-94239146D01*
X143147584Y-94223400D01*
X143145925Y-94222858D01*
X143101843Y-94211724D01*
X143101014Y-94211543D01*
X143052959Y-94202771D01*
X143052813Y-94202746D01*
X143002250Y-94194122D01*
X142950697Y-94183469D01*
X142907654Y-94171015D01*
X142899283Y-93742786D01*
X143347703Y-93859915D01*
G04 #@! TA.AperFunction,Conductor*
D22*
G36*
X143347703Y-93859915D02*
G01*
X143350110Y-93917386D01*
X143350211Y-93918536D01*
X143357811Y-93975454D01*
X143358009Y-93976562D01*
X143369209Y-94026323D01*
X143369433Y-94027180D01*
X143383033Y-94072565D01*
X143383168Y-94072985D01*
X143397935Y-94116678D01*
X143412648Y-94161385D01*
X143426037Y-94209566D01*
X143437045Y-94264292D01*
X143444525Y-94328477D01*
X143446833Y-94392325D01*
X143271523Y-94392325D01*
X143267121Y-94347099D01*
X143266411Y-94343975D01*
X143250687Y-94300892D01*
X143249609Y-94298648D01*
X143248780Y-94297447D01*
X143224096Y-94265726D01*
X143222382Y-94263920D01*
X143221341Y-94263110D01*
X143188945Y-94240502D01*
X143186446Y-94239146D01*
X143147584Y-94223400D01*
X143145925Y-94222858D01*
X143101843Y-94211724D01*
X143101014Y-94211543D01*
X143052959Y-94202771D01*
X143052813Y-94202746D01*
X143002250Y-94194122D01*
X142950697Y-94183469D01*
X142907654Y-94171015D01*
X142899283Y-93742786D01*
X143347703Y-93859915D01*
G37*
G04 #@! TD.AperFunction*
D23*
X137609498Y-93964761D02*
X137581542Y-94017997D01*
X137550236Y-94069907D01*
X137520100Y-94115758D01*
X137491881Y-94158116D01*
X137491639Y-94158493D01*
X137466003Y-94200085D01*
X137465518Y-94200945D01*
X137443137Y-94244500D01*
X137442573Y-94245762D01*
X137424074Y-94294071D01*
X137423615Y-94295527D01*
X137409625Y-94351384D01*
X137409356Y-94352786D01*
X137400502Y-94418983D01*
X137400400Y-94420173D01*
X137397785Y-94487298D01*
X137222214Y-94487298D01*
X137219599Y-94420173D01*
X137219497Y-94418983D01*
X137210643Y-94352786D01*
X137210374Y-94351384D01*
X137196384Y-94295527D01*
X137195925Y-94294071D01*
X137177426Y-94245762D01*
X137176862Y-94244500D01*
X137154481Y-94200945D01*
X137153996Y-94200085D01*
X137128360Y-94158493D01*
X137128118Y-94158116D01*
X137099899Y-94115758D01*
X137069763Y-94069907D01*
X137038457Y-94017997D01*
X137010501Y-93964761D01*
X137310000Y-93653320D01*
X137609498Y-93964761D01*
G04 #@! TA.AperFunction,Conductor*
D22*
G36*
X137609498Y-93964761D02*
G01*
X137581542Y-94017997D01*
X137550236Y-94069907D01*
X137520100Y-94115758D01*
X137491881Y-94158116D01*
X137491639Y-94158493D01*
X137466003Y-94200085D01*
X137465518Y-94200945D01*
X137443137Y-94244500D01*
X137442573Y-94245762D01*
X137424074Y-94294071D01*
X137423615Y-94295527D01*
X137409625Y-94351384D01*
X137409356Y-94352786D01*
X137400502Y-94418983D01*
X137400400Y-94420173D01*
X137397785Y-94487298D01*
X137222214Y-94487298D01*
X137219599Y-94420173D01*
X137219497Y-94418983D01*
X137210643Y-94352786D01*
X137210374Y-94351384D01*
X137196384Y-94295527D01*
X137195925Y-94294071D01*
X137177426Y-94245762D01*
X137176862Y-94244500D01*
X137154481Y-94200945D01*
X137153996Y-94200085D01*
X137128360Y-94158493D01*
X137128118Y-94158116D01*
X137099899Y-94115758D01*
X137069763Y-94069907D01*
X137038457Y-94017997D01*
X137010501Y-93964761D01*
X137310000Y-93653320D01*
X137609498Y-93964761D01*
G37*
G04 #@! TD.AperFunction*
D23*
X142168181Y-105502508D02*
X142168378Y-105504151D01*
X142199097Y-105669067D01*
X142199598Y-105670946D01*
X142247363Y-105807055D01*
X142248159Y-105808861D01*
X142310159Y-105924263D01*
X142311013Y-105925634D01*
X142384442Y-106028431D01*
X142385026Y-106029187D01*
X142467071Y-106127480D01*
X142467203Y-106127635D01*
X142554891Y-106229331D01*
X142645316Y-106342382D01*
X142735736Y-106474855D01*
X142819378Y-106627417D01*
X142070000Y-107406678D01*
X141320622Y-106627417D01*
X141404263Y-106474855D01*
X141494683Y-106342382D01*
X141585108Y-106229331D01*
X141672796Y-106127635D01*
X141672928Y-106127480D01*
X141754973Y-106029187D01*
X141755557Y-106028431D01*
X141828986Y-105925634D01*
X141829840Y-105924263D01*
X141891840Y-105808861D01*
X141892636Y-105807055D01*
X141940401Y-105670946D01*
X141940902Y-105669067D01*
X141971621Y-105504151D01*
X141971818Y-105502508D01*
X141982035Y-105312700D01*
X142157965Y-105312700D01*
X142168181Y-105502508D01*
G04 #@! TA.AperFunction,Conductor*
D22*
G36*
X142168181Y-105502508D02*
G01*
X142168378Y-105504151D01*
X142199097Y-105669067D01*
X142199598Y-105670946D01*
X142247363Y-105807055D01*
X142248159Y-105808861D01*
X142310159Y-105924263D01*
X142311013Y-105925634D01*
X142384442Y-106028431D01*
X142385026Y-106029187D01*
X142467071Y-106127480D01*
X142467203Y-106127635D01*
X142554891Y-106229331D01*
X142645316Y-106342382D01*
X142735736Y-106474855D01*
X142819378Y-106627417D01*
X142070000Y-107406678D01*
X141320622Y-106627417D01*
X141404263Y-106474855D01*
X141494683Y-106342382D01*
X141585108Y-106229331D01*
X141672796Y-106127635D01*
X141672928Y-106127480D01*
X141754973Y-106029187D01*
X141755557Y-106028431D01*
X141828986Y-105925634D01*
X141829840Y-105924263D01*
X141891840Y-105808861D01*
X141892636Y-105807055D01*
X141940401Y-105670946D01*
X141940902Y-105669067D01*
X141971621Y-105504151D01*
X141971818Y-105502508D01*
X141982035Y-105312700D01*
X142157965Y-105312700D01*
X142168181Y-105502508D01*
G37*
G04 #@! TD.AperFunction*
D23*
X137601212Y-91137658D02*
X137619084Y-91195059D01*
X137633659Y-91253924D01*
X137644752Y-91307564D01*
X137654764Y-91357546D01*
X137654860Y-91357985D01*
X137666143Y-91405522D01*
X137666408Y-91406472D01*
X137681381Y-91453096D01*
X137681875Y-91454388D01*
X137702954Y-91501628D01*
X137703659Y-91502982D01*
X137733263Y-91552371D01*
X137734065Y-91553553D01*
X137774613Y-91606622D01*
X137775381Y-91607535D01*
X137820997Y-91656849D01*
X137696849Y-91780997D01*
X137647535Y-91735381D01*
X137646622Y-91734613D01*
X137593553Y-91694065D01*
X137592371Y-91693263D01*
X137542982Y-91663659D01*
X137541628Y-91662954D01*
X137494388Y-91641875D01*
X137493096Y-91641381D01*
X137446472Y-91626408D01*
X137445522Y-91626143D01*
X137397985Y-91614860D01*
X137397546Y-91614764D01*
X137347584Y-91604756D01*
X137293924Y-91593659D01*
X137235059Y-91579084D01*
X137177658Y-91561212D01*
X137169213Y-91129213D01*
X137601212Y-91137658D01*
G04 #@! TA.AperFunction,Conductor*
D22*
G36*
X137601212Y-91137658D02*
G01*
X137619084Y-91195059D01*
X137633659Y-91253924D01*
X137644752Y-91307564D01*
X137654764Y-91357546D01*
X137654860Y-91357985D01*
X137666143Y-91405522D01*
X137666408Y-91406472D01*
X137681381Y-91453096D01*
X137681875Y-91454388D01*
X137702954Y-91501628D01*
X137703659Y-91502982D01*
X137733263Y-91552371D01*
X137734065Y-91553553D01*
X137774613Y-91606622D01*
X137775381Y-91607535D01*
X137820997Y-91656849D01*
X137696849Y-91780997D01*
X137647535Y-91735381D01*
X137646622Y-91734613D01*
X137593553Y-91694065D01*
X137592371Y-91693263D01*
X137542982Y-91663659D01*
X137541628Y-91662954D01*
X137494388Y-91641875D01*
X137493096Y-91641381D01*
X137446472Y-91626408D01*
X137445522Y-91626143D01*
X137397985Y-91614860D01*
X137397546Y-91614764D01*
X137347584Y-91604756D01*
X137293924Y-91593659D01*
X137235059Y-91579084D01*
X137177658Y-91561212D01*
X137169213Y-91129213D01*
X137601212Y-91137658D01*
G37*
G04 #@! TD.AperFunction*
D23*
X144152276Y-101400923D02*
X144152830Y-101403673D01*
X144166958Y-101447865D01*
X144168425Y-101450948D01*
X144190775Y-101485131D01*
X144193063Y-101487757D01*
X144222655Y-101513538D01*
X144225053Y-101515185D01*
X144260909Y-101534175D01*
X144262812Y-101534992D01*
X144303950Y-101548798D01*
X144305201Y-101549148D01*
X144350644Y-101559382D01*
X144351311Y-101559513D01*
X144400078Y-101567781D01*
X144400258Y-101567810D01*
X144451206Y-101575697D01*
X144494703Y-101583296D01*
X144572415Y-102062278D01*
X144047414Y-101949673D01*
X144045595Y-101885467D01*
X144045549Y-101884688D01*
X144039849Y-101821390D01*
X144039757Y-101820627D01*
X144031357Y-101765173D01*
X144031250Y-101764567D01*
X144021050Y-101713926D01*
X144020984Y-101713620D01*
X144009884Y-101664763D01*
X143998844Y-101614928D01*
X143988743Y-101561076D01*
X143980431Y-101500038D01*
X143974788Y-101428731D01*
X143973016Y-101356695D01*
X144148372Y-101356695D01*
X144152276Y-101400923D01*
G04 #@! TA.AperFunction,Conductor*
D22*
G36*
X144152276Y-101400923D02*
G01*
X144152830Y-101403673D01*
X144166958Y-101447865D01*
X144168425Y-101450948D01*
X144190775Y-101485131D01*
X144193063Y-101487757D01*
X144222655Y-101513538D01*
X144225053Y-101515185D01*
X144260909Y-101534175D01*
X144262812Y-101534992D01*
X144303950Y-101548798D01*
X144305201Y-101549148D01*
X144350644Y-101559382D01*
X144351311Y-101559513D01*
X144400078Y-101567781D01*
X144400258Y-101567810D01*
X144451206Y-101575697D01*
X144494703Y-101583296D01*
X144572415Y-102062278D01*
X144047414Y-101949673D01*
X144045595Y-101885467D01*
X144045549Y-101884688D01*
X144039849Y-101821390D01*
X144039757Y-101820627D01*
X144031357Y-101765173D01*
X144031250Y-101764567D01*
X144021050Y-101713926D01*
X144020984Y-101713620D01*
X144009884Y-101664763D01*
X143998844Y-101614928D01*
X143988743Y-101561076D01*
X143980431Y-101500038D01*
X143974788Y-101428731D01*
X143973016Y-101356695D01*
X144148372Y-101356695D01*
X144152276Y-101400923D01*
G37*
G04 #@! TD.AperFunction*
D23*
X139220107Y-109578862D02*
X139102776Y-109693668D01*
X138994660Y-109794531D01*
X138898114Y-109880379D01*
X138808836Y-109956681D01*
X138722081Y-110029278D01*
X138722063Y-110029293D01*
X138633595Y-110103604D01*
X138633468Y-110103712D01*
X138538829Y-110185342D01*
X138538637Y-110185511D01*
X138433367Y-110280066D01*
X138433158Y-110280259D01*
X138312801Y-110393346D01*
X138312604Y-110393534D01*
X138181680Y-110521953D01*
X138057391Y-110397664D01*
X138142804Y-110296101D01*
X138144363Y-110293764D01*
X138198407Y-110189325D01*
X138199570Y-110186035D01*
X138220107Y-110085731D01*
X138220327Y-110082202D01*
X138212720Y-109984129D01*
X138212185Y-109981340D01*
X138181793Y-109883596D01*
X138181109Y-109881858D01*
X138133294Y-109782538D01*
X138132825Y-109781655D01*
X138072948Y-109678857D01*
X138072790Y-109678593D01*
X138006288Y-109570536D01*
X137938611Y-109455481D01*
X137879095Y-109339372D01*
X138639802Y-108575768D01*
X139220107Y-109578862D01*
G04 #@! TA.AperFunction,Conductor*
D22*
G36*
X139220107Y-109578862D02*
G01*
X139102776Y-109693668D01*
X138994660Y-109794531D01*
X138898114Y-109880379D01*
X138808836Y-109956681D01*
X138722081Y-110029278D01*
X138722063Y-110029293D01*
X138633595Y-110103604D01*
X138633468Y-110103712D01*
X138538829Y-110185342D01*
X138538637Y-110185511D01*
X138433367Y-110280066D01*
X138433158Y-110280259D01*
X138312801Y-110393346D01*
X138312604Y-110393534D01*
X138181680Y-110521953D01*
X138057391Y-110397664D01*
X138142804Y-110296101D01*
X138144363Y-110293764D01*
X138198407Y-110189325D01*
X138199570Y-110186035D01*
X138220107Y-110085731D01*
X138220327Y-110082202D01*
X138212720Y-109984129D01*
X138212185Y-109981340D01*
X138181793Y-109883596D01*
X138181109Y-109881858D01*
X138133294Y-109782538D01*
X138132825Y-109781655D01*
X138072948Y-109678857D01*
X138072790Y-109678593D01*
X138006288Y-109570536D01*
X137938611Y-109455481D01*
X137879095Y-109339372D01*
X138639802Y-108575768D01*
X139220107Y-109578862D01*
G37*
G04 #@! TD.AperFunction*
D23*
X132828446Y-105027657D02*
X132788398Y-105102481D01*
X132744182Y-105171878D01*
X132700892Y-105232225D01*
X132659584Y-105287477D01*
X132659382Y-105287754D01*
X132621317Y-105341650D01*
X132620784Y-105342471D01*
X132587143Y-105398869D01*
X132586456Y-105400191D01*
X132558354Y-105463042D01*
X132557760Y-105464657D01*
X132536308Y-105537911D01*
X132535948Y-105539520D01*
X132522261Y-105627128D01*
X132522122Y-105628512D01*
X132517863Y-105722300D01*
X132342136Y-105722300D01*
X132337877Y-105628512D01*
X132337738Y-105627128D01*
X132324051Y-105539520D01*
X132323691Y-105537911D01*
X132302239Y-105464657D01*
X132301645Y-105463042D01*
X132273543Y-105400191D01*
X132272856Y-105398869D01*
X132239215Y-105342471D01*
X132238682Y-105341650D01*
X132200617Y-105287754D01*
X132200415Y-105287477D01*
X132159107Y-105232225D01*
X132115817Y-105171878D01*
X132071601Y-105102482D01*
X132031554Y-105027657D01*
X132430000Y-104613322D01*
X132828446Y-105027657D01*
G04 #@! TA.AperFunction,Conductor*
D22*
G36*
X132828446Y-105027657D02*
G01*
X132788398Y-105102481D01*
X132744182Y-105171878D01*
X132700892Y-105232225D01*
X132659584Y-105287477D01*
X132659382Y-105287754D01*
X132621317Y-105341650D01*
X132620784Y-105342471D01*
X132587143Y-105398869D01*
X132586456Y-105400191D01*
X132558354Y-105463042D01*
X132557760Y-105464657D01*
X132536308Y-105537911D01*
X132535948Y-105539520D01*
X132522261Y-105627128D01*
X132522122Y-105628512D01*
X132517863Y-105722300D01*
X132342136Y-105722300D01*
X132337877Y-105628512D01*
X132337738Y-105627128D01*
X132324051Y-105539520D01*
X132323691Y-105537911D01*
X132302239Y-105464657D01*
X132301645Y-105463042D01*
X132273543Y-105400191D01*
X132272856Y-105398869D01*
X132239215Y-105342471D01*
X132238682Y-105341650D01*
X132200617Y-105287754D01*
X132200415Y-105287477D01*
X132159107Y-105232225D01*
X132115817Y-105171878D01*
X132071601Y-105102482D01*
X132031554Y-105027657D01*
X132430000Y-104613322D01*
X132828446Y-105027657D01*
G37*
G04 #@! TD.AperFunction*
D23*
X138667650Y-99080107D02*
X138544399Y-99192401D01*
X138424451Y-99281089D01*
X138311273Y-99348201D01*
X138201777Y-99401636D01*
X138092899Y-99449245D01*
X138092811Y-99449284D01*
X137981913Y-99498778D01*
X137981304Y-99499069D01*
X137865759Y-99558188D01*
X137864833Y-99558712D01*
X137741774Y-99635303D01*
X137740777Y-99635992D01*
X137607335Y-99737902D01*
X137606440Y-99738652D01*
X137468712Y-99865474D01*
X137344336Y-99741098D01*
X137433062Y-99640330D01*
X137434272Y-99638712D01*
X137499037Y-99536025D01*
X137500159Y-99533782D01*
X137537631Y-99435694D01*
X137538320Y-99433089D01*
X137553042Y-99337173D01*
X137553181Y-99334786D01*
X137549696Y-99238612D01*
X137549517Y-99236902D01*
X137532370Y-99138045D01*
X137532170Y-99137104D01*
X137505904Y-99033135D01*
X137505831Y-99032860D01*
X137475031Y-98921504D01*
X137444270Y-98800470D01*
X137419749Y-98675949D01*
X138252899Y-98206708D01*
X138667650Y-99080107D01*
G04 #@! TA.AperFunction,Conductor*
D22*
G36*
X138667650Y-99080107D02*
G01*
X138544399Y-99192401D01*
X138424451Y-99281089D01*
X138311273Y-99348201D01*
X138201777Y-99401636D01*
X138092899Y-99449245D01*
X138092811Y-99449284D01*
X137981913Y-99498778D01*
X137981304Y-99499069D01*
X137865759Y-99558188D01*
X137864833Y-99558712D01*
X137741774Y-99635303D01*
X137740777Y-99635992D01*
X137607335Y-99737902D01*
X137606440Y-99738652D01*
X137468712Y-99865474D01*
X137344336Y-99741098D01*
X137433062Y-99640330D01*
X137434272Y-99638712D01*
X137499037Y-99536025D01*
X137500159Y-99533782D01*
X137537631Y-99435694D01*
X137538320Y-99433089D01*
X137553042Y-99337173D01*
X137553181Y-99334786D01*
X137549696Y-99238612D01*
X137549517Y-99236902D01*
X137532370Y-99138045D01*
X137532170Y-99137104D01*
X137505904Y-99033135D01*
X137505831Y-99032860D01*
X137475031Y-98921504D01*
X137444270Y-98800470D01*
X137419749Y-98675949D01*
X138252899Y-98206708D01*
X138667650Y-99080107D01*
G37*
G04 #@! TD.AperFunction*
D23*
X132699180Y-102911743D02*
X132765346Y-102954291D01*
X132822589Y-102996663D01*
X132874766Y-103037662D01*
X132874974Y-103037822D01*
X132925770Y-103076064D01*
X132926549Y-103076606D01*
X132979690Y-103110718D01*
X132981018Y-103111462D01*
X133040376Y-103140186D01*
X133042061Y-103140857D01*
X133111507Y-103162932D01*
X133113227Y-103163350D01*
X133196634Y-103177518D01*
X133198134Y-103177682D01*
X133287300Y-103182088D01*
X133287300Y-103357917D01*
X133199093Y-103362306D01*
X133197578Y-103362473D01*
X133115005Y-103376632D01*
X133113259Y-103377060D01*
X133044569Y-103399173D01*
X133042854Y-103399867D01*
X132984227Y-103428715D01*
X132982867Y-103429492D01*
X132930486Y-103463860D01*
X132929679Y-103464435D01*
X132879722Y-103503106D01*
X132879484Y-103503296D01*
X132828267Y-103544944D01*
X132772144Y-103588230D01*
X132707339Y-103631975D01*
X132637466Y-103670913D01*
X132218339Y-103277580D01*
X132627747Y-102874149D01*
X132699180Y-102911743D01*
G04 #@! TA.AperFunction,Conductor*
D22*
G36*
X132699180Y-102911743D02*
G01*
X132765346Y-102954291D01*
X132822589Y-102996663D01*
X132874766Y-103037662D01*
X132874974Y-103037822D01*
X132925770Y-103076064D01*
X132926549Y-103076606D01*
X132979690Y-103110718D01*
X132981018Y-103111462D01*
X133040376Y-103140186D01*
X133042061Y-103140857D01*
X133111507Y-103162932D01*
X133113227Y-103163350D01*
X133196634Y-103177518D01*
X133198134Y-103177682D01*
X133287300Y-103182088D01*
X133287300Y-103357917D01*
X133199093Y-103362306D01*
X133197578Y-103362473D01*
X133115005Y-103376632D01*
X133113259Y-103377060D01*
X133044569Y-103399173D01*
X133042854Y-103399867D01*
X132984227Y-103428715D01*
X132982867Y-103429492D01*
X132930486Y-103463860D01*
X132929679Y-103464435D01*
X132879722Y-103503106D01*
X132879484Y-103503296D01*
X132828267Y-103544944D01*
X132772144Y-103588230D01*
X132707339Y-103631975D01*
X132637466Y-103670913D01*
X132218339Y-103277580D01*
X132627747Y-102874149D01*
X132699180Y-102911743D01*
G37*
G04 #@! TD.AperFunction*
D23*
X146740997Y-106523141D02*
X146695381Y-106572454D01*
X146694613Y-106573367D01*
X146654065Y-106626436D01*
X146653263Y-106627618D01*
X146623659Y-106677007D01*
X146622954Y-106678361D01*
X146601875Y-106725601D01*
X146601381Y-106726893D01*
X146586408Y-106773517D01*
X146586143Y-106774467D01*
X146574860Y-106822004D01*
X146574764Y-106822443D01*
X146564768Y-106872347D01*
X146553659Y-106926065D01*
X146539084Y-106984931D01*
X146521211Y-107042332D01*
X146089213Y-107050777D01*
X146097658Y-106618779D01*
X146155063Y-106600904D01*
X146213924Y-106586330D01*
X146267584Y-106575233D01*
X146317546Y-106565225D01*
X146317985Y-106565129D01*
X146365522Y-106553846D01*
X146366472Y-106553581D01*
X146413096Y-106538608D01*
X146414388Y-106538114D01*
X146461628Y-106517035D01*
X146462982Y-106516330D01*
X146512371Y-106486726D01*
X146513553Y-106485924D01*
X146566622Y-106445376D01*
X146567535Y-106444608D01*
X146616849Y-106398993D01*
X146740997Y-106523141D01*
G04 #@! TA.AperFunction,Conductor*
D22*
G36*
X146740997Y-106523141D02*
G01*
X146695381Y-106572454D01*
X146694613Y-106573367D01*
X146654065Y-106626436D01*
X146653263Y-106627618D01*
X146623659Y-106677007D01*
X146622954Y-106678361D01*
X146601875Y-106725601D01*
X146601381Y-106726893D01*
X146586408Y-106773517D01*
X146586143Y-106774467D01*
X146574860Y-106822004D01*
X146574764Y-106822443D01*
X146564768Y-106872347D01*
X146553659Y-106926065D01*
X146539084Y-106984931D01*
X146521211Y-107042332D01*
X146089213Y-107050777D01*
X146097658Y-106618779D01*
X146155063Y-106600904D01*
X146213924Y-106586330D01*
X146267584Y-106575233D01*
X146317546Y-106565225D01*
X146317985Y-106565129D01*
X146365522Y-106553846D01*
X146366472Y-106553581D01*
X146413096Y-106538608D01*
X146414388Y-106538114D01*
X146461628Y-106517035D01*
X146462982Y-106516330D01*
X146512371Y-106486726D01*
X146513553Y-106485924D01*
X146566622Y-106445376D01*
X146567535Y-106444608D01*
X146616849Y-106398993D01*
X146740997Y-106523141D01*
G37*
G04 #@! TD.AperFunction*
D23*
X148269900Y-106337378D02*
X147807482Y-106678908D01*
X147740195Y-106631137D01*
X147677260Y-106580016D01*
X147622027Y-106531369D01*
X147570885Y-106486123D01*
X147570444Y-106485751D01*
X147519932Y-106444999D01*
X147518955Y-106444284D01*
X147465391Y-106408924D01*
X147463909Y-106408083D01*
X147403612Y-106379015D01*
X147401851Y-106378322D01*
X147331141Y-106356446D01*
X147329425Y-106356044D01*
X147244619Y-106342259D01*
X147243174Y-106342108D01*
X147152700Y-106337880D01*
X147152700Y-106162182D01*
X147252972Y-106158007D01*
X147254221Y-106157893D01*
X147347605Y-106144699D01*
X147349024Y-106144415D01*
X147427582Y-106123989D01*
X147428982Y-106123537D01*
X147496946Y-106097155D01*
X147498068Y-106096656D01*
X147559671Y-106065597D01*
X147560319Y-106065246D01*
X147619795Y-106030789D01*
X147619915Y-106030719D01*
X147681327Y-105994241D01*
X147748701Y-105957121D01*
X147826392Y-105920514D01*
X147910578Y-105888687D01*
X148269900Y-106337378D01*
G04 #@! TA.AperFunction,Conductor*
D22*
G36*
X148269900Y-106337378D02*
G01*
X147807482Y-106678908D01*
X147740195Y-106631137D01*
X147677260Y-106580016D01*
X147622027Y-106531369D01*
X147570885Y-106486123D01*
X147570444Y-106485751D01*
X147519932Y-106444999D01*
X147518955Y-106444284D01*
X147465391Y-106408924D01*
X147463909Y-106408083D01*
X147403612Y-106379015D01*
X147401851Y-106378322D01*
X147331141Y-106356446D01*
X147329425Y-106356044D01*
X147244619Y-106342259D01*
X147243174Y-106342108D01*
X147152700Y-106337880D01*
X147152700Y-106162182D01*
X147252972Y-106158007D01*
X147254221Y-106157893D01*
X147347605Y-106144699D01*
X147349024Y-106144415D01*
X147427582Y-106123989D01*
X147428982Y-106123537D01*
X147496946Y-106097155D01*
X147498068Y-106096656D01*
X147559671Y-106065597D01*
X147560319Y-106065246D01*
X147619795Y-106030789D01*
X147619915Y-106030719D01*
X147681327Y-105994241D01*
X147748701Y-105957121D01*
X147826392Y-105920514D01*
X147910578Y-105888687D01*
X148269900Y-106337378D01*
G37*
G04 #@! TD.AperFunction*
D23*
X148217825Y-108278241D02*
X148135357Y-108307483D01*
X148054056Y-108329571D01*
X147979895Y-108345285D01*
X147910768Y-108358282D01*
X147910492Y-108358337D01*
X147844518Y-108372263D01*
X147843648Y-108372479D01*
X147778906Y-108390999D01*
X147777594Y-108391453D01*
X147712012Y-108418261D01*
X147710559Y-108418966D01*
X147642066Y-108457755D01*
X147640761Y-108458603D01*
X147567284Y-108513068D01*
X147566264Y-108513910D01*
X147494697Y-108579526D01*
X147370459Y-108455288D01*
X147433603Y-108386168D01*
X147434484Y-108385090D01*
X147486657Y-108313625D01*
X147487550Y-108312217D01*
X147524020Y-108245339D01*
X147524755Y-108243736D01*
X147548982Y-108179417D01*
X147549440Y-108177928D01*
X147564882Y-108114139D01*
X147565089Y-108113095D01*
X147575203Y-108047808D01*
X147575263Y-108047375D01*
X147583508Y-107978561D01*
X147593280Y-107904664D01*
X147608030Y-107823434D01*
X147629025Y-107741234D01*
X148202643Y-107703603D01*
X148217825Y-108278241D01*
G04 #@! TA.AperFunction,Conductor*
D22*
G36*
X148217825Y-108278241D02*
G01*
X148135357Y-108307483D01*
X148054056Y-108329571D01*
X147979895Y-108345285D01*
X147910768Y-108358282D01*
X147910492Y-108358337D01*
X147844518Y-108372263D01*
X147843648Y-108372479D01*
X147778906Y-108390999D01*
X147777594Y-108391453D01*
X147712012Y-108418261D01*
X147710559Y-108418966D01*
X147642066Y-108457755D01*
X147640761Y-108458603D01*
X147567284Y-108513068D01*
X147566264Y-108513910D01*
X147494697Y-108579526D01*
X147370459Y-108455288D01*
X147433603Y-108386168D01*
X147434484Y-108385090D01*
X147486657Y-108313625D01*
X147487550Y-108312217D01*
X147524020Y-108245339D01*
X147524755Y-108243736D01*
X147548982Y-108179417D01*
X147549440Y-108177928D01*
X147564882Y-108114139D01*
X147565089Y-108113095D01*
X147575203Y-108047808D01*
X147575263Y-108047375D01*
X147583508Y-107978561D01*
X147593280Y-107904664D01*
X147608030Y-107823434D01*
X147629025Y-107741234D01*
X148202643Y-107703603D01*
X148217825Y-108278241D01*
G37*
G04 #@! TD.AperFunction*
D23*
X145992109Y-108295226D02*
X146100779Y-108377707D01*
X146190814Y-108464373D01*
X146269871Y-108551802D01*
X146345373Y-108636229D01*
X146345967Y-108636849D01*
X146425178Y-108714207D01*
X146426525Y-108715351D01*
X146517044Y-108781946D01*
X146519107Y-108783181D01*
X146628538Y-108835321D01*
X146630920Y-108836177D01*
X146766862Y-108870169D01*
X146769038Y-108870516D01*
X146927300Y-108881825D01*
X146927300Y-109058176D01*
X146771570Y-109069321D01*
X146769381Y-109069672D01*
X146635640Y-109103284D01*
X146633229Y-109104157D01*
X146525799Y-109155855D01*
X146523700Y-109157128D01*
X146435111Y-109223376D01*
X146433734Y-109224569D01*
X146356516Y-109301831D01*
X146355895Y-109302499D01*
X146282587Y-109387229D01*
X146205970Y-109475599D01*
X146118834Y-109563886D01*
X146013653Y-109648828D01*
X145890185Y-109722759D01*
X145098382Y-108986950D01*
X145864568Y-108224516D01*
X145992109Y-108295226D01*
G04 #@! TA.AperFunction,Conductor*
D22*
G36*
X145992109Y-108295226D02*
G01*
X146100779Y-108377707D01*
X146190814Y-108464373D01*
X146269871Y-108551802D01*
X146345373Y-108636229D01*
X146345967Y-108636849D01*
X146425178Y-108714207D01*
X146426525Y-108715351D01*
X146517044Y-108781946D01*
X146519107Y-108783181D01*
X146628538Y-108835321D01*
X146630920Y-108836177D01*
X146766862Y-108870169D01*
X146769038Y-108870516D01*
X146927300Y-108881825D01*
X146927300Y-109058176D01*
X146771570Y-109069321D01*
X146769381Y-109069672D01*
X146635640Y-109103284D01*
X146633229Y-109104157D01*
X146525799Y-109155855D01*
X146523700Y-109157128D01*
X146435111Y-109223376D01*
X146433734Y-109224569D01*
X146356516Y-109301831D01*
X146355895Y-109302499D01*
X146282587Y-109387229D01*
X146205970Y-109475599D01*
X146118834Y-109563886D01*
X146013653Y-109648828D01*
X145890185Y-109722759D01*
X145098382Y-108986950D01*
X145864568Y-108224516D01*
X145992109Y-108295226D01*
G37*
G04 #@! TD.AperFunction*
M02*
