M48
; DRILL file {KiCad (5.1.10-1-10_14)} date Saturday, October 23, 2021 at 10:13:41 PM
; FORMAT={-:-/ absolute / inch / decimal}
; #@! TF.CreationDate,2021-10-23T22:13:41-04:00
; #@! TF.GenerationSoftware,Kicad,Pcbnew,(5.1.10-1-10_14)
FMAT,2
INCH
T1C0.0118
T2C0.0394
T3C0.1260
%
G90
G05
T1
X5.4047Y-3.5921
X5.4059Y-3.6933
X5.415Y-4.0504
X5.5043Y-4.0724
X5.5697Y-3.6626
X5.6303Y-3.6949
X5.6913Y-3.5929
X5.7146Y-3.9559
X5.7386Y-3.6969
X5.7559Y-4.2102
X5.8091Y-3.9555
X5.8831Y-3.6764
X5.9059Y-3.9563
T2
X5.3228Y-4.2126
X5.3679Y-4.1346
X5.3679Y-4.2906
X5.413Y-4.2126
X5.4581Y-4.1346
X5.4581Y-4.2906
X5.5031Y-4.2126
X5.5482Y-4.1346
X5.5482Y-4.2906
X5.5933Y-4.2126
X5.6384Y-4.1346
X5.6384Y-4.2906
X5.6835Y-4.2126
X5.7285Y-4.1346
X5.7285Y-4.2906
T3
X5.0563Y-4.2126
X6.0402Y-4.2126
T2
G00X4.9823Y-3.8602
M15
G01X4.9823Y-3.8996
M16
G05
G00X5.0768Y-3.939
M15
G01X5.0768Y-3.9783
M16
G05
G00X5.2224Y-3.8602
M15
G01X5.2224Y-3.8996
M16
G05
G00X5.2933Y-3.939
M15
G01X5.2933Y-3.9783
M16
G05
G00X5.439Y-3.8602
M15
G01X5.439Y-3.8996
M16
G05
T0
M30
