G04 #@! TF.GenerationSoftware,KiCad,Pcbnew,(6.0.6-0)*
G04 #@! TF.CreationDate,2023-01-30T15:29:15-05:00*
G04 #@! TF.ProjectId,SNES2VGA,534e4553-3256-4474-912e-6b696361645f,1*
G04 #@! TF.SameCoordinates,Original*
G04 #@! TF.FileFunction,Copper,L1,Top*
G04 #@! TF.FilePolarity,Positive*
%FSLAX46Y46*%
G04 Gerber Fmt 4.6, Leading zero omitted, Abs format (unit mm)*
G04 Created by KiCad (PCBNEW (6.0.6-0)) date 2023-01-30 15:29:15*
%MOMM*%
%LPD*%
G01*
G04 APERTURE LIST*
G04 Aperture macros list*
%AMRoundRect*
0 Rectangle with rounded corners*
0 $1 Rounding radius*
0 $2 $3 $4 $5 $6 $7 $8 $9 X,Y pos of 4 corners*
0 Add a 4 corners polygon primitive as box body*
4,1,4,$2,$3,$4,$5,$6,$7,$8,$9,$2,$3,0*
0 Add four circle primitives for the rounded corners*
1,1,$1+$1,$2,$3*
1,1,$1+$1,$4,$5*
1,1,$1+$1,$6,$7*
1,1,$1+$1,$8,$9*
0 Add four rect primitives between the rounded corners*
20,1,$1+$1,$2,$3,$4,$5,0*
20,1,$1+$1,$4,$5,$6,$7,0*
20,1,$1+$1,$6,$7,$8,$9,0*
20,1,$1+$1,$8,$9,$2,$3,0*%
%AMFreePoly0*
4,1,20,0.000000,0.744959,0.073905,0.744508,0.209726,0.703889,0.328688,0.626782,0.421226,0.519385,0.479903,0.390333,0.500000,0.250000,0.500000,-0.250000,0.499851,-0.262216,0.476331,-0.402017,0.414519,-0.529596,0.319384,-0.634700,0.198574,-0.708877,0.061801,-0.746166,0.000000,-0.745033,0.000000,-0.750000,-0.500000,-0.750000,-0.500000,0.750000,0.000000,0.750000,0.000000,0.744959,
0.000000,0.744959,$1*%
%AMFreePoly1*
4,1,22,0.500000,-0.750000,0.000000,-0.750000,0.000000,-0.745033,-0.079941,-0.743568,-0.215256,-0.701293,-0.333266,-0.622738,-0.424486,-0.514219,-0.481581,-0.384460,-0.499164,-0.250000,-0.500000,-0.250000,-0.500000,0.250000,-0.499164,0.250000,-0.499963,0.256109,-0.478152,0.396186,-0.417904,0.524511,-0.324060,0.630769,-0.204165,0.706417,-0.067858,0.745374,0.000000,0.744959,0.000000,0.750000,
0.500000,0.750000,0.500000,-0.750000,0.500000,-0.750000,$1*%
%AMFreePoly2*
4,1,20,0.000000,0.744959,0.073905,0.744508,0.209726,0.703889,0.328688,0.626782,0.421226,0.519385,0.479903,0.390333,0.500000,0.250000,0.500000,-0.250000,0.499851,-0.262216,0.476331,-0.402017,0.414519,-0.529596,0.319384,-0.634700,0.198574,-0.708877,0.061801,-0.746166,0.000000,-0.745033,0.000000,-0.750000,-0.550000,-0.750000,-0.550000,0.750000,0.000000,0.750000,0.000000,0.744959,
0.000000,0.744959,$1*%
%AMFreePoly3*
4,1,22,0.550000,-0.750000,0.000000,-0.750000,0.000000,-0.745033,-0.079941,-0.743568,-0.215256,-0.701293,-0.333266,-0.622738,-0.424486,-0.514219,-0.481581,-0.384460,-0.499164,-0.250000,-0.500000,-0.250000,-0.500000,0.250000,-0.499164,0.250000,-0.499963,0.256109,-0.478152,0.396186,-0.417904,0.524511,-0.324060,0.630769,-0.204165,0.706417,-0.067858,0.745374,0.000000,0.744959,0.000000,0.750000,
0.550000,0.750000,0.550000,-0.750000,0.550000,-0.750000,$1*%
G04 Aperture macros list end*
G04 #@! TA.AperFunction,SMDPad,CuDef*
%ADD10FreePoly0,180.000000*%
G04 #@! TD*
G04 #@! TA.AperFunction,SMDPad,CuDef*
%ADD11FreePoly1,180.000000*%
G04 #@! TD*
G04 #@! TA.AperFunction,SMDPad,CuDef*
%ADD12R,0.970000X0.920000*%
G04 #@! TD*
G04 #@! TA.AperFunction,ComponentPad*
%ADD13O,1.508000X3.016000*%
G04 #@! TD*
G04 #@! TA.AperFunction,ConnectorPad*
%ADD14RoundRect,0.375000X-0.375000X-0.375000X0.375000X-0.375000X0.375000X0.375000X-0.375000X0.375000X0*%
G04 #@! TD*
G04 #@! TA.AperFunction,ComponentPad*
%ADD15C,1.700000*%
G04 #@! TD*
G04 #@! TA.AperFunction,ComponentPad*
%ADD16C,4.066000*%
G04 #@! TD*
G04 #@! TA.AperFunction,ComponentPad*
%ADD17R,1.700000X1.700000*%
G04 #@! TD*
G04 #@! TA.AperFunction,SMDPad,CuDef*
%ADD18R,0.790000X0.930000*%
G04 #@! TD*
G04 #@! TA.AperFunction,SMDPad,CuDef*
%ADD19R,0.930000X0.790000*%
G04 #@! TD*
G04 #@! TA.AperFunction,SMDPad,CuDef*
%ADD20R,1.000000X1.500000*%
G04 #@! TD*
G04 #@! TA.AperFunction,SMDPad,CuDef*
%ADD21FreePoly2,0.000000*%
G04 #@! TD*
G04 #@! TA.AperFunction,SMDPad,CuDef*
%ADD22FreePoly3,0.000000*%
G04 #@! TD*
G04 #@! TA.AperFunction,ViaPad*
%ADD23C,0.700000*%
G04 #@! TD*
G04 #@! TA.AperFunction,Conductor*
%ADD24C,0.200000*%
G04 #@! TD*
G04 APERTURE END LIST*
D10*
X152400000Y-102070000D03*
D11*
X153700000Y-102070000D03*
D12*
X132430000Y-103275000D03*
X132430000Y-104825000D03*
X148060000Y-106310000D03*
X148060000Y-107860000D03*
D13*
X126550000Y-98550000D03*
X128950000Y-100550000D03*
X132650000Y-98550000D03*
X134450000Y-100550000D03*
X138150000Y-98550000D03*
D14*
X146980000Y-95540000D03*
X144560000Y-95540000D03*
X142140000Y-95540000D03*
X139720000Y-95540000D03*
X137300000Y-95540000D03*
X134880000Y-95540000D03*
D15*
X145505000Y-108980000D03*
X143215000Y-108980000D03*
X140925000Y-108980000D03*
X138635000Y-108980000D03*
X136345000Y-108980000D03*
X144360000Y-107000000D03*
X142070000Y-107000000D03*
X139780000Y-107000000D03*
X137490000Y-107000000D03*
X135200000Y-107000000D03*
X145505000Y-105020000D03*
X143215000Y-105020000D03*
X140925000Y-105020000D03*
X138635000Y-105020000D03*
D16*
X153420000Y-107000000D03*
X128430000Y-107000000D03*
D17*
X136345000Y-105020000D03*
D18*
X148000000Y-101730000D03*
X146360000Y-101730000D03*
D19*
X145130000Y-99840000D03*
X145130000Y-98200000D03*
X147560000Y-99840000D03*
X147560000Y-98200000D03*
X150010000Y-99840000D03*
X150010000Y-98200000D03*
X152270000Y-98200000D03*
X152270000Y-99840000D03*
D20*
X149390000Y-103917500D03*
D21*
X150690000Y-103917500D03*
D22*
X148090000Y-103917500D03*
D23*
X154060000Y-98470000D03*
X149990000Y-108300000D03*
X152270000Y-100490000D03*
X145760000Y-93900000D03*
X145150000Y-100480000D03*
X147550000Y-100469950D03*
X149430000Y-93380000D03*
X144560000Y-91259991D03*
X150010000Y-100490000D03*
X143010000Y-93850000D03*
X137310000Y-93809998D03*
X137280000Y-91240000D03*
X146200000Y-106939990D03*
X137540000Y-102880000D03*
X139810000Y-103440000D03*
X141470000Y-93030000D03*
D24*
X153650000Y-98880000D02*
X153650000Y-103190000D01*
X154060000Y-98470000D02*
X153650000Y-98880000D01*
X149730000Y-102350000D02*
X149380000Y-102700000D01*
X149380000Y-102700000D02*
X149380000Y-103920000D01*
X153650000Y-103190000D02*
X153290000Y-103550000D01*
X153290000Y-103550000D02*
X152060000Y-103550000D01*
X152060000Y-103550000D02*
X150860000Y-102350000D01*
X150860000Y-102350000D02*
X149730000Y-102350000D01*
X154010000Y-96930000D02*
X149700000Y-96930000D01*
X151182500Y-104410000D02*
X153900000Y-104410000D01*
X149060000Y-95080000D02*
X146610000Y-92630000D01*
X153900000Y-104410000D02*
X155260000Y-103050000D01*
X155260000Y-103050000D02*
X155260000Y-98180000D01*
X140900000Y-91290000D02*
X139710000Y-92480000D01*
X155260000Y-98180000D02*
X154010000Y-96930000D01*
X149700000Y-96930000D02*
X149060000Y-96290000D01*
X149060000Y-96290000D02*
X149060000Y-95080000D01*
X139710000Y-92480000D02*
X139710000Y-95690000D01*
X146610000Y-92630000D02*
X143820000Y-92630000D01*
X150690000Y-103917500D02*
X151182500Y-104410000D01*
X143820000Y-92630000D02*
X142480000Y-91290000D01*
X142480000Y-91290000D02*
X140900000Y-91290000D01*
X142070000Y-106760000D02*
X142070000Y-103000000D01*
X142070000Y-103000000D02*
X142990000Y-102080000D01*
X142990000Y-102080000D02*
X142990000Y-98090000D01*
X142990000Y-98090000D02*
X141910000Y-97010000D01*
X141910000Y-97010000D02*
X139310000Y-97010000D01*
X139310000Y-97010000D02*
X138510000Y-96210000D01*
X138510000Y-96210000D02*
X138510000Y-92470000D01*
X138510000Y-92470000D02*
X137280000Y-91240000D01*
X148090000Y-103917500D02*
X147567500Y-103917500D01*
X143360000Y-94200000D02*
X143010000Y-93850000D01*
X144142900Y-103260000D02*
X143900000Y-103017100D01*
X147567500Y-103917500D02*
X146910000Y-103260000D01*
X143900000Y-103017100D02*
X143900000Y-97530000D01*
X146910000Y-103260000D02*
X144142900Y-103260000D01*
X143900000Y-97530000D02*
X143360000Y-96990000D01*
X143360000Y-96990000D02*
X143360000Y-94200000D01*
X144560000Y-95540000D02*
X146360000Y-97340000D01*
X146360000Y-97340000D02*
X146360000Y-101730000D01*
X148000000Y-101730000D02*
X148170000Y-101560000D01*
X151960000Y-101560000D02*
X152350000Y-101950000D01*
X148170000Y-101560000D02*
X151960000Y-101560000D01*
X152270000Y-99840000D02*
X152270000Y-101870000D01*
X138635000Y-108980000D02*
X138630000Y-108980000D01*
X138630000Y-108980000D02*
X136480000Y-111130000D01*
X136480000Y-111130000D02*
X134460000Y-111130000D01*
X134460000Y-111130000D02*
X132430000Y-109100000D01*
X132430000Y-109100000D02*
X132430000Y-104825000D01*
X149990000Y-108300000D02*
X149990000Y-109410000D01*
X149990000Y-109410000D02*
X148270000Y-111130000D01*
X148270000Y-111130000D02*
X141490000Y-111130000D01*
X140940000Y-109250000D02*
X140660000Y-108970000D01*
X141490000Y-111130000D02*
X140940000Y-110580000D01*
X140940000Y-110580000D02*
X140940000Y-109250000D01*
X146960000Y-95470000D02*
X146960000Y-95100000D01*
X146960000Y-95100000D02*
X145760000Y-93900000D01*
X145150000Y-100480000D02*
X145150000Y-99880000D01*
X147550000Y-100470000D02*
X147550000Y-99840000D01*
X144580009Y-91280000D02*
X144560000Y-91259991D01*
X147330000Y-91280000D02*
X144580009Y-91280000D01*
X149430000Y-93380000D02*
X147330000Y-91280000D01*
X150020000Y-100460000D02*
X150020000Y-99820000D01*
X134470000Y-95690000D02*
X132650000Y-95690000D01*
X132650000Y-95690000D02*
X128950000Y-99390000D01*
X128950000Y-99390000D02*
X128950000Y-99720000D01*
X137310000Y-95470000D02*
X137310000Y-93809998D01*
X138150000Y-98550000D02*
X138150000Y-99060000D01*
X138150000Y-99060000D02*
X136480000Y-100730000D01*
X136480000Y-100730000D02*
X136480000Y-101920000D01*
X136480000Y-101920000D02*
X135130000Y-103270000D01*
X135130000Y-103270000D02*
X132390000Y-103270000D01*
X146889990Y-106250000D02*
X146200000Y-106939990D01*
X148020000Y-106250000D02*
X146889990Y-106250000D01*
X148060000Y-107890000D02*
X146980000Y-108970000D01*
X146980000Y-108970000D02*
X145250000Y-108970000D01*
X148060000Y-107860000D02*
X148060000Y-107890000D01*
G04 #@! TA.AperFunction,Conductor*
G36*
X150711280Y-88658982D02*
G01*
X150738300Y-88705782D01*
X150739500Y-88719500D01*
X150739500Y-96084802D01*
X150739096Y-96091215D01*
X150736000Y-96099282D01*
X150737099Y-96108779D01*
X150738976Y-96125003D01*
X150739500Y-96134083D01*
X150739500Y-96139554D01*
X150740637Y-96144184D01*
X150740707Y-96144762D01*
X150742263Y-96153415D01*
X150745064Y-96177620D01*
X150750265Y-96185272D01*
X150750641Y-96186496D01*
X150751301Y-96187599D01*
X150753508Y-96196584D01*
X150768872Y-96214011D01*
X150769614Y-96214853D01*
X150775694Y-96222691D01*
X150784015Y-96234935D01*
X150784017Y-96234937D01*
X150789391Y-96242844D01*
X150797546Y-96247216D01*
X150798446Y-96248126D01*
X150799539Y-96248796D01*
X150805659Y-96255738D01*
X150814585Y-96259164D01*
X150814586Y-96259165D01*
X150828399Y-96264467D01*
X150837420Y-96268598D01*
X150852491Y-96276679D01*
X150852494Y-96276680D01*
X150858891Y-96280110D01*
X150861978Y-96280500D01*
X150864802Y-96280500D01*
X150871215Y-96280904D01*
X150879282Y-96284000D01*
X150905003Y-96281024D01*
X150914083Y-96280500D01*
X156110500Y-96280500D01*
X156161280Y-96298982D01*
X156188300Y-96345782D01*
X156189500Y-96359500D01*
X156189500Y-111820500D01*
X156171018Y-111871280D01*
X156124218Y-111898300D01*
X156110500Y-111899500D01*
X125789500Y-111899500D01*
X125738720Y-111881018D01*
X125711700Y-111834218D01*
X125710500Y-111820500D01*
X125710500Y-108750384D01*
X126967952Y-108750384D01*
X126969348Y-108755595D01*
X127035269Y-108813405D01*
X127039370Y-108816552D01*
X127283898Y-108979941D01*
X127288370Y-108982523D01*
X127552136Y-109112597D01*
X127556915Y-109114577D01*
X127835388Y-109209106D01*
X127840394Y-109210447D01*
X128128832Y-109267821D01*
X128133949Y-109268495D01*
X128427422Y-109287730D01*
X128432578Y-109287730D01*
X128726051Y-109268495D01*
X128731168Y-109267821D01*
X129019606Y-109210447D01*
X129024612Y-109209106D01*
X129303085Y-109114577D01*
X129307864Y-109112597D01*
X129571630Y-108982523D01*
X129576102Y-108979941D01*
X129820630Y-108816552D01*
X129824731Y-108813405D01*
X129886626Y-108759125D01*
X129892088Y-108749170D01*
X129891035Y-108743877D01*
X128439851Y-107292694D01*
X128429557Y-107287894D01*
X128423263Y-107289580D01*
X126972752Y-108740090D01*
X126967952Y-108750384D01*
X125710500Y-108750384D01*
X125710500Y-107002578D01*
X126142270Y-107002578D01*
X126161505Y-107296051D01*
X126162179Y-107301168D01*
X126219553Y-107589606D01*
X126220894Y-107594612D01*
X126315423Y-107873085D01*
X126317403Y-107877864D01*
X126447477Y-108141629D01*
X126450059Y-108146102D01*
X126613448Y-108390630D01*
X126616595Y-108394731D01*
X126670875Y-108456626D01*
X126680830Y-108462088D01*
X126686123Y-108461035D01*
X128137306Y-107009851D01*
X128141693Y-107000443D01*
X128717894Y-107000443D01*
X128719580Y-107006737D01*
X130170090Y-108457248D01*
X130180384Y-108462048D01*
X130185595Y-108460652D01*
X130243405Y-108394731D01*
X130246552Y-108390630D01*
X130409941Y-108146102D01*
X130412523Y-108141629D01*
X130542597Y-107877864D01*
X130544577Y-107873085D01*
X130639106Y-107594612D01*
X130640447Y-107589606D01*
X130697821Y-107301168D01*
X130698495Y-107296051D01*
X130717730Y-107002578D01*
X130717730Y-106997422D01*
X130698495Y-106703949D01*
X130697821Y-106698832D01*
X130640447Y-106410394D01*
X130639106Y-106405388D01*
X130544577Y-106126915D01*
X130542597Y-106122136D01*
X130412523Y-105858371D01*
X130409941Y-105853898D01*
X130246552Y-105609370D01*
X130243405Y-105605269D01*
X130189125Y-105543374D01*
X130179170Y-105537912D01*
X130173877Y-105538965D01*
X128722694Y-106990149D01*
X128717894Y-107000443D01*
X128141693Y-107000443D01*
X128142106Y-106999557D01*
X128140420Y-106993263D01*
X126689910Y-105542752D01*
X126679616Y-105537952D01*
X126674405Y-105539348D01*
X126616595Y-105605269D01*
X126613448Y-105609370D01*
X126450059Y-105853898D01*
X126447477Y-105858371D01*
X126317403Y-106122136D01*
X126315423Y-106126915D01*
X126220894Y-106405388D01*
X126219553Y-106410394D01*
X126162179Y-106698832D01*
X126161505Y-106703949D01*
X126142270Y-106997422D01*
X126142270Y-107002578D01*
X125710500Y-107002578D01*
X125710500Y-105250830D01*
X126967912Y-105250830D01*
X126968965Y-105256123D01*
X128420149Y-106707306D01*
X128430443Y-106712106D01*
X128436737Y-106710420D01*
X129846352Y-105300806D01*
X131784500Y-105300806D01*
X131793813Y-105347624D01*
X131829286Y-105400714D01*
X131882376Y-105436187D01*
X131890005Y-105437705D01*
X131890006Y-105437705D01*
X131913941Y-105442466D01*
X131929194Y-105445500D01*
X132090500Y-105445500D01*
X132141280Y-105463982D01*
X132168300Y-105510782D01*
X132169500Y-105524500D01*
X132169500Y-109066565D01*
X132167982Y-109081977D01*
X132164397Y-109100000D01*
X132165915Y-109107632D01*
X132174016Y-109148358D01*
X132176223Y-109159451D01*
X132184615Y-109201642D01*
X132242190Y-109287810D01*
X132248657Y-109292131D01*
X132257475Y-109298023D01*
X132269446Y-109307848D01*
X134252154Y-111290557D01*
X134261977Y-111302525D01*
X134272190Y-111317810D01*
X134358358Y-111375385D01*
X134374089Y-111378514D01*
X134374091Y-111378515D01*
X134374091Y-111378514D01*
X134441974Y-111392018D01*
X134460000Y-111395604D01*
X134467631Y-111394086D01*
X134478027Y-111392018D01*
X134493440Y-111390500D01*
X136446565Y-111390500D01*
X136461978Y-111392018D01*
X136480000Y-111395603D01*
X136487631Y-111394085D01*
X136505654Y-111390500D01*
X136574012Y-111376903D01*
X136574013Y-111376902D01*
X136581642Y-111375385D01*
X136667810Y-111317810D01*
X136678023Y-111302525D01*
X136687848Y-111290554D01*
X138083250Y-109895152D01*
X138132226Y-109872314D01*
X138177653Y-109882053D01*
X138225120Y-109908582D01*
X138225124Y-109908584D01*
X138228490Y-109910465D01*
X138232152Y-109911655D01*
X138232157Y-109911657D01*
X138334911Y-109945043D01*
X138416960Y-109971702D01*
X138420797Y-109972160D01*
X138420799Y-109972160D01*
X138609892Y-109994708D01*
X138609895Y-109994708D01*
X138613735Y-109995166D01*
X138811320Y-109979963D01*
X139002190Y-109926671D01*
X139148224Y-109852904D01*
X139175619Y-109839066D01*
X139175621Y-109839065D01*
X139179073Y-109837321D01*
X139335232Y-109715316D01*
X139363707Y-109682327D01*
X139462196Y-109568228D01*
X139462200Y-109568223D01*
X139464720Y-109565303D01*
X139466626Y-109561947D01*
X139466630Y-109561942D01*
X139560695Y-109396356D01*
X139562604Y-109392996D01*
X139563824Y-109389329D01*
X139623935Y-109208630D01*
X139623936Y-109208625D01*
X139625156Y-109204958D01*
X139649993Y-109008351D01*
X139650389Y-108980000D01*
X139648999Y-108965823D01*
X139909710Y-108965823D01*
X139926292Y-109163297D01*
X139948921Y-109242214D01*
X139972728Y-109325237D01*
X139980915Y-109353790D01*
X140071498Y-109530045D01*
X140194590Y-109685348D01*
X140345504Y-109813786D01*
X140518490Y-109910465D01*
X140522152Y-109911655D01*
X140522157Y-109911657D01*
X140568367Y-109926671D01*
X140624913Y-109945044D01*
X140667496Y-109978313D01*
X140679500Y-110020177D01*
X140679500Y-110546565D01*
X140677982Y-110561977D01*
X140674397Y-110580000D01*
X140679500Y-110605654D01*
X140694615Y-110681642D01*
X140752190Y-110767810D01*
X140758657Y-110772131D01*
X140767475Y-110778023D01*
X140779446Y-110787848D01*
X141282154Y-111290557D01*
X141291977Y-111302525D01*
X141302190Y-111317810D01*
X141323939Y-111332342D01*
X141388358Y-111375385D01*
X141395987Y-111376902D01*
X141395988Y-111376903D01*
X141482369Y-111394085D01*
X141490000Y-111395603D01*
X141497631Y-111394085D01*
X141508023Y-111392018D01*
X141523435Y-111390500D01*
X148236565Y-111390500D01*
X148251978Y-111392018D01*
X148270000Y-111395603D01*
X148277631Y-111394085D01*
X148295654Y-111390500D01*
X148364012Y-111376903D01*
X148364013Y-111376902D01*
X148371642Y-111375385D01*
X148457810Y-111317810D01*
X148468023Y-111302525D01*
X148477848Y-111290554D01*
X150150554Y-109617848D01*
X150162525Y-109608023D01*
X150171343Y-109602131D01*
X150177810Y-109597810D01*
X150235385Y-109511642D01*
X150240915Y-109483844D01*
X150250500Y-109435654D01*
X150254085Y-109417631D01*
X150255603Y-109410000D01*
X150252018Y-109391977D01*
X150250500Y-109376565D01*
X150250500Y-108783347D01*
X150262497Y-108750384D01*
X151957952Y-108750384D01*
X151959348Y-108755595D01*
X152025269Y-108813405D01*
X152029370Y-108816552D01*
X152273898Y-108979941D01*
X152278370Y-108982523D01*
X152542136Y-109112597D01*
X152546915Y-109114577D01*
X152825388Y-109209106D01*
X152830394Y-109210447D01*
X153118832Y-109267821D01*
X153123949Y-109268495D01*
X153417422Y-109287730D01*
X153422578Y-109287730D01*
X153716051Y-109268495D01*
X153721168Y-109267821D01*
X154009606Y-109210447D01*
X154014612Y-109209106D01*
X154293085Y-109114577D01*
X154297864Y-109112597D01*
X154561630Y-108982523D01*
X154566102Y-108979941D01*
X154810630Y-108816552D01*
X154814731Y-108813405D01*
X154876626Y-108759125D01*
X154882088Y-108749170D01*
X154881035Y-108743877D01*
X153429851Y-107292694D01*
X153419557Y-107287894D01*
X153413263Y-107289580D01*
X151962752Y-108740090D01*
X151957952Y-108750384D01*
X150262497Y-108750384D01*
X150268982Y-108732567D01*
X150288165Y-108716024D01*
X150314649Y-108699763D01*
X150314650Y-108699762D01*
X150319445Y-108696818D01*
X150323218Y-108692650D01*
X150323220Y-108692648D01*
X150413799Y-108592577D01*
X150413800Y-108592576D01*
X150417576Y-108588404D01*
X150481335Y-108456805D01*
X150484157Y-108440035D01*
X150505090Y-108315610D01*
X150505090Y-108315607D01*
X150505596Y-108312601D01*
X150505750Y-108300000D01*
X150485020Y-108155246D01*
X150482275Y-108149209D01*
X150426827Y-108027257D01*
X150426826Y-108027255D01*
X150424495Y-108022129D01*
X150420820Y-108017864D01*
X150420818Y-108017861D01*
X150332716Y-107915615D01*
X150329041Y-107911350D01*
X150288812Y-107885275D01*
X150211054Y-107834874D01*
X150211051Y-107834872D01*
X150206332Y-107831814D01*
X150136282Y-107810864D01*
X150071621Y-107791526D01*
X150071619Y-107791526D01*
X150066233Y-107789915D01*
X149993711Y-107789472D01*
X149925630Y-107789056D01*
X149925628Y-107789056D01*
X149920005Y-107789022D01*
X149779404Y-107829206D01*
X149732079Y-107859066D01*
X149661270Y-107903743D01*
X149655732Y-107907237D01*
X149652011Y-107911450D01*
X149652010Y-107911451D01*
X149589176Y-107982596D01*
X149558932Y-108016841D01*
X149496786Y-108149209D01*
X149474288Y-108293699D01*
X149475018Y-108299280D01*
X149490555Y-108418092D01*
X149493249Y-108438695D01*
X149552143Y-108572542D01*
X149555765Y-108576851D01*
X149620055Y-108653333D01*
X149646236Y-108684479D01*
X149694275Y-108716457D01*
X149726305Y-108759980D01*
X149729500Y-108782219D01*
X149729500Y-109269376D01*
X149711018Y-109320156D01*
X149706361Y-109325237D01*
X148185237Y-110846361D01*
X148136261Y-110869199D01*
X148129376Y-110869500D01*
X141630626Y-110869500D01*
X141579846Y-110851018D01*
X141574765Y-110846362D01*
X141223639Y-110495237D01*
X141200801Y-110446260D01*
X141200500Y-110439375D01*
X141200500Y-110012235D01*
X141218982Y-109961455D01*
X141258255Y-109936146D01*
X141292190Y-109926671D01*
X141438224Y-109852904D01*
X141465619Y-109839066D01*
X141465621Y-109839065D01*
X141469073Y-109837321D01*
X141625232Y-109715316D01*
X141653707Y-109682327D01*
X141752196Y-109568228D01*
X141752200Y-109568223D01*
X141754720Y-109565303D01*
X141756626Y-109561947D01*
X141756630Y-109561942D01*
X141850695Y-109396356D01*
X141852604Y-109392996D01*
X141853824Y-109389329D01*
X141913935Y-109208630D01*
X141913936Y-109208625D01*
X141915156Y-109204958D01*
X141939993Y-109008351D01*
X141940389Y-108980000D01*
X141938999Y-108965823D01*
X142199710Y-108965823D01*
X142216292Y-109163297D01*
X142238921Y-109242214D01*
X142262728Y-109325237D01*
X142270915Y-109353790D01*
X142361498Y-109530045D01*
X142484590Y-109685348D01*
X142635504Y-109813786D01*
X142808490Y-109910465D01*
X142812152Y-109911655D01*
X142812157Y-109911657D01*
X142914911Y-109945043D01*
X142996960Y-109971702D01*
X143000797Y-109972160D01*
X143000799Y-109972160D01*
X143189892Y-109994708D01*
X143189895Y-109994708D01*
X143193735Y-109995166D01*
X143391320Y-109979963D01*
X143582190Y-109926671D01*
X143728224Y-109852904D01*
X143755619Y-109839066D01*
X143755621Y-109839065D01*
X143759073Y-109837321D01*
X143915232Y-109715316D01*
X143943707Y-109682327D01*
X144042196Y-109568228D01*
X144042200Y-109568223D01*
X144044720Y-109565303D01*
X144046626Y-109561947D01*
X144046630Y-109561942D01*
X144140695Y-109396356D01*
X144142604Y-109392996D01*
X144143824Y-109389329D01*
X144203935Y-109208630D01*
X144203936Y-109208625D01*
X144205156Y-109204958D01*
X144229993Y-109008351D01*
X144230389Y-108980000D01*
X144228999Y-108965823D01*
X144489710Y-108965823D01*
X144506292Y-109163297D01*
X144528921Y-109242214D01*
X144552728Y-109325237D01*
X144560915Y-109353790D01*
X144651498Y-109530045D01*
X144774590Y-109685348D01*
X144925504Y-109813786D01*
X145098490Y-109910465D01*
X145102152Y-109911655D01*
X145102157Y-109911657D01*
X145204911Y-109945043D01*
X145286960Y-109971702D01*
X145290797Y-109972160D01*
X145290799Y-109972160D01*
X145479892Y-109994708D01*
X145479895Y-109994708D01*
X145483735Y-109995166D01*
X145681320Y-109979963D01*
X145872190Y-109926671D01*
X146018224Y-109852904D01*
X146045619Y-109839066D01*
X146045621Y-109839065D01*
X146049073Y-109837321D01*
X146205232Y-109715316D01*
X146233707Y-109682327D01*
X146332196Y-109568228D01*
X146332200Y-109568223D01*
X146334720Y-109565303D01*
X146336626Y-109561947D01*
X146336630Y-109561942D01*
X146430695Y-109396356D01*
X146432604Y-109392996D01*
X146435482Y-109384346D01*
X146455144Y-109325237D01*
X146468675Y-109284563D01*
X146502240Y-109242214D01*
X146543635Y-109230500D01*
X146946565Y-109230500D01*
X146961978Y-109232018D01*
X146980000Y-109235603D01*
X146987631Y-109234085D01*
X147005654Y-109230500D01*
X147074012Y-109216903D01*
X147074013Y-109216902D01*
X147081642Y-109215385D01*
X147167810Y-109157810D01*
X147178023Y-109142525D01*
X147187848Y-109130554D01*
X147814764Y-108503639D01*
X147863740Y-108480801D01*
X147870625Y-108480500D01*
X148560806Y-108480500D01*
X148576059Y-108477466D01*
X148599994Y-108472705D01*
X148599995Y-108472705D01*
X148607624Y-108471187D01*
X148660714Y-108435714D01*
X148682321Y-108403376D01*
X148691864Y-108389094D01*
X148696187Y-108382624D01*
X148705500Y-108335806D01*
X148705500Y-107384194D01*
X148696187Y-107337376D01*
X148660714Y-107284286D01*
X148607624Y-107248813D01*
X148599995Y-107247295D01*
X148599994Y-107247295D01*
X148576059Y-107242534D01*
X148560806Y-107239500D01*
X147559194Y-107239500D01*
X147543941Y-107242534D01*
X147520006Y-107247295D01*
X147520005Y-107247295D01*
X147512376Y-107248813D01*
X147459286Y-107284286D01*
X147423813Y-107337376D01*
X147414500Y-107384194D01*
X147414500Y-108134375D01*
X147396018Y-108185155D01*
X147391361Y-108190236D01*
X146895237Y-108686361D01*
X146846261Y-108709199D01*
X146839376Y-108709500D01*
X146537598Y-108709500D01*
X146486818Y-108691018D01*
X146461970Y-108653333D01*
X146444891Y-108596763D01*
X146444889Y-108596758D01*
X146443774Y-108593065D01*
X146350739Y-108418092D01*
X146343919Y-108409729D01*
X146253838Y-108299280D01*
X146225490Y-108264522D01*
X146213415Y-108254532D01*
X146075773Y-108140665D01*
X146075772Y-108140664D01*
X146072798Y-108138204D01*
X146065717Y-108134375D01*
X145952252Y-108073025D01*
X145898479Y-108043950D01*
X145709172Y-107985350D01*
X145512089Y-107964636D01*
X145508243Y-107964986D01*
X145508242Y-107964986D01*
X145466036Y-107968827D01*
X145314735Y-107982596D01*
X145311028Y-107983687D01*
X145128338Y-108037456D01*
X145128335Y-108037457D01*
X145124629Y-108038548D01*
X144949010Y-108130359D01*
X144946003Y-108132777D01*
X144946001Y-108132778D01*
X144874538Y-108190236D01*
X144794570Y-108254532D01*
X144743320Y-108315610D01*
X144693491Y-108374994D01*
X144667189Y-108406339D01*
X144665327Y-108409727D01*
X144665325Y-108409729D01*
X144626253Y-108480801D01*
X144571720Y-108579996D01*
X144511800Y-108768889D01*
X144489710Y-108965823D01*
X144228999Y-108965823D01*
X144211051Y-108782777D01*
X144199307Y-108743877D01*
X144154891Y-108596765D01*
X144154890Y-108596763D01*
X144153774Y-108593065D01*
X144151962Y-108589657D01*
X144151961Y-108589654D01*
X144062551Y-108421500D01*
X144060739Y-108418092D01*
X144053919Y-108409729D01*
X143963838Y-108299280D01*
X143935490Y-108264522D01*
X143923415Y-108254532D01*
X143785773Y-108140665D01*
X143785772Y-108140664D01*
X143782798Y-108138204D01*
X143775717Y-108134375D01*
X143662252Y-108073025D01*
X143608479Y-108043950D01*
X143419172Y-107985350D01*
X143222089Y-107964636D01*
X143218243Y-107964986D01*
X143218242Y-107964986D01*
X143176036Y-107968827D01*
X143024735Y-107982596D01*
X143021028Y-107983687D01*
X142838338Y-108037456D01*
X142838335Y-108037457D01*
X142834629Y-108038548D01*
X142659010Y-108130359D01*
X142656003Y-108132777D01*
X142656001Y-108132778D01*
X142584538Y-108190236D01*
X142504570Y-108254532D01*
X142453320Y-108315610D01*
X142403491Y-108374994D01*
X142377189Y-108406339D01*
X142375327Y-108409727D01*
X142375325Y-108409729D01*
X142336253Y-108480801D01*
X142281720Y-108579996D01*
X142221800Y-108768889D01*
X142199710Y-108965823D01*
X141938999Y-108965823D01*
X141921051Y-108782777D01*
X141909307Y-108743877D01*
X141864891Y-108596765D01*
X141864890Y-108596763D01*
X141863774Y-108593065D01*
X141861962Y-108589657D01*
X141861961Y-108589654D01*
X141772551Y-108421500D01*
X141770739Y-108418092D01*
X141763919Y-108409729D01*
X141673838Y-108299280D01*
X141645490Y-108264522D01*
X141633415Y-108254532D01*
X141495773Y-108140665D01*
X141495772Y-108140664D01*
X141492798Y-108138204D01*
X141485717Y-108134375D01*
X141372252Y-108073025D01*
X141318479Y-108043950D01*
X141129172Y-107985350D01*
X140932089Y-107964636D01*
X140928243Y-107964986D01*
X140928242Y-107964986D01*
X140886036Y-107968827D01*
X140734735Y-107982596D01*
X140731028Y-107983687D01*
X140548338Y-108037456D01*
X140548335Y-108037457D01*
X140544629Y-108038548D01*
X140369010Y-108130359D01*
X140366003Y-108132777D01*
X140366001Y-108132778D01*
X140294538Y-108190236D01*
X140214570Y-108254532D01*
X140163320Y-108315610D01*
X140113491Y-108374994D01*
X140087189Y-108406339D01*
X140085327Y-108409727D01*
X140085325Y-108409729D01*
X140046253Y-108480801D01*
X139991720Y-108579996D01*
X139931800Y-108768889D01*
X139909710Y-108965823D01*
X139648999Y-108965823D01*
X139631051Y-108782777D01*
X139619307Y-108743877D01*
X139574891Y-108596765D01*
X139574890Y-108596763D01*
X139573774Y-108593065D01*
X139571962Y-108589657D01*
X139571961Y-108589654D01*
X139482551Y-108421500D01*
X139480739Y-108418092D01*
X139473919Y-108409729D01*
X139383838Y-108299280D01*
X139355490Y-108264522D01*
X139343415Y-108254532D01*
X139205773Y-108140665D01*
X139205772Y-108140664D01*
X139202798Y-108138204D01*
X139195717Y-108134375D01*
X139082252Y-108073025D01*
X139028479Y-108043950D01*
X138839172Y-107985350D01*
X138642089Y-107964636D01*
X138638243Y-107964986D01*
X138638242Y-107964986D01*
X138596036Y-107968827D01*
X138444735Y-107982596D01*
X138441028Y-107983687D01*
X138258338Y-108037456D01*
X138258335Y-108037457D01*
X138254629Y-108038548D01*
X138079010Y-108130359D01*
X138076003Y-108132777D01*
X138076001Y-108132778D01*
X138004538Y-108190236D01*
X137924570Y-108254532D01*
X137873320Y-108315610D01*
X137823491Y-108374994D01*
X137797189Y-108406339D01*
X137795327Y-108409727D01*
X137795325Y-108409729D01*
X137756253Y-108480801D01*
X137701720Y-108579996D01*
X137641800Y-108768889D01*
X137619710Y-108965823D01*
X137636292Y-109163297D01*
X137658921Y-109242214D01*
X137682728Y-109325237D01*
X137690915Y-109353790D01*
X137715882Y-109402369D01*
X137731422Y-109432607D01*
X137738195Y-109486220D01*
X137717019Y-109524579D01*
X136395237Y-110846361D01*
X136346261Y-110869199D01*
X136339376Y-110869500D01*
X134600625Y-110869500D01*
X134549845Y-110851018D01*
X134544764Y-110846361D01*
X132713639Y-109015237D01*
X132690801Y-108966261D01*
X132690782Y-108965823D01*
X135329710Y-108965823D01*
X135346292Y-109163297D01*
X135368921Y-109242214D01*
X135392728Y-109325237D01*
X135400915Y-109353790D01*
X135491498Y-109530045D01*
X135614590Y-109685348D01*
X135765504Y-109813786D01*
X135938490Y-109910465D01*
X135942152Y-109911655D01*
X135942157Y-109911657D01*
X136044911Y-109945043D01*
X136126960Y-109971702D01*
X136130797Y-109972160D01*
X136130799Y-109972160D01*
X136319892Y-109994708D01*
X136319895Y-109994708D01*
X136323735Y-109995166D01*
X136521320Y-109979963D01*
X136712190Y-109926671D01*
X136858224Y-109852904D01*
X136885619Y-109839066D01*
X136885621Y-109839065D01*
X136889073Y-109837321D01*
X137045232Y-109715316D01*
X137073707Y-109682327D01*
X137172196Y-109568228D01*
X137172200Y-109568223D01*
X137174720Y-109565303D01*
X137176626Y-109561947D01*
X137176630Y-109561942D01*
X137270695Y-109396356D01*
X137272604Y-109392996D01*
X137273824Y-109389329D01*
X137333935Y-109208630D01*
X137333936Y-109208625D01*
X137335156Y-109204958D01*
X137359993Y-109008351D01*
X137360389Y-108980000D01*
X137341051Y-108782777D01*
X137329307Y-108743877D01*
X137284891Y-108596765D01*
X137284890Y-108596763D01*
X137283774Y-108593065D01*
X137281962Y-108589657D01*
X137281961Y-108589654D01*
X137192551Y-108421500D01*
X137190739Y-108418092D01*
X137183919Y-108409729D01*
X137093838Y-108299280D01*
X137065490Y-108264522D01*
X137053415Y-108254532D01*
X136915773Y-108140665D01*
X136915772Y-108140664D01*
X136912798Y-108138204D01*
X136905717Y-108134375D01*
X136792252Y-108073025D01*
X136738479Y-108043950D01*
X136549172Y-107985350D01*
X136352089Y-107964636D01*
X136348243Y-107964986D01*
X136348242Y-107964986D01*
X136306036Y-107968827D01*
X136154735Y-107982596D01*
X136151028Y-107983687D01*
X135968338Y-108037456D01*
X135968335Y-108037457D01*
X135964629Y-108038548D01*
X135789010Y-108130359D01*
X135786003Y-108132777D01*
X135786001Y-108132778D01*
X135714538Y-108190236D01*
X135634570Y-108254532D01*
X135583320Y-108315610D01*
X135533491Y-108374994D01*
X135507189Y-108406339D01*
X135505327Y-108409727D01*
X135505325Y-108409729D01*
X135466253Y-108480801D01*
X135411720Y-108579996D01*
X135351800Y-108768889D01*
X135329710Y-108965823D01*
X132690782Y-108965823D01*
X132690500Y-108959376D01*
X132690500Y-107906846D01*
X134581491Y-107906846D01*
X134582436Y-107910375D01*
X134582545Y-107910482D01*
X134669864Y-107968827D01*
X134676204Y-107972270D01*
X134855297Y-108049214D01*
X134862161Y-108051444D01*
X135052274Y-108094463D01*
X135059425Y-108095404D01*
X135254191Y-108103057D01*
X135261408Y-108102678D01*
X135454304Y-108074710D01*
X135461321Y-108073025D01*
X135645896Y-108010371D01*
X135652488Y-108007436D01*
X135818298Y-107914577D01*
X135821745Y-107908671D01*
X135821432Y-107906846D01*
X136871491Y-107906846D01*
X136872436Y-107910375D01*
X136872545Y-107910482D01*
X136959864Y-107968827D01*
X136966204Y-107972270D01*
X137145297Y-108049214D01*
X137152161Y-108051444D01*
X137342274Y-108094463D01*
X137349425Y-108095404D01*
X137544191Y-108103057D01*
X137551408Y-108102678D01*
X137744304Y-108074710D01*
X137751321Y-108073025D01*
X137935896Y-108010371D01*
X137942488Y-108007436D01*
X138108298Y-107914577D01*
X138111745Y-107908671D01*
X138111432Y-107906846D01*
X139161491Y-107906846D01*
X139162436Y-107910375D01*
X139162545Y-107910482D01*
X139249864Y-107968827D01*
X139256204Y-107972270D01*
X139435297Y-108049214D01*
X139442161Y-108051444D01*
X139632274Y-108094463D01*
X139639425Y-108095404D01*
X139834191Y-108103057D01*
X139841408Y-108102678D01*
X140034304Y-108074710D01*
X140041321Y-108073025D01*
X140225896Y-108010371D01*
X140232488Y-108007436D01*
X140398298Y-107914577D01*
X140401745Y-107908671D01*
X140400900Y-107903743D01*
X139789851Y-107292694D01*
X139779557Y-107287894D01*
X139773263Y-107289580D01*
X139166291Y-107896552D01*
X139161491Y-107906846D01*
X138111432Y-107906846D01*
X138110900Y-107903743D01*
X137499851Y-107292694D01*
X137489557Y-107287894D01*
X137483263Y-107289580D01*
X136876291Y-107896552D01*
X136871491Y-107906846D01*
X135821432Y-107906846D01*
X135820900Y-107903743D01*
X135209851Y-107292694D01*
X135199557Y-107287894D01*
X135193263Y-107289580D01*
X134586291Y-107896552D01*
X134581491Y-107906846D01*
X132690500Y-107906846D01*
X132690500Y-106974698D01*
X134095903Y-106974698D01*
X134108651Y-107169201D01*
X134109780Y-107176328D01*
X134157759Y-107365243D01*
X134160172Y-107372057D01*
X134241774Y-107549068D01*
X134245377Y-107555308D01*
X134285567Y-107612176D01*
X134294897Y-107618648D01*
X134298875Y-107618282D01*
X134907306Y-107009851D01*
X134911693Y-107000443D01*
X135487894Y-107000443D01*
X135489580Y-107006737D01*
X136099726Y-107616883D01*
X136110020Y-107621683D01*
X136113151Y-107620844D01*
X136207436Y-107452488D01*
X136210371Y-107445896D01*
X136272153Y-107263891D01*
X136305977Y-107221747D01*
X136358978Y-107211204D01*
X136406355Y-107237197D01*
X136423529Y-107269839D01*
X136447759Y-107365243D01*
X136450172Y-107372057D01*
X136531774Y-107549068D01*
X136535377Y-107555308D01*
X136575567Y-107612176D01*
X136584897Y-107618648D01*
X136588875Y-107618282D01*
X137197306Y-107009851D01*
X137201693Y-107000443D01*
X137777894Y-107000443D01*
X137779580Y-107006737D01*
X138389726Y-107616883D01*
X138400020Y-107621683D01*
X138403151Y-107620844D01*
X138497436Y-107452488D01*
X138500371Y-107445896D01*
X138562153Y-107263891D01*
X138595977Y-107221747D01*
X138648978Y-107211204D01*
X138696355Y-107237197D01*
X138713529Y-107269839D01*
X138737759Y-107365243D01*
X138740172Y-107372057D01*
X138821774Y-107549068D01*
X138825377Y-107555308D01*
X138865567Y-107612176D01*
X138874897Y-107618648D01*
X138878875Y-107618282D01*
X139487306Y-107009851D01*
X139491693Y-107000443D01*
X140067894Y-107000443D01*
X140069580Y-107006737D01*
X140679726Y-107616883D01*
X140690020Y-107621683D01*
X140693151Y-107620844D01*
X140787436Y-107452488D01*
X140790371Y-107445896D01*
X140853025Y-107261321D01*
X140854710Y-107254304D01*
X140882864Y-107060127D01*
X140883260Y-107055486D01*
X140884652Y-107002327D01*
X140884500Y-106997685D01*
X140866545Y-106802288D01*
X140865230Y-106795195D01*
X140812321Y-106607592D01*
X140809736Y-106600858D01*
X140723525Y-106426037D01*
X140719754Y-106419884D01*
X140695259Y-106387081D01*
X140685762Y-106380854D01*
X140681482Y-106381361D01*
X140072694Y-106990149D01*
X140067894Y-107000443D01*
X139491693Y-107000443D01*
X139492106Y-106999557D01*
X139490420Y-106993263D01*
X138881865Y-106384708D01*
X138871571Y-106379908D01*
X138867085Y-106381110D01*
X138855748Y-106395490D01*
X138851827Y-106401528D01*
X138761065Y-106574039D01*
X138758304Y-106580703D01*
X138709756Y-106737056D01*
X138677046Y-106780071D01*
X138624340Y-106791997D01*
X138576298Y-106767254D01*
X138558275Y-106735073D01*
X138522321Y-106607592D01*
X138519736Y-106600858D01*
X138433525Y-106426037D01*
X138429754Y-106419884D01*
X138405259Y-106387081D01*
X138395762Y-106380854D01*
X138391482Y-106381361D01*
X137782694Y-106990149D01*
X137777894Y-107000443D01*
X137201693Y-107000443D01*
X137202106Y-106999557D01*
X137200420Y-106993263D01*
X136591865Y-106384708D01*
X136581571Y-106379908D01*
X136577085Y-106381110D01*
X136565748Y-106395490D01*
X136561827Y-106401528D01*
X136471065Y-106574039D01*
X136468304Y-106580703D01*
X136419756Y-106737056D01*
X136387046Y-106780071D01*
X136334340Y-106791997D01*
X136286298Y-106767254D01*
X136268275Y-106735073D01*
X136232321Y-106607592D01*
X136229736Y-106600858D01*
X136143525Y-106426037D01*
X136139754Y-106419884D01*
X136115259Y-106387081D01*
X136105762Y-106380854D01*
X136101482Y-106381361D01*
X135492694Y-106990149D01*
X135487894Y-107000443D01*
X134911693Y-107000443D01*
X134912106Y-106999557D01*
X134910420Y-106993263D01*
X134301865Y-106384708D01*
X134291571Y-106379908D01*
X134287085Y-106381110D01*
X134275748Y-106395490D01*
X134271827Y-106401528D01*
X134181065Y-106574039D01*
X134178304Y-106580703D01*
X134120502Y-106766857D01*
X134119002Y-106773919D01*
X134096092Y-106967481D01*
X134095903Y-106974698D01*
X132690500Y-106974698D01*
X132690500Y-106093599D01*
X134579556Y-106093599D01*
X134579589Y-106096135D01*
X134580706Y-106097863D01*
X135190149Y-106707306D01*
X135200443Y-106712106D01*
X135206737Y-106710420D01*
X135814266Y-106102891D01*
X135826753Y-106076113D01*
X135864964Y-106037902D01*
X135898351Y-106030500D01*
X136790758Y-106030500D01*
X136841538Y-106048982D01*
X136861839Y-106084144D01*
X136870706Y-106097863D01*
X137480149Y-106707306D01*
X137490443Y-106712106D01*
X137496737Y-106710420D01*
X138104266Y-106102891D01*
X138108599Y-106093599D01*
X139159556Y-106093599D01*
X139159589Y-106096135D01*
X139160706Y-106097863D01*
X139770149Y-106707306D01*
X139780443Y-106712106D01*
X139786737Y-106710420D01*
X140394266Y-106102891D01*
X140399066Y-106092597D01*
X140398264Y-106089605D01*
X140397466Y-106088843D01*
X140284590Y-106017625D01*
X140278167Y-106014353D01*
X140097121Y-105942122D01*
X140090200Y-105940072D01*
X139899024Y-105902045D01*
X139891854Y-105901292D01*
X139696952Y-105898739D01*
X139689752Y-105899306D01*
X139497653Y-105932315D01*
X139490675Y-105934185D01*
X139307805Y-106001649D01*
X139301298Y-106004753D01*
X139166742Y-106084805D01*
X139159556Y-106093599D01*
X138108599Y-106093599D01*
X138109066Y-106092597D01*
X138108264Y-106089605D01*
X138107466Y-106088843D01*
X137994590Y-106017625D01*
X137988167Y-106014353D01*
X137807121Y-105942122D01*
X137800200Y-105940072D01*
X137609024Y-105902045D01*
X137601854Y-105901292D01*
X137433466Y-105899087D01*
X137382932Y-105879942D01*
X137356527Y-105832793D01*
X137355500Y-105820094D01*
X137355500Y-105005823D01*
X137619710Y-105005823D01*
X137620033Y-105009669D01*
X137634890Y-105186595D01*
X137636292Y-105203297D01*
X137690915Y-105393790D01*
X137781498Y-105570045D01*
X137904590Y-105725348D01*
X138055504Y-105853786D01*
X138228490Y-105950465D01*
X138232152Y-105951655D01*
X138232157Y-105951657D01*
X138344935Y-105988300D01*
X138416960Y-106011702D01*
X138420797Y-106012160D01*
X138420799Y-106012160D01*
X138609892Y-106034708D01*
X138609895Y-106034708D01*
X138613735Y-106035166D01*
X138811320Y-106019963D01*
X139002190Y-105966671D01*
X139130128Y-105902045D01*
X139175619Y-105879066D01*
X139175621Y-105879065D01*
X139179073Y-105877321D01*
X139294197Y-105787376D01*
X139332190Y-105757693D01*
X139332192Y-105757691D01*
X139335232Y-105755316D01*
X139384004Y-105698813D01*
X139462196Y-105608228D01*
X139462200Y-105608223D01*
X139464720Y-105605303D01*
X139466626Y-105601947D01*
X139466630Y-105601942D01*
X139543914Y-105465896D01*
X139562604Y-105432996D01*
X139563824Y-105429329D01*
X139623935Y-105248630D01*
X139623936Y-105248625D01*
X139625156Y-105244958D01*
X139649993Y-105048351D01*
X139650389Y-105020000D01*
X139631051Y-104822777D01*
X139573774Y-104633065D01*
X139571963Y-104629660D01*
X139571961Y-104629654D01*
X139482551Y-104461500D01*
X139480739Y-104458092D01*
X139473919Y-104449729D01*
X139361548Y-104311950D01*
X139355490Y-104304522D01*
X139343415Y-104294532D01*
X139205773Y-104180665D01*
X139205772Y-104180664D01*
X139202798Y-104178204D01*
X139184979Y-104168569D01*
X139095037Y-104119938D01*
X139028479Y-104083950D01*
X138839172Y-104025350D01*
X138642089Y-104004636D01*
X138638243Y-104004986D01*
X138638242Y-104004986D01*
X138590487Y-104009332D01*
X138444735Y-104022596D01*
X138441028Y-104023687D01*
X138258338Y-104077456D01*
X138258335Y-104077457D01*
X138254629Y-104078548D01*
X138079010Y-104170359D01*
X138076003Y-104172777D01*
X138076001Y-104172778D01*
X138067346Y-104179737D01*
X137924570Y-104294532D01*
X137797189Y-104446339D01*
X137795327Y-104449727D01*
X137795325Y-104449729D01*
X137788854Y-104461500D01*
X137701720Y-104619996D01*
X137641800Y-104808889D01*
X137619710Y-105005823D01*
X137355500Y-105005823D01*
X137355500Y-104154194D01*
X137352466Y-104138941D01*
X137347705Y-104115006D01*
X137347705Y-104115005D01*
X137346187Y-104107376D01*
X137310714Y-104054286D01*
X137269120Y-104026494D01*
X137264094Y-104023136D01*
X137257624Y-104018813D01*
X137249995Y-104017295D01*
X137249994Y-104017295D01*
X137226059Y-104012534D01*
X137210806Y-104009500D01*
X135479194Y-104009500D01*
X135463941Y-104012534D01*
X135440006Y-104017295D01*
X135440005Y-104017295D01*
X135432376Y-104018813D01*
X135425906Y-104023136D01*
X135420880Y-104026494D01*
X135379286Y-104054286D01*
X135343813Y-104107376D01*
X135342295Y-104115005D01*
X135342295Y-104115006D01*
X135337534Y-104138941D01*
X135334500Y-104154194D01*
X135334500Y-105821547D01*
X135316018Y-105872327D01*
X135269218Y-105899347D01*
X135254466Y-105900540D01*
X135116952Y-105898739D01*
X135109752Y-105899306D01*
X134917653Y-105932315D01*
X134910675Y-105934185D01*
X134727805Y-106001649D01*
X134721298Y-106004753D01*
X134586742Y-106084805D01*
X134579556Y-106093599D01*
X132690500Y-106093599D01*
X132690500Y-105524500D01*
X132708982Y-105473720D01*
X132755782Y-105446700D01*
X132769500Y-105445500D01*
X132930806Y-105445500D01*
X132946059Y-105442466D01*
X132969994Y-105437705D01*
X132969995Y-105437705D01*
X132977624Y-105436187D01*
X133030714Y-105400714D01*
X133066187Y-105347624D01*
X133075500Y-105300806D01*
X133075500Y-104349194D01*
X133070045Y-104321770D01*
X133067705Y-104310006D01*
X133067705Y-104310005D01*
X133066187Y-104302376D01*
X133030714Y-104249286D01*
X132977624Y-104213813D01*
X132969995Y-104212295D01*
X132969994Y-104212295D01*
X132946059Y-104207534D01*
X132930806Y-104204500D01*
X131929194Y-104204500D01*
X131913941Y-104207534D01*
X131890006Y-104212295D01*
X131890005Y-104212295D01*
X131882376Y-104213813D01*
X131829286Y-104249286D01*
X131793813Y-104302376D01*
X131792295Y-104310005D01*
X131792295Y-104310006D01*
X131789955Y-104321770D01*
X131784500Y-104349194D01*
X131784500Y-105300806D01*
X129846352Y-105300806D01*
X129887248Y-105259910D01*
X129892048Y-105249616D01*
X129890652Y-105244405D01*
X129824731Y-105186595D01*
X129820630Y-105183448D01*
X129576102Y-105020059D01*
X129571630Y-105017477D01*
X129307864Y-104887403D01*
X129303085Y-104885423D01*
X129024612Y-104790894D01*
X129019606Y-104789553D01*
X128731168Y-104732179D01*
X128726051Y-104731505D01*
X128432578Y-104712270D01*
X128427422Y-104712270D01*
X128133949Y-104731505D01*
X128128832Y-104732179D01*
X127840394Y-104789553D01*
X127835388Y-104790894D01*
X127556915Y-104885423D01*
X127552136Y-104887403D01*
X127288371Y-105017477D01*
X127283898Y-105020059D01*
X127039370Y-105183448D01*
X127035269Y-105186595D01*
X126973374Y-105240875D01*
X126967912Y-105250830D01*
X125710500Y-105250830D01*
X125710500Y-103750806D01*
X131784500Y-103750806D01*
X131793813Y-103797624D01*
X131829286Y-103850714D01*
X131882376Y-103886187D01*
X131890005Y-103887705D01*
X131890006Y-103887705D01*
X131913941Y-103892466D01*
X131929194Y-103895500D01*
X132930806Y-103895500D01*
X132946059Y-103892466D01*
X132969994Y-103887705D01*
X132969995Y-103887705D01*
X132977624Y-103886187D01*
X133030714Y-103850714D01*
X133066187Y-103797624D01*
X133075500Y-103750806D01*
X133075500Y-103609500D01*
X133093982Y-103558720D01*
X133140782Y-103531700D01*
X133154500Y-103530500D01*
X135096565Y-103530500D01*
X135111978Y-103532018D01*
X135130000Y-103535603D01*
X135137631Y-103534085D01*
X135155654Y-103530500D01*
X135224012Y-103516903D01*
X135224013Y-103516902D01*
X135231642Y-103515385D01*
X135317810Y-103457810D01*
X135328023Y-103442525D01*
X135337848Y-103430554D01*
X136640554Y-102127848D01*
X136652525Y-102118023D01*
X136661343Y-102112131D01*
X136667810Y-102107810D01*
X136725385Y-102021642D01*
X136732207Y-101987349D01*
X136744085Y-101927631D01*
X136745603Y-101920000D01*
X136742018Y-101901977D01*
X136740500Y-101886565D01*
X136740500Y-100870624D01*
X136758982Y-100819844D01*
X136763639Y-100814763D01*
X137519634Y-100058769D01*
X137568610Y-100035931D01*
X137621930Y-100050718D01*
X137690231Y-100100342D01*
X137694020Y-100102029D01*
X137862064Y-100176848D01*
X137862067Y-100176849D01*
X137865847Y-100178532D01*
X137869893Y-100179392D01*
X137869896Y-100179393D01*
X138049838Y-100217641D01*
X138049843Y-100217642D01*
X138053882Y-100218500D01*
X138246118Y-100218500D01*
X138250157Y-100217642D01*
X138250162Y-100217641D01*
X138430108Y-100179392D01*
X138430110Y-100179391D01*
X138434153Y-100178532D01*
X138443865Y-100174208D01*
X138605989Y-100102025D01*
X138605992Y-100102023D01*
X138609768Y-100100342D01*
X138636531Y-100080898D01*
X138761937Y-99989785D01*
X138761936Y-99989785D01*
X138765290Y-99987349D01*
X138893921Y-99844490D01*
X138907473Y-99821018D01*
X138987969Y-99681595D01*
X138987970Y-99681592D01*
X138990039Y-99678009D01*
X139049443Y-99495182D01*
X139062926Y-99366898D01*
X139086615Y-99318328D01*
X139135982Y-99296348D01*
X139187928Y-99311244D01*
X139218975Y-99359744D01*
X139251149Y-99521491D01*
X139258099Y-99556433D01*
X139345516Y-99799910D01*
X139467961Y-100027792D01*
X139622745Y-100235072D01*
X139624826Y-100237135D01*
X139624827Y-100237136D01*
X139668979Y-100280904D01*
X139806466Y-100417197D01*
X139808837Y-100418936D01*
X139808840Y-100418938D01*
X139963007Y-100531977D01*
X140015090Y-100570166D01*
X140244031Y-100690618D01*
X140246795Y-100691583D01*
X140246799Y-100691585D01*
X140334951Y-100722369D01*
X140488262Y-100775908D01*
X140491136Y-100776454D01*
X140491141Y-100776455D01*
X140649255Y-100806473D01*
X140742417Y-100824160D01*
X140745335Y-100824275D01*
X140745338Y-100824275D01*
X140997979Y-100834202D01*
X140997983Y-100834202D01*
X141000913Y-100834317D01*
X141060586Y-100827782D01*
X141255151Y-100806473D01*
X141255155Y-100806472D01*
X141258070Y-100806153D01*
X141385601Y-100772577D01*
X141505408Y-100741035D01*
X141505413Y-100741033D01*
X141508240Y-100740289D01*
X141745927Y-100638171D01*
X141965909Y-100502042D01*
X141968144Y-100500150D01*
X141968148Y-100500147D01*
X142161111Y-100336791D01*
X142163353Y-100334893D01*
X142204442Y-100288040D01*
X142331981Y-100142610D01*
X142331985Y-100142605D01*
X142333922Y-100140396D01*
X142422235Y-100003098D01*
X142472283Y-99925291D01*
X142472286Y-99925286D01*
X142473870Y-99922823D01*
X142578471Y-99690618D01*
X142616179Y-99651910D01*
X142669946Y-99646496D01*
X142714614Y-99676909D01*
X142729500Y-99723065D01*
X142729500Y-101939375D01*
X142711018Y-101990155D01*
X142706361Y-101995236D01*
X141909446Y-102792152D01*
X141897475Y-102801977D01*
X141882190Y-102812190D01*
X141877869Y-102818657D01*
X141858491Y-102847659D01*
X141833941Y-102884401D01*
X141824615Y-102898358D01*
X141804397Y-103000000D01*
X141805915Y-103007631D01*
X141807982Y-103018023D01*
X141809500Y-103033435D01*
X141809500Y-104283760D01*
X141791018Y-104334540D01*
X141744218Y-104361560D01*
X141691000Y-104352176D01*
X141669280Y-104333691D01*
X141647931Y-104307515D01*
X141647930Y-104307514D01*
X141645490Y-104304522D01*
X141633415Y-104294532D01*
X141495773Y-104180665D01*
X141495772Y-104180664D01*
X141492798Y-104178204D01*
X141474979Y-104168569D01*
X141385037Y-104119938D01*
X141318479Y-104083950D01*
X141129172Y-104025350D01*
X140932089Y-104004636D01*
X140928243Y-104004986D01*
X140928242Y-104004986D01*
X140880487Y-104009332D01*
X140734735Y-104022596D01*
X140731028Y-104023687D01*
X140548338Y-104077456D01*
X140548335Y-104077457D01*
X140544629Y-104078548D01*
X140369010Y-104170359D01*
X140366003Y-104172777D01*
X140366001Y-104172778D01*
X140357346Y-104179737D01*
X140214570Y-104294532D01*
X140087189Y-104446339D01*
X140085327Y-104449727D01*
X140085325Y-104449729D01*
X140078854Y-104461500D01*
X139991720Y-104619996D01*
X139931800Y-104808889D01*
X139909710Y-105005823D01*
X139910033Y-105009669D01*
X139924890Y-105186595D01*
X139926292Y-105203297D01*
X139980915Y-105393790D01*
X140071498Y-105570045D01*
X140194590Y-105725348D01*
X140345504Y-105853786D01*
X140518490Y-105950465D01*
X140522152Y-105951655D01*
X140522157Y-105951657D01*
X140634935Y-105988300D01*
X140706960Y-106011702D01*
X140710797Y-106012160D01*
X140710799Y-106012160D01*
X140899892Y-106034708D01*
X140899895Y-106034708D01*
X140903735Y-106035166D01*
X141101320Y-106019963D01*
X141292190Y-105966671D01*
X141420128Y-105902045D01*
X141465619Y-105879066D01*
X141465621Y-105879065D01*
X141469073Y-105877321D01*
X141584197Y-105787376D01*
X141622190Y-105757693D01*
X141622192Y-105757691D01*
X141625232Y-105755316D01*
X141670698Y-105702644D01*
X141717869Y-105676280D01*
X141770951Y-105686406D01*
X141805106Y-105728283D01*
X141809500Y-105754264D01*
X141809500Y-105964168D01*
X141791018Y-106014948D01*
X141752805Y-106039954D01*
X141693338Y-106057456D01*
X141693335Y-106057457D01*
X141689629Y-106058548D01*
X141514010Y-106150359D01*
X141511003Y-106152777D01*
X141511001Y-106152778D01*
X141501192Y-106160665D01*
X141359570Y-106274532D01*
X141232189Y-106426339D01*
X141230327Y-106429727D01*
X141230325Y-106429729D01*
X141223854Y-106441500D01*
X141136720Y-106599996D01*
X141076800Y-106788889D01*
X141054710Y-106985823D01*
X141071292Y-107183297D01*
X141125915Y-107373790D01*
X141216498Y-107550045D01*
X141339590Y-107705348D01*
X141490504Y-107833786D01*
X141663490Y-107930465D01*
X141667152Y-107931655D01*
X141667157Y-107931657D01*
X141769736Y-107964986D01*
X141851960Y-107991702D01*
X141855797Y-107992160D01*
X141855799Y-107992160D01*
X142044892Y-108014708D01*
X142044895Y-108014708D01*
X142048735Y-108015166D01*
X142246320Y-107999963D01*
X142437190Y-107946671D01*
X142516030Y-107906846D01*
X143741491Y-107906846D01*
X143742436Y-107910375D01*
X143742545Y-107910482D01*
X143829864Y-107968827D01*
X143836204Y-107972270D01*
X144015297Y-108049214D01*
X144022161Y-108051444D01*
X144212274Y-108094463D01*
X144219425Y-108095404D01*
X144414191Y-108103057D01*
X144421408Y-108102678D01*
X144614304Y-108074710D01*
X144621321Y-108073025D01*
X144805896Y-108010371D01*
X144812488Y-108007436D01*
X144978298Y-107914577D01*
X144981745Y-107908671D01*
X144980900Y-107903743D01*
X144369851Y-107292694D01*
X144359557Y-107287894D01*
X144353263Y-107289580D01*
X143746291Y-107896552D01*
X143741491Y-107906846D01*
X142516030Y-107906846D01*
X142582866Y-107873085D01*
X142610619Y-107859066D01*
X142610621Y-107859065D01*
X142614073Y-107857321D01*
X142770232Y-107735316D01*
X142869042Y-107620844D01*
X142897196Y-107588228D01*
X142897200Y-107588223D01*
X142899720Y-107585303D01*
X142901626Y-107581947D01*
X142901630Y-107581942D01*
X142995695Y-107416356D01*
X142997604Y-107412996D01*
X143008453Y-107380384D01*
X143058935Y-107228630D01*
X143058936Y-107228625D01*
X143060156Y-107224958D01*
X143061182Y-107216841D01*
X143075707Y-107101860D01*
X143084993Y-107028351D01*
X143085389Y-107000000D01*
X143082908Y-106974698D01*
X143255903Y-106974698D01*
X143268651Y-107169201D01*
X143269780Y-107176328D01*
X143317759Y-107365243D01*
X143320172Y-107372057D01*
X143401774Y-107549068D01*
X143405377Y-107555308D01*
X143445567Y-107612176D01*
X143454897Y-107618648D01*
X143458875Y-107618282D01*
X144067306Y-107009851D01*
X144071693Y-107000443D01*
X144647894Y-107000443D01*
X144649580Y-107006737D01*
X145259726Y-107616883D01*
X145270020Y-107621683D01*
X145273151Y-107620844D01*
X145367436Y-107452488D01*
X145370371Y-107445896D01*
X145433025Y-107261321D01*
X145434710Y-107254304D01*
X145462864Y-107060127D01*
X145463260Y-107055486D01*
X145464652Y-107002327D01*
X145464500Y-106997685D01*
X145458619Y-106933689D01*
X145684288Y-106933689D01*
X145685018Y-106939270D01*
X145694248Y-107009851D01*
X145703249Y-107078685D01*
X145762143Y-107212532D01*
X145856236Y-107324469D01*
X145977964Y-107405498D01*
X146117541Y-107449106D01*
X146167056Y-107450013D01*
X146258120Y-107451682D01*
X146258121Y-107451682D01*
X146263747Y-107451785D01*
X146404829Y-107413322D01*
X146529445Y-107336808D01*
X146533218Y-107332640D01*
X146533220Y-107332638D01*
X146623799Y-107232567D01*
X146623800Y-107232566D01*
X146627576Y-107228394D01*
X146630797Y-107221747D01*
X146688881Y-107101860D01*
X146691335Y-107096795D01*
X146695321Y-107073106D01*
X146707187Y-107002578D01*
X151132270Y-107002578D01*
X151151505Y-107296051D01*
X151152179Y-107301168D01*
X151209553Y-107589606D01*
X151210894Y-107594612D01*
X151305423Y-107873085D01*
X151307403Y-107877864D01*
X151437477Y-108141629D01*
X151440059Y-108146102D01*
X151603448Y-108390630D01*
X151606595Y-108394731D01*
X151660875Y-108456626D01*
X151670830Y-108462088D01*
X151676123Y-108461035D01*
X153127306Y-107009851D01*
X153131693Y-107000443D01*
X153707894Y-107000443D01*
X153709580Y-107006737D01*
X155160090Y-108457248D01*
X155170384Y-108462048D01*
X155175595Y-108460652D01*
X155233405Y-108394731D01*
X155236552Y-108390630D01*
X155399941Y-108146102D01*
X155402523Y-108141629D01*
X155532597Y-107877864D01*
X155534577Y-107873085D01*
X155629106Y-107594612D01*
X155630447Y-107589606D01*
X155687821Y-107301168D01*
X155688495Y-107296051D01*
X155707730Y-107002578D01*
X155707730Y-106997422D01*
X155688495Y-106703949D01*
X155687821Y-106698832D01*
X155630447Y-106410394D01*
X155629106Y-106405388D01*
X155534577Y-106126915D01*
X155532597Y-106122136D01*
X155402523Y-105858371D01*
X155399941Y-105853898D01*
X155236552Y-105609370D01*
X155233405Y-105605269D01*
X155179125Y-105543374D01*
X155169170Y-105537912D01*
X155163877Y-105538965D01*
X153712694Y-106990149D01*
X153707894Y-107000443D01*
X153131693Y-107000443D01*
X153132106Y-106999557D01*
X153130420Y-106993263D01*
X151679910Y-105542752D01*
X151669616Y-105537952D01*
X151664405Y-105539348D01*
X151606595Y-105605269D01*
X151603448Y-105609370D01*
X151440059Y-105853898D01*
X151437477Y-105858371D01*
X151307403Y-106122136D01*
X151305423Y-106126915D01*
X151210894Y-106405388D01*
X151209553Y-106410394D01*
X151152179Y-106698832D01*
X151151505Y-106703949D01*
X151132270Y-106997422D01*
X151132270Y-107002578D01*
X146707187Y-107002578D01*
X146715090Y-106955600D01*
X146715090Y-106955597D01*
X146715596Y-106952591D01*
X146715750Y-106939990D01*
X146702894Y-106850217D01*
X146713991Y-106797330D01*
X146725235Y-106783157D01*
X146974753Y-106533639D01*
X147023729Y-106510801D01*
X147030614Y-106510500D01*
X147335500Y-106510500D01*
X147386280Y-106528982D01*
X147413300Y-106575782D01*
X147414500Y-106589500D01*
X147414500Y-106785806D01*
X147415258Y-106789616D01*
X147418641Y-106806621D01*
X147423813Y-106832624D01*
X147459286Y-106885714D01*
X147512376Y-106921187D01*
X147520005Y-106922705D01*
X147520006Y-106922705D01*
X147543941Y-106927466D01*
X147559194Y-106930500D01*
X148560806Y-106930500D01*
X148576059Y-106927466D01*
X148599994Y-106922705D01*
X148599995Y-106922705D01*
X148607624Y-106921187D01*
X148660714Y-106885714D01*
X148696187Y-106832624D01*
X148701360Y-106806621D01*
X148704742Y-106789616D01*
X148705500Y-106785806D01*
X148705500Y-105834194D01*
X148696187Y-105787376D01*
X148660714Y-105734286D01*
X148607624Y-105698813D01*
X148599995Y-105697295D01*
X148599994Y-105697295D01*
X148576059Y-105692534D01*
X148560806Y-105689500D01*
X147559194Y-105689500D01*
X147543941Y-105692534D01*
X147520006Y-105697295D01*
X147520005Y-105697295D01*
X147512376Y-105698813D01*
X147459286Y-105734286D01*
X147423813Y-105787376D01*
X147414500Y-105834194D01*
X147414500Y-105910500D01*
X147396018Y-105961280D01*
X147349218Y-105988300D01*
X147335500Y-105989500D01*
X146923425Y-105989500D01*
X146908013Y-105987982D01*
X146897621Y-105985915D01*
X146889990Y-105984397D01*
X146882359Y-105985915D01*
X146864336Y-105989500D01*
X146795978Y-106003097D01*
X146795977Y-106003098D01*
X146788348Y-106004615D01*
X146702180Y-106062190D01*
X146697859Y-106068657D01*
X146691967Y-106077475D01*
X146682142Y-106089446D01*
X146359949Y-106411639D01*
X146310973Y-106434477D01*
X146287236Y-106432055D01*
X146287192Y-106432349D01*
X146281622Y-106431517D01*
X146276233Y-106429905D01*
X146203711Y-106429462D01*
X146135630Y-106429046D01*
X146135628Y-106429046D01*
X146130005Y-106429012D01*
X145989404Y-106469196D01*
X145865732Y-106547227D01*
X145862011Y-106551440D01*
X145862010Y-106551441D01*
X145818366Y-106600858D01*
X145768932Y-106656831D01*
X145766540Y-106661926D01*
X145711072Y-106780071D01*
X145706786Y-106789199D01*
X145699017Y-106839094D01*
X145686235Y-106921187D01*
X145684288Y-106933689D01*
X145458619Y-106933689D01*
X145446545Y-106802288D01*
X145445230Y-106795195D01*
X145392321Y-106607592D01*
X145389736Y-106600858D01*
X145303525Y-106426037D01*
X145299754Y-106419884D01*
X145275259Y-106387081D01*
X145265762Y-106380854D01*
X145261482Y-106381361D01*
X144652694Y-106990149D01*
X144647894Y-107000443D01*
X144071693Y-107000443D01*
X144072106Y-106999557D01*
X144070420Y-106993263D01*
X143461865Y-106384708D01*
X143451571Y-106379908D01*
X143447085Y-106381110D01*
X143435748Y-106395490D01*
X143431827Y-106401528D01*
X143341065Y-106574039D01*
X143338304Y-106580703D01*
X143280502Y-106766857D01*
X143279002Y-106773919D01*
X143256092Y-106967481D01*
X143255903Y-106974698D01*
X143082908Y-106974698D01*
X143066051Y-106802777D01*
X143064407Y-106797330D01*
X143009891Y-106616765D01*
X143008774Y-106613065D01*
X143006963Y-106609660D01*
X143006961Y-106609654D01*
X142917551Y-106441500D01*
X142915739Y-106438092D01*
X142911056Y-106432349D01*
X142792930Y-106287514D01*
X142790490Y-106284522D01*
X142778415Y-106274532D01*
X142640773Y-106160665D01*
X142640772Y-106160664D01*
X142637798Y-106158204D01*
X142619979Y-106148569D01*
X142535497Y-106102890D01*
X142518314Y-106093599D01*
X143739556Y-106093599D01*
X143739589Y-106096135D01*
X143740706Y-106097863D01*
X144350149Y-106707306D01*
X144360443Y-106712106D01*
X144366737Y-106710420D01*
X144974267Y-106102890D01*
X144986016Y-106077694D01*
X145024228Y-106039483D01*
X145078061Y-106034773D01*
X145088799Y-106038497D01*
X145160287Y-106069211D01*
X145167161Y-106071444D01*
X145357274Y-106114463D01*
X145364425Y-106115404D01*
X145559191Y-106123057D01*
X145566408Y-106122678D01*
X145759304Y-106094710D01*
X145766321Y-106093025D01*
X145950896Y-106030371D01*
X145957488Y-106027436D01*
X146123298Y-105934577D01*
X146126745Y-105928671D01*
X146125900Y-105923743D01*
X145514851Y-105312694D01*
X145504557Y-105307894D01*
X145498263Y-105309580D01*
X144891290Y-105916553D01*
X144879188Y-105942506D01*
X144840976Y-105980717D01*
X144787143Y-105985427D01*
X144778316Y-105982495D01*
X144677121Y-105942122D01*
X144670200Y-105940072D01*
X144479024Y-105902045D01*
X144471854Y-105901292D01*
X144276952Y-105898739D01*
X144269752Y-105899306D01*
X144077653Y-105932315D01*
X144070675Y-105934185D01*
X143887805Y-106001649D01*
X143881298Y-106004753D01*
X143746742Y-106084805D01*
X143739556Y-106093599D01*
X142518314Y-106093599D01*
X142463479Y-106063950D01*
X142442500Y-106057456D01*
X142386139Y-106040009D01*
X142343095Y-106007337D01*
X142330500Y-105964542D01*
X142330500Y-105757793D01*
X142348982Y-105707013D01*
X142395782Y-105679993D01*
X142449000Y-105689377D01*
X142471411Y-105708721D01*
X142482194Y-105722326D01*
X142482198Y-105722331D01*
X142484590Y-105725348D01*
X142635504Y-105853786D01*
X142808490Y-105950465D01*
X142812152Y-105951655D01*
X142812157Y-105951657D01*
X142924935Y-105988300D01*
X142996960Y-106011702D01*
X143000797Y-106012160D01*
X143000799Y-106012160D01*
X143189892Y-106034708D01*
X143189895Y-106034708D01*
X143193735Y-106035166D01*
X143391320Y-106019963D01*
X143582190Y-105966671D01*
X143710128Y-105902045D01*
X143755619Y-105879066D01*
X143755621Y-105879065D01*
X143759073Y-105877321D01*
X143874197Y-105787376D01*
X143912190Y-105757693D01*
X143912192Y-105757691D01*
X143915232Y-105755316D01*
X143964004Y-105698813D01*
X144042196Y-105608228D01*
X144042200Y-105608223D01*
X144044720Y-105605303D01*
X144046626Y-105601947D01*
X144046630Y-105601942D01*
X144123914Y-105465896D01*
X144142604Y-105432996D01*
X144143824Y-105429329D01*
X144203935Y-105248630D01*
X144203936Y-105248625D01*
X144205156Y-105244958D01*
X144229993Y-105048351D01*
X144230389Y-105020000D01*
X144227908Y-104994698D01*
X144400903Y-104994698D01*
X144413651Y-105189201D01*
X144414780Y-105196328D01*
X144462759Y-105385243D01*
X144465172Y-105392057D01*
X144546774Y-105569068D01*
X144550377Y-105575308D01*
X144590567Y-105632176D01*
X144599897Y-105638648D01*
X144603875Y-105638282D01*
X145212306Y-105029851D01*
X145216693Y-105020443D01*
X145792894Y-105020443D01*
X145794580Y-105026737D01*
X146404726Y-105636883D01*
X146415020Y-105641683D01*
X146418151Y-105640844D01*
X146512436Y-105472488D01*
X146515371Y-105465896D01*
X146578025Y-105281321D01*
X146579710Y-105274304D01*
X146607864Y-105080127D01*
X146608260Y-105075486D01*
X146609652Y-105022327D01*
X146609500Y-105017685D01*
X146591545Y-104822288D01*
X146590230Y-104815195D01*
X146537321Y-104627592D01*
X146534736Y-104620858D01*
X146448525Y-104446037D01*
X146444754Y-104439884D01*
X146420259Y-104407081D01*
X146410762Y-104400854D01*
X146406482Y-104401361D01*
X145797694Y-105010149D01*
X145792894Y-105020443D01*
X145216693Y-105020443D01*
X145217106Y-105019557D01*
X145215420Y-105013263D01*
X144606865Y-104404708D01*
X144596571Y-104399908D01*
X144592085Y-104401110D01*
X144580748Y-104415490D01*
X144576827Y-104421528D01*
X144486065Y-104594039D01*
X144483304Y-104600703D01*
X144425502Y-104786857D01*
X144424002Y-104793919D01*
X144401092Y-104987481D01*
X144400903Y-104994698D01*
X144227908Y-104994698D01*
X144211051Y-104822777D01*
X144153774Y-104633065D01*
X144151963Y-104629660D01*
X144151961Y-104629654D01*
X144062551Y-104461500D01*
X144060739Y-104458092D01*
X144053919Y-104449729D01*
X143941548Y-104311950D01*
X143935490Y-104304522D01*
X143923415Y-104294532D01*
X143785773Y-104180665D01*
X143785772Y-104180664D01*
X143782798Y-104178204D01*
X143764979Y-104168569D01*
X143675037Y-104119938D01*
X143663313Y-104113599D01*
X144884556Y-104113599D01*
X144884589Y-104116135D01*
X144885706Y-104117863D01*
X145495149Y-104727306D01*
X145505443Y-104732106D01*
X145511737Y-104730420D01*
X146119266Y-104122891D01*
X146124066Y-104112597D01*
X146123264Y-104109605D01*
X146122466Y-104108843D01*
X146009590Y-104037625D01*
X146003167Y-104034353D01*
X145822121Y-103962122D01*
X145815200Y-103960072D01*
X145624024Y-103922045D01*
X145616854Y-103921292D01*
X145421952Y-103918739D01*
X145414752Y-103919306D01*
X145222653Y-103952315D01*
X145215675Y-103954185D01*
X145032805Y-104021649D01*
X145026298Y-104024753D01*
X144891742Y-104104805D01*
X144884556Y-104113599D01*
X143663313Y-104113599D01*
X143608479Y-104083950D01*
X143419172Y-104025350D01*
X143222089Y-104004636D01*
X143218243Y-104004986D01*
X143218242Y-104004986D01*
X143170487Y-104009332D01*
X143024735Y-104022596D01*
X143021028Y-104023687D01*
X142838338Y-104077456D01*
X142838335Y-104077457D01*
X142834629Y-104078548D01*
X142659010Y-104170359D01*
X142656003Y-104172777D01*
X142656001Y-104172778D01*
X142647346Y-104179737D01*
X142504570Y-104294532D01*
X142471000Y-104334540D01*
X142470018Y-104335710D01*
X142423219Y-104362730D01*
X142370000Y-104353346D01*
X142335264Y-104311950D01*
X142330500Y-104284930D01*
X142330500Y-103140624D01*
X142348982Y-103089844D01*
X142353639Y-103084763D01*
X142743438Y-102694965D01*
X143150557Y-102287846D01*
X143162528Y-102278021D01*
X143171343Y-102272131D01*
X143177810Y-102267810D01*
X143235385Y-102181642D01*
X143250500Y-102105654D01*
X143255603Y-102080000D01*
X143252018Y-102061977D01*
X143250500Y-102046565D01*
X143250500Y-98123440D01*
X143252018Y-98108027D01*
X143254086Y-98097631D01*
X143255604Y-98090000D01*
X143252461Y-98074201D01*
X143238681Y-98004926D01*
X143238680Y-98004925D01*
X143235385Y-97988359D01*
X143235385Y-97988358D01*
X143177810Y-97902190D01*
X143162528Y-97891979D01*
X143150557Y-97882154D01*
X142117848Y-96849446D01*
X142108023Y-96837475D01*
X142102131Y-96828657D01*
X142097810Y-96822190D01*
X142011642Y-96764615D01*
X142004013Y-96763098D01*
X142004012Y-96763097D01*
X141935654Y-96749500D01*
X141917631Y-96745915D01*
X141910000Y-96744397D01*
X141902369Y-96745915D01*
X141891977Y-96747982D01*
X141876565Y-96749500D01*
X139450625Y-96749500D01*
X139399845Y-96731018D01*
X139394764Y-96726361D01*
X139253764Y-96585361D01*
X139230926Y-96536385D01*
X139244912Y-96484187D01*
X139289178Y-96453192D01*
X139309625Y-96450500D01*
X139906270Y-96450499D01*
X140136606Y-96450499D01*
X140151659Y-96448678D01*
X140218898Y-96440542D01*
X140218901Y-96440541D01*
X140223936Y-96439932D01*
X140360351Y-96385922D01*
X140477216Y-96297216D01*
X140505336Y-96260169D01*
X140562668Y-96184638D01*
X140565922Y-96180351D01*
X140585374Y-96131221D01*
X140618063Y-96048657D01*
X140618064Y-96048655D01*
X140619932Y-96043936D01*
X140622658Y-96021415D01*
X140629002Y-95968982D01*
X140630500Y-95956607D01*
X140630499Y-95123394D01*
X140619932Y-95036064D01*
X140565922Y-94899649D01*
X140545051Y-94872152D01*
X140480467Y-94787067D01*
X140477216Y-94782784D01*
X140360351Y-94694078D01*
X140223936Y-94640068D01*
X140218901Y-94639459D01*
X140218898Y-94639458D01*
X140165520Y-94632999D01*
X140136607Y-94629500D01*
X140049500Y-94629500D01*
X139998720Y-94611018D01*
X139971700Y-94564218D01*
X139970500Y-94550500D01*
X139970500Y-92620624D01*
X139988982Y-92569844D01*
X139993639Y-92564763D01*
X140984763Y-91573639D01*
X141033739Y-91550801D01*
X141040624Y-91550500D01*
X142339376Y-91550500D01*
X142390156Y-91568982D01*
X142395237Y-91573639D01*
X143612152Y-92790554D01*
X143621977Y-92802525D01*
X143632190Y-92817810D01*
X143718358Y-92875385D01*
X143725987Y-92876902D01*
X143725988Y-92876903D01*
X143812369Y-92894085D01*
X143820000Y-92895603D01*
X143827631Y-92894085D01*
X143838023Y-92892018D01*
X143853435Y-92890500D01*
X146469376Y-92890500D01*
X146520156Y-92908982D01*
X146525237Y-92913639D01*
X148776361Y-95164763D01*
X148799199Y-95213739D01*
X148799500Y-95220624D01*
X148799500Y-96256565D01*
X148797982Y-96271977D01*
X148794397Y-96290000D01*
X148795915Y-96297631D01*
X148799500Y-96315654D01*
X148808222Y-96359500D01*
X148814615Y-96391642D01*
X148872190Y-96477810D01*
X148878657Y-96482131D01*
X148887475Y-96488023D01*
X148899446Y-96497848D01*
X149492154Y-97090557D01*
X149501979Y-97102528D01*
X149512190Y-97117810D01*
X149598358Y-97175385D01*
X149605987Y-97176902D01*
X149605988Y-97176903D01*
X149610549Y-97177810D01*
X149700000Y-97195604D01*
X149707631Y-97194086D01*
X149718027Y-97192018D01*
X149733440Y-97190500D01*
X153869376Y-97190500D01*
X153920156Y-97208982D01*
X153925237Y-97213639D01*
X154976361Y-98264763D01*
X154999199Y-98313739D01*
X154999500Y-98320624D01*
X154999500Y-102909375D01*
X154981018Y-102960155D01*
X154976361Y-102965236D01*
X153815237Y-104126361D01*
X153766261Y-104149199D01*
X153759376Y-104149500D01*
X151432644Y-104149500D01*
X151381864Y-104131018D01*
X151354844Y-104084218D01*
X151353644Y-104070500D01*
X151353644Y-103729776D01*
X151354739Y-103716670D01*
X151356112Y-103708509D01*
X151356113Y-103708503D01*
X151356367Y-103706992D01*
X151358623Y-103681844D01*
X151358774Y-103669502D01*
X151357133Y-103644301D01*
X151336829Y-103502524D01*
X151323807Y-103457991D01*
X151322644Y-103455433D01*
X151322641Y-103455425D01*
X151274242Y-103348979D01*
X151270049Y-103295103D01*
X151301468Y-103251136D01*
X151353797Y-103237651D01*
X151402018Y-103260420D01*
X151852152Y-103710554D01*
X151861977Y-103722525D01*
X151872190Y-103737810D01*
X151958358Y-103795385D01*
X151965987Y-103796902D01*
X151965988Y-103796903D01*
X152052369Y-103814085D01*
X152060000Y-103815603D01*
X152067631Y-103814085D01*
X152078023Y-103812018D01*
X152093435Y-103810500D01*
X153256565Y-103810500D01*
X153271978Y-103812018D01*
X153290000Y-103815603D01*
X153297631Y-103814085D01*
X153315654Y-103810500D01*
X153384012Y-103796903D01*
X153384013Y-103796902D01*
X153391642Y-103795385D01*
X153477810Y-103737810D01*
X153488023Y-103722525D01*
X153497846Y-103710556D01*
X153810560Y-103397843D01*
X153822531Y-103388019D01*
X153831343Y-103382131D01*
X153837810Y-103377810D01*
X153895385Y-103291642D01*
X153897753Y-103279741D01*
X153899690Y-103270000D01*
X153914086Y-103197631D01*
X153915604Y-103190000D01*
X153912018Y-103171973D01*
X153910500Y-103156560D01*
X153910500Y-103007881D01*
X153928982Y-102957101D01*
X153957240Y-102935768D01*
X153993588Y-102919509D01*
X154114716Y-102843083D01*
X154150050Y-102813011D01*
X154244858Y-102705660D01*
X154270331Y-102666882D01*
X154331200Y-102537237D01*
X154344766Y-102492865D01*
X154346427Y-102482196D01*
X154366369Y-102354117D01*
X154366369Y-102354113D01*
X154366800Y-102351347D01*
X154367367Y-102304953D01*
X154364311Y-102281582D01*
X154363644Y-102271339D01*
X154363644Y-101877733D01*
X154364584Y-101865580D01*
X154366369Y-101854118D01*
X154366370Y-101854110D01*
X154366800Y-101851346D01*
X154367367Y-101804953D01*
X154348797Y-101662939D01*
X154336319Y-101618249D01*
X154278636Y-101487156D01*
X154254118Y-101447767D01*
X154173554Y-101351924D01*
X154163771Y-101340285D01*
X154163769Y-101340283D01*
X154161961Y-101338132D01*
X154153869Y-101330897D01*
X154129463Y-101309075D01*
X154129458Y-101309071D01*
X154127372Y-101307206D01*
X154125043Y-101305656D01*
X154125037Y-101305651D01*
X154034498Y-101245384D01*
X154008147Y-101227843D01*
X153991111Y-101219717D01*
X153968803Y-101209076D01*
X153968795Y-101209073D01*
X153966269Y-101207868D01*
X153963594Y-101207032D01*
X153960968Y-101206002D01*
X153961586Y-101204428D01*
X153923003Y-101175011D01*
X153910500Y-101132360D01*
X153910500Y-99058349D01*
X153928982Y-99007569D01*
X153975782Y-98980549D01*
X153990947Y-98979362D01*
X154118120Y-98981692D01*
X154118121Y-98981692D01*
X154123747Y-98981795D01*
X154264829Y-98943332D01*
X154389445Y-98866818D01*
X154393218Y-98862650D01*
X154393220Y-98862648D01*
X154483799Y-98762577D01*
X154483800Y-98762576D01*
X154487576Y-98758404D01*
X154524604Y-98681979D01*
X154548881Y-98631870D01*
X154551335Y-98626805D01*
X154555922Y-98599545D01*
X154575090Y-98485610D01*
X154575090Y-98485607D01*
X154575596Y-98482601D01*
X154575750Y-98470000D01*
X154558565Y-98350000D01*
X154555818Y-98330816D01*
X154555817Y-98330814D01*
X154555020Y-98325246D01*
X154543685Y-98300316D01*
X154496827Y-98197257D01*
X154496826Y-98197255D01*
X154494495Y-98192129D01*
X154490820Y-98187864D01*
X154490818Y-98187861D01*
X154402716Y-98085615D01*
X154399041Y-98081350D01*
X154353517Y-98051843D01*
X154281054Y-98004874D01*
X154281051Y-98004872D01*
X154276332Y-98001814D01*
X154195554Y-97977656D01*
X154141621Y-97961526D01*
X154141619Y-97961526D01*
X154136233Y-97959915D01*
X154063711Y-97959472D01*
X153995630Y-97959056D01*
X153995628Y-97959056D01*
X153990005Y-97959022D01*
X153849404Y-97999206D01*
X153802974Y-98028501D01*
X153730544Y-98074201D01*
X153725732Y-98077237D01*
X153722011Y-98081450D01*
X153722010Y-98081451D01*
X153718003Y-98085988D01*
X153628932Y-98186841D01*
X153566786Y-98319209D01*
X153544288Y-98463699D01*
X153545018Y-98469280D01*
X153557006Y-98560958D01*
X153545264Y-98613706D01*
X153534535Y-98627062D01*
X153489444Y-98672154D01*
X153477472Y-98681979D01*
X153462190Y-98692190D01*
X153417948Y-98758404D01*
X153404615Y-98778358D01*
X153384397Y-98880000D01*
X153385915Y-98887631D01*
X153387982Y-98898023D01*
X153389500Y-98913435D01*
X153389500Y-101077356D01*
X153371018Y-101128136D01*
X153324218Y-101155156D01*
X153310500Y-101156356D01*
X153200000Y-101156356D01*
X153179608Y-101160412D01*
X153145006Y-101167295D01*
X153145005Y-101167296D01*
X153137376Y-101168813D01*
X153130906Y-101173136D01*
X153093890Y-101197869D01*
X153041399Y-101210713D01*
X153006110Y-101197869D01*
X152969094Y-101173136D01*
X152962624Y-101168813D01*
X152954995Y-101167296D01*
X152954994Y-101167295D01*
X152920392Y-101160412D01*
X152900000Y-101156356D01*
X152609500Y-101156356D01*
X152558720Y-101137874D01*
X152531700Y-101091074D01*
X152530500Y-101077356D01*
X152530500Y-100973347D01*
X152548982Y-100922567D01*
X152568165Y-100906024D01*
X152594649Y-100889763D01*
X152594650Y-100889762D01*
X152599445Y-100886818D01*
X152603218Y-100882650D01*
X152603220Y-100882648D01*
X152693799Y-100782577D01*
X152693800Y-100782576D01*
X152697576Y-100778404D01*
X152712888Y-100746801D01*
X152758881Y-100651870D01*
X152761335Y-100646805D01*
X152762594Y-100639326D01*
X152785090Y-100505610D01*
X152785090Y-100505607D01*
X152785596Y-100502601D01*
X152785672Y-100496369D01*
X152785713Y-100493052D01*
X152785713Y-100493048D01*
X152785750Y-100490000D01*
X152780271Y-100451741D01*
X152791368Y-100398854D01*
X152814583Y-100374856D01*
X152844247Y-100355035D01*
X152850714Y-100350714D01*
X152867694Y-100325302D01*
X152881864Y-100304094D01*
X152886187Y-100297624D01*
X152888094Y-100288040D01*
X152894742Y-100254616D01*
X152895500Y-100250806D01*
X152895500Y-99429194D01*
X152886187Y-99382376D01*
X152850714Y-99329286D01*
X152797624Y-99293813D01*
X152789995Y-99292295D01*
X152789994Y-99292295D01*
X152766059Y-99287534D01*
X152750806Y-99284500D01*
X151789194Y-99284500D01*
X151773941Y-99287534D01*
X151750006Y-99292295D01*
X151750005Y-99292295D01*
X151742376Y-99293813D01*
X151689286Y-99329286D01*
X151653813Y-99382376D01*
X151644500Y-99429194D01*
X151644500Y-100250806D01*
X151645258Y-100254616D01*
X151651907Y-100288040D01*
X151653813Y-100297624D01*
X151658136Y-100304094D01*
X151672306Y-100325302D01*
X151689286Y-100350714D01*
X151695753Y-100355035D01*
X151724991Y-100374571D01*
X151756945Y-100418150D01*
X151759160Y-100452410D01*
X151754288Y-100483699D01*
X151755018Y-100489280D01*
X151772270Y-100621205D01*
X151773249Y-100628695D01*
X151832143Y-100762542D01*
X151835765Y-100766851D01*
X151840578Y-100772577D01*
X151926236Y-100874479D01*
X151974275Y-100906457D01*
X152006305Y-100949980D01*
X152009500Y-100972219D01*
X152009500Y-101219717D01*
X151991018Y-101270497D01*
X151945917Y-101297198D01*
X151941982Y-101297981D01*
X151926565Y-101299500D01*
X148630340Y-101299500D01*
X148579560Y-101281018D01*
X148552858Y-101235912D01*
X148547705Y-101210007D01*
X148547705Y-101210006D01*
X148546187Y-101202376D01*
X148510714Y-101149286D01*
X148457624Y-101113813D01*
X148449995Y-101112295D01*
X148449994Y-101112295D01*
X148426059Y-101107534D01*
X148410806Y-101104500D01*
X147753600Y-101104500D01*
X147702820Y-101086018D01*
X147675800Y-101039218D01*
X147685184Y-100986000D01*
X147726580Y-100951264D01*
X147732821Y-100949282D01*
X147749397Y-100944763D01*
X147749398Y-100944763D01*
X147754829Y-100943282D01*
X147866886Y-100874479D01*
X147874652Y-100869711D01*
X147879445Y-100866768D01*
X147883218Y-100862600D01*
X147883220Y-100862598D01*
X147973799Y-100762527D01*
X147973800Y-100762526D01*
X147977576Y-100758354D01*
X148041335Y-100626755D01*
X148045321Y-100603066D01*
X148065090Y-100485560D01*
X148065090Y-100485557D01*
X148065596Y-100482551D01*
X148065750Y-100469950D01*
X148063765Y-100456087D01*
X148074862Y-100403200D01*
X148098077Y-100379203D01*
X148134247Y-100355035D01*
X148140714Y-100350714D01*
X148157694Y-100325302D01*
X148171864Y-100304094D01*
X148176187Y-100297624D01*
X148178094Y-100288040D01*
X148184742Y-100254616D01*
X148185500Y-100250806D01*
X149384500Y-100250806D01*
X149385258Y-100254616D01*
X149391907Y-100288040D01*
X149393813Y-100297624D01*
X149398136Y-100304094D01*
X149412306Y-100325302D01*
X149429286Y-100350714D01*
X149435753Y-100355035D01*
X149464991Y-100374571D01*
X149496945Y-100418150D01*
X149499160Y-100452410D01*
X149494288Y-100483699D01*
X149495018Y-100489280D01*
X149512270Y-100621205D01*
X149513249Y-100628695D01*
X149572143Y-100762542D01*
X149575765Y-100766851D01*
X149580578Y-100772577D01*
X149666236Y-100874479D01*
X149787964Y-100955508D01*
X149793338Y-100957187D01*
X149904109Y-100991795D01*
X149927541Y-100999116D01*
X149977056Y-101000023D01*
X150068120Y-101001692D01*
X150068121Y-101001692D01*
X150073747Y-101001795D01*
X150214829Y-100963332D01*
X150339445Y-100886818D01*
X150343218Y-100882650D01*
X150343220Y-100882648D01*
X150433799Y-100782577D01*
X150433800Y-100782576D01*
X150437576Y-100778404D01*
X150452888Y-100746801D01*
X150498881Y-100651870D01*
X150501335Y-100646805D01*
X150502594Y-100639326D01*
X150525090Y-100505610D01*
X150525090Y-100505607D01*
X150525596Y-100502601D01*
X150525672Y-100496369D01*
X150525713Y-100493052D01*
X150525713Y-100493048D01*
X150525750Y-100490000D01*
X150520271Y-100451741D01*
X150531368Y-100398854D01*
X150554583Y-100374856D01*
X150584247Y-100355035D01*
X150590714Y-100350714D01*
X150607694Y-100325302D01*
X150621864Y-100304094D01*
X150626187Y-100297624D01*
X150628094Y-100288040D01*
X150634742Y-100254616D01*
X150635500Y-100250806D01*
X150635500Y-99429194D01*
X150626187Y-99382376D01*
X150590714Y-99329286D01*
X150537624Y-99293813D01*
X150529995Y-99292295D01*
X150529994Y-99292295D01*
X150506059Y-99287534D01*
X150490806Y-99284500D01*
X149529194Y-99284500D01*
X149513941Y-99287534D01*
X149490006Y-99292295D01*
X149490005Y-99292295D01*
X149482376Y-99293813D01*
X149429286Y-99329286D01*
X149393813Y-99382376D01*
X149384500Y-99429194D01*
X149384500Y-100250806D01*
X148185500Y-100250806D01*
X148185500Y-99429194D01*
X148176187Y-99382376D01*
X148140714Y-99329286D01*
X148087624Y-99293813D01*
X148079995Y-99292295D01*
X148079994Y-99292295D01*
X148056059Y-99287534D01*
X148040806Y-99284500D01*
X147079194Y-99284500D01*
X147063941Y-99287534D01*
X147040006Y-99292295D01*
X147040005Y-99292295D01*
X147032376Y-99293813D01*
X146979286Y-99329286D01*
X146943813Y-99382376D01*
X146934500Y-99429194D01*
X146934500Y-100250806D01*
X146935258Y-100254616D01*
X146941907Y-100288040D01*
X146943813Y-100297624D01*
X146948136Y-100304094D01*
X146962306Y-100325302D01*
X146979286Y-100350714D01*
X147003105Y-100366629D01*
X147035059Y-100410208D01*
X147037275Y-100444467D01*
X147034288Y-100463649D01*
X147035018Y-100469230D01*
X147048396Y-100571532D01*
X147053249Y-100608645D01*
X147112143Y-100742492D01*
X147206236Y-100854429D01*
X147327964Y-100935458D01*
X147333338Y-100937137D01*
X147375748Y-100950387D01*
X147467541Y-100979066D01*
X147475761Y-100979217D01*
X147484610Y-100979379D01*
X147535043Y-100998790D01*
X147561200Y-101046077D01*
X147550842Y-101099114D01*
X147527052Y-101124052D01*
X147489286Y-101149286D01*
X147453813Y-101202376D01*
X147452295Y-101210005D01*
X147452295Y-101210006D01*
X147448987Y-101226636D01*
X147444500Y-101249194D01*
X147444500Y-102210806D01*
X147453813Y-102257624D01*
X147489286Y-102310714D01*
X147542376Y-102346187D01*
X147550005Y-102347705D01*
X147550006Y-102347705D01*
X147568316Y-102351347D01*
X147589194Y-102355500D01*
X148410806Y-102355500D01*
X148431684Y-102351347D01*
X148449994Y-102347705D01*
X148449995Y-102347705D01*
X148457624Y-102346187D01*
X148510714Y-102310714D01*
X148546187Y-102257624D01*
X148555500Y-102210806D01*
X148555500Y-101899500D01*
X148573982Y-101848720D01*
X148620782Y-101821700D01*
X148634500Y-101820500D01*
X151657356Y-101820500D01*
X151708136Y-101838982D01*
X151735156Y-101885782D01*
X151736356Y-101899500D01*
X151736356Y-102257724D01*
X151735261Y-102270830D01*
X151734051Y-102278021D01*
X151733633Y-102280508D01*
X151731377Y-102305656D01*
X151731226Y-102317998D01*
X151732867Y-102343199D01*
X151753171Y-102484976D01*
X151753958Y-102487666D01*
X151753958Y-102487668D01*
X151756264Y-102495552D01*
X151766193Y-102529509D01*
X151767356Y-102532067D01*
X151767359Y-102532075D01*
X151803154Y-102610801D01*
X151825473Y-102659888D01*
X151850471Y-102698976D01*
X151852302Y-102701101D01*
X151852305Y-102701105D01*
X151916832Y-102775992D01*
X151943961Y-102807477D01*
X151946076Y-102809322D01*
X151946078Y-102809324D01*
X151950305Y-102813011D01*
X151978925Y-102837978D01*
X151981272Y-102839499D01*
X151981273Y-102839500D01*
X152096758Y-102914354D01*
X152096763Y-102914357D01*
X152099110Y-102915878D01*
X152101656Y-102917054D01*
X152101657Y-102917055D01*
X152138688Y-102934166D01*
X152138695Y-102934169D01*
X152141230Y-102935340D01*
X152143910Y-102936141D01*
X152143914Y-102936143D01*
X152213995Y-102957101D01*
X152278448Y-102976376D01*
X152281232Y-102976792D01*
X152281236Y-102976793D01*
X152321557Y-102982819D01*
X152321560Y-102982819D01*
X152324335Y-102983234D01*
X152401128Y-102983703D01*
X152464755Y-102984092D01*
X152464757Y-102984092D01*
X152467556Y-102984109D01*
X152469939Y-102983783D01*
X152474202Y-102983644D01*
X152900000Y-102983644D01*
X152920392Y-102979588D01*
X152954994Y-102972705D01*
X152954995Y-102972704D01*
X152962624Y-102971187D01*
X152971531Y-102965236D01*
X153006110Y-102942131D01*
X153058601Y-102929287D01*
X153093890Y-102942131D01*
X153128470Y-102965236D01*
X153137376Y-102971187D01*
X153145005Y-102972704D01*
X153145006Y-102972705D01*
X153179608Y-102979588D01*
X153200000Y-102983644D01*
X153297230Y-102983644D01*
X153348010Y-103002126D01*
X153375030Y-103048926D01*
X153365646Y-103102144D01*
X153353092Y-103118505D01*
X153205237Y-103266361D01*
X153156261Y-103289199D01*
X153149375Y-103289500D01*
X152200624Y-103289500D01*
X152149844Y-103271018D01*
X152144763Y-103266361D01*
X151067848Y-102189446D01*
X151058023Y-102177475D01*
X151052131Y-102168657D01*
X151047810Y-102162190D01*
X150961642Y-102104615D01*
X150954013Y-102103098D01*
X150954012Y-102103097D01*
X150885654Y-102089500D01*
X150867631Y-102085915D01*
X150860000Y-102084397D01*
X150852369Y-102085915D01*
X150841977Y-102087982D01*
X150826565Y-102089500D01*
X149763440Y-102089500D01*
X149748027Y-102087982D01*
X149737631Y-102085914D01*
X149730000Y-102084396D01*
X149722369Y-102085914D01*
X149704343Y-102089500D01*
X149644091Y-102101486D01*
X149644091Y-102101485D01*
X149644089Y-102101486D01*
X149628358Y-102104615D01*
X149542190Y-102162190D01*
X149537869Y-102168657D01*
X149531981Y-102177469D01*
X149522157Y-102189440D01*
X149219444Y-102492154D01*
X149207472Y-102501979D01*
X149192190Y-102512190D01*
X149134615Y-102598358D01*
X149114397Y-102700000D01*
X149115915Y-102707631D01*
X149117982Y-102718023D01*
X149119500Y-102733435D01*
X149119500Y-102928000D01*
X149101018Y-102978780D01*
X149054218Y-103005800D01*
X149040500Y-103007000D01*
X148874194Y-103007000D01*
X148861782Y-103009469D01*
X148835006Y-103014795D01*
X148835005Y-103014795D01*
X148827376Y-103016313D01*
X148808890Y-103028665D01*
X148756400Y-103041509D01*
X148721110Y-103028665D01*
X148702624Y-103016313D01*
X148694995Y-103014796D01*
X148694994Y-103014795D01*
X148658978Y-103007631D01*
X148640000Y-103003856D01*
X148098875Y-103003856D01*
X148098392Y-103003855D01*
X148025252Y-103003408D01*
X148025250Y-103003408D01*
X148022444Y-103003391D01*
X147996258Y-103006978D01*
X147979261Y-103009306D01*
X147979256Y-103009307D01*
X147976475Y-103009688D01*
X147968627Y-103011931D01*
X147841463Y-103048274D01*
X147841460Y-103048275D01*
X147838766Y-103049045D01*
X147796412Y-103067991D01*
X147675284Y-103144417D01*
X147639950Y-103174489D01*
X147545142Y-103281840D01*
X147519669Y-103320618D01*
X147518476Y-103323158D01*
X147518472Y-103323166D01*
X147509768Y-103341706D01*
X147471457Y-103379818D01*
X147417611Y-103384388D01*
X147382396Y-103363994D01*
X147117848Y-103099446D01*
X147108023Y-103087475D01*
X147102131Y-103078657D01*
X147097810Y-103072190D01*
X147011642Y-103014615D01*
X147004013Y-103013098D01*
X147004012Y-103013097D01*
X146957553Y-103003856D01*
X146935654Y-102999500D01*
X146910000Y-102994397D01*
X146902369Y-102995915D01*
X146891977Y-102997982D01*
X146876565Y-102999500D01*
X144283526Y-102999500D01*
X144232746Y-102981018D01*
X144227665Y-102976362D01*
X144183639Y-102932337D01*
X144160801Y-102883361D01*
X144160500Y-102876475D01*
X144160500Y-100250806D01*
X144504500Y-100250806D01*
X144505258Y-100254616D01*
X144511907Y-100288040D01*
X144513813Y-100297624D01*
X144518136Y-100304094D01*
X144532306Y-100325302D01*
X144549286Y-100350714D01*
X144601696Y-100385733D01*
X144633650Y-100429310D01*
X144635865Y-100463572D01*
X144634288Y-100473699D01*
X144638196Y-100503584D01*
X144651935Y-100608645D01*
X144653249Y-100618695D01*
X144712143Y-100752542D01*
X144715765Y-100756851D01*
X144724171Y-100766851D01*
X144806236Y-100864479D01*
X144927964Y-100945508D01*
X144933338Y-100947187D01*
X145057568Y-100986000D01*
X145067541Y-100989116D01*
X145117056Y-100990023D01*
X145208120Y-100991692D01*
X145208121Y-100991692D01*
X145213747Y-100991795D01*
X145354829Y-100953332D01*
X145479445Y-100876818D01*
X145483218Y-100872650D01*
X145483220Y-100872648D01*
X145573799Y-100772577D01*
X145573800Y-100772576D01*
X145577576Y-100768404D01*
X145587451Y-100748023D01*
X145638881Y-100641870D01*
X145641335Y-100636805D01*
X145642700Y-100628695D01*
X145665090Y-100495610D01*
X145665090Y-100495607D01*
X145665596Y-100492601D01*
X145665750Y-100480000D01*
X145659831Y-100438671D01*
X145670928Y-100385784D01*
X145694143Y-100361787D01*
X145710714Y-100350714D01*
X145727694Y-100325302D01*
X145741864Y-100304094D01*
X145746187Y-100297624D01*
X145748094Y-100288040D01*
X145754742Y-100254616D01*
X145755500Y-100250806D01*
X145755500Y-99429194D01*
X145746187Y-99382376D01*
X145710714Y-99329286D01*
X145657624Y-99293813D01*
X145649995Y-99292295D01*
X145649994Y-99292295D01*
X145626059Y-99287534D01*
X145610806Y-99284500D01*
X144649194Y-99284500D01*
X144633941Y-99287534D01*
X144610006Y-99292295D01*
X144610005Y-99292295D01*
X144602376Y-99293813D01*
X144549286Y-99329286D01*
X144513813Y-99382376D01*
X144504500Y-99429194D01*
X144504500Y-100250806D01*
X144160500Y-100250806D01*
X144160500Y-98615738D01*
X144415000Y-98615738D01*
X144415758Y-98623435D01*
X144427987Y-98684915D01*
X144433827Y-98699013D01*
X144480439Y-98768773D01*
X144491227Y-98779561D01*
X144560987Y-98826173D01*
X144575085Y-98832013D01*
X144636565Y-98844242D01*
X144644262Y-98845000D01*
X144916070Y-98845000D01*
X144926741Y-98841116D01*
X144930000Y-98835472D01*
X144930000Y-98831070D01*
X145330000Y-98831070D01*
X145333884Y-98841741D01*
X145339528Y-98845000D01*
X145615738Y-98845000D01*
X145623435Y-98844242D01*
X145684915Y-98832013D01*
X145699013Y-98826173D01*
X145768773Y-98779561D01*
X145779561Y-98768773D01*
X145826173Y-98699013D01*
X145832013Y-98684915D01*
X145844242Y-98623435D01*
X145845000Y-98615738D01*
X145845000Y-98413930D01*
X145841116Y-98403259D01*
X145835472Y-98400000D01*
X145343930Y-98400000D01*
X145333259Y-98403884D01*
X145330000Y-98409528D01*
X145330000Y-98831070D01*
X144930000Y-98831070D01*
X144930000Y-98413930D01*
X144926116Y-98403259D01*
X144920472Y-98400000D01*
X144428930Y-98400000D01*
X144418259Y-98403884D01*
X144415000Y-98409528D01*
X144415000Y-98615738D01*
X144160500Y-98615738D01*
X144160500Y-97986070D01*
X144415000Y-97986070D01*
X144418884Y-97996741D01*
X144424528Y-98000000D01*
X144916070Y-98000000D01*
X144926741Y-97996116D01*
X144930000Y-97990472D01*
X144930000Y-97986070D01*
X145330000Y-97986070D01*
X145333884Y-97996741D01*
X145339528Y-98000000D01*
X145831070Y-98000000D01*
X145841741Y-97996116D01*
X145845000Y-97990472D01*
X145845000Y-97784262D01*
X145844242Y-97776565D01*
X145832013Y-97715085D01*
X145826173Y-97700987D01*
X145779561Y-97631227D01*
X145768773Y-97620439D01*
X145699013Y-97573827D01*
X145684915Y-97567987D01*
X145623435Y-97555758D01*
X145615738Y-97555000D01*
X145343930Y-97555000D01*
X145333259Y-97558884D01*
X145330000Y-97564528D01*
X145330000Y-97986070D01*
X144930000Y-97986070D01*
X144930000Y-97568930D01*
X144926116Y-97558259D01*
X144920472Y-97555000D01*
X144644262Y-97555000D01*
X144636565Y-97555758D01*
X144575085Y-97567987D01*
X144560987Y-97573827D01*
X144491227Y-97620439D01*
X144480439Y-97631227D01*
X144433827Y-97700987D01*
X144427987Y-97715085D01*
X144415758Y-97776565D01*
X144415000Y-97784262D01*
X144415000Y-97986070D01*
X144160500Y-97986070D01*
X144160500Y-97563435D01*
X144162018Y-97548023D01*
X144164085Y-97537631D01*
X144165603Y-97530000D01*
X144160039Y-97502029D01*
X144146903Y-97435988D01*
X144146902Y-97435987D01*
X144145385Y-97428358D01*
X144114918Y-97382761D01*
X144087810Y-97342190D01*
X144072525Y-97331977D01*
X144060554Y-97322152D01*
X143643639Y-96905237D01*
X143620801Y-96856261D01*
X143620500Y-96849376D01*
X143620500Y-96291811D01*
X143638982Y-96241031D01*
X143685782Y-96214011D01*
X143739000Y-96223395D01*
X143762426Y-96244047D01*
X143790569Y-96281123D01*
X143802784Y-96297216D01*
X143919649Y-96385922D01*
X143924655Y-96387904D01*
X144036298Y-96432106D01*
X144056064Y-96439932D01*
X144061099Y-96440541D01*
X144061102Y-96440542D01*
X144114480Y-96447001D01*
X144143393Y-96450500D01*
X144559912Y-96450500D01*
X144976606Y-96450499D01*
X144978968Y-96450213D01*
X144978971Y-96450213D01*
X145050387Y-96441572D01*
X145103019Y-96453821D01*
X145115737Y-96464139D01*
X146076361Y-97424763D01*
X146099199Y-97473739D01*
X146099500Y-97480624D01*
X146099500Y-101025500D01*
X146081018Y-101076280D01*
X146034218Y-101103300D01*
X146020500Y-101104500D01*
X145949194Y-101104500D01*
X145933941Y-101107534D01*
X145910006Y-101112295D01*
X145910005Y-101112295D01*
X145902376Y-101113813D01*
X145849286Y-101149286D01*
X145813813Y-101202376D01*
X145812295Y-101210005D01*
X145812295Y-101210006D01*
X145808987Y-101226636D01*
X145804500Y-101249194D01*
X145804500Y-102210806D01*
X145813813Y-102257624D01*
X145849286Y-102310714D01*
X145902376Y-102346187D01*
X145910005Y-102347705D01*
X145910006Y-102347705D01*
X145928316Y-102351347D01*
X145949194Y-102355500D01*
X146770806Y-102355500D01*
X146791684Y-102351347D01*
X146809994Y-102347705D01*
X146809995Y-102347705D01*
X146817624Y-102346187D01*
X146870714Y-102310714D01*
X146906187Y-102257624D01*
X146915500Y-102210806D01*
X146915500Y-101249194D01*
X146911013Y-101226636D01*
X146907705Y-101210006D01*
X146907705Y-101210005D01*
X146906187Y-101202376D01*
X146870714Y-101149286D01*
X146817624Y-101113813D01*
X146809995Y-101112295D01*
X146809994Y-101112295D01*
X146786059Y-101107534D01*
X146770806Y-101104500D01*
X146699500Y-101104500D01*
X146648720Y-101086018D01*
X146621700Y-101039218D01*
X146620500Y-101025500D01*
X146620500Y-98615738D01*
X146845000Y-98615738D01*
X146845758Y-98623435D01*
X146857987Y-98684915D01*
X146863827Y-98699013D01*
X146910439Y-98768773D01*
X146921227Y-98779561D01*
X146990987Y-98826173D01*
X147005085Y-98832013D01*
X147066565Y-98844242D01*
X147074262Y-98845000D01*
X147346070Y-98845000D01*
X147356741Y-98841116D01*
X147360000Y-98835472D01*
X147360000Y-98831070D01*
X147760000Y-98831070D01*
X147763884Y-98841741D01*
X147769528Y-98845000D01*
X148045738Y-98845000D01*
X148053435Y-98844242D01*
X148114915Y-98832013D01*
X148129013Y-98826173D01*
X148198773Y-98779561D01*
X148209561Y-98768773D01*
X148256173Y-98699013D01*
X148262013Y-98684915D01*
X148274242Y-98623435D01*
X148275000Y-98615738D01*
X149295000Y-98615738D01*
X149295758Y-98623435D01*
X149307987Y-98684915D01*
X149313827Y-98699013D01*
X149360439Y-98768773D01*
X149371227Y-98779561D01*
X149440987Y-98826173D01*
X149455085Y-98832013D01*
X149516565Y-98844242D01*
X149524262Y-98845000D01*
X149796070Y-98845000D01*
X149806741Y-98841116D01*
X149810000Y-98835472D01*
X149810000Y-98831070D01*
X150210000Y-98831070D01*
X150213884Y-98841741D01*
X150219528Y-98845000D01*
X150495738Y-98845000D01*
X150503435Y-98844242D01*
X150564915Y-98832013D01*
X150579013Y-98826173D01*
X150648773Y-98779561D01*
X150659561Y-98768773D01*
X150706173Y-98699013D01*
X150712013Y-98684915D01*
X150724242Y-98623435D01*
X150725000Y-98615738D01*
X151555000Y-98615738D01*
X151555758Y-98623435D01*
X151567987Y-98684915D01*
X151573827Y-98699013D01*
X151620439Y-98768773D01*
X151631227Y-98779561D01*
X151700987Y-98826173D01*
X151715085Y-98832013D01*
X151776565Y-98844242D01*
X151784262Y-98845000D01*
X152056070Y-98845000D01*
X152066741Y-98841116D01*
X152070000Y-98835472D01*
X152070000Y-98831070D01*
X152470000Y-98831070D01*
X152473884Y-98841741D01*
X152479528Y-98845000D01*
X152755738Y-98845000D01*
X152763435Y-98844242D01*
X152824915Y-98832013D01*
X152839013Y-98826173D01*
X152908773Y-98779561D01*
X152919561Y-98768773D01*
X152966173Y-98699013D01*
X152972013Y-98684915D01*
X152984242Y-98623435D01*
X152985000Y-98615738D01*
X152985000Y-98413930D01*
X152981116Y-98403259D01*
X152975472Y-98400000D01*
X152483930Y-98400000D01*
X152473259Y-98403884D01*
X152470000Y-98409528D01*
X152470000Y-98831070D01*
X152070000Y-98831070D01*
X152070000Y-98413930D01*
X152066116Y-98403259D01*
X152060472Y-98400000D01*
X151568930Y-98400000D01*
X151558259Y-98403884D01*
X151555000Y-98409528D01*
X151555000Y-98615738D01*
X150725000Y-98615738D01*
X150725000Y-98413930D01*
X150721116Y-98403259D01*
X150715472Y-98400000D01*
X150223930Y-98400000D01*
X150213259Y-98403884D01*
X150210000Y-98409528D01*
X150210000Y-98831070D01*
X149810000Y-98831070D01*
X149810000Y-98413930D01*
X149806116Y-98403259D01*
X149800472Y-98400000D01*
X149308930Y-98400000D01*
X149298259Y-98403884D01*
X149295000Y-98409528D01*
X149295000Y-98615738D01*
X148275000Y-98615738D01*
X148275000Y-98413930D01*
X148271116Y-98403259D01*
X148265472Y-98400000D01*
X147773930Y-98400000D01*
X147763259Y-98403884D01*
X147760000Y-98409528D01*
X147760000Y-98831070D01*
X147360000Y-98831070D01*
X147360000Y-98413930D01*
X147356116Y-98403259D01*
X147350472Y-98400000D01*
X146858930Y-98400000D01*
X146848259Y-98403884D01*
X146845000Y-98409528D01*
X146845000Y-98615738D01*
X146620500Y-98615738D01*
X146620500Y-97986070D01*
X146845000Y-97986070D01*
X146848884Y-97996741D01*
X146854528Y-98000000D01*
X147346070Y-98000000D01*
X147356741Y-97996116D01*
X147360000Y-97990472D01*
X147360000Y-97986070D01*
X147760000Y-97986070D01*
X147763884Y-97996741D01*
X147769528Y-98000000D01*
X148261070Y-98000000D01*
X148271741Y-97996116D01*
X148275000Y-97990472D01*
X148275000Y-97986070D01*
X149295000Y-97986070D01*
X149298884Y-97996741D01*
X149304528Y-98000000D01*
X149796070Y-98000000D01*
X149806741Y-97996116D01*
X149810000Y-97990472D01*
X149810000Y-97986070D01*
X150210000Y-97986070D01*
X150213884Y-97996741D01*
X150219528Y-98000000D01*
X150711070Y-98000000D01*
X150721741Y-97996116D01*
X150725000Y-97990472D01*
X150725000Y-97986070D01*
X151555000Y-97986070D01*
X151558884Y-97996741D01*
X151564528Y-98000000D01*
X152056070Y-98000000D01*
X152066741Y-97996116D01*
X152070000Y-97990472D01*
X152070000Y-97986070D01*
X152470000Y-97986070D01*
X152473884Y-97996741D01*
X152479528Y-98000000D01*
X152971070Y-98000000D01*
X152981741Y-97996116D01*
X152985000Y-97990472D01*
X152985000Y-97784262D01*
X152984242Y-97776565D01*
X152972013Y-97715085D01*
X152966173Y-97700987D01*
X152919561Y-97631227D01*
X152908773Y-97620439D01*
X152839013Y-97573827D01*
X152824915Y-97567987D01*
X152763435Y-97555758D01*
X152755738Y-97555000D01*
X152483930Y-97555000D01*
X152473259Y-97558884D01*
X152470000Y-97564528D01*
X152470000Y-97986070D01*
X152070000Y-97986070D01*
X152070000Y-97568930D01*
X152066116Y-97558259D01*
X152060472Y-97555000D01*
X151784262Y-97555000D01*
X151776565Y-97555758D01*
X151715085Y-97567987D01*
X151700987Y-97573827D01*
X151631227Y-97620439D01*
X151620439Y-97631227D01*
X151573827Y-97700987D01*
X151567987Y-97715085D01*
X151555758Y-97776565D01*
X151555000Y-97784262D01*
X151555000Y-97986070D01*
X150725000Y-97986070D01*
X150725000Y-97784262D01*
X150724242Y-97776565D01*
X150712013Y-97715085D01*
X150706173Y-97700987D01*
X150659561Y-97631227D01*
X150648773Y-97620439D01*
X150579013Y-97573827D01*
X150564915Y-97567987D01*
X150503435Y-97555758D01*
X150495738Y-97555000D01*
X150223930Y-97555000D01*
X150213259Y-97558884D01*
X150210000Y-97564528D01*
X150210000Y-97986070D01*
X149810000Y-97986070D01*
X149810000Y-97568930D01*
X149806116Y-97558259D01*
X149800472Y-97555000D01*
X149524262Y-97555000D01*
X149516565Y-97555758D01*
X149455085Y-97567987D01*
X149440987Y-97573827D01*
X149371227Y-97620439D01*
X149360439Y-97631227D01*
X149313827Y-97700987D01*
X149307987Y-97715085D01*
X149295758Y-97776565D01*
X149295000Y-97784262D01*
X149295000Y-97986070D01*
X148275000Y-97986070D01*
X148275000Y-97784262D01*
X148274242Y-97776565D01*
X148262013Y-97715085D01*
X148256173Y-97700987D01*
X148209561Y-97631227D01*
X148198773Y-97620439D01*
X148129013Y-97573827D01*
X148114915Y-97567987D01*
X148053435Y-97555758D01*
X148045738Y-97555000D01*
X147773930Y-97555000D01*
X147763259Y-97558884D01*
X147760000Y-97564528D01*
X147760000Y-97986070D01*
X147360000Y-97986070D01*
X147360000Y-97568930D01*
X147356116Y-97558259D01*
X147350472Y-97555000D01*
X147074262Y-97555000D01*
X147066565Y-97555758D01*
X147005085Y-97567987D01*
X146990987Y-97573827D01*
X146921227Y-97620439D01*
X146910439Y-97631227D01*
X146863827Y-97700987D01*
X146857987Y-97715085D01*
X146845758Y-97776565D01*
X146845000Y-97784262D01*
X146845000Y-97986070D01*
X146620500Y-97986070D01*
X146620500Y-97373435D01*
X146622018Y-97358023D01*
X146623881Y-97348657D01*
X146625603Y-97340000D01*
X146612492Y-97274086D01*
X146606903Y-97245988D01*
X146606902Y-97245987D01*
X146605385Y-97238358D01*
X146547810Y-97152190D01*
X146532525Y-97141977D01*
X146520554Y-97132152D01*
X145484139Y-96095737D01*
X145461301Y-96046761D01*
X145461572Y-96030385D01*
X145469002Y-95968982D01*
X145470500Y-95956607D01*
X145470499Y-95123394D01*
X145459932Y-95036064D01*
X145405922Y-94899649D01*
X145385051Y-94872152D01*
X145320467Y-94787067D01*
X145317216Y-94782784D01*
X145200351Y-94694078D01*
X145063936Y-94640068D01*
X145058901Y-94639459D01*
X145058898Y-94639458D01*
X145005520Y-94632999D01*
X144976607Y-94629500D01*
X144560088Y-94629500D01*
X144143394Y-94629501D01*
X144128341Y-94631322D01*
X144061102Y-94639458D01*
X144061099Y-94639459D01*
X144056064Y-94640068D01*
X143919649Y-94694078D01*
X143802784Y-94782784D01*
X143799533Y-94787067D01*
X143762426Y-94835953D01*
X143717002Y-94865226D01*
X143663389Y-94858453D01*
X143626673Y-94818802D01*
X143620500Y-94788189D01*
X143620500Y-94233440D01*
X143622018Y-94218027D01*
X143624086Y-94207631D01*
X143625604Y-94200000D01*
X143605385Y-94098359D01*
X143605385Y-94098358D01*
X143547810Y-94012190D01*
X143541343Y-94007869D01*
X143535839Y-94002365D01*
X143538569Y-93999635D01*
X143515780Y-93968624D01*
X143513696Y-93933331D01*
X143520364Y-93893699D01*
X145244288Y-93893699D01*
X145245018Y-93899280D01*
X145261826Y-94027811D01*
X145263249Y-94038695D01*
X145322143Y-94172542D01*
X145325765Y-94176851D01*
X145386537Y-94249148D01*
X145416236Y-94284479D01*
X145537964Y-94365508D01*
X145677541Y-94409116D01*
X145727056Y-94410023D01*
X145818120Y-94411692D01*
X145818121Y-94411692D01*
X145823747Y-94411795D01*
X145842105Y-94406790D01*
X145895958Y-94411265D01*
X145918745Y-94427147D01*
X146196317Y-94704719D01*
X146219155Y-94753695D01*
X146203382Y-94808343D01*
X146137334Y-94895358D01*
X146137332Y-94895362D01*
X146134078Y-94899649D01*
X146080068Y-95036064D01*
X146079459Y-95041099D01*
X146079458Y-95041102D01*
X146074751Y-95080000D01*
X146069500Y-95123393D01*
X146069501Y-95956606D01*
X146069787Y-95958969D01*
X146079458Y-96038898D01*
X146079459Y-96038901D01*
X146080068Y-96043936D01*
X146134078Y-96180351D01*
X146137332Y-96184638D01*
X146194664Y-96260169D01*
X146222784Y-96297216D01*
X146339649Y-96385922D01*
X146344655Y-96387904D01*
X146456298Y-96432106D01*
X146476064Y-96439932D01*
X146481099Y-96440541D01*
X146481102Y-96440542D01*
X146534480Y-96447001D01*
X146563393Y-96450500D01*
X146979912Y-96450500D01*
X147396606Y-96450499D01*
X147411659Y-96448678D01*
X147478898Y-96440542D01*
X147478901Y-96440541D01*
X147483936Y-96439932D01*
X147620351Y-96385922D01*
X147737216Y-96297216D01*
X147765336Y-96260169D01*
X147822668Y-96184638D01*
X147825922Y-96180351D01*
X147845374Y-96131221D01*
X147878063Y-96048657D01*
X147878064Y-96048655D01*
X147879932Y-96043936D01*
X147882658Y-96021415D01*
X147889002Y-95968982D01*
X147890500Y-95956607D01*
X147890499Y-95123394D01*
X147879932Y-95036064D01*
X147825922Y-94899649D01*
X147805051Y-94872152D01*
X147740467Y-94787067D01*
X147737216Y-94782784D01*
X147620351Y-94694078D01*
X147483936Y-94640068D01*
X147478901Y-94639459D01*
X147478898Y-94639458D01*
X147425520Y-94632999D01*
X147396607Y-94629500D01*
X147360082Y-94629500D01*
X146890625Y-94629501D01*
X146839845Y-94611019D01*
X146834764Y-94606362D01*
X146285015Y-94056613D01*
X146262177Y-94007637D01*
X146262971Y-93987646D01*
X146275090Y-93915613D01*
X146275091Y-93915604D01*
X146275596Y-93912601D01*
X146275750Y-93900000D01*
X146266891Y-93838136D01*
X146255818Y-93760816D01*
X146255817Y-93760814D01*
X146255020Y-93755246D01*
X146234819Y-93710816D01*
X146196827Y-93627257D01*
X146196826Y-93627255D01*
X146194495Y-93622129D01*
X146190820Y-93617864D01*
X146190818Y-93617861D01*
X146102716Y-93515615D01*
X146099041Y-93511350D01*
X146028481Y-93465615D01*
X145981054Y-93434874D01*
X145981051Y-93434872D01*
X145976332Y-93431814D01*
X145906283Y-93410865D01*
X145841621Y-93391526D01*
X145841619Y-93391526D01*
X145836233Y-93389915D01*
X145763711Y-93389472D01*
X145695630Y-93389056D01*
X145695628Y-93389056D01*
X145690005Y-93389022D01*
X145549404Y-93429206D01*
X145425732Y-93507237D01*
X145422011Y-93511450D01*
X145422010Y-93511451D01*
X145395145Y-93541870D01*
X145328932Y-93616841D01*
X145266786Y-93749209D01*
X145244288Y-93893699D01*
X143520364Y-93893699D01*
X143525090Y-93865610D01*
X143525090Y-93865607D01*
X143525596Y-93862601D01*
X143525691Y-93854813D01*
X143525713Y-93853052D01*
X143525713Y-93853048D01*
X143525750Y-93850000D01*
X143512978Y-93760816D01*
X143505818Y-93710816D01*
X143505817Y-93710814D01*
X143505020Y-93705246D01*
X143499959Y-93694114D01*
X143446827Y-93577257D01*
X143446826Y-93577255D01*
X143444495Y-93572129D01*
X143440820Y-93567864D01*
X143440818Y-93567861D01*
X143352716Y-93465615D01*
X143349041Y-93461350D01*
X143293906Y-93425613D01*
X143231054Y-93384874D01*
X143231051Y-93384872D01*
X143226332Y-93381814D01*
X143156283Y-93360865D01*
X143091621Y-93341526D01*
X143091619Y-93341526D01*
X143086233Y-93339915D01*
X143013711Y-93339472D01*
X142945630Y-93339056D01*
X142945628Y-93339056D01*
X142940005Y-93339022D01*
X142799404Y-93379206D01*
X142675732Y-93457237D01*
X142672011Y-93461450D01*
X142672010Y-93461451D01*
X142617987Y-93522620D01*
X142578932Y-93566841D01*
X142516786Y-93699209D01*
X142494288Y-93843699D01*
X142496361Y-93859550D01*
X142511826Y-93977810D01*
X142513249Y-93988695D01*
X142572143Y-94122542D01*
X142575765Y-94126851D01*
X142642983Y-94206816D01*
X142666236Y-94234479D01*
X142787964Y-94315508D01*
X142927541Y-94359116D01*
X142955160Y-94359622D01*
X143021947Y-94360846D01*
X143072381Y-94380256D01*
X143098538Y-94427543D01*
X143099500Y-94439833D01*
X143099500Y-96956565D01*
X143097982Y-96971977D01*
X143094397Y-96990000D01*
X143099500Y-97015654D01*
X143114615Y-97091642D01*
X143172190Y-97177810D01*
X143178657Y-97182131D01*
X143187475Y-97188023D01*
X143199446Y-97197848D01*
X143616361Y-97614763D01*
X143639199Y-97663739D01*
X143639500Y-97670624D01*
X143639500Y-102983665D01*
X143637982Y-102999077D01*
X143634397Y-103017100D01*
X143637356Y-103031977D01*
X143639500Y-103042754D01*
X143648396Y-103087475D01*
X143654615Y-103118742D01*
X143712190Y-103204910D01*
X143718657Y-103209231D01*
X143727475Y-103215123D01*
X143739446Y-103224948D01*
X143935055Y-103420557D01*
X143944876Y-103432522D01*
X143955090Y-103447810D01*
X143961560Y-103452133D01*
X143961561Y-103452134D01*
X143991804Y-103472341D01*
X144034789Y-103501063D01*
X144034791Y-103501064D01*
X144041258Y-103505385D01*
X144142900Y-103525603D01*
X144150531Y-103524085D01*
X144160923Y-103522018D01*
X144176335Y-103520500D01*
X146769376Y-103520500D01*
X146820156Y-103538982D01*
X146825237Y-103543639D01*
X147359652Y-104078054D01*
X147369477Y-104090025D01*
X147379690Y-104105310D01*
X147386157Y-104109631D01*
X147386158Y-104109632D01*
X147387592Y-104110590D01*
X147388901Y-104112375D01*
X147391661Y-104115135D01*
X147391236Y-104115560D01*
X147419547Y-104154169D01*
X147422698Y-104177244D01*
X147422633Y-104182547D01*
X147441203Y-104324561D01*
X147453681Y-104369251D01*
X147511364Y-104500344D01*
X147535882Y-104539733D01*
X147537697Y-104541892D01*
X147609735Y-104627592D01*
X147628039Y-104649368D01*
X147630134Y-104651241D01*
X147660537Y-104678425D01*
X147660542Y-104678429D01*
X147662628Y-104680294D01*
X147664957Y-104681844D01*
X147664963Y-104681849D01*
X147733253Y-104727306D01*
X147781853Y-104759657D01*
X147784384Y-104760864D01*
X147821197Y-104778424D01*
X147821205Y-104778427D01*
X147823731Y-104779632D01*
X147826405Y-104780467D01*
X147826409Y-104780469D01*
X147909202Y-104806335D01*
X147960437Y-104822342D01*
X147972568Y-104824307D01*
X148003471Y-104829313D01*
X148003474Y-104829313D01*
X148006238Y-104829761D01*
X148149437Y-104832386D01*
X148154545Y-104831750D01*
X148164307Y-104831144D01*
X148640000Y-104831144D01*
X148662738Y-104826621D01*
X148694994Y-104820205D01*
X148694995Y-104820204D01*
X148702624Y-104818687D01*
X148721111Y-104806335D01*
X148773600Y-104793491D01*
X148808889Y-104806335D01*
X148827376Y-104818687D01*
X148835005Y-104820205D01*
X148835006Y-104820205D01*
X148845750Y-104822342D01*
X148874194Y-104828000D01*
X149905806Y-104828000D01*
X149934250Y-104822342D01*
X149944994Y-104820205D01*
X149944995Y-104820205D01*
X149952624Y-104818687D01*
X149971111Y-104806335D01*
X150023600Y-104793491D01*
X150058889Y-104806335D01*
X150077376Y-104818687D01*
X150085005Y-104820204D01*
X150085006Y-104820205D01*
X150117262Y-104826621D01*
X150140000Y-104831144D01*
X150680945Y-104831144D01*
X150682393Y-104831157D01*
X150749437Y-104832386D01*
X150770508Y-104829761D01*
X150792689Y-104826998D01*
X150792693Y-104826997D01*
X150795480Y-104826650D01*
X150933660Y-104788977D01*
X150936232Y-104787864D01*
X150936235Y-104787863D01*
X150973658Y-104771669D01*
X150973661Y-104771667D01*
X150976241Y-104770551D01*
X150993437Y-104759993D01*
X151038855Y-104732106D01*
X151098293Y-104695611D01*
X151100462Y-104693810D01*
X151100468Y-104693806D01*
X151105054Y-104689999D01*
X151155931Y-104671784D01*
X151170925Y-104673301D01*
X151174867Y-104674085D01*
X151174869Y-104674085D01*
X151182500Y-104675603D01*
X151190131Y-104674085D01*
X151200523Y-104672018D01*
X151215935Y-104670500D01*
X152701563Y-104670500D01*
X152752343Y-104688982D01*
X152779363Y-104735782D01*
X152769979Y-104789000D01*
X152726957Y-104824307D01*
X152546915Y-104885423D01*
X152542136Y-104887403D01*
X152278371Y-105017477D01*
X152273898Y-105020059D01*
X152029370Y-105183448D01*
X152025269Y-105186595D01*
X151963374Y-105240875D01*
X151957912Y-105250830D01*
X151958965Y-105256123D01*
X153410149Y-106707306D01*
X153420443Y-106712106D01*
X153426737Y-106710420D01*
X154877248Y-105259910D01*
X154882048Y-105249616D01*
X154880652Y-105244405D01*
X154814731Y-105186595D01*
X154810630Y-105183448D01*
X154566102Y-105020059D01*
X154561630Y-105017477D01*
X154297864Y-104887403D01*
X154293085Y-104885423D01*
X154023223Y-104793817D01*
X153981079Y-104759993D01*
X153970536Y-104706992D01*
X153996529Y-104659615D01*
X154004727Y-104653324D01*
X154081343Y-104602131D01*
X154087810Y-104597810D01*
X154098023Y-104582525D01*
X154107848Y-104570554D01*
X155420557Y-103257846D01*
X155432528Y-103248021D01*
X155441343Y-103242131D01*
X155447810Y-103237810D01*
X155505385Y-103151642D01*
X155511977Y-103118505D01*
X155520500Y-103075654D01*
X155524085Y-103057631D01*
X155525603Y-103050000D01*
X155522018Y-103031977D01*
X155520500Y-103016565D01*
X155520500Y-98213435D01*
X155522018Y-98198023D01*
X155524085Y-98187631D01*
X155525603Y-98180000D01*
X155520039Y-98152029D01*
X155506903Y-98085988D01*
X155506902Y-98085987D01*
X155505385Y-98078358D01*
X155496523Y-98065095D01*
X155447810Y-97992190D01*
X155432525Y-97981977D01*
X155420554Y-97972152D01*
X154217848Y-96769446D01*
X154208023Y-96757475D01*
X154202131Y-96748657D01*
X154197810Y-96742190D01*
X154111642Y-96684615D01*
X154104013Y-96683098D01*
X154104012Y-96683097D01*
X154035654Y-96669500D01*
X154017631Y-96665915D01*
X154010000Y-96664397D01*
X154002369Y-96665915D01*
X153991977Y-96667982D01*
X153976565Y-96669500D01*
X149840625Y-96669500D01*
X149789845Y-96651018D01*
X149784764Y-96646361D01*
X149343639Y-96205237D01*
X149320801Y-96156261D01*
X149320500Y-96149376D01*
X149320500Y-95113435D01*
X149322018Y-95098023D01*
X149324085Y-95087631D01*
X149325603Y-95080000D01*
X149315925Y-95031345D01*
X149306903Y-94985988D01*
X149306902Y-94985987D01*
X149305385Y-94978358D01*
X149275705Y-94933939D01*
X149247810Y-94892190D01*
X149232525Y-94881977D01*
X149220554Y-94872152D01*
X146817848Y-92469446D01*
X146808023Y-92457475D01*
X146802131Y-92448657D01*
X146797810Y-92442190D01*
X146711642Y-92384615D01*
X146704013Y-92383098D01*
X146704012Y-92383097D01*
X146635654Y-92369500D01*
X146617631Y-92365915D01*
X146610000Y-92364397D01*
X146602369Y-92365915D01*
X146591977Y-92367982D01*
X146576565Y-92369500D01*
X143960624Y-92369500D01*
X143909844Y-92351018D01*
X143904763Y-92346361D01*
X142812092Y-91253690D01*
X144044288Y-91253690D01*
X144045018Y-91259271D01*
X144060635Y-91378695D01*
X144063249Y-91398686D01*
X144122143Y-91532533D01*
X144216236Y-91644470D01*
X144337964Y-91725499D01*
X144343338Y-91727178D01*
X144471268Y-91767147D01*
X144477541Y-91769107D01*
X144527056Y-91770014D01*
X144618120Y-91771683D01*
X144618121Y-91771683D01*
X144623747Y-91771786D01*
X144764829Y-91733323D01*
X144889445Y-91656809D01*
X144893218Y-91652641D01*
X144893220Y-91652639D01*
X144971202Y-91566485D01*
X145018982Y-91541240D01*
X145029772Y-91540500D01*
X147189376Y-91540500D01*
X147240156Y-91558982D01*
X147245237Y-91563639D01*
X148904915Y-93223318D01*
X148927753Y-93272294D01*
X148927113Y-93291334D01*
X148918777Y-93344872D01*
X148914288Y-93373699D01*
X148915018Y-93379280D01*
X148932302Y-93511451D01*
X148933249Y-93518695D01*
X148992143Y-93652542D01*
X148995765Y-93656851D01*
X149078078Y-93754774D01*
X149086236Y-93764479D01*
X149207964Y-93845508D01*
X149213338Y-93847187D01*
X149252909Y-93859550D01*
X149347541Y-93889116D01*
X149397056Y-93890023D01*
X149488120Y-93891692D01*
X149488121Y-93891692D01*
X149493747Y-93891795D01*
X149634829Y-93853332D01*
X149759445Y-93776818D01*
X149763218Y-93772650D01*
X149763220Y-93772648D01*
X149853799Y-93672577D01*
X149853800Y-93672576D01*
X149857576Y-93668404D01*
X149877512Y-93627257D01*
X149918881Y-93541870D01*
X149921335Y-93536805D01*
X149923722Y-93522620D01*
X149945090Y-93395610D01*
X149945090Y-93395607D01*
X149945596Y-93392601D01*
X149945672Y-93386369D01*
X149945713Y-93383052D01*
X149945713Y-93383048D01*
X149945750Y-93380000D01*
X149925020Y-93235246D01*
X149864495Y-93102129D01*
X149860820Y-93097864D01*
X149860818Y-93097861D01*
X149772716Y-92995615D01*
X149769041Y-92991350D01*
X149728812Y-92965275D01*
X149651054Y-92914874D01*
X149651051Y-92914872D01*
X149646332Y-92911814D01*
X149575064Y-92890500D01*
X149511621Y-92871526D01*
X149511619Y-92871526D01*
X149506233Y-92869915D01*
X149433119Y-92869469D01*
X149365629Y-92869056D01*
X149365627Y-92869056D01*
X149360005Y-92869022D01*
X149354600Y-92870567D01*
X149354591Y-92870568D01*
X149348256Y-92872379D01*
X149294352Y-92868563D01*
X149270685Y-92852282D01*
X147537848Y-91119446D01*
X147528023Y-91107475D01*
X147522131Y-91098657D01*
X147517810Y-91092190D01*
X147431642Y-91034615D01*
X147424013Y-91033098D01*
X147424012Y-91033097D01*
X147355654Y-91019500D01*
X147337631Y-91015915D01*
X147330000Y-91014397D01*
X147322369Y-91015915D01*
X147311977Y-91017982D01*
X147296565Y-91019500D01*
X145060704Y-91019500D01*
X145009924Y-91001018D01*
X144995754Y-90984889D01*
X144994495Y-90982120D01*
X144899041Y-90871341D01*
X144857223Y-90844236D01*
X144781054Y-90794865D01*
X144781051Y-90794863D01*
X144776332Y-90791805D01*
X144695598Y-90767660D01*
X144641621Y-90751517D01*
X144641619Y-90751517D01*
X144636233Y-90749906D01*
X144563711Y-90749463D01*
X144495630Y-90749047D01*
X144495628Y-90749047D01*
X144490005Y-90749013D01*
X144349404Y-90789197D01*
X144344645Y-90792200D01*
X144244138Y-90855615D01*
X144225732Y-90867228D01*
X144222011Y-90871441D01*
X144222010Y-90871442D01*
X144145687Y-90957861D01*
X144128932Y-90976832D01*
X144126540Y-90981927D01*
X144075743Y-91090123D01*
X144066786Y-91109200D01*
X144065498Y-91117475D01*
X144046420Y-91240000D01*
X144044288Y-91253690D01*
X142812092Y-91253690D01*
X142687848Y-91129446D01*
X142678023Y-91117475D01*
X142672131Y-91108657D01*
X142667810Y-91102190D01*
X142581642Y-91044615D01*
X142574013Y-91043098D01*
X142574012Y-91043097D01*
X142505654Y-91029500D01*
X142487631Y-91025915D01*
X142480000Y-91024397D01*
X142472369Y-91025915D01*
X142461977Y-91027982D01*
X142446565Y-91029500D01*
X140933435Y-91029500D01*
X140918023Y-91027982D01*
X140907631Y-91025915D01*
X140900000Y-91024397D01*
X140892369Y-91025915D01*
X140874346Y-91029500D01*
X140805988Y-91043097D01*
X140805987Y-91043098D01*
X140798358Y-91044615D01*
X140712190Y-91102190D01*
X140707869Y-91108657D01*
X140701977Y-91117475D01*
X140692152Y-91129446D01*
X139549446Y-92272152D01*
X139537475Y-92281977D01*
X139522190Y-92292190D01*
X139471297Y-92368358D01*
X139464615Y-92378358D01*
X139444397Y-92480000D01*
X139445915Y-92487631D01*
X139447982Y-92498023D01*
X139449500Y-92513435D01*
X139449500Y-94550501D01*
X139431018Y-94601281D01*
X139384218Y-94628301D01*
X139370500Y-94629501D01*
X139303394Y-94629501D01*
X139288341Y-94631322D01*
X139221102Y-94639458D01*
X139221099Y-94639459D01*
X139216064Y-94640068D01*
X139079649Y-94694078D01*
X138962784Y-94782784D01*
X138959533Y-94787067D01*
X138959530Y-94787070D01*
X138912426Y-94849127D01*
X138867002Y-94878401D01*
X138813389Y-94871628D01*
X138776673Y-94831978D01*
X138770500Y-94801364D01*
X138770500Y-92503440D01*
X138772018Y-92488027D01*
X138774086Y-92477631D01*
X138775604Y-92470000D01*
X138769212Y-92437869D01*
X138758681Y-92384926D01*
X138758680Y-92384925D01*
X138755385Y-92368359D01*
X138755385Y-92368358D01*
X138697810Y-92282190D01*
X138682528Y-92271979D01*
X138670557Y-92262154D01*
X137805015Y-91396613D01*
X137782177Y-91347637D01*
X137782971Y-91327646D01*
X137795090Y-91255613D01*
X137795091Y-91255604D01*
X137795596Y-91252601D01*
X137795750Y-91240000D01*
X137778486Y-91119446D01*
X137775818Y-91100816D01*
X137775817Y-91100814D01*
X137775020Y-91095246D01*
X137769959Y-91084114D01*
X137716827Y-90967257D01*
X137716826Y-90967255D01*
X137714495Y-90962129D01*
X137710820Y-90957864D01*
X137710818Y-90957861D01*
X137622716Y-90855615D01*
X137619041Y-90851350D01*
X137578812Y-90825275D01*
X137501054Y-90774874D01*
X137501051Y-90774872D01*
X137496332Y-90771814D01*
X137420092Y-90749013D01*
X137361621Y-90731526D01*
X137361619Y-90731526D01*
X137356233Y-90729915D01*
X137283711Y-90729472D01*
X137215630Y-90729056D01*
X137215628Y-90729056D01*
X137210005Y-90729022D01*
X137069404Y-90769206D01*
X136945732Y-90847237D01*
X136942011Y-90851450D01*
X136942010Y-90851451D01*
X136920677Y-90875606D01*
X136848932Y-90956841D01*
X136786786Y-91089209D01*
X136764288Y-91233699D01*
X136765018Y-91239280D01*
X136781826Y-91367811D01*
X136783249Y-91378695D01*
X136842143Y-91512542D01*
X136845765Y-91516851D01*
X136887487Y-91566485D01*
X136936236Y-91624479D01*
X137057964Y-91705508D01*
X137063338Y-91707187D01*
X137111967Y-91722380D01*
X137197541Y-91749116D01*
X137247056Y-91750023D01*
X137338120Y-91751692D01*
X137338121Y-91751692D01*
X137343747Y-91751795D01*
X137362105Y-91746790D01*
X137415958Y-91751265D01*
X137438745Y-91767147D01*
X138226361Y-92554764D01*
X138249199Y-92603740D01*
X138249500Y-92610625D01*
X138249500Y-94801364D01*
X138231018Y-94852144D01*
X138184218Y-94879164D01*
X138131000Y-94869780D01*
X138107574Y-94849127D01*
X138060470Y-94787070D01*
X138060467Y-94787067D01*
X138057216Y-94782784D01*
X137940351Y-94694078D01*
X137803936Y-94640068D01*
X137798901Y-94639459D01*
X137798898Y-94639458D01*
X137745520Y-94632999D01*
X137716607Y-94629500D01*
X137649500Y-94629500D01*
X137598720Y-94611018D01*
X137571700Y-94564218D01*
X137570500Y-94550500D01*
X137570500Y-94293345D01*
X137588982Y-94242565D01*
X137608165Y-94226022D01*
X137634649Y-94209761D01*
X137634650Y-94209760D01*
X137639445Y-94206816D01*
X137643218Y-94202648D01*
X137643220Y-94202646D01*
X137733799Y-94102575D01*
X137733800Y-94102574D01*
X137737576Y-94098402D01*
X137801335Y-93966803D01*
X137805321Y-93943114D01*
X137825090Y-93825608D01*
X137825090Y-93825605D01*
X137825596Y-93822599D01*
X137825750Y-93809998D01*
X137817175Y-93750123D01*
X137805818Y-93670814D01*
X137805817Y-93670812D01*
X137805020Y-93665244D01*
X137796903Y-93647391D01*
X137746827Y-93537255D01*
X137746826Y-93537253D01*
X137744495Y-93532127D01*
X137740820Y-93527862D01*
X137740818Y-93527859D01*
X137652716Y-93425613D01*
X137649041Y-93421348D01*
X137581639Y-93377660D01*
X137531054Y-93344872D01*
X137531051Y-93344870D01*
X137526332Y-93341812D01*
X137456282Y-93320862D01*
X137391621Y-93301524D01*
X137391619Y-93301524D01*
X137386233Y-93299913D01*
X137313711Y-93299470D01*
X137245630Y-93299054D01*
X137245628Y-93299054D01*
X137240005Y-93299020D01*
X137099404Y-93339204D01*
X136975732Y-93417235D01*
X136972011Y-93421448D01*
X136972010Y-93421449D01*
X136882658Y-93522620D01*
X136878932Y-93526839D01*
X136876540Y-93531934D01*
X136822334Y-93647391D01*
X136816786Y-93659207D01*
X136802772Y-93749209D01*
X136799123Y-93772648D01*
X136794288Y-93803697D01*
X136795018Y-93809278D01*
X136807281Y-93903052D01*
X136813249Y-93948693D01*
X136872143Y-94082540D01*
X136875765Y-94086849D01*
X136881217Y-94093335D01*
X136966236Y-94194477D01*
X137014275Y-94226455D01*
X137046305Y-94269978D01*
X137049500Y-94292217D01*
X137049500Y-94550501D01*
X137031018Y-94601281D01*
X136984218Y-94628301D01*
X136970500Y-94629501D01*
X136883394Y-94629501D01*
X136868341Y-94631322D01*
X136801102Y-94639458D01*
X136801099Y-94639459D01*
X136796064Y-94640068D01*
X136659649Y-94694078D01*
X136542784Y-94782784D01*
X136539533Y-94787067D01*
X136474950Y-94872152D01*
X136454078Y-94899649D01*
X136400068Y-95036064D01*
X136399459Y-95041099D01*
X136399458Y-95041102D01*
X136394751Y-95080000D01*
X136389500Y-95123393D01*
X136389501Y-95956606D01*
X136389787Y-95958969D01*
X136399458Y-96038898D01*
X136399459Y-96038901D01*
X136400068Y-96043936D01*
X136454078Y-96180351D01*
X136457332Y-96184638D01*
X136514664Y-96260169D01*
X136542784Y-96297216D01*
X136659649Y-96385922D01*
X136664655Y-96387904D01*
X136776298Y-96432106D01*
X136796064Y-96439932D01*
X136801099Y-96440541D01*
X136801102Y-96440542D01*
X136854480Y-96447001D01*
X136883393Y-96450500D01*
X137299912Y-96450500D01*
X137716606Y-96450499D01*
X137731659Y-96448678D01*
X137798898Y-96440542D01*
X137798901Y-96440541D01*
X137803936Y-96439932D01*
X137940351Y-96385922D01*
X138057216Y-96297216D01*
X138113122Y-96223563D01*
X138158546Y-96194290D01*
X138212159Y-96201063D01*
X138248875Y-96240713D01*
X138253530Y-96255915D01*
X138262097Y-96298982D01*
X138264615Y-96311642D01*
X138322190Y-96397810D01*
X138328657Y-96402131D01*
X138337475Y-96408023D01*
X138349446Y-96417848D01*
X139102154Y-97170557D01*
X139111979Y-97182528D01*
X139122190Y-97197810D01*
X139143939Y-97212342D01*
X139208358Y-97255385D01*
X139215987Y-97256903D01*
X139215988Y-97256903D01*
X139302369Y-97274086D01*
X139310000Y-97275604D01*
X139317631Y-97274086D01*
X139328027Y-97272018D01*
X139343440Y-97270500D01*
X140408913Y-97270500D01*
X140459693Y-97288982D01*
X140486713Y-97335782D01*
X140477329Y-97389000D01*
X140431019Y-97425344D01*
X140420678Y-97428358D01*
X140331577Y-97454328D01*
X140331571Y-97454330D01*
X140328755Y-97455151D01*
X140326088Y-97456381D01*
X140326084Y-97456382D01*
X140246933Y-97492871D01*
X140093823Y-97563456D01*
X140091380Y-97565058D01*
X140091374Y-97565061D01*
X139879923Y-97703695D01*
X139877480Y-97705297D01*
X139875303Y-97707240D01*
X139686661Y-97875609D01*
X139686658Y-97875613D01*
X139684479Y-97877557D01*
X139519059Y-98076453D01*
X139517538Y-98078960D01*
X139517537Y-98078961D01*
X139390748Y-98287902D01*
X139384855Y-98297614D01*
X139375416Y-98320123D01*
X139340555Y-98403259D01*
X139284815Y-98536183D01*
X139221136Y-98786918D01*
X139221062Y-98787655D01*
X139194276Y-98834042D01*
X139143495Y-98852521D01*
X139092716Y-98834035D01*
X139065699Y-98787234D01*
X139064500Y-98773521D01*
X139064500Y-97748076D01*
X139063188Y-97735588D01*
X139049876Y-97608936D01*
X139049876Y-97608934D01*
X139049443Y-97604818D01*
X138990039Y-97421991D01*
X138978649Y-97402262D01*
X138895992Y-97259097D01*
X138893921Y-97255510D01*
X138885348Y-97245988D01*
X138768064Y-97115732D01*
X138765290Y-97112651D01*
X138609769Y-96999658D01*
X138530458Y-96964346D01*
X138437936Y-96923152D01*
X138437933Y-96923151D01*
X138434153Y-96921468D01*
X138430107Y-96920608D01*
X138430104Y-96920607D01*
X138250162Y-96882359D01*
X138250157Y-96882358D01*
X138246118Y-96881500D01*
X138053882Y-96881500D01*
X138049843Y-96882358D01*
X138049838Y-96882359D01*
X137869892Y-96920608D01*
X137869890Y-96920609D01*
X137865847Y-96921468D01*
X137862070Y-96923150D01*
X137862069Y-96923150D01*
X137694011Y-96997975D01*
X137694008Y-96997977D01*
X137690232Y-96999658D01*
X137534710Y-97112651D01*
X137531936Y-97115732D01*
X137414653Y-97245988D01*
X137406079Y-97255510D01*
X137404008Y-97259097D01*
X137321352Y-97402262D01*
X137309961Y-97421991D01*
X137250557Y-97604818D01*
X137250124Y-97608934D01*
X137250124Y-97608936D01*
X137236813Y-97735588D01*
X137235500Y-97748076D01*
X137235500Y-99351924D01*
X137235717Y-99353985D01*
X137235717Y-99353992D01*
X137244544Y-99437973D01*
X137250557Y-99495182D01*
X137259106Y-99521493D01*
X137257219Y-99575498D01*
X137239833Y-99601764D01*
X136319446Y-100522152D01*
X136307475Y-100531977D01*
X136292190Y-100542190D01*
X136252553Y-100601512D01*
X136234615Y-100628358D01*
X136233098Y-100635987D01*
X136233097Y-100635988D01*
X136229938Y-100651870D01*
X136214397Y-100730000D01*
X136215915Y-100737631D01*
X136217982Y-100748023D01*
X136219500Y-100763435D01*
X136219500Y-101779376D01*
X136201018Y-101830156D01*
X136196361Y-101835237D01*
X135045237Y-102986361D01*
X134996261Y-103009199D01*
X134989376Y-103009500D01*
X133154500Y-103009500D01*
X133103720Y-102991018D01*
X133076700Y-102944218D01*
X133075500Y-102930500D01*
X133075500Y-102799194D01*
X133066187Y-102752376D01*
X133030714Y-102699286D01*
X132977624Y-102663813D01*
X132969995Y-102662295D01*
X132969994Y-102662295D01*
X132944998Y-102657323D01*
X132930806Y-102654500D01*
X131929194Y-102654500D01*
X131915002Y-102657323D01*
X131890006Y-102662295D01*
X131890005Y-102662295D01*
X131882376Y-102663813D01*
X131829286Y-102699286D01*
X131793813Y-102752376D01*
X131784500Y-102799194D01*
X131784500Y-103750806D01*
X125710500Y-103750806D01*
X125710500Y-101351924D01*
X128035500Y-101351924D01*
X128035717Y-101353985D01*
X128035717Y-101353992D01*
X128045573Y-101447767D01*
X128050557Y-101495182D01*
X128109961Y-101678009D01*
X128206079Y-101844490D01*
X128208851Y-101847569D01*
X128208852Y-101847570D01*
X128255610Y-101899500D01*
X128334710Y-101987349D01*
X128490231Y-102100342D01*
X128494020Y-102102029D01*
X128662064Y-102176848D01*
X128662067Y-102176849D01*
X128665847Y-102178532D01*
X128669893Y-102179392D01*
X128669896Y-102179393D01*
X128849838Y-102217641D01*
X128849843Y-102217642D01*
X128853882Y-102218500D01*
X129046118Y-102218500D01*
X129050157Y-102217642D01*
X129050162Y-102217641D01*
X129230108Y-102179392D01*
X129230110Y-102179391D01*
X129234153Y-102178532D01*
X129244305Y-102174012D01*
X129405989Y-102102025D01*
X129405992Y-102102023D01*
X129409768Y-102100342D01*
X129429627Y-102085914D01*
X129561937Y-101989785D01*
X129561936Y-101989785D01*
X129565290Y-101987349D01*
X129644390Y-101899500D01*
X129691148Y-101847570D01*
X129691149Y-101847569D01*
X129693921Y-101844490D01*
X129790039Y-101678009D01*
X129849443Y-101495182D01*
X129854427Y-101447767D01*
X129864283Y-101353992D01*
X129864283Y-101353985D01*
X129864500Y-101351924D01*
X129864500Y-99748076D01*
X129862603Y-99730021D01*
X129849876Y-99608936D01*
X129849876Y-99608934D01*
X129849443Y-99604818D01*
X129790039Y-99421991D01*
X129781074Y-99406462D01*
X129749586Y-99351924D01*
X131735500Y-99351924D01*
X131735717Y-99353985D01*
X131735717Y-99353992D01*
X131744544Y-99437973D01*
X131750557Y-99495182D01*
X131809961Y-99678009D01*
X131812030Y-99681592D01*
X131812031Y-99681595D01*
X131892527Y-99821018D01*
X131906079Y-99844490D01*
X132034710Y-99987349D01*
X132190231Y-100100342D01*
X132194020Y-100102029D01*
X132362064Y-100176848D01*
X132362067Y-100176849D01*
X132365847Y-100178532D01*
X132369893Y-100179392D01*
X132369896Y-100179393D01*
X132549838Y-100217641D01*
X132549843Y-100217642D01*
X132553882Y-100218500D01*
X132746118Y-100218500D01*
X132750157Y-100217642D01*
X132750162Y-100217641D01*
X132930108Y-100179392D01*
X132930110Y-100179391D01*
X132934153Y-100178532D01*
X132943865Y-100174208D01*
X133105989Y-100102025D01*
X133105992Y-100102023D01*
X133109768Y-100100342D01*
X133136531Y-100080898D01*
X133261937Y-99989785D01*
X133261936Y-99989785D01*
X133265290Y-99987349D01*
X133393921Y-99844490D01*
X133394047Y-99844604D01*
X133437388Y-99815370D01*
X133491131Y-99821018D01*
X133528670Y-99859891D01*
X133535500Y-99892023D01*
X133535500Y-101351924D01*
X133535717Y-101353985D01*
X133535717Y-101353992D01*
X133545573Y-101447767D01*
X133550557Y-101495182D01*
X133609961Y-101678009D01*
X133706079Y-101844490D01*
X133708851Y-101847569D01*
X133708852Y-101847570D01*
X133755610Y-101899500D01*
X133834710Y-101987349D01*
X133990231Y-102100342D01*
X133994020Y-102102029D01*
X134162064Y-102176848D01*
X134162067Y-102176849D01*
X134165847Y-102178532D01*
X134169893Y-102179392D01*
X134169896Y-102179393D01*
X134349838Y-102217641D01*
X134349843Y-102217642D01*
X134353882Y-102218500D01*
X134546118Y-102218500D01*
X134550157Y-102217642D01*
X134550162Y-102217641D01*
X134730108Y-102179392D01*
X134730110Y-102179391D01*
X134734153Y-102178532D01*
X134744305Y-102174012D01*
X134905989Y-102102025D01*
X134905992Y-102102023D01*
X134909768Y-102100342D01*
X134929627Y-102085914D01*
X135061937Y-101989785D01*
X135061936Y-101989785D01*
X135065290Y-101987349D01*
X135144390Y-101899500D01*
X135191148Y-101847570D01*
X135191149Y-101847569D01*
X135193921Y-101844490D01*
X135290039Y-101678009D01*
X135349443Y-101495182D01*
X135354427Y-101447767D01*
X135364283Y-101353992D01*
X135364283Y-101353985D01*
X135364500Y-101351924D01*
X135364500Y-99748076D01*
X135362603Y-99730021D01*
X135349876Y-99608936D01*
X135349876Y-99608934D01*
X135349443Y-99604818D01*
X135290039Y-99421991D01*
X135281074Y-99406462D01*
X135195992Y-99259097D01*
X135193921Y-99255510D01*
X135065290Y-99112651D01*
X134909769Y-98999658D01*
X134883365Y-98987902D01*
X134737936Y-98923152D01*
X134737933Y-98923151D01*
X134734153Y-98921468D01*
X134730107Y-98920608D01*
X134730104Y-98920607D01*
X134550162Y-98882359D01*
X134550157Y-98882358D01*
X134546118Y-98881500D01*
X134353882Y-98881500D01*
X134349843Y-98882358D01*
X134349838Y-98882359D01*
X134169892Y-98920608D01*
X134169890Y-98920609D01*
X134165847Y-98921468D01*
X134162070Y-98923150D01*
X134162069Y-98923150D01*
X133994011Y-98997975D01*
X133994008Y-98997977D01*
X133990232Y-98999658D01*
X133986884Y-99002090D01*
X133986883Y-99002091D01*
X133886902Y-99074731D01*
X133834710Y-99112651D01*
X133706079Y-99255510D01*
X133705953Y-99255396D01*
X133662612Y-99284630D01*
X133608869Y-99278982D01*
X133571330Y-99240109D01*
X133564500Y-99207977D01*
X133564500Y-97748076D01*
X133563188Y-97735588D01*
X133549876Y-97608936D01*
X133549876Y-97608934D01*
X133549443Y-97604818D01*
X133490039Y-97421991D01*
X133478649Y-97402262D01*
X133395992Y-97259097D01*
X133393921Y-97255510D01*
X133385348Y-97245988D01*
X133268064Y-97115732D01*
X133265290Y-97112651D01*
X133109769Y-96999658D01*
X133030458Y-96964346D01*
X132937936Y-96923152D01*
X132937933Y-96923151D01*
X132934153Y-96921468D01*
X132930107Y-96920608D01*
X132930104Y-96920607D01*
X132750162Y-96882359D01*
X132750157Y-96882358D01*
X132746118Y-96881500D01*
X132553882Y-96881500D01*
X132549843Y-96882358D01*
X132549838Y-96882359D01*
X132369892Y-96920608D01*
X132369890Y-96920609D01*
X132365847Y-96921468D01*
X132362070Y-96923150D01*
X132362069Y-96923150D01*
X132194011Y-96997975D01*
X132194008Y-96997977D01*
X132190232Y-96999658D01*
X132034710Y-97112651D01*
X132031936Y-97115732D01*
X131914653Y-97245988D01*
X131906079Y-97255510D01*
X131904008Y-97259097D01*
X131821352Y-97402262D01*
X131809961Y-97421991D01*
X131750557Y-97604818D01*
X131750124Y-97608934D01*
X131750124Y-97608936D01*
X131736813Y-97735588D01*
X131735500Y-97748076D01*
X131735500Y-99351924D01*
X129749586Y-99351924D01*
X129695990Y-99259093D01*
X129695988Y-99259091D01*
X129693921Y-99255510D01*
X129691154Y-99252437D01*
X129691149Y-99252430D01*
X129629886Y-99184391D01*
X129609642Y-99134287D01*
X129626341Y-99082893D01*
X129632733Y-99075669D01*
X132734763Y-95973639D01*
X132783739Y-95950801D01*
X132790624Y-95950500D01*
X133898745Y-95950500D01*
X133949525Y-95968982D01*
X133977173Y-96020010D01*
X133979458Y-96038899D01*
X133979459Y-96038903D01*
X133980068Y-96043936D01*
X134034078Y-96180351D01*
X134037332Y-96184638D01*
X134094664Y-96260169D01*
X134122784Y-96297216D01*
X134239649Y-96385922D01*
X134244655Y-96387904D01*
X134356298Y-96432106D01*
X134376064Y-96439932D01*
X134381099Y-96440541D01*
X134381102Y-96440542D01*
X134434480Y-96447001D01*
X134463393Y-96450500D01*
X134879912Y-96450500D01*
X135296606Y-96450499D01*
X135311659Y-96448678D01*
X135378898Y-96440542D01*
X135378901Y-96440541D01*
X135383936Y-96439932D01*
X135520351Y-96385922D01*
X135637216Y-96297216D01*
X135665336Y-96260169D01*
X135722668Y-96184638D01*
X135725922Y-96180351D01*
X135745374Y-96131221D01*
X135778063Y-96048657D01*
X135778064Y-96048655D01*
X135779932Y-96043936D01*
X135782658Y-96021415D01*
X135789002Y-95968982D01*
X135790500Y-95956607D01*
X135790499Y-95123394D01*
X135779932Y-95036064D01*
X135725922Y-94899649D01*
X135705051Y-94872152D01*
X135640467Y-94787067D01*
X135637216Y-94782784D01*
X135520351Y-94694078D01*
X135383936Y-94640068D01*
X135378901Y-94639459D01*
X135378898Y-94639458D01*
X135325520Y-94632999D01*
X135296607Y-94629500D01*
X134880088Y-94629500D01*
X134463394Y-94629501D01*
X134448341Y-94631322D01*
X134381102Y-94639458D01*
X134381099Y-94639459D01*
X134376064Y-94640068D01*
X134239649Y-94694078D01*
X134122784Y-94782784D01*
X134119533Y-94787067D01*
X134054950Y-94872152D01*
X134034078Y-94899649D01*
X133980068Y-95036064D01*
X133979459Y-95041099D01*
X133979458Y-95041102D01*
X133974751Y-95080000D01*
X133969500Y-95123393D01*
X133969500Y-95350500D01*
X133951018Y-95401280D01*
X133904218Y-95428300D01*
X133890500Y-95429500D01*
X132683435Y-95429500D01*
X132668023Y-95427982D01*
X132657631Y-95425915D01*
X132650000Y-95424397D01*
X132642369Y-95425915D01*
X132624346Y-95429500D01*
X132555988Y-95443097D01*
X132555987Y-95443098D01*
X132548358Y-95444615D01*
X132462190Y-95502190D01*
X132457869Y-95508657D01*
X132451977Y-95517475D01*
X132442152Y-95529446D01*
X129112166Y-98859432D01*
X129063190Y-98882270D01*
X129049165Y-98882148D01*
X129046118Y-98881500D01*
X128853882Y-98881500D01*
X128849843Y-98882358D01*
X128849838Y-98882359D01*
X128669892Y-98920608D01*
X128669890Y-98920609D01*
X128665847Y-98921468D01*
X128662070Y-98923150D01*
X128662069Y-98923150D01*
X128494011Y-98997975D01*
X128494008Y-98997977D01*
X128490232Y-98999658D01*
X128486884Y-99002090D01*
X128486883Y-99002091D01*
X128386902Y-99074731D01*
X128334710Y-99112651D01*
X128206079Y-99255510D01*
X128204008Y-99259097D01*
X128118927Y-99406462D01*
X128109961Y-99421991D01*
X128050557Y-99604818D01*
X128050124Y-99608934D01*
X128050124Y-99608936D01*
X128037398Y-99730021D01*
X128035500Y-99748076D01*
X128035500Y-101351924D01*
X125710500Y-101351924D01*
X125710500Y-100080898D01*
X125728982Y-100030118D01*
X125775782Y-100003098D01*
X125829000Y-100012482D01*
X125849484Y-100029488D01*
X125851450Y-100031782D01*
X125857216Y-100037273D01*
X126012053Y-100157377D01*
X126018811Y-100161600D01*
X126194635Y-100248116D01*
X126202104Y-100250893D01*
X126336521Y-100285906D01*
X126347825Y-100284837D01*
X126349516Y-100283122D01*
X126350000Y-100280904D01*
X126350000Y-100275252D01*
X126750000Y-100275252D01*
X126753884Y-100285923D01*
X126757551Y-100288040D01*
X126797015Y-100282071D01*
X126804729Y-100280091D01*
X126988635Y-100212426D01*
X126995802Y-100208931D01*
X127162343Y-100105671D01*
X127168651Y-100100813D01*
X127311039Y-99966164D01*
X127316238Y-99960141D01*
X127428639Y-99799615D01*
X127432522Y-99792668D01*
X127510349Y-99612818D01*
X127512759Y-99605222D01*
X127553029Y-99412459D01*
X127553809Y-99406462D01*
X127553946Y-99403832D01*
X127554000Y-99401780D01*
X127554000Y-98763930D01*
X127550116Y-98753259D01*
X127544472Y-98750000D01*
X126763930Y-98750000D01*
X126753259Y-98753884D01*
X126750000Y-98759528D01*
X126750000Y-100275252D01*
X126350000Y-100275252D01*
X126350000Y-98336070D01*
X126750000Y-98336070D01*
X126753884Y-98346741D01*
X126759528Y-98350000D01*
X127540070Y-98350000D01*
X127550741Y-98346116D01*
X127554000Y-98340472D01*
X127554000Y-97747020D01*
X127553799Y-97743040D01*
X127538970Y-97597055D01*
X127537370Y-97589259D01*
X127478768Y-97402262D01*
X127475630Y-97394941D01*
X127380624Y-97223544D01*
X127376083Y-97217011D01*
X127248557Y-97068225D01*
X127242784Y-97062727D01*
X127087947Y-96942623D01*
X127081189Y-96938400D01*
X126905365Y-96851884D01*
X126897896Y-96849107D01*
X126763479Y-96814094D01*
X126752175Y-96815163D01*
X126750484Y-96816878D01*
X126750000Y-96819096D01*
X126750000Y-98336070D01*
X126350000Y-98336070D01*
X126350000Y-96824748D01*
X126346116Y-96814077D01*
X126342449Y-96811960D01*
X126302985Y-96817929D01*
X126295271Y-96819909D01*
X126111365Y-96887574D01*
X126104198Y-96891069D01*
X125937657Y-96994329D01*
X125931349Y-96999188D01*
X125843780Y-97081996D01*
X125794185Y-97103457D01*
X125742398Y-97088018D01*
X125712651Y-97042904D01*
X125710500Y-97024596D01*
X125710500Y-96359500D01*
X125728982Y-96308720D01*
X125775782Y-96281700D01*
X125789500Y-96280500D01*
X130954802Y-96280500D01*
X130961215Y-96280904D01*
X130969282Y-96284000D01*
X130995003Y-96281024D01*
X131004083Y-96280500D01*
X131009554Y-96280500D01*
X131014184Y-96279363D01*
X131014762Y-96279293D01*
X131023415Y-96277737D01*
X131038124Y-96276035D01*
X131038125Y-96276035D01*
X131047620Y-96274936D01*
X131055272Y-96269735D01*
X131056496Y-96269359D01*
X131057599Y-96268699D01*
X131066584Y-96266492D01*
X131084854Y-96250385D01*
X131092691Y-96244306D01*
X131104935Y-96235985D01*
X131104937Y-96235983D01*
X131112844Y-96230609D01*
X131117216Y-96222454D01*
X131118126Y-96221554D01*
X131118796Y-96220461D01*
X131125738Y-96214341D01*
X131134468Y-96191600D01*
X131138598Y-96182580D01*
X131146679Y-96167509D01*
X131146680Y-96167506D01*
X131150110Y-96161109D01*
X131150500Y-96158022D01*
X131150500Y-96155198D01*
X131150904Y-96148785D01*
X131154000Y-96140718D01*
X131151024Y-96114997D01*
X131150500Y-96105917D01*
X131150500Y-88719500D01*
X131168982Y-88668720D01*
X131215782Y-88641700D01*
X131229500Y-88640500D01*
X150660500Y-88640500D01*
X150711280Y-88658982D01*
G37*
G04 #@! TD.AperFunction*
M02*
