G04 #@! TF.GenerationSoftware,KiCad,Pcbnew,(6.0.6-0)*
G04 #@! TF.CreationDate,2023-01-30T15:29:15-05:00*
G04 #@! TF.ProjectId,SNES2VGA,534e4553-3256-4474-912e-6b696361645f,1*
G04 #@! TF.SameCoordinates,Original*
G04 #@! TF.FileFunction,Legend,Top*
G04 #@! TF.FilePolarity,Positive*
%FSLAX46Y46*%
G04 Gerber Fmt 4.6, Leading zero omitted, Abs format (unit mm)*
G04 Created by KiCad (PCBNEW (6.0.6-0)) date 2023-01-30 15:29:15*
%MOMM*%
%LPD*%
G01*
G04 APERTURE LIST*
G04 Aperture macros list*
%AMRoundRect*
0 Rectangle with rounded corners*
0 $1 Rounding radius*
0 $2 $3 $4 $5 $6 $7 $8 $9 X,Y pos of 4 corners*
0 Add a 4 corners polygon primitive as box body*
4,1,4,$2,$3,$4,$5,$6,$7,$8,$9,$2,$3,0*
0 Add four circle primitives for the rounded corners*
1,1,$1+$1,$2,$3*
1,1,$1+$1,$4,$5*
1,1,$1+$1,$6,$7*
1,1,$1+$1,$8,$9*
0 Add four rect primitives between the rounded corners*
20,1,$1+$1,$2,$3,$4,$5,0*
20,1,$1+$1,$4,$5,$6,$7,0*
20,1,$1+$1,$6,$7,$8,$9,0*
20,1,$1+$1,$8,$9,$2,$3,0*%
%AMFreePoly0*
4,1,37,0.012350,0.795685,0.074215,0.795307,0.088460,0.793178,0.224281,0.752559,0.237356,0.746518,0.356318,0.669411,0.367173,0.659942,0.459711,0.552545,0.467470,0.540411,0.526147,0.411359,0.530190,0.397535,0.550287,0.257202,0.550800,0.250000,0.550800,-0.250000,0.550796,-0.250620,0.550647,-0.262836,0.549947,-0.270644,0.526427,-0.410445,0.522048,-0.424167,0.460236,-0.551746,
0.452182,-0.563686,0.357047,-0.668790,0.345965,-0.677991,0.225155,-0.752168,0.211936,-0.757888,0.075163,-0.795177,0.060870,-0.796957,0.011464,-0.796051,0.000000,-0.800800,-0.500000,-0.800800,-0.535921,-0.785921,-0.550800,-0.750000,-0.550800,0.750000,-0.535921,0.785921,-0.500000,0.800800,0.000000,0.800800,0.012350,0.795685,0.012350,0.795685,$1*%
%AMFreePoly1*
4,1,37,0.535921,0.785921,0.550800,0.750000,0.550800,-0.750000,0.535921,-0.785921,0.500000,-0.800800,0.000000,-0.800800,-0.012526,-0.795612,-0.080872,-0.794359,-0.095090,-0.792057,-0.230405,-0.749782,-0.243405,-0.743581,-0.361415,-0.665026,-0.372153,-0.655426,-0.463373,-0.546907,-0.470984,-0.534678,-0.528079,-0.404919,-0.531952,-0.391047,-0.549535,-0.256587,-0.548147,-0.256405,-0.550800,-0.250000,
-0.550800,0.250000,-0.550314,0.251174,-0.550158,0.263925,-0.528347,0.404002,-0.524136,0.417775,-0.463888,0.546100,-0.455980,0.558139,-0.362136,0.664397,-0.351168,0.673732,-0.231273,0.749380,-0.218125,0.755261,-0.081818,0.794218,-0.067547,0.796173,-0.011991,0.795833,0.000000,0.800800,0.500000,0.800800,0.535921,0.785921,0.535921,0.785921,$1*%
%AMFreePoly2*
4,1,37,0.012350,0.795685,0.074215,0.795307,0.088460,0.793178,0.224281,0.752559,0.237356,0.746518,0.356318,0.669411,0.367173,0.659942,0.459711,0.552545,0.467470,0.540411,0.526147,0.411359,0.530190,0.397535,0.550287,0.257202,0.550800,0.250000,0.550800,-0.250000,0.550796,-0.250620,0.550647,-0.262836,0.549947,-0.270644,0.526427,-0.410445,0.522048,-0.424167,0.460236,-0.551746,
0.452182,-0.563686,0.357047,-0.668790,0.345965,-0.677991,0.225155,-0.752168,0.211936,-0.757888,0.075163,-0.795177,0.060870,-0.796957,0.011464,-0.796051,0.000000,-0.800800,-0.550000,-0.800800,-0.585921,-0.785921,-0.600800,-0.750000,-0.600800,0.750000,-0.585921,0.785921,-0.550000,0.800800,0.000000,0.800800,0.012350,0.795685,0.012350,0.795685,$1*%
%AMFreePoly3*
4,1,37,0.585921,0.785921,0.600800,0.750000,0.600800,-0.750000,0.585921,-0.785921,0.550000,-0.800800,0.000000,-0.800800,-0.012526,-0.795612,-0.080872,-0.794359,-0.095090,-0.792057,-0.230405,-0.749782,-0.243405,-0.743581,-0.361415,-0.665026,-0.372153,-0.655426,-0.463373,-0.546907,-0.470984,-0.534678,-0.528079,-0.404919,-0.531952,-0.391047,-0.549535,-0.256587,-0.548147,-0.256405,-0.550800,-0.250000,
-0.550800,0.250000,-0.550314,0.251174,-0.550158,0.263925,-0.528347,0.404002,-0.524136,0.417775,-0.463888,0.546100,-0.455980,0.558139,-0.362136,0.664397,-0.351168,0.673732,-0.231273,0.749380,-0.218125,0.755261,-0.081818,0.794218,-0.067547,0.796173,-0.011991,0.795833,0.000000,0.800800,0.550000,0.800800,0.585921,0.785921,0.585921,0.785921,$1*%
G04 Aperture macros list end*
%ADD10C,0.127000*%
%ADD11C,0.100000*%
%ADD12C,0.150000*%
%ADD13C,0.125000*%
%ADD14C,0.098425*%
%ADD15C,0.120000*%
%ADD16FreePoly0,180.000000*%
%ADD17FreePoly1,180.000000*%
%ADD18RoundRect,0.050800X-0.485000X0.460000X-0.485000X-0.460000X0.485000X-0.460000X0.485000X0.460000X0*%
%ADD19O,1.609600X3.117600*%
%ADD20RoundRect,0.425800X-0.375000X-0.375000X0.375000X-0.375000X0.375000X0.375000X-0.375000X0.375000X0*%
%ADD21C,1.801600*%
%ADD22C,4.167600*%
%ADD23RoundRect,0.050800X-0.850000X-0.850000X0.850000X-0.850000X0.850000X0.850000X-0.850000X0.850000X0*%
%ADD24RoundRect,0.050800X-0.395000X-0.465000X0.395000X-0.465000X0.395000X0.465000X-0.395000X0.465000X0*%
%ADD25RoundRect,0.050800X0.465000X-0.395000X0.465000X0.395000X-0.465000X0.395000X-0.465000X-0.395000X0*%
%ADD26RoundRect,0.050800X-0.500000X-0.750000X0.500000X-0.750000X0.500000X0.750000X-0.500000X0.750000X0*%
%ADD27FreePoly2,0.000000*%
%ADD28FreePoly3,0.000000*%
G04 APERTURE END LIST*
D10*
X153210000Y-96930000D02*
X153210000Y-100840000D01*
D11*
X155336190Y-103816190D02*
X154836190Y-103816190D01*
X155336190Y-103530476D01*
X154836190Y-103530476D01*
X154836190Y-103363809D02*
X154836190Y-103078095D01*
X155336190Y-103220952D02*
X154836190Y-103220952D01*
X155312380Y-102935238D02*
X155336190Y-102863809D01*
X155336190Y-102744761D01*
X155312380Y-102697142D01*
X155288571Y-102673333D01*
X155240952Y-102649523D01*
X155193333Y-102649523D01*
X155145714Y-102673333D01*
X155121904Y-102697142D01*
X155098095Y-102744761D01*
X155074285Y-102840000D01*
X155050476Y-102887619D01*
X155026666Y-102911428D01*
X154979047Y-102935238D01*
X154931428Y-102935238D01*
X154883809Y-102911428D01*
X154860000Y-102887619D01*
X154836190Y-102840000D01*
X154836190Y-102720952D01*
X154860000Y-102649523D01*
X155288571Y-102149523D02*
X155312380Y-102173333D01*
X155336190Y-102244761D01*
X155336190Y-102292380D01*
X155312380Y-102363809D01*
X155264761Y-102411428D01*
X155217142Y-102435238D01*
X155121904Y-102459047D01*
X155050476Y-102459047D01*
X154955238Y-102435238D01*
X154907619Y-102411428D01*
X154860000Y-102363809D01*
X154836190Y-102292380D01*
X154836190Y-102244761D01*
X154860000Y-102173333D01*
X154883809Y-102149523D01*
X155312380Y-101578095D02*
X155336190Y-101506666D01*
X155336190Y-101387619D01*
X155312380Y-101340000D01*
X155288571Y-101316190D01*
X155240952Y-101292380D01*
X155193333Y-101292380D01*
X155145714Y-101316190D01*
X155121904Y-101340000D01*
X155098095Y-101387619D01*
X155074285Y-101482857D01*
X155050476Y-101530476D01*
X155026666Y-101554285D01*
X154979047Y-101578095D01*
X154931428Y-101578095D01*
X154883809Y-101554285D01*
X154860000Y-101530476D01*
X154836190Y-101482857D01*
X154836190Y-101363809D01*
X154860000Y-101292380D01*
X155098095Y-100982857D02*
X155336190Y-100982857D01*
X154836190Y-101149523D02*
X155098095Y-100982857D01*
X154836190Y-100816190D01*
X155336190Y-100649523D02*
X154836190Y-100649523D01*
X155336190Y-100363809D01*
X154836190Y-100363809D01*
X155288571Y-99840000D02*
X155312380Y-99863809D01*
X155336190Y-99935238D01*
X155336190Y-99982857D01*
X155312380Y-100054285D01*
X155264761Y-100101904D01*
X155217142Y-100125714D01*
X155121904Y-100149523D01*
X155050476Y-100149523D01*
X154955238Y-100125714D01*
X154907619Y-100101904D01*
X154860000Y-100054285D01*
X154836190Y-99982857D01*
X154836190Y-99935238D01*
X154860000Y-99863809D01*
X154883809Y-99840000D01*
D10*
X148120000Y-95930000D02*
X150540000Y-95930000D01*
X131380000Y-95930000D02*
X133830000Y-95930000D01*
X127667857Y-109515535D02*
X127917857Y-110265535D01*
X128167857Y-109515535D01*
X128810714Y-109551250D02*
X128739285Y-109515535D01*
X128632142Y-109515535D01*
X128525000Y-109551250D01*
X128453571Y-109622678D01*
X128417857Y-109694107D01*
X128382142Y-109836964D01*
X128382142Y-109944107D01*
X128417857Y-110086964D01*
X128453571Y-110158392D01*
X128525000Y-110229821D01*
X128632142Y-110265535D01*
X128703571Y-110265535D01*
X128810714Y-110229821D01*
X128846428Y-110194107D01*
X128846428Y-109944107D01*
X128703571Y-109944107D01*
X129132142Y-110051250D02*
X129489285Y-110051250D01*
X129060714Y-110265535D02*
X129310714Y-109515535D01*
X129560714Y-110265535D01*
X130989285Y-110265535D02*
X130953571Y-110265535D01*
X130882142Y-110229821D01*
X130775000Y-110122678D01*
X130596428Y-109908392D01*
X130525000Y-109801250D01*
X130489285Y-109694107D01*
X130489285Y-109622678D01*
X130525000Y-109551250D01*
X130596428Y-109515535D01*
X130632142Y-109515535D01*
X130703571Y-109551250D01*
X130739285Y-109622678D01*
X130739285Y-109658392D01*
X130703571Y-109729821D01*
X130667857Y-109765535D01*
X130453571Y-109908392D01*
X130417857Y-109944107D01*
X130382142Y-110015535D01*
X130382142Y-110122678D01*
X130417857Y-110194107D01*
X130453571Y-110229821D01*
X130525000Y-110265535D01*
X130632142Y-110265535D01*
X130703571Y-110229821D01*
X130739285Y-110194107D01*
X130846428Y-110051250D01*
X130882142Y-109944107D01*
X130882142Y-109872678D01*
X131810714Y-109515535D02*
X132275000Y-109515535D01*
X132025000Y-109801250D01*
X132132142Y-109801250D01*
X132203571Y-109836964D01*
X132239285Y-109872678D01*
X132275000Y-109944107D01*
X132275000Y-110122678D01*
X132239285Y-110194107D01*
X132203571Y-110229821D01*
X132132142Y-110265535D01*
X131917857Y-110265535D01*
X131846428Y-110229821D01*
X131810714Y-110194107D01*
X132596428Y-110194107D02*
X132632142Y-110229821D01*
X132596428Y-110265535D01*
X132560714Y-110229821D01*
X132596428Y-110194107D01*
X132596428Y-110265535D01*
X133310714Y-109515535D02*
X132953571Y-109515535D01*
X132917857Y-109872678D01*
X132953571Y-109836964D01*
X133025000Y-109801250D01*
X133203571Y-109801250D01*
X133275000Y-109836964D01*
X133310714Y-109872678D01*
X133346428Y-109944107D01*
X133346428Y-110122678D01*
X133310714Y-110194107D01*
X133275000Y-110229821D01*
X133203571Y-110265535D01*
X133025000Y-110265535D01*
X132953571Y-110229821D01*
X132917857Y-110194107D01*
X133667857Y-110265535D02*
X133667857Y-109515535D01*
X133917857Y-110051250D01*
X134167857Y-109515535D01*
X134167857Y-110265535D01*
X134525000Y-110265535D02*
X134525000Y-109515535D01*
X134775000Y-110051250D01*
X135025000Y-109515535D01*
X135025000Y-110265535D01*
X126400000Y-111473035D02*
X126400000Y-110723035D01*
X126828571Y-111473035D01*
X126828571Y-110723035D01*
X127328571Y-110723035D02*
X127471428Y-110723035D01*
X127542857Y-110758750D01*
X127614285Y-110830178D01*
X127650000Y-110973035D01*
X127650000Y-111223035D01*
X127614285Y-111365892D01*
X127542857Y-111437321D01*
X127471428Y-111473035D01*
X127328571Y-111473035D01*
X127257142Y-111437321D01*
X127185714Y-111365892D01*
X127150000Y-111223035D01*
X127150000Y-110973035D01*
X127185714Y-110830178D01*
X127257142Y-110758750D01*
X127328571Y-110723035D01*
X127864285Y-110723035D02*
X128292857Y-110723035D01*
X128078571Y-111473035D02*
X128078571Y-110723035D01*
X129257142Y-110723035D02*
X129400000Y-110723035D01*
X129471428Y-110758750D01*
X129542857Y-110830178D01*
X129578571Y-110973035D01*
X129578571Y-111223035D01*
X129542857Y-111365892D01*
X129471428Y-111437321D01*
X129400000Y-111473035D01*
X129257142Y-111473035D01*
X129185714Y-111437321D01*
X129114285Y-111365892D01*
X129078571Y-111223035D01*
X129078571Y-110973035D01*
X129114285Y-110830178D01*
X129185714Y-110758750D01*
X129257142Y-110723035D01*
X129900000Y-111473035D02*
X129900000Y-110723035D01*
X130328571Y-111473035D01*
X130328571Y-110723035D01*
X131150000Y-110723035D02*
X131578571Y-110723035D01*
X131364285Y-111473035D02*
X131364285Y-110723035D01*
X131828571Y-111473035D02*
X131828571Y-110723035D01*
X131828571Y-111080178D02*
X132257142Y-111080178D01*
X132257142Y-111473035D02*
X132257142Y-110723035D01*
X132614285Y-111473035D02*
X132614285Y-110723035D01*
X132935714Y-111437321D02*
X133042857Y-111473035D01*
X133221428Y-111473035D01*
X133292857Y-111437321D01*
X133328571Y-111401607D01*
X133364285Y-111330178D01*
X133364285Y-111258750D01*
X133328571Y-111187321D01*
X133292857Y-111151607D01*
X133221428Y-111115892D01*
X133078571Y-111080178D01*
X133007142Y-111044464D01*
X132971428Y-111008750D01*
X132935714Y-110937321D01*
X132935714Y-110865892D01*
X132971428Y-110794464D01*
X133007142Y-110758750D01*
X133078571Y-110723035D01*
X133257142Y-110723035D01*
X133364285Y-110758750D01*
X134221428Y-111437321D02*
X134328571Y-111473035D01*
X134507142Y-111473035D01*
X134578571Y-111437321D01*
X134614285Y-111401607D01*
X134650000Y-111330178D01*
X134650000Y-111258750D01*
X134614285Y-111187321D01*
X134578571Y-111151607D01*
X134507142Y-111115892D01*
X134364285Y-111080178D01*
X134292857Y-111044464D01*
X134257142Y-111008750D01*
X134221428Y-110937321D01*
X134221428Y-110865892D01*
X134257142Y-110794464D01*
X134292857Y-110758750D01*
X134364285Y-110723035D01*
X134542857Y-110723035D01*
X134650000Y-110758750D01*
X134971428Y-111473035D02*
X134971428Y-110723035D01*
X135328571Y-111473035D02*
X135328571Y-110723035D01*
X135507142Y-110723035D01*
X135614285Y-110758750D01*
X135685714Y-110830178D01*
X135721428Y-110901607D01*
X135757142Y-111044464D01*
X135757142Y-111151607D01*
X135721428Y-111294464D01*
X135685714Y-111365892D01*
X135614285Y-111437321D01*
X135507142Y-111473035D01*
X135328571Y-111473035D01*
X136078571Y-111080178D02*
X136328571Y-111080178D01*
X136435714Y-111473035D02*
X136078571Y-111473035D01*
X136078571Y-110723035D01*
X136435714Y-110723035D01*
D12*
X137608571Y-91229761D02*
X137751428Y-91277380D01*
X137989523Y-91277380D01*
X138084761Y-91229761D01*
X138132380Y-91182142D01*
X138180000Y-91086904D01*
X138180000Y-90991666D01*
X138132380Y-90896428D01*
X138084761Y-90848809D01*
X137989523Y-90801190D01*
X137799047Y-90753571D01*
X137703809Y-90705952D01*
X137656190Y-90658333D01*
X137608571Y-90563095D01*
X137608571Y-90467857D01*
X137656190Y-90372619D01*
X137703809Y-90325000D01*
X137799047Y-90277380D01*
X138037142Y-90277380D01*
X138180000Y-90325000D01*
X138608571Y-91277380D02*
X138608571Y-90277380D01*
X139180000Y-91277380D01*
X139180000Y-90277380D01*
X139656190Y-90753571D02*
X139989523Y-90753571D01*
X140132380Y-91277380D02*
X139656190Y-91277380D01*
X139656190Y-90277380D01*
X140132380Y-90277380D01*
X140513333Y-91229761D02*
X140656190Y-91277380D01*
X140894285Y-91277380D01*
X140989523Y-91229761D01*
X141037142Y-91182142D01*
X141084761Y-91086904D01*
X141084761Y-90991666D01*
X141037142Y-90896428D01*
X140989523Y-90848809D01*
X140894285Y-90801190D01*
X140703809Y-90753571D01*
X140608571Y-90705952D01*
X140560952Y-90658333D01*
X140513333Y-90563095D01*
X140513333Y-90467857D01*
X140560952Y-90372619D01*
X140608571Y-90325000D01*
X140703809Y-90277380D01*
X140941904Y-90277380D01*
X141084761Y-90325000D01*
X141465714Y-90372619D02*
X141513333Y-90325000D01*
X141608571Y-90277380D01*
X141846666Y-90277380D01*
X141941904Y-90325000D01*
X141989523Y-90372619D01*
X142037142Y-90467857D01*
X142037142Y-90563095D01*
X141989523Y-90705952D01*
X141418095Y-91277380D01*
X142037142Y-91277380D01*
X142322857Y-90277380D02*
X142656190Y-91277380D01*
X142989523Y-90277380D01*
X143846666Y-90325000D02*
X143751428Y-90277380D01*
X143608571Y-90277380D01*
X143465714Y-90325000D01*
X143370476Y-90420238D01*
X143322857Y-90515476D01*
X143275238Y-90705952D01*
X143275238Y-90848809D01*
X143322857Y-91039285D01*
X143370476Y-91134523D01*
X143465714Y-91229761D01*
X143608571Y-91277380D01*
X143703809Y-91277380D01*
X143846666Y-91229761D01*
X143894285Y-91182142D01*
X143894285Y-90848809D01*
X143703809Y-90848809D01*
X144275238Y-90991666D02*
X144751428Y-90991666D01*
X144180000Y-91277380D02*
X144513333Y-90277380D01*
X144846666Y-91277380D01*
X139989523Y-91887380D02*
X140560952Y-91887380D01*
X140275238Y-92887380D02*
X140275238Y-91887380D01*
X141037142Y-92887380D02*
X140941904Y-92839761D01*
X140894285Y-92792142D01*
X140846666Y-92696904D01*
X140846666Y-92411190D01*
X140894285Y-92315952D01*
X140941904Y-92268333D01*
X141037142Y-92220714D01*
X141180000Y-92220714D01*
X141275238Y-92268333D01*
X141322857Y-92315952D01*
X141370476Y-92411190D01*
X141370476Y-92696904D01*
X141322857Y-92792142D01*
X141275238Y-92839761D01*
X141180000Y-92887380D01*
X141037142Y-92887380D01*
X141799047Y-92220714D02*
X141799047Y-93220714D01*
X141799047Y-92268333D02*
X141894285Y-92220714D01*
X142084761Y-92220714D01*
X142180000Y-92268333D01*
X142227619Y-92315952D01*
X142275238Y-92411190D01*
X142275238Y-92696904D01*
X142227619Y-92792142D01*
X142180000Y-92839761D01*
X142084761Y-92887380D01*
X141894285Y-92887380D01*
X141799047Y-92839761D01*
D13*
X147902142Y-110184107D02*
X147866428Y-110219821D01*
X147759285Y-110255535D01*
X147687857Y-110255535D01*
X147580714Y-110219821D01*
X147509285Y-110148392D01*
X147473571Y-110076964D01*
X147437857Y-109934107D01*
X147437857Y-109826964D01*
X147473571Y-109684107D01*
X147509285Y-109612678D01*
X147580714Y-109541250D01*
X147687857Y-109505535D01*
X147759285Y-109505535D01*
X147866428Y-109541250D01*
X147902142Y-109576964D01*
X148223571Y-110255535D02*
X148223571Y-109505535D01*
X148223571Y-109862678D02*
X148652142Y-109862678D01*
X148652142Y-110255535D02*
X148652142Y-109505535D01*
X149152142Y-109505535D02*
X149295000Y-109505535D01*
X149366428Y-109541250D01*
X149437857Y-109612678D01*
X149473571Y-109755535D01*
X149473571Y-110005535D01*
X149437857Y-110148392D01*
X149366428Y-110219821D01*
X149295000Y-110255535D01*
X149152142Y-110255535D01*
X149080714Y-110219821D01*
X149009285Y-110148392D01*
X148973571Y-110005535D01*
X148973571Y-109755535D01*
X149009285Y-109612678D01*
X149080714Y-109541250D01*
X149152142Y-109505535D01*
X149937857Y-109505535D02*
X150080714Y-109505535D01*
X150152142Y-109541250D01*
X150223571Y-109612678D01*
X150259285Y-109755535D01*
X150259285Y-110005535D01*
X150223571Y-110148392D01*
X150152142Y-110219821D01*
X150080714Y-110255535D01*
X149937857Y-110255535D01*
X149866428Y-110219821D01*
X149795000Y-110148392D01*
X149759285Y-110005535D01*
X149759285Y-109755535D01*
X149795000Y-109612678D01*
X149866428Y-109541250D01*
X149937857Y-109505535D01*
X150545000Y-110219821D02*
X150652142Y-110255535D01*
X150830714Y-110255535D01*
X150902142Y-110219821D01*
X150937857Y-110184107D01*
X150973571Y-110112678D01*
X150973571Y-110041250D01*
X150937857Y-109969821D01*
X150902142Y-109934107D01*
X150830714Y-109898392D01*
X150687857Y-109862678D01*
X150616428Y-109826964D01*
X150580714Y-109791250D01*
X150545000Y-109719821D01*
X150545000Y-109648392D01*
X150580714Y-109576964D01*
X150616428Y-109541250D01*
X150687857Y-109505535D01*
X150866428Y-109505535D01*
X150973571Y-109541250D01*
X151295000Y-109862678D02*
X151545000Y-109862678D01*
X151652142Y-110255535D02*
X151295000Y-110255535D01*
X151295000Y-109505535D01*
X151652142Y-109505535D01*
X152687857Y-109505535D02*
X152830714Y-109505535D01*
X152902142Y-109541250D01*
X152973571Y-109612678D01*
X153009285Y-109755535D01*
X153009285Y-110005535D01*
X152973571Y-110148392D01*
X152902142Y-110219821D01*
X152830714Y-110255535D01*
X152687857Y-110255535D01*
X152616428Y-110219821D01*
X152545000Y-110148392D01*
X152509285Y-110005535D01*
X152509285Y-109755535D01*
X152545000Y-109612678D01*
X152616428Y-109541250D01*
X152687857Y-109505535D01*
X153330714Y-110255535D02*
X153330714Y-109505535D01*
X153759285Y-110255535D01*
X153759285Y-109505535D01*
X154116428Y-109862678D02*
X154366428Y-109862678D01*
X154473571Y-110255535D02*
X154116428Y-110255535D01*
X154116428Y-109505535D01*
X154473571Y-109505535D01*
X154795000Y-110184107D02*
X154830714Y-110219821D01*
X154795000Y-110255535D01*
X154759285Y-110219821D01*
X154795000Y-110184107D01*
X154795000Y-110255535D01*
X154795000Y-109791250D02*
X154830714Y-109826964D01*
X154795000Y-109862678D01*
X154759285Y-109826964D01*
X154795000Y-109791250D01*
X154795000Y-109862678D01*
X143402142Y-111391607D02*
X143366428Y-111427321D01*
X143259285Y-111463035D01*
X143187857Y-111463035D01*
X143080714Y-111427321D01*
X143009285Y-111355892D01*
X142973571Y-111284464D01*
X142937857Y-111141607D01*
X142937857Y-111034464D01*
X142973571Y-110891607D01*
X143009285Y-110820178D01*
X143080714Y-110748750D01*
X143187857Y-110713035D01*
X143259285Y-110713035D01*
X143366428Y-110748750D01*
X143402142Y-110784464D01*
X143687857Y-111427321D02*
X143795000Y-111463035D01*
X143973571Y-111463035D01*
X144045000Y-111427321D01*
X144080714Y-111391607D01*
X144116428Y-111320178D01*
X144116428Y-111248750D01*
X144080714Y-111177321D01*
X144045000Y-111141607D01*
X143973571Y-111105892D01*
X143830714Y-111070178D01*
X143759285Y-111034464D01*
X143723571Y-110998750D01*
X143687857Y-110927321D01*
X143687857Y-110855892D01*
X143723571Y-110784464D01*
X143759285Y-110748750D01*
X143830714Y-110713035D01*
X144009285Y-110713035D01*
X144116428Y-110748750D01*
X144580714Y-111105892D02*
X144580714Y-111463035D01*
X144330714Y-110713035D02*
X144580714Y-111105892D01*
X144830714Y-110713035D01*
X145080714Y-111463035D02*
X145080714Y-110713035D01*
X145509285Y-111463035D01*
X145509285Y-110713035D01*
X146295000Y-111391607D02*
X146259285Y-111427321D01*
X146152142Y-111463035D01*
X146080714Y-111463035D01*
X145973571Y-111427321D01*
X145902142Y-111355892D01*
X145866428Y-111284464D01*
X145830714Y-111141607D01*
X145830714Y-111034464D01*
X145866428Y-110891607D01*
X145902142Y-110820178D01*
X145973571Y-110748750D01*
X146080714Y-110713035D01*
X146152142Y-110713035D01*
X146259285Y-110748750D01*
X146295000Y-110784464D01*
X147723571Y-110677321D02*
X147080714Y-111641607D01*
X148973571Y-111391607D02*
X148937857Y-111427321D01*
X148830714Y-111463035D01*
X148759285Y-111463035D01*
X148652142Y-111427321D01*
X148580714Y-111355892D01*
X148545000Y-111284464D01*
X148509285Y-111141607D01*
X148509285Y-111034464D01*
X148545000Y-110891607D01*
X148580714Y-110820178D01*
X148652142Y-110748750D01*
X148759285Y-110713035D01*
X148830714Y-110713035D01*
X148937857Y-110748750D01*
X148973571Y-110784464D01*
X149187857Y-110713035D02*
X149437857Y-111463035D01*
X149687857Y-110713035D01*
X150187857Y-111070178D02*
X150295000Y-111105892D01*
X150330714Y-111141607D01*
X150366428Y-111213035D01*
X150366428Y-111320178D01*
X150330714Y-111391607D01*
X150295000Y-111427321D01*
X150223571Y-111463035D01*
X149937857Y-111463035D01*
X149937857Y-110713035D01*
X150187857Y-110713035D01*
X150259285Y-110748750D01*
X150295000Y-110784464D01*
X150330714Y-110855892D01*
X150330714Y-110927321D01*
X150295000Y-110998750D01*
X150259285Y-111034464D01*
X150187857Y-111070178D01*
X149937857Y-111070178D01*
X150652142Y-111427321D02*
X150759285Y-111463035D01*
X150937857Y-111463035D01*
X151009285Y-111427321D01*
X151045000Y-111391607D01*
X151080714Y-111320178D01*
X151080714Y-111248750D01*
X151045000Y-111177321D01*
X151009285Y-111141607D01*
X150937857Y-111105892D01*
X150795000Y-111070178D01*
X150723571Y-111034464D01*
X150687857Y-110998750D01*
X150652142Y-110927321D01*
X150652142Y-110855892D01*
X150687857Y-110784464D01*
X150723571Y-110748750D01*
X150795000Y-110713035D01*
X150973571Y-110713035D01*
X151080714Y-110748750D01*
X152509285Y-110677321D02*
X151866428Y-111641607D01*
X153687857Y-111463035D02*
X153330714Y-111463035D01*
X153330714Y-110713035D01*
X153937857Y-110713035D02*
X153937857Y-111320178D01*
X153973571Y-111391607D01*
X154009285Y-111427321D01*
X154080714Y-111463035D01*
X154223571Y-111463035D01*
X154295000Y-111427321D01*
X154330714Y-111391607D01*
X154366428Y-111320178D01*
X154366428Y-110713035D01*
X154723571Y-111463035D02*
X154723571Y-110713035D01*
X154973571Y-111248750D01*
X155223571Y-110713035D01*
X155223571Y-111463035D01*
X155545000Y-111248750D02*
X155902142Y-111248750D01*
X155473571Y-111463035D02*
X155723571Y-110713035D01*
X155973571Y-111463035D01*
D11*
X143541190Y-101576071D02*
X143517380Y-101599880D01*
X143445952Y-101623690D01*
X143398333Y-101623690D01*
X143326904Y-101599880D01*
X143279285Y-101552261D01*
X143255476Y-101504642D01*
X143231666Y-101409404D01*
X143231666Y-101337976D01*
X143255476Y-101242738D01*
X143279285Y-101195119D01*
X143326904Y-101147500D01*
X143398333Y-101123690D01*
X143445952Y-101123690D01*
X143517380Y-101147500D01*
X143541190Y-101171309D01*
X143731666Y-101599880D02*
X143803095Y-101623690D01*
X143922142Y-101623690D01*
X143969761Y-101599880D01*
X143993571Y-101576071D01*
X144017380Y-101528452D01*
X144017380Y-101480833D01*
X143993571Y-101433214D01*
X143969761Y-101409404D01*
X143922142Y-101385595D01*
X143826904Y-101361785D01*
X143779285Y-101337976D01*
X143755476Y-101314166D01*
X143731666Y-101266547D01*
X143731666Y-101218928D01*
X143755476Y-101171309D01*
X143779285Y-101147500D01*
X143826904Y-101123690D01*
X143945952Y-101123690D01*
X144017380Y-101147500D01*
X144326904Y-101385595D02*
X144326904Y-101623690D01*
X144160238Y-101123690D02*
X144326904Y-101385595D01*
X144493571Y-101123690D01*
X144660238Y-101623690D02*
X144660238Y-101123690D01*
X144945952Y-101623690D01*
X144945952Y-101123690D01*
X145469761Y-101576071D02*
X145445952Y-101599880D01*
X145374523Y-101623690D01*
X145326904Y-101623690D01*
X145255476Y-101599880D01*
X145207857Y-101552261D01*
X145184047Y-101504642D01*
X145160238Y-101409404D01*
X145160238Y-101337976D01*
X145184047Y-101242738D01*
X145207857Y-101195119D01*
X145255476Y-101147500D01*
X145326904Y-101123690D01*
X145374523Y-101123690D01*
X145445952Y-101147500D01*
X145469761Y-101171309D01*
X140755476Y-102619166D02*
X140731666Y-102595357D01*
X140684047Y-102523928D01*
X140660238Y-102476309D01*
X140636428Y-102404880D01*
X140612619Y-102285833D01*
X140612619Y-102190595D01*
X140636428Y-102071547D01*
X140660238Y-102000119D01*
X140684047Y-101952500D01*
X140731666Y-101881071D01*
X140755476Y-101857261D01*
X140945952Y-102428690D02*
X140945952Y-101928690D01*
X141231666Y-102428690D01*
X141231666Y-101928690D01*
X141541190Y-102428690D02*
X141493571Y-102404880D01*
X141469761Y-102381071D01*
X141445952Y-102333452D01*
X141445952Y-102190595D01*
X141469761Y-102142976D01*
X141493571Y-102119166D01*
X141541190Y-102095357D01*
X141612619Y-102095357D01*
X141660238Y-102119166D01*
X141684047Y-102142976D01*
X141707857Y-102190595D01*
X141707857Y-102333452D01*
X141684047Y-102381071D01*
X141660238Y-102404880D01*
X141612619Y-102428690D01*
X141541190Y-102428690D01*
X141850714Y-102095357D02*
X142041190Y-102095357D01*
X141922142Y-101928690D02*
X141922142Y-102357261D01*
X141945952Y-102404880D01*
X141993571Y-102428690D01*
X142041190Y-102428690D01*
X142517380Y-102095357D02*
X142707857Y-102095357D01*
X142588809Y-102428690D02*
X142588809Y-102000119D01*
X142612619Y-101952500D01*
X142660238Y-101928690D01*
X142707857Y-101928690D01*
X142945952Y-102428690D02*
X142898333Y-102404880D01*
X142874523Y-102381071D01*
X142850714Y-102333452D01*
X142850714Y-102190595D01*
X142874523Y-102142976D01*
X142898333Y-102119166D01*
X142945952Y-102095357D01*
X143017380Y-102095357D01*
X143065000Y-102119166D01*
X143088809Y-102142976D01*
X143112619Y-102190595D01*
X143112619Y-102333452D01*
X143088809Y-102381071D01*
X143065000Y-102404880D01*
X143017380Y-102428690D01*
X142945952Y-102428690D01*
X143326904Y-102428690D02*
X143326904Y-102095357D01*
X143326904Y-102190595D02*
X143350714Y-102142976D01*
X143374523Y-102119166D01*
X143422142Y-102095357D01*
X143469761Y-102095357D01*
X144017380Y-102428690D02*
X144017380Y-101928690D01*
X144207857Y-101928690D01*
X144255476Y-101952500D01*
X144279285Y-101976309D01*
X144303095Y-102023928D01*
X144303095Y-102095357D01*
X144279285Y-102142976D01*
X144255476Y-102166785D01*
X144207857Y-102190595D01*
X144017380Y-102190595D01*
X144493571Y-102285833D02*
X144731666Y-102285833D01*
X144445952Y-102428690D02*
X144612619Y-101928690D01*
X144779285Y-102428690D01*
X145184047Y-102428690D02*
X144945952Y-102428690D01*
X144945952Y-101928690D01*
X145303095Y-102619166D02*
X145326904Y-102595357D01*
X145374523Y-102523928D01*
X145398333Y-102476309D01*
X145422142Y-102404880D01*
X145445952Y-102285833D01*
X145445952Y-102190595D01*
X145422142Y-102071547D01*
X145398333Y-102000119D01*
X145374523Y-101952500D01*
X145326904Y-101881071D01*
X145303095Y-101857261D01*
D13*
X144938571Y-103697857D02*
X144902857Y-103733571D01*
X144795714Y-103769285D01*
X144724285Y-103769285D01*
X144617142Y-103733571D01*
X144545714Y-103662142D01*
X144510000Y-103590714D01*
X144474285Y-103447857D01*
X144474285Y-103340714D01*
X144510000Y-103197857D01*
X144545714Y-103126428D01*
X144617142Y-103055000D01*
X144724285Y-103019285D01*
X144795714Y-103019285D01*
X144902857Y-103055000D01*
X144938571Y-103090714D01*
X145152857Y-103019285D02*
X145402857Y-103769285D01*
X145652857Y-103019285D01*
X146152857Y-103376428D02*
X146260000Y-103412142D01*
X146295714Y-103447857D01*
X146331428Y-103519285D01*
X146331428Y-103626428D01*
X146295714Y-103697857D01*
X146260000Y-103733571D01*
X146188571Y-103769285D01*
X145902857Y-103769285D01*
X145902857Y-103019285D01*
X146152857Y-103019285D01*
X146224285Y-103055000D01*
X146260000Y-103090714D01*
X146295714Y-103162142D01*
X146295714Y-103233571D01*
X146260000Y-103305000D01*
X146224285Y-103340714D01*
X146152857Y-103376428D01*
X145902857Y-103376428D01*
X146617142Y-103733571D02*
X146724285Y-103769285D01*
X146902857Y-103769285D01*
X146974285Y-103733571D01*
X147010000Y-103697857D01*
X147045714Y-103626428D01*
X147045714Y-103555000D01*
X147010000Y-103483571D01*
X146974285Y-103447857D01*
X146902857Y-103412142D01*
X146760000Y-103376428D01*
X146688571Y-103340714D01*
X146652857Y-103305000D01*
X146617142Y-103233571D01*
X146617142Y-103162142D01*
X146652857Y-103090714D01*
X146688571Y-103055000D01*
X146760000Y-103019285D01*
X146938571Y-103019285D01*
X147045714Y-103055000D01*
X152099285Y-104629285D02*
X151742142Y-104629285D01*
X151742142Y-103879285D01*
X152349285Y-103879285D02*
X152349285Y-104486428D01*
X152385000Y-104557857D01*
X152420714Y-104593571D01*
X152492142Y-104629285D01*
X152635000Y-104629285D01*
X152706428Y-104593571D01*
X152742142Y-104557857D01*
X152777857Y-104486428D01*
X152777857Y-103879285D01*
X153135000Y-104629285D02*
X153135000Y-103879285D01*
X153385000Y-104415000D01*
X153635000Y-103879285D01*
X153635000Y-104629285D01*
X153956428Y-104415000D02*
X154313571Y-104415000D01*
X153885000Y-104629285D02*
X154135000Y-103879285D01*
X154385000Y-104629285D01*
D11*
X145333809Y-97314285D02*
X145167142Y-97314285D01*
X145167142Y-97576190D02*
X145167142Y-97076190D01*
X145405238Y-97076190D01*
X145690952Y-97076190D02*
X145786190Y-97076190D01*
X145833809Y-97100000D01*
X145881428Y-97147619D01*
X145905238Y-97242857D01*
X145905238Y-97409523D01*
X145881428Y-97504761D01*
X145833809Y-97552380D01*
X145786190Y-97576190D01*
X145690952Y-97576190D01*
X145643333Y-97552380D01*
X145595714Y-97504761D01*
X145571904Y-97409523D01*
X145571904Y-97242857D01*
X145595714Y-97147619D01*
X145643333Y-97100000D01*
X145690952Y-97076190D01*
X146405238Y-97576190D02*
X146238571Y-97338095D01*
X146119523Y-97576190D02*
X146119523Y-97076190D01*
X146310000Y-97076190D01*
X146357619Y-97100000D01*
X146381428Y-97123809D01*
X146405238Y-97171428D01*
X146405238Y-97242857D01*
X146381428Y-97290476D01*
X146357619Y-97314285D01*
X146310000Y-97338095D01*
X146119523Y-97338095D01*
X147000476Y-97576190D02*
X147000476Y-97076190D01*
X147190952Y-97076190D01*
X147238571Y-97100000D01*
X147262380Y-97123809D01*
X147286190Y-97171428D01*
X147286190Y-97242857D01*
X147262380Y-97290476D01*
X147238571Y-97314285D01*
X147190952Y-97338095D01*
X147000476Y-97338095D01*
X147476666Y-97433333D02*
X147714761Y-97433333D01*
X147429047Y-97576190D02*
X147595714Y-97076190D01*
X147762380Y-97576190D01*
X148167142Y-97576190D02*
X147929047Y-97576190D01*
X147929047Y-97076190D01*
X148714761Y-97385714D02*
X149095714Y-97385714D01*
X149667142Y-97076190D02*
X150000476Y-97076190D01*
X149786190Y-97576190D01*
X150429047Y-97076190D02*
X150190952Y-97076190D01*
X150167142Y-97314285D01*
X150190952Y-97290476D01*
X150238571Y-97266666D01*
X150357619Y-97266666D01*
X150405238Y-97290476D01*
X150429047Y-97314285D01*
X150452857Y-97361904D01*
X150452857Y-97480952D01*
X150429047Y-97528571D01*
X150405238Y-97552380D01*
X150357619Y-97576190D01*
X150238571Y-97576190D01*
X150190952Y-97552380D01*
X150167142Y-97528571D01*
X151143333Y-97076190D02*
X151238571Y-97076190D01*
X151286190Y-97100000D01*
X151333809Y-97147619D01*
X151357619Y-97242857D01*
X151357619Y-97409523D01*
X151333809Y-97504761D01*
X151286190Y-97552380D01*
X151238571Y-97576190D01*
X151143333Y-97576190D01*
X151095714Y-97552380D01*
X151048095Y-97504761D01*
X151024285Y-97409523D01*
X151024285Y-97242857D01*
X151048095Y-97147619D01*
X151095714Y-97100000D01*
X151143333Y-97076190D01*
X151571904Y-97576190D02*
X151571904Y-97076190D01*
X151786190Y-97576190D02*
X151786190Y-97314285D01*
X151762380Y-97266666D01*
X151714761Y-97242857D01*
X151643333Y-97242857D01*
X151595714Y-97266666D01*
X151571904Y-97290476D01*
X152024285Y-97576190D02*
X152024285Y-97242857D01*
X152024285Y-97290476D02*
X152048095Y-97266666D01*
X152095714Y-97242857D01*
X152167142Y-97242857D01*
X152214761Y-97266666D01*
X152238571Y-97314285D01*
X152238571Y-97576190D01*
X152238571Y-97314285D02*
X152262380Y-97266666D01*
X152309999Y-97242857D01*
X152381428Y-97242857D01*
X152429047Y-97266666D01*
X152452857Y-97314285D01*
X152452857Y-97576190D01*
D10*
X153210000Y-96930000D02*
X143640000Y-96930000D01*
X143640000Y-100838000D02*
X153210000Y-100840000D01*
X143640000Y-96930000D02*
X143640000Y-100830000D01*
D11*
X154006190Y-100816666D02*
X154363333Y-100816666D01*
X154434761Y-100840476D01*
X154482380Y-100888095D01*
X154506190Y-100959523D01*
X154506190Y-101007142D01*
X154506190Y-100578571D02*
X154006190Y-100578571D01*
X154006190Y-100388095D01*
X154030000Y-100340476D01*
X154053809Y-100316666D01*
X154101428Y-100292857D01*
X154172857Y-100292857D01*
X154220476Y-100316666D01*
X154244285Y-100340476D01*
X154268095Y-100388095D01*
X154268095Y-100578571D01*
X154053809Y-100102380D02*
X154030000Y-100078571D01*
X154006190Y-100030952D01*
X154006190Y-99911904D01*
X154030000Y-99864285D01*
X154053809Y-99840476D01*
X154101428Y-99816666D01*
X154149047Y-99816666D01*
X154220476Y-99840476D01*
X154506190Y-100126190D01*
X154506190Y-99816666D01*
D12*
X130685000Y-103391857D02*
X130649285Y-103427571D01*
X130542142Y-103463285D01*
X130470714Y-103463285D01*
X130363571Y-103427571D01*
X130292142Y-103356142D01*
X130256428Y-103284714D01*
X130220714Y-103141857D01*
X130220714Y-103034714D01*
X130256428Y-102891857D01*
X130292142Y-102820428D01*
X130363571Y-102749000D01*
X130470714Y-102713285D01*
X130542142Y-102713285D01*
X130649285Y-102749000D01*
X130685000Y-102784714D01*
X131327857Y-102963285D02*
X131327857Y-103463285D01*
X131149285Y-102677571D02*
X130970714Y-103213285D01*
X131435000Y-103213285D01*
X129498428Y-104479285D02*
X129069857Y-104479285D01*
X129284142Y-104479285D02*
X129284142Y-103729285D01*
X129212714Y-103836428D01*
X129141285Y-103907857D01*
X129069857Y-103943571D01*
X129962714Y-103729285D02*
X130034142Y-103729285D01*
X130105571Y-103765000D01*
X130141285Y-103800714D01*
X130177000Y-103872142D01*
X130212714Y-104015000D01*
X130212714Y-104193571D01*
X130177000Y-104336428D01*
X130141285Y-104407857D01*
X130105571Y-104443571D01*
X130034142Y-104479285D01*
X129962714Y-104479285D01*
X129891285Y-104443571D01*
X129855571Y-104407857D01*
X129819857Y-104336428D01*
X129784142Y-104193571D01*
X129784142Y-104015000D01*
X129819857Y-103872142D01*
X129855571Y-103800714D01*
X129891285Y-103765000D01*
X129962714Y-103729285D01*
X130855571Y-103979285D02*
X130855571Y-104479285D01*
X130534142Y-103979285D02*
X130534142Y-104372142D01*
X130569857Y-104443571D01*
X130641285Y-104479285D01*
X130748428Y-104479285D01*
X130819857Y-104443571D01*
X130855571Y-104407857D01*
X131462714Y-104086428D02*
X131212714Y-104086428D01*
X131212714Y-104479285D02*
X131212714Y-103729285D01*
X131569857Y-103729285D01*
X149495000Y-107137857D02*
X149459285Y-107173571D01*
X149352142Y-107209285D01*
X149280714Y-107209285D01*
X149173571Y-107173571D01*
X149102142Y-107102142D01*
X149066428Y-107030714D01*
X149030714Y-106887857D01*
X149030714Y-106780714D01*
X149066428Y-106637857D01*
X149102142Y-106566428D01*
X149173571Y-106495000D01*
X149280714Y-106459285D01*
X149352142Y-106459285D01*
X149459285Y-106495000D01*
X149495000Y-106530714D01*
X150173571Y-106459285D02*
X149816428Y-106459285D01*
X149780714Y-106816428D01*
X149816428Y-106780714D01*
X149887857Y-106745000D01*
X150066428Y-106745000D01*
X150137857Y-106780714D01*
X150173571Y-106816428D01*
X150209285Y-106887857D01*
X150209285Y-107066428D01*
X150173571Y-107137857D01*
X150137857Y-107173571D01*
X150066428Y-107209285D01*
X149887857Y-107209285D01*
X149816428Y-107173571D01*
X149780714Y-107137857D01*
X149196428Y-108319285D02*
X148767857Y-108319285D01*
X148982142Y-108319285D02*
X148982142Y-107569285D01*
X148910714Y-107676428D01*
X148839285Y-107747857D01*
X148767857Y-107783571D01*
X149660714Y-107569285D02*
X149732142Y-107569285D01*
X149803571Y-107605000D01*
X149839285Y-107640714D01*
X149875000Y-107712142D01*
X149910714Y-107855000D01*
X149910714Y-108033571D01*
X149875000Y-108176428D01*
X149839285Y-108247857D01*
X149803571Y-108283571D01*
X149732142Y-108319285D01*
X149660714Y-108319285D01*
X149589285Y-108283571D01*
X149553571Y-108247857D01*
X149517857Y-108176428D01*
X149482142Y-108033571D01*
X149482142Y-107855000D01*
X149517857Y-107712142D01*
X149553571Y-107640714D01*
X149589285Y-107605000D01*
X149660714Y-107569285D01*
X150553571Y-107819285D02*
X150553571Y-108319285D01*
X150232142Y-107819285D02*
X150232142Y-108212142D01*
X150267857Y-108283571D01*
X150339285Y-108319285D01*
X150446428Y-108319285D01*
X150517857Y-108283571D01*
X150553571Y-108247857D01*
X151160714Y-107926428D02*
X150910714Y-107926428D01*
X150910714Y-108319285D02*
X150910714Y-107569285D01*
X151267857Y-107569285D01*
D14*
X149004383Y-101578102D02*
X148873149Y-101390626D01*
X148779411Y-101578102D02*
X148779411Y-101184401D01*
X148929392Y-101184401D01*
X148966887Y-101203149D01*
X148985635Y-101221897D01*
X149004383Y-101259392D01*
X149004383Y-101315635D01*
X148985635Y-101353130D01*
X148966887Y-101371878D01*
X148929392Y-101390626D01*
X148779411Y-101390626D01*
X149379336Y-101578102D02*
X149154364Y-101578102D01*
X149266850Y-101578102D02*
X149266850Y-101184401D01*
X149229355Y-101240644D01*
X149191859Y-101278140D01*
X149154364Y-101296887D01*
X149840037Y-101315635D02*
X149840037Y-101578102D01*
X149746299Y-101165654D02*
X149652560Y-101446869D01*
X149896280Y-101446869D01*
X150008766Y-101184401D02*
X150271233Y-101184401D01*
X150102504Y-101578102D01*
X150496205Y-101184401D02*
X150533701Y-101184401D01*
X150571196Y-101203149D01*
X150589944Y-101221897D01*
X150608691Y-101259392D01*
X150627439Y-101334383D01*
X150627439Y-101428121D01*
X150608691Y-101503112D01*
X150589944Y-101540607D01*
X150571196Y-101559355D01*
X150533701Y-101578102D01*
X150496205Y-101578102D01*
X150458710Y-101559355D01*
X150439962Y-101540607D01*
X150421215Y-101503112D01*
X150402467Y-101428121D01*
X150402467Y-101334383D01*
X150421215Y-101259392D01*
X150439962Y-101221897D01*
X150458710Y-101203149D01*
X150496205Y-101184401D01*
X144258102Y-99295616D02*
X144070626Y-99426850D01*
X144258102Y-99520588D02*
X143864401Y-99520588D01*
X143864401Y-99370607D01*
X143883149Y-99333112D01*
X143901897Y-99314364D01*
X143939392Y-99295616D01*
X143995635Y-99295616D01*
X144033130Y-99314364D01*
X144051878Y-99333112D01*
X144070626Y-99370607D01*
X144070626Y-99520588D01*
X143901897Y-99145635D02*
X143883149Y-99126887D01*
X143864401Y-99089392D01*
X143864401Y-98995654D01*
X143883149Y-98958158D01*
X143901897Y-98939411D01*
X143939392Y-98920663D01*
X143976887Y-98920663D01*
X144033130Y-98939411D01*
X144258102Y-99164383D01*
X144258102Y-98920663D01*
X146688102Y-99295616D02*
X146500626Y-99426850D01*
X146688102Y-99520588D02*
X146294401Y-99520588D01*
X146294401Y-99370607D01*
X146313149Y-99333112D01*
X146331897Y-99314364D01*
X146369392Y-99295616D01*
X146425635Y-99295616D01*
X146463130Y-99314364D01*
X146481878Y-99333112D01*
X146500626Y-99370607D01*
X146500626Y-99520588D01*
X146294401Y-99164383D02*
X146294401Y-98920663D01*
X146444383Y-99051897D01*
X146444383Y-98995654D01*
X146463130Y-98958158D01*
X146481878Y-98939411D01*
X146519373Y-98920663D01*
X146613112Y-98920663D01*
X146650607Y-98939411D01*
X146669355Y-98958158D01*
X146688102Y-98995654D01*
X146688102Y-99108140D01*
X146669355Y-99145635D01*
X146650607Y-99164383D01*
X149138102Y-99295616D02*
X148950626Y-99426850D01*
X149138102Y-99520588D02*
X148744401Y-99520588D01*
X148744401Y-99370607D01*
X148763149Y-99333112D01*
X148781897Y-99314364D01*
X148819392Y-99295616D01*
X148875635Y-99295616D01*
X148913130Y-99314364D01*
X148931878Y-99333112D01*
X148950626Y-99370607D01*
X148950626Y-99520588D01*
X148875635Y-98958158D02*
X149138102Y-98958158D01*
X148725654Y-99051897D02*
X149006869Y-99145635D01*
X149006869Y-98901915D01*
X151398102Y-99295616D02*
X151210626Y-99426850D01*
X151398102Y-99520588D02*
X151004401Y-99520588D01*
X151004401Y-99370607D01*
X151023149Y-99333112D01*
X151041897Y-99314364D01*
X151079392Y-99295616D01*
X151135635Y-99295616D01*
X151173130Y-99314364D01*
X151191878Y-99333112D01*
X151210626Y-99370607D01*
X151210626Y-99520588D01*
X151004401Y-98939411D02*
X151004401Y-99126887D01*
X151191878Y-99145635D01*
X151173130Y-99126887D01*
X151154383Y-99089392D01*
X151154383Y-98995654D01*
X151173130Y-98958158D01*
X151191878Y-98939411D01*
X151229373Y-98920663D01*
X151323112Y-98920663D01*
X151360607Y-98939411D01*
X151379355Y-98958158D01*
X151398102Y-98995654D01*
X151398102Y-99089392D01*
X151379355Y-99126887D01*
X151360607Y-99145635D01*
D11*
X148913333Y-102236190D02*
X148913333Y-102593333D01*
X148889523Y-102664761D01*
X148841904Y-102712380D01*
X148770476Y-102736190D01*
X148722857Y-102736190D01*
X149151428Y-102736190D02*
X149151428Y-102236190D01*
X149341904Y-102236190D01*
X149389523Y-102260000D01*
X149413333Y-102283809D01*
X149437142Y-102331428D01*
X149437142Y-102402857D01*
X149413333Y-102450476D01*
X149389523Y-102474285D01*
X149341904Y-102498095D01*
X149151428Y-102498095D01*
X149913333Y-102736190D02*
X149627619Y-102736190D01*
X149770476Y-102736190D02*
X149770476Y-102236190D01*
X149722857Y-102307619D01*
X149675238Y-102355238D01*
X149627619Y-102379047D01*
D15*
X152350000Y-101070000D02*
G75*
G03*
X151650000Y-101770000I0J-700000D01*
G01*
X154450000Y-101770000D02*
G75*
G03*
X153750000Y-101070000I-699999J1D01*
G01*
X153750000Y-103070000D02*
G75*
G03*
X154450000Y-102370000I1J699999D01*
G01*
X151650000Y-102370000D02*
G75*
G03*
X152350000Y-103070000I700000J0D01*
G01*
X154450000Y-101770000D02*
X154450000Y-102370000D01*
X151650000Y-102370000D02*
X151650000Y-101770000D01*
X152350000Y-101070000D02*
X153750000Y-101070000D01*
X153750000Y-103070000D02*
X152350000Y-103070000D01*
D10*
X147070000Y-101280000D02*
X147290000Y-101280000D01*
X147070000Y-102180000D02*
X147290000Y-102180000D01*
X145580000Y-99130000D02*
X145580000Y-98910000D01*
X144680000Y-99130000D02*
X144680000Y-98910000D01*
X148010000Y-99130000D02*
X148010000Y-98910000D01*
X147110000Y-99130000D02*
X147110000Y-98910000D01*
X150460000Y-99130000D02*
X150460000Y-98910000D01*
X149560000Y-99130000D02*
X149560000Y-98910000D01*
X151820000Y-99130000D02*
X151820000Y-98910000D01*
X152720000Y-99130000D02*
X152720000Y-98910000D01*
D15*
X148040000Y-102917500D02*
G75*
G03*
X147340000Y-103617500I0J-700000D01*
G01*
X147340000Y-104217500D02*
G75*
G03*
X148040000Y-104917500I700000J0D01*
G01*
X150740000Y-104917500D02*
G75*
G03*
X151440000Y-104217500I0J700000D01*
G01*
X151440000Y-103617500D02*
G75*
G03*
X150740000Y-102917500I-700000J0D01*
G01*
X147990000Y-102917500D02*
X150790000Y-102917500D01*
X151440000Y-103617500D02*
X151440000Y-104217500D01*
X150790000Y-104917500D02*
X147990000Y-104917500D01*
X147340000Y-104217500D02*
X147340000Y-103617500D01*
%LPC*%
G36*
X150220000Y-104617500D02*
G01*
X148560000Y-104617500D01*
X148560000Y-103217500D01*
X150220000Y-103217500D01*
X150220000Y-104617500D01*
G37*
D11*
X150220000Y-104617500D02*
X148560000Y-104617500D01*
X148560000Y-103217500D01*
X150220000Y-103217500D01*
X150220000Y-104617500D01*
D16*
X152400000Y-102070000D03*
D17*
X153700000Y-102070000D03*
D18*
X132430000Y-103275000D03*
X132430000Y-104825000D03*
X148060000Y-106310000D03*
X148060000Y-107860000D03*
D19*
X126550000Y-98550000D03*
X128950000Y-100550000D03*
X132650000Y-98550000D03*
X134450000Y-100550000D03*
X138150000Y-98550000D03*
D20*
X146980000Y-95540000D03*
X144560000Y-95540000D03*
X142140000Y-95540000D03*
X139720000Y-95540000D03*
X137300000Y-95540000D03*
X134880000Y-95540000D03*
D21*
X145505000Y-108980000D03*
X143215000Y-108980000D03*
X140925000Y-108980000D03*
X138635000Y-108980000D03*
X136345000Y-108980000D03*
X144360000Y-107000000D03*
X142070000Y-107000000D03*
X139780000Y-107000000D03*
X137490000Y-107000000D03*
X135200000Y-107000000D03*
X145505000Y-105020000D03*
X143215000Y-105020000D03*
X140925000Y-105020000D03*
X138635000Y-105020000D03*
D22*
X153420000Y-107000000D03*
X128430000Y-107000000D03*
D23*
X136345000Y-105020000D03*
D24*
X148000000Y-101730000D03*
X146360000Y-101730000D03*
D25*
X145130000Y-99840000D03*
X145130000Y-98200000D03*
X147560000Y-99840000D03*
X147560000Y-98200000D03*
X150010000Y-99840000D03*
X150010000Y-98200000D03*
X152270000Y-98200000D03*
X152270000Y-99840000D03*
D26*
X149390000Y-103917500D03*
D27*
X150690000Y-103917500D03*
D28*
X148090000Y-103917500D03*
M02*
