G04 #@! TF.GenerationSoftware,KiCad,Pcbnew,(5.1.10-1-10_14)*
G04 #@! TF.CreationDate,2021-12-25T17:30:20-05:00*
G04 #@! TF.ProjectId,SNES2VGA,534e4553-3256-4474-912e-6b696361645f,1*
G04 #@! TF.SameCoordinates,Original*
G04 #@! TF.FileFunction,Soldermask,Top*
G04 #@! TF.FilePolarity,Negative*
%FSLAX46Y46*%
G04 Gerber Fmt 4.6, Leading zero omitted, Abs format (unit mm)*
G04 Created by KiCad (PCBNEW (5.1.10-1-10_14)) date 2021-12-25 17:30:20*
%MOMM*%
%LPD*%
G01*
G04 APERTURE LIST*
%ADD10C,0.100000*%
%ADD11O,1.609600X3.117600*%
%ADD12C,1.801600*%
%ADD13C,4.167600*%
%ADD14C,0.152400*%
G04 APERTURE END LIST*
D10*
G36*
X150220000Y-104000000D02*
G01*
X148560000Y-104000000D01*
X148560000Y-102600000D01*
X150220000Y-102600000D01*
X150220000Y-104000000D01*
G37*
X150220000Y-104000000D02*
X148560000Y-104000000D01*
X148560000Y-102600000D01*
X150220000Y-102600000D01*
X150220000Y-104000000D01*
G36*
G01*
X131945000Y-102764200D02*
X132915000Y-102764200D01*
G75*
G02*
X132965800Y-102815000I0J-50800D01*
G01*
X132965800Y-103735000D01*
G75*
G02*
X132915000Y-103785800I-50800J0D01*
G01*
X131945000Y-103785800D01*
G75*
G02*
X131894200Y-103735000I0J50800D01*
G01*
X131894200Y-102815000D01*
G75*
G02*
X131945000Y-102764200I50800J0D01*
G01*
G37*
G36*
G01*
X131945000Y-104314200D02*
X132915000Y-104314200D01*
G75*
G02*
X132965800Y-104365000I0J-50800D01*
G01*
X132965800Y-105285000D01*
G75*
G02*
X132915000Y-105335800I-50800J0D01*
G01*
X131945000Y-105335800D01*
G75*
G02*
X131894200Y-105285000I0J50800D01*
G01*
X131894200Y-104365000D01*
G75*
G02*
X131945000Y-104314200I50800J0D01*
G01*
G37*
G36*
G01*
X147575000Y-105799200D02*
X148545000Y-105799200D01*
G75*
G02*
X148595800Y-105850000I0J-50800D01*
G01*
X148595800Y-106770000D01*
G75*
G02*
X148545000Y-106820800I-50800J0D01*
G01*
X147575000Y-106820800D01*
G75*
G02*
X147524200Y-106770000I0J50800D01*
G01*
X147524200Y-105850000D01*
G75*
G02*
X147575000Y-105799200I50800J0D01*
G01*
G37*
G36*
G01*
X147575000Y-107349200D02*
X148545000Y-107349200D01*
G75*
G02*
X148595800Y-107400000I0J-50800D01*
G01*
X148595800Y-108320000D01*
G75*
G02*
X148545000Y-108370800I-50800J0D01*
G01*
X147575000Y-108370800D01*
G75*
G02*
X147524200Y-108320000I0J50800D01*
G01*
X147524200Y-107400000D01*
G75*
G02*
X147575000Y-107349200I50800J0D01*
G01*
G37*
D11*
X126550000Y-98550000D03*
X128950000Y-100550000D03*
X132650000Y-98550000D03*
X134450000Y-100550000D03*
X138150000Y-98550000D03*
G36*
G01*
X146179200Y-95940400D02*
X146179200Y-95139600D01*
G75*
G02*
X146579600Y-94739200I400400J0D01*
G01*
X147380400Y-94739200D01*
G75*
G02*
X147780800Y-95139600I0J-400400D01*
G01*
X147780800Y-95940400D01*
G75*
G02*
X147380400Y-96340800I-400400J0D01*
G01*
X146579600Y-96340800D01*
G75*
G02*
X146179200Y-95940400I0J400400D01*
G01*
G37*
G36*
G01*
X143759200Y-95940400D02*
X143759200Y-95139600D01*
G75*
G02*
X144159600Y-94739200I400400J0D01*
G01*
X144960400Y-94739200D01*
G75*
G02*
X145360800Y-95139600I0J-400400D01*
G01*
X145360800Y-95940400D01*
G75*
G02*
X144960400Y-96340800I-400400J0D01*
G01*
X144159600Y-96340800D01*
G75*
G02*
X143759200Y-95940400I0J400400D01*
G01*
G37*
G36*
G01*
X141339200Y-95940400D02*
X141339200Y-95139600D01*
G75*
G02*
X141739600Y-94739200I400400J0D01*
G01*
X142540400Y-94739200D01*
G75*
G02*
X142940800Y-95139600I0J-400400D01*
G01*
X142940800Y-95940400D01*
G75*
G02*
X142540400Y-96340800I-400400J0D01*
G01*
X141739600Y-96340800D01*
G75*
G02*
X141339200Y-95940400I0J400400D01*
G01*
G37*
G36*
G01*
X138919200Y-95940400D02*
X138919200Y-95139600D01*
G75*
G02*
X139319600Y-94739200I400400J0D01*
G01*
X140120400Y-94739200D01*
G75*
G02*
X140520800Y-95139600I0J-400400D01*
G01*
X140520800Y-95940400D01*
G75*
G02*
X140120400Y-96340800I-400400J0D01*
G01*
X139319600Y-96340800D01*
G75*
G02*
X138919200Y-95940400I0J400400D01*
G01*
G37*
G36*
G01*
X136499200Y-95940400D02*
X136499200Y-95139600D01*
G75*
G02*
X136899600Y-94739200I400400J0D01*
G01*
X137700400Y-94739200D01*
G75*
G02*
X138100800Y-95139600I0J-400400D01*
G01*
X138100800Y-95940400D01*
G75*
G02*
X137700400Y-96340800I-400400J0D01*
G01*
X136899600Y-96340800D01*
G75*
G02*
X136499200Y-95940400I0J400400D01*
G01*
G37*
G36*
G01*
X134079200Y-95940400D02*
X134079200Y-95139600D01*
G75*
G02*
X134479600Y-94739200I400400J0D01*
G01*
X135280400Y-94739200D01*
G75*
G02*
X135680800Y-95139600I0J-400400D01*
G01*
X135680800Y-95940400D01*
G75*
G02*
X135280400Y-96340800I-400400J0D01*
G01*
X134479600Y-96340800D01*
G75*
G02*
X134079200Y-95940400I0J400400D01*
G01*
G37*
D12*
X145505000Y-108980000D03*
X143215000Y-108980000D03*
X140925000Y-108980000D03*
X138635000Y-108980000D03*
X136345000Y-108980000D03*
X144360000Y-107000000D03*
X142070000Y-107000000D03*
X139780000Y-107000000D03*
X137490000Y-107000000D03*
X135200000Y-107000000D03*
X145505000Y-105020000D03*
X143215000Y-105020000D03*
X140925000Y-105020000D03*
X138635000Y-105020000D03*
D13*
X153420000Y-107000000D03*
X128430000Y-107000000D03*
G36*
G01*
X135444200Y-105870000D02*
X135444200Y-104170000D01*
G75*
G02*
X135495000Y-104119200I50800J0D01*
G01*
X137195000Y-104119200D01*
G75*
G02*
X137245800Y-104170000I0J-50800D01*
G01*
X137245800Y-105870000D01*
G75*
G02*
X137195000Y-105920800I-50800J0D01*
G01*
X135495000Y-105920800D01*
G75*
G02*
X135444200Y-105870000I0J50800D01*
G01*
G37*
G36*
G01*
X143984200Y-102425000D02*
X143984200Y-101495000D01*
G75*
G02*
X144035000Y-101444200I50800J0D01*
G01*
X144825000Y-101444200D01*
G75*
G02*
X144875800Y-101495000I0J-50800D01*
G01*
X144875800Y-102425000D01*
G75*
G02*
X144825000Y-102475800I-50800J0D01*
G01*
X144035000Y-102475800D01*
G75*
G02*
X143984200Y-102425000I0J50800D01*
G01*
G37*
G36*
G01*
X145624200Y-102425000D02*
X145624200Y-101495000D01*
G75*
G02*
X145675000Y-101444200I50800J0D01*
G01*
X146465000Y-101444200D01*
G75*
G02*
X146515800Y-101495000I0J-50800D01*
G01*
X146515800Y-102425000D01*
G75*
G02*
X146465000Y-102475800I-50800J0D01*
G01*
X145675000Y-102475800D01*
G75*
G02*
X145624200Y-102425000I0J50800D01*
G01*
G37*
G36*
G01*
X145595000Y-100285800D02*
X144665000Y-100285800D01*
G75*
G02*
X144614200Y-100235000I0J50800D01*
G01*
X144614200Y-99445000D01*
G75*
G02*
X144665000Y-99394200I50800J0D01*
G01*
X145595000Y-99394200D01*
G75*
G02*
X145645800Y-99445000I0J-50800D01*
G01*
X145645800Y-100235000D01*
G75*
G02*
X145595000Y-100285800I-50800J0D01*
G01*
G37*
G36*
G01*
X145595000Y-98645800D02*
X144665000Y-98645800D01*
G75*
G02*
X144614200Y-98595000I0J50800D01*
G01*
X144614200Y-97805000D01*
G75*
G02*
X144665000Y-97754200I50800J0D01*
G01*
X145595000Y-97754200D01*
G75*
G02*
X145645800Y-97805000I0J-50800D01*
G01*
X145645800Y-98595000D01*
G75*
G02*
X145595000Y-98645800I-50800J0D01*
G01*
G37*
G36*
G01*
X148025000Y-100285800D02*
X147095000Y-100285800D01*
G75*
G02*
X147044200Y-100235000I0J50800D01*
G01*
X147044200Y-99445000D01*
G75*
G02*
X147095000Y-99394200I50800J0D01*
G01*
X148025000Y-99394200D01*
G75*
G02*
X148075800Y-99445000I0J-50800D01*
G01*
X148075800Y-100235000D01*
G75*
G02*
X148025000Y-100285800I-50800J0D01*
G01*
G37*
G36*
G01*
X148025000Y-98645800D02*
X147095000Y-98645800D01*
G75*
G02*
X147044200Y-98595000I0J50800D01*
G01*
X147044200Y-97805000D01*
G75*
G02*
X147095000Y-97754200I50800J0D01*
G01*
X148025000Y-97754200D01*
G75*
G02*
X148075800Y-97805000I0J-50800D01*
G01*
X148075800Y-98595000D01*
G75*
G02*
X148025000Y-98645800I-50800J0D01*
G01*
G37*
G36*
G01*
X150475000Y-100285800D02*
X149545000Y-100285800D01*
G75*
G02*
X149494200Y-100235000I0J50800D01*
G01*
X149494200Y-99445000D01*
G75*
G02*
X149545000Y-99394200I50800J0D01*
G01*
X150475000Y-99394200D01*
G75*
G02*
X150525800Y-99445000I0J-50800D01*
G01*
X150525800Y-100235000D01*
G75*
G02*
X150475000Y-100285800I-50800J0D01*
G01*
G37*
G36*
G01*
X150475000Y-98645800D02*
X149545000Y-98645800D01*
G75*
G02*
X149494200Y-98595000I0J50800D01*
G01*
X149494200Y-97805000D01*
G75*
G02*
X149545000Y-97754200I50800J0D01*
G01*
X150475000Y-97754200D01*
G75*
G02*
X150525800Y-97805000I0J-50800D01*
G01*
X150525800Y-98595000D01*
G75*
G02*
X150475000Y-98645800I-50800J0D01*
G01*
G37*
G36*
G01*
X152735000Y-100285800D02*
X151805000Y-100285800D01*
G75*
G02*
X151754200Y-100235000I0J50800D01*
G01*
X151754200Y-99445000D01*
G75*
G02*
X151805000Y-99394200I50800J0D01*
G01*
X152735000Y-99394200D01*
G75*
G02*
X152785800Y-99445000I0J-50800D01*
G01*
X152785800Y-100235000D01*
G75*
G02*
X152735000Y-100285800I-50800J0D01*
G01*
G37*
G36*
G01*
X152735000Y-98645800D02*
X151805000Y-98645800D01*
G75*
G02*
X151754200Y-98595000I0J50800D01*
G01*
X151754200Y-97805000D01*
G75*
G02*
X151805000Y-97754200I50800J0D01*
G01*
X152735000Y-97754200D01*
G75*
G02*
X152785800Y-97805000I0J-50800D01*
G01*
X152785800Y-98595000D01*
G75*
G02*
X152735000Y-98645800I-50800J0D01*
G01*
G37*
D14*
G36*
X148649911Y-102500176D02*
G01*
X148659440Y-102503067D01*
X148668223Y-102507761D01*
X148675921Y-102514079D01*
X148682239Y-102521777D01*
X148686933Y-102530560D01*
X148689824Y-102540089D01*
X148690800Y-102550000D01*
X148690800Y-104050000D01*
X148689824Y-104059911D01*
X148686933Y-104069440D01*
X148682239Y-104078223D01*
X148675921Y-104085921D01*
X148668223Y-104092239D01*
X148659440Y-104096933D01*
X148649911Y-104099824D01*
X148640000Y-104100800D01*
X148090000Y-104100800D01*
X148083887Y-104100198D01*
X148065466Y-104100198D01*
X148060486Y-104099953D01*
X148011655Y-104095143D01*
X148006725Y-104094412D01*
X147958600Y-104084840D01*
X147953763Y-104083628D01*
X147906808Y-104069384D01*
X147902115Y-104067705D01*
X147856782Y-104048928D01*
X147852274Y-104046796D01*
X147809001Y-104023665D01*
X147804727Y-104021103D01*
X147763928Y-103993843D01*
X147759923Y-103990873D01*
X147721994Y-103959745D01*
X147718300Y-103956397D01*
X147683603Y-103921700D01*
X147680255Y-103918006D01*
X147649127Y-103880077D01*
X147646157Y-103876072D01*
X147618897Y-103835273D01*
X147616335Y-103830999D01*
X147593204Y-103787726D01*
X147591072Y-103783218D01*
X147572295Y-103737885D01*
X147570616Y-103733192D01*
X147556372Y-103686237D01*
X147555160Y-103681400D01*
X147545588Y-103633275D01*
X147544857Y-103628345D01*
X147540047Y-103579514D01*
X147539802Y-103574534D01*
X147539802Y-103556113D01*
X147539200Y-103550000D01*
X147539200Y-103050000D01*
X147539802Y-103043887D01*
X147539802Y-103025466D01*
X147540047Y-103020486D01*
X147544857Y-102971655D01*
X147545588Y-102966725D01*
X147555160Y-102918600D01*
X147556372Y-102913763D01*
X147570616Y-102866808D01*
X147572295Y-102862115D01*
X147591072Y-102816782D01*
X147593204Y-102812274D01*
X147616335Y-102769001D01*
X147618897Y-102764727D01*
X147646157Y-102723928D01*
X147649127Y-102719923D01*
X147680255Y-102681994D01*
X147683603Y-102678300D01*
X147718300Y-102643603D01*
X147721994Y-102640255D01*
X147759923Y-102609127D01*
X147763928Y-102606157D01*
X147804727Y-102578897D01*
X147809001Y-102576335D01*
X147852274Y-102553204D01*
X147856782Y-102551072D01*
X147902115Y-102532295D01*
X147906808Y-102530616D01*
X147953763Y-102516372D01*
X147958600Y-102515160D01*
X148006725Y-102505588D01*
X148011655Y-102504857D01*
X148060486Y-102500047D01*
X148065466Y-102499802D01*
X148083887Y-102499802D01*
X148090000Y-102499200D01*
X148640000Y-102499200D01*
X148649911Y-102500176D01*
G37*
G36*
X150696113Y-102499802D02*
G01*
X150714534Y-102499802D01*
X150719514Y-102500047D01*
X150768345Y-102504857D01*
X150773275Y-102505588D01*
X150821400Y-102515160D01*
X150826237Y-102516372D01*
X150873192Y-102530616D01*
X150877885Y-102532295D01*
X150923218Y-102551072D01*
X150927726Y-102553204D01*
X150970999Y-102576335D01*
X150975273Y-102578897D01*
X151016072Y-102606157D01*
X151020077Y-102609127D01*
X151058006Y-102640255D01*
X151061700Y-102643603D01*
X151096397Y-102678300D01*
X151099745Y-102681994D01*
X151130873Y-102719923D01*
X151133843Y-102723928D01*
X151161103Y-102764727D01*
X151163665Y-102769001D01*
X151186796Y-102812274D01*
X151188928Y-102816782D01*
X151207705Y-102862115D01*
X151209384Y-102866808D01*
X151223628Y-102913763D01*
X151224840Y-102918600D01*
X151234412Y-102966725D01*
X151235143Y-102971655D01*
X151239953Y-103020486D01*
X151240198Y-103025466D01*
X151240198Y-103043887D01*
X151240800Y-103050000D01*
X151240800Y-103550000D01*
X151240198Y-103556113D01*
X151240198Y-103574534D01*
X151239953Y-103579514D01*
X151235143Y-103628345D01*
X151234412Y-103633275D01*
X151224840Y-103681400D01*
X151223628Y-103686237D01*
X151209384Y-103733192D01*
X151207705Y-103737885D01*
X151188928Y-103783218D01*
X151186796Y-103787726D01*
X151163665Y-103830999D01*
X151161103Y-103835273D01*
X151133843Y-103876072D01*
X151130873Y-103880077D01*
X151099745Y-103918006D01*
X151096397Y-103921700D01*
X151061700Y-103956397D01*
X151058006Y-103959745D01*
X151020077Y-103990873D01*
X151016072Y-103993843D01*
X150975273Y-104021103D01*
X150970999Y-104023665D01*
X150927726Y-104046796D01*
X150923218Y-104048928D01*
X150877885Y-104067705D01*
X150873192Y-104069384D01*
X150826237Y-104083628D01*
X150821400Y-104084840D01*
X150773275Y-104094412D01*
X150768345Y-104095143D01*
X150719514Y-104099953D01*
X150714534Y-104100198D01*
X150696113Y-104100198D01*
X150690000Y-104100800D01*
X150140000Y-104100800D01*
X150130089Y-104099824D01*
X150120560Y-104096933D01*
X150111777Y-104092239D01*
X150104079Y-104085921D01*
X150097761Y-104078223D01*
X150093067Y-104069440D01*
X150090176Y-104059911D01*
X150089200Y-104050000D01*
X150089200Y-102550000D01*
X150090176Y-102540089D01*
X150093067Y-102530560D01*
X150097761Y-102521777D01*
X150104079Y-102514079D01*
X150111777Y-102507761D01*
X150120560Y-102503067D01*
X150130089Y-102500176D01*
X150140000Y-102499200D01*
X150690000Y-102499200D01*
X150696113Y-102499802D01*
G37*
G36*
G01*
X148839200Y-104050000D02*
X148839200Y-102550000D01*
G75*
G02*
X148890000Y-102499200I50800J0D01*
G01*
X149890000Y-102499200D01*
G75*
G02*
X149940800Y-102550000I0J-50800D01*
G01*
X149940800Y-104050000D01*
G75*
G02*
X149890000Y-104100800I-50800J0D01*
G01*
X148890000Y-104100800D01*
G75*
G02*
X148839200Y-104050000I0J50800D01*
G01*
G37*
M02*
