G04 #@! TF.GenerationSoftware,KiCad,Pcbnew,(6.0.6-0)*
G04 #@! TF.CreationDate,2023-01-30T15:29:15-05:00*
G04 #@! TF.ProjectId,SNES2VGA,534e4553-3256-4474-912e-6b696361645f,1*
G04 #@! TF.SameCoordinates,Original*
G04 #@! TF.FileFunction,Soldermask,Top*
G04 #@! TF.FilePolarity,Negative*
%FSLAX46Y46*%
G04 Gerber Fmt 4.6, Leading zero omitted, Abs format (unit mm)*
G04 Created by KiCad (PCBNEW (6.0.6-0)) date 2023-01-30 15:29:15*
%MOMM*%
%LPD*%
G01*
G04 APERTURE LIST*
G04 Aperture macros list*
%AMRoundRect*
0 Rectangle with rounded corners*
0 $1 Rounding radius*
0 $2 $3 $4 $5 $6 $7 $8 $9 X,Y pos of 4 corners*
0 Add a 4 corners polygon primitive as box body*
4,1,4,$2,$3,$4,$5,$6,$7,$8,$9,$2,$3,0*
0 Add four circle primitives for the rounded corners*
1,1,$1+$1,$2,$3*
1,1,$1+$1,$4,$5*
1,1,$1+$1,$6,$7*
1,1,$1+$1,$8,$9*
0 Add four rect primitives between the rounded corners*
20,1,$1+$1,$2,$3,$4,$5,0*
20,1,$1+$1,$4,$5,$6,$7,0*
20,1,$1+$1,$6,$7,$8,$9,0*
20,1,$1+$1,$8,$9,$2,$3,0*%
%AMFreePoly0*
4,1,37,0.012350,0.795685,0.074215,0.795307,0.088460,0.793178,0.224281,0.752559,0.237356,0.746518,0.356318,0.669411,0.367173,0.659942,0.459711,0.552545,0.467470,0.540411,0.526147,0.411359,0.530190,0.397535,0.550287,0.257202,0.550800,0.250000,0.550800,-0.250000,0.550796,-0.250620,0.550647,-0.262836,0.549947,-0.270644,0.526427,-0.410445,0.522048,-0.424167,0.460236,-0.551746,
0.452182,-0.563686,0.357047,-0.668790,0.345965,-0.677991,0.225155,-0.752168,0.211936,-0.757888,0.075163,-0.795177,0.060870,-0.796957,0.011464,-0.796051,0.000000,-0.800800,-0.500000,-0.800800,-0.535921,-0.785921,-0.550800,-0.750000,-0.550800,0.750000,-0.535921,0.785921,-0.500000,0.800800,0.000000,0.800800,0.012350,0.795685,0.012350,0.795685,$1*%
%AMFreePoly1*
4,1,37,0.535921,0.785921,0.550800,0.750000,0.550800,-0.750000,0.535921,-0.785921,0.500000,-0.800800,0.000000,-0.800800,-0.012526,-0.795612,-0.080872,-0.794359,-0.095090,-0.792057,-0.230405,-0.749782,-0.243405,-0.743581,-0.361415,-0.665026,-0.372153,-0.655426,-0.463373,-0.546907,-0.470984,-0.534678,-0.528079,-0.404919,-0.531952,-0.391047,-0.549535,-0.256587,-0.548147,-0.256405,-0.550800,-0.250000,
-0.550800,0.250000,-0.550314,0.251174,-0.550158,0.263925,-0.528347,0.404002,-0.524136,0.417775,-0.463888,0.546100,-0.455980,0.558139,-0.362136,0.664397,-0.351168,0.673732,-0.231273,0.749380,-0.218125,0.755261,-0.081818,0.794218,-0.067547,0.796173,-0.011991,0.795833,0.000000,0.800800,0.500000,0.800800,0.535921,0.785921,0.535921,0.785921,$1*%
%AMFreePoly2*
4,1,37,0.012350,0.795685,0.074215,0.795307,0.088460,0.793178,0.224281,0.752559,0.237356,0.746518,0.356318,0.669411,0.367173,0.659942,0.459711,0.552545,0.467470,0.540411,0.526147,0.411359,0.530190,0.397535,0.550287,0.257202,0.550800,0.250000,0.550800,-0.250000,0.550796,-0.250620,0.550647,-0.262836,0.549947,-0.270644,0.526427,-0.410445,0.522048,-0.424167,0.460236,-0.551746,
0.452182,-0.563686,0.357047,-0.668790,0.345965,-0.677991,0.225155,-0.752168,0.211936,-0.757888,0.075163,-0.795177,0.060870,-0.796957,0.011464,-0.796051,0.000000,-0.800800,-0.550000,-0.800800,-0.585921,-0.785921,-0.600800,-0.750000,-0.600800,0.750000,-0.585921,0.785921,-0.550000,0.800800,0.000000,0.800800,0.012350,0.795685,0.012350,0.795685,$1*%
%AMFreePoly3*
4,1,37,0.585921,0.785921,0.600800,0.750000,0.600800,-0.750000,0.585921,-0.785921,0.550000,-0.800800,0.000000,-0.800800,-0.012526,-0.795612,-0.080872,-0.794359,-0.095090,-0.792057,-0.230405,-0.749782,-0.243405,-0.743581,-0.361415,-0.665026,-0.372153,-0.655426,-0.463373,-0.546907,-0.470984,-0.534678,-0.528079,-0.404919,-0.531952,-0.391047,-0.549535,-0.256587,-0.548147,-0.256405,-0.550800,-0.250000,
-0.550800,0.250000,-0.550314,0.251174,-0.550158,0.263925,-0.528347,0.404002,-0.524136,0.417775,-0.463888,0.546100,-0.455980,0.558139,-0.362136,0.664397,-0.351168,0.673732,-0.231273,0.749380,-0.218125,0.755261,-0.081818,0.794218,-0.067547,0.796173,-0.011991,0.795833,0.000000,0.800800,0.550000,0.800800,0.585921,0.785921,0.585921,0.785921,$1*%
G04 Aperture macros list end*
%ADD10C,0.100000*%
%ADD11FreePoly0,180.000000*%
%ADD12FreePoly1,180.000000*%
%ADD13RoundRect,0.050800X-0.485000X0.460000X-0.485000X-0.460000X0.485000X-0.460000X0.485000X0.460000X0*%
%ADD14O,1.609600X3.117600*%
%ADD15RoundRect,0.425800X-0.375000X-0.375000X0.375000X-0.375000X0.375000X0.375000X-0.375000X0.375000X0*%
%ADD16C,1.801600*%
%ADD17C,4.167600*%
%ADD18RoundRect,0.050800X-0.850000X-0.850000X0.850000X-0.850000X0.850000X0.850000X-0.850000X0.850000X0*%
%ADD19RoundRect,0.050800X-0.395000X-0.465000X0.395000X-0.465000X0.395000X0.465000X-0.395000X0.465000X0*%
%ADD20RoundRect,0.050800X0.465000X-0.395000X0.465000X0.395000X-0.465000X0.395000X-0.465000X-0.395000X0*%
%ADD21RoundRect,0.050800X-0.500000X-0.750000X0.500000X-0.750000X0.500000X0.750000X-0.500000X0.750000X0*%
%ADD22FreePoly2,0.000000*%
%ADD23FreePoly3,0.000000*%
G04 APERTURE END LIST*
G36*
X150220000Y-104617500D02*
G01*
X148560000Y-104617500D01*
X148560000Y-103217500D01*
X150220000Y-103217500D01*
X150220000Y-104617500D01*
G37*
D10*
X150220000Y-104617500D02*
X148560000Y-104617500D01*
X148560000Y-103217500D01*
X150220000Y-103217500D01*
X150220000Y-104617500D01*
D11*
X152400000Y-102070000D03*
D12*
X153700000Y-102070000D03*
D13*
X132430000Y-103275000D03*
X132430000Y-104825000D03*
X148060000Y-106310000D03*
X148060000Y-107860000D03*
D14*
X126550000Y-98550000D03*
X128950000Y-100550000D03*
X132650000Y-98550000D03*
X134450000Y-100550000D03*
X138150000Y-98550000D03*
D15*
X146980000Y-95540000D03*
X144560000Y-95540000D03*
X142140000Y-95540000D03*
X139720000Y-95540000D03*
X137300000Y-95540000D03*
X134880000Y-95540000D03*
D16*
X145505000Y-108980000D03*
X143215000Y-108980000D03*
X140925000Y-108980000D03*
X138635000Y-108980000D03*
X136345000Y-108980000D03*
X144360000Y-107000000D03*
X142070000Y-107000000D03*
X139780000Y-107000000D03*
X137490000Y-107000000D03*
X135200000Y-107000000D03*
X145505000Y-105020000D03*
X143215000Y-105020000D03*
X140925000Y-105020000D03*
X138635000Y-105020000D03*
D17*
X153420000Y-107000000D03*
X128430000Y-107000000D03*
D18*
X136345000Y-105020000D03*
D19*
X148000000Y-101730000D03*
X146360000Y-101730000D03*
D20*
X145130000Y-99840000D03*
X145130000Y-98200000D03*
X147560000Y-99840000D03*
X147560000Y-98200000D03*
X150010000Y-99840000D03*
X150010000Y-98200000D03*
X152270000Y-98200000D03*
X152270000Y-99840000D03*
D21*
X149390000Y-103917500D03*
D22*
X150690000Y-103917500D03*
D23*
X148090000Y-103917500D03*
M02*
