G04 #@! TF.GenerationSoftware,KiCad,Pcbnew,(5.1.8-0-10_14)*
G04 #@! TF.CreationDate,2021-09-18T16:08:48-04:00*
G04 #@! TF.ProjectId,SNES2VGA,534e4553-3256-4474-912e-6b696361645f,1*
G04 #@! TF.SameCoordinates,Original*
G04 #@! TF.FileFunction,Legend,Bot*
G04 #@! TF.FilePolarity,Positive*
%FSLAX46Y46*%
G04 Gerber Fmt 4.6, Leading zero omitted, Abs format (unit mm)*
G04 Created by KiCad (PCBNEW (5.1.8-0-10_14)) date 2021-09-18 16:08:48*
%MOMM*%
%LPD*%
G01*
G04 APERTURE LIST*
%ADD10C,0.127000*%
%ADD11C,0.200000*%
%ADD12C,0.150000*%
%ADD13C,0.125000*%
%ADD14C,0.350000*%
%ADD15C,0.098425*%
%ADD16O,1.609600X3.117600*%
%ADD17C,1.801600*%
%ADD18C,4.167600*%
G04 APERTURE END LIST*
D10*
X149696190Y-94801904D02*
X149696190Y-95373333D01*
X149734285Y-95487619D01*
X149810476Y-95563809D01*
X149924761Y-95601904D01*
X150000952Y-95601904D01*
X149010476Y-95563809D02*
X149086666Y-95601904D01*
X149239047Y-95601904D01*
X149315238Y-95563809D01*
X149353333Y-95487619D01*
X149353333Y-95182857D01*
X149315238Y-95106666D01*
X149239047Y-95068571D01*
X149086666Y-95068571D01*
X149010476Y-95106666D01*
X148972380Y-95182857D01*
X148972380Y-95259047D01*
X149353333Y-95335238D01*
X148743809Y-95068571D02*
X148439047Y-95068571D01*
X148629523Y-95601904D02*
X148629523Y-94916190D01*
X148591428Y-94840000D01*
X148515238Y-94801904D01*
X148439047Y-94801904D01*
X148286666Y-95068571D02*
X147981904Y-95068571D01*
X148172380Y-95601904D02*
X148172380Y-94916190D01*
X148134285Y-94840000D01*
X148058095Y-94801904D01*
X147981904Y-94801904D01*
X146648571Y-95525714D02*
X146686666Y-95563809D01*
X146800952Y-95601904D01*
X146877142Y-95601904D01*
X146991428Y-95563809D01*
X147067619Y-95487619D01*
X147105714Y-95411428D01*
X147143809Y-95259047D01*
X147143809Y-95144761D01*
X147105714Y-94992380D01*
X147067619Y-94916190D01*
X146991428Y-94840000D01*
X146877142Y-94801904D01*
X146800952Y-94801904D01*
X146686666Y-94840000D01*
X146648571Y-94878095D01*
X146305714Y-95601904D02*
X146305714Y-94801904D01*
X145962857Y-95601904D02*
X145962857Y-95182857D01*
X146000952Y-95106666D01*
X146077142Y-95068571D01*
X146191428Y-95068571D01*
X146267619Y-95106666D01*
X146305714Y-95144761D01*
X145277142Y-95563809D02*
X145353333Y-95601904D01*
X145505714Y-95601904D01*
X145581904Y-95563809D01*
X145620000Y-95487619D01*
X145620000Y-95182857D01*
X145581904Y-95106666D01*
X145505714Y-95068571D01*
X145353333Y-95068571D01*
X145277142Y-95106666D01*
X145239047Y-95182857D01*
X145239047Y-95259047D01*
X145620000Y-95335238D01*
X144896190Y-95068571D02*
X144896190Y-95601904D01*
X144896190Y-95144761D02*
X144858095Y-95106666D01*
X144781904Y-95068571D01*
X144667619Y-95068571D01*
X144591428Y-95106666D01*
X144553333Y-95182857D01*
X144553333Y-95601904D01*
X144134285Y-95563809D02*
X144134285Y-95601904D01*
X144172380Y-95678095D01*
X144210476Y-95716190D01*
X143220000Y-94878095D02*
X143181904Y-94840000D01*
X143105714Y-94801904D01*
X142915238Y-94801904D01*
X142839047Y-94840000D01*
X142800952Y-94878095D01*
X142762857Y-94954285D01*
X142762857Y-95030476D01*
X142800952Y-95144761D01*
X143258095Y-95601904D01*
X142762857Y-95601904D01*
X142267619Y-94801904D02*
X142191428Y-94801904D01*
X142115238Y-94840000D01*
X142077142Y-94878095D01*
X142039047Y-94954285D01*
X142000952Y-95106666D01*
X142000952Y-95297142D01*
X142039047Y-95449523D01*
X142077142Y-95525714D01*
X142115238Y-95563809D01*
X142191428Y-95601904D01*
X142267619Y-95601904D01*
X142343809Y-95563809D01*
X142381904Y-95525714D01*
X142420000Y-95449523D01*
X142458095Y-95297142D01*
X142458095Y-95106666D01*
X142420000Y-94954285D01*
X142381904Y-94878095D01*
X142343809Y-94840000D01*
X142267619Y-94801904D01*
X141696190Y-94878095D02*
X141658095Y-94840000D01*
X141581904Y-94801904D01*
X141391428Y-94801904D01*
X141315238Y-94840000D01*
X141277142Y-94878095D01*
X141239047Y-94954285D01*
X141239047Y-95030476D01*
X141277142Y-95144761D01*
X141734285Y-95601904D01*
X141239047Y-95601904D01*
X140477142Y-95601904D02*
X140934285Y-95601904D01*
X140705714Y-95601904D02*
X140705714Y-94801904D01*
X140781904Y-94916190D01*
X140858095Y-94992380D01*
X140934285Y-95030476D01*
D11*
X145105714Y-93395714D02*
X144934285Y-93452857D01*
X144648571Y-93452857D01*
X144534285Y-93395714D01*
X144477142Y-93338571D01*
X144420000Y-93224285D01*
X144420000Y-93110000D01*
X144477142Y-92995714D01*
X144534285Y-92938571D01*
X144648571Y-92881428D01*
X144877142Y-92824285D01*
X144991428Y-92767142D01*
X145048571Y-92710000D01*
X145105714Y-92595714D01*
X145105714Y-92481428D01*
X145048571Y-92367142D01*
X144991428Y-92310000D01*
X144877142Y-92252857D01*
X144591428Y-92252857D01*
X144420000Y-92310000D01*
X143905714Y-93452857D02*
X143905714Y-92252857D01*
X143220000Y-93452857D01*
X143220000Y-92252857D01*
X142648571Y-92824285D02*
X142248571Y-92824285D01*
X142077142Y-93452857D02*
X142648571Y-93452857D01*
X142648571Y-92252857D01*
X142077142Y-92252857D01*
X141620000Y-93395714D02*
X141448571Y-93452857D01*
X141162857Y-93452857D01*
X141048571Y-93395714D01*
X140991428Y-93338571D01*
X140934285Y-93224285D01*
X140934285Y-93110000D01*
X140991428Y-92995714D01*
X141048571Y-92938571D01*
X141162857Y-92881428D01*
X141391428Y-92824285D01*
X141505714Y-92767142D01*
X141562857Y-92710000D01*
X141620000Y-92595714D01*
X141620000Y-92481428D01*
X141562857Y-92367142D01*
X141505714Y-92310000D01*
X141391428Y-92252857D01*
X141105714Y-92252857D01*
X140934285Y-92310000D01*
X140477142Y-92367142D02*
X140420000Y-92310000D01*
X140305714Y-92252857D01*
X140020000Y-92252857D01*
X139905714Y-92310000D01*
X139848571Y-92367142D01*
X139791428Y-92481428D01*
X139791428Y-92595714D01*
X139848571Y-92767142D01*
X140534285Y-93452857D01*
X139791428Y-93452857D01*
X139448571Y-92252857D02*
X139048571Y-93452857D01*
X138648571Y-92252857D01*
X137620000Y-92310000D02*
X137734285Y-92252857D01*
X137905714Y-92252857D01*
X138077142Y-92310000D01*
X138191428Y-92424285D01*
X138248571Y-92538571D01*
X138305714Y-92767142D01*
X138305714Y-92938571D01*
X138248571Y-93167142D01*
X138191428Y-93281428D01*
X138077142Y-93395714D01*
X137905714Y-93452857D01*
X137791428Y-93452857D01*
X137620000Y-93395714D01*
X137562857Y-93338571D01*
X137562857Y-92938571D01*
X137791428Y-92938571D01*
X137105714Y-93110000D02*
X136534285Y-93110000D01*
X137220000Y-93452857D02*
X136820000Y-92252857D01*
X136420000Y-93452857D01*
D12*
X131325714Y-96871285D02*
X130861428Y-96871285D01*
X131111428Y-97157000D01*
X131004285Y-97157000D01*
X130932857Y-97192714D01*
X130897142Y-97228428D01*
X130861428Y-97299857D01*
X130861428Y-97478428D01*
X130897142Y-97549857D01*
X130932857Y-97585571D01*
X131004285Y-97621285D01*
X131218571Y-97621285D01*
X131290000Y-97585571D01*
X131325714Y-97549857D01*
X130540000Y-97549857D02*
X130504285Y-97585571D01*
X130540000Y-97621285D01*
X130575714Y-97585571D01*
X130540000Y-97549857D01*
X130540000Y-97621285D01*
X129825714Y-96871285D02*
X130182857Y-96871285D01*
X130218571Y-97228428D01*
X130182857Y-97192714D01*
X130111428Y-97157000D01*
X129932857Y-97157000D01*
X129861428Y-97192714D01*
X129825714Y-97228428D01*
X129790000Y-97299857D01*
X129790000Y-97478428D01*
X129825714Y-97549857D01*
X129861428Y-97585571D01*
X129932857Y-97621285D01*
X130111428Y-97621285D01*
X130182857Y-97585571D01*
X130218571Y-97549857D01*
X129468571Y-97621285D02*
X129468571Y-97121285D01*
X129468571Y-97192714D02*
X129432857Y-97157000D01*
X129361428Y-97121285D01*
X129254285Y-97121285D01*
X129182857Y-97157000D01*
X129147142Y-97228428D01*
X129147142Y-97621285D01*
X129147142Y-97228428D02*
X129111428Y-97157000D01*
X129040000Y-97121285D01*
X128932857Y-97121285D01*
X128861428Y-97157000D01*
X128825714Y-97228428D01*
X128825714Y-97621285D01*
X128468571Y-97621285D02*
X128468571Y-97121285D01*
X128468571Y-97192714D02*
X128432857Y-97157000D01*
X128361428Y-97121285D01*
X128254285Y-97121285D01*
X128182857Y-97157000D01*
X128147142Y-97228428D01*
X128147142Y-97621285D01*
X128147142Y-97228428D02*
X128111428Y-97157000D01*
X128040000Y-97121285D01*
X127932857Y-97121285D01*
X127861428Y-97157000D01*
X127825714Y-97228428D01*
X127825714Y-97621285D01*
X135022142Y-109491785D02*
X134772142Y-110241785D01*
X134522142Y-109491785D01*
X133879285Y-109527500D02*
X133950714Y-109491785D01*
X134057857Y-109491785D01*
X134165000Y-109527500D01*
X134236428Y-109598928D01*
X134272142Y-109670357D01*
X134307857Y-109813214D01*
X134307857Y-109920357D01*
X134272142Y-110063214D01*
X134236428Y-110134642D01*
X134165000Y-110206071D01*
X134057857Y-110241785D01*
X133986428Y-110241785D01*
X133879285Y-110206071D01*
X133843571Y-110170357D01*
X133843571Y-109920357D01*
X133986428Y-109920357D01*
X133557857Y-110027500D02*
X133200714Y-110027500D01*
X133629285Y-110241785D02*
X133379285Y-109491785D01*
X133129285Y-110241785D01*
X131700714Y-110241785D02*
X131736428Y-110241785D01*
X131807857Y-110206071D01*
X131915000Y-110098928D01*
X132093571Y-109884642D01*
X132165000Y-109777500D01*
X132200714Y-109670357D01*
X132200714Y-109598928D01*
X132165000Y-109527500D01*
X132093571Y-109491785D01*
X132057857Y-109491785D01*
X131986428Y-109527500D01*
X131950714Y-109598928D01*
X131950714Y-109634642D01*
X131986428Y-109706071D01*
X132022142Y-109741785D01*
X132236428Y-109884642D01*
X132272142Y-109920357D01*
X132307857Y-109991785D01*
X132307857Y-110098928D01*
X132272142Y-110170357D01*
X132236428Y-110206071D01*
X132165000Y-110241785D01*
X132057857Y-110241785D01*
X131986428Y-110206071D01*
X131950714Y-110170357D01*
X131843571Y-110027500D01*
X131807857Y-109920357D01*
X131807857Y-109848928D01*
X130879285Y-109491785D02*
X130415000Y-109491785D01*
X130665000Y-109777500D01*
X130557857Y-109777500D01*
X130486428Y-109813214D01*
X130450714Y-109848928D01*
X130415000Y-109920357D01*
X130415000Y-110098928D01*
X130450714Y-110170357D01*
X130486428Y-110206071D01*
X130557857Y-110241785D01*
X130772142Y-110241785D01*
X130843571Y-110206071D01*
X130879285Y-110170357D01*
X130093571Y-110170357D02*
X130057857Y-110206071D01*
X130093571Y-110241785D01*
X130129285Y-110206071D01*
X130093571Y-110170357D01*
X130093571Y-110241785D01*
X129379285Y-109491785D02*
X129736428Y-109491785D01*
X129772142Y-109848928D01*
X129736428Y-109813214D01*
X129665000Y-109777500D01*
X129486428Y-109777500D01*
X129415000Y-109813214D01*
X129379285Y-109848928D01*
X129343571Y-109920357D01*
X129343571Y-110098928D01*
X129379285Y-110170357D01*
X129415000Y-110206071D01*
X129486428Y-110241785D01*
X129665000Y-110241785D01*
X129736428Y-110206071D01*
X129772142Y-110170357D01*
X129022142Y-110241785D02*
X129022142Y-109491785D01*
X128772142Y-110027500D01*
X128522142Y-109491785D01*
X128522142Y-110241785D01*
X128165000Y-110241785D02*
X128165000Y-109491785D01*
X127915000Y-110027500D01*
X127665000Y-109491785D01*
X127665000Y-110241785D01*
X134790000Y-110766785D02*
X134647142Y-110766785D01*
X134575714Y-110802500D01*
X134504285Y-110873928D01*
X134468571Y-111016785D01*
X134468571Y-111266785D01*
X134504285Y-111409642D01*
X134575714Y-111481071D01*
X134647142Y-111516785D01*
X134790000Y-111516785D01*
X134861428Y-111481071D01*
X134932857Y-111409642D01*
X134968571Y-111266785D01*
X134968571Y-111016785D01*
X134932857Y-110873928D01*
X134861428Y-110802500D01*
X134790000Y-110766785D01*
X134147142Y-111516785D02*
X134147142Y-110766785D01*
X133718571Y-111516785D01*
X133718571Y-110766785D01*
X132897142Y-110766785D02*
X132468571Y-110766785D01*
X132682857Y-111516785D02*
X132682857Y-110766785D01*
X132218571Y-111516785D02*
X132218571Y-110766785D01*
X132218571Y-111123928D02*
X131790000Y-111123928D01*
X131790000Y-111516785D02*
X131790000Y-110766785D01*
X131432857Y-111516785D02*
X131432857Y-110766785D01*
X131111428Y-111481071D02*
X131004285Y-111516785D01*
X130825714Y-111516785D01*
X130754285Y-111481071D01*
X130718571Y-111445357D01*
X130682857Y-111373928D01*
X130682857Y-111302500D01*
X130718571Y-111231071D01*
X130754285Y-111195357D01*
X130825714Y-111159642D01*
X130968571Y-111123928D01*
X131040000Y-111088214D01*
X131075714Y-111052500D01*
X131111428Y-110981071D01*
X131111428Y-110909642D01*
X131075714Y-110838214D01*
X131040000Y-110802500D01*
X130968571Y-110766785D01*
X130790000Y-110766785D01*
X130682857Y-110802500D01*
X129825714Y-111481071D02*
X129718571Y-111516785D01*
X129540000Y-111516785D01*
X129468571Y-111481071D01*
X129432857Y-111445357D01*
X129397142Y-111373928D01*
X129397142Y-111302500D01*
X129432857Y-111231071D01*
X129468571Y-111195357D01*
X129540000Y-111159642D01*
X129682857Y-111123928D01*
X129754285Y-111088214D01*
X129790000Y-111052500D01*
X129825714Y-110981071D01*
X129825714Y-110909642D01*
X129790000Y-110838214D01*
X129754285Y-110802500D01*
X129682857Y-110766785D01*
X129504285Y-110766785D01*
X129397142Y-110802500D01*
X129075714Y-111516785D02*
X129075714Y-110766785D01*
X128718571Y-111516785D02*
X128718571Y-110766785D01*
X128540000Y-110766785D01*
X128432857Y-110802500D01*
X128361428Y-110873928D01*
X128325714Y-110945357D01*
X128290000Y-111088214D01*
X128290000Y-111195357D01*
X128325714Y-111338214D01*
X128361428Y-111409642D01*
X128432857Y-111481071D01*
X128540000Y-111516785D01*
X128718571Y-111516785D01*
X127968571Y-111123928D02*
X127718571Y-111123928D01*
X127611428Y-111516785D02*
X127968571Y-111516785D01*
X127968571Y-110766785D01*
X127611428Y-110766785D01*
D10*
X152149285Y-98749285D02*
X152149285Y-98320714D01*
X152149285Y-98535000D02*
X151399285Y-98535000D01*
X151506428Y-98463571D01*
X151577857Y-98392142D01*
X151613571Y-98320714D01*
X151399285Y-99213571D02*
X151399285Y-99285000D01*
X151435000Y-99356428D01*
X151470714Y-99392142D01*
X151542142Y-99427857D01*
X151685000Y-99463571D01*
X151863571Y-99463571D01*
X152006428Y-99427857D01*
X152077857Y-99392142D01*
X152113571Y-99356428D01*
X152149285Y-99285000D01*
X152149285Y-99213571D01*
X152113571Y-99142142D01*
X152077857Y-99106428D01*
X152006428Y-99070714D01*
X151863571Y-99035000D01*
X151685000Y-99035000D01*
X151542142Y-99070714D01*
X151470714Y-99106428D01*
X151435000Y-99142142D01*
X151399285Y-99213571D01*
X151399285Y-99927857D02*
X151399285Y-99999285D01*
X151435000Y-100070714D01*
X151470714Y-100106428D01*
X151542142Y-100142142D01*
X151685000Y-100177857D01*
X151863571Y-100177857D01*
X152006428Y-100142142D01*
X152077857Y-100106428D01*
X152113571Y-100070714D01*
X152149285Y-99999285D01*
X152149285Y-99927857D01*
X152113571Y-99856428D01*
X152077857Y-99820714D01*
X152006428Y-99785000D01*
X151863571Y-99749285D01*
X151685000Y-99749285D01*
X151542142Y-99785000D01*
X151470714Y-99820714D01*
X151435000Y-99856428D01*
X151399285Y-99927857D01*
X151649285Y-100820714D02*
X152149285Y-100820714D01*
X151649285Y-100499285D02*
X152042142Y-100499285D01*
X152113571Y-100535000D01*
X152149285Y-100606428D01*
X152149285Y-100713571D01*
X152113571Y-100785000D01*
X152077857Y-100820714D01*
X151756428Y-101427857D02*
X151756428Y-101177857D01*
X152149285Y-101177857D02*
X151399285Y-101177857D01*
X151399285Y-101535000D01*
D13*
X153526666Y-97229047D02*
X153502857Y-97205238D01*
X153431428Y-97157619D01*
X153383809Y-97133809D01*
X153312380Y-97110000D01*
X153193333Y-97086190D01*
X153098095Y-97086190D01*
X152979047Y-97110000D01*
X152907619Y-97133809D01*
X152860000Y-97157619D01*
X152788571Y-97205238D01*
X152764761Y-97229047D01*
X153312380Y-97395714D02*
X153336190Y-97467142D01*
X153336190Y-97586190D01*
X153312380Y-97633809D01*
X153288571Y-97657619D01*
X153240952Y-97681428D01*
X153193333Y-97681428D01*
X153145714Y-97657619D01*
X153121904Y-97633809D01*
X153098095Y-97586190D01*
X153074285Y-97490952D01*
X153050476Y-97443333D01*
X153026666Y-97419523D01*
X152979047Y-97395714D01*
X152931428Y-97395714D01*
X152883809Y-97419523D01*
X152860000Y-97443333D01*
X152836190Y-97490952D01*
X152836190Y-97610000D01*
X152860000Y-97681428D01*
X153336190Y-97895714D02*
X152836190Y-97895714D01*
X153336190Y-98110000D02*
X153074285Y-98110000D01*
X153026666Y-98086190D01*
X153002857Y-98038571D01*
X153002857Y-97967142D01*
X153026666Y-97919523D01*
X153050476Y-97895714D01*
X153336190Y-98419523D02*
X153312380Y-98371904D01*
X153288571Y-98348095D01*
X153240952Y-98324285D01*
X153098095Y-98324285D01*
X153050476Y-98348095D01*
X153026666Y-98371904D01*
X153002857Y-98419523D01*
X153002857Y-98490952D01*
X153026666Y-98538571D01*
X153050476Y-98562380D01*
X153098095Y-98586190D01*
X153240952Y-98586190D01*
X153288571Y-98562380D01*
X153312380Y-98538571D01*
X153336190Y-98490952D01*
X153336190Y-98419523D01*
X153336190Y-98800476D02*
X153002857Y-98800476D01*
X153098095Y-98800476D02*
X153050476Y-98824285D01*
X153026666Y-98848095D01*
X153002857Y-98895714D01*
X153002857Y-98943333D01*
X153002857Y-99038571D02*
X153002857Y-99229047D01*
X152836190Y-99110000D02*
X153264761Y-99110000D01*
X153312380Y-99133809D01*
X153336190Y-99181428D01*
X153336190Y-99229047D01*
X153002857Y-99705238D02*
X153002857Y-99895714D01*
X153336190Y-99776666D02*
X152907619Y-99776666D01*
X152860000Y-99800476D01*
X152836190Y-99848095D01*
X152836190Y-99895714D01*
X153336190Y-100133809D02*
X153312380Y-100086190D01*
X153288571Y-100062380D01*
X153240952Y-100038571D01*
X153098095Y-100038571D01*
X153050476Y-100062380D01*
X153026666Y-100086190D01*
X153002857Y-100133809D01*
X153002857Y-100205238D01*
X153026666Y-100252857D01*
X153050476Y-100276666D01*
X153098095Y-100300476D01*
X153240952Y-100300476D01*
X153288571Y-100276666D01*
X153312380Y-100252857D01*
X153336190Y-100205238D01*
X153336190Y-100133809D01*
X153336190Y-100514761D02*
X153002857Y-100514761D01*
X153098095Y-100514761D02*
X153050476Y-100538571D01*
X153026666Y-100562380D01*
X153002857Y-100610000D01*
X153002857Y-100657619D01*
X153336190Y-101205238D02*
X152836190Y-101205238D01*
X152836190Y-101395714D01*
X152860000Y-101443333D01*
X152883809Y-101467142D01*
X152931428Y-101490952D01*
X153002857Y-101490952D01*
X153050476Y-101467142D01*
X153074285Y-101443333D01*
X153098095Y-101395714D01*
X153098095Y-101205238D01*
X153193333Y-101681428D02*
X153193333Y-101919523D01*
X153336190Y-101633809D02*
X152836190Y-101800476D01*
X153336190Y-101967142D01*
X153336190Y-102371904D02*
X153336190Y-102133809D01*
X152836190Y-102133809D01*
X153526666Y-102490952D02*
X153502857Y-102514761D01*
X153431428Y-102562380D01*
X153383809Y-102586190D01*
X153312380Y-102610000D01*
X153193333Y-102633809D01*
X153098095Y-102633809D01*
X152979047Y-102610000D01*
X152907619Y-102586190D01*
X152860000Y-102562380D01*
X152788571Y-102514761D01*
X152764761Y-102490952D01*
D10*
X153890000Y-103010000D02*
X153890000Y-96730000D01*
X143200000Y-103010000D02*
X153890000Y-103010000D01*
X143200000Y-96730000D02*
X143200000Y-103010000D01*
X153890000Y-96730000D02*
X143200000Y-96730000D01*
X146030000Y-99390000D02*
X146030000Y-100470000D01*
X144230000Y-99390000D02*
X144230000Y-100470000D01*
X148460000Y-99390000D02*
X148460000Y-100470000D01*
X146660000Y-99390000D02*
X146660000Y-100470000D01*
X150900000Y-99390000D02*
X150900000Y-100470000D01*
X149100000Y-99390000D02*
X149100000Y-100470000D01*
D14*
X126130000Y-96620000D02*
G75*
G03*
X126130000Y-96620000I-150000J0D01*
G01*
D15*
X145318571Y-99736666D02*
X145342380Y-99712857D01*
X145366190Y-99641428D01*
X145366190Y-99593809D01*
X145342380Y-99522380D01*
X145294761Y-99474761D01*
X145247142Y-99450952D01*
X145151904Y-99427142D01*
X145080476Y-99427142D01*
X144985238Y-99450952D01*
X144937619Y-99474761D01*
X144890000Y-99522380D01*
X144866190Y-99593809D01*
X144866190Y-99641428D01*
X144890000Y-99712857D01*
X144913809Y-99736666D01*
X145366190Y-100212857D02*
X145366190Y-99927142D01*
X145366190Y-100070000D02*
X144866190Y-100070000D01*
X144937619Y-100022380D01*
X144985238Y-99974761D01*
X145009047Y-99927142D01*
X147738571Y-99746666D02*
X147762380Y-99722857D01*
X147786190Y-99651428D01*
X147786190Y-99603809D01*
X147762380Y-99532380D01*
X147714761Y-99484761D01*
X147667142Y-99460952D01*
X147571904Y-99437142D01*
X147500476Y-99437142D01*
X147405238Y-99460952D01*
X147357619Y-99484761D01*
X147310000Y-99532380D01*
X147286190Y-99603809D01*
X147286190Y-99651428D01*
X147310000Y-99722857D01*
X147333809Y-99746666D01*
X147333809Y-99937142D02*
X147310000Y-99960952D01*
X147286190Y-100008571D01*
X147286190Y-100127619D01*
X147310000Y-100175238D01*
X147333809Y-100199047D01*
X147381428Y-100222857D01*
X147429047Y-100222857D01*
X147500476Y-100199047D01*
X147786190Y-99913333D01*
X147786190Y-100222857D01*
X150188571Y-99736666D02*
X150212380Y-99712857D01*
X150236190Y-99641428D01*
X150236190Y-99593809D01*
X150212380Y-99522380D01*
X150164761Y-99474761D01*
X150117142Y-99450952D01*
X150021904Y-99427142D01*
X149950476Y-99427142D01*
X149855238Y-99450952D01*
X149807619Y-99474761D01*
X149760000Y-99522380D01*
X149736190Y-99593809D01*
X149736190Y-99641428D01*
X149760000Y-99712857D01*
X149783809Y-99736666D01*
X149736190Y-99903333D02*
X149736190Y-100212857D01*
X149926666Y-100046190D01*
X149926666Y-100117619D01*
X149950476Y-100165238D01*
X149974285Y-100189047D01*
X150021904Y-100212857D01*
X150140952Y-100212857D01*
X150188571Y-100189047D01*
X150212380Y-100165238D01*
X150236190Y-100117619D01*
X150236190Y-99974761D01*
X150212380Y-99927142D01*
X150188571Y-99903333D01*
%LPC*%
G36*
G01*
X144220000Y-97819200D02*
X146040000Y-97819200D01*
G75*
G02*
X146090800Y-97870000I0J-50800D01*
G01*
X146090800Y-99070000D01*
G75*
G02*
X146040000Y-99120800I-50800J0D01*
G01*
X144220000Y-99120800D01*
G75*
G02*
X144169200Y-99070000I0J50800D01*
G01*
X144169200Y-97870000D01*
G75*
G02*
X144220000Y-97819200I50800J0D01*
G01*
G37*
G36*
G01*
X144220000Y-100739200D02*
X146040000Y-100739200D01*
G75*
G02*
X146090800Y-100790000I0J-50800D01*
G01*
X146090800Y-101990000D01*
G75*
G02*
X146040000Y-102040800I-50800J0D01*
G01*
X144220000Y-102040800D01*
G75*
G02*
X144169200Y-101990000I0J50800D01*
G01*
X144169200Y-100790000D01*
G75*
G02*
X144220000Y-100739200I50800J0D01*
G01*
G37*
G36*
G01*
X146650000Y-97819200D02*
X148470000Y-97819200D01*
G75*
G02*
X148520800Y-97870000I0J-50800D01*
G01*
X148520800Y-99070000D01*
G75*
G02*
X148470000Y-99120800I-50800J0D01*
G01*
X146650000Y-99120800D01*
G75*
G02*
X146599200Y-99070000I0J50800D01*
G01*
X146599200Y-97870000D01*
G75*
G02*
X146650000Y-97819200I50800J0D01*
G01*
G37*
G36*
G01*
X146650000Y-100739200D02*
X148470000Y-100739200D01*
G75*
G02*
X148520800Y-100790000I0J-50800D01*
G01*
X148520800Y-101990000D01*
G75*
G02*
X148470000Y-102040800I-50800J0D01*
G01*
X146650000Y-102040800D01*
G75*
G02*
X146599200Y-101990000I0J50800D01*
G01*
X146599200Y-100790000D01*
G75*
G02*
X146650000Y-100739200I50800J0D01*
G01*
G37*
G36*
G01*
X149090000Y-97819200D02*
X150910000Y-97819200D01*
G75*
G02*
X150960800Y-97870000I0J-50800D01*
G01*
X150960800Y-99070000D01*
G75*
G02*
X150910000Y-99120800I-50800J0D01*
G01*
X149090000Y-99120800D01*
G75*
G02*
X149039200Y-99070000I0J50800D01*
G01*
X149039200Y-97870000D01*
G75*
G02*
X149090000Y-97819200I50800J0D01*
G01*
G37*
G36*
G01*
X149090000Y-100739200D02*
X150910000Y-100739200D01*
G75*
G02*
X150960800Y-100790000I0J-50800D01*
G01*
X150960800Y-101990000D01*
G75*
G02*
X150910000Y-102040800I-50800J0D01*
G01*
X149090000Y-102040800D01*
G75*
G02*
X149039200Y-101990000I0J50800D01*
G01*
X149039200Y-100790000D01*
G75*
G02*
X149090000Y-100739200I50800J0D01*
G01*
G37*
D16*
X126550000Y-98550000D03*
X128950000Y-100550000D03*
X132650000Y-98550000D03*
X134450000Y-100550000D03*
X138150000Y-98550000D03*
G36*
G01*
X145979200Y-91290400D02*
X145979200Y-88989600D01*
G75*
G02*
X146479600Y-88489200I500400J0D01*
G01*
X147480400Y-88489200D01*
G75*
G02*
X147980800Y-88989600I0J-500400D01*
G01*
X147980800Y-91290400D01*
G75*
G02*
X147480400Y-91790800I-500400J0D01*
G01*
X146479600Y-91790800D01*
G75*
G02*
X145979200Y-91290400I0J500400D01*
G01*
G37*
G36*
G01*
X143559200Y-91290400D02*
X143559200Y-88989600D01*
G75*
G02*
X144059600Y-88489200I500400J0D01*
G01*
X145060400Y-88489200D01*
G75*
G02*
X145560800Y-88989600I0J-500400D01*
G01*
X145560800Y-91290400D01*
G75*
G02*
X145060400Y-91790800I-500400J0D01*
G01*
X144059600Y-91790800D01*
G75*
G02*
X143559200Y-91290400I0J500400D01*
G01*
G37*
G36*
G01*
X141139200Y-91290400D02*
X141139200Y-88989600D01*
G75*
G02*
X141639600Y-88489200I500400J0D01*
G01*
X142640400Y-88489200D01*
G75*
G02*
X143140800Y-88989600I0J-500400D01*
G01*
X143140800Y-91290400D01*
G75*
G02*
X142640400Y-91790800I-500400J0D01*
G01*
X141639600Y-91790800D01*
G75*
G02*
X141139200Y-91290400I0J500400D01*
G01*
G37*
G36*
G01*
X138719200Y-91290400D02*
X138719200Y-88989600D01*
G75*
G02*
X139219600Y-88489200I500400J0D01*
G01*
X140220400Y-88489200D01*
G75*
G02*
X140720800Y-88989600I0J-500400D01*
G01*
X140720800Y-91290400D01*
G75*
G02*
X140220400Y-91790800I-500400J0D01*
G01*
X139219600Y-91790800D01*
G75*
G02*
X138719200Y-91290400I0J500400D01*
G01*
G37*
G36*
G01*
X136299200Y-91290400D02*
X136299200Y-88989600D01*
G75*
G02*
X136799600Y-88489200I500400J0D01*
G01*
X137800400Y-88489200D01*
G75*
G02*
X138300800Y-88989600I0J-500400D01*
G01*
X138300800Y-91290400D01*
G75*
G02*
X137800400Y-91790800I-500400J0D01*
G01*
X136799600Y-91790800D01*
G75*
G02*
X136299200Y-91290400I0J500400D01*
G01*
G37*
G36*
G01*
X133879200Y-91290400D02*
X133879200Y-88989600D01*
G75*
G02*
X134379600Y-88489200I500400J0D01*
G01*
X135380400Y-88489200D01*
G75*
G02*
X135880800Y-88989600I0J-500400D01*
G01*
X135880800Y-91290400D01*
G75*
G02*
X135380400Y-91790800I-500400J0D01*
G01*
X134379600Y-91790800D01*
G75*
G02*
X133879200Y-91290400I0J500400D01*
G01*
G37*
D17*
X145505000Y-108980000D03*
X143215000Y-108980000D03*
X140925000Y-108980000D03*
X138635000Y-108980000D03*
X136345000Y-108980000D03*
X144360000Y-107000000D03*
X142070000Y-107000000D03*
X139780000Y-107000000D03*
X137490000Y-107000000D03*
X135200000Y-107000000D03*
X145505000Y-105020000D03*
X143215000Y-105020000D03*
X140925000Y-105020000D03*
X138635000Y-105020000D03*
D18*
X153420000Y-107000000D03*
X128430000Y-107000000D03*
G36*
G01*
X135444200Y-105870000D02*
X135444200Y-104170000D01*
G75*
G02*
X135495000Y-104119200I50800J0D01*
G01*
X137195000Y-104119200D01*
G75*
G02*
X137245800Y-104170000I0J-50800D01*
G01*
X137245800Y-105870000D01*
G75*
G02*
X137195000Y-105920800I-50800J0D01*
G01*
X135495000Y-105920800D01*
G75*
G02*
X135444200Y-105870000I0J50800D01*
G01*
G37*
M02*
