G04 #@! TF.GenerationSoftware,KiCad,Pcbnew,(5.1.10-1-10_14)*
G04 #@! TF.CreationDate,2021-10-04T15:41:53-04:00*
G04 #@! TF.ProjectId,N64D2VGA,4e363444-3256-4474-912e-6b696361645f,1*
G04 #@! TF.SameCoordinates,Original*
G04 #@! TF.FileFunction,Copper,L2,Bot*
G04 #@! TF.FilePolarity,Positive*
%FSLAX46Y46*%
G04 Gerber Fmt 4.6, Leading zero omitted, Abs format (unit mm)*
G04 Created by KiCad (PCBNEW (5.1.10-1-10_14)) date 2021-10-04 15:41:53*
%MOMM*%
%LPD*%
G01*
G04 APERTURE LIST*
G04 #@! TA.AperFunction,SMDPad,CuDef*
%ADD10R,0.790000X0.930000*%
G04 #@! TD*
G04 #@! TA.AperFunction,SMDPad,CuDef*
%ADD11R,0.930000X0.790000*%
G04 #@! TD*
G04 #@! TA.AperFunction,ComponentPad*
%ADD12C,1.700000*%
G04 #@! TD*
G04 #@! TA.AperFunction,ComponentPad*
%ADD13C,4.066000*%
G04 #@! TD*
G04 #@! TA.AperFunction,ComponentPad*
%ADD14R,1.700000X1.700000*%
G04 #@! TD*
G04 #@! TA.AperFunction,SMDPad,CuDef*
%ADD15C,0.152400*%
G04 #@! TD*
G04 #@! TA.AperFunction,SMDPad,CuDef*
%ADD16R,1.000000X1.500000*%
G04 #@! TD*
G04 #@! TA.AperFunction,ComponentPad*
%ADD17O,3.016000X1.508000*%
G04 #@! TD*
G04 #@! TA.AperFunction,SMDPad,CuDef*
%ADD18R,0.970000X0.920000*%
G04 #@! TD*
G04 #@! TA.AperFunction,ViaPad*
%ADD19C,0.700000*%
G04 #@! TD*
G04 #@! TA.AperFunction,Conductor*
%ADD20C,0.200000*%
G04 #@! TD*
G04 #@! TA.AperFunction,Conductor*
%ADD21C,0.160000*%
G04 #@! TD*
G04 #@! TA.AperFunction,Conductor*
%ADD22C,0.152400*%
G04 #@! TD*
G04 #@! TA.AperFunction,Conductor*
%ADD23C,0.025400*%
G04 #@! TD*
G04 APERTURE END LIST*
D10*
X149460000Y-96010000D03*
X147820000Y-96010000D03*
D11*
X133070000Y-104020000D03*
X133070000Y-102380000D03*
X148820000Y-105350000D03*
X148820000Y-103710000D03*
X156120000Y-105350000D03*
X156120000Y-103710000D03*
D10*
X147880000Y-93920000D03*
X149520000Y-93920000D03*
D12*
X141005000Y-113560000D03*
X143295000Y-113560000D03*
X145585000Y-113560000D03*
X147875000Y-113560000D03*
X150165000Y-113560000D03*
X142150000Y-111580000D03*
X144440000Y-111580000D03*
X146730000Y-111580000D03*
X149020000Y-111580000D03*
X151310000Y-111580000D03*
X141005000Y-109600000D03*
X143295000Y-109600000D03*
X145585000Y-109600000D03*
X147875000Y-109600000D03*
D13*
X133090000Y-111580000D03*
X158080000Y-111580000D03*
D14*
X150165000Y-109600000D03*
G04 #@! TA.AperFunction,ConnectorPad*
G36*
G01*
X146030000Y-91265000D02*
X146030000Y-89015000D01*
G75*
G02*
X146505000Y-88540000I475000J0D01*
G01*
X147455000Y-88540000D01*
G75*
G02*
X147930000Y-89015000I0J-475000D01*
G01*
X147930000Y-91265000D01*
G75*
G02*
X147455000Y-91740000I-475000J0D01*
G01*
X146505000Y-91740000D01*
G75*
G02*
X146030000Y-91265000I0J475000D01*
G01*
G37*
G04 #@! TD.AperFunction*
G04 #@! TA.AperFunction,ConnectorPad*
G36*
G01*
X143610000Y-91265000D02*
X143610000Y-89015000D01*
G75*
G02*
X144085000Y-88540000I475000J0D01*
G01*
X145035000Y-88540000D01*
G75*
G02*
X145510000Y-89015000I0J-475000D01*
G01*
X145510000Y-91265000D01*
G75*
G02*
X145035000Y-91740000I-475000J0D01*
G01*
X144085000Y-91740000D01*
G75*
G02*
X143610000Y-91265000I0J475000D01*
G01*
G37*
G04 #@! TD.AperFunction*
G04 #@! TA.AperFunction,ConnectorPad*
G36*
G01*
X141190000Y-91265000D02*
X141190000Y-89015000D01*
G75*
G02*
X141665000Y-88540000I475000J0D01*
G01*
X142615000Y-88540000D01*
G75*
G02*
X143090000Y-89015000I0J-475000D01*
G01*
X143090000Y-91265000D01*
G75*
G02*
X142615000Y-91740000I-475000J0D01*
G01*
X141665000Y-91740000D01*
G75*
G02*
X141190000Y-91265000I0J475000D01*
G01*
G37*
G04 #@! TD.AperFunction*
G04 #@! TA.AperFunction,ConnectorPad*
G36*
G01*
X138770000Y-91265000D02*
X138770000Y-89015000D01*
G75*
G02*
X139245000Y-88540000I475000J0D01*
G01*
X140195000Y-88540000D01*
G75*
G02*
X140670000Y-89015000I0J-475000D01*
G01*
X140670000Y-91265000D01*
G75*
G02*
X140195000Y-91740000I-475000J0D01*
G01*
X139245000Y-91740000D01*
G75*
G02*
X138770000Y-91265000I0J475000D01*
G01*
G37*
G04 #@! TD.AperFunction*
G04 #@! TA.AperFunction,ConnectorPad*
G36*
G01*
X136350000Y-91265000D02*
X136350000Y-89015000D01*
G75*
G02*
X136825000Y-88540000I475000J0D01*
G01*
X137775000Y-88540000D01*
G75*
G02*
X138250000Y-89015000I0J-475000D01*
G01*
X138250000Y-91265000D01*
G75*
G02*
X137775000Y-91740000I-475000J0D01*
G01*
X136825000Y-91740000D01*
G75*
G02*
X136350000Y-91265000I0J475000D01*
G01*
G37*
G04 #@! TD.AperFunction*
G04 #@! TA.AperFunction,ConnectorPad*
G36*
G01*
X133930000Y-91265000D02*
X133930000Y-89015000D01*
G75*
G02*
X134405000Y-88540000I475000J0D01*
G01*
X135355000Y-88540000D01*
G75*
G02*
X135830000Y-89015000I0J-475000D01*
G01*
X135830000Y-91265000D01*
G75*
G02*
X135355000Y-91740000I-475000J0D01*
G01*
X134405000Y-91740000D01*
G75*
G02*
X133930000Y-91265000I0J475000D01*
G01*
G37*
G04 #@! TD.AperFunction*
G04 #@! TA.AperFunction,SMDPad,CuDef*
D15*
G36*
X150270000Y-98840000D02*
G01*
X150820000Y-98840000D01*
X150820000Y-98840602D01*
X150844534Y-98840602D01*
X150893365Y-98845412D01*
X150941490Y-98854984D01*
X150988445Y-98869228D01*
X151033778Y-98888005D01*
X151077051Y-98911136D01*
X151117850Y-98938396D01*
X151155779Y-98969524D01*
X151190476Y-99004221D01*
X151221604Y-99042150D01*
X151248864Y-99082949D01*
X151271995Y-99126222D01*
X151290772Y-99171555D01*
X151305016Y-99218510D01*
X151314588Y-99266635D01*
X151319398Y-99315466D01*
X151319398Y-99340000D01*
X151320000Y-99340000D01*
X151320000Y-99840000D01*
X151319398Y-99840000D01*
X151319398Y-99864534D01*
X151314588Y-99913365D01*
X151305016Y-99961490D01*
X151290772Y-100008445D01*
X151271995Y-100053778D01*
X151248864Y-100097051D01*
X151221604Y-100137850D01*
X151190476Y-100175779D01*
X151155779Y-100210476D01*
X151117850Y-100241604D01*
X151077051Y-100268864D01*
X151033778Y-100291995D01*
X150988445Y-100310772D01*
X150941490Y-100325016D01*
X150893365Y-100334588D01*
X150844534Y-100339398D01*
X150820000Y-100339398D01*
X150820000Y-100340000D01*
X150270000Y-100340000D01*
X150270000Y-98840000D01*
G37*
G04 #@! TD.AperFunction*
G04 #@! TA.AperFunction,SMDPad,CuDef*
G36*
X148220000Y-100339398D02*
G01*
X148195466Y-100339398D01*
X148146635Y-100334588D01*
X148098510Y-100325016D01*
X148051555Y-100310772D01*
X148006222Y-100291995D01*
X147962949Y-100268864D01*
X147922150Y-100241604D01*
X147884221Y-100210476D01*
X147849524Y-100175779D01*
X147818396Y-100137850D01*
X147791136Y-100097051D01*
X147768005Y-100053778D01*
X147749228Y-100008445D01*
X147734984Y-99961490D01*
X147725412Y-99913365D01*
X147720602Y-99864534D01*
X147720602Y-99840000D01*
X147720000Y-99840000D01*
X147720000Y-99340000D01*
X147720602Y-99340000D01*
X147720602Y-99315466D01*
X147725412Y-99266635D01*
X147734984Y-99218510D01*
X147749228Y-99171555D01*
X147768005Y-99126222D01*
X147791136Y-99082949D01*
X147818396Y-99042150D01*
X147849524Y-99004221D01*
X147884221Y-98969524D01*
X147922150Y-98938396D01*
X147962949Y-98911136D01*
X148006222Y-98888005D01*
X148051555Y-98869228D01*
X148098510Y-98854984D01*
X148146635Y-98845412D01*
X148195466Y-98840602D01*
X148220000Y-98840602D01*
X148220000Y-98840000D01*
X148770000Y-98840000D01*
X148770000Y-100340000D01*
X148220000Y-100340000D01*
X148220000Y-100339398D01*
G37*
G04 #@! TD.AperFunction*
D16*
X149520000Y-99590000D03*
D17*
X125150000Y-115450000D03*
X123150000Y-113050000D03*
X125150000Y-109350000D03*
X123150000Y-107550000D03*
X125150000Y-103850000D03*
D18*
X130260000Y-105405000D03*
X130260000Y-106955000D03*
X130250000Y-99305000D03*
X130250000Y-100855000D03*
D19*
X153870000Y-105350000D03*
X146580000Y-105350000D03*
X133070000Y-105370000D03*
X149490000Y-97890000D03*
X129150001Y-105380000D03*
X145060000Y-100900000D03*
X134650000Y-99960000D03*
X134880000Y-91310000D03*
X148020000Y-101950000D03*
X147930001Y-97809999D03*
X137290000Y-91310000D03*
X146770000Y-93890000D03*
D20*
X153870000Y-105350000D02*
X156080000Y-105350000D01*
X150410000Y-109340000D02*
X150410000Y-109600000D01*
X153870000Y-105880000D02*
X150410000Y-109340000D01*
X153870000Y-105350000D02*
X153870000Y-105880000D01*
X146580000Y-105350000D02*
X148810000Y-105350000D01*
X147860000Y-109340000D02*
X148120000Y-109600000D01*
X147860000Y-107600000D02*
X147860000Y-109340000D01*
X148820000Y-106640000D02*
X147860000Y-107600000D01*
X148820000Y-105350000D02*
X148820000Y-106640000D01*
X133070000Y-105370000D02*
X133070000Y-104000000D01*
X145590000Y-107130000D02*
X145590000Y-109360000D01*
X145590000Y-109360000D02*
X145830000Y-109600000D01*
X144160000Y-105700000D02*
X145590000Y-107130000D01*
X133400000Y-105700000D02*
X144160000Y-105700000D01*
X133070000Y-105370000D02*
X133400000Y-105700000D01*
X149490000Y-96640000D02*
X149490000Y-94120000D01*
X149490000Y-96640000D02*
X149490000Y-97890000D01*
X149490000Y-97890000D02*
X149490000Y-99590000D01*
X147880000Y-113850000D02*
X148130000Y-113600000D01*
X147880000Y-115090000D02*
X147880000Y-113850000D01*
X147590000Y-115380000D02*
X147880000Y-115090000D01*
X127600000Y-103500000D02*
X127600000Y-112110000D01*
X130870000Y-115380000D02*
X147590000Y-115380000D01*
X130250000Y-100855000D02*
X130245000Y-100855000D01*
X127600000Y-112110000D02*
X130870000Y-115380000D01*
X130245000Y-100855000D02*
X127600000Y-103500000D01*
X125150000Y-103850000D02*
X126380000Y-103850000D01*
X128770000Y-99280000D02*
X130250000Y-99280000D01*
X125150000Y-102900000D02*
X128770000Y-99280000D01*
X125150000Y-103850000D02*
X125150000Y-102900000D01*
X130200000Y-105410000D02*
X129180001Y-105410000D01*
X129180001Y-105410000D02*
X129150001Y-105380000D01*
X141250000Y-113550000D02*
X141250000Y-113560000D01*
X131405000Y-108100000D02*
X135800000Y-108100000D01*
X135800000Y-108100000D02*
X141250000Y-113550000D01*
X130260000Y-106955000D02*
X131405000Y-108100000D01*
X143290000Y-99130000D02*
X145060000Y-100900000D01*
X143290000Y-95430000D02*
X143290000Y-99130000D01*
X146980000Y-91740000D02*
X143290000Y-95430000D01*
X146980000Y-90140000D02*
X146980000Y-91740000D01*
X144560000Y-91740000D02*
X136340000Y-99960000D01*
X144560000Y-90140000D02*
X144560000Y-91740000D01*
X136340000Y-99960000D02*
X134650000Y-99960000D01*
X150820000Y-100004972D02*
X148874972Y-101950000D01*
X148874972Y-101950000D02*
X148020000Y-101950000D01*
X150820000Y-99610000D02*
X150820000Y-100004972D01*
X148220000Y-99480000D02*
X148220000Y-98099998D01*
X148220000Y-98099998D02*
X147930001Y-97809999D01*
X146799998Y-93919998D02*
X146770000Y-93890000D01*
X147829998Y-93919998D02*
X146799998Y-93919998D01*
D21*
X133702600Y-88875284D02*
X133688839Y-89015000D01*
X133688839Y-91265000D01*
X133702600Y-91404716D01*
X133743354Y-91539063D01*
X133809534Y-91662878D01*
X133898598Y-91771402D01*
X134007122Y-91860466D01*
X134130937Y-91926646D01*
X134265284Y-91967400D01*
X134405000Y-91981161D01*
X135355000Y-91981161D01*
X135494716Y-91967400D01*
X135629063Y-91926646D01*
X135752878Y-91860466D01*
X135861402Y-91771402D01*
X135950466Y-91662878D01*
X136016646Y-91539063D01*
X136057400Y-91404716D01*
X136071161Y-91265000D01*
X136071161Y-89015000D01*
X136057400Y-88875284D01*
X136025462Y-88770000D01*
X136154538Y-88770000D01*
X136122600Y-88875284D01*
X136108839Y-89015000D01*
X136108839Y-91265000D01*
X136122600Y-91404716D01*
X136163354Y-91539063D01*
X136229534Y-91662878D01*
X136318598Y-91771402D01*
X136427122Y-91860466D01*
X136550937Y-91926646D01*
X136685284Y-91967400D01*
X136825000Y-91981161D01*
X137775000Y-91981161D01*
X137914716Y-91967400D01*
X138049063Y-91926646D01*
X138172878Y-91860466D01*
X138281402Y-91771402D01*
X138370466Y-91662878D01*
X138436646Y-91539063D01*
X138477400Y-91404716D01*
X138491161Y-91265000D01*
X138491161Y-89015000D01*
X138477400Y-88875284D01*
X138445462Y-88770000D01*
X138574538Y-88770000D01*
X138542600Y-88875284D01*
X138528839Y-89015000D01*
X138528839Y-91265000D01*
X138542600Y-91404716D01*
X138583354Y-91539063D01*
X138649534Y-91662878D01*
X138738598Y-91771402D01*
X138847122Y-91860466D01*
X138970937Y-91926646D01*
X139105284Y-91967400D01*
X139245000Y-91981161D01*
X140195000Y-91981161D01*
X140334716Y-91967400D01*
X140469063Y-91926646D01*
X140592878Y-91860466D01*
X140701402Y-91771402D01*
X140790466Y-91662878D01*
X140856646Y-91539063D01*
X140897400Y-91404716D01*
X140911161Y-91265000D01*
X140911161Y-89015000D01*
X140897400Y-88875284D01*
X140865462Y-88770000D01*
X143414538Y-88770000D01*
X143382600Y-88875284D01*
X143368839Y-89015000D01*
X143368839Y-91265000D01*
X143382600Y-91404716D01*
X143423354Y-91539063D01*
X143489534Y-91662878D01*
X143578598Y-91771402D01*
X143687122Y-91860466D01*
X143810937Y-91926646D01*
X143873533Y-91945634D01*
X136199169Y-99620000D01*
X135344672Y-99620000D01*
X135281299Y-99617531D01*
X135239677Y-99611964D01*
X135210941Y-99604767D01*
X135188354Y-99596117D01*
X135164739Y-99583983D01*
X135134695Y-99565464D01*
X135095802Y-99539553D01*
X135094557Y-99538728D01*
X135048512Y-99508464D01*
X135040635Y-99503503D01*
X134988174Y-99471865D01*
X134975811Y-99464900D01*
X134953350Y-99453105D01*
X134929470Y-99437149D01*
X134822097Y-99392673D01*
X134708110Y-99370000D01*
X134591890Y-99370000D01*
X134477903Y-99392673D01*
X134370530Y-99437149D01*
X134273897Y-99501717D01*
X134191717Y-99583897D01*
X134127149Y-99680530D01*
X134082673Y-99787903D01*
X134060000Y-99901890D01*
X134060000Y-100018110D01*
X134082673Y-100132097D01*
X134127149Y-100239470D01*
X134191717Y-100336103D01*
X134273897Y-100418283D01*
X134370530Y-100482851D01*
X134477903Y-100527327D01*
X134591890Y-100550000D01*
X134708110Y-100550000D01*
X134822097Y-100527327D01*
X134929470Y-100482851D01*
X134953351Y-100466894D01*
X134975814Y-100455098D01*
X134988174Y-100448134D01*
X135040635Y-100416496D01*
X135048512Y-100411535D01*
X135094557Y-100381271D01*
X135095802Y-100380446D01*
X135134695Y-100354535D01*
X135164739Y-100336016D01*
X135188354Y-100323882D01*
X135210941Y-100315232D01*
X135239677Y-100308035D01*
X135281299Y-100302468D01*
X135344668Y-100300000D01*
X136323307Y-100300000D01*
X136340000Y-100301644D01*
X136356693Y-100300000D01*
X136356701Y-100300000D01*
X136406652Y-100295080D01*
X136470742Y-100275639D01*
X136529808Y-100244067D01*
X136581579Y-100201579D01*
X136592230Y-100188601D01*
X144788613Y-91992220D01*
X144801579Y-91981579D01*
X144801922Y-91981161D01*
X145035000Y-91981161D01*
X145174716Y-91967400D01*
X145309063Y-91926646D01*
X145432878Y-91860466D01*
X145541402Y-91771402D01*
X145630466Y-91662878D01*
X145696646Y-91539063D01*
X145737400Y-91404716D01*
X145751161Y-91265000D01*
X145751161Y-89015000D01*
X145737400Y-88875284D01*
X145705462Y-88770000D01*
X145834538Y-88770000D01*
X145802600Y-88875284D01*
X145788839Y-89015000D01*
X145788839Y-91265000D01*
X145802600Y-91404716D01*
X145843354Y-91539063D01*
X145909534Y-91662878D01*
X145998598Y-91771402D01*
X146107122Y-91860466D01*
X146230937Y-91926646D01*
X146293534Y-91945635D01*
X143061394Y-95177775D01*
X143048421Y-95188422D01*
X143005933Y-95240193D01*
X142974361Y-95299259D01*
X142954920Y-95363349D01*
X142950000Y-95413300D01*
X142950000Y-95413307D01*
X142948356Y-95430000D01*
X142950000Y-95446693D01*
X142950001Y-99113297D01*
X142948356Y-99130000D01*
X142954920Y-99196651D01*
X142974361Y-99260741D01*
X143005933Y-99319807D01*
X143037775Y-99358606D01*
X143048422Y-99371579D01*
X143061394Y-99382225D01*
X144328355Y-100649187D01*
X144371443Y-100695769D01*
X144396938Y-100729136D01*
X144412164Y-100754538D01*
X144422021Y-100776629D01*
X144430139Y-100801906D01*
X144438295Y-100836268D01*
X144447469Y-100882067D01*
X144447767Y-100883534D01*
X144458926Y-100937493D01*
X144460988Y-100946570D01*
X144475712Y-101006037D01*
X144479528Y-101019705D01*
X144487069Y-101043925D01*
X144492673Y-101072097D01*
X144537149Y-101179470D01*
X144601717Y-101276103D01*
X144683897Y-101358283D01*
X144780530Y-101422851D01*
X144887903Y-101467327D01*
X145001890Y-101490000D01*
X145118110Y-101490000D01*
X145232097Y-101467327D01*
X145339470Y-101422851D01*
X145436103Y-101358283D01*
X145518283Y-101276103D01*
X145582851Y-101179470D01*
X145627327Y-101072097D01*
X145650000Y-100958110D01*
X145650000Y-100841890D01*
X145627327Y-100727903D01*
X145582851Y-100620530D01*
X145518283Y-100523897D01*
X145436103Y-100441717D01*
X145339470Y-100377149D01*
X145232097Y-100332673D01*
X145203925Y-100327069D01*
X145179705Y-100319528D01*
X145166037Y-100315712D01*
X145106570Y-100300988D01*
X145097493Y-100298926D01*
X145043534Y-100287767D01*
X145042067Y-100287469D01*
X144996268Y-100278295D01*
X144961906Y-100270139D01*
X144936629Y-100262021D01*
X144914538Y-100252164D01*
X144889136Y-100236938D01*
X144855769Y-100211443D01*
X144809187Y-100168355D01*
X143630000Y-98989169D01*
X143630000Y-97751889D01*
X147340001Y-97751889D01*
X147340001Y-97868109D01*
X147362674Y-97982096D01*
X147407150Y-98089469D01*
X147471718Y-98186102D01*
X147553898Y-98268282D01*
X147650531Y-98332850D01*
X147757904Y-98377326D01*
X147783027Y-98382323D01*
X147789412Y-98384366D01*
X147796002Y-98386371D01*
X147841070Y-98399376D01*
X147878111Y-98410312D01*
X147880001Y-98410969D01*
X147880001Y-98682657D01*
X147850320Y-98698521D01*
X147768821Y-98752977D01*
X147732276Y-98782968D01*
X147662968Y-98852276D01*
X147632977Y-98888821D01*
X147578521Y-98970320D01*
X147556235Y-99012015D01*
X147518726Y-99102571D01*
X147505003Y-99147810D01*
X147485881Y-99243943D01*
X147481247Y-99290991D01*
X147481247Y-99315552D01*
X147478839Y-99340000D01*
X147478839Y-99840000D01*
X147481247Y-99864448D01*
X147481247Y-99889009D01*
X147485881Y-99936057D01*
X147505003Y-100032190D01*
X147518726Y-100077429D01*
X147556235Y-100167985D01*
X147578521Y-100209680D01*
X147632977Y-100291179D01*
X147662968Y-100327724D01*
X147732276Y-100397032D01*
X147768821Y-100427023D01*
X147850320Y-100481479D01*
X147892015Y-100503765D01*
X147982571Y-100541274D01*
X148027810Y-100554997D01*
X148123943Y-100574119D01*
X148170991Y-100578753D01*
X148195552Y-100578753D01*
X148220000Y-100581161D01*
X148770000Y-100581161D01*
X148817048Y-100576527D01*
X148862288Y-100562804D01*
X148895000Y-100545319D01*
X148927712Y-100562804D01*
X148972952Y-100576527D01*
X149020000Y-100581161D01*
X149762979Y-100581161D01*
X148734141Y-101610000D01*
X148714672Y-101610000D01*
X148651299Y-101607531D01*
X148609677Y-101601964D01*
X148580941Y-101594767D01*
X148558354Y-101586117D01*
X148534739Y-101573983D01*
X148504695Y-101555464D01*
X148465802Y-101529553D01*
X148464557Y-101528728D01*
X148418512Y-101498464D01*
X148410635Y-101493503D01*
X148358174Y-101461865D01*
X148345811Y-101454900D01*
X148323350Y-101443105D01*
X148299470Y-101427149D01*
X148192097Y-101382673D01*
X148078110Y-101360000D01*
X147961890Y-101360000D01*
X147847903Y-101382673D01*
X147740530Y-101427149D01*
X147643897Y-101491717D01*
X147561717Y-101573897D01*
X147497149Y-101670530D01*
X147452673Y-101777903D01*
X147430000Y-101891890D01*
X147430000Y-102008110D01*
X147452673Y-102122097D01*
X147497149Y-102229470D01*
X147561717Y-102326103D01*
X147643897Y-102408283D01*
X147740530Y-102472851D01*
X147847903Y-102517327D01*
X147961890Y-102540000D01*
X148078110Y-102540000D01*
X148192097Y-102517327D01*
X148299470Y-102472851D01*
X148323351Y-102456894D01*
X148345814Y-102445098D01*
X148358174Y-102438134D01*
X148410635Y-102406496D01*
X148418512Y-102401535D01*
X148464557Y-102371271D01*
X148465802Y-102370446D01*
X148504695Y-102344535D01*
X148534739Y-102326016D01*
X148558354Y-102313882D01*
X148580941Y-102305232D01*
X148609677Y-102298035D01*
X148651299Y-102292468D01*
X148714668Y-102290000D01*
X148858279Y-102290000D01*
X148874972Y-102291644D01*
X148891665Y-102290000D01*
X148891673Y-102290000D01*
X148941624Y-102285080D01*
X149005714Y-102265639D01*
X149064780Y-102234067D01*
X149116551Y-102191579D01*
X149127202Y-102178601D01*
X150724643Y-100581161D01*
X150820000Y-100581161D01*
X150844448Y-100578753D01*
X150869009Y-100578753D01*
X150916057Y-100574119D01*
X151012190Y-100554997D01*
X151057429Y-100541274D01*
X151147985Y-100503765D01*
X151189680Y-100481479D01*
X151271179Y-100427023D01*
X151307724Y-100397032D01*
X151377032Y-100327724D01*
X151407023Y-100291179D01*
X151461479Y-100209680D01*
X151483765Y-100167985D01*
X151521274Y-100077429D01*
X151534997Y-100032190D01*
X151554119Y-99936057D01*
X151558753Y-99889009D01*
X151558753Y-99864448D01*
X151561161Y-99840000D01*
X151561161Y-99340000D01*
X151558753Y-99315552D01*
X151558753Y-99290991D01*
X151554119Y-99243943D01*
X151534997Y-99147810D01*
X151521274Y-99102571D01*
X151483765Y-99012015D01*
X151461479Y-98970320D01*
X151407023Y-98888821D01*
X151377032Y-98852276D01*
X151307724Y-98782968D01*
X151271179Y-98752977D01*
X151189680Y-98698521D01*
X151147985Y-98676235D01*
X151057429Y-98638726D01*
X151012190Y-98625003D01*
X150916057Y-98605881D01*
X150869009Y-98601247D01*
X150844448Y-98601247D01*
X150820000Y-98598839D01*
X150270000Y-98598839D01*
X150222952Y-98603473D01*
X150177712Y-98617196D01*
X150145000Y-98634681D01*
X150112288Y-98617196D01*
X150067048Y-98603473D01*
X150020000Y-98598839D01*
X149830000Y-98598839D01*
X149830000Y-98584668D01*
X149832468Y-98521299D01*
X149838035Y-98479677D01*
X149845232Y-98450941D01*
X149853882Y-98428354D01*
X149866016Y-98404739D01*
X149884535Y-98374695D01*
X149910446Y-98335802D01*
X149911271Y-98334557D01*
X149941535Y-98288512D01*
X149946496Y-98280635D01*
X149978134Y-98228174D01*
X149985098Y-98215814D01*
X149996894Y-98193351D01*
X150012851Y-98169470D01*
X150057327Y-98062097D01*
X150080000Y-97948110D01*
X150080000Y-97831890D01*
X150057327Y-97717903D01*
X150012851Y-97610530D01*
X149996896Y-97586651D01*
X149985099Y-97564187D01*
X149978134Y-97551825D01*
X149946496Y-97499364D01*
X149941535Y-97491487D01*
X149911271Y-97445442D01*
X149910446Y-97444197D01*
X149884535Y-97405304D01*
X149866016Y-97375260D01*
X149853882Y-97351645D01*
X149845232Y-97329058D01*
X149838035Y-97300322D01*
X149832468Y-97258700D01*
X149830000Y-97195332D01*
X149830000Y-96716161D01*
X149855000Y-96716161D01*
X149902048Y-96711527D01*
X149947288Y-96697804D01*
X149988982Y-96675518D01*
X150025527Y-96645527D01*
X150055518Y-96608982D01*
X150077804Y-96567288D01*
X150091527Y-96522048D01*
X150096161Y-96475000D01*
X150096161Y-95545000D01*
X150091527Y-95497952D01*
X150077804Y-95452712D01*
X150055518Y-95411018D01*
X150025527Y-95374473D01*
X149988982Y-95344482D01*
X149947288Y-95322196D01*
X149902048Y-95308473D01*
X149855000Y-95303839D01*
X149830000Y-95303839D01*
X149830000Y-94626161D01*
X149915000Y-94626161D01*
X149962048Y-94621527D01*
X150007288Y-94607804D01*
X150048982Y-94585518D01*
X150085527Y-94555527D01*
X150115518Y-94518982D01*
X150137804Y-94477288D01*
X150151527Y-94432048D01*
X150156161Y-94385000D01*
X150156161Y-93455000D01*
X150151527Y-93407952D01*
X150137804Y-93362712D01*
X150115518Y-93321018D01*
X150085527Y-93284473D01*
X150048982Y-93254482D01*
X150007288Y-93232196D01*
X149962048Y-93218473D01*
X149915000Y-93213839D01*
X149125000Y-93213839D01*
X149077952Y-93218473D01*
X149032712Y-93232196D01*
X148991018Y-93254482D01*
X148954473Y-93284473D01*
X148924482Y-93321018D01*
X148902196Y-93362712D01*
X148888473Y-93407952D01*
X148883839Y-93455000D01*
X148883839Y-94385000D01*
X148888473Y-94432048D01*
X148902196Y-94477288D01*
X148924482Y-94518982D01*
X148954473Y-94555527D01*
X148991018Y-94585518D01*
X149032712Y-94607804D01*
X149077952Y-94621527D01*
X149125000Y-94626161D01*
X149150001Y-94626161D01*
X149150001Y-95303839D01*
X149065000Y-95303839D01*
X149017952Y-95308473D01*
X148972712Y-95322196D01*
X148931018Y-95344482D01*
X148894473Y-95374473D01*
X148864482Y-95411018D01*
X148842196Y-95452712D01*
X148828473Y-95497952D01*
X148823839Y-95545000D01*
X148823839Y-96475000D01*
X148828473Y-96522048D01*
X148842196Y-96567288D01*
X148864482Y-96608982D01*
X148894473Y-96645527D01*
X148931018Y-96675518D01*
X148972712Y-96697804D01*
X149017952Y-96711527D01*
X149065000Y-96716161D01*
X149150000Y-96716161D01*
X149150000Y-97195316D01*
X149147531Y-97258700D01*
X149141964Y-97300322D01*
X149134767Y-97329058D01*
X149126117Y-97351645D01*
X149113983Y-97375260D01*
X149095464Y-97405304D01*
X149069553Y-97444197D01*
X149068728Y-97445442D01*
X149038464Y-97491487D01*
X149033503Y-97499364D01*
X149001865Y-97551825D01*
X148994899Y-97564189D01*
X148983102Y-97586655D01*
X148967149Y-97610530D01*
X148922673Y-97717903D01*
X148900000Y-97831890D01*
X148900000Y-97948110D01*
X148922673Y-98062097D01*
X148967149Y-98169470D01*
X148983105Y-98193350D01*
X148994900Y-98215811D01*
X149001865Y-98228174D01*
X149033503Y-98280635D01*
X149038464Y-98288512D01*
X149068728Y-98334557D01*
X149069553Y-98335802D01*
X149095464Y-98374695D01*
X149113983Y-98404739D01*
X149126117Y-98428354D01*
X149134767Y-98450941D01*
X149141964Y-98479677D01*
X149147531Y-98521299D01*
X149150000Y-98584683D01*
X149150000Y-98598839D01*
X149020000Y-98598839D01*
X148972952Y-98603473D01*
X148927712Y-98617196D01*
X148895000Y-98634681D01*
X148862288Y-98617196D01*
X148817048Y-98603473D01*
X148770000Y-98598839D01*
X148560000Y-98598839D01*
X148560000Y-98116691D01*
X148561644Y-98099998D01*
X148560000Y-98083305D01*
X148560000Y-98083297D01*
X148555080Y-98033346D01*
X148535639Y-97969256D01*
X148526175Y-97951550D01*
X148523633Y-97921961D01*
X148521021Y-97871037D01*
X148520001Y-97808086D01*
X148520001Y-97751889D01*
X148497328Y-97637902D01*
X148452852Y-97530529D01*
X148388284Y-97433896D01*
X148306104Y-97351716D01*
X148209471Y-97287148D01*
X148102098Y-97242672D01*
X147988111Y-97219999D01*
X147871891Y-97219999D01*
X147757904Y-97242672D01*
X147650531Y-97287148D01*
X147553898Y-97351716D01*
X147471718Y-97433896D01*
X147407150Y-97530529D01*
X147362674Y-97637902D01*
X147340001Y-97751889D01*
X143630000Y-97751889D01*
X143630000Y-96475000D01*
X147103452Y-96475000D01*
X147109630Y-96537731D01*
X147127928Y-96598051D01*
X147157643Y-96653642D01*
X147197631Y-96702369D01*
X147246358Y-96742357D01*
X147301949Y-96772072D01*
X147362269Y-96790370D01*
X147425000Y-96796548D01*
X147700000Y-96795000D01*
X147780000Y-96715000D01*
X147780000Y-96050000D01*
X147860000Y-96050000D01*
X147860000Y-96715000D01*
X147940000Y-96795000D01*
X148215000Y-96796548D01*
X148277731Y-96790370D01*
X148338051Y-96772072D01*
X148393642Y-96742357D01*
X148442369Y-96702369D01*
X148482357Y-96653642D01*
X148512072Y-96598051D01*
X148530370Y-96537731D01*
X148536548Y-96475000D01*
X148535000Y-96130000D01*
X148455000Y-96050000D01*
X147860000Y-96050000D01*
X147780000Y-96050000D01*
X147185000Y-96050000D01*
X147105000Y-96130000D01*
X147103452Y-96475000D01*
X143630000Y-96475000D01*
X143630000Y-95570831D01*
X143655831Y-95545000D01*
X147103452Y-95545000D01*
X147105000Y-95890000D01*
X147185000Y-95970000D01*
X147780000Y-95970000D01*
X147780000Y-95305000D01*
X147860000Y-95305000D01*
X147860000Y-95970000D01*
X148455000Y-95970000D01*
X148535000Y-95890000D01*
X148536548Y-95545000D01*
X148530370Y-95482269D01*
X148512072Y-95421949D01*
X148482357Y-95366358D01*
X148442369Y-95317631D01*
X148393642Y-95277643D01*
X148338051Y-95247928D01*
X148277731Y-95229630D01*
X148215000Y-95223452D01*
X147940000Y-95225000D01*
X147860000Y-95305000D01*
X147780000Y-95305000D01*
X147700000Y-95225000D01*
X147425000Y-95223452D01*
X147362269Y-95229630D01*
X147301949Y-95247928D01*
X147246358Y-95277643D01*
X147197631Y-95317631D01*
X147157643Y-95366358D01*
X147127928Y-95421949D01*
X147109630Y-95482269D01*
X147103452Y-95545000D01*
X143655831Y-95545000D01*
X145368941Y-93831890D01*
X146180000Y-93831890D01*
X146180000Y-93948110D01*
X146202673Y-94062097D01*
X146247149Y-94169470D01*
X146311717Y-94266103D01*
X146393897Y-94348283D01*
X146490530Y-94412851D01*
X146597903Y-94457327D01*
X146711890Y-94480000D01*
X146828110Y-94480000D01*
X146942097Y-94457327D01*
X147049470Y-94412851D01*
X147051434Y-94411538D01*
X147055199Y-94409958D01*
X147068313Y-94403984D01*
X147125449Y-94375852D01*
X147134614Y-94371091D01*
X147184655Y-94343717D01*
X147187520Y-94342125D01*
X147230806Y-94317672D01*
X147243839Y-94310735D01*
X147243839Y-94385000D01*
X147248473Y-94432048D01*
X147262196Y-94477288D01*
X147284482Y-94518982D01*
X147314473Y-94555527D01*
X147351018Y-94585518D01*
X147392712Y-94607804D01*
X147437952Y-94621527D01*
X147485000Y-94626161D01*
X148275000Y-94626161D01*
X148322048Y-94621527D01*
X148367288Y-94607804D01*
X148408982Y-94585518D01*
X148445527Y-94555527D01*
X148475518Y-94518982D01*
X148497804Y-94477288D01*
X148511527Y-94432048D01*
X148516161Y-94385000D01*
X148516161Y-93455000D01*
X148511527Y-93407952D01*
X148497804Y-93362712D01*
X148475518Y-93321018D01*
X148445527Y-93284473D01*
X148408982Y-93254482D01*
X148367288Y-93232196D01*
X148322048Y-93218473D01*
X148275000Y-93213839D01*
X147485000Y-93213839D01*
X147437952Y-93218473D01*
X147392712Y-93232196D01*
X147351018Y-93254482D01*
X147314473Y-93284473D01*
X147284482Y-93321018D01*
X147262196Y-93362712D01*
X147248473Y-93407952D01*
X147243839Y-93455000D01*
X147243839Y-93501788D01*
X147200880Y-93469479D01*
X147195461Y-93465521D01*
X147145821Y-93430316D01*
X147135689Y-93423511D01*
X147097667Y-93399353D01*
X147049470Y-93367149D01*
X146942097Y-93322673D01*
X146828110Y-93300000D01*
X146711890Y-93300000D01*
X146597903Y-93322673D01*
X146490530Y-93367149D01*
X146393897Y-93431717D01*
X146311717Y-93513897D01*
X146247149Y-93610530D01*
X146202673Y-93717903D01*
X146180000Y-93831890D01*
X145368941Y-93831890D01*
X147208607Y-91992225D01*
X147221579Y-91981579D01*
X147221922Y-91981161D01*
X147455000Y-91981161D01*
X147594716Y-91967400D01*
X147729063Y-91926646D01*
X147852878Y-91860466D01*
X147961402Y-91771402D01*
X148050466Y-91662878D01*
X148116646Y-91539063D01*
X148157400Y-91404716D01*
X148171161Y-91265000D01*
X148171161Y-89015000D01*
X148157400Y-88875284D01*
X148125462Y-88770000D01*
X150690000Y-88770000D01*
X150690001Y-95915744D01*
X150688597Y-95930000D01*
X150694196Y-95986850D01*
X150710779Y-96041515D01*
X150737707Y-96091895D01*
X150773947Y-96136053D01*
X150818105Y-96172293D01*
X150868485Y-96199221D01*
X150923150Y-96215804D01*
X150965755Y-96220000D01*
X150980000Y-96221403D01*
X150994245Y-96220000D01*
X152879879Y-96220000D01*
X160720000Y-104060121D01*
X160720001Y-116440000D01*
X126314045Y-116440000D01*
X126351957Y-116426940D01*
X126533941Y-116320776D01*
X126691717Y-116181149D01*
X126819221Y-116013424D01*
X126911554Y-115824047D01*
X126957784Y-115657402D01*
X126897195Y-115490000D01*
X125190000Y-115490000D01*
X125190000Y-115510000D01*
X125110000Y-115510000D01*
X125110000Y-115490000D01*
X123402805Y-115490000D01*
X123342216Y-115657402D01*
X123388446Y-115824047D01*
X123480779Y-116013424D01*
X123608283Y-116181149D01*
X123766059Y-116320776D01*
X123948043Y-116426940D01*
X123985955Y-116440000D01*
X121180000Y-116440000D01*
X121180000Y-115242598D01*
X123342216Y-115242598D01*
X123402805Y-115410000D01*
X125110000Y-115410000D01*
X125110000Y-114376000D01*
X125190000Y-114376000D01*
X125190000Y-115410000D01*
X126897195Y-115410000D01*
X126957784Y-115242598D01*
X126911554Y-115075953D01*
X126819221Y-114886576D01*
X126691717Y-114718851D01*
X126533941Y-114579224D01*
X126351957Y-114473060D01*
X126152758Y-114404440D01*
X125944000Y-114376000D01*
X125190000Y-114376000D01*
X125110000Y-114376000D01*
X124356000Y-114376000D01*
X124147242Y-114404440D01*
X123948043Y-114473060D01*
X123766059Y-114579224D01*
X123608283Y-114718851D01*
X123480779Y-114886576D01*
X123388446Y-115075953D01*
X123342216Y-115242598D01*
X121180000Y-115242598D01*
X121180000Y-113050000D01*
X121397191Y-113050000D01*
X121416383Y-113244858D01*
X121473221Y-113432228D01*
X121565521Y-113604909D01*
X121689735Y-113756265D01*
X121841091Y-113880479D01*
X122013772Y-113972779D01*
X122201142Y-114029617D01*
X122347174Y-114044000D01*
X123952826Y-114044000D01*
X124098858Y-114029617D01*
X124286228Y-113972779D01*
X124458909Y-113880479D01*
X124610265Y-113756265D01*
X124734479Y-113604909D01*
X124826779Y-113432228D01*
X124883617Y-113244858D01*
X124902809Y-113050000D01*
X124883617Y-112855142D01*
X124826779Y-112667772D01*
X124734479Y-112495091D01*
X124610265Y-112343735D01*
X124458909Y-112219521D01*
X124286228Y-112127221D01*
X124098858Y-112070383D01*
X123952826Y-112056000D01*
X122347174Y-112056000D01*
X122201142Y-112070383D01*
X122013772Y-112127221D01*
X121841091Y-112219521D01*
X121689735Y-112343735D01*
X121565521Y-112495091D01*
X121473221Y-112667772D01*
X121416383Y-112855142D01*
X121397191Y-113050000D01*
X121180000Y-113050000D01*
X121180000Y-107550000D01*
X121397191Y-107550000D01*
X121416383Y-107744858D01*
X121473221Y-107932228D01*
X121565521Y-108104909D01*
X121689735Y-108256265D01*
X121841091Y-108380479D01*
X122013772Y-108472779D01*
X122201142Y-108529617D01*
X122347174Y-108544000D01*
X123811263Y-108544000D01*
X123689735Y-108643735D01*
X123565521Y-108795091D01*
X123473221Y-108967772D01*
X123416383Y-109155142D01*
X123397191Y-109350000D01*
X123416383Y-109544858D01*
X123473221Y-109732228D01*
X123565521Y-109904909D01*
X123689735Y-110056265D01*
X123841091Y-110180479D01*
X124013772Y-110272779D01*
X124201142Y-110329617D01*
X124347174Y-110344000D01*
X125952826Y-110344000D01*
X126098858Y-110329617D01*
X126286228Y-110272779D01*
X126458909Y-110180479D01*
X126610265Y-110056265D01*
X126734479Y-109904909D01*
X126826779Y-109732228D01*
X126883617Y-109544858D01*
X126902809Y-109350000D01*
X126883617Y-109155142D01*
X126826779Y-108967772D01*
X126734479Y-108795091D01*
X126610265Y-108643735D01*
X126458909Y-108519521D01*
X126286228Y-108427221D01*
X126098858Y-108370383D01*
X125952826Y-108356000D01*
X124488737Y-108356000D01*
X124610265Y-108256265D01*
X124734479Y-108104909D01*
X124826779Y-107932228D01*
X124883617Y-107744858D01*
X124902809Y-107550000D01*
X124883617Y-107355142D01*
X124826779Y-107167772D01*
X124734479Y-106995091D01*
X124610265Y-106843735D01*
X124458909Y-106719521D01*
X124286228Y-106627221D01*
X124098858Y-106570383D01*
X123952826Y-106556000D01*
X122347174Y-106556000D01*
X122201142Y-106570383D01*
X122013772Y-106627221D01*
X121841091Y-106719521D01*
X121689735Y-106843735D01*
X121565521Y-106995091D01*
X121473221Y-107167772D01*
X121416383Y-107355142D01*
X121397191Y-107550000D01*
X121180000Y-107550000D01*
X121180000Y-104060121D01*
X121390121Y-103850000D01*
X123397191Y-103850000D01*
X123416383Y-104044858D01*
X123473221Y-104232228D01*
X123565521Y-104404909D01*
X123689735Y-104556265D01*
X123841091Y-104680479D01*
X124013772Y-104772779D01*
X124201142Y-104829617D01*
X124347174Y-104844000D01*
X125952826Y-104844000D01*
X126098858Y-104829617D01*
X126286228Y-104772779D01*
X126458909Y-104680479D01*
X126610265Y-104556265D01*
X126734479Y-104404909D01*
X126826779Y-104232228D01*
X126883617Y-104044858D01*
X126902809Y-103850000D01*
X126883617Y-103655142D01*
X126836556Y-103500000D01*
X127258356Y-103500000D01*
X127260000Y-103516693D01*
X127260001Y-112093297D01*
X127258356Y-112110000D01*
X127264920Y-112176651D01*
X127284361Y-112240741D01*
X127305059Y-112279463D01*
X127315934Y-112299808D01*
X127358422Y-112351579D01*
X127371394Y-112362225D01*
X130617779Y-115608612D01*
X130628421Y-115621579D01*
X130641387Y-115632220D01*
X130641392Y-115632225D01*
X130672071Y-115657402D01*
X130680192Y-115664067D01*
X130739258Y-115695639D01*
X130803348Y-115715080D01*
X130853299Y-115720000D01*
X130853308Y-115720000D01*
X130869999Y-115721644D01*
X130886690Y-115720000D01*
X147573307Y-115720000D01*
X147590000Y-115721644D01*
X147606693Y-115720000D01*
X147606701Y-115720000D01*
X147656652Y-115715080D01*
X147720742Y-115695639D01*
X147779808Y-115664067D01*
X147831579Y-115621579D01*
X147842229Y-115608602D01*
X148108611Y-115342221D01*
X148121578Y-115331579D01*
X148132221Y-115318611D01*
X148132225Y-115318607D01*
X148164067Y-115279808D01*
X148195639Y-115220742D01*
X148198416Y-115211587D01*
X148230520Y-115165953D01*
X148246012Y-115140767D01*
X148306677Y-115026976D01*
X148317491Y-115003794D01*
X148361054Y-114895720D01*
X148366516Y-114880757D01*
X148400753Y-114776318D01*
X148401430Y-114774217D01*
X148432214Y-114677308D01*
X148464553Y-114591343D01*
X148504928Y-114510418D01*
X148561933Y-114425888D01*
X148650821Y-114325671D01*
X148721658Y-114254834D01*
X148840945Y-114076309D01*
X148923112Y-113877941D01*
X148965000Y-113667356D01*
X148965000Y-113452644D01*
X149075000Y-113452644D01*
X149075000Y-113667356D01*
X149116888Y-113877941D01*
X149199055Y-114076309D01*
X149318342Y-114254834D01*
X149470166Y-114406658D01*
X149648691Y-114525945D01*
X149847059Y-114608112D01*
X150057644Y-114650000D01*
X150272356Y-114650000D01*
X150482941Y-114608112D01*
X150681309Y-114525945D01*
X150859834Y-114406658D01*
X151011658Y-114254834D01*
X151130945Y-114076309D01*
X151213112Y-113877941D01*
X151255000Y-113667356D01*
X151255000Y-113452644D01*
X151213112Y-113242059D01*
X151205359Y-113223341D01*
X156493228Y-113223341D01*
X156722809Y-113516065D01*
X157126595Y-113743639D01*
X157567019Y-113888066D01*
X158027158Y-113943794D01*
X158489327Y-113908684D01*
X158935766Y-113784083D01*
X159349318Y-113574780D01*
X159437191Y-113516065D01*
X159666772Y-113223341D01*
X158080000Y-111636569D01*
X156493228Y-113223341D01*
X151205359Y-113223341D01*
X151130945Y-113043691D01*
X151011658Y-112865166D01*
X150859834Y-112713342D01*
X150681309Y-112594055D01*
X150482941Y-112511888D01*
X150272356Y-112470000D01*
X150057644Y-112470000D01*
X149847059Y-112511888D01*
X149648691Y-112594055D01*
X149470166Y-112713342D01*
X149318342Y-112865166D01*
X149199055Y-113043691D01*
X149116888Y-113242059D01*
X149075000Y-113452644D01*
X148965000Y-113452644D01*
X148923112Y-113242059D01*
X148840945Y-113043691D01*
X148721658Y-112865166D01*
X148569834Y-112713342D01*
X148391309Y-112594055D01*
X148192941Y-112511888D01*
X147982356Y-112470000D01*
X147767644Y-112470000D01*
X147557059Y-112511888D01*
X147358691Y-112594055D01*
X147180166Y-112713342D01*
X147028342Y-112865166D01*
X146909055Y-113043691D01*
X146826888Y-113242059D01*
X146785000Y-113452644D01*
X146785000Y-113667356D01*
X146826888Y-113877941D01*
X146909055Y-114076309D01*
X147028342Y-114254834D01*
X147063795Y-114290287D01*
X147134590Y-114373976D01*
X147149605Y-114390154D01*
X147273018Y-114511432D01*
X147279321Y-114517406D01*
X147400104Y-114627799D01*
X147500846Y-114724323D01*
X147540000Y-114770278D01*
X147540000Y-114940899D01*
X147509329Y-114979840D01*
X147449169Y-115040000D01*
X131010833Y-115040000D01*
X129194173Y-113223341D01*
X131503228Y-113223341D01*
X131732809Y-113516065D01*
X132136595Y-113743639D01*
X132577019Y-113888066D01*
X133037158Y-113943794D01*
X133499327Y-113908684D01*
X133945766Y-113784083D01*
X134359318Y-113574780D01*
X134447191Y-113516065D01*
X134676772Y-113223341D01*
X133090000Y-111636569D01*
X131503228Y-113223341D01*
X129194173Y-113223341D01*
X127940000Y-111969169D01*
X127940000Y-111527158D01*
X130726206Y-111527158D01*
X130761316Y-111989327D01*
X130885917Y-112435766D01*
X131095220Y-112849318D01*
X131153935Y-112937191D01*
X131446659Y-113166772D01*
X133033431Y-111580000D01*
X133146569Y-111580000D01*
X134733341Y-113166772D01*
X135026065Y-112937191D01*
X135253639Y-112533405D01*
X135398066Y-112092981D01*
X135453794Y-111632842D01*
X135418684Y-111170673D01*
X135294083Y-110724234D01*
X135084780Y-110310682D01*
X135026065Y-110222809D01*
X134733341Y-109993228D01*
X133146569Y-111580000D01*
X133033431Y-111580000D01*
X131446659Y-109993228D01*
X131153935Y-110222809D01*
X130926361Y-110626595D01*
X130781934Y-111067019D01*
X130726206Y-111527158D01*
X127940000Y-111527158D01*
X127940000Y-109936659D01*
X131503228Y-109936659D01*
X133090000Y-111523431D01*
X134676772Y-109936659D01*
X134447191Y-109643935D01*
X134043405Y-109416361D01*
X133602981Y-109271934D01*
X133142842Y-109216206D01*
X132680673Y-109251316D01*
X132234234Y-109375917D01*
X131820682Y-109585220D01*
X131732809Y-109643935D01*
X131503228Y-109936659D01*
X127940000Y-109936659D01*
X127940000Y-106495000D01*
X129533839Y-106495000D01*
X129533839Y-107415000D01*
X129538473Y-107462048D01*
X129552196Y-107507288D01*
X129574482Y-107548982D01*
X129604473Y-107585527D01*
X129641018Y-107615518D01*
X129682712Y-107637804D01*
X129727952Y-107651527D01*
X129775000Y-107656161D01*
X130480329Y-107656161D01*
X131152779Y-108328612D01*
X131163421Y-108341579D01*
X131176387Y-108352220D01*
X131176393Y-108352226D01*
X131191073Y-108364273D01*
X131215192Y-108384067D01*
X131274258Y-108415639D01*
X131338348Y-108435080D01*
X131388299Y-108440000D01*
X131388307Y-108440000D01*
X131405000Y-108441644D01*
X131421693Y-108440000D01*
X135659169Y-108440000D01*
X139808960Y-112589792D01*
X139898261Y-112691766D01*
X139945821Y-112768643D01*
X139969000Y-112831435D01*
X139978169Y-112892854D01*
X139976684Y-112966150D01*
X139965042Y-113058436D01*
X139946669Y-113169422D01*
X139945947Y-113174063D01*
X139927804Y-113298759D01*
X139926052Y-113314363D01*
X139915217Y-113451142D01*
X139915202Y-113451627D01*
X139915000Y-113452644D01*
X139915000Y-113458302D01*
X139914509Y-113474504D01*
X139915000Y-113501222D01*
X139915000Y-113667356D01*
X139956888Y-113877941D01*
X140039055Y-114076309D01*
X140158342Y-114254834D01*
X140310166Y-114406658D01*
X140488691Y-114525945D01*
X140687059Y-114608112D01*
X140897644Y-114650000D01*
X141112356Y-114650000D01*
X141322941Y-114608112D01*
X141521309Y-114525945D01*
X141699834Y-114406658D01*
X141851658Y-114254834D01*
X141970945Y-114076309D01*
X142053112Y-113877941D01*
X142095000Y-113667356D01*
X142095000Y-113452644D01*
X142205000Y-113452644D01*
X142205000Y-113667356D01*
X142246888Y-113877941D01*
X142329055Y-114076309D01*
X142448342Y-114254834D01*
X142600166Y-114406658D01*
X142778691Y-114525945D01*
X142977059Y-114608112D01*
X143187644Y-114650000D01*
X143402356Y-114650000D01*
X143612941Y-114608112D01*
X143811309Y-114525945D01*
X143989834Y-114406658D01*
X144141658Y-114254834D01*
X144260945Y-114076309D01*
X144343112Y-113877941D01*
X144385000Y-113667356D01*
X144385000Y-113452644D01*
X144495000Y-113452644D01*
X144495000Y-113667356D01*
X144536888Y-113877941D01*
X144619055Y-114076309D01*
X144738342Y-114254834D01*
X144890166Y-114406658D01*
X145068691Y-114525945D01*
X145267059Y-114608112D01*
X145477644Y-114650000D01*
X145692356Y-114650000D01*
X145902941Y-114608112D01*
X146101309Y-114525945D01*
X146279834Y-114406658D01*
X146431658Y-114254834D01*
X146550945Y-114076309D01*
X146633112Y-113877941D01*
X146675000Y-113667356D01*
X146675000Y-113452644D01*
X146633112Y-113242059D01*
X146550945Y-113043691D01*
X146431658Y-112865166D01*
X146279834Y-112713342D01*
X146101309Y-112594055D01*
X145902941Y-112511888D01*
X145692356Y-112470000D01*
X145477644Y-112470000D01*
X145267059Y-112511888D01*
X145068691Y-112594055D01*
X144890166Y-112713342D01*
X144738342Y-112865166D01*
X144619055Y-113043691D01*
X144536888Y-113242059D01*
X144495000Y-113452644D01*
X144385000Y-113452644D01*
X144343112Y-113242059D01*
X144260945Y-113043691D01*
X144141658Y-112865166D01*
X143989834Y-112713342D01*
X143811309Y-112594055D01*
X143612941Y-112511888D01*
X143402356Y-112470000D01*
X143187644Y-112470000D01*
X142977059Y-112511888D01*
X142778691Y-112594055D01*
X142600166Y-112713342D01*
X142448342Y-112865166D01*
X142329055Y-113043691D01*
X142246888Y-113242059D01*
X142205000Y-113452644D01*
X142095000Y-113452644D01*
X142053112Y-113242059D01*
X141970945Y-113043691D01*
X141851658Y-112865166D01*
X141699834Y-112713342D01*
X141521309Y-112594055D01*
X141479139Y-112576587D01*
X141448210Y-112558457D01*
X141418480Y-112543690D01*
X141275149Y-112484473D01*
X141246548Y-112474715D01*
X141112253Y-112438156D01*
X141091628Y-112433507D01*
X140963555Y-112410510D01*
X140956421Y-112409339D01*
X140836133Y-112391462D01*
X140788202Y-112382517D01*
X141404051Y-112382517D01*
X141491725Y-112554091D01*
X141694408Y-112663797D01*
X141914601Y-112731854D01*
X142143839Y-112755645D01*
X142373314Y-112734257D01*
X142594207Y-112668512D01*
X142798030Y-112560936D01*
X142808275Y-112554091D01*
X142895949Y-112382517D01*
X142150000Y-111636569D01*
X141404051Y-112382517D01*
X140788202Y-112382517D01*
X140728176Y-112371315D01*
X140629808Y-112342595D01*
X140531077Y-112297724D01*
X140421786Y-112225802D01*
X140290225Y-112109394D01*
X139754670Y-111573839D01*
X140974355Y-111573839D01*
X140995743Y-111803314D01*
X141061488Y-112024207D01*
X141169064Y-112228030D01*
X141175909Y-112238275D01*
X141347483Y-112325949D01*
X142093431Y-111580000D01*
X142206569Y-111580000D01*
X142952517Y-112325949D01*
X143124091Y-112238275D01*
X143233797Y-112035592D01*
X143301854Y-111815399D01*
X143325645Y-111586161D01*
X143315065Y-111472644D01*
X143350000Y-111472644D01*
X143350000Y-111687356D01*
X143391888Y-111897941D01*
X143474055Y-112096309D01*
X143593342Y-112274834D01*
X143745166Y-112426658D01*
X143923691Y-112545945D01*
X144122059Y-112628112D01*
X144332644Y-112670000D01*
X144547356Y-112670000D01*
X144757941Y-112628112D01*
X144956309Y-112545945D01*
X145134834Y-112426658D01*
X145178975Y-112382517D01*
X145984051Y-112382517D01*
X146071725Y-112554091D01*
X146274408Y-112663797D01*
X146494601Y-112731854D01*
X146723839Y-112755645D01*
X146953314Y-112734257D01*
X147174207Y-112668512D01*
X147378030Y-112560936D01*
X147388275Y-112554091D01*
X147475949Y-112382517D01*
X148274051Y-112382517D01*
X148361725Y-112554091D01*
X148564408Y-112663797D01*
X148784601Y-112731854D01*
X149013839Y-112755645D01*
X149243314Y-112734257D01*
X149464207Y-112668512D01*
X149668030Y-112560936D01*
X149678275Y-112554091D01*
X149765949Y-112382517D01*
X150564051Y-112382517D01*
X150651725Y-112554091D01*
X150854408Y-112663797D01*
X151074601Y-112731854D01*
X151303839Y-112755645D01*
X151533314Y-112734257D01*
X151754207Y-112668512D01*
X151958030Y-112560936D01*
X151968275Y-112554091D01*
X152055949Y-112382517D01*
X151310000Y-111636569D01*
X150564051Y-112382517D01*
X149765949Y-112382517D01*
X149020000Y-111636569D01*
X148274051Y-112382517D01*
X147475949Y-112382517D01*
X146730000Y-111636569D01*
X145984051Y-112382517D01*
X145178975Y-112382517D01*
X145286658Y-112274834D01*
X145405945Y-112096309D01*
X145488112Y-111897941D01*
X145530000Y-111687356D01*
X145530000Y-111573839D01*
X145554355Y-111573839D01*
X145575743Y-111803314D01*
X145641488Y-112024207D01*
X145749064Y-112228030D01*
X145755909Y-112238275D01*
X145927483Y-112325949D01*
X146673431Y-111580000D01*
X146786569Y-111580000D01*
X147532517Y-112325949D01*
X147704091Y-112238275D01*
X147813797Y-112035592D01*
X147875479Y-111836025D01*
X147931488Y-112024207D01*
X148039064Y-112228030D01*
X148045909Y-112238275D01*
X148217483Y-112325949D01*
X148963431Y-111580000D01*
X149076569Y-111580000D01*
X149822517Y-112325949D01*
X149994091Y-112238275D01*
X150103797Y-112035592D01*
X150165479Y-111836025D01*
X150221488Y-112024207D01*
X150329064Y-112228030D01*
X150335909Y-112238275D01*
X150507483Y-112325949D01*
X151253431Y-111580000D01*
X151366569Y-111580000D01*
X152112517Y-112325949D01*
X152284091Y-112238275D01*
X152393797Y-112035592D01*
X152461854Y-111815399D01*
X152485645Y-111586161D01*
X152480146Y-111527158D01*
X155716206Y-111527158D01*
X155751316Y-111989327D01*
X155875917Y-112435766D01*
X156085220Y-112849318D01*
X156143935Y-112937191D01*
X156436659Y-113166772D01*
X158023431Y-111580000D01*
X158136569Y-111580000D01*
X159723341Y-113166772D01*
X160016065Y-112937191D01*
X160243639Y-112533405D01*
X160388066Y-112092981D01*
X160443794Y-111632842D01*
X160408684Y-111170673D01*
X160284083Y-110724234D01*
X160074780Y-110310682D01*
X160016065Y-110222809D01*
X159723341Y-109993228D01*
X158136569Y-111580000D01*
X158023431Y-111580000D01*
X156436659Y-109993228D01*
X156143935Y-110222809D01*
X155916361Y-110626595D01*
X155771934Y-111067019D01*
X155716206Y-111527158D01*
X152480146Y-111527158D01*
X152464257Y-111356686D01*
X152398512Y-111135793D01*
X152290936Y-110931970D01*
X152284091Y-110921725D01*
X152112517Y-110834051D01*
X151366569Y-111580000D01*
X151253431Y-111580000D01*
X150507483Y-110834051D01*
X150335909Y-110921725D01*
X150226203Y-111124408D01*
X150164521Y-111323975D01*
X150108512Y-111135793D01*
X150000936Y-110931970D01*
X149994091Y-110921725D01*
X149822517Y-110834051D01*
X149076569Y-111580000D01*
X148963431Y-111580000D01*
X148217483Y-110834051D01*
X148045909Y-110921725D01*
X147936203Y-111124408D01*
X147874521Y-111323975D01*
X147818512Y-111135793D01*
X147710936Y-110931970D01*
X147704091Y-110921725D01*
X147532517Y-110834051D01*
X146786569Y-111580000D01*
X146673431Y-111580000D01*
X145927483Y-110834051D01*
X145755909Y-110921725D01*
X145646203Y-111124408D01*
X145578146Y-111344601D01*
X145554355Y-111573839D01*
X145530000Y-111573839D01*
X145530000Y-111472644D01*
X145488112Y-111262059D01*
X145405945Y-111063691D01*
X145286658Y-110885166D01*
X145178975Y-110777483D01*
X145984051Y-110777483D01*
X146730000Y-111523431D01*
X147475949Y-110777483D01*
X148274051Y-110777483D01*
X149020000Y-111523431D01*
X149765949Y-110777483D01*
X149721839Y-110691161D01*
X150608161Y-110691161D01*
X150564051Y-110777483D01*
X151310000Y-111523431D01*
X152055949Y-110777483D01*
X151968275Y-110605909D01*
X151765592Y-110496203D01*
X151545399Y-110428146D01*
X151316161Y-110404355D01*
X151256161Y-110409947D01*
X151256161Y-109936659D01*
X156493228Y-109936659D01*
X158080000Y-111523431D01*
X159666772Y-109936659D01*
X159437191Y-109643935D01*
X159033405Y-109416361D01*
X158592981Y-109271934D01*
X158132842Y-109216206D01*
X157670673Y-109251316D01*
X157224234Y-109375917D01*
X156810682Y-109585220D01*
X156722809Y-109643935D01*
X156493228Y-109936659D01*
X151256161Y-109936659D01*
X151256161Y-109737821D01*
X151257082Y-109733785D01*
X151285484Y-109574503D01*
X151287943Y-109557009D01*
X151302906Y-109412016D01*
X151303618Y-109403713D01*
X151312645Y-109271386D01*
X151322696Y-109155072D01*
X151339227Y-109054736D01*
X151367087Y-108962027D01*
X151413476Y-108865552D01*
X151489179Y-108755298D01*
X151609573Y-108621258D01*
X154098607Y-106132225D01*
X154111579Y-106121579D01*
X154154067Y-106069808D01*
X154185639Y-106010742D01*
X154205080Y-105946652D01*
X154210000Y-105896701D01*
X154210000Y-105896693D01*
X154210452Y-105892101D01*
X154217745Y-105873656D01*
X154230710Y-105844570D01*
X154243732Y-105821077D01*
X154249184Y-105813402D01*
X154260635Y-105806496D01*
X154268512Y-105801535D01*
X154314557Y-105771271D01*
X154315802Y-105770446D01*
X154354695Y-105744535D01*
X154384739Y-105726016D01*
X154408354Y-105713882D01*
X154430941Y-105705232D01*
X154459677Y-105698035D01*
X154501299Y-105692468D01*
X154564668Y-105690000D01*
X155413839Y-105690000D01*
X155413839Y-105745000D01*
X155418473Y-105792048D01*
X155432196Y-105837288D01*
X155454482Y-105878982D01*
X155484473Y-105915527D01*
X155521018Y-105945518D01*
X155562712Y-105967804D01*
X155607952Y-105981527D01*
X155655000Y-105986161D01*
X156585000Y-105986161D01*
X156632048Y-105981527D01*
X156677288Y-105967804D01*
X156718982Y-105945518D01*
X156755527Y-105915527D01*
X156785518Y-105878982D01*
X156807804Y-105837288D01*
X156821527Y-105792048D01*
X156826161Y-105745000D01*
X156826161Y-104955000D01*
X156821527Y-104907952D01*
X156807804Y-104862712D01*
X156785518Y-104821018D01*
X156755527Y-104784473D01*
X156718982Y-104754482D01*
X156677288Y-104732196D01*
X156632048Y-104718473D01*
X156585000Y-104713839D01*
X155655000Y-104713839D01*
X155607952Y-104718473D01*
X155562712Y-104732196D01*
X155521018Y-104754482D01*
X155484473Y-104784473D01*
X155454482Y-104821018D01*
X155432196Y-104862712D01*
X155418473Y-104907952D01*
X155413839Y-104955000D01*
X155413839Y-105010000D01*
X154564672Y-105010000D01*
X154501299Y-105007531D01*
X154459677Y-105001964D01*
X154430941Y-104994767D01*
X154408354Y-104986117D01*
X154384739Y-104973983D01*
X154354695Y-104955464D01*
X154315802Y-104929553D01*
X154314557Y-104928728D01*
X154268512Y-104898464D01*
X154260635Y-104893503D01*
X154208174Y-104861865D01*
X154195811Y-104854900D01*
X154173350Y-104843105D01*
X154149470Y-104827149D01*
X154042097Y-104782673D01*
X153928110Y-104760000D01*
X153811890Y-104760000D01*
X153697903Y-104782673D01*
X153590530Y-104827149D01*
X153493897Y-104891717D01*
X153411717Y-104973897D01*
X153347149Y-105070530D01*
X153302673Y-105177903D01*
X153280000Y-105291890D01*
X153280000Y-105408110D01*
X153302673Y-105522097D01*
X153347149Y-105629470D01*
X153372317Y-105667136D01*
X153373994Y-105670106D01*
X153386196Y-105689489D01*
X153410675Y-105724543D01*
X153411717Y-105726103D01*
X153411873Y-105726259D01*
X153418222Y-105735351D01*
X153425158Y-105744785D01*
X153458424Y-105787791D01*
X153458446Y-105787819D01*
X153468437Y-105800731D01*
X151128702Y-108140467D01*
X150993348Y-108262143D01*
X150881694Y-108339114D01*
X150783697Y-108386754D01*
X150689454Y-108415851D01*
X150587704Y-108433775D01*
X150470181Y-108445648D01*
X150337221Y-108457089D01*
X150328236Y-108458032D01*
X150183108Y-108476044D01*
X150165111Y-108478976D01*
X150017395Y-108508839D01*
X149315000Y-108508839D01*
X149267952Y-108513473D01*
X149222712Y-108527196D01*
X149181018Y-108549482D01*
X149144473Y-108579473D01*
X149114482Y-108616018D01*
X149092196Y-108657712D01*
X149078473Y-108702952D01*
X149073839Y-108750000D01*
X149073839Y-110409303D01*
X149026161Y-110404355D01*
X148796686Y-110425743D01*
X148575793Y-110491488D01*
X148371970Y-110599064D01*
X148361725Y-110605909D01*
X148274051Y-110777483D01*
X147475949Y-110777483D01*
X147388275Y-110605909D01*
X147185592Y-110496203D01*
X146965399Y-110428146D01*
X146736161Y-110404355D01*
X146506686Y-110425743D01*
X146285793Y-110491488D01*
X146081970Y-110599064D01*
X146071725Y-110605909D01*
X145984051Y-110777483D01*
X145178975Y-110777483D01*
X145134834Y-110733342D01*
X144956309Y-110614055D01*
X144757941Y-110531888D01*
X144547356Y-110490000D01*
X144332644Y-110490000D01*
X144122059Y-110531888D01*
X143923691Y-110614055D01*
X143745166Y-110733342D01*
X143593342Y-110885166D01*
X143474055Y-111063691D01*
X143391888Y-111262059D01*
X143350000Y-111472644D01*
X143315065Y-111472644D01*
X143304257Y-111356686D01*
X143238512Y-111135793D01*
X143130936Y-110931970D01*
X143124091Y-110921725D01*
X142952517Y-110834051D01*
X142206569Y-111580000D01*
X142093431Y-111580000D01*
X141347483Y-110834051D01*
X141175909Y-110921725D01*
X141066203Y-111124408D01*
X140998146Y-111344601D01*
X140974355Y-111573839D01*
X139754670Y-111573839D01*
X138583348Y-110402517D01*
X140259051Y-110402517D01*
X140346725Y-110574091D01*
X140549408Y-110683797D01*
X140769601Y-110751854D01*
X140998839Y-110775645D01*
X141228314Y-110754257D01*
X141449207Y-110688512D01*
X141449629Y-110688289D01*
X141404051Y-110777483D01*
X142150000Y-111523431D01*
X142895949Y-110777483D01*
X142808275Y-110605909D01*
X142605592Y-110496203D01*
X142385399Y-110428146D01*
X142156161Y-110404355D01*
X141926686Y-110425743D01*
X141705793Y-110491488D01*
X141705371Y-110491711D01*
X141750949Y-110402517D01*
X141005000Y-109656569D01*
X140259051Y-110402517D01*
X138583348Y-110402517D01*
X137774670Y-109593839D01*
X139829355Y-109593839D01*
X139850743Y-109823314D01*
X139916488Y-110044207D01*
X140024064Y-110248030D01*
X140030909Y-110258275D01*
X140202483Y-110345949D01*
X140948431Y-109600000D01*
X141061569Y-109600000D01*
X141807517Y-110345949D01*
X141979091Y-110258275D01*
X142088797Y-110055592D01*
X142156854Y-109835399D01*
X142180645Y-109606161D01*
X142170065Y-109492644D01*
X142205000Y-109492644D01*
X142205000Y-109707356D01*
X142246888Y-109917941D01*
X142329055Y-110116309D01*
X142448342Y-110294834D01*
X142600166Y-110446658D01*
X142778691Y-110565945D01*
X142977059Y-110648112D01*
X143187644Y-110690000D01*
X143402356Y-110690000D01*
X143612941Y-110648112D01*
X143811309Y-110565945D01*
X143989834Y-110446658D01*
X144141658Y-110294834D01*
X144260945Y-110116309D01*
X144343112Y-109917941D01*
X144385000Y-109707356D01*
X144385000Y-109492644D01*
X144343112Y-109282059D01*
X144260945Y-109083691D01*
X144141658Y-108905166D01*
X143989834Y-108753342D01*
X143811309Y-108634055D01*
X143612941Y-108551888D01*
X143402356Y-108510000D01*
X143187644Y-108510000D01*
X142977059Y-108551888D01*
X142778691Y-108634055D01*
X142600166Y-108753342D01*
X142448342Y-108905166D01*
X142329055Y-109083691D01*
X142246888Y-109282059D01*
X142205000Y-109492644D01*
X142170065Y-109492644D01*
X142159257Y-109376686D01*
X142093512Y-109155793D01*
X141985936Y-108951970D01*
X141979091Y-108941725D01*
X141807517Y-108854051D01*
X141061569Y-109600000D01*
X140948431Y-109600000D01*
X140202483Y-108854051D01*
X140030909Y-108941725D01*
X139921203Y-109144408D01*
X139853146Y-109364601D01*
X139829355Y-109593839D01*
X137774670Y-109593839D01*
X136978314Y-108797483D01*
X140259051Y-108797483D01*
X141005000Y-109543431D01*
X141750949Y-108797483D01*
X141663275Y-108625909D01*
X141460592Y-108516203D01*
X141240399Y-108448146D01*
X141011161Y-108424355D01*
X140781686Y-108445743D01*
X140560793Y-108511488D01*
X140356970Y-108619064D01*
X140346725Y-108625909D01*
X140259051Y-108797483D01*
X136978314Y-108797483D01*
X136052230Y-107871399D01*
X136041579Y-107858421D01*
X135989808Y-107815933D01*
X135930742Y-107784361D01*
X135866652Y-107764920D01*
X135816701Y-107760000D01*
X135816693Y-107760000D01*
X135800000Y-107758356D01*
X135783307Y-107760000D01*
X131545833Y-107760000D01*
X130986161Y-107200329D01*
X130986161Y-106495000D01*
X130981527Y-106447952D01*
X130967804Y-106402712D01*
X130945518Y-106361018D01*
X130915527Y-106324473D01*
X130878982Y-106294482D01*
X130837288Y-106272196D01*
X130792048Y-106258473D01*
X130745000Y-106253839D01*
X129775000Y-106253839D01*
X129727952Y-106258473D01*
X129682712Y-106272196D01*
X129641018Y-106294482D01*
X129604473Y-106324473D01*
X129574482Y-106361018D01*
X129552196Y-106402712D01*
X129538473Y-106447952D01*
X129533839Y-106495000D01*
X127940000Y-106495000D01*
X127940000Y-105321890D01*
X128560001Y-105321890D01*
X128560001Y-105438110D01*
X128582674Y-105552097D01*
X128627150Y-105659470D01*
X128691718Y-105756103D01*
X128773898Y-105838283D01*
X128870531Y-105902851D01*
X128977904Y-105947327D01*
X129091891Y-105970000D01*
X129208111Y-105970000D01*
X129322098Y-105947327D01*
X129429471Y-105902851D01*
X129431435Y-105901539D01*
X129435198Y-105899959D01*
X129448310Y-105893985D01*
X129505447Y-105865853D01*
X129514613Y-105861093D01*
X129533839Y-105850576D01*
X129533839Y-105865000D01*
X129538473Y-105912048D01*
X129552196Y-105957288D01*
X129574482Y-105998982D01*
X129604473Y-106035527D01*
X129641018Y-106065518D01*
X129682712Y-106087804D01*
X129727952Y-106101527D01*
X129775000Y-106106161D01*
X130745000Y-106106161D01*
X130792048Y-106101527D01*
X130837288Y-106087804D01*
X130878982Y-106065518D01*
X130915527Y-106035527D01*
X130945518Y-105998982D01*
X130967804Y-105957288D01*
X130981527Y-105912048D01*
X130986161Y-105865000D01*
X130986161Y-104945000D01*
X130981527Y-104897952D01*
X130967804Y-104852712D01*
X130945518Y-104811018D01*
X130915527Y-104774473D01*
X130878982Y-104744482D01*
X130837288Y-104722196D01*
X130792048Y-104708473D01*
X130745000Y-104703839D01*
X129775000Y-104703839D01*
X129727952Y-104708473D01*
X129682712Y-104722196D01*
X129641018Y-104744482D01*
X129604473Y-104774473D01*
X129574482Y-104811018D01*
X129552196Y-104852712D01*
X129538473Y-104897952D01*
X129535588Y-104927243D01*
X129525824Y-104920318D01*
X129515695Y-104913514D01*
X129477643Y-104889336D01*
X129429471Y-104857149D01*
X129322098Y-104812673D01*
X129208111Y-104790000D01*
X129091891Y-104790000D01*
X128977904Y-104812673D01*
X128870531Y-104857149D01*
X128773898Y-104921717D01*
X128691718Y-105003897D01*
X128627150Y-105100530D01*
X128582674Y-105207903D01*
X128560001Y-105321890D01*
X127940000Y-105321890D01*
X127940000Y-103640831D01*
X127955831Y-103625000D01*
X132363839Y-103625000D01*
X132363839Y-104415000D01*
X132368473Y-104462048D01*
X132382196Y-104507288D01*
X132404482Y-104548982D01*
X132434473Y-104585527D01*
X132471018Y-104615518D01*
X132512712Y-104637804D01*
X132557952Y-104651527D01*
X132605000Y-104656161D01*
X132730001Y-104656161D01*
X132730001Y-104675314D01*
X132727531Y-104738700D01*
X132721964Y-104780322D01*
X132714767Y-104809058D01*
X132706117Y-104831645D01*
X132693983Y-104855260D01*
X132675464Y-104885304D01*
X132649553Y-104924197D01*
X132648728Y-104925442D01*
X132618464Y-104971487D01*
X132613503Y-104979364D01*
X132581865Y-105031825D01*
X132574899Y-105044189D01*
X132563102Y-105066655D01*
X132547149Y-105090530D01*
X132502673Y-105197903D01*
X132480000Y-105311890D01*
X132480000Y-105428110D01*
X132502673Y-105542097D01*
X132547149Y-105649470D01*
X132611717Y-105746103D01*
X132693897Y-105828283D01*
X132790530Y-105892851D01*
X132897903Y-105937327D01*
X133011890Y-105960000D01*
X133066055Y-105960000D01*
X133120955Y-105961821D01*
X133161667Y-105966112D01*
X133195650Y-105972133D01*
X133207097Y-105981527D01*
X133210192Y-105984067D01*
X133269258Y-106015639D01*
X133333348Y-106035080D01*
X133383299Y-106040000D01*
X133383316Y-106040000D01*
X133399999Y-106041643D01*
X133416682Y-106040000D01*
X144019169Y-106040000D01*
X145250000Y-107270833D01*
X145250000Y-107893523D01*
X145240331Y-108072830D01*
X145215881Y-108203774D01*
X145180464Y-108304374D01*
X145134605Y-108389370D01*
X145075319Y-108471911D01*
X145000195Y-108561289D01*
X144913317Y-108661198D01*
X144907734Y-108667857D01*
X144816398Y-108780910D01*
X144805600Y-108795354D01*
X144713927Y-108928100D01*
X144701637Y-108947886D01*
X144661273Y-109020507D01*
X144619055Y-109083691D01*
X144536888Y-109282059D01*
X144495000Y-109492644D01*
X144495000Y-109707356D01*
X144536888Y-109917941D01*
X144619055Y-110116309D01*
X144738342Y-110294834D01*
X144890166Y-110446658D01*
X145068691Y-110565945D01*
X145267059Y-110648112D01*
X145477644Y-110690000D01*
X145692356Y-110690000D01*
X145902941Y-110648112D01*
X146101309Y-110565945D01*
X146279834Y-110446658D01*
X146431658Y-110294834D01*
X146550945Y-110116309D01*
X146633112Y-109917941D01*
X146675000Y-109707356D01*
X146675000Y-109492644D01*
X146633112Y-109282059D01*
X146550945Y-109083691D01*
X146513123Y-109027087D01*
X146475654Y-108957792D01*
X146463503Y-108937731D01*
X146373092Y-108803704D01*
X146362284Y-108788930D01*
X146271917Y-108674807D01*
X146266181Y-108667836D01*
X146179836Y-108566842D01*
X146104957Y-108476507D01*
X146045658Y-108393026D01*
X145999695Y-108307108D01*
X145964177Y-108205568D01*
X145939680Y-108073729D01*
X145930000Y-107893564D01*
X145930000Y-107146690D01*
X145931644Y-107129999D01*
X145930000Y-107113308D01*
X145930000Y-107113299D01*
X145925080Y-107063348D01*
X145905639Y-106999258D01*
X145874067Y-106940192D01*
X145842225Y-106901392D01*
X145842216Y-106901383D01*
X145831578Y-106888421D01*
X145818617Y-106877784D01*
X144412229Y-105471398D01*
X144401579Y-105458421D01*
X144349808Y-105415933D01*
X144290742Y-105384361D01*
X144226652Y-105364920D01*
X144176701Y-105360000D01*
X144176693Y-105360000D01*
X144160000Y-105358356D01*
X144143307Y-105360000D01*
X133673582Y-105360000D01*
X133671852Y-105352541D01*
X133662335Y-105306900D01*
X133661178Y-105301646D01*
X133658915Y-105291890D01*
X145990000Y-105291890D01*
X145990000Y-105408110D01*
X146012673Y-105522097D01*
X146057149Y-105629470D01*
X146121717Y-105726103D01*
X146203897Y-105808283D01*
X146300530Y-105872851D01*
X146407903Y-105917327D01*
X146521890Y-105940000D01*
X146638110Y-105940000D01*
X146752097Y-105917327D01*
X146859470Y-105872851D01*
X146883351Y-105856894D01*
X146905814Y-105845098D01*
X146918174Y-105838134D01*
X146970635Y-105806496D01*
X146978512Y-105801535D01*
X147024557Y-105771271D01*
X147025802Y-105770446D01*
X147064695Y-105744535D01*
X147094739Y-105726016D01*
X147118354Y-105713882D01*
X147140941Y-105705232D01*
X147169677Y-105698035D01*
X147211299Y-105692468D01*
X147274668Y-105690000D01*
X148113839Y-105690000D01*
X148113839Y-105745000D01*
X148118473Y-105792048D01*
X148132196Y-105837288D01*
X148154482Y-105878982D01*
X148184473Y-105915527D01*
X148221018Y-105945518D01*
X148262712Y-105967804D01*
X148307952Y-105981527D01*
X148355000Y-105986161D01*
X148480000Y-105986161D01*
X148480001Y-106499167D01*
X147631394Y-107347775D01*
X147618421Y-107358422D01*
X147575933Y-107410193D01*
X147544361Y-107469259D01*
X147524920Y-107533349D01*
X147520000Y-107583300D01*
X147520000Y-107583307D01*
X147518356Y-107600000D01*
X147520000Y-107616693D01*
X147520000Y-107893576D01*
X147510308Y-108074646D01*
X147485764Y-108207395D01*
X147450156Y-108309867D01*
X147404084Y-108396744D01*
X147344784Y-108481169D01*
X147270083Y-108572572D01*
X147184370Y-108674562D01*
X147178489Y-108681843D01*
X147089106Y-108797036D01*
X147078295Y-108812141D01*
X146989166Y-108947446D01*
X146977163Y-108967779D01*
X146942668Y-109033386D01*
X146909055Y-109083691D01*
X146826888Y-109282059D01*
X146785000Y-109492644D01*
X146785000Y-109707356D01*
X146826888Y-109917941D01*
X146909055Y-110116309D01*
X147028342Y-110294834D01*
X147180166Y-110446658D01*
X147358691Y-110565945D01*
X147557059Y-110648112D01*
X147767644Y-110690000D01*
X147982356Y-110690000D01*
X148192941Y-110648112D01*
X148391309Y-110565945D01*
X148569834Y-110446658D01*
X148721658Y-110294834D01*
X148840945Y-110116309D01*
X148923112Y-109917941D01*
X148965000Y-109707356D01*
X148965000Y-109492644D01*
X148923112Y-109282059D01*
X148840945Y-109083691D01*
X148794057Y-109013518D01*
X148750961Y-108938056D01*
X148738542Y-108918555D01*
X148645627Y-108787092D01*
X148634847Y-108772978D01*
X148542558Y-108660993D01*
X148537137Y-108654644D01*
X148449673Y-108555734D01*
X148374378Y-108467378D01*
X148315125Y-108385775D01*
X148269377Y-108301691D01*
X148234055Y-108201994D01*
X148209656Y-108071936D01*
X148200000Y-107893517D01*
X148200000Y-107740831D01*
X149048607Y-106892225D01*
X149061579Y-106881579D01*
X149104067Y-106829808D01*
X149135639Y-106770742D01*
X149155080Y-106706652D01*
X149160000Y-106656701D01*
X149160000Y-106656694D01*
X149161644Y-106640001D01*
X149160000Y-106623308D01*
X149160000Y-105986161D01*
X149285000Y-105986161D01*
X149332048Y-105981527D01*
X149377288Y-105967804D01*
X149418982Y-105945518D01*
X149455527Y-105915527D01*
X149485518Y-105878982D01*
X149507804Y-105837288D01*
X149521527Y-105792048D01*
X149526161Y-105745000D01*
X149526161Y-104955000D01*
X149521527Y-104907952D01*
X149507804Y-104862712D01*
X149485518Y-104821018D01*
X149455527Y-104784473D01*
X149418982Y-104754482D01*
X149377288Y-104732196D01*
X149332048Y-104718473D01*
X149285000Y-104713839D01*
X148355000Y-104713839D01*
X148307952Y-104718473D01*
X148262712Y-104732196D01*
X148221018Y-104754482D01*
X148184473Y-104784473D01*
X148154482Y-104821018D01*
X148132196Y-104862712D01*
X148118473Y-104907952D01*
X148113839Y-104955000D01*
X148113839Y-105010000D01*
X147274672Y-105010000D01*
X147211299Y-105007531D01*
X147169677Y-105001964D01*
X147140941Y-104994767D01*
X147118354Y-104986117D01*
X147094739Y-104973983D01*
X147064695Y-104955464D01*
X147025802Y-104929553D01*
X147024557Y-104928728D01*
X146978512Y-104898464D01*
X146970635Y-104893503D01*
X146918174Y-104861865D01*
X146905811Y-104854900D01*
X146883350Y-104843105D01*
X146859470Y-104827149D01*
X146752097Y-104782673D01*
X146638110Y-104760000D01*
X146521890Y-104760000D01*
X146407903Y-104782673D01*
X146300530Y-104827149D01*
X146203897Y-104891717D01*
X146121717Y-104973897D01*
X146057149Y-105070530D01*
X146012673Y-105177903D01*
X145990000Y-105291890D01*
X133658915Y-105291890D01*
X133649568Y-105251610D01*
X133645721Y-105237107D01*
X133643940Y-105231152D01*
X133637327Y-105197903D01*
X133592851Y-105090530D01*
X133576896Y-105066651D01*
X133565099Y-105044187D01*
X133558134Y-105031825D01*
X133526496Y-104979364D01*
X133521535Y-104971487D01*
X133491271Y-104925442D01*
X133490446Y-104924197D01*
X133464535Y-104885304D01*
X133446016Y-104855260D01*
X133433882Y-104831645D01*
X133425232Y-104809058D01*
X133418035Y-104780322D01*
X133412468Y-104738700D01*
X133410000Y-104675332D01*
X133410000Y-104656161D01*
X133535000Y-104656161D01*
X133582048Y-104651527D01*
X133627288Y-104637804D01*
X133668982Y-104615518D01*
X133705527Y-104585527D01*
X133735518Y-104548982D01*
X133757804Y-104507288D01*
X133771527Y-104462048D01*
X133776161Y-104415000D01*
X133776161Y-103625000D01*
X133771527Y-103577952D01*
X133757804Y-103532712D01*
X133735518Y-103491018D01*
X133705527Y-103454473D01*
X133668982Y-103424482D01*
X133627288Y-103402196D01*
X133582048Y-103388473D01*
X133535000Y-103383839D01*
X132605000Y-103383839D01*
X132557952Y-103388473D01*
X132512712Y-103402196D01*
X132471018Y-103424482D01*
X132434473Y-103454473D01*
X132404482Y-103491018D01*
X132382196Y-103532712D01*
X132368473Y-103577952D01*
X132363839Y-103625000D01*
X127955831Y-103625000D01*
X128805831Y-102775000D01*
X132283452Y-102775000D01*
X132289630Y-102837731D01*
X132307928Y-102898051D01*
X132337643Y-102953642D01*
X132377631Y-103002369D01*
X132426358Y-103042357D01*
X132481949Y-103072072D01*
X132542269Y-103090370D01*
X132605000Y-103096548D01*
X132950000Y-103095000D01*
X133030000Y-103015000D01*
X133030000Y-102420000D01*
X133110000Y-102420000D01*
X133110000Y-103015000D01*
X133190000Y-103095000D01*
X133535000Y-103096548D01*
X133597731Y-103090370D01*
X133658051Y-103072072D01*
X133713642Y-103042357D01*
X133725544Y-103032589D01*
X139138716Y-103032589D01*
X139138716Y-103387411D01*
X139207938Y-103735415D01*
X139343723Y-104063228D01*
X139540851Y-104358252D01*
X139791748Y-104609149D01*
X140086772Y-104806277D01*
X140414585Y-104942062D01*
X140762589Y-105011284D01*
X141117411Y-105011284D01*
X141465415Y-104942062D01*
X141793228Y-104806277D01*
X142088252Y-104609149D01*
X142339149Y-104358252D01*
X142508365Y-104105000D01*
X148033452Y-104105000D01*
X148039630Y-104167731D01*
X148057928Y-104228051D01*
X148087643Y-104283642D01*
X148127631Y-104332369D01*
X148176358Y-104372357D01*
X148231949Y-104402072D01*
X148292269Y-104420370D01*
X148355000Y-104426548D01*
X148700000Y-104425000D01*
X148780000Y-104345000D01*
X148780000Y-103750000D01*
X148860000Y-103750000D01*
X148860000Y-104345000D01*
X148940000Y-104425000D01*
X149285000Y-104426548D01*
X149347731Y-104420370D01*
X149408051Y-104402072D01*
X149463642Y-104372357D01*
X149512369Y-104332369D01*
X149552357Y-104283642D01*
X149582072Y-104228051D01*
X149600370Y-104167731D01*
X149606548Y-104105000D01*
X155333452Y-104105000D01*
X155339630Y-104167731D01*
X155357928Y-104228051D01*
X155387643Y-104283642D01*
X155427631Y-104332369D01*
X155476358Y-104372357D01*
X155531949Y-104402072D01*
X155592269Y-104420370D01*
X155655000Y-104426548D01*
X156000000Y-104425000D01*
X156080000Y-104345000D01*
X156080000Y-103750000D01*
X156160000Y-103750000D01*
X156160000Y-104345000D01*
X156240000Y-104425000D01*
X156585000Y-104426548D01*
X156647731Y-104420370D01*
X156708051Y-104402072D01*
X156763642Y-104372357D01*
X156812369Y-104332369D01*
X156852357Y-104283642D01*
X156882072Y-104228051D01*
X156900370Y-104167731D01*
X156906548Y-104105000D01*
X156905000Y-103830000D01*
X156825000Y-103750000D01*
X156160000Y-103750000D01*
X156080000Y-103750000D01*
X155415000Y-103750000D01*
X155335000Y-103830000D01*
X155333452Y-104105000D01*
X149606548Y-104105000D01*
X149605000Y-103830000D01*
X149525000Y-103750000D01*
X148860000Y-103750000D01*
X148780000Y-103750000D01*
X148115000Y-103750000D01*
X148035000Y-103830000D01*
X148033452Y-104105000D01*
X142508365Y-104105000D01*
X142536277Y-104063228D01*
X142672062Y-103735415D01*
X142741284Y-103387411D01*
X142741284Y-103315000D01*
X148033452Y-103315000D01*
X148035000Y-103590000D01*
X148115000Y-103670000D01*
X148780000Y-103670000D01*
X148780000Y-103075000D01*
X148860000Y-103075000D01*
X148860000Y-103670000D01*
X149525000Y-103670000D01*
X149605000Y-103590000D01*
X149606548Y-103315000D01*
X155333452Y-103315000D01*
X155335000Y-103590000D01*
X155415000Y-103670000D01*
X156080000Y-103670000D01*
X156080000Y-103075000D01*
X156160000Y-103075000D01*
X156160000Y-103670000D01*
X156825000Y-103670000D01*
X156905000Y-103590000D01*
X156906548Y-103315000D01*
X156900370Y-103252269D01*
X156882072Y-103191949D01*
X156852357Y-103136358D01*
X156812369Y-103087631D01*
X156763642Y-103047643D01*
X156708051Y-103017928D01*
X156647731Y-102999630D01*
X156585000Y-102993452D01*
X156240000Y-102995000D01*
X156160000Y-103075000D01*
X156080000Y-103075000D01*
X156000000Y-102995000D01*
X155655000Y-102993452D01*
X155592269Y-102999630D01*
X155531949Y-103017928D01*
X155476358Y-103047643D01*
X155427631Y-103087631D01*
X155387643Y-103136358D01*
X155357928Y-103191949D01*
X155339630Y-103252269D01*
X155333452Y-103315000D01*
X149606548Y-103315000D01*
X149600370Y-103252269D01*
X149582072Y-103191949D01*
X149552357Y-103136358D01*
X149512369Y-103087631D01*
X149463642Y-103047643D01*
X149408051Y-103017928D01*
X149347731Y-102999630D01*
X149285000Y-102993452D01*
X148940000Y-102995000D01*
X148860000Y-103075000D01*
X148780000Y-103075000D01*
X148700000Y-102995000D01*
X148355000Y-102993452D01*
X148292269Y-102999630D01*
X148231949Y-103017928D01*
X148176358Y-103047643D01*
X148127631Y-103087631D01*
X148087643Y-103136358D01*
X148057928Y-103191949D01*
X148039630Y-103252269D01*
X148033452Y-103315000D01*
X142741284Y-103315000D01*
X142741284Y-103032589D01*
X142672062Y-102684585D01*
X142536277Y-102356772D01*
X142339149Y-102061748D01*
X142088252Y-101810851D01*
X141793228Y-101613723D01*
X141465415Y-101477938D01*
X141117411Y-101408716D01*
X140762589Y-101408716D01*
X140414585Y-101477938D01*
X140086772Y-101613723D01*
X139791748Y-101810851D01*
X139540851Y-102061748D01*
X139343723Y-102356772D01*
X139207938Y-102684585D01*
X139138716Y-103032589D01*
X133725544Y-103032589D01*
X133762369Y-103002369D01*
X133802357Y-102953642D01*
X133832072Y-102898051D01*
X133850370Y-102837731D01*
X133856548Y-102775000D01*
X133855000Y-102500000D01*
X133775000Y-102420000D01*
X133110000Y-102420000D01*
X133030000Y-102420000D01*
X132365000Y-102420000D01*
X132285000Y-102500000D01*
X132283452Y-102775000D01*
X128805831Y-102775000D01*
X129595831Y-101985000D01*
X132283452Y-101985000D01*
X132285000Y-102260000D01*
X132365000Y-102340000D01*
X133030000Y-102340000D01*
X133030000Y-101745000D01*
X133110000Y-101745000D01*
X133110000Y-102340000D01*
X133775000Y-102340000D01*
X133855000Y-102260000D01*
X133856548Y-101985000D01*
X133850370Y-101922269D01*
X133832072Y-101861949D01*
X133802357Y-101806358D01*
X133762369Y-101757631D01*
X133713642Y-101717643D01*
X133658051Y-101687928D01*
X133597731Y-101669630D01*
X133535000Y-101663452D01*
X133190000Y-101665000D01*
X133110000Y-101745000D01*
X133030000Y-101745000D01*
X132950000Y-101665000D01*
X132605000Y-101663452D01*
X132542269Y-101669630D01*
X132481949Y-101687928D01*
X132426358Y-101717643D01*
X132377631Y-101757631D01*
X132337643Y-101806358D01*
X132307928Y-101861949D01*
X132289630Y-101922269D01*
X132283452Y-101985000D01*
X129595831Y-101985000D01*
X130024671Y-101556161D01*
X130735000Y-101556161D01*
X130782048Y-101551527D01*
X130827288Y-101537804D01*
X130868982Y-101515518D01*
X130905527Y-101485527D01*
X130935518Y-101448982D01*
X130957804Y-101407288D01*
X130971527Y-101362048D01*
X130976161Y-101315000D01*
X130976161Y-100395000D01*
X130971527Y-100347952D01*
X130957804Y-100302712D01*
X130935518Y-100261018D01*
X130905527Y-100224473D01*
X130868982Y-100194482D01*
X130827288Y-100172196D01*
X130782048Y-100158473D01*
X130735000Y-100153839D01*
X129765000Y-100153839D01*
X129717952Y-100158473D01*
X129672712Y-100172196D01*
X129631018Y-100194482D01*
X129594473Y-100224473D01*
X129564482Y-100261018D01*
X129542196Y-100302712D01*
X129528473Y-100347952D01*
X129523839Y-100395000D01*
X129523839Y-101095329D01*
X127371394Y-103247775D01*
X127358421Y-103258422D01*
X127315933Y-103310193D01*
X127284361Y-103369259D01*
X127264920Y-103433349D01*
X127260000Y-103483300D01*
X127260000Y-103483307D01*
X127258356Y-103500000D01*
X126836556Y-103500000D01*
X126826779Y-103467772D01*
X126734479Y-103295091D01*
X126610265Y-103143735D01*
X126458909Y-103019521D01*
X126286228Y-102927221D01*
X126098858Y-102870383D01*
X125952826Y-102856000D01*
X125720367Y-102856000D01*
X125720340Y-102855817D01*
X125723131Y-102837374D01*
X125740060Y-102802438D01*
X125797086Y-102733745D01*
X128910832Y-99620000D01*
X129523839Y-99620000D01*
X129523839Y-99765000D01*
X129528473Y-99812048D01*
X129542196Y-99857288D01*
X129564482Y-99898982D01*
X129594473Y-99935527D01*
X129631018Y-99965518D01*
X129672712Y-99987804D01*
X129717952Y-100001527D01*
X129765000Y-100006161D01*
X130735000Y-100006161D01*
X130782048Y-100001527D01*
X130827288Y-99987804D01*
X130868982Y-99965518D01*
X130905527Y-99935527D01*
X130935518Y-99898982D01*
X130957804Y-99857288D01*
X130971527Y-99812048D01*
X130976161Y-99765000D01*
X130976161Y-98845000D01*
X130971527Y-98797952D01*
X130957804Y-98752712D01*
X130935518Y-98711018D01*
X130905527Y-98674473D01*
X130868982Y-98644482D01*
X130827288Y-98622196D01*
X130782048Y-98608473D01*
X130735000Y-98603839D01*
X129765000Y-98603839D01*
X129717952Y-98608473D01*
X129672712Y-98622196D01*
X129631018Y-98644482D01*
X129594473Y-98674473D01*
X129564482Y-98711018D01*
X129542196Y-98752712D01*
X129528473Y-98797952D01*
X129523839Y-98845000D01*
X129523839Y-98940000D01*
X128786692Y-98940000D01*
X128769999Y-98938356D01*
X128753306Y-98940000D01*
X128753299Y-98940000D01*
X128703348Y-98944920D01*
X128639258Y-98964361D01*
X128580192Y-98995933D01*
X128528421Y-99038421D01*
X128517775Y-99051393D01*
X124921394Y-102647775D01*
X124908422Y-102658421D01*
X124897776Y-102671393D01*
X124897775Y-102671394D01*
X124865933Y-102710193D01*
X124859698Y-102721857D01*
X124854478Y-102727359D01*
X124854385Y-102727457D01*
X124787259Y-102798282D01*
X124732211Y-102856000D01*
X124347174Y-102856000D01*
X124201142Y-102870383D01*
X124013772Y-102927221D01*
X123841091Y-103019521D01*
X123689735Y-103143735D01*
X123565521Y-103295091D01*
X123473221Y-103467772D01*
X123416383Y-103655142D01*
X123397191Y-103850000D01*
X121390121Y-103850000D01*
X129020121Y-96220000D01*
X130905755Y-96220000D01*
X130920000Y-96221403D01*
X130934245Y-96220000D01*
X130976850Y-96215804D01*
X131031515Y-96199221D01*
X131081895Y-96172293D01*
X131126053Y-96136053D01*
X131162293Y-96091895D01*
X131189221Y-96041515D01*
X131205804Y-95986850D01*
X131211403Y-95930000D01*
X131210000Y-95915755D01*
X131210000Y-88770000D01*
X133734538Y-88770000D01*
X133702600Y-88875284D01*
G04 #@! TA.AperFunction,Conductor*
D22*
G36*
X133702600Y-88875284D02*
G01*
X133688839Y-89015000D01*
X133688839Y-91265000D01*
X133702600Y-91404716D01*
X133743354Y-91539063D01*
X133809534Y-91662878D01*
X133898598Y-91771402D01*
X134007122Y-91860466D01*
X134130937Y-91926646D01*
X134265284Y-91967400D01*
X134405000Y-91981161D01*
X135355000Y-91981161D01*
X135494716Y-91967400D01*
X135629063Y-91926646D01*
X135752878Y-91860466D01*
X135861402Y-91771402D01*
X135950466Y-91662878D01*
X136016646Y-91539063D01*
X136057400Y-91404716D01*
X136071161Y-91265000D01*
X136071161Y-89015000D01*
X136057400Y-88875284D01*
X136025462Y-88770000D01*
X136154538Y-88770000D01*
X136122600Y-88875284D01*
X136108839Y-89015000D01*
X136108839Y-91265000D01*
X136122600Y-91404716D01*
X136163354Y-91539063D01*
X136229534Y-91662878D01*
X136318598Y-91771402D01*
X136427122Y-91860466D01*
X136550937Y-91926646D01*
X136685284Y-91967400D01*
X136825000Y-91981161D01*
X137775000Y-91981161D01*
X137914716Y-91967400D01*
X138049063Y-91926646D01*
X138172878Y-91860466D01*
X138281402Y-91771402D01*
X138370466Y-91662878D01*
X138436646Y-91539063D01*
X138477400Y-91404716D01*
X138491161Y-91265000D01*
X138491161Y-89015000D01*
X138477400Y-88875284D01*
X138445462Y-88770000D01*
X138574538Y-88770000D01*
X138542600Y-88875284D01*
X138528839Y-89015000D01*
X138528839Y-91265000D01*
X138542600Y-91404716D01*
X138583354Y-91539063D01*
X138649534Y-91662878D01*
X138738598Y-91771402D01*
X138847122Y-91860466D01*
X138970937Y-91926646D01*
X139105284Y-91967400D01*
X139245000Y-91981161D01*
X140195000Y-91981161D01*
X140334716Y-91967400D01*
X140469063Y-91926646D01*
X140592878Y-91860466D01*
X140701402Y-91771402D01*
X140790466Y-91662878D01*
X140856646Y-91539063D01*
X140897400Y-91404716D01*
X140911161Y-91265000D01*
X140911161Y-89015000D01*
X140897400Y-88875284D01*
X140865462Y-88770000D01*
X143414538Y-88770000D01*
X143382600Y-88875284D01*
X143368839Y-89015000D01*
X143368839Y-91265000D01*
X143382600Y-91404716D01*
X143423354Y-91539063D01*
X143489534Y-91662878D01*
X143578598Y-91771402D01*
X143687122Y-91860466D01*
X143810937Y-91926646D01*
X143873533Y-91945634D01*
X136199169Y-99620000D01*
X135344672Y-99620000D01*
X135281299Y-99617531D01*
X135239677Y-99611964D01*
X135210941Y-99604767D01*
X135188354Y-99596117D01*
X135164739Y-99583983D01*
X135134695Y-99565464D01*
X135095802Y-99539553D01*
X135094557Y-99538728D01*
X135048512Y-99508464D01*
X135040635Y-99503503D01*
X134988174Y-99471865D01*
X134975811Y-99464900D01*
X134953350Y-99453105D01*
X134929470Y-99437149D01*
X134822097Y-99392673D01*
X134708110Y-99370000D01*
X134591890Y-99370000D01*
X134477903Y-99392673D01*
X134370530Y-99437149D01*
X134273897Y-99501717D01*
X134191717Y-99583897D01*
X134127149Y-99680530D01*
X134082673Y-99787903D01*
X134060000Y-99901890D01*
X134060000Y-100018110D01*
X134082673Y-100132097D01*
X134127149Y-100239470D01*
X134191717Y-100336103D01*
X134273897Y-100418283D01*
X134370530Y-100482851D01*
X134477903Y-100527327D01*
X134591890Y-100550000D01*
X134708110Y-100550000D01*
X134822097Y-100527327D01*
X134929470Y-100482851D01*
X134953351Y-100466894D01*
X134975814Y-100455098D01*
X134988174Y-100448134D01*
X135040635Y-100416496D01*
X135048512Y-100411535D01*
X135094557Y-100381271D01*
X135095802Y-100380446D01*
X135134695Y-100354535D01*
X135164739Y-100336016D01*
X135188354Y-100323882D01*
X135210941Y-100315232D01*
X135239677Y-100308035D01*
X135281299Y-100302468D01*
X135344668Y-100300000D01*
X136323307Y-100300000D01*
X136340000Y-100301644D01*
X136356693Y-100300000D01*
X136356701Y-100300000D01*
X136406652Y-100295080D01*
X136470742Y-100275639D01*
X136529808Y-100244067D01*
X136581579Y-100201579D01*
X136592230Y-100188601D01*
X144788613Y-91992220D01*
X144801579Y-91981579D01*
X144801922Y-91981161D01*
X145035000Y-91981161D01*
X145174716Y-91967400D01*
X145309063Y-91926646D01*
X145432878Y-91860466D01*
X145541402Y-91771402D01*
X145630466Y-91662878D01*
X145696646Y-91539063D01*
X145737400Y-91404716D01*
X145751161Y-91265000D01*
X145751161Y-89015000D01*
X145737400Y-88875284D01*
X145705462Y-88770000D01*
X145834538Y-88770000D01*
X145802600Y-88875284D01*
X145788839Y-89015000D01*
X145788839Y-91265000D01*
X145802600Y-91404716D01*
X145843354Y-91539063D01*
X145909534Y-91662878D01*
X145998598Y-91771402D01*
X146107122Y-91860466D01*
X146230937Y-91926646D01*
X146293534Y-91945635D01*
X143061394Y-95177775D01*
X143048421Y-95188422D01*
X143005933Y-95240193D01*
X142974361Y-95299259D01*
X142954920Y-95363349D01*
X142950000Y-95413300D01*
X142950000Y-95413307D01*
X142948356Y-95430000D01*
X142950000Y-95446693D01*
X142950001Y-99113297D01*
X142948356Y-99130000D01*
X142954920Y-99196651D01*
X142974361Y-99260741D01*
X143005933Y-99319807D01*
X143037775Y-99358606D01*
X143048422Y-99371579D01*
X143061394Y-99382225D01*
X144328355Y-100649187D01*
X144371443Y-100695769D01*
X144396938Y-100729136D01*
X144412164Y-100754538D01*
X144422021Y-100776629D01*
X144430139Y-100801906D01*
X144438295Y-100836268D01*
X144447469Y-100882067D01*
X144447767Y-100883534D01*
X144458926Y-100937493D01*
X144460988Y-100946570D01*
X144475712Y-101006037D01*
X144479528Y-101019705D01*
X144487069Y-101043925D01*
X144492673Y-101072097D01*
X144537149Y-101179470D01*
X144601717Y-101276103D01*
X144683897Y-101358283D01*
X144780530Y-101422851D01*
X144887903Y-101467327D01*
X145001890Y-101490000D01*
X145118110Y-101490000D01*
X145232097Y-101467327D01*
X145339470Y-101422851D01*
X145436103Y-101358283D01*
X145518283Y-101276103D01*
X145582851Y-101179470D01*
X145627327Y-101072097D01*
X145650000Y-100958110D01*
X145650000Y-100841890D01*
X145627327Y-100727903D01*
X145582851Y-100620530D01*
X145518283Y-100523897D01*
X145436103Y-100441717D01*
X145339470Y-100377149D01*
X145232097Y-100332673D01*
X145203925Y-100327069D01*
X145179705Y-100319528D01*
X145166037Y-100315712D01*
X145106570Y-100300988D01*
X145097493Y-100298926D01*
X145043534Y-100287767D01*
X145042067Y-100287469D01*
X144996268Y-100278295D01*
X144961906Y-100270139D01*
X144936629Y-100262021D01*
X144914538Y-100252164D01*
X144889136Y-100236938D01*
X144855769Y-100211443D01*
X144809187Y-100168355D01*
X143630000Y-98989169D01*
X143630000Y-97751889D01*
X147340001Y-97751889D01*
X147340001Y-97868109D01*
X147362674Y-97982096D01*
X147407150Y-98089469D01*
X147471718Y-98186102D01*
X147553898Y-98268282D01*
X147650531Y-98332850D01*
X147757904Y-98377326D01*
X147783027Y-98382323D01*
X147789412Y-98384366D01*
X147796002Y-98386371D01*
X147841070Y-98399376D01*
X147878111Y-98410312D01*
X147880001Y-98410969D01*
X147880001Y-98682657D01*
X147850320Y-98698521D01*
X147768821Y-98752977D01*
X147732276Y-98782968D01*
X147662968Y-98852276D01*
X147632977Y-98888821D01*
X147578521Y-98970320D01*
X147556235Y-99012015D01*
X147518726Y-99102571D01*
X147505003Y-99147810D01*
X147485881Y-99243943D01*
X147481247Y-99290991D01*
X147481247Y-99315552D01*
X147478839Y-99340000D01*
X147478839Y-99840000D01*
X147481247Y-99864448D01*
X147481247Y-99889009D01*
X147485881Y-99936057D01*
X147505003Y-100032190D01*
X147518726Y-100077429D01*
X147556235Y-100167985D01*
X147578521Y-100209680D01*
X147632977Y-100291179D01*
X147662968Y-100327724D01*
X147732276Y-100397032D01*
X147768821Y-100427023D01*
X147850320Y-100481479D01*
X147892015Y-100503765D01*
X147982571Y-100541274D01*
X148027810Y-100554997D01*
X148123943Y-100574119D01*
X148170991Y-100578753D01*
X148195552Y-100578753D01*
X148220000Y-100581161D01*
X148770000Y-100581161D01*
X148817048Y-100576527D01*
X148862288Y-100562804D01*
X148895000Y-100545319D01*
X148927712Y-100562804D01*
X148972952Y-100576527D01*
X149020000Y-100581161D01*
X149762979Y-100581161D01*
X148734141Y-101610000D01*
X148714672Y-101610000D01*
X148651299Y-101607531D01*
X148609677Y-101601964D01*
X148580941Y-101594767D01*
X148558354Y-101586117D01*
X148534739Y-101573983D01*
X148504695Y-101555464D01*
X148465802Y-101529553D01*
X148464557Y-101528728D01*
X148418512Y-101498464D01*
X148410635Y-101493503D01*
X148358174Y-101461865D01*
X148345811Y-101454900D01*
X148323350Y-101443105D01*
X148299470Y-101427149D01*
X148192097Y-101382673D01*
X148078110Y-101360000D01*
X147961890Y-101360000D01*
X147847903Y-101382673D01*
X147740530Y-101427149D01*
X147643897Y-101491717D01*
X147561717Y-101573897D01*
X147497149Y-101670530D01*
X147452673Y-101777903D01*
X147430000Y-101891890D01*
X147430000Y-102008110D01*
X147452673Y-102122097D01*
X147497149Y-102229470D01*
X147561717Y-102326103D01*
X147643897Y-102408283D01*
X147740530Y-102472851D01*
X147847903Y-102517327D01*
X147961890Y-102540000D01*
X148078110Y-102540000D01*
X148192097Y-102517327D01*
X148299470Y-102472851D01*
X148323351Y-102456894D01*
X148345814Y-102445098D01*
X148358174Y-102438134D01*
X148410635Y-102406496D01*
X148418512Y-102401535D01*
X148464557Y-102371271D01*
X148465802Y-102370446D01*
X148504695Y-102344535D01*
X148534739Y-102326016D01*
X148558354Y-102313882D01*
X148580941Y-102305232D01*
X148609677Y-102298035D01*
X148651299Y-102292468D01*
X148714668Y-102290000D01*
X148858279Y-102290000D01*
X148874972Y-102291644D01*
X148891665Y-102290000D01*
X148891673Y-102290000D01*
X148941624Y-102285080D01*
X149005714Y-102265639D01*
X149064780Y-102234067D01*
X149116551Y-102191579D01*
X149127202Y-102178601D01*
X150724643Y-100581161D01*
X150820000Y-100581161D01*
X150844448Y-100578753D01*
X150869009Y-100578753D01*
X150916057Y-100574119D01*
X151012190Y-100554997D01*
X151057429Y-100541274D01*
X151147985Y-100503765D01*
X151189680Y-100481479D01*
X151271179Y-100427023D01*
X151307724Y-100397032D01*
X151377032Y-100327724D01*
X151407023Y-100291179D01*
X151461479Y-100209680D01*
X151483765Y-100167985D01*
X151521274Y-100077429D01*
X151534997Y-100032190D01*
X151554119Y-99936057D01*
X151558753Y-99889009D01*
X151558753Y-99864448D01*
X151561161Y-99840000D01*
X151561161Y-99340000D01*
X151558753Y-99315552D01*
X151558753Y-99290991D01*
X151554119Y-99243943D01*
X151534997Y-99147810D01*
X151521274Y-99102571D01*
X151483765Y-99012015D01*
X151461479Y-98970320D01*
X151407023Y-98888821D01*
X151377032Y-98852276D01*
X151307724Y-98782968D01*
X151271179Y-98752977D01*
X151189680Y-98698521D01*
X151147985Y-98676235D01*
X151057429Y-98638726D01*
X151012190Y-98625003D01*
X150916057Y-98605881D01*
X150869009Y-98601247D01*
X150844448Y-98601247D01*
X150820000Y-98598839D01*
X150270000Y-98598839D01*
X150222952Y-98603473D01*
X150177712Y-98617196D01*
X150145000Y-98634681D01*
X150112288Y-98617196D01*
X150067048Y-98603473D01*
X150020000Y-98598839D01*
X149830000Y-98598839D01*
X149830000Y-98584668D01*
X149832468Y-98521299D01*
X149838035Y-98479677D01*
X149845232Y-98450941D01*
X149853882Y-98428354D01*
X149866016Y-98404739D01*
X149884535Y-98374695D01*
X149910446Y-98335802D01*
X149911271Y-98334557D01*
X149941535Y-98288512D01*
X149946496Y-98280635D01*
X149978134Y-98228174D01*
X149985098Y-98215814D01*
X149996894Y-98193351D01*
X150012851Y-98169470D01*
X150057327Y-98062097D01*
X150080000Y-97948110D01*
X150080000Y-97831890D01*
X150057327Y-97717903D01*
X150012851Y-97610530D01*
X149996896Y-97586651D01*
X149985099Y-97564187D01*
X149978134Y-97551825D01*
X149946496Y-97499364D01*
X149941535Y-97491487D01*
X149911271Y-97445442D01*
X149910446Y-97444197D01*
X149884535Y-97405304D01*
X149866016Y-97375260D01*
X149853882Y-97351645D01*
X149845232Y-97329058D01*
X149838035Y-97300322D01*
X149832468Y-97258700D01*
X149830000Y-97195332D01*
X149830000Y-96716161D01*
X149855000Y-96716161D01*
X149902048Y-96711527D01*
X149947288Y-96697804D01*
X149988982Y-96675518D01*
X150025527Y-96645527D01*
X150055518Y-96608982D01*
X150077804Y-96567288D01*
X150091527Y-96522048D01*
X150096161Y-96475000D01*
X150096161Y-95545000D01*
X150091527Y-95497952D01*
X150077804Y-95452712D01*
X150055518Y-95411018D01*
X150025527Y-95374473D01*
X149988982Y-95344482D01*
X149947288Y-95322196D01*
X149902048Y-95308473D01*
X149855000Y-95303839D01*
X149830000Y-95303839D01*
X149830000Y-94626161D01*
X149915000Y-94626161D01*
X149962048Y-94621527D01*
X150007288Y-94607804D01*
X150048982Y-94585518D01*
X150085527Y-94555527D01*
X150115518Y-94518982D01*
X150137804Y-94477288D01*
X150151527Y-94432048D01*
X150156161Y-94385000D01*
X150156161Y-93455000D01*
X150151527Y-93407952D01*
X150137804Y-93362712D01*
X150115518Y-93321018D01*
X150085527Y-93284473D01*
X150048982Y-93254482D01*
X150007288Y-93232196D01*
X149962048Y-93218473D01*
X149915000Y-93213839D01*
X149125000Y-93213839D01*
X149077952Y-93218473D01*
X149032712Y-93232196D01*
X148991018Y-93254482D01*
X148954473Y-93284473D01*
X148924482Y-93321018D01*
X148902196Y-93362712D01*
X148888473Y-93407952D01*
X148883839Y-93455000D01*
X148883839Y-94385000D01*
X148888473Y-94432048D01*
X148902196Y-94477288D01*
X148924482Y-94518982D01*
X148954473Y-94555527D01*
X148991018Y-94585518D01*
X149032712Y-94607804D01*
X149077952Y-94621527D01*
X149125000Y-94626161D01*
X149150001Y-94626161D01*
X149150001Y-95303839D01*
X149065000Y-95303839D01*
X149017952Y-95308473D01*
X148972712Y-95322196D01*
X148931018Y-95344482D01*
X148894473Y-95374473D01*
X148864482Y-95411018D01*
X148842196Y-95452712D01*
X148828473Y-95497952D01*
X148823839Y-95545000D01*
X148823839Y-96475000D01*
X148828473Y-96522048D01*
X148842196Y-96567288D01*
X148864482Y-96608982D01*
X148894473Y-96645527D01*
X148931018Y-96675518D01*
X148972712Y-96697804D01*
X149017952Y-96711527D01*
X149065000Y-96716161D01*
X149150000Y-96716161D01*
X149150000Y-97195316D01*
X149147531Y-97258700D01*
X149141964Y-97300322D01*
X149134767Y-97329058D01*
X149126117Y-97351645D01*
X149113983Y-97375260D01*
X149095464Y-97405304D01*
X149069553Y-97444197D01*
X149068728Y-97445442D01*
X149038464Y-97491487D01*
X149033503Y-97499364D01*
X149001865Y-97551825D01*
X148994899Y-97564189D01*
X148983102Y-97586655D01*
X148967149Y-97610530D01*
X148922673Y-97717903D01*
X148900000Y-97831890D01*
X148900000Y-97948110D01*
X148922673Y-98062097D01*
X148967149Y-98169470D01*
X148983105Y-98193350D01*
X148994900Y-98215811D01*
X149001865Y-98228174D01*
X149033503Y-98280635D01*
X149038464Y-98288512D01*
X149068728Y-98334557D01*
X149069553Y-98335802D01*
X149095464Y-98374695D01*
X149113983Y-98404739D01*
X149126117Y-98428354D01*
X149134767Y-98450941D01*
X149141964Y-98479677D01*
X149147531Y-98521299D01*
X149150000Y-98584683D01*
X149150000Y-98598839D01*
X149020000Y-98598839D01*
X148972952Y-98603473D01*
X148927712Y-98617196D01*
X148895000Y-98634681D01*
X148862288Y-98617196D01*
X148817048Y-98603473D01*
X148770000Y-98598839D01*
X148560000Y-98598839D01*
X148560000Y-98116691D01*
X148561644Y-98099998D01*
X148560000Y-98083305D01*
X148560000Y-98083297D01*
X148555080Y-98033346D01*
X148535639Y-97969256D01*
X148526175Y-97951550D01*
X148523633Y-97921961D01*
X148521021Y-97871037D01*
X148520001Y-97808086D01*
X148520001Y-97751889D01*
X148497328Y-97637902D01*
X148452852Y-97530529D01*
X148388284Y-97433896D01*
X148306104Y-97351716D01*
X148209471Y-97287148D01*
X148102098Y-97242672D01*
X147988111Y-97219999D01*
X147871891Y-97219999D01*
X147757904Y-97242672D01*
X147650531Y-97287148D01*
X147553898Y-97351716D01*
X147471718Y-97433896D01*
X147407150Y-97530529D01*
X147362674Y-97637902D01*
X147340001Y-97751889D01*
X143630000Y-97751889D01*
X143630000Y-96475000D01*
X147103452Y-96475000D01*
X147109630Y-96537731D01*
X147127928Y-96598051D01*
X147157643Y-96653642D01*
X147197631Y-96702369D01*
X147246358Y-96742357D01*
X147301949Y-96772072D01*
X147362269Y-96790370D01*
X147425000Y-96796548D01*
X147700000Y-96795000D01*
X147780000Y-96715000D01*
X147780000Y-96050000D01*
X147860000Y-96050000D01*
X147860000Y-96715000D01*
X147940000Y-96795000D01*
X148215000Y-96796548D01*
X148277731Y-96790370D01*
X148338051Y-96772072D01*
X148393642Y-96742357D01*
X148442369Y-96702369D01*
X148482357Y-96653642D01*
X148512072Y-96598051D01*
X148530370Y-96537731D01*
X148536548Y-96475000D01*
X148535000Y-96130000D01*
X148455000Y-96050000D01*
X147860000Y-96050000D01*
X147780000Y-96050000D01*
X147185000Y-96050000D01*
X147105000Y-96130000D01*
X147103452Y-96475000D01*
X143630000Y-96475000D01*
X143630000Y-95570831D01*
X143655831Y-95545000D01*
X147103452Y-95545000D01*
X147105000Y-95890000D01*
X147185000Y-95970000D01*
X147780000Y-95970000D01*
X147780000Y-95305000D01*
X147860000Y-95305000D01*
X147860000Y-95970000D01*
X148455000Y-95970000D01*
X148535000Y-95890000D01*
X148536548Y-95545000D01*
X148530370Y-95482269D01*
X148512072Y-95421949D01*
X148482357Y-95366358D01*
X148442369Y-95317631D01*
X148393642Y-95277643D01*
X148338051Y-95247928D01*
X148277731Y-95229630D01*
X148215000Y-95223452D01*
X147940000Y-95225000D01*
X147860000Y-95305000D01*
X147780000Y-95305000D01*
X147700000Y-95225000D01*
X147425000Y-95223452D01*
X147362269Y-95229630D01*
X147301949Y-95247928D01*
X147246358Y-95277643D01*
X147197631Y-95317631D01*
X147157643Y-95366358D01*
X147127928Y-95421949D01*
X147109630Y-95482269D01*
X147103452Y-95545000D01*
X143655831Y-95545000D01*
X145368941Y-93831890D01*
X146180000Y-93831890D01*
X146180000Y-93948110D01*
X146202673Y-94062097D01*
X146247149Y-94169470D01*
X146311717Y-94266103D01*
X146393897Y-94348283D01*
X146490530Y-94412851D01*
X146597903Y-94457327D01*
X146711890Y-94480000D01*
X146828110Y-94480000D01*
X146942097Y-94457327D01*
X147049470Y-94412851D01*
X147051434Y-94411538D01*
X147055199Y-94409958D01*
X147068313Y-94403984D01*
X147125449Y-94375852D01*
X147134614Y-94371091D01*
X147184655Y-94343717D01*
X147187520Y-94342125D01*
X147230806Y-94317672D01*
X147243839Y-94310735D01*
X147243839Y-94385000D01*
X147248473Y-94432048D01*
X147262196Y-94477288D01*
X147284482Y-94518982D01*
X147314473Y-94555527D01*
X147351018Y-94585518D01*
X147392712Y-94607804D01*
X147437952Y-94621527D01*
X147485000Y-94626161D01*
X148275000Y-94626161D01*
X148322048Y-94621527D01*
X148367288Y-94607804D01*
X148408982Y-94585518D01*
X148445527Y-94555527D01*
X148475518Y-94518982D01*
X148497804Y-94477288D01*
X148511527Y-94432048D01*
X148516161Y-94385000D01*
X148516161Y-93455000D01*
X148511527Y-93407952D01*
X148497804Y-93362712D01*
X148475518Y-93321018D01*
X148445527Y-93284473D01*
X148408982Y-93254482D01*
X148367288Y-93232196D01*
X148322048Y-93218473D01*
X148275000Y-93213839D01*
X147485000Y-93213839D01*
X147437952Y-93218473D01*
X147392712Y-93232196D01*
X147351018Y-93254482D01*
X147314473Y-93284473D01*
X147284482Y-93321018D01*
X147262196Y-93362712D01*
X147248473Y-93407952D01*
X147243839Y-93455000D01*
X147243839Y-93501788D01*
X147200880Y-93469479D01*
X147195461Y-93465521D01*
X147145821Y-93430316D01*
X147135689Y-93423511D01*
X147097667Y-93399353D01*
X147049470Y-93367149D01*
X146942097Y-93322673D01*
X146828110Y-93300000D01*
X146711890Y-93300000D01*
X146597903Y-93322673D01*
X146490530Y-93367149D01*
X146393897Y-93431717D01*
X146311717Y-93513897D01*
X146247149Y-93610530D01*
X146202673Y-93717903D01*
X146180000Y-93831890D01*
X145368941Y-93831890D01*
X147208607Y-91992225D01*
X147221579Y-91981579D01*
X147221922Y-91981161D01*
X147455000Y-91981161D01*
X147594716Y-91967400D01*
X147729063Y-91926646D01*
X147852878Y-91860466D01*
X147961402Y-91771402D01*
X148050466Y-91662878D01*
X148116646Y-91539063D01*
X148157400Y-91404716D01*
X148171161Y-91265000D01*
X148171161Y-89015000D01*
X148157400Y-88875284D01*
X148125462Y-88770000D01*
X150690000Y-88770000D01*
X150690001Y-95915744D01*
X150688597Y-95930000D01*
X150694196Y-95986850D01*
X150710779Y-96041515D01*
X150737707Y-96091895D01*
X150773947Y-96136053D01*
X150818105Y-96172293D01*
X150868485Y-96199221D01*
X150923150Y-96215804D01*
X150965755Y-96220000D01*
X150980000Y-96221403D01*
X150994245Y-96220000D01*
X152879879Y-96220000D01*
X160720000Y-104060121D01*
X160720001Y-116440000D01*
X126314045Y-116440000D01*
X126351957Y-116426940D01*
X126533941Y-116320776D01*
X126691717Y-116181149D01*
X126819221Y-116013424D01*
X126911554Y-115824047D01*
X126957784Y-115657402D01*
X126897195Y-115490000D01*
X125190000Y-115490000D01*
X125190000Y-115510000D01*
X125110000Y-115510000D01*
X125110000Y-115490000D01*
X123402805Y-115490000D01*
X123342216Y-115657402D01*
X123388446Y-115824047D01*
X123480779Y-116013424D01*
X123608283Y-116181149D01*
X123766059Y-116320776D01*
X123948043Y-116426940D01*
X123985955Y-116440000D01*
X121180000Y-116440000D01*
X121180000Y-115242598D01*
X123342216Y-115242598D01*
X123402805Y-115410000D01*
X125110000Y-115410000D01*
X125110000Y-114376000D01*
X125190000Y-114376000D01*
X125190000Y-115410000D01*
X126897195Y-115410000D01*
X126957784Y-115242598D01*
X126911554Y-115075953D01*
X126819221Y-114886576D01*
X126691717Y-114718851D01*
X126533941Y-114579224D01*
X126351957Y-114473060D01*
X126152758Y-114404440D01*
X125944000Y-114376000D01*
X125190000Y-114376000D01*
X125110000Y-114376000D01*
X124356000Y-114376000D01*
X124147242Y-114404440D01*
X123948043Y-114473060D01*
X123766059Y-114579224D01*
X123608283Y-114718851D01*
X123480779Y-114886576D01*
X123388446Y-115075953D01*
X123342216Y-115242598D01*
X121180000Y-115242598D01*
X121180000Y-113050000D01*
X121397191Y-113050000D01*
X121416383Y-113244858D01*
X121473221Y-113432228D01*
X121565521Y-113604909D01*
X121689735Y-113756265D01*
X121841091Y-113880479D01*
X122013772Y-113972779D01*
X122201142Y-114029617D01*
X122347174Y-114044000D01*
X123952826Y-114044000D01*
X124098858Y-114029617D01*
X124286228Y-113972779D01*
X124458909Y-113880479D01*
X124610265Y-113756265D01*
X124734479Y-113604909D01*
X124826779Y-113432228D01*
X124883617Y-113244858D01*
X124902809Y-113050000D01*
X124883617Y-112855142D01*
X124826779Y-112667772D01*
X124734479Y-112495091D01*
X124610265Y-112343735D01*
X124458909Y-112219521D01*
X124286228Y-112127221D01*
X124098858Y-112070383D01*
X123952826Y-112056000D01*
X122347174Y-112056000D01*
X122201142Y-112070383D01*
X122013772Y-112127221D01*
X121841091Y-112219521D01*
X121689735Y-112343735D01*
X121565521Y-112495091D01*
X121473221Y-112667772D01*
X121416383Y-112855142D01*
X121397191Y-113050000D01*
X121180000Y-113050000D01*
X121180000Y-107550000D01*
X121397191Y-107550000D01*
X121416383Y-107744858D01*
X121473221Y-107932228D01*
X121565521Y-108104909D01*
X121689735Y-108256265D01*
X121841091Y-108380479D01*
X122013772Y-108472779D01*
X122201142Y-108529617D01*
X122347174Y-108544000D01*
X123811263Y-108544000D01*
X123689735Y-108643735D01*
X123565521Y-108795091D01*
X123473221Y-108967772D01*
X123416383Y-109155142D01*
X123397191Y-109350000D01*
X123416383Y-109544858D01*
X123473221Y-109732228D01*
X123565521Y-109904909D01*
X123689735Y-110056265D01*
X123841091Y-110180479D01*
X124013772Y-110272779D01*
X124201142Y-110329617D01*
X124347174Y-110344000D01*
X125952826Y-110344000D01*
X126098858Y-110329617D01*
X126286228Y-110272779D01*
X126458909Y-110180479D01*
X126610265Y-110056265D01*
X126734479Y-109904909D01*
X126826779Y-109732228D01*
X126883617Y-109544858D01*
X126902809Y-109350000D01*
X126883617Y-109155142D01*
X126826779Y-108967772D01*
X126734479Y-108795091D01*
X126610265Y-108643735D01*
X126458909Y-108519521D01*
X126286228Y-108427221D01*
X126098858Y-108370383D01*
X125952826Y-108356000D01*
X124488737Y-108356000D01*
X124610265Y-108256265D01*
X124734479Y-108104909D01*
X124826779Y-107932228D01*
X124883617Y-107744858D01*
X124902809Y-107550000D01*
X124883617Y-107355142D01*
X124826779Y-107167772D01*
X124734479Y-106995091D01*
X124610265Y-106843735D01*
X124458909Y-106719521D01*
X124286228Y-106627221D01*
X124098858Y-106570383D01*
X123952826Y-106556000D01*
X122347174Y-106556000D01*
X122201142Y-106570383D01*
X122013772Y-106627221D01*
X121841091Y-106719521D01*
X121689735Y-106843735D01*
X121565521Y-106995091D01*
X121473221Y-107167772D01*
X121416383Y-107355142D01*
X121397191Y-107550000D01*
X121180000Y-107550000D01*
X121180000Y-104060121D01*
X121390121Y-103850000D01*
X123397191Y-103850000D01*
X123416383Y-104044858D01*
X123473221Y-104232228D01*
X123565521Y-104404909D01*
X123689735Y-104556265D01*
X123841091Y-104680479D01*
X124013772Y-104772779D01*
X124201142Y-104829617D01*
X124347174Y-104844000D01*
X125952826Y-104844000D01*
X126098858Y-104829617D01*
X126286228Y-104772779D01*
X126458909Y-104680479D01*
X126610265Y-104556265D01*
X126734479Y-104404909D01*
X126826779Y-104232228D01*
X126883617Y-104044858D01*
X126902809Y-103850000D01*
X126883617Y-103655142D01*
X126836556Y-103500000D01*
X127258356Y-103500000D01*
X127260000Y-103516693D01*
X127260001Y-112093297D01*
X127258356Y-112110000D01*
X127264920Y-112176651D01*
X127284361Y-112240741D01*
X127305059Y-112279463D01*
X127315934Y-112299808D01*
X127358422Y-112351579D01*
X127371394Y-112362225D01*
X130617779Y-115608612D01*
X130628421Y-115621579D01*
X130641387Y-115632220D01*
X130641392Y-115632225D01*
X130672071Y-115657402D01*
X130680192Y-115664067D01*
X130739258Y-115695639D01*
X130803348Y-115715080D01*
X130853299Y-115720000D01*
X130853308Y-115720000D01*
X130869999Y-115721644D01*
X130886690Y-115720000D01*
X147573307Y-115720000D01*
X147590000Y-115721644D01*
X147606693Y-115720000D01*
X147606701Y-115720000D01*
X147656652Y-115715080D01*
X147720742Y-115695639D01*
X147779808Y-115664067D01*
X147831579Y-115621579D01*
X147842229Y-115608602D01*
X148108611Y-115342221D01*
X148121578Y-115331579D01*
X148132221Y-115318611D01*
X148132225Y-115318607D01*
X148164067Y-115279808D01*
X148195639Y-115220742D01*
X148198416Y-115211587D01*
X148230520Y-115165953D01*
X148246012Y-115140767D01*
X148306677Y-115026976D01*
X148317491Y-115003794D01*
X148361054Y-114895720D01*
X148366516Y-114880757D01*
X148400753Y-114776318D01*
X148401430Y-114774217D01*
X148432214Y-114677308D01*
X148464553Y-114591343D01*
X148504928Y-114510418D01*
X148561933Y-114425888D01*
X148650821Y-114325671D01*
X148721658Y-114254834D01*
X148840945Y-114076309D01*
X148923112Y-113877941D01*
X148965000Y-113667356D01*
X148965000Y-113452644D01*
X149075000Y-113452644D01*
X149075000Y-113667356D01*
X149116888Y-113877941D01*
X149199055Y-114076309D01*
X149318342Y-114254834D01*
X149470166Y-114406658D01*
X149648691Y-114525945D01*
X149847059Y-114608112D01*
X150057644Y-114650000D01*
X150272356Y-114650000D01*
X150482941Y-114608112D01*
X150681309Y-114525945D01*
X150859834Y-114406658D01*
X151011658Y-114254834D01*
X151130945Y-114076309D01*
X151213112Y-113877941D01*
X151255000Y-113667356D01*
X151255000Y-113452644D01*
X151213112Y-113242059D01*
X151205359Y-113223341D01*
X156493228Y-113223341D01*
X156722809Y-113516065D01*
X157126595Y-113743639D01*
X157567019Y-113888066D01*
X158027158Y-113943794D01*
X158489327Y-113908684D01*
X158935766Y-113784083D01*
X159349318Y-113574780D01*
X159437191Y-113516065D01*
X159666772Y-113223341D01*
X158080000Y-111636569D01*
X156493228Y-113223341D01*
X151205359Y-113223341D01*
X151130945Y-113043691D01*
X151011658Y-112865166D01*
X150859834Y-112713342D01*
X150681309Y-112594055D01*
X150482941Y-112511888D01*
X150272356Y-112470000D01*
X150057644Y-112470000D01*
X149847059Y-112511888D01*
X149648691Y-112594055D01*
X149470166Y-112713342D01*
X149318342Y-112865166D01*
X149199055Y-113043691D01*
X149116888Y-113242059D01*
X149075000Y-113452644D01*
X148965000Y-113452644D01*
X148923112Y-113242059D01*
X148840945Y-113043691D01*
X148721658Y-112865166D01*
X148569834Y-112713342D01*
X148391309Y-112594055D01*
X148192941Y-112511888D01*
X147982356Y-112470000D01*
X147767644Y-112470000D01*
X147557059Y-112511888D01*
X147358691Y-112594055D01*
X147180166Y-112713342D01*
X147028342Y-112865166D01*
X146909055Y-113043691D01*
X146826888Y-113242059D01*
X146785000Y-113452644D01*
X146785000Y-113667356D01*
X146826888Y-113877941D01*
X146909055Y-114076309D01*
X147028342Y-114254834D01*
X147063795Y-114290287D01*
X147134590Y-114373976D01*
X147149605Y-114390154D01*
X147273018Y-114511432D01*
X147279321Y-114517406D01*
X147400104Y-114627799D01*
X147500846Y-114724323D01*
X147540000Y-114770278D01*
X147540000Y-114940899D01*
X147509329Y-114979840D01*
X147449169Y-115040000D01*
X131010833Y-115040000D01*
X129194173Y-113223341D01*
X131503228Y-113223341D01*
X131732809Y-113516065D01*
X132136595Y-113743639D01*
X132577019Y-113888066D01*
X133037158Y-113943794D01*
X133499327Y-113908684D01*
X133945766Y-113784083D01*
X134359318Y-113574780D01*
X134447191Y-113516065D01*
X134676772Y-113223341D01*
X133090000Y-111636569D01*
X131503228Y-113223341D01*
X129194173Y-113223341D01*
X127940000Y-111969169D01*
X127940000Y-111527158D01*
X130726206Y-111527158D01*
X130761316Y-111989327D01*
X130885917Y-112435766D01*
X131095220Y-112849318D01*
X131153935Y-112937191D01*
X131446659Y-113166772D01*
X133033431Y-111580000D01*
X133146569Y-111580000D01*
X134733341Y-113166772D01*
X135026065Y-112937191D01*
X135253639Y-112533405D01*
X135398066Y-112092981D01*
X135453794Y-111632842D01*
X135418684Y-111170673D01*
X135294083Y-110724234D01*
X135084780Y-110310682D01*
X135026065Y-110222809D01*
X134733341Y-109993228D01*
X133146569Y-111580000D01*
X133033431Y-111580000D01*
X131446659Y-109993228D01*
X131153935Y-110222809D01*
X130926361Y-110626595D01*
X130781934Y-111067019D01*
X130726206Y-111527158D01*
X127940000Y-111527158D01*
X127940000Y-109936659D01*
X131503228Y-109936659D01*
X133090000Y-111523431D01*
X134676772Y-109936659D01*
X134447191Y-109643935D01*
X134043405Y-109416361D01*
X133602981Y-109271934D01*
X133142842Y-109216206D01*
X132680673Y-109251316D01*
X132234234Y-109375917D01*
X131820682Y-109585220D01*
X131732809Y-109643935D01*
X131503228Y-109936659D01*
X127940000Y-109936659D01*
X127940000Y-106495000D01*
X129533839Y-106495000D01*
X129533839Y-107415000D01*
X129538473Y-107462048D01*
X129552196Y-107507288D01*
X129574482Y-107548982D01*
X129604473Y-107585527D01*
X129641018Y-107615518D01*
X129682712Y-107637804D01*
X129727952Y-107651527D01*
X129775000Y-107656161D01*
X130480329Y-107656161D01*
X131152779Y-108328612D01*
X131163421Y-108341579D01*
X131176387Y-108352220D01*
X131176393Y-108352226D01*
X131191073Y-108364273D01*
X131215192Y-108384067D01*
X131274258Y-108415639D01*
X131338348Y-108435080D01*
X131388299Y-108440000D01*
X131388307Y-108440000D01*
X131405000Y-108441644D01*
X131421693Y-108440000D01*
X135659169Y-108440000D01*
X139808960Y-112589792D01*
X139898261Y-112691766D01*
X139945821Y-112768643D01*
X139969000Y-112831435D01*
X139978169Y-112892854D01*
X139976684Y-112966150D01*
X139965042Y-113058436D01*
X139946669Y-113169422D01*
X139945947Y-113174063D01*
X139927804Y-113298759D01*
X139926052Y-113314363D01*
X139915217Y-113451142D01*
X139915202Y-113451627D01*
X139915000Y-113452644D01*
X139915000Y-113458302D01*
X139914509Y-113474504D01*
X139915000Y-113501222D01*
X139915000Y-113667356D01*
X139956888Y-113877941D01*
X140039055Y-114076309D01*
X140158342Y-114254834D01*
X140310166Y-114406658D01*
X140488691Y-114525945D01*
X140687059Y-114608112D01*
X140897644Y-114650000D01*
X141112356Y-114650000D01*
X141322941Y-114608112D01*
X141521309Y-114525945D01*
X141699834Y-114406658D01*
X141851658Y-114254834D01*
X141970945Y-114076309D01*
X142053112Y-113877941D01*
X142095000Y-113667356D01*
X142095000Y-113452644D01*
X142205000Y-113452644D01*
X142205000Y-113667356D01*
X142246888Y-113877941D01*
X142329055Y-114076309D01*
X142448342Y-114254834D01*
X142600166Y-114406658D01*
X142778691Y-114525945D01*
X142977059Y-114608112D01*
X143187644Y-114650000D01*
X143402356Y-114650000D01*
X143612941Y-114608112D01*
X143811309Y-114525945D01*
X143989834Y-114406658D01*
X144141658Y-114254834D01*
X144260945Y-114076309D01*
X144343112Y-113877941D01*
X144385000Y-113667356D01*
X144385000Y-113452644D01*
X144495000Y-113452644D01*
X144495000Y-113667356D01*
X144536888Y-113877941D01*
X144619055Y-114076309D01*
X144738342Y-114254834D01*
X144890166Y-114406658D01*
X145068691Y-114525945D01*
X145267059Y-114608112D01*
X145477644Y-114650000D01*
X145692356Y-114650000D01*
X145902941Y-114608112D01*
X146101309Y-114525945D01*
X146279834Y-114406658D01*
X146431658Y-114254834D01*
X146550945Y-114076309D01*
X146633112Y-113877941D01*
X146675000Y-113667356D01*
X146675000Y-113452644D01*
X146633112Y-113242059D01*
X146550945Y-113043691D01*
X146431658Y-112865166D01*
X146279834Y-112713342D01*
X146101309Y-112594055D01*
X145902941Y-112511888D01*
X145692356Y-112470000D01*
X145477644Y-112470000D01*
X145267059Y-112511888D01*
X145068691Y-112594055D01*
X144890166Y-112713342D01*
X144738342Y-112865166D01*
X144619055Y-113043691D01*
X144536888Y-113242059D01*
X144495000Y-113452644D01*
X144385000Y-113452644D01*
X144343112Y-113242059D01*
X144260945Y-113043691D01*
X144141658Y-112865166D01*
X143989834Y-112713342D01*
X143811309Y-112594055D01*
X143612941Y-112511888D01*
X143402356Y-112470000D01*
X143187644Y-112470000D01*
X142977059Y-112511888D01*
X142778691Y-112594055D01*
X142600166Y-112713342D01*
X142448342Y-112865166D01*
X142329055Y-113043691D01*
X142246888Y-113242059D01*
X142205000Y-113452644D01*
X142095000Y-113452644D01*
X142053112Y-113242059D01*
X141970945Y-113043691D01*
X141851658Y-112865166D01*
X141699834Y-112713342D01*
X141521309Y-112594055D01*
X141479139Y-112576587D01*
X141448210Y-112558457D01*
X141418480Y-112543690D01*
X141275149Y-112484473D01*
X141246548Y-112474715D01*
X141112253Y-112438156D01*
X141091628Y-112433507D01*
X140963555Y-112410510D01*
X140956421Y-112409339D01*
X140836133Y-112391462D01*
X140788202Y-112382517D01*
X141404051Y-112382517D01*
X141491725Y-112554091D01*
X141694408Y-112663797D01*
X141914601Y-112731854D01*
X142143839Y-112755645D01*
X142373314Y-112734257D01*
X142594207Y-112668512D01*
X142798030Y-112560936D01*
X142808275Y-112554091D01*
X142895949Y-112382517D01*
X142150000Y-111636569D01*
X141404051Y-112382517D01*
X140788202Y-112382517D01*
X140728176Y-112371315D01*
X140629808Y-112342595D01*
X140531077Y-112297724D01*
X140421786Y-112225802D01*
X140290225Y-112109394D01*
X139754670Y-111573839D01*
X140974355Y-111573839D01*
X140995743Y-111803314D01*
X141061488Y-112024207D01*
X141169064Y-112228030D01*
X141175909Y-112238275D01*
X141347483Y-112325949D01*
X142093431Y-111580000D01*
X142206569Y-111580000D01*
X142952517Y-112325949D01*
X143124091Y-112238275D01*
X143233797Y-112035592D01*
X143301854Y-111815399D01*
X143325645Y-111586161D01*
X143315065Y-111472644D01*
X143350000Y-111472644D01*
X143350000Y-111687356D01*
X143391888Y-111897941D01*
X143474055Y-112096309D01*
X143593342Y-112274834D01*
X143745166Y-112426658D01*
X143923691Y-112545945D01*
X144122059Y-112628112D01*
X144332644Y-112670000D01*
X144547356Y-112670000D01*
X144757941Y-112628112D01*
X144956309Y-112545945D01*
X145134834Y-112426658D01*
X145178975Y-112382517D01*
X145984051Y-112382517D01*
X146071725Y-112554091D01*
X146274408Y-112663797D01*
X146494601Y-112731854D01*
X146723839Y-112755645D01*
X146953314Y-112734257D01*
X147174207Y-112668512D01*
X147378030Y-112560936D01*
X147388275Y-112554091D01*
X147475949Y-112382517D01*
X148274051Y-112382517D01*
X148361725Y-112554091D01*
X148564408Y-112663797D01*
X148784601Y-112731854D01*
X149013839Y-112755645D01*
X149243314Y-112734257D01*
X149464207Y-112668512D01*
X149668030Y-112560936D01*
X149678275Y-112554091D01*
X149765949Y-112382517D01*
X150564051Y-112382517D01*
X150651725Y-112554091D01*
X150854408Y-112663797D01*
X151074601Y-112731854D01*
X151303839Y-112755645D01*
X151533314Y-112734257D01*
X151754207Y-112668512D01*
X151958030Y-112560936D01*
X151968275Y-112554091D01*
X152055949Y-112382517D01*
X151310000Y-111636569D01*
X150564051Y-112382517D01*
X149765949Y-112382517D01*
X149020000Y-111636569D01*
X148274051Y-112382517D01*
X147475949Y-112382517D01*
X146730000Y-111636569D01*
X145984051Y-112382517D01*
X145178975Y-112382517D01*
X145286658Y-112274834D01*
X145405945Y-112096309D01*
X145488112Y-111897941D01*
X145530000Y-111687356D01*
X145530000Y-111573839D01*
X145554355Y-111573839D01*
X145575743Y-111803314D01*
X145641488Y-112024207D01*
X145749064Y-112228030D01*
X145755909Y-112238275D01*
X145927483Y-112325949D01*
X146673431Y-111580000D01*
X146786569Y-111580000D01*
X147532517Y-112325949D01*
X147704091Y-112238275D01*
X147813797Y-112035592D01*
X147875479Y-111836025D01*
X147931488Y-112024207D01*
X148039064Y-112228030D01*
X148045909Y-112238275D01*
X148217483Y-112325949D01*
X148963431Y-111580000D01*
X149076569Y-111580000D01*
X149822517Y-112325949D01*
X149994091Y-112238275D01*
X150103797Y-112035592D01*
X150165479Y-111836025D01*
X150221488Y-112024207D01*
X150329064Y-112228030D01*
X150335909Y-112238275D01*
X150507483Y-112325949D01*
X151253431Y-111580000D01*
X151366569Y-111580000D01*
X152112517Y-112325949D01*
X152284091Y-112238275D01*
X152393797Y-112035592D01*
X152461854Y-111815399D01*
X152485645Y-111586161D01*
X152480146Y-111527158D01*
X155716206Y-111527158D01*
X155751316Y-111989327D01*
X155875917Y-112435766D01*
X156085220Y-112849318D01*
X156143935Y-112937191D01*
X156436659Y-113166772D01*
X158023431Y-111580000D01*
X158136569Y-111580000D01*
X159723341Y-113166772D01*
X160016065Y-112937191D01*
X160243639Y-112533405D01*
X160388066Y-112092981D01*
X160443794Y-111632842D01*
X160408684Y-111170673D01*
X160284083Y-110724234D01*
X160074780Y-110310682D01*
X160016065Y-110222809D01*
X159723341Y-109993228D01*
X158136569Y-111580000D01*
X158023431Y-111580000D01*
X156436659Y-109993228D01*
X156143935Y-110222809D01*
X155916361Y-110626595D01*
X155771934Y-111067019D01*
X155716206Y-111527158D01*
X152480146Y-111527158D01*
X152464257Y-111356686D01*
X152398512Y-111135793D01*
X152290936Y-110931970D01*
X152284091Y-110921725D01*
X152112517Y-110834051D01*
X151366569Y-111580000D01*
X151253431Y-111580000D01*
X150507483Y-110834051D01*
X150335909Y-110921725D01*
X150226203Y-111124408D01*
X150164521Y-111323975D01*
X150108512Y-111135793D01*
X150000936Y-110931970D01*
X149994091Y-110921725D01*
X149822517Y-110834051D01*
X149076569Y-111580000D01*
X148963431Y-111580000D01*
X148217483Y-110834051D01*
X148045909Y-110921725D01*
X147936203Y-111124408D01*
X147874521Y-111323975D01*
X147818512Y-111135793D01*
X147710936Y-110931970D01*
X147704091Y-110921725D01*
X147532517Y-110834051D01*
X146786569Y-111580000D01*
X146673431Y-111580000D01*
X145927483Y-110834051D01*
X145755909Y-110921725D01*
X145646203Y-111124408D01*
X145578146Y-111344601D01*
X145554355Y-111573839D01*
X145530000Y-111573839D01*
X145530000Y-111472644D01*
X145488112Y-111262059D01*
X145405945Y-111063691D01*
X145286658Y-110885166D01*
X145178975Y-110777483D01*
X145984051Y-110777483D01*
X146730000Y-111523431D01*
X147475949Y-110777483D01*
X148274051Y-110777483D01*
X149020000Y-111523431D01*
X149765949Y-110777483D01*
X149721839Y-110691161D01*
X150608161Y-110691161D01*
X150564051Y-110777483D01*
X151310000Y-111523431D01*
X152055949Y-110777483D01*
X151968275Y-110605909D01*
X151765592Y-110496203D01*
X151545399Y-110428146D01*
X151316161Y-110404355D01*
X151256161Y-110409947D01*
X151256161Y-109936659D01*
X156493228Y-109936659D01*
X158080000Y-111523431D01*
X159666772Y-109936659D01*
X159437191Y-109643935D01*
X159033405Y-109416361D01*
X158592981Y-109271934D01*
X158132842Y-109216206D01*
X157670673Y-109251316D01*
X157224234Y-109375917D01*
X156810682Y-109585220D01*
X156722809Y-109643935D01*
X156493228Y-109936659D01*
X151256161Y-109936659D01*
X151256161Y-109737821D01*
X151257082Y-109733785D01*
X151285484Y-109574503D01*
X151287943Y-109557009D01*
X151302906Y-109412016D01*
X151303618Y-109403713D01*
X151312645Y-109271386D01*
X151322696Y-109155072D01*
X151339227Y-109054736D01*
X151367087Y-108962027D01*
X151413476Y-108865552D01*
X151489179Y-108755298D01*
X151609573Y-108621258D01*
X154098607Y-106132225D01*
X154111579Y-106121579D01*
X154154067Y-106069808D01*
X154185639Y-106010742D01*
X154205080Y-105946652D01*
X154210000Y-105896701D01*
X154210000Y-105896693D01*
X154210452Y-105892101D01*
X154217745Y-105873656D01*
X154230710Y-105844570D01*
X154243732Y-105821077D01*
X154249184Y-105813402D01*
X154260635Y-105806496D01*
X154268512Y-105801535D01*
X154314557Y-105771271D01*
X154315802Y-105770446D01*
X154354695Y-105744535D01*
X154384739Y-105726016D01*
X154408354Y-105713882D01*
X154430941Y-105705232D01*
X154459677Y-105698035D01*
X154501299Y-105692468D01*
X154564668Y-105690000D01*
X155413839Y-105690000D01*
X155413839Y-105745000D01*
X155418473Y-105792048D01*
X155432196Y-105837288D01*
X155454482Y-105878982D01*
X155484473Y-105915527D01*
X155521018Y-105945518D01*
X155562712Y-105967804D01*
X155607952Y-105981527D01*
X155655000Y-105986161D01*
X156585000Y-105986161D01*
X156632048Y-105981527D01*
X156677288Y-105967804D01*
X156718982Y-105945518D01*
X156755527Y-105915527D01*
X156785518Y-105878982D01*
X156807804Y-105837288D01*
X156821527Y-105792048D01*
X156826161Y-105745000D01*
X156826161Y-104955000D01*
X156821527Y-104907952D01*
X156807804Y-104862712D01*
X156785518Y-104821018D01*
X156755527Y-104784473D01*
X156718982Y-104754482D01*
X156677288Y-104732196D01*
X156632048Y-104718473D01*
X156585000Y-104713839D01*
X155655000Y-104713839D01*
X155607952Y-104718473D01*
X155562712Y-104732196D01*
X155521018Y-104754482D01*
X155484473Y-104784473D01*
X155454482Y-104821018D01*
X155432196Y-104862712D01*
X155418473Y-104907952D01*
X155413839Y-104955000D01*
X155413839Y-105010000D01*
X154564672Y-105010000D01*
X154501299Y-105007531D01*
X154459677Y-105001964D01*
X154430941Y-104994767D01*
X154408354Y-104986117D01*
X154384739Y-104973983D01*
X154354695Y-104955464D01*
X154315802Y-104929553D01*
X154314557Y-104928728D01*
X154268512Y-104898464D01*
X154260635Y-104893503D01*
X154208174Y-104861865D01*
X154195811Y-104854900D01*
X154173350Y-104843105D01*
X154149470Y-104827149D01*
X154042097Y-104782673D01*
X153928110Y-104760000D01*
X153811890Y-104760000D01*
X153697903Y-104782673D01*
X153590530Y-104827149D01*
X153493897Y-104891717D01*
X153411717Y-104973897D01*
X153347149Y-105070530D01*
X153302673Y-105177903D01*
X153280000Y-105291890D01*
X153280000Y-105408110D01*
X153302673Y-105522097D01*
X153347149Y-105629470D01*
X153372317Y-105667136D01*
X153373994Y-105670106D01*
X153386196Y-105689489D01*
X153410675Y-105724543D01*
X153411717Y-105726103D01*
X153411873Y-105726259D01*
X153418222Y-105735351D01*
X153425158Y-105744785D01*
X153458424Y-105787791D01*
X153458446Y-105787819D01*
X153468437Y-105800731D01*
X151128702Y-108140467D01*
X150993348Y-108262143D01*
X150881694Y-108339114D01*
X150783697Y-108386754D01*
X150689454Y-108415851D01*
X150587704Y-108433775D01*
X150470181Y-108445648D01*
X150337221Y-108457089D01*
X150328236Y-108458032D01*
X150183108Y-108476044D01*
X150165111Y-108478976D01*
X150017395Y-108508839D01*
X149315000Y-108508839D01*
X149267952Y-108513473D01*
X149222712Y-108527196D01*
X149181018Y-108549482D01*
X149144473Y-108579473D01*
X149114482Y-108616018D01*
X149092196Y-108657712D01*
X149078473Y-108702952D01*
X149073839Y-108750000D01*
X149073839Y-110409303D01*
X149026161Y-110404355D01*
X148796686Y-110425743D01*
X148575793Y-110491488D01*
X148371970Y-110599064D01*
X148361725Y-110605909D01*
X148274051Y-110777483D01*
X147475949Y-110777483D01*
X147388275Y-110605909D01*
X147185592Y-110496203D01*
X146965399Y-110428146D01*
X146736161Y-110404355D01*
X146506686Y-110425743D01*
X146285793Y-110491488D01*
X146081970Y-110599064D01*
X146071725Y-110605909D01*
X145984051Y-110777483D01*
X145178975Y-110777483D01*
X145134834Y-110733342D01*
X144956309Y-110614055D01*
X144757941Y-110531888D01*
X144547356Y-110490000D01*
X144332644Y-110490000D01*
X144122059Y-110531888D01*
X143923691Y-110614055D01*
X143745166Y-110733342D01*
X143593342Y-110885166D01*
X143474055Y-111063691D01*
X143391888Y-111262059D01*
X143350000Y-111472644D01*
X143315065Y-111472644D01*
X143304257Y-111356686D01*
X143238512Y-111135793D01*
X143130936Y-110931970D01*
X143124091Y-110921725D01*
X142952517Y-110834051D01*
X142206569Y-111580000D01*
X142093431Y-111580000D01*
X141347483Y-110834051D01*
X141175909Y-110921725D01*
X141066203Y-111124408D01*
X140998146Y-111344601D01*
X140974355Y-111573839D01*
X139754670Y-111573839D01*
X138583348Y-110402517D01*
X140259051Y-110402517D01*
X140346725Y-110574091D01*
X140549408Y-110683797D01*
X140769601Y-110751854D01*
X140998839Y-110775645D01*
X141228314Y-110754257D01*
X141449207Y-110688512D01*
X141449629Y-110688289D01*
X141404051Y-110777483D01*
X142150000Y-111523431D01*
X142895949Y-110777483D01*
X142808275Y-110605909D01*
X142605592Y-110496203D01*
X142385399Y-110428146D01*
X142156161Y-110404355D01*
X141926686Y-110425743D01*
X141705793Y-110491488D01*
X141705371Y-110491711D01*
X141750949Y-110402517D01*
X141005000Y-109656569D01*
X140259051Y-110402517D01*
X138583348Y-110402517D01*
X137774670Y-109593839D01*
X139829355Y-109593839D01*
X139850743Y-109823314D01*
X139916488Y-110044207D01*
X140024064Y-110248030D01*
X140030909Y-110258275D01*
X140202483Y-110345949D01*
X140948431Y-109600000D01*
X141061569Y-109600000D01*
X141807517Y-110345949D01*
X141979091Y-110258275D01*
X142088797Y-110055592D01*
X142156854Y-109835399D01*
X142180645Y-109606161D01*
X142170065Y-109492644D01*
X142205000Y-109492644D01*
X142205000Y-109707356D01*
X142246888Y-109917941D01*
X142329055Y-110116309D01*
X142448342Y-110294834D01*
X142600166Y-110446658D01*
X142778691Y-110565945D01*
X142977059Y-110648112D01*
X143187644Y-110690000D01*
X143402356Y-110690000D01*
X143612941Y-110648112D01*
X143811309Y-110565945D01*
X143989834Y-110446658D01*
X144141658Y-110294834D01*
X144260945Y-110116309D01*
X144343112Y-109917941D01*
X144385000Y-109707356D01*
X144385000Y-109492644D01*
X144343112Y-109282059D01*
X144260945Y-109083691D01*
X144141658Y-108905166D01*
X143989834Y-108753342D01*
X143811309Y-108634055D01*
X143612941Y-108551888D01*
X143402356Y-108510000D01*
X143187644Y-108510000D01*
X142977059Y-108551888D01*
X142778691Y-108634055D01*
X142600166Y-108753342D01*
X142448342Y-108905166D01*
X142329055Y-109083691D01*
X142246888Y-109282059D01*
X142205000Y-109492644D01*
X142170065Y-109492644D01*
X142159257Y-109376686D01*
X142093512Y-109155793D01*
X141985936Y-108951970D01*
X141979091Y-108941725D01*
X141807517Y-108854051D01*
X141061569Y-109600000D01*
X140948431Y-109600000D01*
X140202483Y-108854051D01*
X140030909Y-108941725D01*
X139921203Y-109144408D01*
X139853146Y-109364601D01*
X139829355Y-109593839D01*
X137774670Y-109593839D01*
X136978314Y-108797483D01*
X140259051Y-108797483D01*
X141005000Y-109543431D01*
X141750949Y-108797483D01*
X141663275Y-108625909D01*
X141460592Y-108516203D01*
X141240399Y-108448146D01*
X141011161Y-108424355D01*
X140781686Y-108445743D01*
X140560793Y-108511488D01*
X140356970Y-108619064D01*
X140346725Y-108625909D01*
X140259051Y-108797483D01*
X136978314Y-108797483D01*
X136052230Y-107871399D01*
X136041579Y-107858421D01*
X135989808Y-107815933D01*
X135930742Y-107784361D01*
X135866652Y-107764920D01*
X135816701Y-107760000D01*
X135816693Y-107760000D01*
X135800000Y-107758356D01*
X135783307Y-107760000D01*
X131545833Y-107760000D01*
X130986161Y-107200329D01*
X130986161Y-106495000D01*
X130981527Y-106447952D01*
X130967804Y-106402712D01*
X130945518Y-106361018D01*
X130915527Y-106324473D01*
X130878982Y-106294482D01*
X130837288Y-106272196D01*
X130792048Y-106258473D01*
X130745000Y-106253839D01*
X129775000Y-106253839D01*
X129727952Y-106258473D01*
X129682712Y-106272196D01*
X129641018Y-106294482D01*
X129604473Y-106324473D01*
X129574482Y-106361018D01*
X129552196Y-106402712D01*
X129538473Y-106447952D01*
X129533839Y-106495000D01*
X127940000Y-106495000D01*
X127940000Y-105321890D01*
X128560001Y-105321890D01*
X128560001Y-105438110D01*
X128582674Y-105552097D01*
X128627150Y-105659470D01*
X128691718Y-105756103D01*
X128773898Y-105838283D01*
X128870531Y-105902851D01*
X128977904Y-105947327D01*
X129091891Y-105970000D01*
X129208111Y-105970000D01*
X129322098Y-105947327D01*
X129429471Y-105902851D01*
X129431435Y-105901539D01*
X129435198Y-105899959D01*
X129448310Y-105893985D01*
X129505447Y-105865853D01*
X129514613Y-105861093D01*
X129533839Y-105850576D01*
X129533839Y-105865000D01*
X129538473Y-105912048D01*
X129552196Y-105957288D01*
X129574482Y-105998982D01*
X129604473Y-106035527D01*
X129641018Y-106065518D01*
X129682712Y-106087804D01*
X129727952Y-106101527D01*
X129775000Y-106106161D01*
X130745000Y-106106161D01*
X130792048Y-106101527D01*
X130837288Y-106087804D01*
X130878982Y-106065518D01*
X130915527Y-106035527D01*
X130945518Y-105998982D01*
X130967804Y-105957288D01*
X130981527Y-105912048D01*
X130986161Y-105865000D01*
X130986161Y-104945000D01*
X130981527Y-104897952D01*
X130967804Y-104852712D01*
X130945518Y-104811018D01*
X130915527Y-104774473D01*
X130878982Y-104744482D01*
X130837288Y-104722196D01*
X130792048Y-104708473D01*
X130745000Y-104703839D01*
X129775000Y-104703839D01*
X129727952Y-104708473D01*
X129682712Y-104722196D01*
X129641018Y-104744482D01*
X129604473Y-104774473D01*
X129574482Y-104811018D01*
X129552196Y-104852712D01*
X129538473Y-104897952D01*
X129535588Y-104927243D01*
X129525824Y-104920318D01*
X129515695Y-104913514D01*
X129477643Y-104889336D01*
X129429471Y-104857149D01*
X129322098Y-104812673D01*
X129208111Y-104790000D01*
X129091891Y-104790000D01*
X128977904Y-104812673D01*
X128870531Y-104857149D01*
X128773898Y-104921717D01*
X128691718Y-105003897D01*
X128627150Y-105100530D01*
X128582674Y-105207903D01*
X128560001Y-105321890D01*
X127940000Y-105321890D01*
X127940000Y-103640831D01*
X127955831Y-103625000D01*
X132363839Y-103625000D01*
X132363839Y-104415000D01*
X132368473Y-104462048D01*
X132382196Y-104507288D01*
X132404482Y-104548982D01*
X132434473Y-104585527D01*
X132471018Y-104615518D01*
X132512712Y-104637804D01*
X132557952Y-104651527D01*
X132605000Y-104656161D01*
X132730001Y-104656161D01*
X132730001Y-104675314D01*
X132727531Y-104738700D01*
X132721964Y-104780322D01*
X132714767Y-104809058D01*
X132706117Y-104831645D01*
X132693983Y-104855260D01*
X132675464Y-104885304D01*
X132649553Y-104924197D01*
X132648728Y-104925442D01*
X132618464Y-104971487D01*
X132613503Y-104979364D01*
X132581865Y-105031825D01*
X132574899Y-105044189D01*
X132563102Y-105066655D01*
X132547149Y-105090530D01*
X132502673Y-105197903D01*
X132480000Y-105311890D01*
X132480000Y-105428110D01*
X132502673Y-105542097D01*
X132547149Y-105649470D01*
X132611717Y-105746103D01*
X132693897Y-105828283D01*
X132790530Y-105892851D01*
X132897903Y-105937327D01*
X133011890Y-105960000D01*
X133066055Y-105960000D01*
X133120955Y-105961821D01*
X133161667Y-105966112D01*
X133195650Y-105972133D01*
X133207097Y-105981527D01*
X133210192Y-105984067D01*
X133269258Y-106015639D01*
X133333348Y-106035080D01*
X133383299Y-106040000D01*
X133383316Y-106040000D01*
X133399999Y-106041643D01*
X133416682Y-106040000D01*
X144019169Y-106040000D01*
X145250000Y-107270833D01*
X145250000Y-107893523D01*
X145240331Y-108072830D01*
X145215881Y-108203774D01*
X145180464Y-108304374D01*
X145134605Y-108389370D01*
X145075319Y-108471911D01*
X145000195Y-108561289D01*
X144913317Y-108661198D01*
X144907734Y-108667857D01*
X144816398Y-108780910D01*
X144805600Y-108795354D01*
X144713927Y-108928100D01*
X144701637Y-108947886D01*
X144661273Y-109020507D01*
X144619055Y-109083691D01*
X144536888Y-109282059D01*
X144495000Y-109492644D01*
X144495000Y-109707356D01*
X144536888Y-109917941D01*
X144619055Y-110116309D01*
X144738342Y-110294834D01*
X144890166Y-110446658D01*
X145068691Y-110565945D01*
X145267059Y-110648112D01*
X145477644Y-110690000D01*
X145692356Y-110690000D01*
X145902941Y-110648112D01*
X146101309Y-110565945D01*
X146279834Y-110446658D01*
X146431658Y-110294834D01*
X146550945Y-110116309D01*
X146633112Y-109917941D01*
X146675000Y-109707356D01*
X146675000Y-109492644D01*
X146633112Y-109282059D01*
X146550945Y-109083691D01*
X146513123Y-109027087D01*
X146475654Y-108957792D01*
X146463503Y-108937731D01*
X146373092Y-108803704D01*
X146362284Y-108788930D01*
X146271917Y-108674807D01*
X146266181Y-108667836D01*
X146179836Y-108566842D01*
X146104957Y-108476507D01*
X146045658Y-108393026D01*
X145999695Y-108307108D01*
X145964177Y-108205568D01*
X145939680Y-108073729D01*
X145930000Y-107893564D01*
X145930000Y-107146690D01*
X145931644Y-107129999D01*
X145930000Y-107113308D01*
X145930000Y-107113299D01*
X145925080Y-107063348D01*
X145905639Y-106999258D01*
X145874067Y-106940192D01*
X145842225Y-106901392D01*
X145842216Y-106901383D01*
X145831578Y-106888421D01*
X145818617Y-106877784D01*
X144412229Y-105471398D01*
X144401579Y-105458421D01*
X144349808Y-105415933D01*
X144290742Y-105384361D01*
X144226652Y-105364920D01*
X144176701Y-105360000D01*
X144176693Y-105360000D01*
X144160000Y-105358356D01*
X144143307Y-105360000D01*
X133673582Y-105360000D01*
X133671852Y-105352541D01*
X133662335Y-105306900D01*
X133661178Y-105301646D01*
X133658915Y-105291890D01*
X145990000Y-105291890D01*
X145990000Y-105408110D01*
X146012673Y-105522097D01*
X146057149Y-105629470D01*
X146121717Y-105726103D01*
X146203897Y-105808283D01*
X146300530Y-105872851D01*
X146407903Y-105917327D01*
X146521890Y-105940000D01*
X146638110Y-105940000D01*
X146752097Y-105917327D01*
X146859470Y-105872851D01*
X146883351Y-105856894D01*
X146905814Y-105845098D01*
X146918174Y-105838134D01*
X146970635Y-105806496D01*
X146978512Y-105801535D01*
X147024557Y-105771271D01*
X147025802Y-105770446D01*
X147064695Y-105744535D01*
X147094739Y-105726016D01*
X147118354Y-105713882D01*
X147140941Y-105705232D01*
X147169677Y-105698035D01*
X147211299Y-105692468D01*
X147274668Y-105690000D01*
X148113839Y-105690000D01*
X148113839Y-105745000D01*
X148118473Y-105792048D01*
X148132196Y-105837288D01*
X148154482Y-105878982D01*
X148184473Y-105915527D01*
X148221018Y-105945518D01*
X148262712Y-105967804D01*
X148307952Y-105981527D01*
X148355000Y-105986161D01*
X148480000Y-105986161D01*
X148480001Y-106499167D01*
X147631394Y-107347775D01*
X147618421Y-107358422D01*
X147575933Y-107410193D01*
X147544361Y-107469259D01*
X147524920Y-107533349D01*
X147520000Y-107583300D01*
X147520000Y-107583307D01*
X147518356Y-107600000D01*
X147520000Y-107616693D01*
X147520000Y-107893576D01*
X147510308Y-108074646D01*
X147485764Y-108207395D01*
X147450156Y-108309867D01*
X147404084Y-108396744D01*
X147344784Y-108481169D01*
X147270083Y-108572572D01*
X147184370Y-108674562D01*
X147178489Y-108681843D01*
X147089106Y-108797036D01*
X147078295Y-108812141D01*
X146989166Y-108947446D01*
X146977163Y-108967779D01*
X146942668Y-109033386D01*
X146909055Y-109083691D01*
X146826888Y-109282059D01*
X146785000Y-109492644D01*
X146785000Y-109707356D01*
X146826888Y-109917941D01*
X146909055Y-110116309D01*
X147028342Y-110294834D01*
X147180166Y-110446658D01*
X147358691Y-110565945D01*
X147557059Y-110648112D01*
X147767644Y-110690000D01*
X147982356Y-110690000D01*
X148192941Y-110648112D01*
X148391309Y-110565945D01*
X148569834Y-110446658D01*
X148721658Y-110294834D01*
X148840945Y-110116309D01*
X148923112Y-109917941D01*
X148965000Y-109707356D01*
X148965000Y-109492644D01*
X148923112Y-109282059D01*
X148840945Y-109083691D01*
X148794057Y-109013518D01*
X148750961Y-108938056D01*
X148738542Y-108918555D01*
X148645627Y-108787092D01*
X148634847Y-108772978D01*
X148542558Y-108660993D01*
X148537137Y-108654644D01*
X148449673Y-108555734D01*
X148374378Y-108467378D01*
X148315125Y-108385775D01*
X148269377Y-108301691D01*
X148234055Y-108201994D01*
X148209656Y-108071936D01*
X148200000Y-107893517D01*
X148200000Y-107740831D01*
X149048607Y-106892225D01*
X149061579Y-106881579D01*
X149104067Y-106829808D01*
X149135639Y-106770742D01*
X149155080Y-106706652D01*
X149160000Y-106656701D01*
X149160000Y-106656694D01*
X149161644Y-106640001D01*
X149160000Y-106623308D01*
X149160000Y-105986161D01*
X149285000Y-105986161D01*
X149332048Y-105981527D01*
X149377288Y-105967804D01*
X149418982Y-105945518D01*
X149455527Y-105915527D01*
X149485518Y-105878982D01*
X149507804Y-105837288D01*
X149521527Y-105792048D01*
X149526161Y-105745000D01*
X149526161Y-104955000D01*
X149521527Y-104907952D01*
X149507804Y-104862712D01*
X149485518Y-104821018D01*
X149455527Y-104784473D01*
X149418982Y-104754482D01*
X149377288Y-104732196D01*
X149332048Y-104718473D01*
X149285000Y-104713839D01*
X148355000Y-104713839D01*
X148307952Y-104718473D01*
X148262712Y-104732196D01*
X148221018Y-104754482D01*
X148184473Y-104784473D01*
X148154482Y-104821018D01*
X148132196Y-104862712D01*
X148118473Y-104907952D01*
X148113839Y-104955000D01*
X148113839Y-105010000D01*
X147274672Y-105010000D01*
X147211299Y-105007531D01*
X147169677Y-105001964D01*
X147140941Y-104994767D01*
X147118354Y-104986117D01*
X147094739Y-104973983D01*
X147064695Y-104955464D01*
X147025802Y-104929553D01*
X147024557Y-104928728D01*
X146978512Y-104898464D01*
X146970635Y-104893503D01*
X146918174Y-104861865D01*
X146905811Y-104854900D01*
X146883350Y-104843105D01*
X146859470Y-104827149D01*
X146752097Y-104782673D01*
X146638110Y-104760000D01*
X146521890Y-104760000D01*
X146407903Y-104782673D01*
X146300530Y-104827149D01*
X146203897Y-104891717D01*
X146121717Y-104973897D01*
X146057149Y-105070530D01*
X146012673Y-105177903D01*
X145990000Y-105291890D01*
X133658915Y-105291890D01*
X133649568Y-105251610D01*
X133645721Y-105237107D01*
X133643940Y-105231152D01*
X133637327Y-105197903D01*
X133592851Y-105090530D01*
X133576896Y-105066651D01*
X133565099Y-105044187D01*
X133558134Y-105031825D01*
X133526496Y-104979364D01*
X133521535Y-104971487D01*
X133491271Y-104925442D01*
X133490446Y-104924197D01*
X133464535Y-104885304D01*
X133446016Y-104855260D01*
X133433882Y-104831645D01*
X133425232Y-104809058D01*
X133418035Y-104780322D01*
X133412468Y-104738700D01*
X133410000Y-104675332D01*
X133410000Y-104656161D01*
X133535000Y-104656161D01*
X133582048Y-104651527D01*
X133627288Y-104637804D01*
X133668982Y-104615518D01*
X133705527Y-104585527D01*
X133735518Y-104548982D01*
X133757804Y-104507288D01*
X133771527Y-104462048D01*
X133776161Y-104415000D01*
X133776161Y-103625000D01*
X133771527Y-103577952D01*
X133757804Y-103532712D01*
X133735518Y-103491018D01*
X133705527Y-103454473D01*
X133668982Y-103424482D01*
X133627288Y-103402196D01*
X133582048Y-103388473D01*
X133535000Y-103383839D01*
X132605000Y-103383839D01*
X132557952Y-103388473D01*
X132512712Y-103402196D01*
X132471018Y-103424482D01*
X132434473Y-103454473D01*
X132404482Y-103491018D01*
X132382196Y-103532712D01*
X132368473Y-103577952D01*
X132363839Y-103625000D01*
X127955831Y-103625000D01*
X128805831Y-102775000D01*
X132283452Y-102775000D01*
X132289630Y-102837731D01*
X132307928Y-102898051D01*
X132337643Y-102953642D01*
X132377631Y-103002369D01*
X132426358Y-103042357D01*
X132481949Y-103072072D01*
X132542269Y-103090370D01*
X132605000Y-103096548D01*
X132950000Y-103095000D01*
X133030000Y-103015000D01*
X133030000Y-102420000D01*
X133110000Y-102420000D01*
X133110000Y-103015000D01*
X133190000Y-103095000D01*
X133535000Y-103096548D01*
X133597731Y-103090370D01*
X133658051Y-103072072D01*
X133713642Y-103042357D01*
X133725544Y-103032589D01*
X139138716Y-103032589D01*
X139138716Y-103387411D01*
X139207938Y-103735415D01*
X139343723Y-104063228D01*
X139540851Y-104358252D01*
X139791748Y-104609149D01*
X140086772Y-104806277D01*
X140414585Y-104942062D01*
X140762589Y-105011284D01*
X141117411Y-105011284D01*
X141465415Y-104942062D01*
X141793228Y-104806277D01*
X142088252Y-104609149D01*
X142339149Y-104358252D01*
X142508365Y-104105000D01*
X148033452Y-104105000D01*
X148039630Y-104167731D01*
X148057928Y-104228051D01*
X148087643Y-104283642D01*
X148127631Y-104332369D01*
X148176358Y-104372357D01*
X148231949Y-104402072D01*
X148292269Y-104420370D01*
X148355000Y-104426548D01*
X148700000Y-104425000D01*
X148780000Y-104345000D01*
X148780000Y-103750000D01*
X148860000Y-103750000D01*
X148860000Y-104345000D01*
X148940000Y-104425000D01*
X149285000Y-104426548D01*
X149347731Y-104420370D01*
X149408051Y-104402072D01*
X149463642Y-104372357D01*
X149512369Y-104332369D01*
X149552357Y-104283642D01*
X149582072Y-104228051D01*
X149600370Y-104167731D01*
X149606548Y-104105000D01*
X155333452Y-104105000D01*
X155339630Y-104167731D01*
X155357928Y-104228051D01*
X155387643Y-104283642D01*
X155427631Y-104332369D01*
X155476358Y-104372357D01*
X155531949Y-104402072D01*
X155592269Y-104420370D01*
X155655000Y-104426548D01*
X156000000Y-104425000D01*
X156080000Y-104345000D01*
X156080000Y-103750000D01*
X156160000Y-103750000D01*
X156160000Y-104345000D01*
X156240000Y-104425000D01*
X156585000Y-104426548D01*
X156647731Y-104420370D01*
X156708051Y-104402072D01*
X156763642Y-104372357D01*
X156812369Y-104332369D01*
X156852357Y-104283642D01*
X156882072Y-104228051D01*
X156900370Y-104167731D01*
X156906548Y-104105000D01*
X156905000Y-103830000D01*
X156825000Y-103750000D01*
X156160000Y-103750000D01*
X156080000Y-103750000D01*
X155415000Y-103750000D01*
X155335000Y-103830000D01*
X155333452Y-104105000D01*
X149606548Y-104105000D01*
X149605000Y-103830000D01*
X149525000Y-103750000D01*
X148860000Y-103750000D01*
X148780000Y-103750000D01*
X148115000Y-103750000D01*
X148035000Y-103830000D01*
X148033452Y-104105000D01*
X142508365Y-104105000D01*
X142536277Y-104063228D01*
X142672062Y-103735415D01*
X142741284Y-103387411D01*
X142741284Y-103315000D01*
X148033452Y-103315000D01*
X148035000Y-103590000D01*
X148115000Y-103670000D01*
X148780000Y-103670000D01*
X148780000Y-103075000D01*
X148860000Y-103075000D01*
X148860000Y-103670000D01*
X149525000Y-103670000D01*
X149605000Y-103590000D01*
X149606548Y-103315000D01*
X155333452Y-103315000D01*
X155335000Y-103590000D01*
X155415000Y-103670000D01*
X156080000Y-103670000D01*
X156080000Y-103075000D01*
X156160000Y-103075000D01*
X156160000Y-103670000D01*
X156825000Y-103670000D01*
X156905000Y-103590000D01*
X156906548Y-103315000D01*
X156900370Y-103252269D01*
X156882072Y-103191949D01*
X156852357Y-103136358D01*
X156812369Y-103087631D01*
X156763642Y-103047643D01*
X156708051Y-103017928D01*
X156647731Y-102999630D01*
X156585000Y-102993452D01*
X156240000Y-102995000D01*
X156160000Y-103075000D01*
X156080000Y-103075000D01*
X156000000Y-102995000D01*
X155655000Y-102993452D01*
X155592269Y-102999630D01*
X155531949Y-103017928D01*
X155476358Y-103047643D01*
X155427631Y-103087631D01*
X155387643Y-103136358D01*
X155357928Y-103191949D01*
X155339630Y-103252269D01*
X155333452Y-103315000D01*
X149606548Y-103315000D01*
X149600370Y-103252269D01*
X149582072Y-103191949D01*
X149552357Y-103136358D01*
X149512369Y-103087631D01*
X149463642Y-103047643D01*
X149408051Y-103017928D01*
X149347731Y-102999630D01*
X149285000Y-102993452D01*
X148940000Y-102995000D01*
X148860000Y-103075000D01*
X148780000Y-103075000D01*
X148700000Y-102995000D01*
X148355000Y-102993452D01*
X148292269Y-102999630D01*
X148231949Y-103017928D01*
X148176358Y-103047643D01*
X148127631Y-103087631D01*
X148087643Y-103136358D01*
X148057928Y-103191949D01*
X148039630Y-103252269D01*
X148033452Y-103315000D01*
X142741284Y-103315000D01*
X142741284Y-103032589D01*
X142672062Y-102684585D01*
X142536277Y-102356772D01*
X142339149Y-102061748D01*
X142088252Y-101810851D01*
X141793228Y-101613723D01*
X141465415Y-101477938D01*
X141117411Y-101408716D01*
X140762589Y-101408716D01*
X140414585Y-101477938D01*
X140086772Y-101613723D01*
X139791748Y-101810851D01*
X139540851Y-102061748D01*
X139343723Y-102356772D01*
X139207938Y-102684585D01*
X139138716Y-103032589D01*
X133725544Y-103032589D01*
X133762369Y-103002369D01*
X133802357Y-102953642D01*
X133832072Y-102898051D01*
X133850370Y-102837731D01*
X133856548Y-102775000D01*
X133855000Y-102500000D01*
X133775000Y-102420000D01*
X133110000Y-102420000D01*
X133030000Y-102420000D01*
X132365000Y-102420000D01*
X132285000Y-102500000D01*
X132283452Y-102775000D01*
X128805831Y-102775000D01*
X129595831Y-101985000D01*
X132283452Y-101985000D01*
X132285000Y-102260000D01*
X132365000Y-102340000D01*
X133030000Y-102340000D01*
X133030000Y-101745000D01*
X133110000Y-101745000D01*
X133110000Y-102340000D01*
X133775000Y-102340000D01*
X133855000Y-102260000D01*
X133856548Y-101985000D01*
X133850370Y-101922269D01*
X133832072Y-101861949D01*
X133802357Y-101806358D01*
X133762369Y-101757631D01*
X133713642Y-101717643D01*
X133658051Y-101687928D01*
X133597731Y-101669630D01*
X133535000Y-101663452D01*
X133190000Y-101665000D01*
X133110000Y-101745000D01*
X133030000Y-101745000D01*
X132950000Y-101665000D01*
X132605000Y-101663452D01*
X132542269Y-101669630D01*
X132481949Y-101687928D01*
X132426358Y-101717643D01*
X132377631Y-101757631D01*
X132337643Y-101806358D01*
X132307928Y-101861949D01*
X132289630Y-101922269D01*
X132283452Y-101985000D01*
X129595831Y-101985000D01*
X130024671Y-101556161D01*
X130735000Y-101556161D01*
X130782048Y-101551527D01*
X130827288Y-101537804D01*
X130868982Y-101515518D01*
X130905527Y-101485527D01*
X130935518Y-101448982D01*
X130957804Y-101407288D01*
X130971527Y-101362048D01*
X130976161Y-101315000D01*
X130976161Y-100395000D01*
X130971527Y-100347952D01*
X130957804Y-100302712D01*
X130935518Y-100261018D01*
X130905527Y-100224473D01*
X130868982Y-100194482D01*
X130827288Y-100172196D01*
X130782048Y-100158473D01*
X130735000Y-100153839D01*
X129765000Y-100153839D01*
X129717952Y-100158473D01*
X129672712Y-100172196D01*
X129631018Y-100194482D01*
X129594473Y-100224473D01*
X129564482Y-100261018D01*
X129542196Y-100302712D01*
X129528473Y-100347952D01*
X129523839Y-100395000D01*
X129523839Y-101095329D01*
X127371394Y-103247775D01*
X127358421Y-103258422D01*
X127315933Y-103310193D01*
X127284361Y-103369259D01*
X127264920Y-103433349D01*
X127260000Y-103483300D01*
X127260000Y-103483307D01*
X127258356Y-103500000D01*
X126836556Y-103500000D01*
X126826779Y-103467772D01*
X126734479Y-103295091D01*
X126610265Y-103143735D01*
X126458909Y-103019521D01*
X126286228Y-102927221D01*
X126098858Y-102870383D01*
X125952826Y-102856000D01*
X125720367Y-102856000D01*
X125720340Y-102855817D01*
X125723131Y-102837374D01*
X125740060Y-102802438D01*
X125797086Y-102733745D01*
X128910832Y-99620000D01*
X129523839Y-99620000D01*
X129523839Y-99765000D01*
X129528473Y-99812048D01*
X129542196Y-99857288D01*
X129564482Y-99898982D01*
X129594473Y-99935527D01*
X129631018Y-99965518D01*
X129672712Y-99987804D01*
X129717952Y-100001527D01*
X129765000Y-100006161D01*
X130735000Y-100006161D01*
X130782048Y-100001527D01*
X130827288Y-99987804D01*
X130868982Y-99965518D01*
X130905527Y-99935527D01*
X130935518Y-99898982D01*
X130957804Y-99857288D01*
X130971527Y-99812048D01*
X130976161Y-99765000D01*
X130976161Y-98845000D01*
X130971527Y-98797952D01*
X130957804Y-98752712D01*
X130935518Y-98711018D01*
X130905527Y-98674473D01*
X130868982Y-98644482D01*
X130827288Y-98622196D01*
X130782048Y-98608473D01*
X130735000Y-98603839D01*
X129765000Y-98603839D01*
X129717952Y-98608473D01*
X129672712Y-98622196D01*
X129631018Y-98644482D01*
X129594473Y-98674473D01*
X129564482Y-98711018D01*
X129542196Y-98752712D01*
X129528473Y-98797952D01*
X129523839Y-98845000D01*
X129523839Y-98940000D01*
X128786692Y-98940000D01*
X128769999Y-98938356D01*
X128753306Y-98940000D01*
X128753299Y-98940000D01*
X128703348Y-98944920D01*
X128639258Y-98964361D01*
X128580192Y-98995933D01*
X128528421Y-99038421D01*
X128517775Y-99051393D01*
X124921394Y-102647775D01*
X124908422Y-102658421D01*
X124897776Y-102671393D01*
X124897775Y-102671394D01*
X124865933Y-102710193D01*
X124859698Y-102721857D01*
X124854478Y-102727359D01*
X124854385Y-102727457D01*
X124787259Y-102798282D01*
X124732211Y-102856000D01*
X124347174Y-102856000D01*
X124201142Y-102870383D01*
X124013772Y-102927221D01*
X123841091Y-103019521D01*
X123689735Y-103143735D01*
X123565521Y-103295091D01*
X123473221Y-103467772D01*
X123416383Y-103655142D01*
X123397191Y-103850000D01*
X121390121Y-103850000D01*
X129020121Y-96220000D01*
X130905755Y-96220000D01*
X130920000Y-96221403D01*
X130934245Y-96220000D01*
X130976850Y-96215804D01*
X131031515Y-96199221D01*
X131081895Y-96172293D01*
X131126053Y-96136053D01*
X131162293Y-96091895D01*
X131189221Y-96041515D01*
X131205804Y-95986850D01*
X131211403Y-95930000D01*
X131210000Y-95915755D01*
X131210000Y-88770000D01*
X133734538Y-88770000D01*
X133702600Y-88875284D01*
G37*
G04 #@! TD.AperFunction*
D23*
X154077999Y-105078457D02*
X154129909Y-105109763D01*
X154175760Y-105139899D01*
X154218118Y-105168118D01*
X154218495Y-105168360D01*
X154260087Y-105193996D01*
X154260947Y-105194481D01*
X154304502Y-105216862D01*
X154305764Y-105217426D01*
X154354073Y-105235925D01*
X154355529Y-105236384D01*
X154411386Y-105250374D01*
X154412788Y-105250643D01*
X154478985Y-105259497D01*
X154480175Y-105259599D01*
X154547300Y-105262214D01*
X154547300Y-105437785D01*
X154480175Y-105440400D01*
X154478985Y-105440502D01*
X154412788Y-105449356D01*
X154411386Y-105449625D01*
X154355529Y-105463615D01*
X154354073Y-105464074D01*
X154305764Y-105482573D01*
X154304502Y-105483137D01*
X154260947Y-105505518D01*
X154260087Y-105506003D01*
X154218495Y-105531639D01*
X154218118Y-105531881D01*
X154175760Y-105560100D01*
X154129909Y-105590236D01*
X154077999Y-105621542D01*
X154024763Y-105649498D01*
X153713322Y-105350000D01*
X154024763Y-105050501D01*
X154077999Y-105078457D01*
G04 #@! TA.AperFunction,Conductor*
D22*
G36*
X154077999Y-105078457D02*
G01*
X154129909Y-105109763D01*
X154175760Y-105139899D01*
X154218118Y-105168118D01*
X154218495Y-105168360D01*
X154260087Y-105193996D01*
X154260947Y-105194481D01*
X154304502Y-105216862D01*
X154305764Y-105217426D01*
X154354073Y-105235925D01*
X154355529Y-105236384D01*
X154411386Y-105250374D01*
X154412788Y-105250643D01*
X154478985Y-105259497D01*
X154480175Y-105259599D01*
X154547300Y-105262214D01*
X154547300Y-105437785D01*
X154480175Y-105440400D01*
X154478985Y-105440502D01*
X154412788Y-105449356D01*
X154411386Y-105449625D01*
X154355529Y-105463615D01*
X154354073Y-105464074D01*
X154305764Y-105482573D01*
X154304502Y-105483137D01*
X154260947Y-105505518D01*
X154260087Y-105506003D01*
X154218495Y-105531639D01*
X154218118Y-105531881D01*
X154175760Y-105560100D01*
X154129909Y-105590236D01*
X154077999Y-105621542D01*
X154024763Y-105649498D01*
X153713322Y-105350000D01*
X154024763Y-105050501D01*
X154077999Y-105078457D01*
G37*
G04 #@! TD.AperFunction*
D23*
X151417813Y-108456586D02*
X151290734Y-108598068D01*
X151289712Y-108599365D01*
X151194711Y-108737725D01*
X151193735Y-108739410D01*
X151131202Y-108869459D01*
X151130485Y-108871308D01*
X151092770Y-108996812D01*
X151092402Y-108998402D01*
X151071852Y-109123128D01*
X151071730Y-109124100D01*
X151060694Y-109251816D01*
X151060676Y-109252045D01*
X151051517Y-109386303D01*
X151036626Y-109530603D01*
X151008412Y-109688832D01*
X150961589Y-109856596D01*
X149881017Y-109891101D01*
X149888770Y-108810007D01*
X150056490Y-108758747D01*
X150214715Y-108726760D01*
X150359120Y-108708838D01*
X150493617Y-108697265D01*
X150493805Y-108697248D01*
X150621915Y-108684305D01*
X150622841Y-108684176D01*
X150748100Y-108662111D01*
X150749644Y-108661739D01*
X150875826Y-108622780D01*
X150877632Y-108622067D01*
X151008508Y-108558444D01*
X151010163Y-108557478D01*
X151149507Y-108461418D01*
X151150789Y-108460407D01*
X151293418Y-108332191D01*
X151417813Y-108456586D01*
G04 #@! TA.AperFunction,Conductor*
D22*
G36*
X151417813Y-108456586D02*
G01*
X151290734Y-108598068D01*
X151289712Y-108599365D01*
X151194711Y-108737725D01*
X151193735Y-108739410D01*
X151131202Y-108869459D01*
X151130485Y-108871308D01*
X151092770Y-108996812D01*
X151092402Y-108998402D01*
X151071852Y-109123128D01*
X151071730Y-109124100D01*
X151060694Y-109251816D01*
X151060676Y-109252045D01*
X151051517Y-109386303D01*
X151036626Y-109530603D01*
X151008412Y-109688832D01*
X150961589Y-109856596D01*
X149881017Y-109891101D01*
X149888770Y-108810007D01*
X150056490Y-108758747D01*
X150214715Y-108726760D01*
X150359120Y-108708838D01*
X150493617Y-108697265D01*
X150493805Y-108697248D01*
X150621915Y-108684305D01*
X150622841Y-108684176D01*
X150748100Y-108662111D01*
X150749644Y-108661739D01*
X150875826Y-108622780D01*
X150877632Y-108622067D01*
X151008508Y-108558444D01*
X151010163Y-108557478D01*
X151149507Y-108461418D01*
X151150789Y-108460407D01*
X151293418Y-108332191D01*
X151417813Y-108456586D01*
G37*
G04 #@! TD.AperFunction*
D23*
X154101836Y-105595895D02*
X154063771Y-105638206D01*
X154062860Y-105639345D01*
X154029964Y-105685652D01*
X154029209Y-105686850D01*
X154004636Y-105731184D01*
X154004144Y-105732170D01*
X153984845Y-105775466D01*
X153984635Y-105775967D01*
X153967585Y-105819090D01*
X153949837Y-105862721D01*
X153928453Y-105907656D01*
X153900360Y-105955079D01*
X153862432Y-106006148D01*
X153820084Y-106052539D01*
X153696161Y-105928616D01*
X153725911Y-105891999D01*
X153727711Y-105889032D01*
X153746195Y-105846293D01*
X153746954Y-105843922D01*
X153747208Y-105842126D01*
X153750021Y-105801351D01*
X153749948Y-105798863D01*
X153749662Y-105797357D01*
X153739622Y-105757742D01*
X153738618Y-105755080D01*
X153718544Y-105715823D01*
X153717703Y-105714411D01*
X153690413Y-105674707D01*
X153689991Y-105674129D01*
X153658304Y-105633177D01*
X153625230Y-105590420D01*
X153593728Y-105545308D01*
X153570708Y-105504549D01*
X153867523Y-105195897D01*
X154101836Y-105595895D01*
G04 #@! TA.AperFunction,Conductor*
D22*
G36*
X154101836Y-105595895D02*
G01*
X154063771Y-105638206D01*
X154062860Y-105639345D01*
X154029964Y-105685652D01*
X154029209Y-105686850D01*
X154004636Y-105731184D01*
X154004144Y-105732170D01*
X153984845Y-105775466D01*
X153984635Y-105775967D01*
X153967585Y-105819090D01*
X153949837Y-105862721D01*
X153928453Y-105907656D01*
X153900360Y-105955079D01*
X153862432Y-106006148D01*
X153820084Y-106052539D01*
X153696161Y-105928616D01*
X153725911Y-105891999D01*
X153727711Y-105889032D01*
X153746195Y-105846293D01*
X153746954Y-105843922D01*
X153747208Y-105842126D01*
X153750021Y-105801351D01*
X153749948Y-105798863D01*
X153749662Y-105797357D01*
X153739622Y-105757742D01*
X153738618Y-105755080D01*
X153718544Y-105715823D01*
X153717703Y-105714411D01*
X153690413Y-105674707D01*
X153689991Y-105674129D01*
X153658304Y-105633177D01*
X153625230Y-105590420D01*
X153593728Y-105545308D01*
X153570708Y-105504549D01*
X153867523Y-105195897D01*
X154101836Y-105595895D01*
G37*
G04 #@! TD.AperFunction*
D23*
X146787999Y-105078457D02*
X146839909Y-105109763D01*
X146885760Y-105139899D01*
X146928118Y-105168118D01*
X146928495Y-105168360D01*
X146970087Y-105193996D01*
X146970947Y-105194481D01*
X147014502Y-105216862D01*
X147015764Y-105217426D01*
X147064073Y-105235925D01*
X147065529Y-105236384D01*
X147121386Y-105250374D01*
X147122788Y-105250643D01*
X147188985Y-105259497D01*
X147190175Y-105259599D01*
X147257300Y-105262214D01*
X147257300Y-105437785D01*
X147190175Y-105440400D01*
X147188985Y-105440502D01*
X147122788Y-105449356D01*
X147121386Y-105449625D01*
X147065529Y-105463615D01*
X147064073Y-105464074D01*
X147015764Y-105482573D01*
X147014502Y-105483137D01*
X146970947Y-105505518D01*
X146970087Y-105506003D01*
X146928495Y-105531639D01*
X146928118Y-105531881D01*
X146885760Y-105560100D01*
X146839909Y-105590236D01*
X146787999Y-105621542D01*
X146734763Y-105649498D01*
X146423322Y-105350000D01*
X146734763Y-105050501D01*
X146787999Y-105078457D01*
G04 #@! TA.AperFunction,Conductor*
D22*
G36*
X146787999Y-105078457D02*
G01*
X146839909Y-105109763D01*
X146885760Y-105139899D01*
X146928118Y-105168118D01*
X146928495Y-105168360D01*
X146970087Y-105193996D01*
X146970947Y-105194481D01*
X147014502Y-105216862D01*
X147015764Y-105217426D01*
X147064073Y-105235925D01*
X147065529Y-105236384D01*
X147121386Y-105250374D01*
X147122788Y-105250643D01*
X147188985Y-105259497D01*
X147190175Y-105259599D01*
X147257300Y-105262214D01*
X147257300Y-105437785D01*
X147190175Y-105440400D01*
X147188985Y-105440502D01*
X147122788Y-105449356D01*
X147121386Y-105449625D01*
X147065529Y-105463615D01*
X147064073Y-105464074D01*
X147015764Y-105482573D01*
X147014502Y-105483137D01*
X146970947Y-105505518D01*
X146970087Y-105506003D01*
X146928495Y-105531639D01*
X146928118Y-105531881D01*
X146885760Y-105560100D01*
X146839909Y-105590236D01*
X146787999Y-105621542D01*
X146734763Y-105649498D01*
X146423322Y-105350000D01*
X146734763Y-105050501D01*
X146787999Y-105078457D01*
G37*
G04 #@! TD.AperFunction*
D23*
X147958179Y-108101362D02*
X147958378Y-108103018D01*
X147989126Y-108266914D01*
X147989637Y-108268813D01*
X148037520Y-108403964D01*
X148038335Y-108405793D01*
X148100602Y-108520238D01*
X148101481Y-108521630D01*
X148175380Y-108623404D01*
X148175991Y-108624179D01*
X148258772Y-108721320D01*
X148258924Y-108721496D01*
X148347686Y-108821873D01*
X148439541Y-108933332D01*
X148531829Y-109063908D01*
X148617689Y-109214251D01*
X147882175Y-110006614D01*
X147119166Y-109240699D01*
X147200539Y-109085935D01*
X147289051Y-108951567D01*
X147377997Y-108836937D01*
X147464592Y-108733898D01*
X147464704Y-108733764D01*
X147545990Y-108634304D01*
X147546549Y-108633567D01*
X147619486Y-108529726D01*
X147620313Y-108528376D01*
X147682033Y-108411993D01*
X147682809Y-108410212D01*
X147730446Y-108273122D01*
X147730938Y-108271262D01*
X147761622Y-108105302D01*
X147761816Y-108103672D01*
X147772039Y-107912700D01*
X147947969Y-107912700D01*
X147958179Y-108101362D01*
G04 #@! TA.AperFunction,Conductor*
D22*
G36*
X147958179Y-108101362D02*
G01*
X147958378Y-108103018D01*
X147989126Y-108266914D01*
X147989637Y-108268813D01*
X148037520Y-108403964D01*
X148038335Y-108405793D01*
X148100602Y-108520238D01*
X148101481Y-108521630D01*
X148175380Y-108623404D01*
X148175991Y-108624179D01*
X148258772Y-108721320D01*
X148258924Y-108721496D01*
X148347686Y-108821873D01*
X148439541Y-108933332D01*
X148531829Y-109063908D01*
X148617689Y-109214251D01*
X147882175Y-110006614D01*
X147119166Y-109240699D01*
X147200539Y-109085935D01*
X147289051Y-108951567D01*
X147377997Y-108836937D01*
X147464592Y-108733898D01*
X147464704Y-108733764D01*
X147545990Y-108634304D01*
X147546549Y-108633567D01*
X147619486Y-108529726D01*
X147620313Y-108528376D01*
X147682033Y-108411993D01*
X147682809Y-108410212D01*
X147730446Y-108273122D01*
X147730938Y-108271262D01*
X147761622Y-108105302D01*
X147761816Y-108103672D01*
X147772039Y-107912700D01*
X147947969Y-107912700D01*
X147958179Y-108101362D01*
G37*
G04 #@! TD.AperFunction*
D23*
X133160400Y-104759824D02*
X133160502Y-104761014D01*
X133169356Y-104827211D01*
X133169625Y-104828613D01*
X133183615Y-104884470D01*
X133184074Y-104885926D01*
X133202573Y-104934235D01*
X133203137Y-104935497D01*
X133225518Y-104979052D01*
X133226003Y-104979912D01*
X133251639Y-105021504D01*
X133251881Y-105021881D01*
X133280100Y-105064239D01*
X133310236Y-105110090D01*
X133341542Y-105162000D01*
X133369499Y-105215237D01*
X133070000Y-105526678D01*
X132770501Y-105215236D01*
X132798453Y-105162007D01*
X132829763Y-105110090D01*
X132859899Y-105064239D01*
X132888118Y-105021881D01*
X132888360Y-105021504D01*
X132913996Y-104979912D01*
X132914481Y-104979052D01*
X132936862Y-104935497D01*
X132937426Y-104934235D01*
X132955925Y-104885926D01*
X132956384Y-104884470D01*
X132970374Y-104828613D01*
X132970643Y-104827211D01*
X132979497Y-104761014D01*
X132979599Y-104759824D01*
X132982214Y-104692700D01*
X133157785Y-104692700D01*
X133160400Y-104759824D01*
G04 #@! TA.AperFunction,Conductor*
D22*
G36*
X133160400Y-104759824D02*
G01*
X133160502Y-104761014D01*
X133169356Y-104827211D01*
X133169625Y-104828613D01*
X133183615Y-104884470D01*
X133184074Y-104885926D01*
X133202573Y-104934235D01*
X133203137Y-104935497D01*
X133225518Y-104979052D01*
X133226003Y-104979912D01*
X133251639Y-105021504D01*
X133251881Y-105021881D01*
X133280100Y-105064239D01*
X133310236Y-105110090D01*
X133341542Y-105162000D01*
X133369499Y-105215237D01*
X133070000Y-105526678D01*
X132770501Y-105215236D01*
X132798453Y-105162007D01*
X132829763Y-105110090D01*
X132859899Y-105064239D01*
X132888118Y-105021881D01*
X132888360Y-105021504D01*
X132913996Y-104979912D01*
X132914481Y-104979052D01*
X132936862Y-104935497D01*
X132937426Y-104934235D01*
X132955925Y-104885926D01*
X132956384Y-104884470D01*
X132970374Y-104828613D01*
X132970643Y-104827211D01*
X132979497Y-104761014D01*
X132979599Y-104759824D01*
X132982214Y-104692700D01*
X133157785Y-104692700D01*
X133160400Y-104759824D01*
G37*
G04 #@! TD.AperFunction*
D23*
X145688182Y-108102893D02*
X145688378Y-108104532D01*
X145719086Y-108269794D01*
X145719584Y-108271667D01*
X145767307Y-108408100D01*
X145768097Y-108409898D01*
X145830006Y-108525624D01*
X145830850Y-108526988D01*
X145904116Y-108630131D01*
X145904692Y-108630881D01*
X145986488Y-108729561D01*
X145986613Y-108729709D01*
X146073949Y-108831862D01*
X146163878Y-108945432D01*
X146253663Y-109078530D01*
X146336556Y-109231831D01*
X145582609Y-110006670D01*
X144837827Y-109223015D01*
X144922216Y-109071186D01*
X145013263Y-108939346D01*
X145104156Y-108826841D01*
X145192214Y-108725576D01*
X145192353Y-108725413D01*
X145274646Y-108627505D01*
X145275239Y-108626743D01*
X145348826Y-108524290D01*
X145349688Y-108522912D01*
X145411780Y-108407831D01*
X145412582Y-108406017D01*
X145460387Y-108270230D01*
X145460892Y-108268344D01*
X145491621Y-108103771D01*
X145491819Y-108102124D01*
X145502034Y-107912700D01*
X145677964Y-107912700D01*
X145688182Y-108102893D01*
G04 #@! TA.AperFunction,Conductor*
D22*
G36*
X145688182Y-108102893D02*
G01*
X145688378Y-108104532D01*
X145719086Y-108269794D01*
X145719584Y-108271667D01*
X145767307Y-108408100D01*
X145768097Y-108409898D01*
X145830006Y-108525624D01*
X145830850Y-108526988D01*
X145904116Y-108630131D01*
X145904692Y-108630881D01*
X145986488Y-108729561D01*
X145986613Y-108729709D01*
X146073949Y-108831862D01*
X146163878Y-108945432D01*
X146253663Y-109078530D01*
X146336556Y-109231831D01*
X145582609Y-110006670D01*
X144837827Y-109223015D01*
X144922216Y-109071186D01*
X145013263Y-108939346D01*
X145104156Y-108826841D01*
X145192214Y-108725576D01*
X145192353Y-108725413D01*
X145274646Y-108627505D01*
X145275239Y-108626743D01*
X145348826Y-108524290D01*
X145349688Y-108522912D01*
X145411780Y-108407831D01*
X145412582Y-108406017D01*
X145460387Y-108270230D01*
X145460892Y-108268344D01*
X145491621Y-108103771D01*
X145491819Y-108102124D01*
X145502034Y-107912700D01*
X145677964Y-107912700D01*
X145688182Y-108102893D01*
G37*
G04 #@! TD.AperFunction*
D23*
X133391102Y-105267656D02*
X133403499Y-105309121D01*
X133414978Y-105358593D01*
X133425019Y-105406743D01*
X133425080Y-105407019D01*
X133435605Y-105452399D01*
X133435860Y-105453333D01*
X133448855Y-105494740D01*
X133449527Y-105496441D01*
X133467002Y-105532779D01*
X133468502Y-105535173D01*
X133492464Y-105565345D01*
X133495086Y-105567823D01*
X133527545Y-105590732D01*
X133530794Y-105592385D01*
X133573757Y-105606935D01*
X133576670Y-105607553D01*
X133620609Y-105611587D01*
X133620609Y-105786931D01*
X133555782Y-105785076D01*
X133490547Y-105779070D01*
X133434765Y-105770232D01*
X133385524Y-105759481D01*
X133339921Y-105747710D01*
X133295298Y-105735883D01*
X133294953Y-105735797D01*
X133248708Y-105724917D01*
X133248014Y-105724774D01*
X133197435Y-105715814D01*
X133196551Y-105715689D01*
X133138873Y-105709609D01*
X133137963Y-105709546D01*
X133079893Y-105707620D01*
X132962786Y-105259283D01*
X133391102Y-105267656D01*
G04 #@! TA.AperFunction,Conductor*
D22*
G36*
X133391102Y-105267656D02*
G01*
X133403499Y-105309121D01*
X133414978Y-105358593D01*
X133425019Y-105406743D01*
X133425080Y-105407019D01*
X133435605Y-105452399D01*
X133435860Y-105453333D01*
X133448855Y-105494740D01*
X133449527Y-105496441D01*
X133467002Y-105532779D01*
X133468502Y-105535173D01*
X133492464Y-105565345D01*
X133495086Y-105567823D01*
X133527545Y-105590732D01*
X133530794Y-105592385D01*
X133573757Y-105606935D01*
X133576670Y-105607553D01*
X133620609Y-105611587D01*
X133620609Y-105786931D01*
X133555782Y-105785076D01*
X133490547Y-105779070D01*
X133434765Y-105770232D01*
X133385524Y-105759481D01*
X133339921Y-105747710D01*
X133295298Y-105735883D01*
X133294953Y-105735797D01*
X133248708Y-105724917D01*
X133248014Y-105724774D01*
X133197435Y-105715814D01*
X133196551Y-105715689D01*
X133138873Y-105709609D01*
X133137963Y-105709546D01*
X133079893Y-105707620D01*
X132962786Y-105259283D01*
X133391102Y-105267656D01*
G37*
G04 #@! TD.AperFunction*
D23*
X149580400Y-97279824D02*
X149580502Y-97281014D01*
X149589356Y-97347211D01*
X149589625Y-97348613D01*
X149603615Y-97404470D01*
X149604074Y-97405926D01*
X149622573Y-97454235D01*
X149623137Y-97455497D01*
X149645518Y-97499052D01*
X149646003Y-97499912D01*
X149671639Y-97541504D01*
X149671881Y-97541881D01*
X149700100Y-97584239D01*
X149730236Y-97630090D01*
X149761542Y-97682000D01*
X149789499Y-97735237D01*
X149490000Y-98046678D01*
X149190501Y-97735236D01*
X149218453Y-97682007D01*
X149249763Y-97630090D01*
X149279899Y-97584239D01*
X149308118Y-97541881D01*
X149308360Y-97541504D01*
X149333996Y-97499912D01*
X149334481Y-97499052D01*
X149356862Y-97455497D01*
X149357426Y-97454235D01*
X149375925Y-97405926D01*
X149376384Y-97404470D01*
X149390374Y-97348613D01*
X149390643Y-97347211D01*
X149399497Y-97281014D01*
X149399599Y-97279824D01*
X149402214Y-97212700D01*
X149577785Y-97212700D01*
X149580400Y-97279824D01*
G04 #@! TA.AperFunction,Conductor*
D22*
G36*
X149580400Y-97279824D02*
G01*
X149580502Y-97281014D01*
X149589356Y-97347211D01*
X149589625Y-97348613D01*
X149603615Y-97404470D01*
X149604074Y-97405926D01*
X149622573Y-97454235D01*
X149623137Y-97455497D01*
X149645518Y-97499052D01*
X149646003Y-97499912D01*
X149671639Y-97541504D01*
X149671881Y-97541881D01*
X149700100Y-97584239D01*
X149730236Y-97630090D01*
X149761542Y-97682000D01*
X149789499Y-97735237D01*
X149490000Y-98046678D01*
X149190501Y-97735236D01*
X149218453Y-97682007D01*
X149249763Y-97630090D01*
X149279899Y-97584239D01*
X149308118Y-97541881D01*
X149308360Y-97541504D01*
X149333996Y-97499912D01*
X149334481Y-97499052D01*
X149356862Y-97455497D01*
X149357426Y-97454235D01*
X149375925Y-97405926D01*
X149376384Y-97404470D01*
X149390374Y-97348613D01*
X149390643Y-97347211D01*
X149399497Y-97281014D01*
X149399599Y-97279824D01*
X149402214Y-97212700D01*
X149577785Y-97212700D01*
X149580400Y-97279824D01*
G37*
G04 #@! TD.AperFunction*
D23*
X149789498Y-98044763D02*
X149761542Y-98097999D01*
X149730236Y-98149909D01*
X149700100Y-98195760D01*
X149671881Y-98238118D01*
X149671639Y-98238495D01*
X149646003Y-98280087D01*
X149645518Y-98280947D01*
X149623137Y-98324502D01*
X149622573Y-98325764D01*
X149604074Y-98374073D01*
X149603615Y-98375529D01*
X149589625Y-98431386D01*
X149589356Y-98432788D01*
X149580502Y-98498985D01*
X149580400Y-98500175D01*
X149577785Y-98567300D01*
X149402214Y-98567300D01*
X149399599Y-98500175D01*
X149399497Y-98498985D01*
X149390643Y-98432788D01*
X149390374Y-98431386D01*
X149376384Y-98375529D01*
X149375925Y-98374073D01*
X149357426Y-98325764D01*
X149356862Y-98324502D01*
X149334481Y-98280947D01*
X149333996Y-98280087D01*
X149308360Y-98238495D01*
X149308118Y-98238118D01*
X149279899Y-98195760D01*
X149249763Y-98149909D01*
X149218457Y-98097999D01*
X149190501Y-98044763D01*
X149490000Y-97733322D01*
X149789498Y-98044763D01*
G04 #@! TA.AperFunction,Conductor*
D22*
G36*
X149789498Y-98044763D02*
G01*
X149761542Y-98097999D01*
X149730236Y-98149909D01*
X149700100Y-98195760D01*
X149671881Y-98238118D01*
X149671639Y-98238495D01*
X149646003Y-98280087D01*
X149645518Y-98280947D01*
X149623137Y-98324502D01*
X149622573Y-98325764D01*
X149604074Y-98374073D01*
X149603615Y-98375529D01*
X149589625Y-98431386D01*
X149589356Y-98432788D01*
X149580502Y-98498985D01*
X149580400Y-98500175D01*
X149577785Y-98567300D01*
X149402214Y-98567300D01*
X149399599Y-98500175D01*
X149399497Y-98498985D01*
X149390643Y-98432788D01*
X149390374Y-98431386D01*
X149376384Y-98375529D01*
X149375925Y-98374073D01*
X149357426Y-98325764D01*
X149356862Y-98324502D01*
X149334481Y-98280947D01*
X149333996Y-98280087D01*
X149308360Y-98238495D01*
X149308118Y-98238118D01*
X149279899Y-98195760D01*
X149249763Y-98149909D01*
X149218457Y-98097999D01*
X149190501Y-98044763D01*
X149490000Y-97733322D01*
X149789498Y-98044763D01*
G37*
G04 #@! TD.AperFunction*
D23*
X148460412Y-114159521D02*
X148362336Y-114270097D01*
X148361308Y-114271423D01*
X148286646Y-114382135D01*
X148285811Y-114383566D01*
X148232915Y-114489588D01*
X148232392Y-114490786D01*
X148193490Y-114594198D01*
X148193273Y-114594825D01*
X148160602Y-114697673D01*
X148126521Y-114801637D01*
X148083370Y-114908689D01*
X148023388Y-115021198D01*
X147938740Y-115141520D01*
X147830012Y-115262467D01*
X147706039Y-115138494D01*
X147804698Y-115013236D01*
X147806039Y-115011139D01*
X147806761Y-115009418D01*
X147847518Y-114887962D01*
X147848075Y-114885536D01*
X147848089Y-114882418D01*
X147834684Y-114770015D01*
X147834148Y-114767584D01*
X147833287Y-114765559D01*
X147776440Y-114658600D01*
X147774893Y-114656324D01*
X147685325Y-114551199D01*
X147684444Y-114550265D01*
X147572874Y-114443366D01*
X147572656Y-114443162D01*
X147449982Y-114331041D01*
X147327139Y-114210323D01*
X147214886Y-114077625D01*
X147128131Y-113936665D01*
X147870098Y-113155972D01*
X148460412Y-114159521D01*
G04 #@! TA.AperFunction,Conductor*
D22*
G36*
X148460412Y-114159521D02*
G01*
X148362336Y-114270097D01*
X148361308Y-114271423D01*
X148286646Y-114382135D01*
X148285811Y-114383566D01*
X148232915Y-114489588D01*
X148232392Y-114490786D01*
X148193490Y-114594198D01*
X148193273Y-114594825D01*
X148160602Y-114697673D01*
X148126521Y-114801637D01*
X148083370Y-114908689D01*
X148023388Y-115021198D01*
X147938740Y-115141520D01*
X147830012Y-115262467D01*
X147706039Y-115138494D01*
X147804698Y-115013236D01*
X147806039Y-115011139D01*
X147806761Y-115009418D01*
X147847518Y-114887962D01*
X147848075Y-114885536D01*
X147848089Y-114882418D01*
X147834684Y-114770015D01*
X147834148Y-114767584D01*
X147833287Y-114765559D01*
X147776440Y-114658600D01*
X147774893Y-114656324D01*
X147685325Y-114551199D01*
X147684444Y-114550265D01*
X147572874Y-114443366D01*
X147572656Y-114443162D01*
X147449982Y-114331041D01*
X147327139Y-114210323D01*
X147214886Y-114077625D01*
X147128131Y-113936665D01*
X147870098Y-113155972D01*
X148460412Y-114159521D01*
G37*
G04 #@! TD.AperFunction*
D23*
X125774049Y-103445373D02*
X125774189Y-103445551D01*
X125813807Y-103495121D01*
X125814174Y-103495559D01*
X125857396Y-103544911D01*
X125858005Y-103545559D01*
X125906016Y-103593195D01*
X125906892Y-103593987D01*
X125960879Y-103638408D01*
X125962031Y-103639252D01*
X126023178Y-103678958D01*
X126024581Y-103679748D01*
X126094074Y-103713240D01*
X126095649Y-103713873D01*
X126174673Y-103739651D01*
X126176306Y-103740066D01*
X126266049Y-103756633D01*
X126267625Y-103756823D01*
X126357300Y-103761989D01*
X126357300Y-103938011D01*
X126267625Y-103943176D01*
X126266049Y-103943366D01*
X126176306Y-103959933D01*
X126174673Y-103960348D01*
X126095649Y-103986126D01*
X126094074Y-103986759D01*
X126024581Y-104020251D01*
X126023178Y-104021041D01*
X125962031Y-104060747D01*
X125960879Y-104061591D01*
X125906892Y-104106012D01*
X125906016Y-104106804D01*
X125858005Y-104154440D01*
X125857396Y-104155088D01*
X125814174Y-104204440D01*
X125813807Y-104204878D01*
X125774189Y-104254448D01*
X125774049Y-104254627D01*
X125743093Y-104294811D01*
X124802700Y-103850000D01*
X125743093Y-103405189D01*
X125774049Y-103445373D01*
G04 #@! TA.AperFunction,Conductor*
D22*
G36*
X125774049Y-103445373D02*
G01*
X125774189Y-103445551D01*
X125813807Y-103495121D01*
X125814174Y-103495559D01*
X125857396Y-103544911D01*
X125858005Y-103545559D01*
X125906016Y-103593195D01*
X125906892Y-103593987D01*
X125960879Y-103638408D01*
X125962031Y-103639252D01*
X126023178Y-103678958D01*
X126024581Y-103679748D01*
X126094074Y-103713240D01*
X126095649Y-103713873D01*
X126174673Y-103739651D01*
X126176306Y-103740066D01*
X126266049Y-103756633D01*
X126267625Y-103756823D01*
X126357300Y-103761989D01*
X126357300Y-103938011D01*
X126267625Y-103943176D01*
X126266049Y-103943366D01*
X126176306Y-103959933D01*
X126174673Y-103960348D01*
X126095649Y-103986126D01*
X126094074Y-103986759D01*
X126024581Y-104020251D01*
X126023178Y-104021041D01*
X125962031Y-104060747D01*
X125960879Y-104061591D01*
X125906892Y-104106012D01*
X125906016Y-104106804D01*
X125858005Y-104154440D01*
X125857396Y-104155088D01*
X125814174Y-104204440D01*
X125813807Y-104204878D01*
X125774189Y-104254448D01*
X125774049Y-104254627D01*
X125743093Y-104294811D01*
X124802700Y-103850000D01*
X125743093Y-103405189D01*
X125774049Y-103445373D01*
G37*
G04 #@! TD.AperFunction*
D23*
X125602352Y-102572697D02*
X125527015Y-102663448D01*
X125525358Y-102666022D01*
X125479849Y-102759938D01*
X125478988Y-102762274D01*
X125478721Y-102763576D01*
X125465113Y-102853510D01*
X125464984Y-102855996D01*
X125465107Y-102857268D01*
X125478078Y-102944980D01*
X125478818Y-102947760D01*
X125513045Y-103035012D01*
X125513818Y-103036634D01*
X125563981Y-103125185D01*
X125564448Y-103125946D01*
X125625224Y-103217558D01*
X125625330Y-103217715D01*
X125691285Y-103313981D01*
X125756984Y-103416468D01*
X125812995Y-103519245D01*
X125152477Y-104206103D01*
X124632741Y-103318858D01*
X124732106Y-103218835D01*
X124732170Y-103218769D01*
X124821983Y-103127048D01*
X124822047Y-103126983D01*
X124899906Y-103046313D01*
X124899958Y-103046258D01*
X124970351Y-102972450D01*
X124970379Y-102972421D01*
X125037791Y-102901295D01*
X125106719Y-102828651D01*
X125181557Y-102750402D01*
X125266973Y-102662174D01*
X125367246Y-102559995D01*
X125478123Y-102448468D01*
X125602352Y-102572697D01*
G04 #@! TA.AperFunction,Conductor*
D22*
G36*
X125602352Y-102572697D02*
G01*
X125527015Y-102663448D01*
X125525358Y-102666022D01*
X125479849Y-102759938D01*
X125478988Y-102762274D01*
X125478721Y-102763576D01*
X125465113Y-102853510D01*
X125464984Y-102855996D01*
X125465107Y-102857268D01*
X125478078Y-102944980D01*
X125478818Y-102947760D01*
X125513045Y-103035012D01*
X125513818Y-103036634D01*
X125563981Y-103125185D01*
X125564448Y-103125946D01*
X125625224Y-103217558D01*
X125625330Y-103217715D01*
X125691285Y-103313981D01*
X125756984Y-103416468D01*
X125812995Y-103519245D01*
X125152477Y-104206103D01*
X124632741Y-103318858D01*
X124732106Y-103218835D01*
X124732170Y-103218769D01*
X124821983Y-103127048D01*
X124822047Y-103126983D01*
X124899906Y-103046313D01*
X124899958Y-103046258D01*
X124970351Y-102972450D01*
X124970379Y-102972421D01*
X125037791Y-102901295D01*
X125106719Y-102828651D01*
X125181557Y-102750402D01*
X125266973Y-102662174D01*
X125367246Y-102559995D01*
X125478123Y-102448468D01*
X125602352Y-102572697D01*
G37*
G04 #@! TD.AperFunction*
D23*
X129379902Y-105126629D02*
X129429119Y-105161534D01*
X129472859Y-105194430D01*
X129472922Y-105194477D01*
X129513684Y-105224741D01*
X129514185Y-105225094D01*
X129554509Y-105252115D01*
X129555487Y-105252709D01*
X129598041Y-105275972D01*
X129599414Y-105276619D01*
X129646866Y-105295609D01*
X129648411Y-105296115D01*
X129703427Y-105310317D01*
X129704885Y-105310604D01*
X129770135Y-105319503D01*
X129771351Y-105319609D01*
X129837301Y-105322209D01*
X129837301Y-105497747D01*
X129766205Y-105500298D01*
X129765119Y-105500384D01*
X129695424Y-105508903D01*
X129694160Y-105509123D01*
X129635148Y-105522487D01*
X129633846Y-105522855D01*
X129582555Y-105540384D01*
X129581436Y-105540827D01*
X129534901Y-105561839D01*
X129534160Y-105562203D01*
X129489419Y-105586018D01*
X129489140Y-105586171D01*
X129443308Y-105612061D01*
X129393581Y-105639263D01*
X129337027Y-105667108D01*
X129278625Y-105691625D01*
X128993896Y-105366619D01*
X129329799Y-105094794D01*
X129379902Y-105126629D01*
G04 #@! TA.AperFunction,Conductor*
D22*
G36*
X129379902Y-105126629D02*
G01*
X129429119Y-105161534D01*
X129472859Y-105194430D01*
X129472922Y-105194477D01*
X129513684Y-105224741D01*
X129514185Y-105225094D01*
X129554509Y-105252115D01*
X129555487Y-105252709D01*
X129598041Y-105275972D01*
X129599414Y-105276619D01*
X129646866Y-105295609D01*
X129648411Y-105296115D01*
X129703427Y-105310317D01*
X129704885Y-105310604D01*
X129770135Y-105319503D01*
X129771351Y-105319609D01*
X129837301Y-105322209D01*
X129837301Y-105497747D01*
X129766205Y-105500298D01*
X129765119Y-105500384D01*
X129695424Y-105508903D01*
X129694160Y-105509123D01*
X129635148Y-105522487D01*
X129633846Y-105522855D01*
X129582555Y-105540384D01*
X129581436Y-105540827D01*
X129534901Y-105561839D01*
X129534160Y-105562203D01*
X129489419Y-105586018D01*
X129489140Y-105586171D01*
X129443308Y-105612061D01*
X129393581Y-105639263D01*
X129337027Y-105667108D01*
X129278625Y-105691625D01*
X128993896Y-105366619D01*
X129329799Y-105094794D01*
X129379902Y-105126629D01*
G37*
G04 #@! TD.AperFunction*
D23*
X140267148Y-112426394D02*
X140268583Y-112427492D01*
X140407777Y-112519092D01*
X140409503Y-112520045D01*
X140540843Y-112579736D01*
X140542539Y-112580365D01*
X140668838Y-112617240D01*
X140670067Y-112617533D01*
X140794143Y-112640688D01*
X140794606Y-112640766D01*
X140919082Y-112659266D01*
X141046417Y-112682130D01*
X141179397Y-112718331D01*
X141321176Y-112776907D01*
X141467421Y-112862636D01*
X141208456Y-113912126D01*
X140169784Y-113612310D01*
X140167177Y-113470475D01*
X140177929Y-113334743D01*
X140196003Y-113210526D01*
X140215107Y-113095123D01*
X140215178Y-113094639D01*
X140228979Y-112985238D01*
X140229076Y-112983905D01*
X140231228Y-112877717D01*
X140231092Y-112875585D01*
X140215277Y-112769653D01*
X140214630Y-112767130D01*
X140174529Y-112658497D01*
X140173415Y-112656213D01*
X140102709Y-112541923D01*
X140101463Y-112540238D01*
X140001665Y-112426276D01*
X140126233Y-112301708D01*
X140267148Y-112426394D01*
G04 #@! TA.AperFunction,Conductor*
D22*
G36*
X140267148Y-112426394D02*
G01*
X140268583Y-112427492D01*
X140407777Y-112519092D01*
X140409503Y-112520045D01*
X140540843Y-112579736D01*
X140542539Y-112580365D01*
X140668838Y-112617240D01*
X140670067Y-112617533D01*
X140794143Y-112640688D01*
X140794606Y-112640766D01*
X140919082Y-112659266D01*
X141046417Y-112682130D01*
X141179397Y-112718331D01*
X141321176Y-112776907D01*
X141467421Y-112862636D01*
X141208456Y-113912126D01*
X140169784Y-113612310D01*
X140167177Y-113470475D01*
X140177929Y-113334743D01*
X140196003Y-113210526D01*
X140215107Y-113095123D01*
X140215178Y-113094639D01*
X140228979Y-112985238D01*
X140229076Y-112983905D01*
X140231228Y-112877717D01*
X140231092Y-112875585D01*
X140215277Y-112769653D01*
X140214630Y-112767130D01*
X140174529Y-112658497D01*
X140173415Y-112656213D01*
X140102709Y-112541923D01*
X140101463Y-112540238D01*
X140001665Y-112426276D01*
X140126233Y-112301708D01*
X140267148Y-112426394D01*
G37*
G04 #@! TD.AperFunction*
D23*
X144692464Y-100404618D02*
X144693377Y-100405386D01*
X144746446Y-100445934D01*
X144747628Y-100446736D01*
X144797017Y-100476340D01*
X144798371Y-100477045D01*
X144845611Y-100498124D01*
X144846903Y-100498618D01*
X144893527Y-100513591D01*
X144894477Y-100513856D01*
X144942014Y-100525139D01*
X144942453Y-100525235D01*
X144992415Y-100535243D01*
X145046075Y-100546340D01*
X145104936Y-100560914D01*
X145162342Y-100578789D01*
X145170787Y-101010787D01*
X144738789Y-101002342D01*
X144720914Y-100944936D01*
X144706340Y-100886075D01*
X144695231Y-100832357D01*
X144685235Y-100782453D01*
X144685139Y-100782014D01*
X144673856Y-100734477D01*
X144673591Y-100733527D01*
X144658618Y-100686903D01*
X144658124Y-100685611D01*
X144637045Y-100638371D01*
X144636340Y-100637017D01*
X144606736Y-100587628D01*
X144605934Y-100586446D01*
X144565386Y-100533377D01*
X144564618Y-100532464D01*
X144519003Y-100483151D01*
X144643151Y-100359003D01*
X144692464Y-100404618D01*
G04 #@! TA.AperFunction,Conductor*
D22*
G36*
X144692464Y-100404618D02*
G01*
X144693377Y-100405386D01*
X144746446Y-100445934D01*
X144747628Y-100446736D01*
X144797017Y-100476340D01*
X144798371Y-100477045D01*
X144845611Y-100498124D01*
X144846903Y-100498618D01*
X144893527Y-100513591D01*
X144894477Y-100513856D01*
X144942014Y-100525139D01*
X144942453Y-100525235D01*
X144992415Y-100535243D01*
X145046075Y-100546340D01*
X145104936Y-100560914D01*
X145162342Y-100578789D01*
X145170787Y-101010787D01*
X144738789Y-101002342D01*
X144720914Y-100944936D01*
X144706340Y-100886075D01*
X144695231Y-100832357D01*
X144685235Y-100782453D01*
X144685139Y-100782014D01*
X144673856Y-100734477D01*
X144673591Y-100733527D01*
X144658618Y-100686903D01*
X144658124Y-100685611D01*
X144637045Y-100638371D01*
X144636340Y-100637017D01*
X144606736Y-100587628D01*
X144605934Y-100586446D01*
X144565386Y-100533377D01*
X144564618Y-100532464D01*
X144519003Y-100483151D01*
X144643151Y-100359003D01*
X144692464Y-100404618D01*
G37*
G04 #@! TD.AperFunction*
D23*
X134857999Y-99688457D02*
X134909909Y-99719763D01*
X134955760Y-99749899D01*
X134998118Y-99778118D01*
X134998495Y-99778360D01*
X135040087Y-99803996D01*
X135040947Y-99804481D01*
X135084502Y-99826862D01*
X135085764Y-99827426D01*
X135134073Y-99845925D01*
X135135529Y-99846384D01*
X135191386Y-99860374D01*
X135192788Y-99860643D01*
X135258985Y-99869497D01*
X135260175Y-99869599D01*
X135327300Y-99872214D01*
X135327300Y-100047785D01*
X135260175Y-100050400D01*
X135258985Y-100050502D01*
X135192788Y-100059356D01*
X135191386Y-100059625D01*
X135135529Y-100073615D01*
X135134073Y-100074074D01*
X135085764Y-100092573D01*
X135084502Y-100093137D01*
X135040947Y-100115518D01*
X135040087Y-100116003D01*
X134998495Y-100141639D01*
X134998118Y-100141881D01*
X134955760Y-100170100D01*
X134909909Y-100200236D01*
X134857999Y-100231542D01*
X134804763Y-100259498D01*
X134493322Y-99960000D01*
X134804763Y-99660501D01*
X134857999Y-99688457D01*
G04 #@! TA.AperFunction,Conductor*
D22*
G36*
X134857999Y-99688457D02*
G01*
X134909909Y-99719763D01*
X134955760Y-99749899D01*
X134998118Y-99778118D01*
X134998495Y-99778360D01*
X135040087Y-99803996D01*
X135040947Y-99804481D01*
X135084502Y-99826862D01*
X135085764Y-99827426D01*
X135134073Y-99845925D01*
X135135529Y-99846384D01*
X135191386Y-99860374D01*
X135192788Y-99860643D01*
X135258985Y-99869497D01*
X135260175Y-99869599D01*
X135327300Y-99872214D01*
X135327300Y-100047785D01*
X135260175Y-100050400D01*
X135258985Y-100050502D01*
X135192788Y-100059356D01*
X135191386Y-100059625D01*
X135135529Y-100073615D01*
X135134073Y-100074074D01*
X135085764Y-100092573D01*
X135084502Y-100093137D01*
X135040947Y-100115518D01*
X135040087Y-100116003D01*
X134998495Y-100141639D01*
X134998118Y-100141881D01*
X134955760Y-100170100D01*
X134909909Y-100200236D01*
X134857999Y-100231542D01*
X134804763Y-100259498D01*
X134493322Y-99960000D01*
X134804763Y-99660501D01*
X134857999Y-99688457D01*
G37*
G04 #@! TD.AperFunction*
D23*
X148227999Y-101678457D02*
X148279909Y-101709763D01*
X148325760Y-101739899D01*
X148368118Y-101768118D01*
X148368495Y-101768360D01*
X148410087Y-101793996D01*
X148410947Y-101794481D01*
X148454502Y-101816862D01*
X148455764Y-101817426D01*
X148504073Y-101835925D01*
X148505529Y-101836384D01*
X148561386Y-101850374D01*
X148562788Y-101850643D01*
X148628985Y-101859497D01*
X148630175Y-101859599D01*
X148697300Y-101862214D01*
X148697300Y-102037785D01*
X148630175Y-102040400D01*
X148628985Y-102040502D01*
X148562788Y-102049356D01*
X148561386Y-102049625D01*
X148505529Y-102063615D01*
X148504073Y-102064074D01*
X148455764Y-102082573D01*
X148454502Y-102083137D01*
X148410947Y-102105518D01*
X148410087Y-102106003D01*
X148368495Y-102131639D01*
X148368118Y-102131881D01*
X148325760Y-102160100D01*
X148279909Y-102190236D01*
X148227999Y-102221542D01*
X148174763Y-102249498D01*
X147863322Y-101950000D01*
X148174763Y-101650501D01*
X148227999Y-101678457D01*
G04 #@! TA.AperFunction,Conductor*
D22*
G36*
X148227999Y-101678457D02*
G01*
X148279909Y-101709763D01*
X148325760Y-101739899D01*
X148368118Y-101768118D01*
X148368495Y-101768360D01*
X148410087Y-101793996D01*
X148410947Y-101794481D01*
X148454502Y-101816862D01*
X148455764Y-101817426D01*
X148504073Y-101835925D01*
X148505529Y-101836384D01*
X148561386Y-101850374D01*
X148562788Y-101850643D01*
X148628985Y-101859497D01*
X148630175Y-101859599D01*
X148697300Y-101862214D01*
X148697300Y-102037785D01*
X148630175Y-102040400D01*
X148628985Y-102040502D01*
X148562788Y-102049356D01*
X148561386Y-102049625D01*
X148505529Y-102063615D01*
X148504073Y-102064074D01*
X148455764Y-102082573D01*
X148454502Y-102083137D01*
X148410947Y-102105518D01*
X148410087Y-102106003D01*
X148368495Y-102131639D01*
X148368118Y-102131881D01*
X148325760Y-102160100D01*
X148279909Y-102190236D01*
X148227999Y-102221542D01*
X148174763Y-102249498D01*
X147863322Y-101950000D01*
X148174763Y-101650501D01*
X148227999Y-101678457D01*
G37*
G04 #@! TD.AperFunction*
D23*
X148267458Y-97819850D02*
X148268422Y-97879329D01*
X148268437Y-97879774D01*
X148271477Y-97939033D01*
X148271507Y-97939469D01*
X148275987Y-97991634D01*
X148276021Y-97991982D01*
X148281461Y-98039823D01*
X148281483Y-98039999D01*
X148287398Y-98086249D01*
X148287397Y-98086249D01*
X148293303Y-98133652D01*
X148298709Y-98184843D01*
X148303163Y-98242754D01*
X148306184Y-98310123D01*
X148307121Y-98377177D01*
X148131735Y-98377177D01*
X148128442Y-98335551D01*
X148128002Y-98333094D01*
X148115869Y-98290222D01*
X148114696Y-98287415D01*
X148095428Y-98253442D01*
X148093531Y-98250900D01*
X148067905Y-98224274D01*
X148065807Y-98222519D01*
X148034603Y-98201686D01*
X148032867Y-98200714D01*
X147996865Y-98184120D01*
X147995718Y-98183658D01*
X147955697Y-98169751D01*
X147955124Y-98169567D01*
X147911862Y-98156794D01*
X147911787Y-98156772D01*
X147866245Y-98143630D01*
X147827660Y-98131286D01*
X147819284Y-97702785D01*
X148267458Y-97819850D01*
G04 #@! TA.AperFunction,Conductor*
D22*
G36*
X148267458Y-97819850D02*
G01*
X148268422Y-97879329D01*
X148268437Y-97879774D01*
X148271477Y-97939033D01*
X148271507Y-97939469D01*
X148275987Y-97991634D01*
X148276021Y-97991982D01*
X148281461Y-98039823D01*
X148281483Y-98039999D01*
X148287398Y-98086249D01*
X148287397Y-98086249D01*
X148293303Y-98133652D01*
X148298709Y-98184843D01*
X148303163Y-98242754D01*
X148306184Y-98310123D01*
X148307121Y-98377177D01*
X148131735Y-98377177D01*
X148128442Y-98335551D01*
X148128002Y-98333094D01*
X148115869Y-98290222D01*
X148114696Y-98287415D01*
X148095428Y-98253442D01*
X148093531Y-98250900D01*
X148067905Y-98224274D01*
X148065807Y-98222519D01*
X148034603Y-98201686D01*
X148032867Y-98200714D01*
X147996865Y-98184120D01*
X147995718Y-98183658D01*
X147955697Y-98169751D01*
X147955124Y-98169567D01*
X147911862Y-98156794D01*
X147911787Y-98156772D01*
X147866245Y-98143630D01*
X147827660Y-98131286D01*
X147819284Y-97702785D01*
X148267458Y-97819850D01*
G37*
G04 #@! TD.AperFunction*
D23*
X146999899Y-93636627D02*
X147049116Y-93671532D01*
X147092856Y-93704428D01*
X147092919Y-93704475D01*
X147133681Y-93734739D01*
X147134182Y-93735092D01*
X147174506Y-93762113D01*
X147175484Y-93762707D01*
X147218038Y-93785970D01*
X147219411Y-93786617D01*
X147266863Y-93805607D01*
X147268408Y-93806113D01*
X147323424Y-93820315D01*
X147324882Y-93820602D01*
X147390132Y-93829501D01*
X147391348Y-93829607D01*
X147457298Y-93832207D01*
X147457298Y-94007745D01*
X147386202Y-94010296D01*
X147385116Y-94010382D01*
X147315422Y-94018901D01*
X147314158Y-94019121D01*
X147255147Y-94032485D01*
X147253845Y-94032853D01*
X147202553Y-94050382D01*
X147201433Y-94050825D01*
X147154899Y-94071838D01*
X147154159Y-94072202D01*
X147109418Y-94096016D01*
X147109138Y-94096169D01*
X147063276Y-94122077D01*
X147013581Y-94149262D01*
X146957028Y-94177107D01*
X146898626Y-94201624D01*
X146613895Y-93876620D01*
X146949796Y-93604793D01*
X146999899Y-93636627D01*
G04 #@! TA.AperFunction,Conductor*
D22*
G36*
X146999899Y-93636627D02*
G01*
X147049116Y-93671532D01*
X147092856Y-93704428D01*
X147092919Y-93704475D01*
X147133681Y-93734739D01*
X147134182Y-93735092D01*
X147174506Y-93762113D01*
X147175484Y-93762707D01*
X147218038Y-93785970D01*
X147219411Y-93786617D01*
X147266863Y-93805607D01*
X147268408Y-93806113D01*
X147323424Y-93820315D01*
X147324882Y-93820602D01*
X147390132Y-93829501D01*
X147391348Y-93829607D01*
X147457298Y-93832207D01*
X147457298Y-94007745D01*
X147386202Y-94010296D01*
X147385116Y-94010382D01*
X147315422Y-94018901D01*
X147314158Y-94019121D01*
X147255147Y-94032485D01*
X147253845Y-94032853D01*
X147202553Y-94050382D01*
X147201433Y-94050825D01*
X147154899Y-94071838D01*
X147154159Y-94072202D01*
X147109418Y-94096016D01*
X147109138Y-94096169D01*
X147063276Y-94122077D01*
X147013581Y-94149262D01*
X146957028Y-94177107D01*
X146898626Y-94201624D01*
X146613895Y-93876620D01*
X146949796Y-93604793D01*
X146999899Y-93636627D01*
G37*
G04 #@! TD.AperFunction*
M02*
