M48
; DRILL file {KiCad (5.1.10-1-10_14)} date Monday, October 04, 2021 at 03:41:54 PM
; FORMAT={-:-/ absolute / inch / decimal}
; #@! TF.CreationDate,2021-10-04T15:41:54-04:00
; #@! TF.GenerationSoftware,Kicad,Pcbnew,(5.1.10-1-10_14)
FMAT,2
INCH
T1C0.0118
T2C0.0394
T3C0.1260
%
G90
G05
T1
X5.0846Y-4.1488
X5.239Y-4.1484
X5.3012Y-3.9354
X5.3102Y-3.5949
X5.4051Y-3.5949
X5.711Y-3.9724
X5.7709Y-4.1476
X5.7783Y-3.6965
X5.824Y-3.8508
X5.8276Y-4.0138
X5.8854Y-3.8539
X6.0579Y-4.1476
T2
X5.5514Y-4.315
X5.5514Y-4.4709
X5.5965Y-4.3929
X5.6415Y-4.315
X5.6415Y-4.4709
X5.6866Y-4.3929
X5.7317Y-4.315
X5.7317Y-4.4709
X5.7768Y-4.3929
X5.8219Y-4.315
X5.8219Y-4.4709
X5.8669Y-4.3929
X5.912Y-4.315
X5.912Y-4.4709
X5.9571Y-4.3929
T3
X5.2398Y-4.3929
X6.2236Y-4.3929
T2
G00X4.8287Y-4.2343
M15
G01X4.8681Y-4.2343
M16
G05
G00X4.8287Y-4.4508
M15
G01X4.8681Y-4.4508
M16
G05
G00X4.9075Y-4.0886
M15
G01X4.9469Y-4.0886
M16
G05
G00X4.9075Y-4.3051
M15
G01X4.9469Y-4.3051
M16
G05
G00X4.9075Y-4.5453
M15
G01X4.9469Y-4.5453
M16
G05
T0
M30
